G04 EAGLE Gerber RS-274X export*
G75*
%MOMM*%
%FSLAX34Y34*%
%LPD*%
%INSilkscreen Bottom*%
%IPPOS*%
%AMOC8*
5,1,8,0,0,1.08239X$1,22.5*%
G01*
%ADD10C,0.200000*%
%ADD11C,0.101600*%


D10*
X12167Y-88250D02*
X12167Y-103000D01*
D11*
X78825Y-143808D02*
X90509Y-143808D01*
X78825Y-145106D02*
X78825Y-142510D01*
X90509Y-142510D02*
X90509Y-145106D01*
X78825Y-135346D02*
X78825Y-132750D01*
X78825Y-135346D02*
X78827Y-135445D01*
X78833Y-135545D01*
X78842Y-135644D01*
X78855Y-135742D01*
X78872Y-135840D01*
X78893Y-135938D01*
X78918Y-136034D01*
X78946Y-136129D01*
X78978Y-136223D01*
X79013Y-136316D01*
X79052Y-136408D01*
X79095Y-136498D01*
X79140Y-136586D01*
X79190Y-136673D01*
X79242Y-136757D01*
X79298Y-136840D01*
X79356Y-136920D01*
X79418Y-136998D01*
X79483Y-137073D01*
X79551Y-137146D01*
X79621Y-137216D01*
X79694Y-137284D01*
X79769Y-137349D01*
X79847Y-137411D01*
X79927Y-137469D01*
X80010Y-137525D01*
X80094Y-137577D01*
X80181Y-137627D01*
X80269Y-137672D01*
X80359Y-137715D01*
X80451Y-137754D01*
X80544Y-137789D01*
X80638Y-137821D01*
X80733Y-137849D01*
X80829Y-137874D01*
X80927Y-137895D01*
X81025Y-137912D01*
X81123Y-137925D01*
X81222Y-137934D01*
X81322Y-137940D01*
X81421Y-137942D01*
X81421Y-137943D02*
X87912Y-137943D01*
X87912Y-137942D02*
X88011Y-137940D01*
X88111Y-137934D01*
X88210Y-137925D01*
X88308Y-137912D01*
X88406Y-137895D01*
X88504Y-137874D01*
X88600Y-137849D01*
X88695Y-137821D01*
X88789Y-137789D01*
X88882Y-137754D01*
X88974Y-137715D01*
X89064Y-137672D01*
X89152Y-137627D01*
X89239Y-137577D01*
X89323Y-137525D01*
X89406Y-137469D01*
X89486Y-137411D01*
X89564Y-137349D01*
X89639Y-137284D01*
X89712Y-137216D01*
X89782Y-137146D01*
X89850Y-137073D01*
X89915Y-136998D01*
X89977Y-136920D01*
X90035Y-136840D01*
X90091Y-136757D01*
X90143Y-136673D01*
X90193Y-136586D01*
X90238Y-136498D01*
X90281Y-136408D01*
X90320Y-136316D01*
X90355Y-136224D01*
X90387Y-136129D01*
X90415Y-136034D01*
X90440Y-135938D01*
X90461Y-135840D01*
X90478Y-135742D01*
X90491Y-135644D01*
X90500Y-135545D01*
X90506Y-135445D01*
X90508Y-135346D01*
X90509Y-135346D02*
X90509Y-132750D01*
X87912Y-128385D02*
X90509Y-125139D01*
X78825Y-125139D01*
X78825Y-121894D02*
X78825Y-128385D01*
D10*
X12167Y-257583D02*
X12167Y-272333D01*
D11*
X78825Y-313142D02*
X90509Y-313142D01*
X78825Y-314440D02*
X78825Y-311843D01*
X90509Y-311843D02*
X90509Y-314440D01*
X78825Y-304680D02*
X78825Y-302083D01*
X78825Y-304680D02*
X78827Y-304779D01*
X78833Y-304879D01*
X78842Y-304978D01*
X78855Y-305076D01*
X78872Y-305174D01*
X78893Y-305272D01*
X78918Y-305368D01*
X78946Y-305463D01*
X78978Y-305557D01*
X79013Y-305650D01*
X79052Y-305742D01*
X79095Y-305832D01*
X79140Y-305920D01*
X79190Y-306007D01*
X79242Y-306091D01*
X79298Y-306174D01*
X79356Y-306254D01*
X79418Y-306332D01*
X79483Y-306407D01*
X79551Y-306480D01*
X79621Y-306550D01*
X79694Y-306618D01*
X79769Y-306683D01*
X79847Y-306745D01*
X79927Y-306803D01*
X80010Y-306859D01*
X80094Y-306911D01*
X80181Y-306961D01*
X80269Y-307006D01*
X80359Y-307049D01*
X80451Y-307088D01*
X80544Y-307123D01*
X80638Y-307155D01*
X80733Y-307183D01*
X80829Y-307208D01*
X80927Y-307229D01*
X81025Y-307246D01*
X81123Y-307259D01*
X81222Y-307268D01*
X81322Y-307274D01*
X81421Y-307276D01*
X87912Y-307276D01*
X88011Y-307274D01*
X88111Y-307268D01*
X88210Y-307259D01*
X88308Y-307246D01*
X88406Y-307229D01*
X88504Y-307208D01*
X88600Y-307183D01*
X88695Y-307155D01*
X88789Y-307123D01*
X88882Y-307088D01*
X88974Y-307049D01*
X89064Y-307006D01*
X89152Y-306961D01*
X89239Y-306911D01*
X89323Y-306859D01*
X89406Y-306803D01*
X89486Y-306745D01*
X89564Y-306683D01*
X89639Y-306618D01*
X89712Y-306550D01*
X89782Y-306480D01*
X89850Y-306407D01*
X89915Y-306332D01*
X89977Y-306254D01*
X90035Y-306174D01*
X90091Y-306091D01*
X90143Y-306007D01*
X90193Y-305920D01*
X90238Y-305832D01*
X90281Y-305742D01*
X90320Y-305650D01*
X90355Y-305558D01*
X90387Y-305463D01*
X90415Y-305368D01*
X90440Y-305272D01*
X90461Y-305174D01*
X90478Y-305076D01*
X90491Y-304978D01*
X90500Y-304879D01*
X90506Y-304779D01*
X90508Y-304680D01*
X90509Y-304680D02*
X90509Y-302083D01*
X90509Y-294148D02*
X90507Y-294041D01*
X90501Y-293935D01*
X90491Y-293829D01*
X90478Y-293723D01*
X90460Y-293617D01*
X90439Y-293513D01*
X90414Y-293409D01*
X90385Y-293306D01*
X90353Y-293205D01*
X90316Y-293105D01*
X90276Y-293006D01*
X90233Y-292908D01*
X90186Y-292812D01*
X90135Y-292718D01*
X90081Y-292626D01*
X90024Y-292536D01*
X89964Y-292448D01*
X89900Y-292363D01*
X89833Y-292280D01*
X89763Y-292199D01*
X89691Y-292121D01*
X89615Y-292045D01*
X89537Y-291973D01*
X89456Y-291903D01*
X89373Y-291836D01*
X89288Y-291772D01*
X89200Y-291712D01*
X89110Y-291655D01*
X89018Y-291601D01*
X88924Y-291550D01*
X88828Y-291503D01*
X88730Y-291460D01*
X88631Y-291420D01*
X88531Y-291383D01*
X88430Y-291351D01*
X88327Y-291322D01*
X88223Y-291297D01*
X88119Y-291276D01*
X88013Y-291258D01*
X87907Y-291245D01*
X87801Y-291235D01*
X87695Y-291229D01*
X87588Y-291227D01*
X90509Y-294148D02*
X90507Y-294269D01*
X90501Y-294390D01*
X90491Y-294510D01*
X90478Y-294631D01*
X90460Y-294750D01*
X90439Y-294870D01*
X90414Y-294988D01*
X90385Y-295105D01*
X90352Y-295222D01*
X90316Y-295337D01*
X90275Y-295451D01*
X90232Y-295564D01*
X90184Y-295676D01*
X90133Y-295785D01*
X90078Y-295893D01*
X90020Y-296000D01*
X89959Y-296104D01*
X89894Y-296206D01*
X89826Y-296306D01*
X89755Y-296404D01*
X89681Y-296500D01*
X89604Y-296593D01*
X89523Y-296683D01*
X89440Y-296771D01*
X89354Y-296856D01*
X89265Y-296939D01*
X89174Y-297018D01*
X89080Y-297095D01*
X88984Y-297168D01*
X88886Y-297238D01*
X88785Y-297305D01*
X88682Y-297369D01*
X88577Y-297430D01*
X88470Y-297487D01*
X88362Y-297540D01*
X88252Y-297590D01*
X88140Y-297636D01*
X88027Y-297679D01*
X87912Y-297718D01*
X85316Y-292201D02*
X85394Y-292122D01*
X85474Y-292046D01*
X85557Y-291973D01*
X85643Y-291903D01*
X85730Y-291836D01*
X85821Y-291772D01*
X85913Y-291712D01*
X86007Y-291654D01*
X86104Y-291600D01*
X86202Y-291550D01*
X86302Y-291503D01*
X86403Y-291459D01*
X86506Y-291419D01*
X86611Y-291383D01*
X86716Y-291351D01*
X86823Y-291322D01*
X86930Y-291297D01*
X87039Y-291275D01*
X87148Y-291258D01*
X87257Y-291244D01*
X87367Y-291235D01*
X87478Y-291229D01*
X87588Y-291227D01*
X85316Y-292201D02*
X78825Y-297718D01*
X78825Y-291227D01*
D10*
X12167Y-426917D02*
X12167Y-441667D01*
D11*
X78825Y-482475D02*
X90509Y-482475D01*
X78825Y-483773D02*
X78825Y-481177D01*
X90509Y-481177D02*
X90509Y-483773D01*
X78825Y-474013D02*
X78825Y-471417D01*
X78825Y-474013D02*
X78827Y-474112D01*
X78833Y-474212D01*
X78842Y-474311D01*
X78855Y-474409D01*
X78872Y-474507D01*
X78893Y-474605D01*
X78918Y-474701D01*
X78946Y-474796D01*
X78978Y-474890D01*
X79013Y-474983D01*
X79052Y-475075D01*
X79095Y-475165D01*
X79140Y-475253D01*
X79190Y-475340D01*
X79242Y-475424D01*
X79298Y-475507D01*
X79356Y-475587D01*
X79418Y-475665D01*
X79483Y-475740D01*
X79551Y-475813D01*
X79621Y-475883D01*
X79694Y-475951D01*
X79769Y-476016D01*
X79847Y-476078D01*
X79927Y-476136D01*
X80010Y-476192D01*
X80094Y-476244D01*
X80181Y-476294D01*
X80269Y-476339D01*
X80359Y-476382D01*
X80451Y-476421D01*
X80544Y-476456D01*
X80638Y-476488D01*
X80733Y-476516D01*
X80829Y-476541D01*
X80927Y-476562D01*
X81025Y-476579D01*
X81123Y-476592D01*
X81222Y-476601D01*
X81322Y-476607D01*
X81421Y-476609D01*
X81421Y-476610D02*
X87912Y-476610D01*
X87912Y-476609D02*
X88011Y-476607D01*
X88111Y-476601D01*
X88210Y-476592D01*
X88308Y-476579D01*
X88406Y-476562D01*
X88504Y-476541D01*
X88600Y-476516D01*
X88695Y-476488D01*
X88789Y-476456D01*
X88882Y-476421D01*
X88974Y-476382D01*
X89064Y-476339D01*
X89152Y-476294D01*
X89239Y-476244D01*
X89323Y-476192D01*
X89406Y-476136D01*
X89486Y-476078D01*
X89564Y-476016D01*
X89639Y-475951D01*
X89712Y-475883D01*
X89782Y-475813D01*
X89850Y-475740D01*
X89915Y-475665D01*
X89977Y-475587D01*
X90035Y-475507D01*
X90091Y-475424D01*
X90143Y-475340D01*
X90193Y-475253D01*
X90238Y-475165D01*
X90281Y-475075D01*
X90320Y-474983D01*
X90355Y-474891D01*
X90387Y-474796D01*
X90415Y-474701D01*
X90440Y-474605D01*
X90461Y-474507D01*
X90478Y-474409D01*
X90491Y-474311D01*
X90500Y-474212D01*
X90506Y-474112D01*
X90508Y-474013D01*
X90509Y-474013D02*
X90509Y-471417D01*
X78825Y-467051D02*
X78825Y-463806D01*
X78824Y-463806D02*
X78826Y-463693D01*
X78832Y-463580D01*
X78842Y-463467D01*
X78856Y-463354D01*
X78873Y-463242D01*
X78895Y-463131D01*
X78920Y-463021D01*
X78950Y-462911D01*
X78983Y-462803D01*
X79020Y-462696D01*
X79060Y-462590D01*
X79105Y-462486D01*
X79153Y-462383D01*
X79204Y-462282D01*
X79259Y-462183D01*
X79317Y-462086D01*
X79379Y-461991D01*
X79444Y-461898D01*
X79512Y-461808D01*
X79583Y-461720D01*
X79658Y-461634D01*
X79735Y-461551D01*
X79815Y-461471D01*
X79898Y-461394D01*
X79984Y-461319D01*
X80072Y-461248D01*
X80162Y-461180D01*
X80255Y-461115D01*
X80350Y-461053D01*
X80447Y-460995D01*
X80546Y-460940D01*
X80647Y-460889D01*
X80750Y-460841D01*
X80854Y-460796D01*
X80960Y-460756D01*
X81067Y-460719D01*
X81175Y-460686D01*
X81285Y-460656D01*
X81395Y-460631D01*
X81506Y-460609D01*
X81618Y-460592D01*
X81731Y-460578D01*
X81844Y-460568D01*
X81957Y-460562D01*
X82070Y-460560D01*
X82183Y-460562D01*
X82296Y-460568D01*
X82409Y-460578D01*
X82522Y-460592D01*
X82634Y-460609D01*
X82745Y-460631D01*
X82855Y-460656D01*
X82965Y-460686D01*
X83073Y-460719D01*
X83180Y-460756D01*
X83286Y-460796D01*
X83390Y-460841D01*
X83493Y-460889D01*
X83594Y-460940D01*
X83693Y-460995D01*
X83790Y-461053D01*
X83885Y-461115D01*
X83978Y-461180D01*
X84068Y-461248D01*
X84156Y-461319D01*
X84242Y-461394D01*
X84325Y-461471D01*
X84405Y-461551D01*
X84482Y-461634D01*
X84557Y-461720D01*
X84628Y-461808D01*
X84696Y-461898D01*
X84761Y-461991D01*
X84823Y-462086D01*
X84881Y-462183D01*
X84936Y-462282D01*
X84987Y-462383D01*
X85035Y-462486D01*
X85080Y-462590D01*
X85120Y-462696D01*
X85157Y-462803D01*
X85190Y-462911D01*
X85220Y-463021D01*
X85245Y-463131D01*
X85267Y-463242D01*
X85284Y-463354D01*
X85298Y-463467D01*
X85308Y-463580D01*
X85314Y-463693D01*
X85316Y-463806D01*
X90509Y-463157D02*
X90509Y-467051D01*
X90508Y-463157D02*
X90506Y-463056D01*
X90500Y-462956D01*
X90490Y-462856D01*
X90477Y-462756D01*
X90459Y-462657D01*
X90438Y-462558D01*
X90413Y-462461D01*
X90384Y-462364D01*
X90351Y-462269D01*
X90315Y-462175D01*
X90275Y-462083D01*
X90232Y-461992D01*
X90185Y-461903D01*
X90135Y-461816D01*
X90081Y-461730D01*
X90024Y-461647D01*
X89964Y-461567D01*
X89901Y-461488D01*
X89834Y-461412D01*
X89765Y-461339D01*
X89693Y-461269D01*
X89619Y-461201D01*
X89542Y-461136D01*
X89462Y-461075D01*
X89380Y-461016D01*
X89296Y-460961D01*
X89210Y-460909D01*
X89122Y-460860D01*
X89032Y-460815D01*
X88940Y-460773D01*
X88847Y-460735D01*
X88752Y-460701D01*
X88657Y-460670D01*
X88560Y-460643D01*
X88462Y-460620D01*
X88363Y-460600D01*
X88263Y-460585D01*
X88163Y-460573D01*
X88063Y-460565D01*
X87962Y-460561D01*
X87862Y-460561D01*
X87761Y-460565D01*
X87661Y-460573D01*
X87561Y-460585D01*
X87461Y-460600D01*
X87362Y-460620D01*
X87264Y-460643D01*
X87167Y-460670D01*
X87072Y-460701D01*
X86977Y-460735D01*
X86884Y-460773D01*
X86792Y-460815D01*
X86702Y-460860D01*
X86614Y-460909D01*
X86528Y-460961D01*
X86444Y-461016D01*
X86362Y-461075D01*
X86282Y-461136D01*
X86205Y-461201D01*
X86131Y-461269D01*
X86059Y-461339D01*
X85990Y-461412D01*
X85923Y-461488D01*
X85860Y-461567D01*
X85800Y-461647D01*
X85743Y-461730D01*
X85689Y-461816D01*
X85639Y-461903D01*
X85592Y-461992D01*
X85549Y-462083D01*
X85509Y-462175D01*
X85473Y-462269D01*
X85440Y-462364D01*
X85411Y-462461D01*
X85386Y-462558D01*
X85365Y-462657D01*
X85347Y-462756D01*
X85334Y-462856D01*
X85324Y-462956D01*
X85318Y-463056D01*
X85316Y-463157D01*
X85316Y-465753D01*
D10*
X12167Y-596250D02*
X12167Y-611000D01*
D11*
X78825Y-651808D02*
X90509Y-651808D01*
X78825Y-653106D02*
X78825Y-650510D01*
X90509Y-650510D02*
X90509Y-653106D01*
X78825Y-643346D02*
X78825Y-640750D01*
X78825Y-643346D02*
X78827Y-643445D01*
X78833Y-643545D01*
X78842Y-643644D01*
X78855Y-643742D01*
X78872Y-643840D01*
X78893Y-643938D01*
X78918Y-644034D01*
X78946Y-644129D01*
X78978Y-644223D01*
X79013Y-644316D01*
X79052Y-644408D01*
X79095Y-644498D01*
X79140Y-644586D01*
X79190Y-644673D01*
X79242Y-644757D01*
X79298Y-644840D01*
X79356Y-644920D01*
X79418Y-644998D01*
X79483Y-645073D01*
X79551Y-645146D01*
X79621Y-645216D01*
X79694Y-645284D01*
X79769Y-645349D01*
X79847Y-645411D01*
X79927Y-645469D01*
X80010Y-645525D01*
X80094Y-645577D01*
X80181Y-645627D01*
X80269Y-645672D01*
X80359Y-645715D01*
X80451Y-645754D01*
X80544Y-645789D01*
X80638Y-645821D01*
X80733Y-645849D01*
X80829Y-645874D01*
X80927Y-645895D01*
X81025Y-645912D01*
X81123Y-645925D01*
X81222Y-645934D01*
X81322Y-645940D01*
X81421Y-645942D01*
X81421Y-645943D02*
X87912Y-645943D01*
X87912Y-645942D02*
X88011Y-645940D01*
X88111Y-645934D01*
X88210Y-645925D01*
X88308Y-645912D01*
X88406Y-645895D01*
X88504Y-645874D01*
X88600Y-645849D01*
X88695Y-645821D01*
X88789Y-645789D01*
X88882Y-645754D01*
X88974Y-645715D01*
X89064Y-645672D01*
X89152Y-645627D01*
X89239Y-645577D01*
X89323Y-645525D01*
X89406Y-645469D01*
X89486Y-645411D01*
X89564Y-645349D01*
X89639Y-645284D01*
X89712Y-645216D01*
X89782Y-645146D01*
X89850Y-645073D01*
X89915Y-644998D01*
X89977Y-644920D01*
X90035Y-644840D01*
X90091Y-644757D01*
X90143Y-644673D01*
X90193Y-644586D01*
X90238Y-644498D01*
X90281Y-644408D01*
X90320Y-644316D01*
X90355Y-644224D01*
X90387Y-644129D01*
X90415Y-644034D01*
X90440Y-643938D01*
X90461Y-643840D01*
X90478Y-643742D01*
X90491Y-643644D01*
X90500Y-643545D01*
X90506Y-643445D01*
X90508Y-643346D01*
X90509Y-643346D02*
X90509Y-640750D01*
X90509Y-633788D02*
X81421Y-636385D01*
X81421Y-629894D01*
X84018Y-631841D02*
X78825Y-631841D01*
D10*
X12167Y-765583D02*
X12167Y-780333D01*
D11*
X78825Y-821142D02*
X90509Y-821142D01*
X78825Y-822440D02*
X78825Y-819843D01*
X90509Y-819843D02*
X90509Y-822440D01*
X78825Y-812680D02*
X78825Y-810083D01*
X78825Y-812680D02*
X78827Y-812779D01*
X78833Y-812879D01*
X78842Y-812978D01*
X78855Y-813076D01*
X78872Y-813174D01*
X78893Y-813272D01*
X78918Y-813368D01*
X78946Y-813463D01*
X78978Y-813557D01*
X79013Y-813650D01*
X79052Y-813742D01*
X79095Y-813832D01*
X79140Y-813920D01*
X79190Y-814007D01*
X79242Y-814091D01*
X79298Y-814174D01*
X79356Y-814254D01*
X79418Y-814332D01*
X79483Y-814407D01*
X79551Y-814480D01*
X79621Y-814550D01*
X79694Y-814618D01*
X79769Y-814683D01*
X79847Y-814745D01*
X79927Y-814803D01*
X80010Y-814859D01*
X80094Y-814911D01*
X80181Y-814961D01*
X80269Y-815006D01*
X80359Y-815049D01*
X80451Y-815088D01*
X80544Y-815123D01*
X80638Y-815155D01*
X80733Y-815183D01*
X80829Y-815208D01*
X80927Y-815229D01*
X81025Y-815246D01*
X81123Y-815259D01*
X81222Y-815268D01*
X81322Y-815274D01*
X81421Y-815276D01*
X87912Y-815276D01*
X88011Y-815274D01*
X88111Y-815268D01*
X88210Y-815259D01*
X88308Y-815246D01*
X88406Y-815229D01*
X88504Y-815208D01*
X88600Y-815183D01*
X88695Y-815155D01*
X88789Y-815123D01*
X88882Y-815088D01*
X88974Y-815049D01*
X89064Y-815006D01*
X89152Y-814961D01*
X89239Y-814911D01*
X89323Y-814859D01*
X89406Y-814803D01*
X89486Y-814745D01*
X89564Y-814683D01*
X89639Y-814618D01*
X89712Y-814550D01*
X89782Y-814480D01*
X89850Y-814407D01*
X89915Y-814332D01*
X89977Y-814254D01*
X90035Y-814174D01*
X90091Y-814091D01*
X90143Y-814007D01*
X90193Y-813920D01*
X90238Y-813832D01*
X90281Y-813742D01*
X90320Y-813650D01*
X90355Y-813558D01*
X90387Y-813463D01*
X90415Y-813368D01*
X90440Y-813272D01*
X90461Y-813174D01*
X90478Y-813076D01*
X90491Y-812978D01*
X90500Y-812879D01*
X90506Y-812779D01*
X90508Y-812680D01*
X90509Y-812680D02*
X90509Y-810083D01*
X78825Y-805718D02*
X78825Y-801823D01*
X78827Y-801724D01*
X78833Y-801624D01*
X78842Y-801525D01*
X78855Y-801427D01*
X78872Y-801329D01*
X78893Y-801231D01*
X78918Y-801135D01*
X78946Y-801040D01*
X78978Y-800946D01*
X79013Y-800853D01*
X79052Y-800761D01*
X79095Y-800671D01*
X79140Y-800583D01*
X79190Y-800496D01*
X79242Y-800412D01*
X79298Y-800329D01*
X79356Y-800249D01*
X79418Y-800171D01*
X79483Y-800096D01*
X79551Y-800023D01*
X79621Y-799953D01*
X79694Y-799885D01*
X79769Y-799820D01*
X79847Y-799758D01*
X79927Y-799700D01*
X80010Y-799644D01*
X80094Y-799592D01*
X80181Y-799542D01*
X80269Y-799497D01*
X80359Y-799454D01*
X80451Y-799415D01*
X80544Y-799380D01*
X80638Y-799348D01*
X80733Y-799320D01*
X80829Y-799295D01*
X80927Y-799274D01*
X81025Y-799257D01*
X81123Y-799244D01*
X81222Y-799235D01*
X81322Y-799229D01*
X81421Y-799227D01*
X82719Y-799227D01*
X82818Y-799229D01*
X82918Y-799235D01*
X83017Y-799244D01*
X83115Y-799257D01*
X83213Y-799274D01*
X83311Y-799295D01*
X83407Y-799320D01*
X83502Y-799348D01*
X83596Y-799380D01*
X83689Y-799415D01*
X83781Y-799454D01*
X83871Y-799497D01*
X83959Y-799542D01*
X84046Y-799592D01*
X84130Y-799644D01*
X84213Y-799700D01*
X84293Y-799758D01*
X84371Y-799820D01*
X84446Y-799885D01*
X84519Y-799953D01*
X84589Y-800023D01*
X84657Y-800096D01*
X84722Y-800171D01*
X84784Y-800249D01*
X84842Y-800329D01*
X84898Y-800412D01*
X84950Y-800496D01*
X85000Y-800583D01*
X85045Y-800671D01*
X85088Y-800761D01*
X85127Y-800853D01*
X85162Y-800946D01*
X85194Y-801040D01*
X85222Y-801135D01*
X85247Y-801231D01*
X85268Y-801329D01*
X85285Y-801427D01*
X85298Y-801525D01*
X85307Y-801624D01*
X85313Y-801724D01*
X85315Y-801823D01*
X85316Y-801823D02*
X85316Y-805718D01*
X90509Y-805718D01*
X90509Y-799227D01*
D10*
X12167Y-934917D02*
X12167Y-949667D01*
D11*
X78825Y-990475D02*
X90509Y-990475D01*
X78825Y-991773D02*
X78825Y-989177D01*
X90509Y-989177D02*
X90509Y-991773D01*
X78825Y-982013D02*
X78825Y-979417D01*
X78825Y-982013D02*
X78827Y-982112D01*
X78833Y-982212D01*
X78842Y-982311D01*
X78855Y-982409D01*
X78872Y-982507D01*
X78893Y-982605D01*
X78918Y-982701D01*
X78946Y-982796D01*
X78978Y-982890D01*
X79013Y-982983D01*
X79052Y-983075D01*
X79095Y-983165D01*
X79140Y-983253D01*
X79190Y-983340D01*
X79242Y-983424D01*
X79298Y-983507D01*
X79356Y-983587D01*
X79418Y-983665D01*
X79483Y-983740D01*
X79551Y-983813D01*
X79621Y-983883D01*
X79694Y-983951D01*
X79769Y-984016D01*
X79847Y-984078D01*
X79927Y-984136D01*
X80010Y-984192D01*
X80094Y-984244D01*
X80181Y-984294D01*
X80269Y-984339D01*
X80359Y-984382D01*
X80451Y-984421D01*
X80544Y-984456D01*
X80638Y-984488D01*
X80733Y-984516D01*
X80829Y-984541D01*
X80927Y-984562D01*
X81025Y-984579D01*
X81123Y-984592D01*
X81222Y-984601D01*
X81322Y-984607D01*
X81421Y-984609D01*
X81421Y-984610D02*
X87912Y-984610D01*
X87912Y-984609D02*
X88011Y-984607D01*
X88111Y-984601D01*
X88210Y-984592D01*
X88308Y-984579D01*
X88406Y-984562D01*
X88504Y-984541D01*
X88600Y-984516D01*
X88695Y-984488D01*
X88789Y-984456D01*
X88882Y-984421D01*
X88974Y-984382D01*
X89064Y-984339D01*
X89152Y-984294D01*
X89239Y-984244D01*
X89323Y-984192D01*
X89406Y-984136D01*
X89486Y-984078D01*
X89564Y-984016D01*
X89639Y-983951D01*
X89712Y-983883D01*
X89782Y-983813D01*
X89850Y-983740D01*
X89915Y-983665D01*
X89977Y-983587D01*
X90035Y-983507D01*
X90091Y-983424D01*
X90143Y-983340D01*
X90193Y-983253D01*
X90238Y-983165D01*
X90281Y-983075D01*
X90320Y-982983D01*
X90355Y-982891D01*
X90387Y-982796D01*
X90415Y-982701D01*
X90440Y-982605D01*
X90461Y-982507D01*
X90478Y-982409D01*
X90491Y-982311D01*
X90500Y-982212D01*
X90506Y-982112D01*
X90508Y-982013D01*
X90509Y-982013D02*
X90509Y-979417D01*
X85316Y-975051D02*
X85316Y-971157D01*
X85315Y-971157D02*
X85313Y-971058D01*
X85307Y-970958D01*
X85298Y-970859D01*
X85285Y-970761D01*
X85268Y-970663D01*
X85247Y-970565D01*
X85222Y-970469D01*
X85194Y-970374D01*
X85162Y-970280D01*
X85127Y-970187D01*
X85088Y-970095D01*
X85045Y-970005D01*
X85000Y-969917D01*
X84950Y-969830D01*
X84898Y-969746D01*
X84842Y-969663D01*
X84784Y-969583D01*
X84722Y-969505D01*
X84657Y-969430D01*
X84589Y-969357D01*
X84519Y-969287D01*
X84446Y-969219D01*
X84371Y-969154D01*
X84293Y-969092D01*
X84213Y-969034D01*
X84130Y-968978D01*
X84046Y-968926D01*
X83959Y-968876D01*
X83871Y-968831D01*
X83781Y-968788D01*
X83689Y-968749D01*
X83596Y-968714D01*
X83502Y-968682D01*
X83407Y-968654D01*
X83311Y-968629D01*
X83213Y-968608D01*
X83115Y-968591D01*
X83017Y-968578D01*
X82918Y-968569D01*
X82818Y-968563D01*
X82719Y-968561D01*
X82719Y-968560D02*
X82070Y-968560D01*
X81957Y-968562D01*
X81844Y-968568D01*
X81731Y-968578D01*
X81618Y-968592D01*
X81506Y-968609D01*
X81395Y-968631D01*
X81285Y-968656D01*
X81175Y-968686D01*
X81067Y-968719D01*
X80960Y-968756D01*
X80854Y-968796D01*
X80750Y-968841D01*
X80647Y-968889D01*
X80546Y-968940D01*
X80447Y-968995D01*
X80350Y-969053D01*
X80255Y-969115D01*
X80162Y-969180D01*
X80072Y-969248D01*
X79984Y-969319D01*
X79898Y-969394D01*
X79815Y-969471D01*
X79735Y-969551D01*
X79658Y-969634D01*
X79583Y-969720D01*
X79512Y-969808D01*
X79444Y-969898D01*
X79379Y-969991D01*
X79317Y-970086D01*
X79259Y-970183D01*
X79204Y-970282D01*
X79153Y-970383D01*
X79105Y-970486D01*
X79060Y-970590D01*
X79020Y-970696D01*
X78983Y-970803D01*
X78950Y-970911D01*
X78920Y-971021D01*
X78895Y-971131D01*
X78873Y-971242D01*
X78856Y-971354D01*
X78842Y-971467D01*
X78832Y-971580D01*
X78826Y-971693D01*
X78824Y-971806D01*
X78826Y-971919D01*
X78832Y-972032D01*
X78842Y-972145D01*
X78856Y-972258D01*
X78873Y-972370D01*
X78895Y-972481D01*
X78920Y-972591D01*
X78950Y-972701D01*
X78983Y-972809D01*
X79020Y-972916D01*
X79060Y-973022D01*
X79105Y-973126D01*
X79153Y-973229D01*
X79204Y-973330D01*
X79259Y-973429D01*
X79317Y-973526D01*
X79379Y-973621D01*
X79444Y-973714D01*
X79512Y-973804D01*
X79583Y-973892D01*
X79658Y-973978D01*
X79735Y-974061D01*
X79815Y-974141D01*
X79898Y-974218D01*
X79984Y-974293D01*
X80072Y-974364D01*
X80162Y-974432D01*
X80255Y-974497D01*
X80350Y-974559D01*
X80447Y-974617D01*
X80546Y-974672D01*
X80647Y-974723D01*
X80750Y-974771D01*
X80854Y-974816D01*
X80960Y-974856D01*
X81067Y-974893D01*
X81175Y-974926D01*
X81285Y-974956D01*
X81395Y-974981D01*
X81506Y-975003D01*
X81618Y-975020D01*
X81731Y-975034D01*
X81844Y-975044D01*
X81957Y-975050D01*
X82070Y-975052D01*
X82070Y-975051D02*
X85316Y-975051D01*
X85459Y-975049D01*
X85602Y-975043D01*
X85745Y-975033D01*
X85887Y-975019D01*
X86029Y-975002D01*
X86171Y-974980D01*
X86312Y-974955D01*
X86452Y-974925D01*
X86591Y-974892D01*
X86729Y-974855D01*
X86866Y-974814D01*
X87002Y-974770D01*
X87137Y-974721D01*
X87270Y-974669D01*
X87402Y-974614D01*
X87532Y-974554D01*
X87661Y-974491D01*
X87788Y-974425D01*
X87912Y-974355D01*
X88035Y-974282D01*
X88156Y-974205D01*
X88275Y-974125D01*
X88391Y-974042D01*
X88506Y-973956D01*
X88617Y-973867D01*
X88727Y-973774D01*
X88833Y-973679D01*
X88937Y-973580D01*
X89038Y-973479D01*
X89137Y-973375D01*
X89232Y-973269D01*
X89325Y-973159D01*
X89414Y-973048D01*
X89500Y-972933D01*
X89583Y-972817D01*
X89663Y-972698D01*
X89740Y-972577D01*
X89813Y-972455D01*
X89883Y-972330D01*
X89949Y-972203D01*
X90012Y-972074D01*
X90072Y-971944D01*
X90127Y-971812D01*
X90179Y-971679D01*
X90228Y-971544D01*
X90272Y-971408D01*
X90313Y-971271D01*
X90350Y-971133D01*
X90383Y-970994D01*
X90413Y-970854D01*
X90438Y-970713D01*
X90460Y-970571D01*
X90477Y-970429D01*
X90491Y-970287D01*
X90501Y-970144D01*
X90507Y-970001D01*
X90509Y-969858D01*
D10*
X12167Y-1104250D02*
X12167Y-1119000D01*
D11*
X78825Y-1159808D02*
X90509Y-1159808D01*
X78825Y-1161106D02*
X78825Y-1158510D01*
X90509Y-1158510D02*
X90509Y-1161106D01*
X78825Y-1151346D02*
X78825Y-1148750D01*
X78825Y-1151346D02*
X78827Y-1151445D01*
X78833Y-1151545D01*
X78842Y-1151644D01*
X78855Y-1151742D01*
X78872Y-1151840D01*
X78893Y-1151938D01*
X78918Y-1152034D01*
X78946Y-1152129D01*
X78978Y-1152223D01*
X79013Y-1152316D01*
X79052Y-1152408D01*
X79095Y-1152498D01*
X79140Y-1152586D01*
X79190Y-1152673D01*
X79242Y-1152757D01*
X79298Y-1152840D01*
X79356Y-1152920D01*
X79418Y-1152998D01*
X79483Y-1153073D01*
X79551Y-1153146D01*
X79621Y-1153216D01*
X79694Y-1153284D01*
X79769Y-1153349D01*
X79847Y-1153411D01*
X79927Y-1153469D01*
X80010Y-1153525D01*
X80094Y-1153577D01*
X80181Y-1153627D01*
X80269Y-1153672D01*
X80359Y-1153715D01*
X80451Y-1153754D01*
X80544Y-1153789D01*
X80638Y-1153821D01*
X80733Y-1153849D01*
X80829Y-1153874D01*
X80927Y-1153895D01*
X81025Y-1153912D01*
X81123Y-1153925D01*
X81222Y-1153934D01*
X81322Y-1153940D01*
X81421Y-1153942D01*
X81421Y-1153943D02*
X87912Y-1153943D01*
X87912Y-1153942D02*
X88011Y-1153940D01*
X88111Y-1153934D01*
X88210Y-1153925D01*
X88308Y-1153912D01*
X88406Y-1153895D01*
X88504Y-1153874D01*
X88600Y-1153849D01*
X88695Y-1153821D01*
X88789Y-1153789D01*
X88882Y-1153754D01*
X88974Y-1153715D01*
X89064Y-1153672D01*
X89152Y-1153627D01*
X89239Y-1153577D01*
X89323Y-1153525D01*
X89406Y-1153469D01*
X89486Y-1153411D01*
X89564Y-1153349D01*
X89639Y-1153284D01*
X89712Y-1153216D01*
X89782Y-1153146D01*
X89850Y-1153073D01*
X89915Y-1152998D01*
X89977Y-1152920D01*
X90035Y-1152840D01*
X90091Y-1152757D01*
X90143Y-1152673D01*
X90193Y-1152586D01*
X90238Y-1152498D01*
X90281Y-1152408D01*
X90320Y-1152316D01*
X90355Y-1152224D01*
X90387Y-1152129D01*
X90415Y-1152034D01*
X90440Y-1151938D01*
X90461Y-1151840D01*
X90478Y-1151742D01*
X90491Y-1151644D01*
X90500Y-1151545D01*
X90506Y-1151445D01*
X90508Y-1151346D01*
X90509Y-1151346D02*
X90509Y-1148750D01*
X90509Y-1144385D02*
X89210Y-1144385D01*
X90509Y-1144385D02*
X90509Y-1137894D01*
X78825Y-1141139D01*
D10*
X12167Y-1272417D02*
X12167Y-1287167D01*
D11*
X78825Y-1327975D02*
X90509Y-1327975D01*
X78825Y-1329273D02*
X78825Y-1326677D01*
X90509Y-1326677D02*
X90509Y-1329273D01*
X78825Y-1319513D02*
X78825Y-1316917D01*
X78825Y-1319513D02*
X78827Y-1319612D01*
X78833Y-1319712D01*
X78842Y-1319811D01*
X78855Y-1319909D01*
X78872Y-1320007D01*
X78893Y-1320105D01*
X78918Y-1320201D01*
X78946Y-1320296D01*
X78978Y-1320390D01*
X79013Y-1320483D01*
X79052Y-1320575D01*
X79095Y-1320665D01*
X79140Y-1320753D01*
X79190Y-1320840D01*
X79242Y-1320924D01*
X79298Y-1321007D01*
X79356Y-1321087D01*
X79418Y-1321165D01*
X79483Y-1321240D01*
X79551Y-1321313D01*
X79621Y-1321383D01*
X79694Y-1321451D01*
X79769Y-1321516D01*
X79847Y-1321578D01*
X79927Y-1321636D01*
X80010Y-1321692D01*
X80094Y-1321744D01*
X80181Y-1321794D01*
X80269Y-1321839D01*
X80359Y-1321882D01*
X80451Y-1321921D01*
X80544Y-1321956D01*
X80638Y-1321988D01*
X80733Y-1322016D01*
X80829Y-1322041D01*
X80927Y-1322062D01*
X81025Y-1322079D01*
X81123Y-1322092D01*
X81222Y-1322101D01*
X81322Y-1322107D01*
X81421Y-1322109D01*
X81421Y-1322110D02*
X87912Y-1322110D01*
X87912Y-1322109D02*
X88011Y-1322107D01*
X88111Y-1322101D01*
X88210Y-1322092D01*
X88308Y-1322079D01*
X88406Y-1322062D01*
X88504Y-1322041D01*
X88600Y-1322016D01*
X88695Y-1321988D01*
X88789Y-1321956D01*
X88882Y-1321921D01*
X88974Y-1321882D01*
X89064Y-1321839D01*
X89152Y-1321794D01*
X89239Y-1321744D01*
X89323Y-1321692D01*
X89406Y-1321636D01*
X89486Y-1321578D01*
X89564Y-1321516D01*
X89639Y-1321451D01*
X89712Y-1321383D01*
X89782Y-1321313D01*
X89850Y-1321240D01*
X89915Y-1321165D01*
X89977Y-1321087D01*
X90035Y-1321007D01*
X90091Y-1320924D01*
X90143Y-1320840D01*
X90193Y-1320753D01*
X90238Y-1320665D01*
X90281Y-1320575D01*
X90320Y-1320483D01*
X90355Y-1320391D01*
X90387Y-1320296D01*
X90415Y-1320201D01*
X90440Y-1320105D01*
X90461Y-1320007D01*
X90478Y-1319909D01*
X90491Y-1319811D01*
X90500Y-1319712D01*
X90506Y-1319612D01*
X90508Y-1319513D01*
X90509Y-1319513D02*
X90509Y-1316917D01*
X82070Y-1312552D02*
X82183Y-1312550D01*
X82296Y-1312544D01*
X82409Y-1312534D01*
X82522Y-1312520D01*
X82634Y-1312503D01*
X82745Y-1312481D01*
X82855Y-1312456D01*
X82965Y-1312426D01*
X83073Y-1312393D01*
X83180Y-1312356D01*
X83286Y-1312316D01*
X83390Y-1312271D01*
X83493Y-1312223D01*
X83594Y-1312172D01*
X83693Y-1312117D01*
X83790Y-1312059D01*
X83885Y-1311997D01*
X83978Y-1311932D01*
X84068Y-1311864D01*
X84156Y-1311793D01*
X84242Y-1311718D01*
X84325Y-1311641D01*
X84405Y-1311561D01*
X84482Y-1311478D01*
X84557Y-1311392D01*
X84628Y-1311304D01*
X84696Y-1311214D01*
X84761Y-1311121D01*
X84823Y-1311026D01*
X84881Y-1310929D01*
X84936Y-1310830D01*
X84987Y-1310729D01*
X85035Y-1310626D01*
X85080Y-1310522D01*
X85120Y-1310416D01*
X85157Y-1310309D01*
X85190Y-1310201D01*
X85220Y-1310091D01*
X85245Y-1309981D01*
X85267Y-1309870D01*
X85284Y-1309758D01*
X85298Y-1309645D01*
X85308Y-1309532D01*
X85314Y-1309419D01*
X85316Y-1309306D01*
X85314Y-1309193D01*
X85308Y-1309080D01*
X85298Y-1308967D01*
X85284Y-1308854D01*
X85267Y-1308742D01*
X85245Y-1308631D01*
X85220Y-1308521D01*
X85190Y-1308411D01*
X85157Y-1308303D01*
X85120Y-1308196D01*
X85080Y-1308090D01*
X85035Y-1307986D01*
X84987Y-1307883D01*
X84936Y-1307782D01*
X84881Y-1307683D01*
X84823Y-1307586D01*
X84761Y-1307491D01*
X84696Y-1307398D01*
X84628Y-1307308D01*
X84557Y-1307220D01*
X84482Y-1307134D01*
X84405Y-1307051D01*
X84325Y-1306971D01*
X84242Y-1306894D01*
X84156Y-1306819D01*
X84068Y-1306748D01*
X83978Y-1306680D01*
X83885Y-1306615D01*
X83790Y-1306553D01*
X83693Y-1306495D01*
X83594Y-1306440D01*
X83493Y-1306389D01*
X83390Y-1306341D01*
X83286Y-1306296D01*
X83180Y-1306256D01*
X83073Y-1306219D01*
X82965Y-1306186D01*
X82855Y-1306156D01*
X82745Y-1306131D01*
X82634Y-1306109D01*
X82522Y-1306092D01*
X82409Y-1306078D01*
X82296Y-1306068D01*
X82183Y-1306062D01*
X82070Y-1306060D01*
X81957Y-1306062D01*
X81844Y-1306068D01*
X81731Y-1306078D01*
X81618Y-1306092D01*
X81506Y-1306109D01*
X81395Y-1306131D01*
X81285Y-1306156D01*
X81175Y-1306186D01*
X81067Y-1306219D01*
X80960Y-1306256D01*
X80854Y-1306296D01*
X80750Y-1306341D01*
X80647Y-1306389D01*
X80546Y-1306440D01*
X80447Y-1306495D01*
X80350Y-1306553D01*
X80255Y-1306615D01*
X80162Y-1306680D01*
X80072Y-1306748D01*
X79984Y-1306819D01*
X79898Y-1306894D01*
X79815Y-1306971D01*
X79735Y-1307051D01*
X79658Y-1307134D01*
X79583Y-1307220D01*
X79512Y-1307308D01*
X79444Y-1307398D01*
X79379Y-1307491D01*
X79317Y-1307586D01*
X79259Y-1307683D01*
X79204Y-1307782D01*
X79153Y-1307883D01*
X79105Y-1307986D01*
X79060Y-1308090D01*
X79020Y-1308196D01*
X78983Y-1308303D01*
X78950Y-1308411D01*
X78920Y-1308521D01*
X78895Y-1308631D01*
X78873Y-1308742D01*
X78856Y-1308854D01*
X78842Y-1308967D01*
X78832Y-1309080D01*
X78826Y-1309193D01*
X78824Y-1309306D01*
X78826Y-1309419D01*
X78832Y-1309532D01*
X78842Y-1309645D01*
X78856Y-1309758D01*
X78873Y-1309870D01*
X78895Y-1309981D01*
X78920Y-1310091D01*
X78950Y-1310201D01*
X78983Y-1310309D01*
X79020Y-1310416D01*
X79060Y-1310522D01*
X79105Y-1310626D01*
X79153Y-1310729D01*
X79204Y-1310830D01*
X79259Y-1310929D01*
X79317Y-1311026D01*
X79379Y-1311121D01*
X79444Y-1311214D01*
X79512Y-1311304D01*
X79583Y-1311392D01*
X79658Y-1311478D01*
X79735Y-1311561D01*
X79815Y-1311641D01*
X79898Y-1311718D01*
X79984Y-1311793D01*
X80072Y-1311864D01*
X80162Y-1311932D01*
X80255Y-1311997D01*
X80350Y-1312059D01*
X80447Y-1312117D01*
X80546Y-1312172D01*
X80647Y-1312223D01*
X80750Y-1312271D01*
X80854Y-1312316D01*
X80960Y-1312356D01*
X81067Y-1312393D01*
X81175Y-1312426D01*
X81285Y-1312456D01*
X81395Y-1312481D01*
X81506Y-1312503D01*
X81618Y-1312520D01*
X81731Y-1312534D01*
X81844Y-1312544D01*
X81957Y-1312550D01*
X82070Y-1312552D01*
X87912Y-1311902D02*
X88013Y-1311900D01*
X88113Y-1311894D01*
X88213Y-1311884D01*
X88313Y-1311871D01*
X88412Y-1311853D01*
X88511Y-1311832D01*
X88608Y-1311807D01*
X88705Y-1311778D01*
X88800Y-1311745D01*
X88894Y-1311709D01*
X88986Y-1311669D01*
X89077Y-1311626D01*
X89166Y-1311579D01*
X89253Y-1311529D01*
X89339Y-1311475D01*
X89422Y-1311418D01*
X89502Y-1311358D01*
X89581Y-1311295D01*
X89657Y-1311228D01*
X89730Y-1311159D01*
X89800Y-1311087D01*
X89868Y-1311013D01*
X89933Y-1310936D01*
X89994Y-1310856D01*
X90053Y-1310774D01*
X90108Y-1310690D01*
X90160Y-1310604D01*
X90209Y-1310516D01*
X90254Y-1310426D01*
X90296Y-1310334D01*
X90334Y-1310241D01*
X90368Y-1310146D01*
X90399Y-1310051D01*
X90426Y-1309954D01*
X90449Y-1309856D01*
X90469Y-1309757D01*
X90484Y-1309657D01*
X90496Y-1309557D01*
X90504Y-1309457D01*
X90508Y-1309356D01*
X90508Y-1309256D01*
X90504Y-1309155D01*
X90496Y-1309055D01*
X90484Y-1308955D01*
X90469Y-1308855D01*
X90449Y-1308756D01*
X90426Y-1308658D01*
X90399Y-1308561D01*
X90368Y-1308466D01*
X90334Y-1308371D01*
X90296Y-1308278D01*
X90254Y-1308186D01*
X90209Y-1308096D01*
X90160Y-1308008D01*
X90108Y-1307922D01*
X90053Y-1307838D01*
X89994Y-1307756D01*
X89933Y-1307676D01*
X89868Y-1307599D01*
X89800Y-1307525D01*
X89730Y-1307453D01*
X89657Y-1307384D01*
X89581Y-1307317D01*
X89502Y-1307254D01*
X89422Y-1307194D01*
X89339Y-1307137D01*
X89253Y-1307083D01*
X89166Y-1307033D01*
X89077Y-1306986D01*
X88986Y-1306943D01*
X88894Y-1306903D01*
X88800Y-1306867D01*
X88705Y-1306834D01*
X88608Y-1306805D01*
X88511Y-1306780D01*
X88412Y-1306759D01*
X88313Y-1306741D01*
X88213Y-1306728D01*
X88113Y-1306718D01*
X88013Y-1306712D01*
X87912Y-1306710D01*
X87811Y-1306712D01*
X87711Y-1306718D01*
X87611Y-1306728D01*
X87511Y-1306741D01*
X87412Y-1306759D01*
X87313Y-1306780D01*
X87216Y-1306805D01*
X87119Y-1306834D01*
X87024Y-1306867D01*
X86930Y-1306903D01*
X86838Y-1306943D01*
X86747Y-1306986D01*
X86658Y-1307033D01*
X86571Y-1307083D01*
X86485Y-1307137D01*
X86402Y-1307194D01*
X86322Y-1307254D01*
X86243Y-1307317D01*
X86167Y-1307384D01*
X86094Y-1307453D01*
X86024Y-1307525D01*
X85956Y-1307599D01*
X85891Y-1307676D01*
X85830Y-1307756D01*
X85771Y-1307838D01*
X85716Y-1307922D01*
X85664Y-1308008D01*
X85615Y-1308096D01*
X85570Y-1308186D01*
X85528Y-1308278D01*
X85490Y-1308371D01*
X85456Y-1308466D01*
X85425Y-1308561D01*
X85398Y-1308658D01*
X85375Y-1308756D01*
X85355Y-1308855D01*
X85340Y-1308955D01*
X85328Y-1309055D01*
X85320Y-1309155D01*
X85316Y-1309256D01*
X85316Y-1309356D01*
X85320Y-1309457D01*
X85328Y-1309557D01*
X85340Y-1309657D01*
X85355Y-1309757D01*
X85375Y-1309856D01*
X85398Y-1309954D01*
X85425Y-1310051D01*
X85456Y-1310146D01*
X85490Y-1310241D01*
X85528Y-1310334D01*
X85570Y-1310426D01*
X85615Y-1310516D01*
X85664Y-1310604D01*
X85716Y-1310690D01*
X85771Y-1310774D01*
X85830Y-1310856D01*
X85891Y-1310936D01*
X85956Y-1311013D01*
X86024Y-1311087D01*
X86094Y-1311159D01*
X86167Y-1311228D01*
X86243Y-1311295D01*
X86322Y-1311358D01*
X86402Y-1311418D01*
X86485Y-1311475D01*
X86571Y-1311529D01*
X86658Y-1311579D01*
X86747Y-1311626D01*
X86838Y-1311669D01*
X86930Y-1311709D01*
X87024Y-1311745D01*
X87119Y-1311778D01*
X87216Y-1311807D01*
X87313Y-1311832D01*
X87412Y-1311853D01*
X87511Y-1311871D01*
X87611Y-1311884D01*
X87711Y-1311894D01*
X87811Y-1311900D01*
X87912Y-1311902D01*
X54116Y-387869D02*
X51520Y-387869D01*
X54116Y-387868D02*
X54215Y-387866D01*
X54315Y-387860D01*
X54414Y-387851D01*
X54512Y-387838D01*
X54610Y-387821D01*
X54708Y-387800D01*
X54804Y-387775D01*
X54899Y-387747D01*
X54993Y-387715D01*
X55086Y-387680D01*
X55178Y-387641D01*
X55268Y-387598D01*
X55356Y-387553D01*
X55443Y-387503D01*
X55527Y-387451D01*
X55610Y-387395D01*
X55690Y-387337D01*
X55768Y-387275D01*
X55843Y-387210D01*
X55916Y-387142D01*
X55986Y-387072D01*
X56054Y-386999D01*
X56119Y-386924D01*
X56181Y-386846D01*
X56239Y-386766D01*
X56295Y-386683D01*
X56347Y-386599D01*
X56397Y-386512D01*
X56442Y-386424D01*
X56485Y-386334D01*
X56524Y-386242D01*
X56559Y-386149D01*
X56591Y-386055D01*
X56619Y-385960D01*
X56644Y-385864D01*
X56665Y-385766D01*
X56682Y-385668D01*
X56695Y-385570D01*
X56704Y-385471D01*
X56710Y-385371D01*
X56712Y-385272D01*
X56713Y-385272D02*
X56713Y-378781D01*
X56711Y-378682D01*
X56705Y-378582D01*
X56696Y-378483D01*
X56683Y-378385D01*
X56665Y-378287D01*
X56645Y-378189D01*
X56620Y-378093D01*
X56592Y-377997D01*
X56560Y-377903D01*
X56525Y-377810D01*
X56486Y-377719D01*
X56443Y-377629D01*
X56398Y-377540D01*
X56348Y-377454D01*
X56296Y-377369D01*
X56240Y-377287D01*
X56181Y-377207D01*
X56120Y-377129D01*
X56055Y-377053D01*
X55987Y-376980D01*
X55917Y-376910D01*
X55844Y-376842D01*
X55768Y-376777D01*
X55690Y-376716D01*
X55610Y-376657D01*
X55528Y-376601D01*
X55443Y-376549D01*
X55357Y-376500D01*
X55268Y-376454D01*
X55178Y-376411D01*
X55087Y-376372D01*
X54994Y-376337D01*
X54900Y-376305D01*
X54804Y-376277D01*
X54708Y-376252D01*
X54610Y-376232D01*
X54512Y-376214D01*
X54414Y-376201D01*
X54315Y-376192D01*
X54216Y-376186D01*
X54116Y-376184D01*
X54116Y-376185D02*
X51520Y-376185D01*
X43585Y-376185D02*
X43478Y-376187D01*
X43372Y-376193D01*
X43266Y-376203D01*
X43160Y-376216D01*
X43054Y-376234D01*
X42950Y-376255D01*
X42846Y-376280D01*
X42743Y-376309D01*
X42642Y-376341D01*
X42542Y-376378D01*
X42443Y-376418D01*
X42345Y-376461D01*
X42249Y-376508D01*
X42155Y-376559D01*
X42063Y-376613D01*
X41973Y-376670D01*
X41885Y-376730D01*
X41800Y-376794D01*
X41717Y-376861D01*
X41636Y-376931D01*
X41558Y-377003D01*
X41482Y-377079D01*
X41410Y-377157D01*
X41340Y-377238D01*
X41273Y-377321D01*
X41209Y-377406D01*
X41149Y-377494D01*
X41092Y-377584D01*
X41038Y-377676D01*
X40987Y-377770D01*
X40940Y-377866D01*
X40897Y-377964D01*
X40857Y-378063D01*
X40820Y-378163D01*
X40788Y-378264D01*
X40759Y-378367D01*
X40734Y-378471D01*
X40713Y-378575D01*
X40695Y-378681D01*
X40682Y-378787D01*
X40672Y-378893D01*
X40666Y-378999D01*
X40664Y-379106D01*
X43585Y-376184D02*
X43706Y-376186D01*
X43827Y-376192D01*
X43947Y-376202D01*
X44068Y-376215D01*
X44187Y-376233D01*
X44307Y-376254D01*
X44425Y-376279D01*
X44542Y-376308D01*
X44659Y-376341D01*
X44774Y-376377D01*
X44888Y-376418D01*
X45001Y-376461D01*
X45113Y-376509D01*
X45222Y-376560D01*
X45330Y-376615D01*
X45437Y-376673D01*
X45541Y-376734D01*
X45643Y-376799D01*
X45743Y-376867D01*
X45841Y-376938D01*
X45937Y-377012D01*
X46030Y-377089D01*
X46120Y-377170D01*
X46208Y-377253D01*
X46293Y-377339D01*
X46376Y-377428D01*
X46455Y-377519D01*
X46532Y-377613D01*
X46605Y-377709D01*
X46675Y-377807D01*
X46742Y-377908D01*
X46806Y-378011D01*
X46867Y-378116D01*
X46924Y-378223D01*
X46977Y-378331D01*
X47027Y-378441D01*
X47074Y-378553D01*
X47116Y-378666D01*
X47155Y-378781D01*
X41638Y-381378D02*
X41559Y-381300D01*
X41483Y-381220D01*
X41410Y-381137D01*
X41340Y-381051D01*
X41273Y-380964D01*
X41209Y-380873D01*
X41149Y-380781D01*
X41091Y-380687D01*
X41037Y-380590D01*
X40987Y-380492D01*
X40940Y-380392D01*
X40896Y-380291D01*
X40856Y-380188D01*
X40820Y-380083D01*
X40788Y-379978D01*
X40759Y-379871D01*
X40734Y-379764D01*
X40712Y-379655D01*
X40695Y-379546D01*
X40681Y-379437D01*
X40672Y-379327D01*
X40666Y-379216D01*
X40664Y-379106D01*
X41637Y-381378D02*
X47155Y-387869D01*
X40664Y-387869D01*
X53014Y-556542D02*
X55611Y-556542D01*
X55710Y-556540D01*
X55810Y-556534D01*
X55909Y-556525D01*
X56007Y-556512D01*
X56105Y-556495D01*
X56203Y-556474D01*
X56299Y-556449D01*
X56394Y-556421D01*
X56488Y-556389D01*
X56581Y-556354D01*
X56673Y-556315D01*
X56763Y-556272D01*
X56851Y-556227D01*
X56938Y-556177D01*
X57022Y-556125D01*
X57105Y-556069D01*
X57185Y-556011D01*
X57263Y-555949D01*
X57338Y-555884D01*
X57411Y-555816D01*
X57481Y-555746D01*
X57549Y-555673D01*
X57614Y-555598D01*
X57676Y-555520D01*
X57734Y-555440D01*
X57790Y-555357D01*
X57842Y-555273D01*
X57892Y-555186D01*
X57937Y-555098D01*
X57980Y-555008D01*
X58019Y-554916D01*
X58054Y-554823D01*
X58086Y-554729D01*
X58114Y-554634D01*
X58139Y-554538D01*
X58160Y-554440D01*
X58177Y-554342D01*
X58190Y-554244D01*
X58199Y-554145D01*
X58205Y-554045D01*
X58207Y-553946D01*
X58207Y-547454D01*
X58208Y-547454D02*
X58206Y-547355D01*
X58200Y-547255D01*
X58191Y-547156D01*
X58178Y-547058D01*
X58160Y-546960D01*
X58140Y-546862D01*
X58115Y-546766D01*
X58087Y-546670D01*
X58055Y-546576D01*
X58020Y-546483D01*
X57981Y-546392D01*
X57938Y-546302D01*
X57893Y-546213D01*
X57843Y-546127D01*
X57791Y-546042D01*
X57735Y-545960D01*
X57676Y-545880D01*
X57615Y-545802D01*
X57550Y-545726D01*
X57482Y-545653D01*
X57412Y-545583D01*
X57339Y-545515D01*
X57263Y-545450D01*
X57185Y-545389D01*
X57105Y-545330D01*
X57023Y-545274D01*
X56938Y-545222D01*
X56852Y-545173D01*
X56763Y-545127D01*
X56673Y-545084D01*
X56582Y-545045D01*
X56489Y-545010D01*
X56395Y-544978D01*
X56299Y-544950D01*
X56203Y-544925D01*
X56105Y-544905D01*
X56007Y-544887D01*
X55909Y-544874D01*
X55810Y-544865D01*
X55711Y-544859D01*
X55611Y-544857D01*
X55611Y-544858D02*
X53014Y-544858D01*
X48649Y-556542D02*
X45404Y-556542D01*
X45291Y-556540D01*
X45178Y-556534D01*
X45065Y-556524D01*
X44952Y-556510D01*
X44840Y-556493D01*
X44729Y-556471D01*
X44619Y-556446D01*
X44509Y-556416D01*
X44401Y-556383D01*
X44294Y-556346D01*
X44188Y-556306D01*
X44084Y-556261D01*
X43981Y-556213D01*
X43880Y-556162D01*
X43781Y-556107D01*
X43684Y-556049D01*
X43589Y-555987D01*
X43496Y-555922D01*
X43406Y-555854D01*
X43318Y-555783D01*
X43232Y-555708D01*
X43149Y-555631D01*
X43069Y-555551D01*
X42992Y-555468D01*
X42917Y-555382D01*
X42846Y-555294D01*
X42778Y-555204D01*
X42713Y-555111D01*
X42651Y-555016D01*
X42593Y-554919D01*
X42538Y-554820D01*
X42487Y-554719D01*
X42439Y-554616D01*
X42394Y-554512D01*
X42354Y-554406D01*
X42317Y-554299D01*
X42284Y-554191D01*
X42254Y-554081D01*
X42229Y-553971D01*
X42207Y-553860D01*
X42190Y-553748D01*
X42176Y-553635D01*
X42166Y-553522D01*
X42160Y-553409D01*
X42158Y-553296D01*
X42160Y-553183D01*
X42166Y-553070D01*
X42176Y-552957D01*
X42190Y-552844D01*
X42207Y-552732D01*
X42229Y-552621D01*
X42254Y-552511D01*
X42284Y-552401D01*
X42317Y-552293D01*
X42354Y-552186D01*
X42394Y-552080D01*
X42439Y-551976D01*
X42487Y-551873D01*
X42538Y-551772D01*
X42593Y-551673D01*
X42651Y-551576D01*
X42713Y-551481D01*
X42778Y-551388D01*
X42846Y-551298D01*
X42917Y-551210D01*
X42992Y-551124D01*
X43069Y-551041D01*
X43149Y-550961D01*
X43232Y-550884D01*
X43318Y-550809D01*
X43406Y-550738D01*
X43496Y-550670D01*
X43589Y-550605D01*
X43684Y-550543D01*
X43781Y-550485D01*
X43880Y-550430D01*
X43981Y-550379D01*
X44084Y-550331D01*
X44188Y-550286D01*
X44294Y-550246D01*
X44401Y-550209D01*
X44509Y-550176D01*
X44619Y-550146D01*
X44729Y-550121D01*
X44840Y-550099D01*
X44952Y-550082D01*
X45065Y-550068D01*
X45178Y-550058D01*
X45291Y-550052D01*
X45404Y-550050D01*
X44754Y-544858D02*
X48649Y-544858D01*
X44754Y-544858D02*
X44653Y-544860D01*
X44553Y-544866D01*
X44453Y-544876D01*
X44353Y-544889D01*
X44254Y-544907D01*
X44155Y-544928D01*
X44058Y-544953D01*
X43961Y-544982D01*
X43866Y-545015D01*
X43772Y-545051D01*
X43680Y-545091D01*
X43589Y-545134D01*
X43500Y-545181D01*
X43413Y-545231D01*
X43327Y-545285D01*
X43244Y-545342D01*
X43164Y-545402D01*
X43085Y-545465D01*
X43009Y-545532D01*
X42936Y-545601D01*
X42866Y-545673D01*
X42798Y-545747D01*
X42733Y-545824D01*
X42672Y-545904D01*
X42613Y-545986D01*
X42558Y-546070D01*
X42506Y-546156D01*
X42457Y-546244D01*
X42412Y-546334D01*
X42370Y-546426D01*
X42332Y-546519D01*
X42298Y-546614D01*
X42267Y-546709D01*
X42240Y-546806D01*
X42217Y-546904D01*
X42197Y-547003D01*
X42182Y-547103D01*
X42170Y-547203D01*
X42162Y-547303D01*
X42158Y-547404D01*
X42158Y-547504D01*
X42162Y-547605D01*
X42170Y-547705D01*
X42182Y-547805D01*
X42197Y-547905D01*
X42217Y-548004D01*
X42240Y-548102D01*
X42267Y-548199D01*
X42298Y-548294D01*
X42332Y-548389D01*
X42370Y-548482D01*
X42412Y-548574D01*
X42457Y-548664D01*
X42506Y-548752D01*
X42558Y-548838D01*
X42613Y-548922D01*
X42672Y-549004D01*
X42733Y-549084D01*
X42798Y-549161D01*
X42866Y-549235D01*
X42936Y-549307D01*
X43009Y-549376D01*
X43085Y-549443D01*
X43164Y-549506D01*
X43244Y-549566D01*
X43327Y-549623D01*
X43413Y-549677D01*
X43500Y-549727D01*
X43589Y-549774D01*
X43680Y-549817D01*
X43772Y-549857D01*
X43866Y-549893D01*
X43961Y-549926D01*
X44058Y-549955D01*
X44155Y-549980D01*
X44254Y-550001D01*
X44353Y-550019D01*
X44453Y-550032D01*
X44553Y-550042D01*
X44653Y-550048D01*
X44754Y-550050D01*
X44754Y-550051D02*
X47351Y-550051D01*
X54014Y-725542D02*
X56611Y-725542D01*
X56710Y-725540D01*
X56810Y-725534D01*
X56909Y-725525D01*
X57007Y-725512D01*
X57105Y-725495D01*
X57203Y-725474D01*
X57299Y-725449D01*
X57394Y-725421D01*
X57488Y-725389D01*
X57581Y-725354D01*
X57673Y-725315D01*
X57763Y-725272D01*
X57851Y-725227D01*
X57938Y-725177D01*
X58022Y-725125D01*
X58105Y-725069D01*
X58185Y-725011D01*
X58263Y-724949D01*
X58338Y-724884D01*
X58411Y-724816D01*
X58481Y-724746D01*
X58549Y-724673D01*
X58614Y-724598D01*
X58676Y-724520D01*
X58734Y-724440D01*
X58790Y-724357D01*
X58842Y-724273D01*
X58892Y-724186D01*
X58937Y-724098D01*
X58980Y-724008D01*
X59019Y-723916D01*
X59054Y-723823D01*
X59086Y-723729D01*
X59114Y-723634D01*
X59139Y-723538D01*
X59160Y-723440D01*
X59177Y-723342D01*
X59190Y-723244D01*
X59199Y-723145D01*
X59205Y-723045D01*
X59207Y-722946D01*
X59207Y-716454D01*
X59208Y-716454D02*
X59206Y-716355D01*
X59200Y-716255D01*
X59191Y-716156D01*
X59178Y-716058D01*
X59160Y-715960D01*
X59140Y-715862D01*
X59115Y-715766D01*
X59087Y-715670D01*
X59055Y-715576D01*
X59020Y-715483D01*
X58981Y-715392D01*
X58938Y-715302D01*
X58893Y-715213D01*
X58843Y-715127D01*
X58791Y-715042D01*
X58735Y-714960D01*
X58676Y-714880D01*
X58615Y-714802D01*
X58550Y-714726D01*
X58482Y-714653D01*
X58412Y-714583D01*
X58339Y-714515D01*
X58263Y-714450D01*
X58185Y-714389D01*
X58105Y-714330D01*
X58023Y-714274D01*
X57938Y-714222D01*
X57852Y-714173D01*
X57763Y-714127D01*
X57673Y-714084D01*
X57582Y-714045D01*
X57489Y-714010D01*
X57395Y-713978D01*
X57299Y-713950D01*
X57203Y-713925D01*
X57105Y-713905D01*
X57007Y-713887D01*
X56909Y-713874D01*
X56810Y-713865D01*
X56711Y-713859D01*
X56611Y-713857D01*
X56611Y-713858D02*
X54014Y-713858D01*
X47053Y-713858D02*
X49649Y-722946D01*
X43158Y-722946D01*
X45105Y-720349D02*
X45105Y-725542D01*
X54014Y-895542D02*
X56611Y-895542D01*
X56710Y-895540D01*
X56810Y-895534D01*
X56909Y-895525D01*
X57007Y-895512D01*
X57105Y-895495D01*
X57203Y-895474D01*
X57299Y-895449D01*
X57394Y-895421D01*
X57488Y-895389D01*
X57581Y-895354D01*
X57673Y-895315D01*
X57763Y-895272D01*
X57851Y-895227D01*
X57938Y-895177D01*
X58022Y-895125D01*
X58105Y-895069D01*
X58185Y-895011D01*
X58263Y-894949D01*
X58338Y-894884D01*
X58411Y-894816D01*
X58481Y-894746D01*
X58549Y-894673D01*
X58614Y-894598D01*
X58676Y-894520D01*
X58734Y-894440D01*
X58790Y-894357D01*
X58842Y-894273D01*
X58892Y-894186D01*
X58937Y-894098D01*
X58980Y-894008D01*
X59019Y-893916D01*
X59054Y-893823D01*
X59086Y-893729D01*
X59114Y-893634D01*
X59139Y-893538D01*
X59160Y-893440D01*
X59177Y-893342D01*
X59190Y-893244D01*
X59199Y-893145D01*
X59205Y-893045D01*
X59207Y-892946D01*
X59207Y-886454D01*
X59208Y-886454D02*
X59206Y-886355D01*
X59200Y-886255D01*
X59191Y-886156D01*
X59178Y-886058D01*
X59160Y-885960D01*
X59140Y-885862D01*
X59115Y-885766D01*
X59087Y-885670D01*
X59055Y-885576D01*
X59020Y-885483D01*
X58981Y-885392D01*
X58938Y-885302D01*
X58893Y-885213D01*
X58843Y-885127D01*
X58791Y-885042D01*
X58735Y-884960D01*
X58676Y-884880D01*
X58615Y-884802D01*
X58550Y-884726D01*
X58482Y-884653D01*
X58412Y-884583D01*
X58339Y-884515D01*
X58263Y-884450D01*
X58185Y-884389D01*
X58105Y-884330D01*
X58023Y-884274D01*
X57938Y-884222D01*
X57852Y-884173D01*
X57763Y-884127D01*
X57673Y-884084D01*
X57582Y-884045D01*
X57489Y-884010D01*
X57395Y-883978D01*
X57299Y-883950D01*
X57203Y-883925D01*
X57105Y-883905D01*
X57007Y-883887D01*
X56909Y-883874D01*
X56810Y-883865D01*
X56711Y-883859D01*
X56611Y-883857D01*
X56611Y-883858D02*
X54014Y-883858D01*
X49649Y-895542D02*
X45754Y-895542D01*
X45655Y-895540D01*
X45555Y-895534D01*
X45456Y-895525D01*
X45358Y-895512D01*
X45260Y-895495D01*
X45162Y-895474D01*
X45066Y-895449D01*
X44971Y-895421D01*
X44877Y-895389D01*
X44784Y-895354D01*
X44692Y-895315D01*
X44602Y-895272D01*
X44514Y-895227D01*
X44427Y-895177D01*
X44343Y-895125D01*
X44260Y-895069D01*
X44180Y-895011D01*
X44102Y-894949D01*
X44027Y-894884D01*
X43954Y-894816D01*
X43884Y-894746D01*
X43816Y-894673D01*
X43751Y-894598D01*
X43689Y-894520D01*
X43631Y-894440D01*
X43575Y-894357D01*
X43523Y-894273D01*
X43473Y-894186D01*
X43428Y-894098D01*
X43385Y-894008D01*
X43346Y-893916D01*
X43311Y-893823D01*
X43279Y-893729D01*
X43251Y-893634D01*
X43226Y-893538D01*
X43205Y-893440D01*
X43188Y-893342D01*
X43175Y-893244D01*
X43166Y-893145D01*
X43160Y-893045D01*
X43158Y-892946D01*
X43158Y-891647D01*
X43160Y-891548D01*
X43166Y-891448D01*
X43175Y-891349D01*
X43188Y-891251D01*
X43205Y-891153D01*
X43226Y-891055D01*
X43251Y-890959D01*
X43279Y-890864D01*
X43311Y-890770D01*
X43346Y-890677D01*
X43385Y-890585D01*
X43428Y-890495D01*
X43473Y-890407D01*
X43523Y-890320D01*
X43575Y-890236D01*
X43631Y-890153D01*
X43689Y-890073D01*
X43751Y-889995D01*
X43816Y-889920D01*
X43884Y-889847D01*
X43954Y-889777D01*
X44027Y-889709D01*
X44102Y-889644D01*
X44180Y-889582D01*
X44260Y-889524D01*
X44343Y-889468D01*
X44427Y-889416D01*
X44514Y-889366D01*
X44602Y-889321D01*
X44692Y-889278D01*
X44784Y-889239D01*
X44877Y-889204D01*
X44971Y-889172D01*
X45066Y-889144D01*
X45162Y-889119D01*
X45260Y-889098D01*
X45358Y-889081D01*
X45456Y-889068D01*
X45555Y-889059D01*
X45655Y-889053D01*
X45754Y-889051D01*
X49649Y-889051D01*
X49649Y-883858D01*
X43158Y-883858D01*
X52014Y-1064542D02*
X54611Y-1064542D01*
X54710Y-1064540D01*
X54810Y-1064534D01*
X54909Y-1064525D01*
X55007Y-1064512D01*
X55105Y-1064495D01*
X55203Y-1064474D01*
X55299Y-1064449D01*
X55394Y-1064421D01*
X55488Y-1064389D01*
X55581Y-1064354D01*
X55673Y-1064315D01*
X55763Y-1064272D01*
X55851Y-1064227D01*
X55938Y-1064177D01*
X56022Y-1064125D01*
X56105Y-1064069D01*
X56185Y-1064011D01*
X56263Y-1063949D01*
X56338Y-1063884D01*
X56411Y-1063816D01*
X56481Y-1063746D01*
X56549Y-1063673D01*
X56614Y-1063598D01*
X56676Y-1063520D01*
X56734Y-1063440D01*
X56790Y-1063357D01*
X56842Y-1063273D01*
X56892Y-1063186D01*
X56937Y-1063098D01*
X56980Y-1063008D01*
X57019Y-1062916D01*
X57054Y-1062823D01*
X57086Y-1062729D01*
X57114Y-1062634D01*
X57139Y-1062538D01*
X57160Y-1062440D01*
X57177Y-1062342D01*
X57190Y-1062244D01*
X57199Y-1062145D01*
X57205Y-1062045D01*
X57207Y-1061946D01*
X57207Y-1055454D01*
X57208Y-1055454D02*
X57206Y-1055355D01*
X57200Y-1055255D01*
X57191Y-1055156D01*
X57178Y-1055058D01*
X57160Y-1054960D01*
X57140Y-1054862D01*
X57115Y-1054766D01*
X57087Y-1054670D01*
X57055Y-1054576D01*
X57020Y-1054483D01*
X56981Y-1054392D01*
X56938Y-1054302D01*
X56893Y-1054213D01*
X56843Y-1054127D01*
X56791Y-1054042D01*
X56735Y-1053960D01*
X56676Y-1053880D01*
X56615Y-1053802D01*
X56550Y-1053726D01*
X56482Y-1053653D01*
X56412Y-1053583D01*
X56339Y-1053515D01*
X56263Y-1053450D01*
X56185Y-1053389D01*
X56105Y-1053330D01*
X56023Y-1053274D01*
X55938Y-1053222D01*
X55852Y-1053173D01*
X55763Y-1053127D01*
X55673Y-1053084D01*
X55582Y-1053045D01*
X55489Y-1053010D01*
X55395Y-1052978D01*
X55299Y-1052950D01*
X55203Y-1052925D01*
X55105Y-1052905D01*
X55007Y-1052887D01*
X54909Y-1052874D01*
X54810Y-1052865D01*
X54711Y-1052859D01*
X54611Y-1052857D01*
X54611Y-1052858D02*
X52014Y-1052858D01*
X47649Y-1058051D02*
X43754Y-1058051D01*
X43655Y-1058053D01*
X43555Y-1058059D01*
X43456Y-1058068D01*
X43358Y-1058081D01*
X43260Y-1058098D01*
X43162Y-1058119D01*
X43066Y-1058144D01*
X42971Y-1058172D01*
X42877Y-1058204D01*
X42784Y-1058239D01*
X42692Y-1058278D01*
X42602Y-1058321D01*
X42514Y-1058366D01*
X42427Y-1058416D01*
X42343Y-1058468D01*
X42260Y-1058524D01*
X42180Y-1058582D01*
X42102Y-1058644D01*
X42027Y-1058709D01*
X41954Y-1058777D01*
X41884Y-1058847D01*
X41816Y-1058920D01*
X41751Y-1058995D01*
X41689Y-1059073D01*
X41631Y-1059153D01*
X41575Y-1059236D01*
X41523Y-1059320D01*
X41473Y-1059407D01*
X41428Y-1059495D01*
X41385Y-1059585D01*
X41346Y-1059677D01*
X41311Y-1059770D01*
X41279Y-1059864D01*
X41251Y-1059959D01*
X41226Y-1060055D01*
X41205Y-1060153D01*
X41188Y-1060251D01*
X41175Y-1060349D01*
X41166Y-1060448D01*
X41160Y-1060548D01*
X41158Y-1060647D01*
X41158Y-1061296D01*
X41160Y-1061409D01*
X41166Y-1061522D01*
X41176Y-1061635D01*
X41190Y-1061748D01*
X41207Y-1061860D01*
X41229Y-1061971D01*
X41254Y-1062081D01*
X41284Y-1062191D01*
X41317Y-1062299D01*
X41354Y-1062406D01*
X41394Y-1062512D01*
X41439Y-1062616D01*
X41487Y-1062719D01*
X41538Y-1062820D01*
X41593Y-1062919D01*
X41651Y-1063016D01*
X41713Y-1063111D01*
X41778Y-1063204D01*
X41846Y-1063294D01*
X41917Y-1063382D01*
X41992Y-1063468D01*
X42069Y-1063551D01*
X42149Y-1063631D01*
X42232Y-1063708D01*
X42318Y-1063783D01*
X42406Y-1063854D01*
X42496Y-1063922D01*
X42589Y-1063987D01*
X42684Y-1064049D01*
X42781Y-1064107D01*
X42880Y-1064162D01*
X42981Y-1064213D01*
X43084Y-1064261D01*
X43188Y-1064306D01*
X43294Y-1064346D01*
X43401Y-1064383D01*
X43509Y-1064416D01*
X43619Y-1064446D01*
X43729Y-1064471D01*
X43840Y-1064493D01*
X43952Y-1064510D01*
X44065Y-1064524D01*
X44178Y-1064534D01*
X44291Y-1064540D01*
X44404Y-1064542D01*
X44517Y-1064540D01*
X44630Y-1064534D01*
X44743Y-1064524D01*
X44856Y-1064510D01*
X44968Y-1064493D01*
X45079Y-1064471D01*
X45189Y-1064446D01*
X45299Y-1064416D01*
X45407Y-1064383D01*
X45514Y-1064346D01*
X45620Y-1064306D01*
X45724Y-1064261D01*
X45827Y-1064213D01*
X45928Y-1064162D01*
X46027Y-1064107D01*
X46124Y-1064049D01*
X46219Y-1063987D01*
X46312Y-1063922D01*
X46402Y-1063854D01*
X46490Y-1063783D01*
X46576Y-1063708D01*
X46659Y-1063631D01*
X46739Y-1063551D01*
X46816Y-1063468D01*
X46891Y-1063382D01*
X46962Y-1063294D01*
X47030Y-1063204D01*
X47095Y-1063111D01*
X47157Y-1063016D01*
X47215Y-1062919D01*
X47270Y-1062820D01*
X47321Y-1062719D01*
X47369Y-1062616D01*
X47414Y-1062512D01*
X47454Y-1062406D01*
X47491Y-1062299D01*
X47524Y-1062191D01*
X47554Y-1062081D01*
X47579Y-1061971D01*
X47601Y-1061860D01*
X47618Y-1061748D01*
X47632Y-1061635D01*
X47642Y-1061522D01*
X47648Y-1061409D01*
X47650Y-1061296D01*
X47649Y-1061296D02*
X47649Y-1058051D01*
X47647Y-1057908D01*
X47641Y-1057765D01*
X47631Y-1057622D01*
X47617Y-1057480D01*
X47600Y-1057338D01*
X47578Y-1057196D01*
X47553Y-1057055D01*
X47523Y-1056915D01*
X47490Y-1056776D01*
X47453Y-1056638D01*
X47412Y-1056501D01*
X47368Y-1056365D01*
X47319Y-1056230D01*
X47267Y-1056097D01*
X47212Y-1055965D01*
X47152Y-1055835D01*
X47089Y-1055706D01*
X47023Y-1055579D01*
X46953Y-1055455D01*
X46880Y-1055332D01*
X46803Y-1055211D01*
X46724Y-1055092D01*
X46640Y-1054976D01*
X46554Y-1054861D01*
X46465Y-1054750D01*
X46372Y-1054641D01*
X46277Y-1054534D01*
X46178Y-1054430D01*
X46077Y-1054329D01*
X45973Y-1054230D01*
X45867Y-1054135D01*
X45757Y-1054042D01*
X45646Y-1053953D01*
X45532Y-1053867D01*
X45415Y-1053784D01*
X45296Y-1053704D01*
X45175Y-1053627D01*
X45053Y-1053554D01*
X44928Y-1053484D01*
X44801Y-1053418D01*
X44672Y-1053355D01*
X44542Y-1053295D01*
X44410Y-1053240D01*
X44277Y-1053188D01*
X44142Y-1053139D01*
X44006Y-1053095D01*
X43869Y-1053054D01*
X43731Y-1053017D01*
X43592Y-1052984D01*
X43452Y-1052954D01*
X43311Y-1052929D01*
X43169Y-1052907D01*
X43027Y-1052890D01*
X42885Y-1052876D01*
X42742Y-1052866D01*
X42599Y-1052860D01*
X42456Y-1052858D01*
X52014Y-1233542D02*
X54611Y-1233542D01*
X54710Y-1233540D01*
X54810Y-1233534D01*
X54909Y-1233525D01*
X55007Y-1233512D01*
X55105Y-1233495D01*
X55203Y-1233474D01*
X55299Y-1233449D01*
X55394Y-1233421D01*
X55488Y-1233389D01*
X55581Y-1233354D01*
X55673Y-1233315D01*
X55763Y-1233272D01*
X55851Y-1233227D01*
X55938Y-1233177D01*
X56022Y-1233125D01*
X56105Y-1233069D01*
X56185Y-1233011D01*
X56263Y-1232949D01*
X56338Y-1232884D01*
X56411Y-1232816D01*
X56481Y-1232746D01*
X56549Y-1232673D01*
X56614Y-1232598D01*
X56676Y-1232520D01*
X56734Y-1232440D01*
X56790Y-1232357D01*
X56842Y-1232273D01*
X56892Y-1232186D01*
X56937Y-1232098D01*
X56980Y-1232008D01*
X57019Y-1231916D01*
X57054Y-1231823D01*
X57086Y-1231729D01*
X57114Y-1231634D01*
X57139Y-1231538D01*
X57160Y-1231440D01*
X57177Y-1231342D01*
X57190Y-1231244D01*
X57199Y-1231145D01*
X57205Y-1231045D01*
X57207Y-1230946D01*
X57207Y-1224454D01*
X57208Y-1224454D02*
X57206Y-1224355D01*
X57200Y-1224255D01*
X57191Y-1224156D01*
X57178Y-1224058D01*
X57160Y-1223960D01*
X57140Y-1223862D01*
X57115Y-1223766D01*
X57087Y-1223670D01*
X57055Y-1223576D01*
X57020Y-1223483D01*
X56981Y-1223392D01*
X56938Y-1223302D01*
X56893Y-1223213D01*
X56843Y-1223127D01*
X56791Y-1223042D01*
X56735Y-1222960D01*
X56676Y-1222880D01*
X56615Y-1222802D01*
X56550Y-1222726D01*
X56482Y-1222653D01*
X56412Y-1222583D01*
X56339Y-1222515D01*
X56263Y-1222450D01*
X56185Y-1222389D01*
X56105Y-1222330D01*
X56023Y-1222274D01*
X55938Y-1222222D01*
X55852Y-1222173D01*
X55763Y-1222127D01*
X55673Y-1222084D01*
X55582Y-1222045D01*
X55489Y-1222010D01*
X55395Y-1221978D01*
X55299Y-1221950D01*
X55203Y-1221925D01*
X55105Y-1221905D01*
X55007Y-1221887D01*
X54909Y-1221874D01*
X54810Y-1221865D01*
X54711Y-1221859D01*
X54611Y-1221857D01*
X54611Y-1221858D02*
X52014Y-1221858D01*
X47649Y-1221858D02*
X47649Y-1223156D01*
X47649Y-1221858D02*
X41158Y-1221858D01*
X44404Y-1233542D01*
X67014Y-1394542D02*
X69611Y-1394542D01*
X69710Y-1394540D01*
X69810Y-1394534D01*
X69909Y-1394525D01*
X70007Y-1394512D01*
X70105Y-1394495D01*
X70203Y-1394474D01*
X70299Y-1394449D01*
X70394Y-1394421D01*
X70488Y-1394389D01*
X70581Y-1394354D01*
X70673Y-1394315D01*
X70763Y-1394272D01*
X70851Y-1394227D01*
X70938Y-1394177D01*
X71022Y-1394125D01*
X71105Y-1394069D01*
X71185Y-1394011D01*
X71263Y-1393949D01*
X71338Y-1393884D01*
X71411Y-1393816D01*
X71481Y-1393746D01*
X71549Y-1393673D01*
X71614Y-1393598D01*
X71676Y-1393520D01*
X71734Y-1393440D01*
X71790Y-1393357D01*
X71842Y-1393273D01*
X71892Y-1393186D01*
X71937Y-1393098D01*
X71980Y-1393008D01*
X72019Y-1392916D01*
X72054Y-1392823D01*
X72086Y-1392729D01*
X72114Y-1392634D01*
X72139Y-1392538D01*
X72160Y-1392440D01*
X72177Y-1392342D01*
X72190Y-1392244D01*
X72199Y-1392145D01*
X72205Y-1392045D01*
X72207Y-1391946D01*
X72207Y-1385454D01*
X72208Y-1385454D02*
X72206Y-1385355D01*
X72200Y-1385255D01*
X72191Y-1385156D01*
X72178Y-1385058D01*
X72160Y-1384960D01*
X72140Y-1384862D01*
X72115Y-1384766D01*
X72087Y-1384670D01*
X72055Y-1384576D01*
X72020Y-1384483D01*
X71981Y-1384392D01*
X71938Y-1384302D01*
X71893Y-1384213D01*
X71843Y-1384127D01*
X71791Y-1384042D01*
X71735Y-1383960D01*
X71676Y-1383880D01*
X71615Y-1383802D01*
X71550Y-1383726D01*
X71482Y-1383653D01*
X71412Y-1383583D01*
X71339Y-1383515D01*
X71263Y-1383450D01*
X71185Y-1383389D01*
X71105Y-1383330D01*
X71023Y-1383274D01*
X70938Y-1383222D01*
X70852Y-1383173D01*
X70763Y-1383127D01*
X70673Y-1383084D01*
X70582Y-1383045D01*
X70489Y-1383010D01*
X70395Y-1382978D01*
X70299Y-1382950D01*
X70203Y-1382925D01*
X70105Y-1382905D01*
X70007Y-1382887D01*
X69909Y-1382874D01*
X69810Y-1382865D01*
X69711Y-1382859D01*
X69611Y-1382857D01*
X69611Y-1382858D02*
X67014Y-1382858D01*
X62650Y-1391296D02*
X62648Y-1391183D01*
X62642Y-1391070D01*
X62632Y-1390957D01*
X62618Y-1390844D01*
X62601Y-1390732D01*
X62579Y-1390621D01*
X62554Y-1390511D01*
X62524Y-1390401D01*
X62491Y-1390293D01*
X62454Y-1390186D01*
X62414Y-1390080D01*
X62369Y-1389976D01*
X62321Y-1389873D01*
X62270Y-1389772D01*
X62215Y-1389673D01*
X62157Y-1389576D01*
X62095Y-1389481D01*
X62030Y-1389388D01*
X61962Y-1389298D01*
X61891Y-1389210D01*
X61816Y-1389124D01*
X61739Y-1389041D01*
X61659Y-1388961D01*
X61576Y-1388884D01*
X61490Y-1388809D01*
X61402Y-1388738D01*
X61312Y-1388670D01*
X61219Y-1388605D01*
X61124Y-1388543D01*
X61027Y-1388485D01*
X60928Y-1388430D01*
X60827Y-1388379D01*
X60724Y-1388331D01*
X60620Y-1388286D01*
X60514Y-1388246D01*
X60407Y-1388209D01*
X60299Y-1388176D01*
X60189Y-1388146D01*
X60079Y-1388121D01*
X59968Y-1388099D01*
X59856Y-1388082D01*
X59743Y-1388068D01*
X59630Y-1388058D01*
X59517Y-1388052D01*
X59404Y-1388050D01*
X59291Y-1388052D01*
X59178Y-1388058D01*
X59065Y-1388068D01*
X58952Y-1388082D01*
X58840Y-1388099D01*
X58729Y-1388121D01*
X58619Y-1388146D01*
X58509Y-1388176D01*
X58401Y-1388209D01*
X58294Y-1388246D01*
X58188Y-1388286D01*
X58084Y-1388331D01*
X57981Y-1388379D01*
X57880Y-1388430D01*
X57781Y-1388485D01*
X57684Y-1388543D01*
X57589Y-1388605D01*
X57496Y-1388670D01*
X57406Y-1388738D01*
X57318Y-1388809D01*
X57232Y-1388884D01*
X57149Y-1388961D01*
X57069Y-1389041D01*
X56992Y-1389124D01*
X56917Y-1389210D01*
X56846Y-1389298D01*
X56778Y-1389388D01*
X56713Y-1389481D01*
X56651Y-1389576D01*
X56593Y-1389673D01*
X56538Y-1389772D01*
X56487Y-1389873D01*
X56439Y-1389976D01*
X56394Y-1390080D01*
X56354Y-1390186D01*
X56317Y-1390293D01*
X56284Y-1390401D01*
X56254Y-1390511D01*
X56229Y-1390621D01*
X56207Y-1390732D01*
X56190Y-1390844D01*
X56176Y-1390957D01*
X56166Y-1391070D01*
X56160Y-1391183D01*
X56158Y-1391296D01*
X56160Y-1391409D01*
X56166Y-1391522D01*
X56176Y-1391635D01*
X56190Y-1391748D01*
X56207Y-1391860D01*
X56229Y-1391971D01*
X56254Y-1392081D01*
X56284Y-1392191D01*
X56317Y-1392299D01*
X56354Y-1392406D01*
X56394Y-1392512D01*
X56439Y-1392616D01*
X56487Y-1392719D01*
X56538Y-1392820D01*
X56593Y-1392919D01*
X56651Y-1393016D01*
X56713Y-1393111D01*
X56778Y-1393204D01*
X56846Y-1393294D01*
X56917Y-1393382D01*
X56992Y-1393468D01*
X57069Y-1393551D01*
X57149Y-1393631D01*
X57232Y-1393708D01*
X57318Y-1393783D01*
X57406Y-1393854D01*
X57496Y-1393922D01*
X57589Y-1393987D01*
X57684Y-1394049D01*
X57781Y-1394107D01*
X57880Y-1394162D01*
X57981Y-1394213D01*
X58084Y-1394261D01*
X58188Y-1394306D01*
X58294Y-1394346D01*
X58401Y-1394383D01*
X58509Y-1394416D01*
X58619Y-1394446D01*
X58729Y-1394471D01*
X58840Y-1394493D01*
X58952Y-1394510D01*
X59065Y-1394524D01*
X59178Y-1394534D01*
X59291Y-1394540D01*
X59404Y-1394542D01*
X59517Y-1394540D01*
X59630Y-1394534D01*
X59743Y-1394524D01*
X59856Y-1394510D01*
X59968Y-1394493D01*
X60079Y-1394471D01*
X60189Y-1394446D01*
X60299Y-1394416D01*
X60407Y-1394383D01*
X60514Y-1394346D01*
X60620Y-1394306D01*
X60724Y-1394261D01*
X60827Y-1394213D01*
X60928Y-1394162D01*
X61027Y-1394107D01*
X61124Y-1394049D01*
X61219Y-1393987D01*
X61312Y-1393922D01*
X61402Y-1393854D01*
X61490Y-1393783D01*
X61576Y-1393708D01*
X61659Y-1393631D01*
X61739Y-1393551D01*
X61816Y-1393468D01*
X61891Y-1393382D01*
X61962Y-1393294D01*
X62030Y-1393204D01*
X62095Y-1393111D01*
X62157Y-1393016D01*
X62215Y-1392919D01*
X62270Y-1392820D01*
X62321Y-1392719D01*
X62369Y-1392616D01*
X62414Y-1392512D01*
X62454Y-1392406D01*
X62491Y-1392299D01*
X62524Y-1392191D01*
X62554Y-1392081D01*
X62579Y-1391971D01*
X62601Y-1391860D01*
X62618Y-1391748D01*
X62632Y-1391635D01*
X62642Y-1391522D01*
X62648Y-1391409D01*
X62650Y-1391296D01*
X62000Y-1385454D02*
X61998Y-1385353D01*
X61992Y-1385253D01*
X61982Y-1385153D01*
X61969Y-1385053D01*
X61951Y-1384954D01*
X61930Y-1384855D01*
X61905Y-1384758D01*
X61876Y-1384661D01*
X61843Y-1384566D01*
X61807Y-1384472D01*
X61767Y-1384380D01*
X61724Y-1384289D01*
X61677Y-1384200D01*
X61627Y-1384113D01*
X61573Y-1384027D01*
X61516Y-1383944D01*
X61456Y-1383864D01*
X61393Y-1383785D01*
X61326Y-1383709D01*
X61257Y-1383636D01*
X61185Y-1383566D01*
X61111Y-1383498D01*
X61034Y-1383433D01*
X60954Y-1383372D01*
X60872Y-1383313D01*
X60788Y-1383258D01*
X60702Y-1383206D01*
X60614Y-1383157D01*
X60524Y-1383112D01*
X60432Y-1383070D01*
X60339Y-1383032D01*
X60244Y-1382998D01*
X60149Y-1382967D01*
X60052Y-1382940D01*
X59954Y-1382917D01*
X59855Y-1382897D01*
X59755Y-1382882D01*
X59655Y-1382870D01*
X59555Y-1382862D01*
X59454Y-1382858D01*
X59354Y-1382858D01*
X59253Y-1382862D01*
X59153Y-1382870D01*
X59053Y-1382882D01*
X58953Y-1382897D01*
X58854Y-1382917D01*
X58756Y-1382940D01*
X58659Y-1382967D01*
X58564Y-1382998D01*
X58469Y-1383032D01*
X58376Y-1383070D01*
X58284Y-1383112D01*
X58194Y-1383157D01*
X58106Y-1383206D01*
X58020Y-1383258D01*
X57936Y-1383313D01*
X57854Y-1383372D01*
X57774Y-1383433D01*
X57697Y-1383498D01*
X57623Y-1383566D01*
X57551Y-1383636D01*
X57482Y-1383709D01*
X57415Y-1383785D01*
X57352Y-1383864D01*
X57292Y-1383944D01*
X57235Y-1384027D01*
X57181Y-1384113D01*
X57131Y-1384200D01*
X57084Y-1384289D01*
X57041Y-1384380D01*
X57001Y-1384472D01*
X56965Y-1384566D01*
X56932Y-1384661D01*
X56903Y-1384758D01*
X56878Y-1384855D01*
X56857Y-1384954D01*
X56839Y-1385053D01*
X56826Y-1385153D01*
X56816Y-1385253D01*
X56810Y-1385353D01*
X56808Y-1385454D01*
X56810Y-1385555D01*
X56816Y-1385655D01*
X56826Y-1385755D01*
X56839Y-1385855D01*
X56857Y-1385954D01*
X56878Y-1386053D01*
X56903Y-1386150D01*
X56932Y-1386247D01*
X56965Y-1386342D01*
X57001Y-1386436D01*
X57041Y-1386528D01*
X57084Y-1386619D01*
X57131Y-1386708D01*
X57181Y-1386795D01*
X57235Y-1386881D01*
X57292Y-1386964D01*
X57352Y-1387044D01*
X57415Y-1387123D01*
X57482Y-1387199D01*
X57551Y-1387272D01*
X57623Y-1387342D01*
X57697Y-1387410D01*
X57774Y-1387475D01*
X57854Y-1387536D01*
X57936Y-1387595D01*
X58020Y-1387650D01*
X58106Y-1387702D01*
X58194Y-1387751D01*
X58284Y-1387796D01*
X58376Y-1387838D01*
X58469Y-1387876D01*
X58564Y-1387910D01*
X58659Y-1387941D01*
X58756Y-1387968D01*
X58854Y-1387991D01*
X58953Y-1388011D01*
X59053Y-1388026D01*
X59153Y-1388038D01*
X59253Y-1388046D01*
X59354Y-1388050D01*
X59454Y-1388050D01*
X59555Y-1388046D01*
X59655Y-1388038D01*
X59755Y-1388026D01*
X59855Y-1388011D01*
X59954Y-1387991D01*
X60052Y-1387968D01*
X60149Y-1387941D01*
X60244Y-1387910D01*
X60339Y-1387876D01*
X60432Y-1387838D01*
X60524Y-1387796D01*
X60614Y-1387751D01*
X60702Y-1387702D01*
X60788Y-1387650D01*
X60872Y-1387595D01*
X60954Y-1387536D01*
X61034Y-1387475D01*
X61111Y-1387410D01*
X61185Y-1387342D01*
X61257Y-1387272D01*
X61326Y-1387199D01*
X61393Y-1387123D01*
X61456Y-1387044D01*
X61516Y-1386964D01*
X61573Y-1386881D01*
X61627Y-1386795D01*
X61677Y-1386708D01*
X61724Y-1386619D01*
X61767Y-1386528D01*
X61807Y-1386436D01*
X61843Y-1386342D01*
X61876Y-1386247D01*
X61905Y-1386150D01*
X61930Y-1386053D01*
X61951Y-1385954D01*
X61969Y-1385855D01*
X61982Y-1385755D01*
X61992Y-1385655D01*
X61998Y-1385555D01*
X62000Y-1385454D01*
X133664Y-1412892D02*
X136261Y-1412892D01*
X136360Y-1412890D01*
X136460Y-1412884D01*
X136559Y-1412875D01*
X136657Y-1412862D01*
X136755Y-1412845D01*
X136853Y-1412824D01*
X136949Y-1412799D01*
X137044Y-1412771D01*
X137138Y-1412739D01*
X137231Y-1412704D01*
X137323Y-1412665D01*
X137413Y-1412622D01*
X137501Y-1412577D01*
X137588Y-1412527D01*
X137672Y-1412475D01*
X137755Y-1412419D01*
X137835Y-1412361D01*
X137913Y-1412299D01*
X137988Y-1412234D01*
X138061Y-1412166D01*
X138131Y-1412096D01*
X138199Y-1412023D01*
X138264Y-1411948D01*
X138326Y-1411870D01*
X138384Y-1411790D01*
X138440Y-1411707D01*
X138492Y-1411623D01*
X138542Y-1411536D01*
X138587Y-1411448D01*
X138630Y-1411358D01*
X138669Y-1411266D01*
X138704Y-1411173D01*
X138736Y-1411079D01*
X138764Y-1410984D01*
X138789Y-1410888D01*
X138810Y-1410790D01*
X138827Y-1410692D01*
X138840Y-1410594D01*
X138849Y-1410495D01*
X138855Y-1410395D01*
X138857Y-1410296D01*
X138857Y-1403804D01*
X138858Y-1403804D02*
X138856Y-1403705D01*
X138850Y-1403605D01*
X138841Y-1403506D01*
X138828Y-1403408D01*
X138810Y-1403310D01*
X138790Y-1403212D01*
X138765Y-1403116D01*
X138737Y-1403020D01*
X138705Y-1402926D01*
X138670Y-1402833D01*
X138631Y-1402742D01*
X138588Y-1402652D01*
X138543Y-1402563D01*
X138493Y-1402477D01*
X138441Y-1402392D01*
X138385Y-1402310D01*
X138326Y-1402230D01*
X138265Y-1402152D01*
X138200Y-1402076D01*
X138132Y-1402003D01*
X138062Y-1401933D01*
X137989Y-1401865D01*
X137913Y-1401800D01*
X137835Y-1401739D01*
X137755Y-1401680D01*
X137673Y-1401624D01*
X137588Y-1401572D01*
X137502Y-1401523D01*
X137413Y-1401477D01*
X137323Y-1401434D01*
X137232Y-1401395D01*
X137139Y-1401360D01*
X137045Y-1401328D01*
X136949Y-1401300D01*
X136853Y-1401275D01*
X136755Y-1401255D01*
X136657Y-1401237D01*
X136559Y-1401224D01*
X136460Y-1401215D01*
X136361Y-1401209D01*
X136261Y-1401207D01*
X136261Y-1401208D02*
X133664Y-1401208D01*
X126703Y-1407699D02*
X122808Y-1407699D01*
X126703Y-1407699D02*
X126802Y-1407697D01*
X126902Y-1407691D01*
X127001Y-1407682D01*
X127099Y-1407669D01*
X127197Y-1407652D01*
X127295Y-1407631D01*
X127391Y-1407606D01*
X127486Y-1407578D01*
X127580Y-1407546D01*
X127673Y-1407511D01*
X127765Y-1407472D01*
X127855Y-1407429D01*
X127943Y-1407384D01*
X128030Y-1407334D01*
X128114Y-1407282D01*
X128197Y-1407226D01*
X128277Y-1407168D01*
X128355Y-1407106D01*
X128430Y-1407041D01*
X128503Y-1406973D01*
X128573Y-1406903D01*
X128641Y-1406830D01*
X128706Y-1406755D01*
X128768Y-1406677D01*
X128826Y-1406597D01*
X128882Y-1406514D01*
X128934Y-1406430D01*
X128984Y-1406343D01*
X129029Y-1406255D01*
X129072Y-1406165D01*
X129111Y-1406073D01*
X129146Y-1405980D01*
X129178Y-1405886D01*
X129206Y-1405791D01*
X129231Y-1405695D01*
X129252Y-1405597D01*
X129269Y-1405499D01*
X129282Y-1405401D01*
X129291Y-1405302D01*
X129297Y-1405202D01*
X129299Y-1405103D01*
X129299Y-1404454D01*
X129300Y-1404454D02*
X129298Y-1404341D01*
X129292Y-1404228D01*
X129282Y-1404115D01*
X129268Y-1404002D01*
X129251Y-1403890D01*
X129229Y-1403779D01*
X129204Y-1403669D01*
X129174Y-1403559D01*
X129141Y-1403451D01*
X129104Y-1403344D01*
X129064Y-1403238D01*
X129019Y-1403134D01*
X128971Y-1403031D01*
X128920Y-1402930D01*
X128865Y-1402831D01*
X128807Y-1402734D01*
X128745Y-1402639D01*
X128680Y-1402546D01*
X128612Y-1402456D01*
X128541Y-1402368D01*
X128466Y-1402282D01*
X128389Y-1402199D01*
X128309Y-1402119D01*
X128226Y-1402042D01*
X128140Y-1401967D01*
X128052Y-1401896D01*
X127962Y-1401828D01*
X127869Y-1401763D01*
X127774Y-1401701D01*
X127677Y-1401643D01*
X127578Y-1401588D01*
X127477Y-1401537D01*
X127374Y-1401489D01*
X127270Y-1401444D01*
X127164Y-1401404D01*
X127057Y-1401367D01*
X126949Y-1401334D01*
X126839Y-1401304D01*
X126729Y-1401279D01*
X126618Y-1401257D01*
X126506Y-1401240D01*
X126393Y-1401226D01*
X126280Y-1401216D01*
X126167Y-1401210D01*
X126054Y-1401208D01*
X125941Y-1401210D01*
X125828Y-1401216D01*
X125715Y-1401226D01*
X125602Y-1401240D01*
X125490Y-1401257D01*
X125379Y-1401279D01*
X125269Y-1401304D01*
X125159Y-1401334D01*
X125051Y-1401367D01*
X124944Y-1401404D01*
X124838Y-1401444D01*
X124734Y-1401489D01*
X124631Y-1401537D01*
X124530Y-1401588D01*
X124431Y-1401643D01*
X124334Y-1401701D01*
X124239Y-1401763D01*
X124146Y-1401828D01*
X124056Y-1401896D01*
X123968Y-1401967D01*
X123882Y-1402042D01*
X123799Y-1402119D01*
X123719Y-1402199D01*
X123642Y-1402282D01*
X123567Y-1402368D01*
X123496Y-1402456D01*
X123428Y-1402546D01*
X123363Y-1402639D01*
X123301Y-1402734D01*
X123243Y-1402831D01*
X123188Y-1402930D01*
X123137Y-1403031D01*
X123089Y-1403134D01*
X123044Y-1403238D01*
X123004Y-1403344D01*
X122967Y-1403451D01*
X122934Y-1403559D01*
X122904Y-1403669D01*
X122879Y-1403779D01*
X122857Y-1403890D01*
X122840Y-1404002D01*
X122826Y-1404115D01*
X122816Y-1404228D01*
X122810Y-1404341D01*
X122808Y-1404454D01*
X122808Y-1407699D01*
X122810Y-1407842D01*
X122816Y-1407985D01*
X122826Y-1408128D01*
X122840Y-1408270D01*
X122857Y-1408412D01*
X122879Y-1408554D01*
X122904Y-1408695D01*
X122934Y-1408835D01*
X122967Y-1408974D01*
X123004Y-1409112D01*
X123045Y-1409249D01*
X123089Y-1409385D01*
X123138Y-1409520D01*
X123190Y-1409653D01*
X123245Y-1409785D01*
X123305Y-1409915D01*
X123368Y-1410044D01*
X123434Y-1410171D01*
X123504Y-1410296D01*
X123577Y-1410418D01*
X123654Y-1410539D01*
X123734Y-1410658D01*
X123817Y-1410774D01*
X123903Y-1410889D01*
X123992Y-1411000D01*
X124085Y-1411110D01*
X124180Y-1411216D01*
X124279Y-1411320D01*
X124380Y-1411421D01*
X124484Y-1411520D01*
X124590Y-1411615D01*
X124700Y-1411708D01*
X124811Y-1411797D01*
X124926Y-1411883D01*
X125042Y-1411966D01*
X125161Y-1412046D01*
X125282Y-1412123D01*
X125404Y-1412196D01*
X125529Y-1412266D01*
X125656Y-1412332D01*
X125785Y-1412395D01*
X125915Y-1412455D01*
X126047Y-1412510D01*
X126180Y-1412562D01*
X126315Y-1412611D01*
X126451Y-1412655D01*
X126588Y-1412696D01*
X126726Y-1412733D01*
X126865Y-1412766D01*
X127005Y-1412796D01*
X127146Y-1412821D01*
X127288Y-1412843D01*
X127430Y-1412860D01*
X127572Y-1412874D01*
X127715Y-1412884D01*
X127858Y-1412890D01*
X128001Y-1412892D01*
X55611Y-217542D02*
X53014Y-217542D01*
X55611Y-217542D02*
X55710Y-217540D01*
X55810Y-217534D01*
X55909Y-217525D01*
X56007Y-217512D01*
X56105Y-217495D01*
X56203Y-217474D01*
X56299Y-217449D01*
X56394Y-217421D01*
X56488Y-217389D01*
X56581Y-217354D01*
X56673Y-217315D01*
X56763Y-217272D01*
X56851Y-217227D01*
X56938Y-217177D01*
X57022Y-217125D01*
X57105Y-217069D01*
X57185Y-217011D01*
X57263Y-216949D01*
X57338Y-216884D01*
X57411Y-216816D01*
X57481Y-216746D01*
X57549Y-216673D01*
X57614Y-216598D01*
X57676Y-216520D01*
X57734Y-216440D01*
X57790Y-216357D01*
X57842Y-216273D01*
X57892Y-216186D01*
X57937Y-216098D01*
X57980Y-216008D01*
X58019Y-215916D01*
X58054Y-215823D01*
X58086Y-215729D01*
X58114Y-215634D01*
X58139Y-215538D01*
X58160Y-215440D01*
X58177Y-215342D01*
X58190Y-215244D01*
X58199Y-215145D01*
X58205Y-215045D01*
X58207Y-214946D01*
X58207Y-208454D01*
X58208Y-208454D02*
X58206Y-208355D01*
X58200Y-208255D01*
X58191Y-208156D01*
X58178Y-208058D01*
X58160Y-207960D01*
X58140Y-207862D01*
X58115Y-207766D01*
X58087Y-207670D01*
X58055Y-207576D01*
X58020Y-207483D01*
X57981Y-207392D01*
X57938Y-207302D01*
X57893Y-207213D01*
X57843Y-207127D01*
X57791Y-207042D01*
X57735Y-206960D01*
X57676Y-206880D01*
X57615Y-206802D01*
X57550Y-206726D01*
X57482Y-206653D01*
X57412Y-206583D01*
X57339Y-206515D01*
X57263Y-206450D01*
X57185Y-206389D01*
X57105Y-206330D01*
X57023Y-206274D01*
X56938Y-206222D01*
X56852Y-206173D01*
X56763Y-206127D01*
X56673Y-206084D01*
X56582Y-206045D01*
X56489Y-206010D01*
X56395Y-205978D01*
X56299Y-205950D01*
X56203Y-205925D01*
X56105Y-205905D01*
X56007Y-205887D01*
X55909Y-205874D01*
X55810Y-205865D01*
X55711Y-205859D01*
X55611Y-205857D01*
X55611Y-205858D02*
X53014Y-205858D01*
X48649Y-208454D02*
X45404Y-205858D01*
X45404Y-217542D01*
X48649Y-217542D02*
X42158Y-217542D01*
M02*
