G04 EAGLE Gerber RS-274X export*
G75*
%MOMM*%
%FSLAX34Y34*%
%LPD*%
%INTop Copper*%
%IPPOS*%
%AMOC8*
5,1,8,0,0,1.08239X$1,22.5*%
G01*
%ADD10R,0.800000X0.500000*%
%ADD11P,1.649562X8X22.500000*%
%ADD12R,0.600000X1.200000*%
%ADD13R,0.700000X0.900000*%
%ADD14C,0.450000*%
%ADD15C,0.101600*%
%ADD16C,0.203200*%
%ADD17C,0.152400*%
%ADD18C,0.406400*%
%ADD19C,0.900000*%


D10*
X29167Y-86667D03*
X13167Y-86667D03*
X29167Y-95667D03*
X13167Y-95667D03*
X71500Y-171333D03*
X55500Y-171333D03*
X71500Y-180333D03*
X55500Y-180333D03*
X156167Y-1102667D03*
X140167Y-1102667D03*
X156167Y-1111667D03*
X140167Y-1111667D03*
X29167Y-1145000D03*
X13167Y-1145000D03*
X29167Y-1154000D03*
X13167Y-1154000D03*
X71500Y-1145000D03*
X55500Y-1145000D03*
X71500Y-1154000D03*
X55500Y-1154000D03*
X113833Y-1145000D03*
X97833Y-1145000D03*
X113833Y-1154000D03*
X97833Y-1154000D03*
X156167Y-1145000D03*
X140167Y-1145000D03*
X156167Y-1154000D03*
X140167Y-1154000D03*
X29167Y-1187333D03*
X13167Y-1187333D03*
X29167Y-1196333D03*
X13167Y-1196333D03*
X71500Y-1187333D03*
X55500Y-1187333D03*
X71500Y-1196333D03*
X55500Y-1196333D03*
X113833Y-1187333D03*
X97833Y-1187333D03*
X113833Y-1196333D03*
X97833Y-1196333D03*
X156167Y-1187333D03*
X140167Y-1187333D03*
X156167Y-1196333D03*
X140167Y-1196333D03*
X29167Y-1229667D03*
X13167Y-1229667D03*
X29167Y-1238667D03*
X13167Y-1238667D03*
X113833Y-171333D03*
X97833Y-171333D03*
X113833Y-180333D03*
X97833Y-180333D03*
X71500Y-1229667D03*
X55500Y-1229667D03*
X71500Y-1238667D03*
X55500Y-1238667D03*
X113833Y-1229667D03*
X97833Y-1229667D03*
X113833Y-1238667D03*
X97833Y-1238667D03*
X156167Y-1229667D03*
X140167Y-1229667D03*
X156167Y-1238667D03*
X140167Y-1238667D03*
X29167Y-1272000D03*
X13167Y-1272000D03*
X29167Y-1281000D03*
X13167Y-1281000D03*
X71500Y-1272000D03*
X55500Y-1272000D03*
X71500Y-1281000D03*
X55500Y-1281000D03*
X113833Y-1272000D03*
X97833Y-1272000D03*
X113833Y-1281000D03*
X97833Y-1281000D03*
X156167Y-1272000D03*
X140167Y-1272000D03*
X156167Y-1281000D03*
X140167Y-1281000D03*
X29167Y-1314333D03*
X13167Y-1314333D03*
X29167Y-1323333D03*
X13167Y-1323333D03*
X71500Y-1314333D03*
X55500Y-1314333D03*
X71500Y-1323333D03*
X55500Y-1323333D03*
X113833Y-1314333D03*
X97833Y-1314333D03*
X113833Y-1323333D03*
X97833Y-1323333D03*
X156167Y-171333D03*
X140167Y-171333D03*
X156167Y-180333D03*
X140167Y-180333D03*
X156167Y-1314333D03*
X140167Y-1314333D03*
X156167Y-1323333D03*
X140167Y-1323333D03*
X29167Y-213667D03*
X13167Y-213667D03*
X29167Y-222667D03*
X13167Y-222667D03*
X71500Y-213667D03*
X55500Y-213667D03*
X71500Y-222667D03*
X55500Y-222667D03*
X113833Y-213667D03*
X97833Y-213667D03*
X113833Y-222667D03*
X97833Y-222667D03*
X156167Y-213667D03*
X140167Y-213667D03*
X156167Y-222667D03*
X140167Y-222667D03*
X29167Y-256000D03*
X13167Y-256000D03*
X29167Y-265000D03*
X13167Y-265000D03*
X71500Y-256000D03*
X55500Y-256000D03*
X71500Y-265000D03*
X55500Y-265000D03*
X113833Y-256000D03*
X97833Y-256000D03*
X113833Y-265000D03*
X97833Y-265000D03*
X71500Y-86667D03*
X55500Y-86667D03*
X71500Y-95667D03*
X55500Y-95667D03*
X156167Y-256000D03*
X140167Y-256000D03*
X156167Y-265000D03*
X140167Y-265000D03*
X29167Y-298333D03*
X13167Y-298333D03*
X29167Y-307333D03*
X13167Y-307333D03*
X71500Y-298333D03*
X55500Y-298333D03*
X71500Y-307333D03*
X55500Y-307333D03*
X113833Y-298333D03*
X97833Y-298333D03*
X113833Y-307333D03*
X97833Y-307333D03*
X156167Y-298333D03*
X140167Y-298333D03*
X156167Y-307333D03*
X140167Y-307333D03*
X29167Y-340667D03*
X13167Y-340667D03*
X29167Y-349667D03*
X13167Y-349667D03*
X71500Y-340667D03*
X55500Y-340667D03*
X71500Y-349667D03*
X55500Y-349667D03*
X113833Y-340667D03*
X97833Y-340667D03*
X113833Y-349667D03*
X97833Y-349667D03*
X156167Y-340667D03*
X140167Y-340667D03*
X156167Y-349667D03*
X140167Y-349667D03*
X29167Y-383000D03*
X13167Y-383000D03*
X29167Y-392000D03*
X13167Y-392000D03*
X113833Y-86667D03*
X97833Y-86667D03*
X113833Y-95667D03*
X97833Y-95667D03*
X71500Y-383000D03*
X55500Y-383000D03*
X71500Y-392000D03*
X55500Y-392000D03*
X113833Y-383000D03*
X97833Y-383000D03*
X113833Y-392000D03*
X97833Y-392000D03*
X156167Y-383000D03*
X140167Y-383000D03*
X156167Y-392000D03*
X140167Y-392000D03*
X29167Y-425333D03*
X13167Y-425333D03*
X29167Y-434333D03*
X13167Y-434333D03*
X71500Y-425333D03*
X55500Y-425333D03*
X71500Y-434333D03*
X55500Y-434333D03*
X113833Y-425333D03*
X97833Y-425333D03*
X113833Y-434333D03*
X97833Y-434333D03*
X156167Y-425333D03*
X140167Y-425333D03*
X156167Y-434333D03*
X140167Y-434333D03*
X29167Y-467667D03*
X13167Y-467667D03*
X29167Y-476667D03*
X13167Y-476667D03*
X71500Y-467667D03*
X55500Y-467667D03*
X71500Y-476667D03*
X55500Y-476667D03*
X113833Y-467667D03*
X97833Y-467667D03*
X113833Y-476667D03*
X97833Y-476667D03*
X156167Y-86667D03*
X140167Y-86667D03*
X156167Y-95667D03*
X140167Y-95667D03*
X156167Y-467667D03*
X140167Y-467667D03*
X156167Y-476667D03*
X140167Y-476667D03*
X29167Y-510000D03*
X13167Y-510000D03*
X29167Y-519000D03*
X13167Y-519000D03*
X71500Y-510000D03*
X55500Y-510000D03*
X71500Y-519000D03*
X55500Y-519000D03*
X113833Y-510000D03*
X97833Y-510000D03*
X113833Y-519000D03*
X97833Y-519000D03*
X156167Y-510000D03*
X140167Y-510000D03*
X156167Y-519000D03*
X140167Y-519000D03*
X29167Y-552333D03*
X13167Y-552333D03*
X29167Y-561333D03*
X13167Y-561333D03*
X71500Y-552333D03*
X55500Y-552333D03*
X71500Y-561333D03*
X55500Y-561333D03*
X113833Y-552333D03*
X97833Y-552333D03*
X113833Y-561333D03*
X97833Y-561333D03*
X156167Y-552333D03*
X140167Y-552333D03*
X156167Y-561333D03*
X140167Y-561333D03*
X29167Y-594667D03*
X13167Y-594667D03*
X29167Y-603667D03*
X13167Y-603667D03*
X29167Y-129000D03*
X13167Y-129000D03*
X29167Y-138000D03*
X13167Y-138000D03*
X71500Y-594667D03*
X55500Y-594667D03*
X71500Y-603667D03*
X55500Y-603667D03*
X113833Y-594667D03*
X97833Y-594667D03*
X113833Y-603667D03*
X97833Y-603667D03*
X156167Y-594667D03*
X140167Y-594667D03*
X156167Y-603667D03*
X140167Y-603667D03*
X29167Y-637000D03*
X13167Y-637000D03*
X29167Y-646000D03*
X13167Y-646000D03*
X71500Y-637000D03*
X55500Y-637000D03*
X71500Y-646000D03*
X55500Y-646000D03*
X113833Y-637000D03*
X97833Y-637000D03*
X113833Y-646000D03*
X97833Y-646000D03*
X156167Y-637000D03*
X140167Y-637000D03*
X156167Y-646000D03*
X140167Y-646000D03*
X29167Y-679333D03*
X13167Y-679333D03*
X29167Y-688333D03*
X13167Y-688333D03*
X71500Y-679333D03*
X55500Y-679333D03*
X71500Y-688333D03*
X55500Y-688333D03*
X113833Y-679333D03*
X97833Y-679333D03*
X113833Y-688333D03*
X97833Y-688333D03*
X71500Y-129000D03*
X55500Y-129000D03*
X71500Y-138000D03*
X55500Y-138000D03*
X156167Y-679333D03*
X140167Y-679333D03*
X156167Y-688333D03*
X140167Y-688333D03*
X29167Y-721667D03*
X13167Y-721667D03*
X29167Y-730667D03*
X13167Y-730667D03*
X71500Y-721667D03*
X55500Y-721667D03*
X71500Y-730667D03*
X55500Y-730667D03*
X113833Y-721667D03*
X97833Y-721667D03*
X113833Y-730667D03*
X97833Y-730667D03*
X156167Y-721667D03*
X140167Y-721667D03*
X156167Y-730667D03*
X140167Y-730667D03*
X29167Y-764000D03*
X13167Y-764000D03*
X29167Y-773000D03*
X13167Y-773000D03*
X71500Y-764000D03*
X55500Y-764000D03*
X71500Y-773000D03*
X55500Y-773000D03*
X113833Y-764000D03*
X97833Y-764000D03*
X113833Y-773000D03*
X97833Y-773000D03*
X156167Y-764000D03*
X140167Y-764000D03*
X156167Y-773000D03*
X140167Y-773000D03*
X29167Y-806333D03*
X13167Y-806333D03*
X29167Y-815333D03*
X13167Y-815333D03*
X113833Y-129000D03*
X97833Y-129000D03*
X113833Y-138000D03*
X97833Y-138000D03*
X71500Y-806333D03*
X55500Y-806333D03*
X71500Y-815333D03*
X55500Y-815333D03*
X113833Y-806333D03*
X97833Y-806333D03*
X113833Y-815333D03*
X97833Y-815333D03*
X156167Y-806333D03*
X140167Y-806333D03*
X156167Y-815333D03*
X140167Y-815333D03*
X29167Y-848667D03*
X13167Y-848667D03*
X29167Y-857667D03*
X13167Y-857667D03*
X71500Y-848667D03*
X55500Y-848667D03*
X71500Y-857667D03*
X55500Y-857667D03*
X113833Y-848667D03*
X97833Y-848667D03*
X113833Y-857667D03*
X97833Y-857667D03*
X156167Y-848667D03*
X140167Y-848667D03*
X156167Y-857667D03*
X140167Y-857667D03*
X29167Y-891000D03*
X13167Y-891000D03*
X29167Y-900000D03*
X13167Y-900000D03*
X71500Y-891000D03*
X55500Y-891000D03*
X71500Y-900000D03*
X55500Y-900000D03*
X113833Y-891000D03*
X97833Y-891000D03*
X113833Y-900000D03*
X97833Y-900000D03*
X156167Y-129000D03*
X140167Y-129000D03*
X156167Y-138000D03*
X140167Y-138000D03*
X156167Y-891000D03*
X140167Y-891000D03*
X156167Y-900000D03*
X140167Y-900000D03*
X29167Y-933333D03*
X13167Y-933333D03*
X29167Y-942333D03*
X13167Y-942333D03*
X71500Y-933333D03*
X55500Y-933333D03*
X71500Y-942333D03*
X55500Y-942333D03*
X113833Y-933333D03*
X97833Y-933333D03*
X113833Y-942333D03*
X97833Y-942333D03*
X156167Y-933333D03*
X140167Y-933333D03*
X156167Y-942333D03*
X140167Y-942333D03*
X29167Y-975667D03*
X13167Y-975667D03*
X29167Y-984667D03*
X13167Y-984667D03*
X71500Y-975667D03*
X55500Y-975667D03*
X71500Y-984667D03*
X55500Y-984667D03*
X113833Y-975667D03*
X97833Y-975667D03*
X113833Y-984667D03*
X97833Y-984667D03*
X156167Y-975667D03*
X140167Y-975667D03*
X156167Y-984667D03*
X140167Y-984667D03*
X29167Y-1018000D03*
X13167Y-1018000D03*
X29167Y-1027000D03*
X13167Y-1027000D03*
X29167Y-171333D03*
X13167Y-171333D03*
X29167Y-180333D03*
X13167Y-180333D03*
X71500Y-1018000D03*
X55500Y-1018000D03*
X71500Y-1027000D03*
X55500Y-1027000D03*
X113833Y-1018000D03*
X97833Y-1018000D03*
X113833Y-1027000D03*
X97833Y-1027000D03*
X156167Y-1018000D03*
X140167Y-1018000D03*
X156167Y-1027000D03*
X140167Y-1027000D03*
X29167Y-1060333D03*
X13167Y-1060333D03*
X29167Y-1069333D03*
X13167Y-1069333D03*
X71500Y-1060333D03*
X55500Y-1060333D03*
X71500Y-1069333D03*
X55500Y-1069333D03*
X113833Y-1060333D03*
X97833Y-1060333D03*
X113833Y-1069333D03*
X97833Y-1069333D03*
X156167Y-1060333D03*
X140167Y-1060333D03*
X156167Y-1069333D03*
X140167Y-1069333D03*
X29167Y-1102667D03*
X13167Y-1102667D03*
X29167Y-1111667D03*
X13167Y-1111667D03*
X71500Y-1102667D03*
X55500Y-1102667D03*
X71500Y-1111667D03*
X55500Y-1111667D03*
X113833Y-1102667D03*
X97833Y-1102667D03*
X113833Y-1111667D03*
X97833Y-1111667D03*
D11*
X22804Y-1433152D03*
X48204Y-1433152D03*
X73604Y-1433152D03*
X99004Y-1433152D03*
X124404Y-1433152D03*
X149804Y-1433152D03*
X22804Y-1407752D03*
X48204Y-1407752D03*
X73604Y-1407752D03*
X99004Y-1407752D03*
X124404Y-1407752D03*
X149804Y-1407752D03*
D12*
X74315Y-1383310D03*
X83815Y-1383310D03*
X93315Y-1383310D03*
X93315Y-1358310D03*
X74315Y-1358310D03*
X8379Y-1382275D03*
X17879Y-1382275D03*
X27379Y-1382275D03*
X27379Y-1357275D03*
X8379Y-1357275D03*
X139828Y-1383792D03*
X149328Y-1383792D03*
X158828Y-1383792D03*
X158828Y-1358792D03*
X139828Y-1358792D03*
D13*
X44103Y-1356895D03*
X57103Y-1356895D03*
X110005Y-1372021D03*
X123005Y-1372021D03*
X109934Y-1384953D03*
X122934Y-1384953D03*
X44024Y-1371131D03*
X57024Y-1371131D03*
X44118Y-1385116D03*
X57118Y-1385116D03*
X110034Y-1357409D03*
X123034Y-1357409D03*
D14*
X21062Y-205406D03*
D15*
X20997Y-205472D01*
X20997Y-374307D01*
X20997Y-543186D01*
D14*
X20997Y-374307D03*
D15*
X20997Y-543186D02*
X20997Y-712323D01*
X20997Y-881351D01*
X20997Y-1050925D01*
X20997Y-1220390D01*
X21427Y-1220821D01*
X21427Y-1329958D01*
D14*
X20997Y-543186D03*
X20997Y-712323D03*
X20997Y-881351D03*
X20997Y-1050925D03*
X20997Y-1220390D03*
D15*
X19036Y-1348932D02*
X27379Y-1357275D01*
X19036Y-1348932D02*
X19036Y-1332349D01*
X21427Y-1329958D01*
X23482Y-1357275D02*
X27379Y-1357275D01*
X23482Y-1357275D02*
X18475Y-1362282D01*
D14*
X18475Y-1362282D03*
X63189Y-196168D03*
D15*
X67858Y-242882D02*
X67858Y-247271D01*
X61872Y-328449D02*
X61872Y-332838D01*
X67858Y-242882D02*
X63189Y-238213D01*
X67858Y-247271D02*
X63448Y-251681D01*
X61872Y-332838D02*
X63234Y-334200D01*
X63448Y-326874D02*
X63448Y-251681D01*
X63448Y-326874D02*
X61872Y-328449D01*
X63189Y-238213D02*
X63189Y-196168D01*
D14*
X63132Y-364726D03*
D15*
X63132Y-357979D01*
X63234Y-357877D01*
X63234Y-334200D01*
D14*
X65371Y-526912D03*
D15*
X67858Y-416604D02*
X67858Y-412215D01*
X61872Y-497783D02*
X61872Y-502172D01*
X63234Y-524775D02*
X65371Y-526912D01*
X63132Y-407489D02*
X63132Y-364726D01*
X63132Y-407489D02*
X67858Y-412215D01*
X67858Y-416604D02*
X63448Y-421014D01*
X61872Y-502172D02*
X63234Y-503533D01*
X63234Y-524775D01*
X63448Y-496207D02*
X63448Y-421014D01*
X63448Y-496207D02*
X61872Y-497783D01*
X65371Y-526912D02*
X65371Y-537537D01*
X63195Y-539713D01*
D14*
X61612Y-704317D03*
D15*
X67858Y-585938D02*
X67858Y-581548D01*
X63234Y-696543D02*
X61612Y-698165D01*
X61612Y-704317D01*
X61872Y-675659D02*
X61872Y-663210D01*
X61872Y-675659D02*
X63234Y-677020D01*
X63234Y-696543D01*
X63195Y-576885D02*
X63195Y-539713D01*
X63195Y-576885D02*
X67858Y-581548D01*
X67858Y-585938D02*
X63448Y-590348D01*
X63448Y-661635D01*
X61872Y-663210D01*
D14*
X61738Y-872277D03*
D15*
X61612Y-717732D02*
X61612Y-704317D01*
X61612Y-717732D02*
X62008Y-718128D01*
X67858Y-750882D02*
X67858Y-755271D01*
X67858Y-750882D02*
X62008Y-745032D01*
X61872Y-832544D02*
X61872Y-844992D01*
X63234Y-865877D02*
X61738Y-867372D01*
X61738Y-872277D01*
X62008Y-745032D02*
X62008Y-718128D01*
X61872Y-844992D02*
X63234Y-846354D01*
X63234Y-865877D01*
X63448Y-759681D02*
X67858Y-755271D01*
X63448Y-759681D02*
X63448Y-830968D01*
X61872Y-832544D01*
D14*
X61422Y-1040490D03*
D15*
X61738Y-887192D02*
X61738Y-872277D01*
X61738Y-887192D02*
X62008Y-887461D01*
X67858Y-920215D02*
X67858Y-924604D01*
X67858Y-920215D02*
X62008Y-914365D01*
X61872Y-1001877D02*
X61872Y-1014326D01*
X62008Y-914365D02*
X62008Y-887461D01*
X61872Y-1014326D02*
X63234Y-1015687D01*
X63234Y-1038679D01*
X61422Y-1040490D01*
X63448Y-929014D02*
X67858Y-924604D01*
X63448Y-929014D02*
X63448Y-1000302D01*
X61872Y-1001877D01*
D14*
X61802Y-1209400D03*
D15*
X61422Y-1056208D02*
X61422Y-1040490D01*
X61422Y-1056208D02*
X62008Y-1056795D01*
X67858Y-1089548D02*
X67858Y-1093938D01*
X67858Y-1089548D02*
X62008Y-1083699D01*
X61872Y-1171210D02*
X61872Y-1183659D01*
X63234Y-1204543D02*
X61802Y-1205975D01*
X61802Y-1209400D01*
X62008Y-1083699D02*
X62008Y-1056795D01*
X61872Y-1183659D02*
X63234Y-1185020D01*
X63234Y-1204543D01*
X63448Y-1098348D02*
X67858Y-1093938D01*
X63448Y-1098348D02*
X63448Y-1169635D01*
X61872Y-1171210D01*
X61802Y-1209400D02*
X61802Y-1225922D01*
X62008Y-1226128D01*
X67858Y-1258882D02*
X67858Y-1263271D01*
X67858Y-1258882D02*
X62008Y-1253032D01*
X62008Y-1226128D01*
X67858Y-1263271D02*
X63448Y-1267681D01*
X63448Y-1309076D02*
X62552Y-1309972D01*
X63448Y-1309076D02*
X63448Y-1267681D01*
X84956Y-1358310D02*
X93315Y-1358310D01*
X84956Y-1358310D02*
X84164Y-1359102D01*
D14*
X84164Y-1359102D03*
D15*
X75137Y-1349208D02*
X70480Y-1344551D01*
X75137Y-1349208D02*
X84214Y-1349208D01*
X93315Y-1358310D01*
X62552Y-1342110D02*
X62552Y-1309972D01*
X62552Y-1342110D02*
X64993Y-1344551D01*
X70480Y-1344551D01*
D14*
X140162Y-65844D03*
X84615Y-112761D03*
X84615Y-120261D03*
X84615Y-127761D03*
X84615Y-135261D03*
X84615Y-142761D03*
X84615Y-150261D03*
X91161Y-146511D03*
X77861Y-146363D03*
X77861Y-153863D03*
X91161Y-154011D03*
X70743Y-150416D03*
X98346Y-150416D03*
X141000Y-404838D03*
X140981Y-573854D03*
X140991Y-743525D03*
X140278Y-912521D03*
X138720Y-1081921D03*
X138983Y-1251259D03*
X139965Y-235604D03*
X84364Y-1298648D03*
X84364Y-1306148D03*
X84364Y-1313648D03*
X84364Y-1321148D03*
X84364Y-1328648D03*
X84364Y-1336148D03*
X90911Y-1332398D03*
X77610Y-1332250D03*
X77610Y-1339750D03*
X90911Y-1339898D03*
X70493Y-1336303D03*
X98096Y-1336303D03*
X84714Y-1128446D03*
X84714Y-1135946D03*
X84714Y-1143446D03*
X84714Y-1150946D03*
X84714Y-1158446D03*
X84714Y-1165946D03*
X91260Y-1162196D03*
X77960Y-1162048D03*
X77960Y-1169548D03*
X91260Y-1169696D03*
X70842Y-1166101D03*
X98445Y-1166101D03*
X84398Y-959091D03*
X84398Y-966591D03*
X84398Y-974091D03*
X84398Y-981591D03*
X84398Y-989091D03*
X84398Y-996591D03*
X90945Y-992841D03*
X77644Y-992693D03*
X77644Y-1000193D03*
X90945Y-1000341D03*
X70527Y-996746D03*
X98130Y-996746D03*
X84860Y-789503D03*
X84860Y-797003D03*
X84860Y-804503D03*
X84860Y-812003D03*
X84860Y-819503D03*
X84860Y-827003D03*
X91406Y-823253D03*
X78106Y-823104D03*
X78106Y-830604D03*
X91406Y-830753D03*
X70989Y-827157D03*
X98592Y-827157D03*
X85242Y-620459D03*
X85242Y-627959D03*
X85242Y-635459D03*
X85242Y-642959D03*
X85242Y-650459D03*
X85242Y-657959D03*
X91788Y-654209D03*
X78488Y-654061D03*
X78488Y-661561D03*
X91788Y-661709D03*
X71370Y-658114D03*
X98973Y-658114D03*
X84508Y-451474D03*
X84508Y-458974D03*
X84508Y-466474D03*
X84508Y-473974D03*
X84508Y-481474D03*
X84508Y-488974D03*
X91055Y-485224D03*
X77754Y-485076D03*
X77754Y-492576D03*
X91055Y-492724D03*
X70637Y-489129D03*
X98240Y-489129D03*
X84763Y-281664D03*
X84763Y-289164D03*
X84763Y-296664D03*
X84763Y-304164D03*
X84763Y-311664D03*
X84763Y-319164D03*
X91310Y-315414D03*
X78009Y-315265D03*
X78009Y-322765D03*
X91310Y-322914D03*
X70892Y-319318D03*
X98495Y-319318D03*
X157675Y-1219410D03*
X157793Y-1050611D03*
X157628Y-881443D03*
X157793Y-711945D03*
X157793Y-542611D03*
X157793Y-373278D03*
X157793Y-203945D03*
D16*
X57103Y-1356895D02*
X57103Y-1371053D01*
X57024Y-1371131D01*
X57024Y-1385023D01*
X57118Y-1385116D01*
X123034Y-1371991D02*
X123034Y-1357409D01*
X123034Y-1371991D02*
X123005Y-1372021D01*
X123005Y-1384882D01*
X122934Y-1384953D01*
D15*
X27379Y-1382275D02*
X27379Y-1390375D01*
X22804Y-1394950D02*
X22804Y-1407752D01*
X22804Y-1394950D02*
X27379Y-1390375D01*
X57024Y-1371131D02*
X88892Y-1371131D01*
X93315Y-1375555D02*
X93315Y-1383310D01*
X93315Y-1375555D02*
X88892Y-1371131D01*
D16*
X122934Y-1384953D02*
X122934Y-1393709D01*
X123237Y-1394011D01*
D14*
X123237Y-1394011D03*
D15*
X123005Y-1372021D02*
X153666Y-1372021D01*
X158828Y-1377182D02*
X158828Y-1383792D01*
X158828Y-1377182D02*
X153666Y-1372021D01*
D16*
X57118Y-1385116D02*
X57118Y-1398838D01*
X48204Y-1407752D01*
D14*
X117397Y-207076D03*
X119192Y-1223393D03*
X117233Y-376349D03*
X117211Y-545661D03*
X117315Y-715098D03*
X117217Y-884333D03*
X117246Y-1053695D03*
D15*
X158828Y-1358792D02*
X149490Y-1368131D01*
X133123Y-1368131D01*
X131378Y-1366386D01*
X131378Y-1351922D02*
X122243Y-1342787D01*
X122243Y-1226444D01*
X122243Y-1058693D01*
X122243Y-889359D01*
X122243Y-720026D01*
X122243Y-550693D01*
X122243Y-378852D01*
X122243Y-210024D01*
X119296Y-207076D02*
X117397Y-207076D01*
X131378Y-1351922D02*
X131378Y-1366386D01*
X122243Y-210024D02*
X119296Y-207076D01*
X119740Y-376349D02*
X117233Y-376349D01*
X119740Y-376349D02*
X122243Y-378852D01*
X117211Y-545661D02*
X122243Y-550693D01*
X117315Y-715098D02*
X122243Y-720026D01*
X117217Y-884333D02*
X122243Y-889359D01*
X117246Y-1053695D02*
X122243Y-1058693D01*
X119192Y-1223393D02*
X122243Y-1226444D01*
X122243Y-1342787D02*
X111011Y-1342787D01*
X106611Y-1347187D01*
D14*
X106611Y-1347187D03*
X42025Y-376784D03*
D15*
X38490Y-380320D02*
X38490Y-1324832D01*
X38490Y-380320D02*
X42025Y-376784D01*
X38490Y-1324832D02*
X33358Y-1329964D01*
X33358Y-1330372D01*
D14*
X33358Y-1330372D03*
X46608Y-718803D03*
D15*
X40897Y-724514D01*
X40897Y-1332131D02*
X36844Y-1336183D01*
X27278Y-1336183D01*
X25322Y-1334227D01*
D14*
X25322Y-1334227D03*
D15*
X40897Y-1332131D02*
X40897Y-724514D01*
D14*
X47931Y-1054075D03*
D15*
X43398Y-1058608D01*
X43398Y-1335826D02*
X37463Y-1341761D01*
D14*
X33974Y-1341761D03*
D15*
X37463Y-1341761D01*
X43398Y-1335826D02*
X43398Y-1058608D01*
X112357Y-1421105D02*
X124404Y-1433152D01*
X112357Y-1421105D02*
X112357Y-1402079D01*
X103948Y-1393669D01*
X101514Y-1393669D01*
D14*
X101514Y-1393669D03*
D15*
X29167Y-103570D02*
X29167Y-95667D01*
X29167Y-103570D02*
X29193Y-103596D01*
D14*
X29193Y-103596D03*
D15*
X13167Y-86667D02*
X13167Y-79462D01*
X13151Y-79447D01*
D14*
X13151Y-79447D03*
D15*
X29167Y-73281D02*
X29167Y-86667D01*
X29167Y-73281D02*
X29213Y-73236D01*
D14*
X29213Y-73236D03*
D15*
X74864Y-95667D02*
X79580Y-90951D01*
X74864Y-95667D02*
X71500Y-95667D01*
D14*
X79580Y-90951D03*
D15*
X55500Y-86667D02*
X55500Y-82803D01*
X62560Y-75743D01*
D14*
X62560Y-75743D03*
D15*
X71500Y-82686D02*
X71500Y-86667D01*
X71500Y-82686D02*
X76506Y-77680D01*
D14*
X76506Y-77680D03*
D15*
X106506Y-95667D02*
X113833Y-95667D01*
X106506Y-95667D02*
X105867Y-95028D01*
D14*
X105867Y-95028D03*
D15*
X97833Y-86667D02*
X97833Y-85580D01*
X104113Y-79301D01*
D14*
X104113Y-79301D03*
D15*
X113833Y-76986D02*
X113833Y-86667D01*
X113833Y-76986D02*
X108520Y-71673D01*
D14*
X108520Y-71673D03*
D15*
X156167Y-95667D02*
X156180Y-95680D01*
X156180Y-101825D01*
D14*
X156180Y-101825D03*
D15*
X140167Y-86667D02*
X140167Y-80399D01*
X140128Y-80360D01*
D14*
X140128Y-80360D03*
D15*
X156092Y-86592D02*
X156167Y-86667D01*
X156092Y-86592D02*
X156092Y-80183D01*
D14*
X156092Y-80183D03*
D15*
X35976Y-125000D02*
X32080Y-121105D01*
X35976Y-133808D02*
X31784Y-138000D01*
X29167Y-138000D01*
X35976Y-133808D02*
X35976Y-125000D01*
D14*
X32080Y-121105D03*
D15*
X13167Y-121522D02*
X13167Y-129000D01*
X13167Y-121522D02*
X13155Y-121511D01*
D14*
X13155Y-121511D03*
D15*
X26535Y-126368D02*
X29167Y-129000D01*
X26535Y-111019D02*
X26737Y-110817D01*
X26535Y-111019D02*
X26535Y-126368D01*
D14*
X26737Y-110817D03*
D15*
X77389Y-106123D02*
X78224Y-106958D01*
X78224Y-133688D01*
X73912Y-138000D01*
X71500Y-138000D01*
D14*
X77389Y-106123D03*
D15*
X55500Y-124198D02*
X55500Y-129000D01*
X55500Y-124198D02*
X57914Y-121784D01*
D14*
X57914Y-121784D03*
D15*
X68183Y-125683D02*
X71500Y-129000D01*
X68183Y-102887D02*
X69118Y-101952D01*
X68183Y-102887D02*
X68183Y-125683D01*
D14*
X69118Y-101952D03*
D15*
X112352Y-138000D02*
X113833Y-138000D01*
X112352Y-138000D02*
X106323Y-131971D01*
X106323Y-126464D01*
X110911Y-121876D01*
D14*
X110911Y-121876D03*
D15*
X104918Y-117380D02*
X106859Y-115440D01*
X104918Y-117380D02*
X104918Y-123698D01*
X99616Y-129000D01*
X97833Y-129000D01*
D14*
X106859Y-115440D03*
D15*
X117399Y-111675D02*
X117399Y-125434D01*
X113833Y-129000D01*
X117399Y-111675D02*
X109518Y-103794D01*
X109518Y-103042D01*
D14*
X109518Y-103042D03*
D15*
X156167Y-138000D02*
X156167Y-143986D01*
X156134Y-144018D01*
D14*
X156134Y-144018D03*
D15*
X140167Y-129000D02*
X140063Y-128896D01*
X140063Y-122836D01*
D14*
X140063Y-122836D03*
D15*
X156134Y-128967D02*
X156167Y-129000D01*
X156134Y-128967D02*
X156134Y-122357D01*
D14*
X156134Y-122357D03*
D15*
X36188Y-166033D02*
X32597Y-162442D01*
X36188Y-166033D02*
X36188Y-177747D01*
X33601Y-180333D01*
X29167Y-180333D01*
D14*
X32597Y-162442D03*
D15*
X13167Y-165219D02*
X13167Y-171333D01*
X13167Y-165219D02*
X13197Y-165188D01*
D14*
X13197Y-165188D03*
D15*
X26474Y-145916D02*
X27260Y-145129D01*
X26474Y-145916D02*
X26474Y-168640D01*
X29167Y-171333D01*
D14*
X27260Y-145129D03*
D15*
X74147Y-164599D02*
X76281Y-164599D01*
X78004Y-166321D01*
X78004Y-176860D02*
X74530Y-180333D01*
X71500Y-180333D01*
X78004Y-176860D02*
X78004Y-166321D01*
D14*
X74147Y-164599D03*
D15*
X55500Y-171333D02*
X55500Y-154090D01*
X57751Y-151839D01*
D14*
X57751Y-151839D03*
D15*
X68396Y-168229D02*
X71500Y-171333D01*
X68396Y-162536D02*
X67170Y-161311D01*
X68396Y-162536D02*
X68396Y-168229D01*
D14*
X67170Y-161311D03*
X102229Y-187547D03*
D15*
X109881Y-180333D02*
X113833Y-180333D01*
X109881Y-180333D02*
X102668Y-187547D01*
X102229Y-187547D01*
X97833Y-171333D02*
X97833Y-167350D01*
X99984Y-165199D01*
D14*
X99984Y-165199D03*
X93624Y-161159D03*
D15*
X107516Y-159901D02*
X111180Y-163566D01*
X107516Y-159901D02*
X94882Y-159901D01*
X93624Y-161159D01*
X111180Y-168680D02*
X113833Y-171333D01*
X111180Y-168680D02*
X111180Y-163566D01*
X154281Y-180333D02*
X156167Y-180333D01*
X154281Y-180333D02*
X148668Y-174721D01*
X148668Y-162254D01*
D14*
X148668Y-162254D03*
D15*
X142384Y-169116D02*
X140167Y-171333D01*
X142384Y-169116D02*
X142384Y-157914D01*
X144516Y-155782D01*
D14*
X144516Y-155782D03*
D15*
X156167Y-164731D02*
X156167Y-171333D01*
X156167Y-164731D02*
X156199Y-164699D01*
D14*
X156199Y-164699D03*
D15*
X31930Y-198590D02*
X31130Y-198590D01*
X31930Y-198590D02*
X35730Y-202390D01*
X35730Y-219740D02*
X32803Y-222667D01*
X29167Y-222667D01*
X35730Y-219740D02*
X35730Y-202390D01*
D14*
X31130Y-198590D03*
D15*
X13167Y-195713D02*
X13167Y-213667D01*
X13167Y-195713D02*
X13244Y-195635D01*
D14*
X13244Y-195635D03*
D15*
X29167Y-213667D02*
X31938Y-210895D01*
X31938Y-207015D01*
X25683Y-200760D01*
X25683Y-189182D02*
X27572Y-187293D01*
X25683Y-189182D02*
X25683Y-200760D01*
D14*
X27572Y-187293D03*
D15*
X70748Y-194971D02*
X70748Y-197354D01*
X78772Y-205379D01*
X78772Y-218587D01*
X74693Y-222667D01*
X71500Y-222667D01*
D14*
X70748Y-194971D03*
D15*
X55500Y-207299D02*
X55500Y-213667D01*
X55500Y-207299D02*
X55557Y-207242D01*
D14*
X55557Y-207242D03*
D15*
X71500Y-208660D02*
X71500Y-213667D01*
X71500Y-208660D02*
X72956Y-207204D01*
D14*
X72956Y-207204D03*
D15*
X113833Y-222667D02*
X113833Y-229124D01*
X113947Y-229238D01*
D14*
X113947Y-229238D03*
D15*
X105923Y-213667D02*
X97833Y-213667D01*
X105923Y-213667D02*
X105933Y-213676D01*
D14*
X105933Y-213676D03*
D15*
X113833Y-213667D02*
X113833Y-212319D01*
X107791Y-206277D01*
X99645Y-206277D01*
D14*
X99645Y-206277D03*
D15*
X156515Y-223015D02*
X156515Y-229353D01*
X156515Y-223015D02*
X156167Y-222667D01*
D14*
X156515Y-229353D03*
D15*
X148320Y-218003D02*
X147970Y-218003D01*
X143634Y-213667D01*
X140167Y-213667D01*
D14*
X148320Y-218003D03*
D15*
X164282Y-176730D02*
X163589Y-176037D01*
X164282Y-176730D02*
X164282Y-211379D01*
X161994Y-213667D01*
X156167Y-213667D01*
D14*
X163589Y-176037D03*
D15*
X29167Y-265000D02*
X29167Y-272904D01*
X29193Y-272930D01*
D14*
X29193Y-272930D03*
D15*
X13167Y-256000D02*
X13167Y-248796D01*
X13151Y-248781D01*
D14*
X13151Y-248781D03*
D15*
X29167Y-242615D02*
X29167Y-256000D01*
X29167Y-242615D02*
X29213Y-242569D01*
D14*
X29213Y-242569D03*
D15*
X74864Y-265000D02*
X79580Y-260285D01*
X74864Y-265000D02*
X71500Y-265000D01*
D14*
X79580Y-260285D03*
D15*
X55500Y-256000D02*
X55500Y-252136D01*
X62560Y-245076D01*
D14*
X62560Y-245076D03*
D15*
X71500Y-252019D02*
X71500Y-256000D01*
X71500Y-252019D02*
X76506Y-247013D01*
D14*
X76506Y-247013D03*
D15*
X106506Y-265000D02*
X113833Y-265000D01*
X106506Y-265000D02*
X105867Y-264361D01*
D14*
X105867Y-264361D03*
D15*
X97833Y-256000D02*
X97833Y-254913D01*
X104113Y-248634D01*
D14*
X104113Y-248634D03*
D15*
X113833Y-246320D02*
X113833Y-256000D01*
X113833Y-246320D02*
X108520Y-241006D01*
D14*
X108520Y-241006D03*
D15*
X156167Y-265000D02*
X156180Y-265014D01*
X156180Y-271158D01*
D14*
X156180Y-271158D03*
D15*
X140167Y-256000D02*
X140167Y-249732D01*
X140128Y-249693D01*
D14*
X140128Y-249693D03*
D15*
X156092Y-255925D02*
X156167Y-256000D01*
X156092Y-255925D02*
X156092Y-249516D01*
D14*
X156092Y-249516D03*
D15*
X35976Y-294334D02*
X32080Y-290438D01*
X35976Y-303142D02*
X31784Y-307333D01*
X29167Y-307333D01*
X35976Y-303142D02*
X35976Y-294334D01*
D14*
X32080Y-290438D03*
D15*
X13167Y-290856D02*
X13167Y-298333D01*
X13167Y-290856D02*
X13155Y-290844D01*
D14*
X13155Y-290844D03*
D15*
X26535Y-295701D02*
X29167Y-298333D01*
X26535Y-280352D02*
X26737Y-280150D01*
X26535Y-280352D02*
X26535Y-295701D01*
D14*
X26737Y-280150D03*
D15*
X77389Y-275456D02*
X78224Y-276291D01*
X78224Y-303022D01*
X73912Y-307333D01*
X71500Y-307333D01*
D14*
X77389Y-275456D03*
D15*
X55500Y-293531D02*
X55500Y-298333D01*
X55500Y-293531D02*
X57914Y-291117D01*
D14*
X57914Y-291117D03*
D15*
X68183Y-295016D02*
X71500Y-298333D01*
X68183Y-272220D02*
X69118Y-271285D01*
X68183Y-272220D02*
X68183Y-295016D01*
D14*
X69118Y-271285D03*
D15*
X112352Y-307333D02*
X113833Y-307333D01*
X112352Y-307333D02*
X106323Y-301304D01*
X106323Y-295798D01*
X110911Y-291209D01*
D14*
X110911Y-291209D03*
D15*
X104918Y-286714D02*
X106859Y-284773D01*
X104918Y-286714D02*
X104918Y-293031D01*
X99616Y-298333D01*
X97833Y-298333D01*
D14*
X106859Y-284773D03*
D15*
X117399Y-281008D02*
X117399Y-294768D01*
X113833Y-298333D01*
X117399Y-281008D02*
X109518Y-273127D01*
X109518Y-272375D01*
D14*
X109518Y-272375D03*
D15*
X156167Y-307333D02*
X156167Y-313319D01*
X156134Y-313352D01*
D14*
X156134Y-313352D03*
D15*
X140167Y-298333D02*
X140063Y-298230D01*
X140063Y-292169D01*
D14*
X140063Y-292169D03*
D15*
X156134Y-298301D02*
X156167Y-298333D01*
X156134Y-298301D02*
X156134Y-291690D01*
D14*
X156134Y-291690D03*
D15*
X36188Y-335366D02*
X32597Y-331775D01*
X36188Y-335366D02*
X36188Y-347080D01*
X33601Y-349667D01*
X29167Y-349667D01*
D14*
X32597Y-331775D03*
D15*
X13167Y-334553D02*
X13167Y-340667D01*
X13167Y-334553D02*
X13197Y-334522D01*
D14*
X13197Y-334522D03*
D15*
X26474Y-315249D02*
X27260Y-314463D01*
X26474Y-315249D02*
X26474Y-337974D01*
X29167Y-340667D01*
D14*
X27260Y-314463D03*
D15*
X74147Y-333932D02*
X76281Y-333932D01*
X78004Y-335655D01*
X78004Y-346193D02*
X74530Y-349667D01*
X71500Y-349667D01*
X78004Y-346193D02*
X78004Y-335655D01*
D14*
X74147Y-333932D03*
D15*
X55500Y-340667D02*
X55500Y-323423D01*
X57751Y-321172D01*
D14*
X57751Y-321172D03*
D15*
X68396Y-337563D02*
X71500Y-340667D01*
X68396Y-331869D02*
X67170Y-330644D01*
X68396Y-331869D02*
X68396Y-337563D01*
D14*
X67170Y-330644D03*
X102229Y-356880D03*
D15*
X109881Y-349667D02*
X113833Y-349667D01*
X109881Y-349667D02*
X102668Y-356880D01*
X102229Y-356880D01*
X97833Y-340667D02*
X97833Y-336683D01*
X99984Y-334533D01*
D14*
X99984Y-334533D03*
X93624Y-330492D03*
D15*
X107516Y-329235D02*
X111180Y-332899D01*
X107516Y-329235D02*
X94882Y-329235D01*
X93624Y-330492D01*
X111180Y-338014D02*
X113833Y-340667D01*
X111180Y-338014D02*
X111180Y-332899D01*
X154281Y-349667D02*
X156167Y-349667D01*
X154281Y-349667D02*
X148668Y-344054D01*
X148668Y-331588D01*
D14*
X148668Y-331588D03*
D15*
X142384Y-338450D02*
X140167Y-340667D01*
X142384Y-338450D02*
X142384Y-327247D01*
X144516Y-325115D01*
D14*
X144516Y-325115D03*
D15*
X156167Y-334064D02*
X156167Y-340667D01*
X156167Y-334064D02*
X156199Y-334032D01*
D14*
X156199Y-334032D03*
D15*
X31930Y-367924D02*
X31130Y-367924D01*
X31930Y-367924D02*
X35730Y-371724D01*
X35730Y-389074D02*
X32803Y-392000D01*
X29167Y-392000D01*
X35730Y-389074D02*
X35730Y-371724D01*
D14*
X31130Y-367924D03*
D15*
X13167Y-365046D02*
X13167Y-383000D01*
X13167Y-365046D02*
X13244Y-364969D01*
D14*
X13244Y-364969D03*
D15*
X29167Y-383000D02*
X31938Y-380229D01*
X31938Y-376348D01*
X25683Y-370093D01*
X25683Y-358516D02*
X27572Y-356626D01*
X25683Y-358516D02*
X25683Y-370093D01*
D14*
X27572Y-356626D03*
D15*
X70748Y-364304D02*
X70748Y-366688D01*
X78772Y-374712D01*
X78772Y-387921D01*
X74693Y-392000D01*
X71500Y-392000D01*
D14*
X70748Y-364304D03*
D15*
X55500Y-376632D02*
X55500Y-383000D01*
X55500Y-376632D02*
X55557Y-376575D01*
D14*
X55557Y-376575D03*
D15*
X71500Y-377994D02*
X71500Y-383000D01*
X71500Y-377994D02*
X72956Y-376538D01*
D14*
X72956Y-376538D03*
D15*
X113833Y-392000D02*
X113833Y-398457D01*
X113947Y-398571D01*
D14*
X113947Y-398571D03*
D15*
X105923Y-383000D02*
X97833Y-383000D01*
X105923Y-383000D02*
X105933Y-383010D01*
D14*
X105933Y-383010D03*
D15*
X113833Y-383000D02*
X113833Y-381652D01*
X107791Y-375610D01*
X99645Y-375610D01*
D14*
X99645Y-375610D03*
D15*
X156515Y-392348D02*
X156515Y-398687D01*
X156515Y-392348D02*
X156167Y-392000D01*
D14*
X156515Y-398687D03*
D15*
X148320Y-387336D02*
X147970Y-387336D01*
X143634Y-383000D01*
X140167Y-383000D01*
D14*
X148320Y-387336D03*
D15*
X164282Y-346064D02*
X163589Y-345371D01*
X164282Y-346064D02*
X164282Y-380712D01*
X161994Y-383000D01*
X156167Y-383000D01*
D14*
X163589Y-345371D03*
D15*
X29167Y-434333D02*
X29167Y-442237D01*
X29193Y-442263D01*
D14*
X29193Y-442263D03*
D15*
X13167Y-425333D02*
X13167Y-418129D01*
X13151Y-418114D01*
D14*
X13151Y-418114D03*
D15*
X29167Y-411948D02*
X29167Y-425333D01*
X29167Y-411948D02*
X29213Y-411902D01*
D14*
X29213Y-411902D03*
D15*
X74864Y-434333D02*
X79580Y-429618D01*
X74864Y-434333D02*
X71500Y-434333D01*
D14*
X79580Y-429618D03*
D15*
X55500Y-425333D02*
X55500Y-421470D01*
X62560Y-414410D01*
D14*
X62560Y-414410D03*
D15*
X71500Y-421352D02*
X71500Y-425333D01*
X71500Y-421352D02*
X76506Y-416346D01*
D14*
X76506Y-416346D03*
D15*
X106506Y-434333D02*
X113833Y-434333D01*
X106506Y-434333D02*
X105867Y-433695D01*
D14*
X105867Y-433695D03*
D15*
X97833Y-425333D02*
X97833Y-424247D01*
X104113Y-417967D01*
D14*
X104113Y-417967D03*
D15*
X113833Y-415653D02*
X113833Y-425333D01*
X113833Y-415653D02*
X108520Y-410339D01*
D14*
X108520Y-410339D03*
D15*
X156167Y-434333D02*
X156180Y-434347D01*
X156180Y-440491D01*
D14*
X156180Y-440491D03*
D15*
X140167Y-425333D02*
X140167Y-419066D01*
X140128Y-419027D01*
D14*
X140128Y-419027D03*
D15*
X156092Y-425258D02*
X156167Y-425333D01*
X156092Y-425258D02*
X156092Y-418849D01*
D14*
X156092Y-418849D03*
D15*
X35976Y-463667D02*
X32080Y-459771D01*
X35976Y-472475D02*
X31784Y-476667D01*
X29167Y-476667D01*
X35976Y-472475D02*
X35976Y-463667D01*
D14*
X32080Y-459771D03*
D15*
X13167Y-460189D02*
X13167Y-467667D01*
X13167Y-460189D02*
X13155Y-460178D01*
D14*
X13155Y-460178D03*
D15*
X26535Y-465035D02*
X29167Y-467667D01*
X26535Y-449686D02*
X26737Y-449484D01*
X26535Y-449686D02*
X26535Y-465035D01*
D14*
X26737Y-449484D03*
D15*
X77389Y-444789D02*
X78224Y-445624D01*
X78224Y-472355D01*
X73912Y-476667D01*
X71500Y-476667D01*
D14*
X77389Y-444789D03*
D15*
X55500Y-462864D02*
X55500Y-467667D01*
X55500Y-462864D02*
X57914Y-460451D01*
D14*
X57914Y-460451D03*
D15*
X68183Y-464349D02*
X71500Y-467667D01*
X68183Y-441554D02*
X69118Y-440619D01*
X68183Y-441554D02*
X68183Y-464349D01*
D14*
X69118Y-440619D03*
D15*
X112352Y-476667D02*
X113833Y-476667D01*
X112352Y-476667D02*
X106323Y-470638D01*
X106323Y-465131D01*
X110911Y-460542D01*
D14*
X110911Y-460542D03*
D15*
X104918Y-456047D02*
X106859Y-454107D01*
X104918Y-456047D02*
X104918Y-462364D01*
X99616Y-467667D01*
X97833Y-467667D01*
D14*
X106859Y-454107D03*
D15*
X117399Y-450341D02*
X117399Y-464101D01*
X113833Y-467667D01*
X117399Y-450341D02*
X109518Y-442461D01*
X109518Y-441708D01*
D14*
X109518Y-441708D03*
D15*
X156167Y-476667D02*
X156167Y-482652D01*
X156134Y-482685D01*
D14*
X156134Y-482685D03*
D15*
X140167Y-467667D02*
X140063Y-467563D01*
X140063Y-461503D01*
D14*
X140063Y-461503D03*
D15*
X156134Y-467634D02*
X156167Y-467667D01*
X156134Y-467634D02*
X156134Y-461024D01*
D14*
X156134Y-461024D03*
D15*
X36188Y-504699D02*
X32597Y-501108D01*
X36188Y-504699D02*
X36188Y-516413D01*
X33601Y-519000D01*
X29167Y-519000D01*
D14*
X32597Y-501108D03*
D15*
X13167Y-503886D02*
X13167Y-510000D01*
X13167Y-503886D02*
X13197Y-503855D01*
D14*
X13197Y-503855D03*
D15*
X26474Y-484583D02*
X27260Y-483796D01*
X26474Y-484583D02*
X26474Y-507307D01*
X29167Y-510000D01*
D14*
X27260Y-483796D03*
D15*
X74147Y-503265D02*
X76281Y-503265D01*
X78004Y-504988D01*
X78004Y-515527D02*
X74530Y-519000D01*
X71500Y-519000D01*
X78004Y-515527D02*
X78004Y-504988D01*
D14*
X74147Y-503265D03*
D15*
X55500Y-510000D02*
X55500Y-492757D01*
X57751Y-490506D01*
D14*
X57751Y-490506D03*
D15*
X68396Y-506896D02*
X71500Y-510000D01*
X68396Y-501203D02*
X67170Y-499977D01*
X68396Y-501203D02*
X68396Y-506896D01*
D14*
X67170Y-499977D03*
X102229Y-526213D03*
D15*
X109881Y-519000D02*
X113833Y-519000D01*
X109881Y-519000D02*
X102668Y-526213D01*
X102229Y-526213D01*
X97833Y-510000D02*
X97833Y-506016D01*
X99984Y-503866D01*
D14*
X99984Y-503866D03*
X93624Y-499826D03*
D15*
X107516Y-498568D02*
X111180Y-502233D01*
X107516Y-498568D02*
X94882Y-498568D01*
X93624Y-499826D01*
X111180Y-507347D02*
X113833Y-510000D01*
X111180Y-507347D02*
X111180Y-502233D01*
X154281Y-519000D02*
X156167Y-519000D01*
X154281Y-519000D02*
X148668Y-513387D01*
X148668Y-500921D01*
D14*
X148668Y-500921D03*
D15*
X142384Y-507783D02*
X140167Y-510000D01*
X142384Y-507783D02*
X142384Y-496581D01*
X144516Y-494448D01*
D14*
X144516Y-494448D03*
D15*
X156167Y-503398D02*
X156167Y-510000D01*
X156167Y-503398D02*
X156199Y-503366D01*
D14*
X156199Y-503366D03*
D15*
X31930Y-537257D02*
X31130Y-537257D01*
X31930Y-537257D02*
X35730Y-541057D01*
X35730Y-558407D02*
X32803Y-561333D01*
X29167Y-561333D01*
X35730Y-558407D02*
X35730Y-541057D01*
D14*
X31130Y-537257D03*
D15*
X13167Y-534379D02*
X13167Y-552333D01*
X13167Y-534379D02*
X13244Y-534302D01*
D14*
X13244Y-534302D03*
D15*
X29167Y-552333D02*
X31938Y-549562D01*
X31938Y-545682D01*
X25683Y-539426D01*
X25683Y-527849D02*
X27572Y-525960D01*
X25683Y-527849D02*
X25683Y-539426D01*
D14*
X27572Y-525960D03*
D15*
X70748Y-533637D02*
X70748Y-536021D01*
X78772Y-544045D01*
X78772Y-557254D01*
X74693Y-561333D01*
X71500Y-561333D01*
D14*
X70748Y-533637D03*
D15*
X55500Y-545965D02*
X55500Y-552333D01*
X55500Y-545965D02*
X55557Y-545909D01*
D14*
X55557Y-545909D03*
D15*
X71500Y-547327D02*
X71500Y-552333D01*
X71500Y-547327D02*
X72956Y-545871D01*
D14*
X72956Y-545871D03*
D15*
X113833Y-561333D02*
X113833Y-567791D01*
X113947Y-567905D01*
D14*
X113947Y-567905D03*
D15*
X105923Y-552333D02*
X97833Y-552333D01*
X105923Y-552333D02*
X105933Y-552343D01*
D14*
X105933Y-552343D03*
D15*
X113833Y-552333D02*
X113833Y-550986D01*
X107791Y-544944D01*
X99645Y-544944D01*
D14*
X99645Y-544944D03*
D15*
X156515Y-561682D02*
X156515Y-568020D01*
X156515Y-561682D02*
X156167Y-561333D01*
D14*
X156515Y-568020D03*
D15*
X148320Y-556670D02*
X147970Y-556670D01*
X143634Y-552333D01*
X140167Y-552333D01*
D14*
X148320Y-556670D03*
D15*
X164282Y-515397D02*
X163589Y-514704D01*
X164282Y-515397D02*
X164282Y-550045D01*
X161994Y-552333D01*
X156167Y-552333D01*
D14*
X163589Y-514704D03*
D15*
X29167Y-603667D02*
X29167Y-611570D01*
X29193Y-611596D01*
D14*
X29193Y-611596D03*
D15*
X13167Y-594667D02*
X13167Y-587462D01*
X13151Y-587447D01*
D14*
X13151Y-587447D03*
D15*
X29167Y-581281D02*
X29167Y-594667D01*
X29167Y-581281D02*
X29213Y-581236D01*
D14*
X29213Y-581236D03*
D15*
X74864Y-603667D02*
X79580Y-598951D01*
X74864Y-603667D02*
X71500Y-603667D01*
D14*
X79580Y-598951D03*
D15*
X55500Y-594667D02*
X55500Y-590803D01*
X62560Y-583743D01*
D14*
X62560Y-583743D03*
D15*
X71500Y-590686D02*
X71500Y-594667D01*
X71500Y-590686D02*
X76506Y-585680D01*
D14*
X76506Y-585680D03*
D15*
X106506Y-603667D02*
X113833Y-603667D01*
X106506Y-603667D02*
X105867Y-603028D01*
D14*
X105867Y-603028D03*
D15*
X97833Y-594667D02*
X97833Y-593580D01*
X104113Y-587301D01*
D14*
X104113Y-587301D03*
D15*
X113833Y-584986D02*
X113833Y-594667D01*
X113833Y-584986D02*
X108520Y-579673D01*
D14*
X108520Y-579673D03*
D15*
X156167Y-603667D02*
X156180Y-603680D01*
X156180Y-609825D01*
D14*
X156180Y-609825D03*
D15*
X140167Y-594667D02*
X140167Y-588399D01*
X140128Y-588360D01*
D14*
X140128Y-588360D03*
D15*
X156092Y-594592D02*
X156167Y-594667D01*
X156092Y-594592D02*
X156092Y-588183D01*
D14*
X156092Y-588183D03*
D15*
X35976Y-633000D02*
X32080Y-629105D01*
X35976Y-641808D02*
X31784Y-646000D01*
X29167Y-646000D01*
X35976Y-641808D02*
X35976Y-633000D01*
D14*
X32080Y-629105D03*
D15*
X13167Y-629522D02*
X13167Y-637000D01*
X13167Y-629522D02*
X13155Y-629511D01*
D14*
X13155Y-629511D03*
D15*
X26535Y-634368D02*
X29167Y-637000D01*
X26535Y-619019D02*
X26737Y-618817D01*
X26535Y-619019D02*
X26535Y-634368D01*
D14*
X26737Y-618817D03*
D15*
X77389Y-614123D02*
X78224Y-614958D01*
X78224Y-641688D01*
X73912Y-646000D01*
X71500Y-646000D01*
D14*
X77389Y-614123D03*
D15*
X55500Y-632198D02*
X55500Y-637000D01*
X55500Y-632198D02*
X57914Y-629784D01*
D14*
X57914Y-629784D03*
D15*
X68183Y-633683D02*
X71500Y-637000D01*
X68183Y-610887D02*
X69118Y-609952D01*
X68183Y-610887D02*
X68183Y-633683D01*
D14*
X69118Y-609952D03*
D15*
X112352Y-646000D02*
X113833Y-646000D01*
X112352Y-646000D02*
X106323Y-639971D01*
X106323Y-634464D01*
X110911Y-629876D01*
D14*
X110911Y-629876D03*
D15*
X104918Y-625380D02*
X106859Y-623440D01*
X104918Y-625380D02*
X104918Y-631698D01*
X99616Y-637000D01*
X97833Y-637000D01*
D14*
X106859Y-623440D03*
D15*
X117399Y-619675D02*
X117399Y-633434D01*
X113833Y-637000D01*
X117399Y-619675D02*
X109518Y-611794D01*
X109518Y-611042D01*
D14*
X109518Y-611042D03*
D15*
X156167Y-646000D02*
X156167Y-651986D01*
X156134Y-652018D01*
D14*
X156134Y-652018D03*
D15*
X140167Y-637000D02*
X140063Y-636896D01*
X140063Y-630836D01*
D14*
X140063Y-630836D03*
D15*
X156134Y-636967D02*
X156167Y-637000D01*
X156134Y-636967D02*
X156134Y-630357D01*
D14*
X156134Y-630357D03*
D15*
X36188Y-674033D02*
X32597Y-670442D01*
X36188Y-674033D02*
X36188Y-685747D01*
X33601Y-688333D01*
X29167Y-688333D01*
D14*
X32597Y-670442D03*
D15*
X13167Y-673219D02*
X13167Y-679333D01*
X13167Y-673219D02*
X13197Y-673188D01*
D14*
X13197Y-673188D03*
D15*
X26474Y-653916D02*
X27260Y-653129D01*
X26474Y-653916D02*
X26474Y-676640D01*
X29167Y-679333D01*
D14*
X27260Y-653129D03*
D15*
X74147Y-672599D02*
X76281Y-672599D01*
X78004Y-674321D01*
X78004Y-684860D02*
X74530Y-688333D01*
X71500Y-688333D01*
X78004Y-684860D02*
X78004Y-674321D01*
D14*
X74147Y-672599D03*
D15*
X55500Y-679333D02*
X55500Y-662090D01*
X57751Y-659839D01*
D14*
X57751Y-659839D03*
D15*
X68396Y-676229D02*
X71500Y-679333D01*
X68396Y-670536D02*
X67170Y-669311D01*
X68396Y-670536D02*
X68396Y-676229D01*
D14*
X67170Y-669311D03*
X102229Y-695547D03*
D15*
X109881Y-688333D02*
X113833Y-688333D01*
X109881Y-688333D02*
X102668Y-695547D01*
X102229Y-695547D01*
X97833Y-679333D02*
X97833Y-675350D01*
X99984Y-673199D01*
D14*
X99984Y-673199D03*
X93624Y-669159D03*
D15*
X107516Y-667901D02*
X111180Y-671566D01*
X107516Y-667901D02*
X94882Y-667901D01*
X93624Y-669159D01*
X111180Y-676680D02*
X113833Y-679333D01*
X111180Y-676680D02*
X111180Y-671566D01*
X154281Y-688333D02*
X156167Y-688333D01*
X154281Y-688333D02*
X148668Y-682721D01*
X148668Y-670254D01*
D14*
X148668Y-670254D03*
D15*
X142384Y-677116D02*
X140167Y-679333D01*
X142384Y-677116D02*
X142384Y-665914D01*
X144516Y-663782D01*
D14*
X144516Y-663782D03*
D15*
X156167Y-672731D02*
X156167Y-679333D01*
X156167Y-672731D02*
X156199Y-672699D01*
D14*
X156199Y-672699D03*
D15*
X31930Y-706590D02*
X31130Y-706590D01*
X31930Y-706590D02*
X35730Y-710390D01*
X35730Y-727740D02*
X32803Y-730667D01*
X29167Y-730667D01*
X35730Y-727740D02*
X35730Y-710390D01*
D14*
X31130Y-706590D03*
D15*
X13167Y-703713D02*
X13167Y-721667D01*
X13167Y-703713D02*
X13244Y-703635D01*
D14*
X13244Y-703635D03*
D15*
X29167Y-721667D02*
X31938Y-718895D01*
X31938Y-715015D01*
X25683Y-708760D01*
X25683Y-697182D02*
X27572Y-695293D01*
X25683Y-697182D02*
X25683Y-708760D01*
D14*
X27572Y-695293D03*
D15*
X70748Y-702971D02*
X70748Y-705354D01*
X78772Y-713379D01*
X78772Y-726587D01*
X74693Y-730667D01*
X71500Y-730667D01*
D14*
X70748Y-702971D03*
D15*
X55500Y-715299D02*
X55500Y-721667D01*
X55500Y-715299D02*
X55557Y-715242D01*
D14*
X55557Y-715242D03*
D15*
X71500Y-716660D02*
X71500Y-721667D01*
X71500Y-716660D02*
X72956Y-715204D01*
D14*
X72956Y-715204D03*
D15*
X113833Y-730667D02*
X113833Y-737124D01*
X113947Y-737238D01*
D14*
X113947Y-737238D03*
D15*
X105923Y-721667D02*
X97833Y-721667D01*
X105923Y-721667D02*
X105933Y-721676D01*
D14*
X105933Y-721676D03*
D15*
X113833Y-721667D02*
X113833Y-720319D01*
X107791Y-714277D01*
X99645Y-714277D01*
D14*
X99645Y-714277D03*
D15*
X156515Y-731015D02*
X156515Y-737353D01*
X156515Y-731015D02*
X156167Y-730667D01*
D14*
X156515Y-737353D03*
D15*
X148320Y-726003D02*
X147970Y-726003D01*
X143634Y-721667D01*
X140167Y-721667D01*
D14*
X148320Y-726003D03*
D15*
X164282Y-684730D02*
X163589Y-684037D01*
X164282Y-684730D02*
X164282Y-719379D01*
X161994Y-721667D01*
X156167Y-721667D01*
D14*
X163589Y-684037D03*
D15*
X29167Y-773000D02*
X29167Y-780904D01*
X29193Y-780930D01*
D14*
X29193Y-780930D03*
D15*
X13167Y-764000D02*
X13167Y-756796D01*
X13151Y-756781D01*
D14*
X13151Y-756781D03*
D15*
X29167Y-750615D02*
X29167Y-764000D01*
X29167Y-750615D02*
X29213Y-750569D01*
D14*
X29213Y-750569D03*
D15*
X74864Y-773000D02*
X79580Y-768285D01*
X74864Y-773000D02*
X71500Y-773000D01*
D14*
X79580Y-768285D03*
D15*
X55500Y-764000D02*
X55500Y-760136D01*
X62560Y-753076D01*
D14*
X62560Y-753076D03*
D15*
X71500Y-760019D02*
X71500Y-764000D01*
X71500Y-760019D02*
X76506Y-755013D01*
D14*
X76506Y-755013D03*
D15*
X106506Y-773000D02*
X113833Y-773000D01*
X106506Y-773000D02*
X105867Y-772361D01*
D14*
X105867Y-772361D03*
D15*
X97833Y-764000D02*
X97833Y-762913D01*
X104113Y-756634D01*
D14*
X104113Y-756634D03*
D15*
X113833Y-754320D02*
X113833Y-764000D01*
X113833Y-754320D02*
X108520Y-749006D01*
D14*
X108520Y-749006D03*
D15*
X156167Y-773000D02*
X156180Y-773014D01*
X156180Y-779158D01*
D14*
X156180Y-779158D03*
D15*
X140167Y-764000D02*
X140167Y-757732D01*
X140128Y-757693D01*
D14*
X140128Y-757693D03*
D15*
X156092Y-763925D02*
X156167Y-764000D01*
X156092Y-763925D02*
X156092Y-757516D01*
D14*
X156092Y-757516D03*
D15*
X35976Y-802334D02*
X32080Y-798438D01*
X35976Y-811142D02*
X31784Y-815333D01*
X29167Y-815333D01*
X35976Y-811142D02*
X35976Y-802334D01*
D14*
X32080Y-798438D03*
D15*
X13167Y-798856D02*
X13167Y-806333D01*
X13167Y-798856D02*
X13155Y-798844D01*
D14*
X13155Y-798844D03*
D15*
X26535Y-803701D02*
X29167Y-806333D01*
X26535Y-788352D02*
X26737Y-788150D01*
X26535Y-788352D02*
X26535Y-803701D01*
D14*
X26737Y-788150D03*
D15*
X77389Y-783456D02*
X78224Y-784291D01*
X78224Y-811022D01*
X73912Y-815333D01*
X71500Y-815333D01*
D14*
X77389Y-783456D03*
D15*
X55500Y-801531D02*
X55500Y-806333D01*
X55500Y-801531D02*
X57914Y-799117D01*
D14*
X57914Y-799117D03*
D15*
X68183Y-803016D02*
X71500Y-806333D01*
X68183Y-780220D02*
X69118Y-779285D01*
X68183Y-780220D02*
X68183Y-803016D01*
D14*
X69118Y-779285D03*
D15*
X112352Y-815333D02*
X113833Y-815333D01*
X112352Y-815333D02*
X106323Y-809304D01*
X106323Y-803798D01*
X110911Y-799209D01*
D14*
X110911Y-799209D03*
D15*
X104918Y-794714D02*
X106859Y-792773D01*
X104918Y-794714D02*
X104918Y-801031D01*
X99616Y-806333D01*
X97833Y-806333D01*
D14*
X106859Y-792773D03*
D15*
X117399Y-789008D02*
X117399Y-802768D01*
X113833Y-806333D01*
X117399Y-789008D02*
X109518Y-781127D01*
X109518Y-780375D01*
D14*
X109518Y-780375D03*
D15*
X156167Y-815333D02*
X156167Y-821319D01*
X156134Y-821352D01*
D14*
X156134Y-821352D03*
D15*
X140167Y-806333D02*
X140063Y-806230D01*
X140063Y-800169D01*
D14*
X140063Y-800169D03*
D15*
X156134Y-806301D02*
X156167Y-806333D01*
X156134Y-806301D02*
X156134Y-799690D01*
D14*
X156134Y-799690D03*
D15*
X36188Y-843366D02*
X32597Y-839775D01*
X36188Y-843366D02*
X36188Y-855080D01*
X33601Y-857667D01*
X29167Y-857667D01*
D14*
X32597Y-839775D03*
D15*
X13167Y-842553D02*
X13167Y-848667D01*
X13167Y-842553D02*
X13197Y-842522D01*
D14*
X13197Y-842522D03*
D15*
X26474Y-823249D02*
X27260Y-822463D01*
X26474Y-823249D02*
X26474Y-845974D01*
X29167Y-848667D01*
D14*
X27260Y-822463D03*
D15*
X74147Y-841932D02*
X76281Y-841932D01*
X78004Y-843655D01*
X78004Y-854193D02*
X74530Y-857667D01*
X71500Y-857667D01*
X78004Y-854193D02*
X78004Y-843655D01*
D14*
X74147Y-841932D03*
D15*
X55500Y-848667D02*
X55500Y-831423D01*
X57751Y-829172D01*
D14*
X57751Y-829172D03*
D15*
X68396Y-845563D02*
X71500Y-848667D01*
X68396Y-839869D02*
X67170Y-838644D01*
X68396Y-839869D02*
X68396Y-845563D01*
D14*
X67170Y-838644D03*
X102229Y-864880D03*
D15*
X109881Y-857667D02*
X113833Y-857667D01*
X109881Y-857667D02*
X102668Y-864880D01*
X102229Y-864880D01*
X97833Y-848667D02*
X97833Y-844683D01*
X99984Y-842533D01*
D14*
X99984Y-842533D03*
X93624Y-838492D03*
D15*
X107516Y-837235D02*
X111180Y-840899D01*
X107516Y-837235D02*
X94882Y-837235D01*
X93624Y-838492D01*
X111180Y-846014D02*
X113833Y-848667D01*
X111180Y-846014D02*
X111180Y-840899D01*
X154281Y-857667D02*
X156167Y-857667D01*
X154281Y-857667D02*
X148668Y-852054D01*
X148668Y-839588D01*
D14*
X148668Y-839588D03*
D15*
X142384Y-846450D02*
X140167Y-848667D01*
X142384Y-846450D02*
X142384Y-835247D01*
X144516Y-833115D01*
D14*
X144516Y-833115D03*
D15*
X156167Y-842064D02*
X156167Y-848667D01*
X156167Y-842064D02*
X156199Y-842032D01*
D14*
X156199Y-842032D03*
D15*
X31930Y-875924D02*
X31130Y-875924D01*
X31930Y-875924D02*
X35730Y-879724D01*
X35730Y-897074D02*
X32803Y-900000D01*
X29167Y-900000D01*
X35730Y-897074D02*
X35730Y-879724D01*
D14*
X31130Y-875924D03*
D15*
X13167Y-873046D02*
X13167Y-891000D01*
X13167Y-873046D02*
X13244Y-872969D01*
D14*
X13244Y-872969D03*
D15*
X29167Y-891000D02*
X31938Y-888229D01*
X31938Y-884348D01*
X25683Y-878093D01*
X25683Y-866516D02*
X27572Y-864626D01*
X25683Y-866516D02*
X25683Y-878093D01*
D14*
X27572Y-864626D03*
D15*
X70748Y-872304D02*
X70748Y-874688D01*
X78772Y-882712D01*
X78772Y-895921D01*
X74693Y-900000D01*
X71500Y-900000D01*
D14*
X70748Y-872304D03*
D15*
X55500Y-884632D02*
X55500Y-891000D01*
X55500Y-884632D02*
X55557Y-884575D01*
D14*
X55557Y-884575D03*
D15*
X71500Y-885994D02*
X71500Y-891000D01*
X71500Y-885994D02*
X72956Y-884538D01*
D14*
X72956Y-884538D03*
D15*
X113833Y-900000D02*
X113833Y-906457D01*
X113947Y-906571D01*
D14*
X113947Y-906571D03*
D15*
X105923Y-891000D02*
X97833Y-891000D01*
X105923Y-891000D02*
X105933Y-891010D01*
D14*
X105933Y-891010D03*
D15*
X113833Y-891000D02*
X113833Y-889652D01*
X107791Y-883610D01*
X99645Y-883610D01*
D14*
X99645Y-883610D03*
D15*
X156515Y-900348D02*
X156515Y-906687D01*
X156515Y-900348D02*
X156167Y-900000D01*
D14*
X156515Y-906687D03*
D15*
X148320Y-895336D02*
X147970Y-895336D01*
X143634Y-891000D01*
X140167Y-891000D01*
D14*
X148320Y-895336D03*
D15*
X164282Y-854064D02*
X163589Y-853371D01*
X164282Y-854064D02*
X164282Y-888712D01*
X161994Y-891000D01*
X156167Y-891000D01*
D14*
X163589Y-853371D03*
D15*
X29167Y-942333D02*
X29167Y-950237D01*
X29193Y-950263D01*
D14*
X29193Y-950263D03*
D15*
X13167Y-933333D02*
X13167Y-926129D01*
X13151Y-926114D01*
D14*
X13151Y-926114D03*
D15*
X29167Y-919948D02*
X29167Y-933333D01*
X29167Y-919948D02*
X29213Y-919902D01*
D14*
X29213Y-919902D03*
D15*
X74864Y-942333D02*
X79580Y-937618D01*
X74864Y-942333D02*
X71500Y-942333D01*
D14*
X79580Y-937618D03*
D15*
X55500Y-933333D02*
X55500Y-929470D01*
X62560Y-922410D01*
D14*
X62560Y-922410D03*
D15*
X71500Y-929352D02*
X71500Y-933333D01*
X71500Y-929352D02*
X76506Y-924346D01*
D14*
X76506Y-924346D03*
D15*
X106506Y-942333D02*
X113833Y-942333D01*
X106506Y-942333D02*
X105867Y-941695D01*
D14*
X105867Y-941695D03*
D15*
X97833Y-933333D02*
X97833Y-932247D01*
X104113Y-925967D01*
D14*
X104113Y-925967D03*
D15*
X113833Y-923653D02*
X113833Y-933333D01*
X113833Y-923653D02*
X108520Y-918339D01*
D14*
X108520Y-918339D03*
D15*
X156167Y-942333D02*
X156180Y-942347D01*
X156180Y-948491D01*
D14*
X156180Y-948491D03*
D15*
X140167Y-933333D02*
X140167Y-927066D01*
X140128Y-927027D01*
D14*
X140128Y-927027D03*
D15*
X156092Y-933258D02*
X156167Y-933333D01*
X156092Y-933258D02*
X156092Y-926849D01*
D14*
X156092Y-926849D03*
D15*
X35976Y-971667D02*
X32080Y-967771D01*
X35976Y-980475D02*
X31784Y-984667D01*
X29167Y-984667D01*
X35976Y-980475D02*
X35976Y-971667D01*
D14*
X32080Y-967771D03*
D15*
X13167Y-968189D02*
X13167Y-975667D01*
X13167Y-968189D02*
X13155Y-968178D01*
D14*
X13155Y-968178D03*
D15*
X26535Y-973035D02*
X29167Y-975667D01*
X26535Y-957686D02*
X26737Y-957484D01*
X26535Y-957686D02*
X26535Y-973035D01*
D14*
X26737Y-957484D03*
D15*
X77389Y-952789D02*
X78224Y-953624D01*
X78224Y-980355D01*
X73912Y-984667D01*
X71500Y-984667D01*
D14*
X77389Y-952789D03*
D15*
X55500Y-970864D02*
X55500Y-975667D01*
X55500Y-970864D02*
X57914Y-968451D01*
D14*
X57914Y-968451D03*
D15*
X68183Y-972349D02*
X71500Y-975667D01*
X68183Y-949554D02*
X69118Y-948619D01*
X68183Y-949554D02*
X68183Y-972349D01*
D14*
X69118Y-948619D03*
D15*
X112352Y-984667D02*
X113833Y-984667D01*
X112352Y-984667D02*
X106323Y-978638D01*
X106323Y-973131D01*
X110911Y-968542D01*
D14*
X110911Y-968542D03*
D15*
X104918Y-964047D02*
X106859Y-962107D01*
X104918Y-964047D02*
X104918Y-970364D01*
X99616Y-975667D01*
X97833Y-975667D01*
D14*
X106859Y-962107D03*
D15*
X117399Y-958341D02*
X117399Y-972101D01*
X113833Y-975667D01*
X117399Y-958341D02*
X109518Y-950461D01*
X109518Y-949708D01*
D14*
X109518Y-949708D03*
D15*
X156167Y-984667D02*
X156167Y-990652D01*
X156134Y-990685D01*
D14*
X156134Y-990685D03*
D15*
X140167Y-975667D02*
X140063Y-975563D01*
X140063Y-969503D01*
D14*
X140063Y-969503D03*
D15*
X156134Y-975634D02*
X156167Y-975667D01*
X156134Y-975634D02*
X156134Y-969024D01*
D14*
X156134Y-969024D03*
D15*
X36188Y-1012699D02*
X32597Y-1009108D01*
X36188Y-1012699D02*
X36188Y-1024413D01*
X33601Y-1027000D01*
X29167Y-1027000D01*
D14*
X32597Y-1009108D03*
D15*
X13167Y-1011886D02*
X13167Y-1018000D01*
X13167Y-1011886D02*
X13197Y-1011855D01*
D14*
X13197Y-1011855D03*
D15*
X26474Y-992583D02*
X27260Y-991796D01*
X26474Y-992583D02*
X26474Y-1015307D01*
X29167Y-1018000D01*
D14*
X27260Y-991796D03*
D15*
X74147Y-1011265D02*
X76281Y-1011265D01*
X78004Y-1012988D01*
X78004Y-1023527D02*
X74530Y-1027000D01*
X71500Y-1027000D01*
X78004Y-1023527D02*
X78004Y-1012988D01*
D14*
X74147Y-1011265D03*
D15*
X55500Y-1018000D02*
X55500Y-1000757D01*
X57751Y-998506D01*
D14*
X57751Y-998506D03*
D15*
X68396Y-1014896D02*
X71500Y-1018000D01*
X68396Y-1009203D02*
X67170Y-1007977D01*
X68396Y-1009203D02*
X68396Y-1014896D01*
D14*
X67170Y-1007977D03*
X102229Y-1034213D03*
D15*
X109881Y-1027000D02*
X113833Y-1027000D01*
X109881Y-1027000D02*
X102668Y-1034213D01*
X102229Y-1034213D01*
X97833Y-1018000D02*
X97833Y-1014016D01*
X99984Y-1011866D01*
D14*
X99984Y-1011866D03*
X93624Y-1007826D03*
D15*
X107516Y-1006568D02*
X111180Y-1010233D01*
X107516Y-1006568D02*
X94882Y-1006568D01*
X93624Y-1007826D01*
X111180Y-1015347D02*
X113833Y-1018000D01*
X111180Y-1015347D02*
X111180Y-1010233D01*
X154281Y-1027000D02*
X156167Y-1027000D01*
X154281Y-1027000D02*
X148668Y-1021387D01*
X148668Y-1008921D01*
D14*
X148668Y-1008921D03*
D15*
X142384Y-1015783D02*
X140167Y-1018000D01*
X142384Y-1015783D02*
X142384Y-1004581D01*
X144516Y-1002448D01*
D14*
X144516Y-1002448D03*
D15*
X156167Y-1011398D02*
X156167Y-1018000D01*
X156167Y-1011398D02*
X156199Y-1011366D01*
D14*
X156199Y-1011366D03*
D15*
X31930Y-1045257D02*
X31130Y-1045257D01*
X31930Y-1045257D02*
X35730Y-1049057D01*
X35730Y-1066407D02*
X32803Y-1069333D01*
X29167Y-1069333D01*
X35730Y-1066407D02*
X35730Y-1049057D01*
D14*
X31130Y-1045257D03*
D15*
X13167Y-1042379D02*
X13167Y-1060333D01*
X13167Y-1042379D02*
X13244Y-1042302D01*
D14*
X13244Y-1042302D03*
D15*
X29167Y-1060333D02*
X31938Y-1057562D01*
X31938Y-1053682D01*
X25683Y-1047426D01*
X25683Y-1035849D02*
X27572Y-1033960D01*
X25683Y-1035849D02*
X25683Y-1047426D01*
D14*
X27572Y-1033960D03*
D15*
X70748Y-1041637D02*
X70748Y-1044021D01*
X78772Y-1052045D01*
X78772Y-1065254D01*
X74693Y-1069333D01*
X71500Y-1069333D01*
D14*
X70748Y-1041637D03*
D15*
X55500Y-1053965D02*
X55500Y-1060333D01*
X55500Y-1053965D02*
X55557Y-1053909D01*
D14*
X55557Y-1053909D03*
D15*
X71500Y-1055327D02*
X71500Y-1060333D01*
X71500Y-1055327D02*
X72956Y-1053871D01*
D14*
X72956Y-1053871D03*
D15*
X113833Y-1069333D02*
X113833Y-1075791D01*
X113947Y-1075905D01*
D14*
X113947Y-1075905D03*
D15*
X105923Y-1060333D02*
X97833Y-1060333D01*
X105923Y-1060333D02*
X105933Y-1060343D01*
D14*
X105933Y-1060343D03*
D15*
X113833Y-1060333D02*
X113833Y-1058986D01*
X107791Y-1052944D01*
X99645Y-1052944D01*
D14*
X99645Y-1052944D03*
D15*
X156515Y-1069682D02*
X156515Y-1076020D01*
X156515Y-1069682D02*
X156167Y-1069333D01*
D14*
X156515Y-1076020D03*
D15*
X148320Y-1064670D02*
X147970Y-1064670D01*
X143634Y-1060333D01*
X140167Y-1060333D01*
D14*
X148320Y-1064670D03*
D15*
X164282Y-1023397D02*
X163589Y-1022704D01*
X164282Y-1023397D02*
X164282Y-1058045D01*
X161994Y-1060333D01*
X156167Y-1060333D01*
D14*
X163589Y-1022704D03*
D15*
X29167Y-1111667D02*
X29167Y-1119570D01*
X29193Y-1119596D01*
D14*
X29193Y-1119596D03*
D15*
X13167Y-1102667D02*
X13167Y-1095462D01*
X13151Y-1095447D01*
D14*
X13151Y-1095447D03*
D15*
X29167Y-1089281D02*
X29167Y-1102667D01*
X29167Y-1089281D02*
X29213Y-1089236D01*
D14*
X29213Y-1089236D03*
D15*
X74864Y-1111667D02*
X79580Y-1106951D01*
X74864Y-1111667D02*
X71500Y-1111667D01*
D14*
X79580Y-1106951D03*
D15*
X55500Y-1102667D02*
X55500Y-1098803D01*
X62560Y-1091743D01*
D14*
X62560Y-1091743D03*
D15*
X71500Y-1098686D02*
X71500Y-1102667D01*
X71500Y-1098686D02*
X76506Y-1093680D01*
D14*
X76506Y-1093680D03*
D15*
X106506Y-1111667D02*
X113833Y-1111667D01*
X106506Y-1111667D02*
X105867Y-1111028D01*
D14*
X105867Y-1111028D03*
D15*
X97833Y-1102667D02*
X97833Y-1101580D01*
X104113Y-1095301D01*
D14*
X104113Y-1095301D03*
D15*
X113833Y-1092986D02*
X113833Y-1102667D01*
X113833Y-1092986D02*
X108520Y-1087673D01*
D14*
X108520Y-1087673D03*
D15*
X156167Y-1111667D02*
X156180Y-1111680D01*
X156180Y-1117825D01*
D14*
X156180Y-1117825D03*
D15*
X140167Y-1102667D02*
X140167Y-1096399D01*
X140128Y-1096360D01*
D14*
X140128Y-1096360D03*
D15*
X156092Y-1102592D02*
X156167Y-1102667D01*
X156092Y-1102592D02*
X156092Y-1096183D01*
D14*
X156092Y-1096183D03*
D15*
X35976Y-1141000D02*
X32080Y-1137105D01*
X35976Y-1149808D02*
X31784Y-1154000D01*
X29167Y-1154000D01*
X35976Y-1149808D02*
X35976Y-1141000D01*
D14*
X32080Y-1137105D03*
D15*
X13167Y-1137522D02*
X13167Y-1145000D01*
X13167Y-1137522D02*
X13155Y-1137511D01*
D14*
X13155Y-1137511D03*
D15*
X26535Y-1142368D02*
X29167Y-1145000D01*
X26535Y-1127019D02*
X26737Y-1126817D01*
X26535Y-1127019D02*
X26535Y-1142368D01*
D14*
X26737Y-1126817D03*
D15*
X77389Y-1122123D02*
X78224Y-1122958D01*
X78224Y-1149688D01*
X73912Y-1154000D01*
X71500Y-1154000D01*
D14*
X77389Y-1122123D03*
D15*
X55500Y-1140198D02*
X55500Y-1145000D01*
X55500Y-1140198D02*
X57914Y-1137784D01*
D14*
X57914Y-1137784D03*
D15*
X68183Y-1141683D02*
X71500Y-1145000D01*
X68183Y-1118887D02*
X69118Y-1117952D01*
X68183Y-1118887D02*
X68183Y-1141683D01*
D14*
X69118Y-1117952D03*
D15*
X112352Y-1154000D02*
X113833Y-1154000D01*
X112352Y-1154000D02*
X106323Y-1147971D01*
X106323Y-1142464D01*
X110911Y-1137876D01*
D14*
X110911Y-1137876D03*
D15*
X104918Y-1133380D02*
X106859Y-1131440D01*
X104918Y-1133380D02*
X104918Y-1139698D01*
X99616Y-1145000D01*
X97833Y-1145000D01*
D14*
X106859Y-1131440D03*
D15*
X117399Y-1127675D02*
X117399Y-1141434D01*
X113833Y-1145000D01*
X117399Y-1127675D02*
X109518Y-1119794D01*
X109518Y-1119042D01*
D14*
X109518Y-1119042D03*
D15*
X156167Y-1154000D02*
X156167Y-1159986D01*
X156134Y-1160018D01*
D14*
X156134Y-1160018D03*
D15*
X140167Y-1145000D02*
X140063Y-1144896D01*
X140063Y-1138836D01*
D14*
X140063Y-1138836D03*
D15*
X156134Y-1144967D02*
X156167Y-1145000D01*
X156134Y-1144967D02*
X156134Y-1138357D01*
D14*
X156134Y-1138357D03*
D15*
X36188Y-1182033D02*
X32597Y-1178442D01*
X36188Y-1182033D02*
X36188Y-1193747D01*
X33601Y-1196333D01*
X29167Y-1196333D01*
D14*
X32597Y-1178442D03*
D15*
X13167Y-1181219D02*
X13167Y-1187333D01*
X13167Y-1181219D02*
X13197Y-1181188D01*
D14*
X13197Y-1181188D03*
D15*
X26474Y-1161916D02*
X27260Y-1161129D01*
X26474Y-1161916D02*
X26474Y-1184640D01*
X29167Y-1187333D01*
D14*
X27260Y-1161129D03*
D15*
X74147Y-1180599D02*
X76281Y-1180599D01*
X78004Y-1182321D01*
X78004Y-1192860D02*
X74530Y-1196333D01*
X71500Y-1196333D01*
X78004Y-1192860D02*
X78004Y-1182321D01*
D14*
X74147Y-1180599D03*
D15*
X55500Y-1187333D02*
X55500Y-1170090D01*
X57751Y-1167839D01*
D14*
X57751Y-1167839D03*
D15*
X68396Y-1184229D02*
X71500Y-1187333D01*
X68396Y-1178536D02*
X67170Y-1177311D01*
X68396Y-1178536D02*
X68396Y-1184229D01*
D14*
X67170Y-1177311D03*
X102229Y-1203547D03*
D15*
X109881Y-1196333D02*
X113833Y-1196333D01*
X109881Y-1196333D02*
X102668Y-1203547D01*
X102229Y-1203547D01*
X97833Y-1187333D02*
X97833Y-1183350D01*
X99984Y-1181199D01*
D14*
X99984Y-1181199D03*
X93624Y-1177159D03*
D15*
X107516Y-1175901D02*
X111180Y-1179566D01*
X107516Y-1175901D02*
X94882Y-1175901D01*
X93624Y-1177159D01*
X111180Y-1184680D02*
X113833Y-1187333D01*
X111180Y-1184680D02*
X111180Y-1179566D01*
X154281Y-1196333D02*
X156167Y-1196333D01*
X154281Y-1196333D02*
X148668Y-1190721D01*
X148668Y-1178254D01*
D14*
X148668Y-1178254D03*
D15*
X142384Y-1185116D02*
X140167Y-1187333D01*
X142384Y-1185116D02*
X142384Y-1173914D01*
X144516Y-1171782D01*
D14*
X144516Y-1171782D03*
D15*
X156167Y-1180731D02*
X156167Y-1187333D01*
X156167Y-1180731D02*
X156199Y-1180699D01*
D14*
X156199Y-1180699D03*
D15*
X31930Y-1214590D02*
X31130Y-1214590D01*
X31930Y-1214590D02*
X35730Y-1218390D01*
X35730Y-1235740D02*
X32803Y-1238667D01*
X29167Y-1238667D01*
X35730Y-1235740D02*
X35730Y-1218390D01*
D14*
X31130Y-1214590D03*
D15*
X13167Y-1211713D02*
X13167Y-1229667D01*
X13167Y-1211713D02*
X13244Y-1211635D01*
D14*
X13244Y-1211635D03*
D15*
X29167Y-1229667D02*
X31938Y-1226895D01*
X31938Y-1223015D01*
X25683Y-1216760D01*
X25683Y-1205182D02*
X27572Y-1203293D01*
X25683Y-1205182D02*
X25683Y-1216760D01*
D14*
X27572Y-1203293D03*
D15*
X70748Y-1210971D02*
X70748Y-1213354D01*
X78772Y-1221379D01*
X78772Y-1234587D01*
X74693Y-1238667D01*
X71500Y-1238667D01*
D14*
X70748Y-1210971D03*
D15*
X55500Y-1223299D02*
X55500Y-1229667D01*
X55500Y-1223299D02*
X55557Y-1223242D01*
D14*
X55557Y-1223242D03*
D15*
X71500Y-1224660D02*
X71500Y-1229667D01*
X71500Y-1224660D02*
X72956Y-1223204D01*
D14*
X72956Y-1223204D03*
D15*
X113833Y-1238667D02*
X113833Y-1245124D01*
X113947Y-1245238D01*
D14*
X113947Y-1245238D03*
D15*
X105923Y-1229667D02*
X97833Y-1229667D01*
X105923Y-1229667D02*
X105933Y-1229676D01*
D14*
X105933Y-1229676D03*
D15*
X113833Y-1229667D02*
X113833Y-1228319D01*
X107791Y-1222277D01*
X99645Y-1222277D01*
D14*
X99645Y-1222277D03*
D15*
X156515Y-1239015D02*
X156515Y-1245353D01*
X156515Y-1239015D02*
X156167Y-1238667D01*
D14*
X156515Y-1245353D03*
D15*
X148320Y-1234003D02*
X147970Y-1234003D01*
X143634Y-1229667D01*
X140167Y-1229667D01*
D14*
X148320Y-1234003D03*
D15*
X164282Y-1192730D02*
X163589Y-1192037D01*
X164282Y-1192730D02*
X164282Y-1227379D01*
X161994Y-1229667D01*
X156167Y-1229667D01*
D14*
X163589Y-1192037D03*
D15*
X29167Y-1281000D02*
X29167Y-1288904D01*
X29193Y-1288930D01*
D14*
X29193Y-1288930D03*
D15*
X13167Y-1272000D02*
X13167Y-1264796D01*
X13151Y-1264781D01*
D14*
X13151Y-1264781D03*
D15*
X29167Y-1258615D02*
X29167Y-1272000D01*
X29167Y-1258615D02*
X29213Y-1258569D01*
D14*
X29213Y-1258569D03*
D15*
X74864Y-1281000D02*
X79580Y-1276285D01*
X74864Y-1281000D02*
X71500Y-1281000D01*
D14*
X79580Y-1276285D03*
D15*
X55500Y-1272000D02*
X55500Y-1268136D01*
X62560Y-1261076D01*
D14*
X62560Y-1261076D03*
D15*
X71500Y-1268019D02*
X71500Y-1272000D01*
X71500Y-1268019D02*
X76506Y-1263013D01*
D14*
X76506Y-1263013D03*
D15*
X106506Y-1281000D02*
X113833Y-1281000D01*
X106506Y-1281000D02*
X105867Y-1280361D01*
D14*
X105867Y-1280361D03*
D15*
X97833Y-1272000D02*
X97833Y-1270913D01*
X104113Y-1264634D01*
D14*
X104113Y-1264634D03*
D15*
X113833Y-1262320D02*
X113833Y-1272000D01*
X113833Y-1262320D02*
X108520Y-1257006D01*
D14*
X108520Y-1257006D03*
D15*
X156167Y-1281000D02*
X156180Y-1281014D01*
X156180Y-1287158D01*
D14*
X156180Y-1287158D03*
D15*
X140167Y-1272000D02*
X140167Y-1265732D01*
X140128Y-1265693D01*
D14*
X140128Y-1265693D03*
D15*
X156092Y-1271925D02*
X156167Y-1272000D01*
X156092Y-1271925D02*
X156092Y-1265516D01*
D14*
X156092Y-1265516D03*
D15*
X35976Y-1310334D02*
X32080Y-1306438D01*
X35976Y-1319142D02*
X31784Y-1323333D01*
X29167Y-1323333D01*
X35976Y-1319142D02*
X35976Y-1310334D01*
D14*
X32080Y-1306438D03*
D15*
X13167Y-1306856D02*
X13167Y-1314333D01*
X13167Y-1306856D02*
X13155Y-1306844D01*
D14*
X13155Y-1306844D03*
D15*
X26535Y-1311701D02*
X29167Y-1314333D01*
X26535Y-1296352D02*
X26737Y-1296150D01*
X26535Y-1296352D02*
X26535Y-1311701D01*
D14*
X26737Y-1296150D03*
D15*
X77389Y-1291456D02*
X78224Y-1292291D01*
X78224Y-1319022D01*
X73912Y-1323333D01*
X71500Y-1323333D01*
D14*
X77389Y-1291456D03*
D15*
X55500Y-1309531D02*
X55500Y-1314333D01*
X55500Y-1309531D02*
X57914Y-1307117D01*
D14*
X57914Y-1307117D03*
D15*
X68183Y-1311016D02*
X71500Y-1314333D01*
X68183Y-1288220D02*
X69118Y-1287285D01*
X68183Y-1288220D02*
X68183Y-1311016D01*
D14*
X69118Y-1287285D03*
D15*
X112352Y-1323333D02*
X113833Y-1323333D01*
X112352Y-1323333D02*
X106323Y-1317304D01*
X106323Y-1311798D01*
X110911Y-1307209D01*
D14*
X110911Y-1307209D03*
D15*
X104918Y-1302359D02*
X106812Y-1300465D01*
X104918Y-1302359D02*
X104918Y-1309031D01*
X99616Y-1314333D01*
X97833Y-1314333D01*
D14*
X106812Y-1300465D03*
D15*
X117399Y-1297008D02*
X117399Y-1310768D01*
X113833Y-1314333D01*
X117399Y-1297008D02*
X109518Y-1289127D01*
X109518Y-1288375D01*
D14*
X109518Y-1288375D03*
D15*
X156167Y-1323333D02*
X156167Y-1329319D01*
X156134Y-1329352D01*
D14*
X156134Y-1329352D03*
D15*
X140167Y-1314333D02*
X140063Y-1314230D01*
X140063Y-1308169D01*
D14*
X140063Y-1308169D03*
D15*
X156134Y-1314301D02*
X156167Y-1314333D01*
X156134Y-1314301D02*
X156134Y-1307690D01*
D14*
X156134Y-1307690D03*
D17*
X13167Y-101853D02*
X13167Y-95667D01*
X13167Y-101853D02*
X13155Y-101853D01*
D14*
X13155Y-101853D03*
D17*
X55500Y-99747D02*
X55500Y-95667D01*
X55500Y-99747D02*
X58150Y-102396D01*
D14*
X58150Y-102396D03*
D17*
X97833Y-99990D02*
X97833Y-95667D01*
X97833Y-99990D02*
X100864Y-103021D01*
D14*
X100864Y-103021D03*
D17*
X13392Y-138225D02*
X13167Y-138000D01*
X13392Y-138225D02*
X13392Y-144403D01*
D14*
X13392Y-144403D03*
D17*
X13167Y-180333D02*
X13167Y-187630D01*
X13303Y-187767D01*
D14*
X13303Y-187767D03*
D17*
X55500Y-183913D02*
X55500Y-180333D01*
X55500Y-183913D02*
X57936Y-186349D01*
D14*
X57936Y-186349D03*
D17*
X95681Y-182486D02*
X95681Y-191487D01*
X98504Y-194310D01*
X95681Y-182486D02*
X97833Y-180333D01*
D14*
X98504Y-194310D03*
D17*
X97833Y-222667D02*
X97833Y-229013D01*
X98031Y-229211D01*
D14*
X98031Y-229211D03*
D17*
X55500Y-228798D02*
X55500Y-222667D01*
X55500Y-228798D02*
X55545Y-228843D01*
D14*
X55545Y-228843D03*
D17*
X13167Y-228583D02*
X13167Y-222667D01*
X13167Y-228583D02*
X13426Y-228843D01*
D14*
X13426Y-228843D03*
D17*
X141868Y-222667D02*
X148117Y-228916D01*
X141868Y-222667D02*
X140167Y-222667D01*
D14*
X148117Y-228916D03*
D17*
X140167Y-144449D02*
X140167Y-138000D01*
X140167Y-144449D02*
X140349Y-144631D01*
D14*
X140349Y-144631D03*
D17*
X140039Y-95794D02*
X140167Y-95667D01*
X140039Y-95794D02*
X140039Y-102265D01*
D14*
X140039Y-102265D03*
D17*
X55500Y-138000D02*
X52698Y-138000D01*
X48705Y-134006D01*
X48705Y-122179D01*
X58150Y-112734D02*
X58150Y-102396D01*
X58150Y-112734D02*
X48705Y-122179D01*
X94526Y-138000D02*
X97833Y-138000D01*
X94526Y-138000D02*
X90401Y-133874D01*
X90401Y-124735D01*
X91642Y-123493D01*
X98295Y-123493D01*
X100174Y-103712D02*
X100864Y-103021D01*
X100174Y-103712D02*
X100174Y-121614D01*
X98295Y-123493D01*
D14*
X135894Y-163884D03*
D17*
X132919Y-166395D02*
X132919Y-176444D01*
X136808Y-180333D02*
X140167Y-180333D01*
X136808Y-180333D02*
X132919Y-176444D01*
X135431Y-163884D02*
X135894Y-163884D01*
X135431Y-163884D02*
X132919Y-166395D01*
X13167Y-265000D02*
X13167Y-271187D01*
X13155Y-271187D01*
D14*
X13155Y-271187D03*
D17*
X55500Y-269080D02*
X55500Y-265000D01*
X55500Y-269080D02*
X58150Y-271730D01*
D14*
X58150Y-271730D03*
D17*
X97833Y-269323D02*
X97833Y-265000D01*
X97833Y-269323D02*
X100864Y-272354D01*
D14*
X100864Y-272354D03*
D17*
X13392Y-307559D02*
X13167Y-307333D01*
X13392Y-307559D02*
X13392Y-313736D01*
D14*
X13392Y-313736D03*
D17*
X13167Y-349667D02*
X13167Y-356964D01*
X13303Y-357100D01*
D14*
X13303Y-357100D03*
D17*
X55500Y-353246D02*
X55500Y-349667D01*
X55500Y-353246D02*
X57936Y-355682D01*
D14*
X57936Y-355682D03*
D17*
X95681Y-351819D02*
X95681Y-360821D01*
X98504Y-363643D01*
X95681Y-351819D02*
X97833Y-349667D01*
D14*
X98504Y-363643D03*
D17*
X97833Y-392000D02*
X97833Y-398347D01*
X98031Y-398544D01*
D14*
X98031Y-398544D03*
D17*
X55500Y-398131D02*
X55500Y-392000D01*
X55500Y-398131D02*
X55545Y-398176D01*
D14*
X55545Y-398176D03*
D17*
X13167Y-397917D02*
X13167Y-392000D01*
X13167Y-397917D02*
X13426Y-398176D01*
D14*
X13426Y-398176D03*
D17*
X141868Y-392000D02*
X148117Y-398249D01*
X141868Y-392000D02*
X140167Y-392000D01*
D14*
X148117Y-398249D03*
D17*
X140167Y-313782D02*
X140167Y-307333D01*
X140167Y-313782D02*
X140349Y-313965D01*
D14*
X140349Y-313965D03*
D17*
X140039Y-265128D02*
X140167Y-265000D01*
X140039Y-265128D02*
X140039Y-271599D01*
D14*
X140039Y-271599D03*
D17*
X55500Y-307333D02*
X52698Y-307333D01*
X48705Y-303339D01*
X48705Y-291513D01*
X58150Y-282067D02*
X58150Y-271730D01*
X58150Y-282067D02*
X48705Y-291513D01*
X94526Y-307333D02*
X97833Y-307333D01*
X94526Y-307333D02*
X90770Y-303578D01*
X90770Y-293790D01*
X91734Y-292827D01*
X98295Y-292827D01*
X99804Y-273415D02*
X100864Y-272354D01*
X99804Y-273415D02*
X99804Y-291318D01*
X98295Y-292827D01*
D14*
X135894Y-333217D03*
D17*
X133196Y-335451D02*
X133196Y-345777D01*
X137086Y-349667D02*
X140167Y-349667D01*
X137086Y-349667D02*
X133196Y-345777D01*
X135431Y-333217D02*
X135894Y-333217D01*
X135431Y-333217D02*
X133196Y-335451D01*
X13167Y-434333D02*
X13167Y-440520D01*
X13155Y-440520D01*
D14*
X13155Y-440520D03*
D17*
X55500Y-438413D02*
X55500Y-434333D01*
X55500Y-438413D02*
X58150Y-441063D01*
D14*
X58150Y-441063D03*
D17*
X97833Y-438657D02*
X97833Y-434333D01*
X97833Y-438657D02*
X100864Y-441688D01*
D14*
X100864Y-441688D03*
D17*
X13392Y-476892D02*
X13167Y-476667D01*
X13392Y-476892D02*
X13392Y-483069D01*
D14*
X13392Y-483069D03*
D17*
X13167Y-519000D02*
X13167Y-526297D01*
X13303Y-526434D01*
D14*
X13303Y-526434D03*
D17*
X55500Y-522580D02*
X55500Y-519000D01*
X55500Y-522580D02*
X57936Y-525015D01*
D14*
X57936Y-525015D03*
D17*
X95681Y-521152D02*
X95681Y-530154D01*
X98504Y-532977D01*
X95681Y-521152D02*
X97833Y-519000D01*
D14*
X98504Y-532977D03*
D17*
X97833Y-561333D02*
X97833Y-567680D01*
X98031Y-567877D01*
D14*
X98031Y-567877D03*
D17*
X55500Y-567465D02*
X55500Y-561333D01*
X55500Y-567465D02*
X55545Y-567510D01*
D14*
X55545Y-567510D03*
D17*
X13167Y-567250D02*
X13167Y-561333D01*
X13167Y-567250D02*
X13426Y-567510D01*
D14*
X13426Y-567510D03*
D17*
X141868Y-561333D02*
X148117Y-567582D01*
X141868Y-561333D02*
X140167Y-561333D01*
D14*
X148117Y-567582D03*
D17*
X140167Y-483115D02*
X140167Y-476667D01*
X140167Y-483115D02*
X140349Y-483298D01*
D14*
X140349Y-483298D03*
D17*
X140039Y-434461D02*
X140167Y-434333D01*
X140039Y-434461D02*
X140039Y-440932D01*
D14*
X140039Y-440932D03*
D17*
X55500Y-476667D02*
X52698Y-476667D01*
X48705Y-472673D01*
X48705Y-460846D01*
X58150Y-451401D02*
X58150Y-441063D01*
X58150Y-451401D02*
X48705Y-460846D01*
X94526Y-476667D02*
X97833Y-476667D01*
X94526Y-476667D02*
X90586Y-472726D01*
X90586Y-463031D01*
X91457Y-462160D01*
X98295Y-462160D01*
X99989Y-442563D02*
X100864Y-441688D01*
X99989Y-442563D02*
X99989Y-460466D01*
X98295Y-462160D01*
D14*
X135894Y-502550D03*
D17*
X132919Y-505062D02*
X132919Y-513816D01*
X138103Y-519000D02*
X140167Y-519000D01*
X138103Y-519000D02*
X132919Y-513816D01*
X135431Y-502550D02*
X135894Y-502550D01*
X135431Y-502550D02*
X132919Y-505062D01*
X13167Y-603667D02*
X13167Y-609853D01*
X13155Y-609853D01*
D14*
X13155Y-609853D03*
D17*
X55500Y-607747D02*
X55500Y-603667D01*
X55500Y-607747D02*
X58150Y-610396D01*
D14*
X58150Y-610396D03*
D17*
X97833Y-607990D02*
X97833Y-603667D01*
X97833Y-607990D02*
X100864Y-611021D01*
D14*
X100864Y-611021D03*
D17*
X13392Y-646225D02*
X13392Y-652403D01*
D14*
X13392Y-652403D03*
D17*
X13167Y-688333D02*
X13167Y-695630D01*
X13303Y-695767D01*
D14*
X13303Y-695767D03*
D17*
X55500Y-691913D02*
X55500Y-688333D01*
X55500Y-691913D02*
X57936Y-694349D01*
D14*
X57936Y-694349D03*
D17*
X95681Y-690486D02*
X95681Y-699487D01*
X98504Y-702310D01*
X95681Y-690486D02*
X97833Y-688333D01*
D14*
X98504Y-702310D03*
D17*
X97833Y-730667D02*
X97833Y-737013D01*
X98031Y-737211D01*
D14*
X98031Y-737211D03*
D17*
X55500Y-736798D02*
X55500Y-730667D01*
X55500Y-736798D02*
X55545Y-736843D01*
D14*
X55545Y-736843D03*
D17*
X13167Y-736583D02*
X13167Y-730667D01*
X13167Y-736583D02*
X13426Y-736843D01*
D14*
X13426Y-736843D03*
D17*
X141868Y-730667D02*
X148117Y-736916D01*
X141868Y-730667D02*
X140167Y-730667D01*
D14*
X148117Y-736916D03*
D17*
X140349Y-652631D02*
X140167Y-652449D01*
D14*
X140349Y-652631D03*
D17*
X140039Y-603794D02*
X140167Y-603667D01*
X140039Y-603794D02*
X140039Y-610265D01*
D14*
X140039Y-610265D03*
D17*
X48705Y-630179D02*
X48705Y-642006D01*
X58150Y-620734D02*
X58150Y-610396D01*
X58150Y-620734D02*
X48705Y-630179D01*
X90863Y-632735D02*
X90863Y-642337D01*
X90863Y-632735D02*
X92104Y-631493D01*
X98295Y-631493D01*
X99896Y-611989D02*
X100864Y-611021D01*
X99896Y-611989D02*
X99896Y-629892D01*
X98295Y-631493D01*
D14*
X135894Y-671884D03*
D17*
X133145Y-674169D02*
X133145Y-684413D01*
X137065Y-688333D02*
X140167Y-688333D01*
X137065Y-688333D02*
X133145Y-684413D01*
X135431Y-671884D02*
X135894Y-671884D01*
X135431Y-671884D02*
X133145Y-674169D01*
X13167Y-773000D02*
X13167Y-779187D01*
X13155Y-779187D01*
D14*
X13155Y-779187D03*
D17*
X55500Y-777080D02*
X55500Y-773000D01*
X55500Y-777080D02*
X58150Y-779730D01*
D14*
X58150Y-779730D03*
D17*
X97833Y-777323D02*
X97833Y-773000D01*
X97833Y-777323D02*
X100864Y-780354D01*
D14*
X100864Y-780354D03*
D17*
X13392Y-815559D02*
X13167Y-815333D01*
X13392Y-815559D02*
X13392Y-821736D01*
D14*
X13392Y-821736D03*
D17*
X13167Y-857667D02*
X13167Y-864964D01*
X13303Y-865100D01*
D14*
X13303Y-865100D03*
D17*
X55500Y-861246D02*
X55500Y-857667D01*
X55500Y-861246D02*
X57936Y-863682D01*
D14*
X57936Y-863682D03*
D17*
X95681Y-859819D02*
X95681Y-868821D01*
X98504Y-871643D01*
X95681Y-859819D02*
X97833Y-857667D01*
D14*
X98504Y-871643D03*
D17*
X97833Y-900000D02*
X97833Y-906347D01*
X98031Y-906544D01*
D14*
X98031Y-906544D03*
D17*
X55500Y-906131D02*
X55500Y-900000D01*
X55500Y-906131D02*
X55545Y-906176D01*
D14*
X55545Y-906176D03*
D17*
X13167Y-905917D02*
X13167Y-900000D01*
X13167Y-905917D02*
X13426Y-906176D01*
D14*
X13426Y-906176D03*
D17*
X141868Y-900000D02*
X148117Y-906249D01*
X141868Y-900000D02*
X140167Y-900000D01*
D14*
X148117Y-906249D03*
D17*
X140167Y-821782D02*
X140167Y-815333D01*
X140167Y-821782D02*
X140349Y-821965D01*
D14*
X140349Y-821965D03*
D17*
X140039Y-773128D02*
X140167Y-773000D01*
X140039Y-773128D02*
X140039Y-779599D01*
D14*
X140039Y-779599D03*
D17*
X55500Y-815333D02*
X52698Y-815333D01*
X48705Y-811339D01*
X48705Y-799513D01*
X58150Y-790067D02*
X58150Y-779730D01*
X58150Y-790067D02*
X48705Y-799513D01*
X94526Y-815333D02*
X97833Y-815333D01*
X94526Y-815333D02*
X90678Y-811485D01*
X90678Y-802807D01*
X92659Y-800827D01*
X98295Y-800827D01*
X100636Y-780583D02*
X100864Y-780354D01*
X100636Y-780583D02*
X100636Y-798485D01*
X98295Y-800827D01*
D14*
X135894Y-841217D03*
D17*
X133289Y-843359D02*
X133289Y-854517D01*
X136439Y-857667D02*
X140167Y-857667D01*
X136439Y-857667D02*
X133289Y-854517D01*
X135431Y-841217D02*
X135894Y-841217D01*
X135431Y-841217D02*
X133289Y-843359D01*
X13167Y-942333D02*
X13167Y-948520D01*
X13155Y-948520D01*
D14*
X13155Y-948520D03*
D17*
X55500Y-946413D02*
X55500Y-942333D01*
X55500Y-946413D02*
X58150Y-949063D01*
D14*
X58150Y-949063D03*
D17*
X97833Y-946657D02*
X97833Y-942333D01*
X97833Y-946657D02*
X100864Y-949688D01*
D14*
X100864Y-949688D03*
D17*
X13392Y-984892D02*
X13167Y-984667D01*
X13392Y-984892D02*
X13392Y-991069D01*
D14*
X13392Y-991069D03*
D17*
X13167Y-1027000D02*
X13167Y-1034297D01*
X13303Y-1034434D01*
D14*
X13303Y-1034434D03*
D17*
X55500Y-1030580D02*
X55500Y-1027000D01*
X55500Y-1030580D02*
X57936Y-1033015D01*
D14*
X57936Y-1033015D03*
D17*
X95681Y-1029152D02*
X95681Y-1038154D01*
X98504Y-1040977D01*
X95681Y-1029152D02*
X97833Y-1027000D01*
D14*
X98504Y-1040977D03*
D17*
X97833Y-1069333D02*
X97833Y-1075680D01*
X98031Y-1075877D01*
D14*
X98031Y-1075877D03*
D17*
X55500Y-1075465D02*
X55500Y-1069333D01*
X55500Y-1075465D02*
X55545Y-1075510D01*
D14*
X55545Y-1075510D03*
D17*
X13167Y-1075250D02*
X13167Y-1069333D01*
X13167Y-1075250D02*
X13426Y-1075510D01*
D14*
X13426Y-1075510D03*
D17*
X141868Y-1069333D02*
X148117Y-1075582D01*
X141868Y-1069333D02*
X140167Y-1069333D01*
D14*
X148117Y-1075582D03*
D17*
X140167Y-991115D02*
X140167Y-984667D01*
X140167Y-991115D02*
X140349Y-991298D01*
D14*
X140349Y-991298D03*
D17*
X140039Y-942461D02*
X140167Y-942333D01*
X140039Y-942461D02*
X140039Y-948932D01*
D14*
X140039Y-948932D03*
D17*
X55500Y-984667D02*
X52698Y-984667D01*
X48705Y-980673D01*
X48705Y-968846D01*
X58150Y-959401D02*
X58150Y-949063D01*
X58150Y-959401D02*
X48705Y-968846D01*
X94526Y-984667D02*
X97833Y-984667D01*
X94526Y-984667D02*
X90678Y-980819D01*
X90678Y-970939D01*
X91457Y-970160D01*
X98295Y-970160D01*
X100636Y-949916D02*
X100864Y-949688D01*
X100636Y-949916D02*
X100636Y-967819D01*
X98295Y-970160D01*
D14*
X135894Y-1010550D03*
D17*
X133011Y-1012970D02*
X133011Y-1022833D01*
X137178Y-1027000D02*
X140167Y-1027000D01*
X137178Y-1027000D02*
X133011Y-1022833D01*
X135431Y-1010550D02*
X135894Y-1010550D01*
X135431Y-1010550D02*
X133011Y-1012970D01*
X13167Y-1111667D02*
X13167Y-1117853D01*
X13155Y-1117853D01*
D14*
X13155Y-1117853D03*
D17*
X55500Y-1115747D02*
X55500Y-1111667D01*
X55500Y-1115747D02*
X58150Y-1118396D01*
D14*
X58150Y-1118396D03*
D17*
X97833Y-1115990D02*
X97833Y-1111667D01*
X97833Y-1115990D02*
X100864Y-1119021D01*
D14*
X100864Y-1119021D03*
D17*
X13392Y-1154225D02*
X13167Y-1154000D01*
X13392Y-1154225D02*
X13392Y-1160403D01*
D14*
X13392Y-1160403D03*
D17*
X13167Y-1196333D02*
X13167Y-1203630D01*
X13303Y-1203767D01*
D14*
X13303Y-1203767D03*
D17*
X55500Y-1199913D02*
X55500Y-1196333D01*
X55500Y-1199913D02*
X57936Y-1202349D01*
D14*
X57936Y-1202349D03*
D17*
X95681Y-1198486D02*
X95681Y-1207487D01*
X98504Y-1210310D01*
X95681Y-1198486D02*
X97833Y-1196333D01*
D14*
X98504Y-1210310D03*
D17*
X97833Y-1238667D02*
X97833Y-1245013D01*
X98031Y-1245211D01*
D14*
X98031Y-1245211D03*
D17*
X55500Y-1244798D02*
X55500Y-1238667D01*
X55500Y-1244798D02*
X55545Y-1244843D01*
D14*
X55545Y-1244843D03*
D17*
X13167Y-1244583D02*
X13167Y-1238667D01*
X13167Y-1244583D02*
X13426Y-1244843D01*
D14*
X13426Y-1244843D03*
D17*
X141868Y-1238667D02*
X148117Y-1244916D01*
X141868Y-1238667D02*
X140167Y-1238667D01*
D14*
X148117Y-1244916D03*
D17*
X140167Y-1160449D02*
X140167Y-1154000D01*
X140167Y-1160449D02*
X140349Y-1160631D01*
D14*
X140349Y-1160631D03*
D17*
X140039Y-1111794D02*
X140167Y-1111667D01*
X140039Y-1111794D02*
X140039Y-1118265D01*
D14*
X140039Y-1118265D03*
D17*
X55500Y-1154000D02*
X52698Y-1154000D01*
X48705Y-1150006D01*
X48705Y-1138179D01*
X58150Y-1128734D02*
X58150Y-1118396D01*
X58150Y-1128734D02*
X48705Y-1138179D01*
X94526Y-1154000D02*
X97833Y-1154000D01*
X94526Y-1154000D02*
X90404Y-1149878D01*
X90404Y-1141440D01*
X92351Y-1139493D01*
X98295Y-1139493D01*
X100097Y-1119789D02*
X100864Y-1119021D01*
X100097Y-1119789D02*
X100097Y-1137691D01*
X98295Y-1139493D01*
D14*
X135894Y-1179884D03*
D17*
X133011Y-1182303D02*
X133011Y-1192536D01*
X136809Y-1196333D02*
X140167Y-1196333D01*
X136809Y-1196333D02*
X133011Y-1192536D01*
X135431Y-1179884D02*
X135894Y-1179884D01*
X135431Y-1179884D02*
X133011Y-1182303D01*
X13167Y-1281000D02*
X13167Y-1287187D01*
X13155Y-1287187D01*
D14*
X13155Y-1287187D03*
D17*
X55500Y-1285080D02*
X55500Y-1281000D01*
X55500Y-1285080D02*
X58150Y-1287730D01*
D14*
X58150Y-1287730D03*
D17*
X97833Y-1285323D02*
X97833Y-1281000D01*
X97833Y-1285323D02*
X100864Y-1288354D01*
D14*
X100864Y-1288354D03*
D17*
X13392Y-1323559D02*
X13167Y-1323333D01*
X13392Y-1323559D02*
X13392Y-1329736D01*
D14*
X13392Y-1329736D03*
D17*
X140167Y-1329782D02*
X140167Y-1323333D01*
X140167Y-1329782D02*
X140349Y-1329965D01*
D14*
X140349Y-1329965D03*
D17*
X140039Y-1281128D02*
X140167Y-1281000D01*
X140039Y-1281128D02*
X140039Y-1287599D01*
D14*
X140039Y-1287599D03*
D17*
X55500Y-1323333D02*
X52698Y-1323333D01*
X48705Y-1319339D01*
X48705Y-1307513D01*
X58150Y-1298067D02*
X58150Y-1287730D01*
X58150Y-1298067D02*
X48705Y-1307513D01*
X94526Y-1323333D02*
X97833Y-1323333D01*
X94526Y-1323333D02*
X90945Y-1319753D01*
X90945Y-1309893D01*
X92012Y-1308827D01*
X98295Y-1308827D01*
X99405Y-1289813D02*
X100864Y-1288354D01*
X99405Y-1289813D02*
X99405Y-1307716D01*
X98295Y-1308827D01*
X55500Y-646000D02*
X52698Y-646000D01*
X48705Y-642006D01*
X94526Y-646000D02*
X97833Y-646000D01*
X94526Y-646000D02*
X90863Y-642337D01*
X140167Y-646000D02*
X140167Y-652449D01*
D14*
X157793Y-194418D03*
D18*
X157527Y-194151D01*
X128617Y-194151D01*
D14*
X157793Y-363752D03*
D18*
X157784Y-363742D01*
X128617Y-363742D01*
D14*
X157793Y-533085D03*
D18*
X157784Y-533075D01*
X128617Y-533075D01*
D14*
X157793Y-702418D03*
D18*
X157784Y-702408D01*
X128617Y-702408D01*
D14*
X157793Y-871752D03*
D18*
X128617Y-871742D02*
X128617Y-702408D01*
X157784Y-871742D02*
X157793Y-871752D01*
X157784Y-871742D02*
X128617Y-871742D01*
D14*
X157793Y-1041085D03*
D18*
X157784Y-1041075D01*
X128617Y-1041075D01*
D14*
X157793Y-1210418D03*
D18*
X157784Y-1210408D01*
X128924Y-1210408D01*
X128617Y-1210408D01*
X128924Y-1210408D02*
X128924Y-1339596D01*
X128617Y-363742D02*
X128617Y-194151D01*
X128617Y-363742D02*
X128617Y-533075D01*
X128617Y-702408D01*
X128617Y-871742D02*
X128617Y-1041075D01*
X128617Y-1210408D01*
D16*
X44103Y-1356895D02*
X44103Y-1371053D01*
X44024Y-1371131D01*
X44118Y-1371225D02*
X44118Y-1385116D01*
X44118Y-1371225D02*
X44024Y-1371131D01*
X110034Y-1371991D02*
X110034Y-1357409D01*
X110034Y-1371991D02*
X110005Y-1372021D01*
X110005Y-1384882D01*
X109934Y-1384953D01*
D18*
X132052Y-1342723D02*
X128924Y-1339596D01*
X132052Y-1342723D02*
X149296Y-1342723D01*
D19*
X149296Y-1342723D03*
D15*
X35777Y-1420178D02*
X22804Y-1433152D01*
X35777Y-1393457D02*
X44118Y-1385116D01*
X35777Y-1393457D02*
X35777Y-1420178D01*
X44024Y-1371131D02*
X16345Y-1371131D01*
X8379Y-1363166D02*
X8379Y-1357275D01*
X8379Y-1363166D02*
X16345Y-1371131D01*
X44103Y-1356895D02*
X44103Y-1349900D01*
X46598Y-1347405D01*
X69385Y-1347405D01*
X74315Y-1352335D02*
X74315Y-1358310D01*
X74315Y-1352335D02*
X69385Y-1347405D01*
X94007Y-1372021D02*
X110005Y-1372021D01*
X94007Y-1372021D02*
X90220Y-1368233D01*
X84239Y-1368233D01*
X74315Y-1358310D01*
X139828Y-1358792D02*
X139828Y-1352191D01*
X149296Y-1342723D01*
X99004Y-1433152D02*
X86931Y-1445224D01*
X62536Y-1445224D01*
X60614Y-1443302D01*
X60614Y-1427313D01*
X54145Y-1420844D01*
X42938Y-1420844D01*
X35481Y-1428301D01*
X35481Y-1439314D01*
X26616Y-1448179D01*
X12862Y-1448179D01*
X8279Y-1443596D01*
X17879Y-1390857D02*
X17879Y-1382275D01*
X8279Y-1400457D02*
X8279Y-1443596D01*
X8279Y-1400457D02*
X17879Y-1390857D01*
X149328Y-1387603D02*
X149328Y-1383792D01*
X162031Y-1400306D02*
X162031Y-1440929D01*
X154746Y-1448214D01*
X48204Y-1445084D02*
X48204Y-1433152D01*
X149328Y-1387603D02*
X162031Y-1400306D01*
X154746Y-1448214D02*
X51333Y-1448214D01*
X48204Y-1445084D01*
X83815Y-1396749D02*
X83815Y-1383310D01*
X83815Y-1396749D02*
X86337Y-1399271D01*
X86337Y-1420418D01*
X73604Y-1433152D01*
M02*
