G04 EAGLE Gerber RS-274X export*
G75*
%MOMM*%
%FSLAX34Y34*%
%LPD*%
%INBottom Copper*%
%IPPOS*%
%AMOC8*
5,1,8,0,0,1.08239X$1,22.5*%
G01*
%ADD10R,0.900000X0.700000*%
%ADD11R,1.475000X0.300000*%
%ADD12R,3.610000X4.700000*%
%ADD13P,1.649562X8X22.500000*%
%ADD14C,0.101600*%
%ADD15C,0.450000*%
%ADD16C,0.254000*%
%ADD17C,0.203200*%


D10*
X137500Y-192600D03*
X137500Y-205600D03*
X137500Y-361933D03*
X137500Y-374933D03*
X137500Y-531267D03*
X137500Y-544267D03*
X137500Y-700600D03*
X137500Y-713600D03*
X137500Y-869933D03*
X137500Y-882933D03*
X137500Y-1039267D03*
X137500Y-1052267D03*
X137500Y-1208600D03*
X137500Y-1221600D03*
X137500Y-1377933D03*
X137500Y-1390933D03*
D11*
X46787Y-201000D03*
X46787Y-196000D03*
X46787Y-191000D03*
X46787Y-186000D03*
X46787Y-181000D03*
X46787Y-176000D03*
X46787Y-171000D03*
X46787Y-166000D03*
X46787Y-161000D03*
X46787Y-156000D03*
X46787Y-151000D03*
X46787Y-146000D03*
X46787Y-141000D03*
X46787Y-136000D03*
X46787Y-131000D03*
X46787Y-126000D03*
X46787Y-121000D03*
X46787Y-116000D03*
X46787Y-111000D03*
X46787Y-106000D03*
X46787Y-101000D03*
X46787Y-96000D03*
X46787Y-91000D03*
X46787Y-86000D03*
X46787Y-81000D03*
X46787Y-76000D03*
X46787Y-71000D03*
X46787Y-66000D03*
X122547Y-66000D03*
X122547Y-71000D03*
X122547Y-76000D03*
X122547Y-81000D03*
X122547Y-86000D03*
X122547Y-91000D03*
X122547Y-96000D03*
X122547Y-101000D03*
X122547Y-106000D03*
X122547Y-111000D03*
X122547Y-116000D03*
X122547Y-121000D03*
X122547Y-126000D03*
X122547Y-131000D03*
X122547Y-136000D03*
X122547Y-141000D03*
X122547Y-146000D03*
X122547Y-151000D03*
X122547Y-156000D03*
X122547Y-161000D03*
X122547Y-166000D03*
X122547Y-171000D03*
X122547Y-176000D03*
X122547Y-181000D03*
X122547Y-186000D03*
X122547Y-191000D03*
X122547Y-196000D03*
X122547Y-201000D03*
D12*
X84667Y-133500D03*
D11*
X46787Y-370333D03*
X46787Y-365333D03*
X46787Y-360333D03*
X46787Y-355333D03*
X46787Y-350333D03*
X46787Y-345333D03*
X46787Y-340333D03*
X46787Y-335333D03*
X46787Y-330333D03*
X46787Y-325333D03*
X46787Y-320333D03*
X46787Y-315333D03*
X46787Y-310333D03*
X46787Y-305333D03*
X46787Y-300333D03*
X46787Y-295333D03*
X46787Y-290333D03*
X46787Y-285333D03*
X46787Y-280333D03*
X46787Y-275333D03*
X46787Y-270333D03*
X46787Y-265333D03*
X46787Y-260333D03*
X46787Y-255333D03*
X46787Y-250333D03*
X46787Y-245333D03*
X46787Y-240333D03*
X46787Y-235333D03*
X122547Y-235333D03*
X122547Y-240333D03*
X122547Y-245333D03*
X122547Y-250333D03*
X122547Y-255333D03*
X122547Y-260333D03*
X122547Y-265333D03*
X122547Y-270333D03*
X122547Y-275333D03*
X122547Y-280333D03*
X122547Y-285333D03*
X122547Y-290333D03*
X122547Y-295333D03*
X122547Y-300333D03*
X122547Y-305333D03*
X122547Y-310333D03*
X122547Y-315333D03*
X122547Y-320333D03*
X122547Y-325333D03*
X122547Y-330333D03*
X122547Y-335333D03*
X122547Y-340333D03*
X122547Y-345333D03*
X122547Y-350333D03*
X122547Y-355333D03*
X122547Y-360333D03*
X122547Y-365333D03*
X122547Y-370333D03*
D12*
X84667Y-302833D03*
D11*
X46787Y-539667D03*
X46787Y-534667D03*
X46787Y-529667D03*
X46787Y-524667D03*
X46787Y-519667D03*
X46787Y-514667D03*
X46787Y-509667D03*
X46787Y-504667D03*
X46787Y-499667D03*
X46787Y-494667D03*
X46787Y-489667D03*
X46787Y-484667D03*
X46787Y-479667D03*
X46787Y-474667D03*
X46787Y-469667D03*
X46787Y-464667D03*
X46787Y-459667D03*
X46787Y-454667D03*
X46787Y-449667D03*
X46787Y-444667D03*
X46787Y-439667D03*
X46787Y-434667D03*
X46787Y-429667D03*
X46787Y-424667D03*
X46787Y-419667D03*
X46787Y-414667D03*
X46787Y-409667D03*
X46787Y-404667D03*
X122547Y-404667D03*
X122547Y-409667D03*
X122547Y-414667D03*
X122547Y-419667D03*
X122547Y-424667D03*
X122547Y-429667D03*
X122547Y-434667D03*
X122547Y-439667D03*
X122547Y-444667D03*
X122547Y-449667D03*
X122547Y-454667D03*
X122547Y-459667D03*
X122547Y-464667D03*
X122547Y-469667D03*
X122547Y-474667D03*
X122547Y-479667D03*
X122547Y-484667D03*
X122547Y-489667D03*
X122547Y-494667D03*
X122547Y-499667D03*
X122547Y-504667D03*
X122547Y-509667D03*
X122547Y-514667D03*
X122547Y-519667D03*
X122547Y-524667D03*
X122547Y-529667D03*
X122547Y-534667D03*
X122547Y-539667D03*
D12*
X84667Y-472167D03*
D11*
X46787Y-709000D03*
X46787Y-704000D03*
X46787Y-699000D03*
X46787Y-694000D03*
X46787Y-689000D03*
X46787Y-684000D03*
X46787Y-679000D03*
X46787Y-674000D03*
X46787Y-669000D03*
X46787Y-664000D03*
X46787Y-659000D03*
X46787Y-654000D03*
X46787Y-649000D03*
X46787Y-644000D03*
X46787Y-639000D03*
X46787Y-634000D03*
X46787Y-629000D03*
X46787Y-624000D03*
X46787Y-619000D03*
X46787Y-614000D03*
X46787Y-609000D03*
X46787Y-604000D03*
X46787Y-599000D03*
X46787Y-594000D03*
X46787Y-589000D03*
X46787Y-584000D03*
X46787Y-579000D03*
X46787Y-574000D03*
X122547Y-574000D03*
X122547Y-579000D03*
X122547Y-584000D03*
X122547Y-589000D03*
X122547Y-594000D03*
X122547Y-599000D03*
X122547Y-604000D03*
X122547Y-609000D03*
X122547Y-614000D03*
X122547Y-619000D03*
X122547Y-624000D03*
X122547Y-629000D03*
X122547Y-634000D03*
X122547Y-639000D03*
X122547Y-644000D03*
X122547Y-649000D03*
X122547Y-654000D03*
X122547Y-659000D03*
X122547Y-664000D03*
X122547Y-669000D03*
X122547Y-674000D03*
X122547Y-679000D03*
X122547Y-684000D03*
X122547Y-689000D03*
X122547Y-694000D03*
X122547Y-699000D03*
X122547Y-704000D03*
X122547Y-709000D03*
D12*
X84667Y-641500D03*
D11*
X46787Y-878333D03*
X46787Y-873333D03*
X46787Y-868333D03*
X46787Y-863333D03*
X46787Y-858333D03*
X46787Y-853333D03*
X46787Y-848333D03*
X46787Y-843333D03*
X46787Y-838333D03*
X46787Y-833333D03*
X46787Y-828333D03*
X46787Y-823333D03*
X46787Y-818333D03*
X46787Y-813333D03*
X46787Y-808333D03*
X46787Y-803333D03*
X46787Y-798333D03*
X46787Y-793333D03*
X46787Y-788333D03*
X46787Y-783333D03*
X46787Y-778333D03*
X46787Y-773333D03*
X46787Y-768333D03*
X46787Y-763333D03*
X46787Y-758333D03*
X46787Y-753333D03*
X46787Y-748333D03*
X46787Y-743333D03*
X122547Y-743333D03*
X122547Y-748333D03*
X122547Y-753333D03*
X122547Y-758333D03*
X122547Y-763333D03*
X122547Y-768333D03*
X122547Y-773333D03*
X122547Y-778333D03*
X122547Y-783333D03*
X122547Y-788333D03*
X122547Y-793333D03*
X122547Y-798333D03*
X122547Y-803333D03*
X122547Y-808333D03*
X122547Y-813333D03*
X122547Y-818333D03*
X122547Y-823333D03*
X122547Y-828333D03*
X122547Y-833333D03*
X122547Y-838333D03*
X122547Y-843333D03*
X122547Y-848333D03*
X122547Y-853333D03*
X122547Y-858333D03*
X122547Y-863333D03*
X122547Y-868333D03*
X122547Y-873333D03*
X122547Y-878333D03*
D12*
X84667Y-810833D03*
D11*
X46787Y-1047667D03*
X46787Y-1042667D03*
X46787Y-1037667D03*
X46787Y-1032667D03*
X46787Y-1027667D03*
X46787Y-1022667D03*
X46787Y-1017667D03*
X46787Y-1012667D03*
X46787Y-1007667D03*
X46787Y-1002667D03*
X46787Y-997667D03*
X46787Y-992667D03*
X46787Y-987667D03*
X46787Y-982667D03*
X46787Y-977667D03*
X46787Y-972667D03*
X46787Y-967667D03*
X46787Y-962667D03*
X46787Y-957667D03*
X46787Y-952667D03*
X46787Y-947667D03*
X46787Y-942667D03*
X46787Y-937667D03*
X46787Y-932667D03*
X46787Y-927667D03*
X46787Y-922667D03*
X46787Y-917667D03*
X46787Y-912667D03*
X122547Y-912667D03*
X122547Y-917667D03*
X122547Y-922667D03*
X122547Y-927667D03*
X122547Y-932667D03*
X122547Y-937667D03*
X122547Y-942667D03*
X122547Y-947667D03*
X122547Y-952667D03*
X122547Y-957667D03*
X122547Y-962667D03*
X122547Y-967667D03*
X122547Y-972667D03*
X122547Y-977667D03*
X122547Y-982667D03*
X122547Y-987667D03*
X122547Y-992667D03*
X122547Y-997667D03*
X122547Y-1002667D03*
X122547Y-1007667D03*
X122547Y-1012667D03*
X122547Y-1017667D03*
X122547Y-1022667D03*
X122547Y-1027667D03*
X122547Y-1032667D03*
X122547Y-1037667D03*
X122547Y-1042667D03*
X122547Y-1047667D03*
D12*
X84667Y-980167D03*
D11*
X46787Y-1217000D03*
X46787Y-1212000D03*
X46787Y-1207000D03*
X46787Y-1202000D03*
X46787Y-1197000D03*
X46787Y-1192000D03*
X46787Y-1187000D03*
X46787Y-1182000D03*
X46787Y-1177000D03*
X46787Y-1172000D03*
X46787Y-1167000D03*
X46787Y-1162000D03*
X46787Y-1157000D03*
X46787Y-1152000D03*
X46787Y-1147000D03*
X46787Y-1142000D03*
X46787Y-1137000D03*
X46787Y-1132000D03*
X46787Y-1127000D03*
X46787Y-1122000D03*
X46787Y-1117000D03*
X46787Y-1112000D03*
X46787Y-1107000D03*
X46787Y-1102000D03*
X46787Y-1097000D03*
X46787Y-1092000D03*
X46787Y-1087000D03*
X46787Y-1082000D03*
X122547Y-1082000D03*
X122547Y-1087000D03*
X122547Y-1092000D03*
X122547Y-1097000D03*
X122547Y-1102000D03*
X122547Y-1107000D03*
X122547Y-1112000D03*
X122547Y-1117000D03*
X122547Y-1122000D03*
X122547Y-1127000D03*
X122547Y-1132000D03*
X122547Y-1137000D03*
X122547Y-1142000D03*
X122547Y-1147000D03*
X122547Y-1152000D03*
X122547Y-1157000D03*
X122547Y-1162000D03*
X122547Y-1167000D03*
X122547Y-1172000D03*
X122547Y-1177000D03*
X122547Y-1182000D03*
X122547Y-1187000D03*
X122547Y-1192000D03*
X122547Y-1197000D03*
X122547Y-1202000D03*
X122547Y-1207000D03*
X122547Y-1212000D03*
X122547Y-1217000D03*
D12*
X84667Y-1149500D03*
D11*
X46787Y-1386333D03*
X46787Y-1381333D03*
X46787Y-1376333D03*
X46787Y-1371333D03*
X46787Y-1366333D03*
X46787Y-1361333D03*
X46787Y-1356333D03*
X46787Y-1351333D03*
X46787Y-1346333D03*
X46787Y-1341333D03*
X46787Y-1336333D03*
X46787Y-1331333D03*
X46787Y-1326333D03*
X46787Y-1321333D03*
X46787Y-1316333D03*
X46787Y-1311333D03*
X46787Y-1306333D03*
X46787Y-1301333D03*
X46787Y-1296333D03*
X46787Y-1291333D03*
X46787Y-1286333D03*
X46787Y-1281333D03*
X46787Y-1276333D03*
X46787Y-1271333D03*
X46787Y-1266333D03*
X46787Y-1261333D03*
X46787Y-1256333D03*
X46787Y-1251333D03*
X122547Y-1251333D03*
X122547Y-1256333D03*
X122547Y-1261333D03*
X122547Y-1266333D03*
X122547Y-1271333D03*
X122547Y-1276333D03*
X122547Y-1281333D03*
X122547Y-1286333D03*
X122547Y-1291333D03*
X122547Y-1296333D03*
X122547Y-1301333D03*
X122547Y-1306333D03*
X122547Y-1311333D03*
X122547Y-1316333D03*
X122547Y-1321333D03*
X122547Y-1326333D03*
X122547Y-1331333D03*
X122547Y-1336333D03*
X122547Y-1341333D03*
X122547Y-1346333D03*
X122547Y-1351333D03*
X122547Y-1356333D03*
X122547Y-1361333D03*
X122547Y-1366333D03*
X122547Y-1371333D03*
X122547Y-1376333D03*
X122547Y-1381333D03*
X122547Y-1386333D03*
D12*
X84667Y-1318833D03*
D13*
X22804Y-1433152D03*
X48204Y-1433152D03*
X73604Y-1433152D03*
X99004Y-1433152D03*
X124404Y-1433152D03*
X149804Y-1433152D03*
X22804Y-1407752D03*
X48204Y-1407752D03*
X73604Y-1407752D03*
X99004Y-1407752D03*
X124404Y-1407752D03*
X149804Y-1407752D03*
D10*
X149300Y-361933D03*
X149300Y-374933D03*
X149300Y-531267D03*
X149300Y-544267D03*
X149300Y-700600D03*
X149300Y-713600D03*
X149300Y-869933D03*
X149300Y-882933D03*
X149300Y-1039267D03*
X149300Y-1052267D03*
X149300Y-1208600D03*
X149300Y-1221600D03*
X149300Y-1377933D03*
X149300Y-1390933D03*
X149300Y-192600D03*
X149300Y-205600D03*
D14*
X46787Y-196000D02*
X46717Y-196070D01*
X39295Y-196070D01*
X36904Y-198461D01*
X36904Y-202745D01*
X34243Y-205406D02*
X21062Y-205406D01*
D15*
X21062Y-205406D03*
D14*
X34243Y-205406D02*
X36904Y-202745D01*
D15*
X20997Y-374307D03*
D14*
X45795Y-366325D02*
X46787Y-365333D01*
X45795Y-366325D02*
X38373Y-366325D01*
X36904Y-367795D01*
X36904Y-369642D01*
X32239Y-374307D01*
X20997Y-374307D01*
D15*
X20997Y-543186D03*
D14*
X45795Y-535659D02*
X46787Y-534667D01*
X45795Y-535659D02*
X38373Y-535659D01*
X36904Y-537128D01*
X36904Y-538976D01*
X32693Y-543186D01*
X20997Y-543186D01*
D15*
X20997Y-712323D03*
D14*
X45795Y-704992D02*
X46787Y-704000D01*
X45795Y-704992D02*
X38373Y-704992D01*
X36904Y-706461D01*
X36904Y-708309D01*
X32890Y-712323D01*
X20997Y-712323D01*
D15*
X20997Y-881351D03*
D14*
X33324Y-881222D02*
X36428Y-878118D01*
X39365Y-873333D02*
X46787Y-873333D01*
X39365Y-873333D02*
X36428Y-876271D01*
X36428Y-878118D01*
X21126Y-881222D02*
X20997Y-881351D01*
X21126Y-881222D02*
X33324Y-881222D01*
D15*
X20997Y-1050925D03*
D14*
X33324Y-1050555D02*
X36428Y-1047452D01*
X39365Y-1042667D02*
X46787Y-1042667D01*
X39365Y-1042667D02*
X36428Y-1045604D01*
X36428Y-1047452D01*
X21367Y-1050555D02*
X20997Y-1050925D01*
X21367Y-1050555D02*
X33324Y-1050555D01*
D15*
X20997Y-1220390D03*
D14*
X33324Y-1219888D02*
X36428Y-1216785D01*
X39365Y-1212000D02*
X46787Y-1212000D01*
X39365Y-1212000D02*
X36428Y-1214937D01*
X36428Y-1216785D01*
X21499Y-1219888D02*
X20997Y-1220390D01*
X21499Y-1219888D02*
X33324Y-1219888D01*
X21095Y-1381333D02*
X46787Y-1381333D01*
X21095Y-1381333D02*
X20997Y-1381432D01*
D15*
X20997Y-1381432D03*
D14*
X83109Y-1449046D02*
X99004Y-1433152D01*
X83109Y-1449046D02*
X40229Y-1449046D01*
X34102Y-1442918D01*
X34102Y-1393795D01*
X21739Y-1381432D01*
X20997Y-1381432D01*
X46787Y-191000D02*
X55127Y-191000D01*
X60295Y-196168D02*
X63189Y-196168D01*
D15*
X63189Y-196168D03*
D14*
X60295Y-196168D02*
X55127Y-191000D01*
D15*
X63132Y-364726D03*
D14*
X55094Y-360333D02*
X46787Y-360333D01*
X55094Y-360333D02*
X55741Y-360980D01*
X59386Y-360980D01*
X63132Y-364726D01*
D15*
X65371Y-526912D03*
D14*
X55741Y-530313D02*
X55094Y-529667D01*
X46787Y-529667D01*
X61970Y-530313D02*
X65371Y-526912D01*
X61970Y-530313D02*
X55741Y-530313D01*
D15*
X61612Y-704317D03*
D14*
X56941Y-699647D01*
X55741Y-699647D01*
X55094Y-699000D01*
X46787Y-699000D01*
D15*
X61738Y-872277D03*
D14*
X58441Y-868980D01*
X55741Y-868980D01*
X55094Y-868333D01*
X46787Y-868333D01*
D15*
X61422Y-1040490D03*
D14*
X55094Y-1037667D02*
X46787Y-1037667D01*
X55094Y-1037667D02*
X55741Y-1038313D01*
X59245Y-1038313D01*
X61422Y-1040490D01*
D15*
X61802Y-1209400D03*
D14*
X60049Y-1207647D01*
X55741Y-1207647D01*
X55094Y-1207000D01*
X46787Y-1207000D01*
D15*
X62245Y-1376220D03*
D14*
X62132Y-1376333D01*
X46787Y-1376333D01*
D16*
X134532Y-66000D02*
X134603Y-65929D01*
X134532Y-66000D02*
X122547Y-66000D01*
D15*
X134603Y-65929D03*
X84615Y-112761D03*
X84615Y-120261D03*
X84615Y-127761D03*
X84615Y-135261D03*
X84615Y-142761D03*
X84615Y-150261D03*
X91161Y-146511D03*
X77861Y-146363D03*
X77861Y-153863D03*
X91161Y-154011D03*
D16*
X137500Y-205600D02*
X149300Y-205600D01*
X132900Y-201000D02*
X122547Y-201000D01*
X132900Y-201000D02*
X137500Y-205600D01*
D15*
X70743Y-150416D03*
X98346Y-150416D03*
D16*
X137500Y-205600D02*
X131321Y-211779D01*
X131321Y-213013D01*
D15*
X131321Y-213013D03*
D16*
X132900Y-1386333D02*
X122547Y-1386333D01*
X132900Y-1386333D02*
X137500Y-1390933D01*
X149300Y-1390933D01*
X149428Y-1390805D01*
X132900Y-370333D02*
X122547Y-370333D01*
X132900Y-370333D02*
X137500Y-374933D01*
X149300Y-374933D01*
X137500Y-374933D02*
X131869Y-380564D01*
X131869Y-381630D01*
D15*
X131869Y-381630D03*
D16*
X132900Y-539667D02*
X122547Y-539667D01*
X132900Y-539667D02*
X137500Y-544267D01*
X149300Y-544267D01*
X137500Y-544267D02*
X131266Y-550501D01*
X131267Y-551362D01*
D15*
X131267Y-551362D03*
D16*
X136296Y-404667D02*
X122547Y-404667D01*
X136296Y-404667D02*
X136553Y-404924D01*
D15*
X136553Y-404924D03*
D16*
X135911Y-574000D02*
X122547Y-574000D01*
X135911Y-574000D02*
X136021Y-574110D01*
D15*
X136021Y-574110D03*
D16*
X132900Y-709000D02*
X122547Y-709000D01*
X132900Y-709000D02*
X137500Y-713600D01*
X149300Y-713600D01*
X137500Y-713600D02*
X131438Y-719662D01*
X131438Y-720658D01*
D15*
X131438Y-720658D03*
D16*
X135070Y-743333D02*
X122547Y-743333D01*
X135070Y-743333D02*
X135261Y-743525D01*
D15*
X135261Y-743525D03*
D16*
X132900Y-878333D02*
X122547Y-878333D01*
X132900Y-878333D02*
X137500Y-882933D01*
X149300Y-882933D01*
X137500Y-882933D02*
X131806Y-888628D01*
X131806Y-891311D01*
D15*
X131806Y-891311D03*
D16*
X135292Y-912667D02*
X122547Y-912667D01*
X135292Y-912667D02*
X135489Y-912863D01*
D15*
X135489Y-912863D03*
D16*
X132900Y-1047667D02*
X122547Y-1047667D01*
X132900Y-1047667D02*
X137500Y-1052267D01*
X149300Y-1052267D01*
X137500Y-1052267D02*
X132006Y-1057760D01*
X132006Y-1059406D01*
D15*
X132006Y-1059406D03*
D16*
X135515Y-1082000D02*
X122547Y-1082000D01*
X135515Y-1082000D02*
X135641Y-1082126D01*
D15*
X135641Y-1082126D03*
D16*
X137500Y-1221600D02*
X149300Y-1221600D01*
X132900Y-1217000D02*
X122547Y-1217000D01*
X132900Y-1217000D02*
X137500Y-1221600D01*
X131861Y-1227239D01*
X131861Y-1228750D01*
D15*
X131861Y-1228750D03*
D16*
X135054Y-1251333D02*
X122547Y-1251333D01*
X135054Y-1251333D02*
X135185Y-1251464D01*
D15*
X135185Y-1251464D03*
D16*
X135845Y-235333D02*
X122547Y-235333D01*
X135845Y-235333D02*
X135945Y-235433D01*
D15*
X135945Y-235433D03*
X85567Y-1298186D03*
X85567Y-1305686D03*
X85567Y-1313186D03*
X85567Y-1320686D03*
X85567Y-1328186D03*
X85567Y-1335686D03*
X92113Y-1331936D03*
X78813Y-1331788D03*
X78813Y-1339288D03*
X92113Y-1339436D03*
X71695Y-1335841D03*
X99298Y-1335841D03*
X84714Y-1128446D03*
X84714Y-1135946D03*
X84714Y-1143446D03*
X84714Y-1150946D03*
X84714Y-1158446D03*
X84714Y-1165946D03*
X91260Y-1162196D03*
X77960Y-1162048D03*
X77960Y-1169548D03*
X91260Y-1169696D03*
X70842Y-1166101D03*
X98445Y-1166101D03*
X84398Y-959091D03*
X84398Y-966591D03*
X84398Y-974091D03*
X84398Y-981591D03*
X84398Y-989091D03*
X84398Y-996591D03*
X90945Y-992841D03*
X77644Y-992693D03*
X77644Y-1000193D03*
X90945Y-1000341D03*
X70527Y-996746D03*
X98130Y-996746D03*
X84860Y-789503D03*
X84860Y-797003D03*
X84860Y-804503D03*
X84860Y-812003D03*
X84860Y-819503D03*
X84860Y-827003D03*
X91406Y-823253D03*
X78106Y-823104D03*
X78106Y-830604D03*
X91406Y-830753D03*
X70989Y-827157D03*
X98592Y-827157D03*
X85242Y-620459D03*
X85242Y-627959D03*
X85242Y-635459D03*
X85242Y-642959D03*
X85242Y-650459D03*
X85242Y-657959D03*
X91788Y-654209D03*
X78488Y-654061D03*
X78488Y-661561D03*
X91788Y-661709D03*
X71370Y-658114D03*
X98973Y-658114D03*
X84508Y-451474D03*
X84508Y-458974D03*
X84508Y-466474D03*
X84508Y-473974D03*
X84508Y-481474D03*
X84508Y-488974D03*
X91055Y-485224D03*
X77754Y-485076D03*
X77754Y-492576D03*
X91055Y-492724D03*
X70637Y-489129D03*
X98240Y-489129D03*
X84763Y-281664D03*
X84763Y-289164D03*
X84763Y-296664D03*
X84763Y-304164D03*
X84763Y-311664D03*
X84763Y-319164D03*
X91310Y-315414D03*
X78009Y-315265D03*
X78009Y-322765D03*
X91310Y-322914D03*
X70892Y-319318D03*
X98495Y-319318D03*
D17*
X131244Y-1390933D02*
X137500Y-1390933D01*
X131244Y-1390933D02*
X127838Y-1394339D01*
D15*
X127838Y-1394339D03*
X117397Y-207076D03*
D14*
X114726Y-196000D02*
X122547Y-196000D01*
X114726Y-196000D02*
X112450Y-198275D01*
X112450Y-203408D01*
X116119Y-207076D02*
X117397Y-207076D01*
X116119Y-207076D02*
X112450Y-203408D01*
D15*
X111476Y-1392162D03*
D14*
X111476Y-1383730D01*
X113873Y-1381333D02*
X122547Y-1381333D01*
X113873Y-1381333D02*
X111476Y-1383730D01*
X115125Y-1212000D02*
X122547Y-1212000D01*
X115125Y-1212000D02*
X112664Y-1214461D01*
D15*
X119192Y-1223393D03*
D14*
X116518Y-1223393D02*
X112664Y-1219539D01*
X116518Y-1223393D02*
X119192Y-1223393D01*
X112664Y-1219539D02*
X112664Y-1214461D01*
X114637Y-365333D02*
X122547Y-365333D01*
X114637Y-365333D02*
X112649Y-367321D01*
X112649Y-374412D01*
X114586Y-376349D02*
X117233Y-376349D01*
D15*
X117233Y-376349D03*
D14*
X114586Y-376349D02*
X112649Y-374412D01*
X122547Y-534667D02*
X121555Y-535659D01*
X114133Y-535659D01*
X112664Y-537128D01*
D15*
X117211Y-545661D03*
D14*
X116119Y-545661D02*
X112664Y-542206D01*
X116119Y-545661D02*
X117211Y-545661D01*
X112664Y-542206D02*
X112664Y-537128D01*
X115125Y-704000D02*
X122547Y-704000D01*
X115125Y-704000D02*
X112664Y-706461D01*
X115434Y-715098D02*
X117315Y-715098D01*
D15*
X117315Y-715098D03*
D14*
X112664Y-712327D02*
X112664Y-706461D01*
X112664Y-712327D02*
X115434Y-715098D01*
X115125Y-873333D02*
X122547Y-873333D01*
X115125Y-873333D02*
X112664Y-875795D01*
X114794Y-884333D02*
X117217Y-884333D01*
D15*
X117217Y-884333D03*
D14*
X112664Y-882203D02*
X112664Y-875795D01*
X112664Y-882203D02*
X114794Y-884333D01*
X115125Y-1042667D02*
X122547Y-1042667D01*
X115125Y-1042667D02*
X112664Y-1045128D01*
X115619Y-1053695D02*
X117246Y-1053695D01*
D15*
X117246Y-1053695D03*
D14*
X112664Y-1050740D02*
X112664Y-1045128D01*
X112664Y-1050740D02*
X115619Y-1053695D01*
X111476Y-1392162D02*
X70353Y-1392162D01*
X48591Y-1433152D02*
X48204Y-1433152D01*
X48591Y-1433152D02*
X61230Y-1420513D01*
X61230Y-1401286D02*
X70353Y-1392162D01*
X61230Y-1401286D02*
X61230Y-1420513D01*
X46787Y-235333D02*
X46787Y-201000D01*
X46787Y-539667D02*
X46787Y-574000D01*
X46787Y-878333D02*
X46787Y-912667D01*
X46787Y-1217000D02*
X46787Y-1251333D01*
D15*
X42025Y-376784D03*
D14*
X42025Y-375095D01*
X46787Y-370333D01*
D15*
X46608Y-718803D03*
D14*
X46608Y-709178D01*
X46787Y-709000D01*
D15*
X47931Y-1054075D03*
D14*
X47931Y-1048811D02*
X46787Y-1047667D01*
X47931Y-1048811D02*
X47931Y-1054075D01*
X46787Y-1386333D02*
X44718Y-1386333D01*
X37312Y-1393740D01*
X112450Y-1421198D02*
X124404Y-1433152D01*
X112450Y-1421198D02*
X68336Y-1421198D01*
X60729Y-1439477D02*
X54397Y-1445809D01*
X42809Y-1445809D01*
X60729Y-1428804D02*
X68336Y-1421198D01*
X60729Y-1428804D02*
X60729Y-1439477D01*
X42809Y-1445809D02*
X37312Y-1440313D01*
X37312Y-1393740D01*
D15*
X29193Y-103596D03*
D14*
X29193Y-85048D01*
X33241Y-81000D02*
X46787Y-81000D01*
X33241Y-81000D02*
X29193Y-85048D01*
D15*
X13151Y-79447D03*
D14*
X31407Y-78534D02*
X33941Y-76000D01*
X46787Y-76000D01*
X14065Y-78534D02*
X13151Y-79447D01*
X14065Y-78534D02*
X31407Y-78534D01*
D15*
X29213Y-73236D03*
D14*
X31448Y-71000D01*
X46787Y-71000D01*
D15*
X79580Y-90951D03*
D14*
X74531Y-96000D02*
X46787Y-96000D01*
X74531Y-96000D02*
X79580Y-90951D01*
D15*
X62560Y-75743D03*
D14*
X60233Y-78070D01*
X60233Y-84975D02*
X54209Y-91000D01*
X46787Y-91000D01*
X60233Y-84975D02*
X60233Y-78070D01*
D15*
X76506Y-77680D03*
D14*
X68982Y-70155D01*
X60162Y-70155D02*
X57039Y-73278D01*
X57039Y-83169D02*
X54209Y-86000D01*
X46787Y-86000D01*
X60162Y-70155D02*
X68982Y-70155D01*
X57039Y-73278D02*
X57039Y-83169D01*
D15*
X105867Y-95028D03*
D14*
X114179Y-81000D02*
X122547Y-81000D01*
X111532Y-83648D02*
X111532Y-89363D01*
X105867Y-95028D01*
X111532Y-83648D02*
X114179Y-81000D01*
D15*
X104113Y-79301D03*
D14*
X109579Y-79139D02*
X112718Y-76000D01*
X122547Y-76000D01*
X104274Y-79139D02*
X104113Y-79301D01*
X104274Y-79139D02*
X109579Y-79139D01*
D15*
X108520Y-71673D03*
D14*
X122538Y-71009D02*
X122547Y-71000D01*
X122538Y-71009D02*
X109184Y-71009D01*
X108520Y-71673D01*
D15*
X156180Y-101825D03*
D14*
X147666Y-101825D01*
X141842Y-96000D01*
X122547Y-96000D01*
D15*
X140128Y-80360D03*
D14*
X132149Y-91000D02*
X122547Y-91000D01*
X140128Y-83021D02*
X140128Y-80360D01*
X140128Y-83021D02*
X132149Y-91000D01*
D15*
X156092Y-80183D03*
D14*
X131207Y-86000D02*
X122547Y-86000D01*
X131207Y-86000D02*
X134363Y-82844D01*
X134363Y-78143D01*
X137444Y-75062D02*
X142900Y-75062D01*
X148021Y-80183D02*
X156092Y-80183D01*
X148021Y-80183D02*
X142900Y-75062D01*
X137444Y-75062D02*
X134363Y-78143D01*
D15*
X32080Y-121105D03*
D14*
X38872Y-111000D02*
X46787Y-111000D01*
X32080Y-117792D02*
X32080Y-121105D01*
X32080Y-117792D02*
X38872Y-111000D01*
D15*
X13155Y-121511D03*
D14*
X29010Y-116355D02*
X39365Y-106000D01*
X18312Y-116355D02*
X13155Y-121511D01*
X18312Y-116355D02*
X29010Y-116355D01*
X39365Y-106000D02*
X46787Y-106000D01*
D15*
X26737Y-110817D03*
D14*
X29548Y-110817D02*
X39365Y-101000D01*
X29548Y-110817D02*
X26737Y-110817D01*
X39365Y-101000D02*
X46787Y-101000D01*
D15*
X77389Y-106123D03*
D14*
X72440Y-106123D01*
X71313Y-107250D01*
X65257Y-107250D01*
X63264Y-109243D02*
X63264Y-124247D01*
X55719Y-127082D02*
X54637Y-126000D01*
X46787Y-126000D01*
X60429Y-127082D02*
X63264Y-124247D01*
X60429Y-127082D02*
X55719Y-127082D01*
X63264Y-109243D02*
X65257Y-107250D01*
D15*
X57914Y-121784D03*
D14*
X57130Y-121000D02*
X46787Y-121000D01*
X57130Y-121000D02*
X57914Y-121784D01*
D15*
X69118Y-101952D03*
D14*
X58429Y-116000D02*
X46787Y-116000D01*
X60160Y-114269D02*
X60160Y-107879D01*
X66087Y-101952D02*
X69118Y-101952D01*
X60160Y-114269D02*
X58429Y-116000D01*
X60160Y-107879D02*
X66087Y-101952D01*
D15*
X110911Y-121876D03*
D14*
X121555Y-111992D02*
X122547Y-111000D01*
X121555Y-111992D02*
X114133Y-111992D01*
X112550Y-113574D01*
X112550Y-120237D01*
X110911Y-121876D01*
D15*
X106859Y-115440D03*
D14*
X114370Y-106000D02*
X122547Y-106000D01*
X112614Y-107756D02*
X112614Y-109825D01*
X106999Y-115440D01*
X106859Y-115440D01*
X112614Y-107756D02*
X114370Y-106000D01*
D15*
X109518Y-103042D03*
D14*
X113534Y-101000D02*
X122547Y-101000D01*
X111493Y-103042D02*
X109518Y-103042D01*
X111493Y-103042D02*
X113534Y-101000D01*
D15*
X156134Y-144018D03*
D14*
X135734Y-126000D02*
X122547Y-126000D01*
X138254Y-128520D02*
X144651Y-128520D01*
X156134Y-140003D01*
X156134Y-144018D01*
X138254Y-128520D02*
X135734Y-126000D01*
D15*
X140063Y-122836D03*
D14*
X138227Y-121000D01*
X122547Y-121000D01*
D15*
X156134Y-122357D03*
D14*
X147620Y-122357D01*
X141263Y-116000D01*
X122547Y-116000D01*
D15*
X32597Y-162442D03*
D14*
X36877Y-141000D02*
X46787Y-141000D01*
X35167Y-142710D02*
X35167Y-159872D01*
X32597Y-162442D01*
X35167Y-142710D02*
X36877Y-141000D01*
D15*
X13197Y-165188D03*
D14*
X35699Y-136000D02*
X46787Y-136000D01*
X35699Y-136000D02*
X32593Y-139106D01*
X32593Y-153002D01*
X20407Y-165188D02*
X13197Y-165188D01*
X20407Y-165188D02*
X32593Y-153002D01*
D15*
X27260Y-145129D03*
D14*
X27260Y-138780D01*
X35041Y-131000D02*
X46787Y-131000D01*
X35041Y-131000D02*
X27260Y-138780D01*
D15*
X74147Y-164599D03*
D14*
X54257Y-156000D02*
X46787Y-156000D01*
X65150Y-166893D02*
X71852Y-166893D01*
X74147Y-164599D01*
X65150Y-166893D02*
X54257Y-156000D01*
D15*
X57751Y-151839D03*
D14*
X56912Y-151000D02*
X46787Y-151000D01*
X56912Y-151000D02*
X57751Y-151839D01*
D15*
X67170Y-161311D03*
D14*
X65804Y-161311D01*
X63271Y-158778D01*
X63271Y-149866D01*
X59405Y-146000D02*
X46787Y-146000D01*
X59405Y-146000D02*
X63271Y-149866D01*
D15*
X102229Y-187547D03*
D14*
X105154Y-167521D02*
X112560Y-160116D01*
X105154Y-184621D02*
X102229Y-187547D01*
X105154Y-184621D02*
X105154Y-167521D01*
X112560Y-143565D02*
X115125Y-141000D01*
X122547Y-141000D01*
X112560Y-143565D02*
X112560Y-160116D01*
X114480Y-136000D02*
X122547Y-136000D01*
X114480Y-136000D02*
X110004Y-140477D01*
D15*
X99984Y-165199D03*
D14*
X104137Y-165199D02*
X110004Y-159333D01*
X104137Y-165199D02*
X99984Y-165199D01*
X110004Y-159333D02*
X110004Y-140477D01*
D15*
X93624Y-161159D03*
D14*
X94890Y-159893D01*
X105295Y-159893D01*
X115094Y-131031D02*
X122516Y-131031D01*
X122547Y-131000D01*
X107226Y-157962D02*
X105295Y-159893D01*
X107226Y-157962D02*
X107226Y-138899D01*
X115094Y-131031D01*
D15*
X148668Y-162254D03*
D14*
X136768Y-156000D02*
X122547Y-156000D01*
X136768Y-156000D02*
X141988Y-161220D01*
X147634Y-161220D01*
X148668Y-162254D01*
D15*
X144516Y-155782D03*
D14*
X141708Y-152973D01*
X134865Y-152973D01*
X132891Y-151000D02*
X122547Y-151000D01*
X132891Y-151000D02*
X134865Y-152973D01*
D15*
X156199Y-164699D03*
D14*
X132873Y-146000D02*
X122547Y-146000D01*
X156199Y-157160D02*
X156199Y-164699D01*
X156199Y-157160D02*
X149325Y-150286D01*
X137159Y-150286D01*
X132873Y-146000D01*
D15*
X31130Y-198590D03*
D14*
X31130Y-196112D01*
X36362Y-190879D01*
X36362Y-187154D01*
X37516Y-186000D02*
X46787Y-186000D01*
X37516Y-186000D02*
X36362Y-187154D01*
D15*
X13244Y-195635D03*
D14*
X46132Y-181655D02*
X46787Y-181000D01*
X46132Y-181655D02*
X35877Y-181655D01*
X32870Y-184662D01*
X29922Y-193152D02*
X15728Y-193152D01*
X13244Y-195635D01*
X32870Y-190203D02*
X32870Y-184662D01*
X32870Y-190203D02*
X29922Y-193152D01*
D15*
X27572Y-187293D03*
D14*
X32947Y-176000D02*
X46787Y-176000D01*
X27572Y-181375D02*
X27572Y-187293D01*
X27572Y-181375D02*
X32947Y-176000D01*
D15*
X70748Y-194971D03*
D14*
X55618Y-171000D02*
X46787Y-171000D01*
X70748Y-186130D02*
X70748Y-194971D01*
X70748Y-186130D02*
X55618Y-171000D01*
D15*
X55557Y-207242D03*
D14*
X55569Y-166000D02*
X46787Y-166000D01*
X76198Y-186629D02*
X76198Y-198159D01*
X72798Y-201559D01*
X62061Y-209903D02*
X58218Y-209903D01*
X55557Y-207242D01*
X62061Y-209903D02*
X70404Y-201559D01*
X76198Y-186629D02*
X55569Y-166000D01*
X70404Y-201559D02*
X72798Y-201559D01*
D15*
X72956Y-207204D03*
D14*
X79598Y-200563D01*
X55079Y-161000D02*
X46787Y-161000D01*
X79598Y-185518D02*
X79598Y-200563D01*
X79598Y-185518D02*
X55079Y-161000D01*
D15*
X113947Y-229238D03*
D14*
X113947Y-211223D01*
X109929Y-207204D01*
X109929Y-196530D01*
X114960Y-171000D02*
X122547Y-171000D01*
X112486Y-193973D02*
X109929Y-196530D01*
X112486Y-173474D02*
X114960Y-171000D01*
X112486Y-173474D02*
X112486Y-193973D01*
D15*
X105933Y-213676D03*
D14*
X115082Y-166000D02*
X122547Y-166000D01*
X107355Y-207261D02*
X107355Y-212254D01*
X105933Y-213676D01*
X107355Y-207261D02*
X107355Y-195765D01*
X110157Y-170924D02*
X115082Y-166000D01*
X110157Y-170924D02*
X110157Y-192963D01*
X107355Y-195765D01*
D15*
X99645Y-206277D03*
D14*
X104889Y-201033D01*
X104889Y-194642D01*
X107644Y-191887D02*
X107644Y-168198D01*
X114842Y-161000D01*
X122547Y-161000D01*
X107644Y-191887D02*
X104889Y-194642D01*
D15*
X156515Y-229353D03*
D14*
X156515Y-228110D01*
X151894Y-223490D01*
X144409Y-223490D01*
X142284Y-221365D01*
X142284Y-215613D01*
X145560Y-212337D02*
X156894Y-212337D01*
X163091Y-206139D01*
X163091Y-187466D01*
X161404Y-185779D01*
X122768Y-185779D01*
X122547Y-186000D01*
X145560Y-212337D02*
X142284Y-215613D01*
D15*
X148320Y-218003D03*
D14*
X161671Y-181000D02*
X122547Y-181000D01*
X165469Y-184798D02*
X165469Y-211908D01*
X159374Y-218003D01*
X148320Y-218003D01*
X165469Y-184798D02*
X161671Y-181000D01*
D15*
X163589Y-176037D03*
D14*
X163552Y-176000D01*
X122547Y-176000D01*
D15*
X29193Y-272930D03*
D14*
X29193Y-254382D01*
X33241Y-250333D02*
X46787Y-250333D01*
X33241Y-250333D02*
X29193Y-254382D01*
D15*
X13151Y-248781D03*
D14*
X31407Y-247867D02*
X33941Y-245333D01*
X46787Y-245333D01*
X14065Y-247867D02*
X13151Y-248781D01*
X14065Y-247867D02*
X31407Y-247867D01*
D15*
X29213Y-242569D03*
D14*
X31448Y-240333D01*
X46787Y-240333D01*
D15*
X79580Y-260285D03*
D14*
X74531Y-265333D02*
X46787Y-265333D01*
X74531Y-265333D02*
X79580Y-260285D01*
D15*
X62560Y-245076D03*
D14*
X60233Y-247403D01*
X60233Y-254309D02*
X54209Y-260333D01*
X46787Y-260333D01*
X60233Y-254309D02*
X60233Y-247403D01*
D15*
X76506Y-247013D03*
D14*
X68982Y-239489D01*
X60162Y-239489D02*
X57039Y-242612D01*
X57039Y-252503D02*
X54209Y-255333D01*
X46787Y-255333D01*
X60162Y-239489D02*
X68982Y-239489D01*
X57039Y-242612D02*
X57039Y-252503D01*
D15*
X105867Y-264361D03*
D14*
X114179Y-250333D02*
X122547Y-250333D01*
X111532Y-252981D02*
X111532Y-258697D01*
X105867Y-264361D01*
X111532Y-252981D02*
X114179Y-250333D01*
D15*
X104113Y-248634D03*
D14*
X109579Y-248472D02*
X112718Y-245333D01*
X122547Y-245333D01*
X104274Y-248472D02*
X104113Y-248634D01*
X104274Y-248472D02*
X109579Y-248472D01*
D15*
X108520Y-241006D03*
D14*
X122538Y-240342D02*
X122547Y-240333D01*
X122538Y-240342D02*
X109184Y-240342D01*
X108520Y-241006D01*
D15*
X156180Y-271158D03*
D14*
X147666Y-271158D01*
X141842Y-265333D01*
X122547Y-265333D01*
D15*
X140128Y-249693D03*
D14*
X132149Y-260333D02*
X122547Y-260333D01*
X140128Y-252355D02*
X140128Y-249693D01*
X140128Y-252355D02*
X132149Y-260333D01*
D15*
X156092Y-249516D03*
D14*
X131207Y-255333D02*
X122547Y-255333D01*
X131207Y-255333D02*
X134363Y-252177D01*
X134363Y-247476D01*
X137444Y-244395D02*
X142900Y-244395D01*
X148021Y-249516D02*
X156092Y-249516D01*
X148021Y-249516D02*
X142900Y-244395D01*
X137444Y-244395D02*
X134363Y-247476D01*
D15*
X32080Y-290438D03*
D14*
X38872Y-280333D02*
X46787Y-280333D01*
X32080Y-287125D02*
X32080Y-290438D01*
X32080Y-287125D02*
X38872Y-280333D01*
D15*
X13155Y-290844D03*
D14*
X29010Y-285688D02*
X39365Y-275333D01*
X18312Y-285688D02*
X13155Y-290844D01*
X18312Y-285688D02*
X29010Y-285688D01*
X39365Y-275333D02*
X46787Y-275333D01*
D15*
X26737Y-280150D03*
D14*
X29548Y-280150D02*
X39365Y-270333D01*
X29548Y-280150D02*
X26737Y-280150D01*
X39365Y-270333D02*
X46787Y-270333D01*
D15*
X77389Y-275456D03*
D14*
X72440Y-275456D01*
X71313Y-276583D01*
X65257Y-276583D01*
X63264Y-278576D02*
X63264Y-293581D01*
X55719Y-296415D02*
X54637Y-295333D01*
X46787Y-295333D01*
X60429Y-296415D02*
X63264Y-293581D01*
X60429Y-296415D02*
X55719Y-296415D01*
X63264Y-278576D02*
X65257Y-276583D01*
D15*
X57914Y-291117D03*
D14*
X57130Y-290333D02*
X46787Y-290333D01*
X57130Y-290333D02*
X57914Y-291117D01*
D15*
X69118Y-271285D03*
D14*
X58429Y-285333D02*
X46787Y-285333D01*
X60160Y-283602D02*
X60160Y-277212D01*
X66087Y-271285D02*
X69118Y-271285D01*
X60160Y-283602D02*
X58429Y-285333D01*
X60160Y-277212D02*
X66087Y-271285D01*
D15*
X110911Y-291209D03*
D14*
X121555Y-281325D02*
X122547Y-280333D01*
X121555Y-281325D02*
X114133Y-281325D01*
X112550Y-282908D01*
X112550Y-289570D01*
X110911Y-291209D01*
D15*
X106859Y-284773D03*
D14*
X114370Y-275333D02*
X122547Y-275333D01*
X112614Y-277090D02*
X112614Y-279158D01*
X106999Y-284773D01*
X106859Y-284773D01*
X112614Y-277090D02*
X114370Y-275333D01*
D15*
X109518Y-272375D03*
D14*
X113534Y-270333D02*
X122547Y-270333D01*
X111493Y-272375D02*
X109518Y-272375D01*
X111493Y-272375D02*
X113534Y-270333D01*
D15*
X156134Y-313352D03*
D14*
X135734Y-295333D02*
X122547Y-295333D01*
X138254Y-297853D02*
X144651Y-297853D01*
X156134Y-309336D01*
X156134Y-313352D01*
X138254Y-297853D02*
X135734Y-295333D01*
D15*
X140063Y-292169D03*
D14*
X138227Y-290333D01*
X122547Y-290333D01*
D15*
X156134Y-291690D03*
D14*
X147620Y-291690D01*
X141263Y-285333D01*
X122547Y-285333D01*
D15*
X32597Y-331775D03*
D14*
X36877Y-310333D02*
X46787Y-310333D01*
X35167Y-312043D02*
X35167Y-329205D01*
X32597Y-331775D01*
X35167Y-312043D02*
X36877Y-310333D01*
D15*
X13197Y-334522D03*
D14*
X35699Y-305333D02*
X46787Y-305333D01*
X35699Y-305333D02*
X32593Y-308440D01*
X32593Y-322335D01*
X20407Y-334522D02*
X13197Y-334522D01*
X20407Y-334522D02*
X32593Y-322335D01*
D15*
X27260Y-314463D03*
D14*
X27260Y-308114D01*
X35041Y-300333D02*
X46787Y-300333D01*
X35041Y-300333D02*
X27260Y-308114D01*
D15*
X74147Y-333932D03*
D14*
X54257Y-325333D02*
X46787Y-325333D01*
X65150Y-336226D02*
X71852Y-336226D01*
X74147Y-333932D01*
X65150Y-336226D02*
X54257Y-325333D01*
D15*
X57751Y-321172D03*
D14*
X56912Y-320333D02*
X46787Y-320333D01*
X56912Y-320333D02*
X57751Y-321172D01*
D15*
X67170Y-330644D03*
D14*
X65804Y-330644D01*
X63271Y-328111D01*
X63271Y-319200D01*
X59405Y-315333D02*
X46787Y-315333D01*
X59405Y-315333D02*
X63271Y-319200D01*
D15*
X102229Y-356880D03*
D14*
X105154Y-336855D02*
X112560Y-329449D01*
X105154Y-353955D02*
X102229Y-356880D01*
X105154Y-353955D02*
X105154Y-336855D01*
X112560Y-312898D02*
X115125Y-310333D01*
X122547Y-310333D01*
X112560Y-312898D02*
X112560Y-329449D01*
X114480Y-305333D02*
X122547Y-305333D01*
X114480Y-305333D02*
X110004Y-309810D01*
D15*
X99984Y-334533D03*
D14*
X104137Y-334533D02*
X110004Y-328666D01*
X104137Y-334533D02*
X99984Y-334533D01*
X110004Y-328666D02*
X110004Y-309810D01*
D15*
X93624Y-330492D03*
D14*
X94890Y-329226D01*
X105295Y-329226D01*
X115094Y-300364D02*
X122516Y-300364D01*
X122547Y-300333D01*
X107226Y-327296D02*
X105295Y-329226D01*
X107226Y-327296D02*
X107226Y-308232D01*
X115094Y-300364D01*
D15*
X148668Y-331588D03*
D14*
X136768Y-325333D02*
X122547Y-325333D01*
X136768Y-325333D02*
X141988Y-330553D01*
X147634Y-330553D01*
X148668Y-331588D01*
D15*
X144516Y-325115D03*
D14*
X141708Y-322306D01*
X134865Y-322306D01*
X132891Y-320333D02*
X122547Y-320333D01*
X132891Y-320333D02*
X134865Y-322306D01*
D15*
X156199Y-334032D03*
D14*
X132873Y-315333D02*
X122547Y-315333D01*
X156199Y-326494D02*
X156199Y-334032D01*
X156199Y-326494D02*
X149325Y-319619D01*
X137159Y-319619D01*
X132873Y-315333D01*
D15*
X31130Y-367924D03*
D14*
X31130Y-365445D01*
X36362Y-360213D01*
X36362Y-356487D01*
X37516Y-355333D02*
X46787Y-355333D01*
X37516Y-355333D02*
X36362Y-356487D01*
D15*
X13244Y-364969D03*
D14*
X46132Y-350988D02*
X46787Y-350333D01*
X46132Y-350988D02*
X35877Y-350988D01*
X32870Y-353995D01*
X29922Y-362485D02*
X15728Y-362485D01*
X13244Y-364969D01*
X32870Y-359537D02*
X32870Y-353995D01*
X32870Y-359537D02*
X29922Y-362485D01*
D15*
X27572Y-356626D03*
D14*
X32947Y-345333D02*
X46787Y-345333D01*
X27572Y-350708D02*
X27572Y-356626D01*
X27572Y-350708D02*
X32947Y-345333D01*
D15*
X70748Y-364304D03*
D14*
X55618Y-340333D02*
X46787Y-340333D01*
X70748Y-355464D02*
X70748Y-364304D01*
X70748Y-355464D02*
X55618Y-340333D01*
D15*
X55557Y-376575D03*
D14*
X55569Y-335333D02*
X46787Y-335333D01*
X76198Y-355962D02*
X76198Y-367492D01*
X72798Y-370892D01*
X62061Y-379236D02*
X58218Y-379236D01*
X55557Y-376575D01*
X62061Y-379236D02*
X70404Y-370892D01*
X76198Y-355962D02*
X55569Y-335333D01*
X70404Y-370892D02*
X72798Y-370892D01*
D15*
X72956Y-376538D03*
D14*
X79598Y-369896D01*
X55079Y-330333D02*
X46787Y-330333D01*
X79598Y-354852D02*
X79598Y-369896D01*
X79598Y-354852D02*
X55079Y-330333D01*
D15*
X113947Y-398571D03*
D14*
X113947Y-380556D01*
X109929Y-376537D01*
X109929Y-365863D01*
X114960Y-340333D02*
X122547Y-340333D01*
X112486Y-363306D02*
X109929Y-365863D01*
X112486Y-342807D02*
X114960Y-340333D01*
X112486Y-342807D02*
X112486Y-363306D01*
D15*
X105933Y-383010D03*
D14*
X115082Y-335333D02*
X122547Y-335333D01*
X107355Y-376594D02*
X107355Y-381587D01*
X105933Y-383010D01*
X107355Y-376594D02*
X107355Y-365098D01*
X110157Y-340258D02*
X115082Y-335333D01*
X110157Y-340258D02*
X110157Y-362296D01*
X107355Y-365098D01*
D15*
X99645Y-375610D03*
D14*
X104889Y-370367D01*
X104889Y-363976D01*
X107644Y-361220D02*
X107644Y-337531D01*
X114842Y-330333D01*
X122547Y-330333D01*
X107644Y-361220D02*
X104889Y-363976D01*
D15*
X156515Y-398687D03*
D14*
X156515Y-397444D01*
X151894Y-392823D01*
X144409Y-392823D01*
X142284Y-390699D01*
X142284Y-384946D01*
X145560Y-381671D02*
X156894Y-381671D01*
X163091Y-375473D01*
X163091Y-356799D01*
X161404Y-355112D01*
X122768Y-355112D01*
X122547Y-355333D01*
X145560Y-381671D02*
X142284Y-384946D01*
D15*
X148320Y-387336D03*
D14*
X161671Y-350333D02*
X122547Y-350333D01*
X165469Y-354131D02*
X165469Y-381241D01*
X159374Y-387336D01*
X148320Y-387336D01*
X165469Y-354131D02*
X161671Y-350333D01*
D15*
X163589Y-345371D03*
D14*
X163552Y-345333D01*
X122547Y-345333D01*
D15*
X29193Y-442263D03*
D14*
X29193Y-423715D01*
X33241Y-419667D02*
X46787Y-419667D01*
X33241Y-419667D02*
X29193Y-423715D01*
D15*
X13151Y-418114D03*
D14*
X31407Y-417200D02*
X33941Y-414667D01*
X46787Y-414667D01*
X14065Y-417200D02*
X13151Y-418114D01*
X14065Y-417200D02*
X31407Y-417200D01*
D15*
X29213Y-411902D03*
D14*
X31448Y-409667D01*
X46787Y-409667D01*
D15*
X79580Y-429618D03*
D14*
X74531Y-434667D02*
X46787Y-434667D01*
X74531Y-434667D02*
X79580Y-429618D01*
D15*
X62560Y-414410D03*
D14*
X60233Y-416736D01*
X60233Y-423642D02*
X54209Y-429667D01*
X46787Y-429667D01*
X60233Y-423642D02*
X60233Y-416736D01*
D15*
X76506Y-416346D03*
D14*
X68982Y-408822D01*
X60162Y-408822D02*
X57039Y-411945D01*
X57039Y-421836D02*
X54209Y-424667D01*
X46787Y-424667D01*
X60162Y-408822D02*
X68982Y-408822D01*
X57039Y-411945D02*
X57039Y-421836D01*
D15*
X105867Y-433695D03*
D14*
X114179Y-419667D02*
X122547Y-419667D01*
X111532Y-422314D02*
X111532Y-428030D01*
X105867Y-433695D01*
X111532Y-422314D02*
X114179Y-419667D01*
D15*
X104113Y-417967D03*
D14*
X109579Y-417806D02*
X112718Y-414667D01*
X122547Y-414667D01*
X104274Y-417806D02*
X104113Y-417967D01*
X104274Y-417806D02*
X109579Y-417806D01*
D15*
X108520Y-410339D03*
D14*
X122538Y-409676D02*
X122547Y-409667D01*
X122538Y-409676D02*
X109184Y-409676D01*
X108520Y-410339D01*
D15*
X156180Y-440491D03*
D14*
X147666Y-440491D01*
X141842Y-434667D01*
X122547Y-434667D01*
D15*
X140128Y-419027D03*
D14*
X132149Y-429667D02*
X122547Y-429667D01*
X140128Y-421688D02*
X140128Y-419027D01*
X140128Y-421688D02*
X132149Y-429667D01*
D15*
X156092Y-418849D03*
D14*
X131207Y-424667D02*
X122547Y-424667D01*
X131207Y-424667D02*
X134363Y-421510D01*
X134363Y-416809D01*
X137444Y-413729D02*
X142900Y-413729D01*
X148021Y-418849D02*
X156092Y-418849D01*
X148021Y-418849D02*
X142900Y-413729D01*
X137444Y-413729D02*
X134363Y-416809D01*
D15*
X32080Y-459771D03*
D14*
X38872Y-449667D02*
X46787Y-449667D01*
X32080Y-456458D02*
X32080Y-459771D01*
X32080Y-456458D02*
X38872Y-449667D01*
D15*
X13155Y-460178D03*
D14*
X29010Y-455021D02*
X39365Y-444667D01*
X18312Y-455021D02*
X13155Y-460178D01*
X18312Y-455021D02*
X29010Y-455021D01*
X39365Y-444667D02*
X46787Y-444667D01*
D15*
X26737Y-449484D03*
D14*
X29548Y-449484D02*
X39365Y-439667D01*
X29548Y-449484D02*
X26737Y-449484D01*
X39365Y-439667D02*
X46787Y-439667D01*
D15*
X77389Y-444789D03*
D14*
X72440Y-444789D01*
X71313Y-445916D01*
X65257Y-445916D01*
X63264Y-447910D02*
X63264Y-462914D01*
X55719Y-465749D02*
X54637Y-464667D01*
X46787Y-464667D01*
X60429Y-465749D02*
X63264Y-462914D01*
X60429Y-465749D02*
X55719Y-465749D01*
X63264Y-447910D02*
X65257Y-445916D01*
D15*
X57914Y-460451D03*
D14*
X57130Y-459667D02*
X46787Y-459667D01*
X57130Y-459667D02*
X57914Y-460451D01*
D15*
X69118Y-440619D03*
D14*
X58429Y-454667D02*
X46787Y-454667D01*
X60160Y-452936D02*
X60160Y-446545D01*
X66087Y-440619D02*
X69118Y-440619D01*
X60160Y-452936D02*
X58429Y-454667D01*
X60160Y-446545D02*
X66087Y-440619D01*
D15*
X110911Y-460542D03*
D14*
X121555Y-450659D02*
X122547Y-449667D01*
X121555Y-450659D02*
X114133Y-450659D01*
X112550Y-452241D01*
X112550Y-458903D01*
X110911Y-460542D01*
D15*
X106859Y-454107D03*
D14*
X114370Y-444667D02*
X122547Y-444667D01*
X112614Y-446423D02*
X112614Y-448491D01*
X106999Y-454107D01*
X106859Y-454107D01*
X112614Y-446423D02*
X114370Y-444667D01*
D15*
X109518Y-441708D03*
D14*
X113534Y-439667D02*
X122547Y-439667D01*
X111493Y-441708D02*
X109518Y-441708D01*
X111493Y-441708D02*
X113534Y-439667D01*
D15*
X156134Y-482685D03*
D14*
X135734Y-464667D02*
X122547Y-464667D01*
X138254Y-467186D02*
X144651Y-467186D01*
X156134Y-478669D01*
X156134Y-482685D01*
X138254Y-467186D02*
X135734Y-464667D01*
D15*
X140063Y-461503D03*
D14*
X138227Y-459667D01*
X122547Y-459667D01*
D15*
X156134Y-461024D03*
D14*
X147620Y-461024D01*
X141263Y-454667D01*
X122547Y-454667D01*
D15*
X32597Y-501108D03*
D14*
X36877Y-479667D02*
X46787Y-479667D01*
X35167Y-481377D02*
X35167Y-498538D01*
X32597Y-501108D01*
X35167Y-481377D02*
X36877Y-479667D01*
D15*
X13197Y-503855D03*
D14*
X35699Y-474667D02*
X46787Y-474667D01*
X35699Y-474667D02*
X32593Y-477773D01*
X32593Y-491669D01*
X20407Y-503855D02*
X13197Y-503855D01*
X20407Y-503855D02*
X32593Y-491669D01*
D15*
X27260Y-483796D03*
D14*
X27260Y-477447D01*
X35041Y-469667D02*
X46787Y-469667D01*
X35041Y-469667D02*
X27260Y-477447D01*
D15*
X74147Y-503265D03*
D14*
X54257Y-494667D02*
X46787Y-494667D01*
X65150Y-505560D02*
X71852Y-505560D01*
X74147Y-503265D01*
X65150Y-505560D02*
X54257Y-494667D01*
D15*
X57751Y-490506D03*
D14*
X56912Y-489667D02*
X46787Y-489667D01*
X56912Y-489667D02*
X57751Y-490506D01*
D15*
X67170Y-499977D03*
D14*
X65804Y-499977D01*
X63271Y-497444D01*
X63271Y-488533D01*
X59405Y-484667D02*
X46787Y-484667D01*
X59405Y-484667D02*
X63271Y-488533D01*
D15*
X102229Y-526213D03*
D14*
X105154Y-506188D02*
X112560Y-498782D01*
X105154Y-523288D02*
X102229Y-526213D01*
X105154Y-523288D02*
X105154Y-506188D01*
X112560Y-482232D02*
X115125Y-479667D01*
X122547Y-479667D01*
X112560Y-482232D02*
X112560Y-498782D01*
X114480Y-474667D02*
X122547Y-474667D01*
X114480Y-474667D02*
X110004Y-479143D01*
D15*
X99984Y-503866D03*
D14*
X104137Y-503866D02*
X110004Y-497999D01*
X104137Y-503866D02*
X99984Y-503866D01*
X110004Y-497999D02*
X110004Y-479143D01*
D15*
X93624Y-499826D03*
D14*
X94890Y-498560D01*
X105295Y-498560D01*
X115094Y-469698D02*
X122516Y-469698D01*
X122547Y-469667D01*
X107226Y-496629D02*
X105295Y-498560D01*
X107226Y-496629D02*
X107226Y-477565D01*
X115094Y-469698D01*
D15*
X148668Y-500921D03*
D14*
X136768Y-494667D02*
X122547Y-494667D01*
X136768Y-494667D02*
X141988Y-499886D01*
X147634Y-499886D01*
X148668Y-500921D01*
D15*
X144516Y-494448D03*
D14*
X141708Y-491640D01*
X134865Y-491640D01*
X132891Y-489667D02*
X122547Y-489667D01*
X132891Y-489667D02*
X134865Y-491640D01*
D15*
X156199Y-503366D03*
D14*
X132873Y-484667D02*
X122547Y-484667D01*
X156199Y-495827D02*
X156199Y-503366D01*
X156199Y-495827D02*
X149325Y-488953D01*
X137159Y-488953D01*
X132873Y-484667D01*
D15*
X31130Y-537257D03*
D14*
X31130Y-534779D01*
X36362Y-529546D01*
X36362Y-525821D01*
X37516Y-524667D02*
X46787Y-524667D01*
X37516Y-524667D02*
X36362Y-525821D01*
D15*
X13244Y-534302D03*
D14*
X46132Y-520321D02*
X46787Y-519667D01*
X46132Y-520321D02*
X35877Y-520321D01*
X32870Y-523328D01*
X29922Y-531818D02*
X15728Y-531818D01*
X13244Y-534302D01*
X32870Y-528870D02*
X32870Y-523328D01*
X32870Y-528870D02*
X29922Y-531818D01*
D15*
X27572Y-525960D03*
D14*
X32947Y-514667D02*
X46787Y-514667D01*
X27572Y-520041D02*
X27572Y-525960D01*
X27572Y-520041D02*
X32947Y-514667D01*
D15*
X70748Y-533637D03*
D14*
X55618Y-509667D02*
X46787Y-509667D01*
X70748Y-524797D02*
X70748Y-533637D01*
X70748Y-524797D02*
X55618Y-509667D01*
D15*
X55557Y-545909D03*
D14*
X55569Y-504667D02*
X46787Y-504667D01*
X76198Y-525295D02*
X76198Y-536826D01*
X72798Y-540226D01*
X62061Y-548569D02*
X58218Y-548569D01*
X55557Y-545909D01*
X62061Y-548569D02*
X70404Y-540226D01*
X76198Y-525295D02*
X55569Y-504667D01*
X70404Y-540226D02*
X72798Y-540226D01*
D15*
X72956Y-545871D03*
D14*
X79598Y-539229D01*
X55079Y-499667D02*
X46787Y-499667D01*
X79598Y-524185D02*
X79598Y-539229D01*
X79598Y-524185D02*
X55079Y-499667D01*
D15*
X113947Y-567905D03*
D14*
X113947Y-549889D01*
X109929Y-545871D01*
X109929Y-535197D01*
X114960Y-509667D02*
X122547Y-509667D01*
X112486Y-532639D02*
X109929Y-535197D01*
X112486Y-512140D02*
X114960Y-509667D01*
X112486Y-512140D02*
X112486Y-532639D01*
D15*
X105933Y-552343D03*
D14*
X115082Y-504667D02*
X122547Y-504667D01*
X107355Y-545927D02*
X107355Y-550921D01*
X105933Y-552343D01*
X107355Y-545927D02*
X107355Y-534431D01*
X110157Y-509591D02*
X115082Y-504667D01*
X110157Y-509591D02*
X110157Y-531629D01*
X107355Y-534431D01*
D15*
X99645Y-544944D03*
D14*
X104889Y-539700D01*
X104889Y-533309D01*
X107644Y-530553D02*
X107644Y-506864D01*
X114842Y-499667D01*
X122547Y-499667D01*
X107644Y-530553D02*
X104889Y-533309D01*
D15*
X156515Y-568020D03*
D14*
X156515Y-566777D01*
X151894Y-562156D01*
X144409Y-562156D01*
X142284Y-560032D01*
X142284Y-554280D01*
X145560Y-551004D02*
X156894Y-551004D01*
X163091Y-544806D01*
X163091Y-526132D01*
X161404Y-524445D01*
X122768Y-524445D01*
X122547Y-524667D01*
X145560Y-551004D02*
X142284Y-554280D01*
D15*
X148320Y-556670D03*
D14*
X161671Y-519667D02*
X122547Y-519667D01*
X165469Y-523464D02*
X165469Y-550574D01*
X159374Y-556670D01*
X148320Y-556670D01*
X165469Y-523464D02*
X161671Y-519667D01*
D15*
X163589Y-514704D03*
D14*
X163552Y-514667D01*
X122547Y-514667D01*
D15*
X29193Y-611596D03*
D14*
X29193Y-593048D01*
X33241Y-589000D02*
X46787Y-589000D01*
X33241Y-589000D02*
X29193Y-593048D01*
D15*
X13151Y-587447D03*
D14*
X31407Y-586534D02*
X33941Y-584000D01*
X46787Y-584000D01*
X14065Y-586534D02*
X13151Y-587447D01*
X14065Y-586534D02*
X31407Y-586534D01*
D15*
X29213Y-581236D03*
D14*
X31448Y-579000D01*
X46787Y-579000D01*
D15*
X79580Y-598951D03*
D14*
X74531Y-604000D02*
X46787Y-604000D01*
X74531Y-604000D02*
X79580Y-598951D01*
D15*
X62560Y-583743D03*
D14*
X60233Y-586070D01*
X60233Y-592975D02*
X54209Y-599000D01*
X46787Y-599000D01*
X60233Y-592975D02*
X60233Y-586070D01*
D15*
X76506Y-585680D03*
D14*
X68982Y-578155D01*
X60162Y-578155D02*
X57039Y-581278D01*
X57039Y-591169D02*
X54209Y-594000D01*
X46787Y-594000D01*
X60162Y-578155D02*
X68982Y-578155D01*
X57039Y-581278D02*
X57039Y-591169D01*
D15*
X105867Y-603028D03*
D14*
X114179Y-589000D02*
X122547Y-589000D01*
X111532Y-591648D02*
X111532Y-597363D01*
X105867Y-603028D01*
X111532Y-591648D02*
X114179Y-589000D01*
D15*
X104113Y-587301D03*
D14*
X109579Y-587139D02*
X112718Y-584000D01*
X122547Y-584000D01*
X104274Y-587139D02*
X104113Y-587301D01*
X104274Y-587139D02*
X109579Y-587139D01*
D15*
X108520Y-579673D03*
D14*
X122538Y-579009D02*
X122547Y-579000D01*
X122538Y-579009D02*
X109184Y-579009D01*
X108520Y-579673D01*
D15*
X156180Y-609825D03*
D14*
X147666Y-609825D01*
X141842Y-604000D01*
X122547Y-604000D01*
D15*
X140128Y-588360D03*
D14*
X132149Y-599000D02*
X122547Y-599000D01*
X140128Y-591021D02*
X140128Y-588360D01*
X140128Y-591021D02*
X132149Y-599000D01*
D15*
X156092Y-588183D03*
D14*
X131207Y-594000D02*
X122547Y-594000D01*
X131207Y-594000D02*
X134363Y-590844D01*
X134363Y-586143D01*
X137444Y-583062D02*
X142900Y-583062D01*
X148021Y-588183D02*
X156092Y-588183D01*
X148021Y-588183D02*
X142900Y-583062D01*
X137444Y-583062D02*
X134363Y-586143D01*
D15*
X32080Y-629105D03*
D14*
X38872Y-619000D02*
X46787Y-619000D01*
X32080Y-625792D02*
X32080Y-629105D01*
X32080Y-625792D02*
X38872Y-619000D01*
D15*
X13155Y-629511D03*
D14*
X29010Y-624355D02*
X39365Y-614000D01*
X18312Y-624355D02*
X13155Y-629511D01*
X18312Y-624355D02*
X29010Y-624355D01*
X39365Y-614000D02*
X46787Y-614000D01*
D15*
X26737Y-618817D03*
D14*
X29548Y-618817D02*
X39365Y-609000D01*
X29548Y-618817D02*
X26737Y-618817D01*
X39365Y-609000D02*
X46787Y-609000D01*
D15*
X77389Y-614123D03*
D14*
X72440Y-614123D01*
X71313Y-615250D01*
X65257Y-615250D01*
X63264Y-617243D02*
X63264Y-632247D01*
X55719Y-635082D02*
X54637Y-634000D01*
X46787Y-634000D01*
X60429Y-635082D02*
X63264Y-632247D01*
X60429Y-635082D02*
X55719Y-635082D01*
X63264Y-617243D02*
X65257Y-615250D01*
D15*
X57914Y-629784D03*
D14*
X57130Y-629000D02*
X46787Y-629000D01*
X57130Y-629000D02*
X57914Y-629784D01*
D15*
X69118Y-609952D03*
D14*
X58429Y-624000D02*
X46787Y-624000D01*
X60160Y-622269D02*
X60160Y-615879D01*
X66087Y-609952D02*
X69118Y-609952D01*
X60160Y-622269D02*
X58429Y-624000D01*
X60160Y-615879D02*
X66087Y-609952D01*
D15*
X110911Y-629876D03*
D14*
X121555Y-619992D02*
X122547Y-619000D01*
X121555Y-619992D02*
X114133Y-619992D01*
X112550Y-621574D01*
X112550Y-628237D01*
X110911Y-629876D01*
D15*
X106859Y-623440D03*
D14*
X114370Y-614000D02*
X122547Y-614000D01*
X112614Y-615756D02*
X112614Y-617825D01*
X106999Y-623440D01*
X106859Y-623440D01*
X112614Y-615756D02*
X114370Y-614000D01*
D15*
X109518Y-611042D03*
D14*
X113534Y-609000D02*
X122547Y-609000D01*
X111493Y-611042D02*
X109518Y-611042D01*
X111493Y-611042D02*
X113534Y-609000D01*
D15*
X156134Y-652018D03*
D14*
X135734Y-634000D02*
X122547Y-634000D01*
X138254Y-636520D02*
X144651Y-636520D01*
X156134Y-648003D01*
X156134Y-652018D01*
X138254Y-636520D02*
X135734Y-634000D01*
D15*
X140063Y-630836D03*
D14*
X138227Y-629000D01*
X122547Y-629000D01*
D15*
X156134Y-630357D03*
D14*
X147620Y-630357D01*
X141263Y-624000D01*
X122547Y-624000D01*
D15*
X32597Y-670442D03*
D14*
X36877Y-649000D02*
X46787Y-649000D01*
X35167Y-650710D02*
X35167Y-667872D01*
X32597Y-670442D01*
X35167Y-650710D02*
X36877Y-649000D01*
D15*
X13197Y-673188D03*
D14*
X35699Y-644000D02*
X46787Y-644000D01*
X35699Y-644000D02*
X32593Y-647106D01*
X32593Y-661002D01*
X20407Y-673188D02*
X13197Y-673188D01*
X20407Y-673188D02*
X32593Y-661002D01*
D15*
X27260Y-653129D03*
D14*
X27260Y-646780D01*
X35041Y-639000D02*
X46787Y-639000D01*
X35041Y-639000D02*
X27260Y-646780D01*
D15*
X74147Y-672599D03*
D14*
X54257Y-664000D02*
X46787Y-664000D01*
X65150Y-674893D02*
X71852Y-674893D01*
X74147Y-672599D01*
X65150Y-674893D02*
X54257Y-664000D01*
D15*
X57751Y-659839D03*
D14*
X56912Y-659000D02*
X46787Y-659000D01*
X56912Y-659000D02*
X57751Y-659839D01*
D15*
X67170Y-669311D03*
D14*
X65804Y-669311D01*
X63271Y-666778D01*
X63271Y-657866D01*
X59405Y-654000D02*
X46787Y-654000D01*
X59405Y-654000D02*
X63271Y-657866D01*
D15*
X102229Y-695547D03*
D14*
X105154Y-675521D02*
X112560Y-668116D01*
X105154Y-692621D02*
X102229Y-695547D01*
X105154Y-692621D02*
X105154Y-675521D01*
X112560Y-651565D02*
X115125Y-649000D01*
X122547Y-649000D01*
X112560Y-651565D02*
X112560Y-668116D01*
X114480Y-644000D02*
X122547Y-644000D01*
X114480Y-644000D02*
X110004Y-648477D01*
D15*
X99984Y-673199D03*
D14*
X104137Y-673199D02*
X110004Y-667333D01*
X104137Y-673199D02*
X99984Y-673199D01*
X110004Y-667333D02*
X110004Y-648477D01*
D15*
X93624Y-669159D03*
D14*
X94890Y-667893D01*
X105295Y-667893D01*
X115094Y-639031D02*
X122516Y-639031D01*
X122547Y-639000D01*
X107226Y-665962D02*
X105295Y-667893D01*
X107226Y-665962D02*
X107226Y-646899D01*
X115094Y-639031D01*
D15*
X148668Y-670254D03*
D14*
X136768Y-664000D02*
X122547Y-664000D01*
X136768Y-664000D02*
X141988Y-669220D01*
X147634Y-669220D01*
X148668Y-670254D01*
D15*
X144516Y-663782D03*
D14*
X141708Y-660973D01*
X134865Y-660973D01*
X132891Y-659000D02*
X122547Y-659000D01*
X132891Y-659000D02*
X134865Y-660973D01*
D15*
X156199Y-672699D03*
D14*
X132873Y-654000D02*
X122547Y-654000D01*
X156199Y-665160D02*
X156199Y-672699D01*
X156199Y-665160D02*
X149325Y-658286D01*
X137159Y-658286D01*
X132873Y-654000D01*
D15*
X31130Y-706590D03*
D14*
X31130Y-704112D01*
X36362Y-698879D01*
X36362Y-695154D01*
X37516Y-694000D02*
X46787Y-694000D01*
X37516Y-694000D02*
X36362Y-695154D01*
D15*
X13244Y-703635D03*
D14*
X46132Y-689655D02*
X46787Y-689000D01*
X46132Y-689655D02*
X35877Y-689655D01*
X32870Y-692662D01*
X29922Y-701152D02*
X15728Y-701152D01*
X13244Y-703635D01*
X32870Y-698203D02*
X32870Y-692662D01*
X32870Y-698203D02*
X29922Y-701152D01*
D15*
X27572Y-695293D03*
D14*
X32947Y-684000D02*
X46787Y-684000D01*
X27572Y-689375D02*
X27572Y-695293D01*
X27572Y-689375D02*
X32947Y-684000D01*
D15*
X70748Y-702971D03*
D14*
X55618Y-679000D02*
X46787Y-679000D01*
X70748Y-694130D02*
X70748Y-702971D01*
X70748Y-694130D02*
X55618Y-679000D01*
D15*
X55557Y-715242D03*
D14*
X55569Y-674000D02*
X46787Y-674000D01*
X76198Y-694629D02*
X76198Y-706159D01*
X72798Y-709559D01*
X62061Y-717903D02*
X58218Y-717903D01*
X55557Y-715242D01*
X62061Y-717903D02*
X70404Y-709559D01*
X76198Y-694629D02*
X55569Y-674000D01*
X70404Y-709559D02*
X72798Y-709559D01*
D15*
X72956Y-715204D03*
D14*
X79598Y-708563D01*
X55079Y-669000D02*
X46787Y-669000D01*
X79598Y-693518D02*
X79598Y-708563D01*
X79598Y-693518D02*
X55079Y-669000D01*
D15*
X113947Y-737238D03*
D14*
X113947Y-719223D01*
X109929Y-715204D01*
X109929Y-704530D01*
X114960Y-679000D02*
X122547Y-679000D01*
X112486Y-701973D02*
X109929Y-704530D01*
X112486Y-681474D02*
X114960Y-679000D01*
X112486Y-681474D02*
X112486Y-701973D01*
D15*
X105933Y-721676D03*
D14*
X115082Y-674000D02*
X122547Y-674000D01*
X107355Y-715261D02*
X107355Y-720254D01*
X105933Y-721676D01*
X107355Y-715261D02*
X107355Y-703765D01*
X110157Y-678924D02*
X115082Y-674000D01*
X110157Y-678924D02*
X110157Y-700963D01*
X107355Y-703765D01*
D15*
X99645Y-714277D03*
D14*
X104889Y-709033D01*
X104889Y-702642D01*
X107644Y-699887D02*
X107644Y-676198D01*
X114842Y-669000D01*
X122547Y-669000D01*
X107644Y-699887D02*
X104889Y-702642D01*
D15*
X156515Y-737353D03*
D14*
X156515Y-736110D01*
X151894Y-731490D01*
X144409Y-731490D01*
X142284Y-729365D01*
X142284Y-723613D01*
X145560Y-720337D02*
X156894Y-720337D01*
X163091Y-714139D01*
X163091Y-695466D01*
X161404Y-693779D01*
X122768Y-693779D01*
X122547Y-694000D01*
X145560Y-720337D02*
X142284Y-723613D01*
D15*
X148320Y-726003D03*
D14*
X161671Y-689000D02*
X122547Y-689000D01*
X165469Y-692798D02*
X165469Y-719908D01*
X159374Y-726003D01*
X148320Y-726003D01*
X165469Y-692798D02*
X161671Y-689000D01*
D15*
X163589Y-684037D03*
D14*
X163552Y-684000D01*
X122547Y-684000D01*
D15*
X29193Y-780930D03*
D14*
X29193Y-762382D01*
X33241Y-758333D02*
X46787Y-758333D01*
X33241Y-758333D02*
X29193Y-762382D01*
D15*
X13151Y-756781D03*
D14*
X31407Y-755867D02*
X33941Y-753333D01*
X46787Y-753333D01*
X14065Y-755867D02*
X13151Y-756781D01*
X14065Y-755867D02*
X31407Y-755867D01*
D15*
X29213Y-750569D03*
D14*
X31448Y-748333D01*
X46787Y-748333D01*
D15*
X79580Y-768285D03*
D14*
X74531Y-773333D02*
X46787Y-773333D01*
X74531Y-773333D02*
X79580Y-768285D01*
D15*
X62560Y-753076D03*
D14*
X60233Y-755403D01*
X60233Y-762309D02*
X54209Y-768333D01*
X46787Y-768333D01*
X60233Y-762309D02*
X60233Y-755403D01*
D15*
X76506Y-755013D03*
D14*
X68982Y-747489D01*
X60162Y-747489D02*
X57039Y-750612D01*
X57039Y-760503D02*
X54209Y-763333D01*
X46787Y-763333D01*
X60162Y-747489D02*
X68982Y-747489D01*
X57039Y-750612D02*
X57039Y-760503D01*
D15*
X105867Y-772361D03*
D14*
X114179Y-758333D02*
X122547Y-758333D01*
X111532Y-760981D02*
X111532Y-766697D01*
X105867Y-772361D01*
X111532Y-760981D02*
X114179Y-758333D01*
D15*
X104113Y-756634D03*
D14*
X109579Y-756472D02*
X112718Y-753333D01*
X122547Y-753333D01*
X104274Y-756472D02*
X104113Y-756634D01*
X104274Y-756472D02*
X109579Y-756472D01*
D15*
X108520Y-749006D03*
D14*
X122538Y-748342D02*
X122547Y-748333D01*
X122538Y-748342D02*
X109184Y-748342D01*
X108520Y-749006D01*
D15*
X156180Y-779158D03*
D14*
X147666Y-779158D01*
X141842Y-773333D01*
X122547Y-773333D01*
D15*
X140128Y-757693D03*
D14*
X132149Y-768333D02*
X122547Y-768333D01*
X140128Y-760355D02*
X140128Y-757693D01*
X140128Y-760355D02*
X132149Y-768333D01*
D15*
X156092Y-757516D03*
D14*
X131207Y-763333D02*
X122547Y-763333D01*
X131207Y-763333D02*
X134363Y-760177D01*
X134363Y-755476D01*
X137444Y-752395D02*
X142900Y-752395D01*
X148021Y-757516D02*
X156092Y-757516D01*
X148021Y-757516D02*
X142900Y-752395D01*
X137444Y-752395D02*
X134363Y-755476D01*
D15*
X32080Y-798438D03*
D14*
X38872Y-788333D02*
X46787Y-788333D01*
X32080Y-795125D02*
X32080Y-798438D01*
X32080Y-795125D02*
X38872Y-788333D01*
D15*
X13155Y-798844D03*
D14*
X29010Y-793688D02*
X39365Y-783333D01*
X18312Y-793688D02*
X13155Y-798844D01*
X18312Y-793688D02*
X29010Y-793688D01*
X39365Y-783333D02*
X46787Y-783333D01*
D15*
X26737Y-788150D03*
D14*
X29548Y-788150D02*
X39365Y-778333D01*
X29548Y-788150D02*
X26737Y-788150D01*
X39365Y-778333D02*
X46787Y-778333D01*
D15*
X77389Y-783456D03*
D14*
X72440Y-783456D01*
X71313Y-784583D01*
X65257Y-784583D01*
X63264Y-786576D02*
X63264Y-801581D01*
X55719Y-804415D02*
X54637Y-803333D01*
X46787Y-803333D01*
X60429Y-804415D02*
X63264Y-801581D01*
X60429Y-804415D02*
X55719Y-804415D01*
X63264Y-786576D02*
X65257Y-784583D01*
D15*
X57914Y-799117D03*
D14*
X57130Y-798333D02*
X46787Y-798333D01*
X57130Y-798333D02*
X57914Y-799117D01*
D15*
X69118Y-779285D03*
D14*
X58429Y-793333D02*
X46787Y-793333D01*
X60160Y-791602D02*
X60160Y-785212D01*
X66087Y-779285D02*
X69118Y-779285D01*
X60160Y-791602D02*
X58429Y-793333D01*
X60160Y-785212D02*
X66087Y-779285D01*
D15*
X110911Y-799209D03*
D14*
X121555Y-789325D02*
X122547Y-788333D01*
X121555Y-789325D02*
X114133Y-789325D01*
X112550Y-790908D01*
X112550Y-797570D01*
X110911Y-799209D01*
D15*
X106859Y-792773D03*
D14*
X114370Y-783333D02*
X122547Y-783333D01*
X112614Y-785090D02*
X112614Y-787158D01*
X106999Y-792773D01*
X106859Y-792773D01*
X112614Y-785090D02*
X114370Y-783333D01*
D15*
X109518Y-780375D03*
D14*
X113534Y-778333D02*
X122547Y-778333D01*
X111493Y-780375D02*
X109518Y-780375D01*
X111493Y-780375D02*
X113534Y-778333D01*
D15*
X156134Y-821352D03*
D14*
X135734Y-803333D02*
X122547Y-803333D01*
X138254Y-805853D02*
X144651Y-805853D01*
X156134Y-817336D01*
X156134Y-821352D01*
X138254Y-805853D02*
X135734Y-803333D01*
D15*
X140063Y-800169D03*
D14*
X138227Y-798333D01*
X122547Y-798333D01*
D15*
X156134Y-799690D03*
D14*
X147620Y-799690D01*
X141263Y-793333D01*
X122547Y-793333D01*
D15*
X32597Y-839775D03*
D14*
X36877Y-818333D02*
X46787Y-818333D01*
X35167Y-820043D02*
X35167Y-837205D01*
X32597Y-839775D01*
X35167Y-820043D02*
X36877Y-818333D01*
D15*
X13197Y-842522D03*
D14*
X35699Y-813333D02*
X46787Y-813333D01*
X35699Y-813333D02*
X32593Y-816440D01*
X32593Y-830335D01*
X20407Y-842522D02*
X13197Y-842522D01*
X20407Y-842522D02*
X32593Y-830335D01*
D15*
X27260Y-822463D03*
D14*
X27260Y-816114D01*
X35041Y-808333D02*
X46787Y-808333D01*
X35041Y-808333D02*
X27260Y-816114D01*
D15*
X74147Y-841932D03*
D14*
X54257Y-833333D02*
X46787Y-833333D01*
X65150Y-844226D02*
X71852Y-844226D01*
X74147Y-841932D01*
X65150Y-844226D02*
X54257Y-833333D01*
D15*
X57751Y-829172D03*
D14*
X56912Y-828333D02*
X46787Y-828333D01*
X56912Y-828333D02*
X57751Y-829172D01*
D15*
X67170Y-838644D03*
D14*
X65804Y-838644D01*
X63271Y-836111D01*
X63271Y-827200D01*
X59405Y-823333D02*
X46787Y-823333D01*
X59405Y-823333D02*
X63271Y-827200D01*
D15*
X102229Y-864880D03*
D14*
X105154Y-844855D02*
X112560Y-837449D01*
X105154Y-861955D02*
X102229Y-864880D01*
X105154Y-861955D02*
X105154Y-844855D01*
X112560Y-820898D02*
X115125Y-818333D01*
X122547Y-818333D01*
X112560Y-820898D02*
X112560Y-837449D01*
X114480Y-813333D02*
X122547Y-813333D01*
X114480Y-813333D02*
X110004Y-817810D01*
D15*
X99984Y-842533D03*
D14*
X104137Y-842533D02*
X110004Y-836666D01*
X104137Y-842533D02*
X99984Y-842533D01*
X110004Y-836666D02*
X110004Y-817810D01*
D15*
X93624Y-838492D03*
D14*
X94890Y-837226D01*
X105295Y-837226D01*
X115094Y-808364D02*
X122516Y-808364D01*
X122547Y-808333D01*
X107226Y-835296D02*
X105295Y-837226D01*
X107226Y-835296D02*
X107226Y-816232D01*
X115094Y-808364D01*
D15*
X148668Y-839588D03*
D14*
X136768Y-833333D02*
X122547Y-833333D01*
X136768Y-833333D02*
X141988Y-838553D01*
X147634Y-838553D01*
X148668Y-839588D01*
D15*
X144516Y-833115D03*
D14*
X141708Y-830306D01*
X134865Y-830306D01*
X132891Y-828333D02*
X122547Y-828333D01*
X132891Y-828333D02*
X134865Y-830306D01*
D15*
X156199Y-842032D03*
D14*
X132873Y-823333D02*
X122547Y-823333D01*
X156199Y-834494D02*
X156199Y-842032D01*
X156199Y-834494D02*
X149325Y-827619D01*
X137159Y-827619D01*
X132873Y-823333D01*
D15*
X31130Y-875924D03*
D14*
X31130Y-873445D01*
X36362Y-868213D01*
X36362Y-864487D01*
X37516Y-863333D02*
X46787Y-863333D01*
X37516Y-863333D02*
X36362Y-864487D01*
D15*
X13244Y-872969D03*
D14*
X46132Y-858988D02*
X46787Y-858333D01*
X46132Y-858988D02*
X35877Y-858988D01*
X32870Y-861995D01*
X29922Y-870485D02*
X15728Y-870485D01*
X13244Y-872969D01*
X32870Y-867537D02*
X32870Y-861995D01*
X32870Y-867537D02*
X29922Y-870485D01*
D15*
X27572Y-864626D03*
D14*
X32947Y-853333D02*
X46787Y-853333D01*
X27572Y-858708D02*
X27572Y-864626D01*
X27572Y-858708D02*
X32947Y-853333D01*
D15*
X70748Y-872304D03*
D14*
X55618Y-848333D02*
X46787Y-848333D01*
X70748Y-863464D02*
X70748Y-872304D01*
X70748Y-863464D02*
X55618Y-848333D01*
D15*
X55557Y-884575D03*
D14*
X55569Y-843333D02*
X46787Y-843333D01*
X76198Y-863962D02*
X76198Y-875492D01*
X72798Y-878892D01*
X62061Y-887236D02*
X58218Y-887236D01*
X55557Y-884575D01*
X62061Y-887236D02*
X70404Y-878892D01*
X76198Y-863962D02*
X55569Y-843333D01*
X70404Y-878892D02*
X72798Y-878892D01*
D15*
X72956Y-884538D03*
D14*
X79598Y-877896D01*
X55079Y-838333D02*
X46787Y-838333D01*
X79598Y-862852D02*
X79598Y-877896D01*
X79598Y-862852D02*
X55079Y-838333D01*
D15*
X113947Y-906571D03*
D14*
X113947Y-888556D01*
X109929Y-884537D01*
X109929Y-873863D01*
X114960Y-848333D02*
X122547Y-848333D01*
X112486Y-871306D02*
X109929Y-873863D01*
X112486Y-850807D02*
X114960Y-848333D01*
X112486Y-850807D02*
X112486Y-871306D01*
D15*
X105933Y-891010D03*
D14*
X115082Y-843333D02*
X122547Y-843333D01*
X107355Y-884594D02*
X107355Y-889587D01*
X105933Y-891010D01*
X107355Y-884594D02*
X107355Y-873098D01*
X110157Y-848258D02*
X115082Y-843333D01*
X110157Y-848258D02*
X110157Y-870296D01*
X107355Y-873098D01*
D15*
X99645Y-883610D03*
D14*
X104889Y-878367D01*
X104889Y-871976D01*
X107644Y-869220D02*
X107644Y-845531D01*
X114842Y-838333D01*
X122547Y-838333D01*
X107644Y-869220D02*
X104889Y-871976D01*
D15*
X156515Y-906687D03*
D14*
X156515Y-905444D01*
X151894Y-900823D01*
X144409Y-900823D01*
X142284Y-898699D01*
X142284Y-892946D01*
X145560Y-889671D02*
X156894Y-889671D01*
X163091Y-883473D01*
X163091Y-864799D01*
X161404Y-863112D01*
X122768Y-863112D01*
X122547Y-863333D01*
X145560Y-889671D02*
X142284Y-892946D01*
D15*
X148320Y-895336D03*
D14*
X161671Y-858333D02*
X122547Y-858333D01*
X165469Y-862131D02*
X165469Y-889241D01*
X159374Y-895336D01*
X148320Y-895336D01*
X165469Y-862131D02*
X161671Y-858333D01*
D15*
X163589Y-853371D03*
D14*
X163552Y-853333D01*
X122547Y-853333D01*
D15*
X29193Y-950263D03*
D14*
X29193Y-931715D01*
X33241Y-927667D02*
X46787Y-927667D01*
X33241Y-927667D02*
X29193Y-931715D01*
D15*
X13151Y-926114D03*
D14*
X31407Y-925200D02*
X33941Y-922667D01*
X46787Y-922667D01*
X14065Y-925200D02*
X13151Y-926114D01*
X14065Y-925200D02*
X31407Y-925200D01*
D15*
X29213Y-919902D03*
D14*
X31448Y-917667D01*
X46787Y-917667D01*
D15*
X79580Y-937618D03*
D14*
X74531Y-942667D02*
X46787Y-942667D01*
X74531Y-942667D02*
X79580Y-937618D01*
D15*
X62560Y-922410D03*
D14*
X60233Y-924736D01*
X60233Y-931642D02*
X54209Y-937667D01*
X46787Y-937667D01*
X60233Y-931642D02*
X60233Y-924736D01*
D15*
X76506Y-924346D03*
D14*
X68982Y-916822D01*
X60162Y-916822D02*
X57039Y-919945D01*
X57039Y-929836D02*
X54209Y-932667D01*
X46787Y-932667D01*
X60162Y-916822D02*
X68982Y-916822D01*
X57039Y-919945D02*
X57039Y-929836D01*
D15*
X105867Y-941695D03*
D14*
X114179Y-927667D02*
X122547Y-927667D01*
X111532Y-930314D02*
X111532Y-936030D01*
X105867Y-941695D01*
X111532Y-930314D02*
X114179Y-927667D01*
D15*
X104113Y-925967D03*
D14*
X109579Y-925806D02*
X112718Y-922667D01*
X122547Y-922667D01*
X104274Y-925806D02*
X104113Y-925967D01*
X104274Y-925806D02*
X109579Y-925806D01*
D15*
X108520Y-918339D03*
D14*
X122538Y-917676D02*
X122547Y-917667D01*
X122538Y-917676D02*
X109184Y-917676D01*
X108520Y-918339D01*
D15*
X156180Y-948491D03*
D14*
X147666Y-948491D01*
X141842Y-942667D01*
X122547Y-942667D01*
D15*
X140128Y-927027D03*
D14*
X132149Y-937667D02*
X122547Y-937667D01*
X140128Y-929688D02*
X140128Y-927027D01*
X140128Y-929688D02*
X132149Y-937667D01*
D15*
X156092Y-926849D03*
D14*
X131207Y-932667D02*
X122547Y-932667D01*
X131207Y-932667D02*
X134363Y-929510D01*
X134363Y-924809D01*
X137444Y-921729D02*
X142900Y-921729D01*
X148021Y-926849D02*
X156092Y-926849D01*
X148021Y-926849D02*
X142900Y-921729D01*
X137444Y-921729D02*
X134363Y-924809D01*
D15*
X32080Y-967771D03*
D14*
X38872Y-957667D02*
X46787Y-957667D01*
X32080Y-964458D02*
X32080Y-967771D01*
X32080Y-964458D02*
X38872Y-957667D01*
D15*
X13155Y-968178D03*
D14*
X29010Y-963021D02*
X39365Y-952667D01*
X18312Y-963021D02*
X13155Y-968178D01*
X18312Y-963021D02*
X29010Y-963021D01*
X39365Y-952667D02*
X46787Y-952667D01*
D15*
X26737Y-957484D03*
D14*
X29548Y-957484D02*
X39365Y-947667D01*
X29548Y-957484D02*
X26737Y-957484D01*
X39365Y-947667D02*
X46787Y-947667D01*
D15*
X77389Y-952789D03*
D14*
X72440Y-952789D01*
X71313Y-953916D01*
X65257Y-953916D01*
X63264Y-955910D02*
X63264Y-970914D01*
X55719Y-973749D02*
X54637Y-972667D01*
X46787Y-972667D01*
X60429Y-973749D02*
X63264Y-970914D01*
X60429Y-973749D02*
X55719Y-973749D01*
X63264Y-955910D02*
X65257Y-953916D01*
D15*
X57914Y-968451D03*
D14*
X57130Y-967667D02*
X46787Y-967667D01*
X57130Y-967667D02*
X57914Y-968451D01*
D15*
X69118Y-948619D03*
D14*
X58429Y-962667D02*
X46787Y-962667D01*
X60160Y-960936D02*
X60160Y-954545D01*
X66087Y-948619D02*
X69118Y-948619D01*
X60160Y-960936D02*
X58429Y-962667D01*
X60160Y-954545D02*
X66087Y-948619D01*
D15*
X110911Y-968542D03*
D14*
X121555Y-958659D02*
X122547Y-957667D01*
X121555Y-958659D02*
X114133Y-958659D01*
X112550Y-960241D01*
X112550Y-966903D01*
X110911Y-968542D01*
D15*
X106859Y-962107D03*
D14*
X114370Y-952667D02*
X122547Y-952667D01*
X112614Y-954423D02*
X112614Y-956491D01*
X106999Y-962107D01*
X106859Y-962107D01*
X112614Y-954423D02*
X114370Y-952667D01*
D15*
X109518Y-949708D03*
D14*
X113534Y-947667D02*
X122547Y-947667D01*
X111493Y-949708D02*
X109518Y-949708D01*
X111493Y-949708D02*
X113534Y-947667D01*
D15*
X156134Y-990685D03*
D14*
X135734Y-972667D02*
X122547Y-972667D01*
X138254Y-975186D02*
X144651Y-975186D01*
X156134Y-986669D01*
X156134Y-990685D01*
X138254Y-975186D02*
X135734Y-972667D01*
D15*
X140063Y-969503D03*
D14*
X138227Y-967667D01*
X122547Y-967667D01*
D15*
X156134Y-969024D03*
D14*
X147620Y-969024D01*
X141263Y-962667D01*
X122547Y-962667D01*
D15*
X32597Y-1009108D03*
D14*
X36877Y-987667D02*
X46787Y-987667D01*
X35167Y-989377D02*
X35167Y-1006538D01*
X32597Y-1009108D01*
X35167Y-989377D02*
X36877Y-987667D01*
D15*
X13197Y-1011855D03*
D14*
X35699Y-982667D02*
X46787Y-982667D01*
X35699Y-982667D02*
X32593Y-985773D01*
X32593Y-999669D01*
X20407Y-1011855D02*
X13197Y-1011855D01*
X20407Y-1011855D02*
X32593Y-999669D01*
D15*
X27260Y-991796D03*
D14*
X27260Y-985447D01*
X35041Y-977667D02*
X46787Y-977667D01*
X35041Y-977667D02*
X27260Y-985447D01*
D15*
X74147Y-1011265D03*
D14*
X54257Y-1002667D02*
X46787Y-1002667D01*
X65150Y-1013560D02*
X71852Y-1013560D01*
X74147Y-1011265D01*
X65150Y-1013560D02*
X54257Y-1002667D01*
D15*
X57751Y-998506D03*
D14*
X56912Y-997667D02*
X46787Y-997667D01*
X56912Y-997667D02*
X57751Y-998506D01*
D15*
X67170Y-1007977D03*
D14*
X65804Y-1007977D01*
X63271Y-1005444D01*
X63271Y-996533D01*
X59405Y-992667D02*
X46787Y-992667D01*
X59405Y-992667D02*
X63271Y-996533D01*
D15*
X102229Y-1034213D03*
D14*
X105154Y-1014188D02*
X112560Y-1006782D01*
X105154Y-1031288D02*
X102229Y-1034213D01*
X105154Y-1031288D02*
X105154Y-1014188D01*
X112560Y-990232D02*
X115125Y-987667D01*
X122547Y-987667D01*
X112560Y-990232D02*
X112560Y-1006782D01*
X114480Y-982667D02*
X122547Y-982667D01*
X114480Y-982667D02*
X110004Y-987143D01*
D15*
X99984Y-1011866D03*
D14*
X104137Y-1011866D02*
X110004Y-1005999D01*
X104137Y-1011866D02*
X99984Y-1011866D01*
X110004Y-1005999D02*
X110004Y-987143D01*
D15*
X93624Y-1007826D03*
D14*
X94890Y-1006560D01*
X105295Y-1006560D01*
X115094Y-977698D02*
X122516Y-977698D01*
X122547Y-977667D01*
X107226Y-1004629D02*
X105295Y-1006560D01*
X107226Y-1004629D02*
X107226Y-985565D01*
X115094Y-977698D01*
D15*
X148668Y-1008921D03*
D14*
X136768Y-1002667D02*
X122547Y-1002667D01*
X136768Y-1002667D02*
X141988Y-1007886D01*
X147634Y-1007886D01*
X148668Y-1008921D01*
D15*
X144516Y-1002448D03*
D14*
X141708Y-999640D01*
X134865Y-999640D01*
X132891Y-997667D02*
X122547Y-997667D01*
X132891Y-997667D02*
X134865Y-999640D01*
D15*
X156199Y-1011366D03*
D14*
X132873Y-992667D02*
X122547Y-992667D01*
X156199Y-1003827D02*
X156199Y-1011366D01*
X156199Y-1003827D02*
X149325Y-996953D01*
X137159Y-996953D01*
X132873Y-992667D01*
D15*
X31130Y-1045257D03*
D14*
X31130Y-1042779D01*
X36362Y-1037546D01*
X36362Y-1033821D01*
X37516Y-1032667D02*
X46787Y-1032667D01*
X37516Y-1032667D02*
X36362Y-1033821D01*
D15*
X13244Y-1042302D03*
D14*
X46132Y-1028321D02*
X46787Y-1027667D01*
X46132Y-1028321D02*
X35877Y-1028321D01*
X32870Y-1031328D01*
X29922Y-1039818D02*
X15728Y-1039818D01*
X13244Y-1042302D01*
X32870Y-1036870D02*
X32870Y-1031328D01*
X32870Y-1036870D02*
X29922Y-1039818D01*
D15*
X27572Y-1033960D03*
D14*
X32947Y-1022667D02*
X46787Y-1022667D01*
X27572Y-1028041D02*
X27572Y-1033960D01*
X27572Y-1028041D02*
X32947Y-1022667D01*
D15*
X70748Y-1041637D03*
D14*
X55618Y-1017667D02*
X46787Y-1017667D01*
X70748Y-1032797D02*
X70748Y-1041637D01*
X70748Y-1032797D02*
X55618Y-1017667D01*
D15*
X55557Y-1053909D03*
D14*
X55569Y-1012667D02*
X46787Y-1012667D01*
X76198Y-1033295D02*
X76198Y-1044826D01*
X72798Y-1048226D01*
X62061Y-1056569D02*
X58218Y-1056569D01*
X55557Y-1053909D01*
X62061Y-1056569D02*
X70404Y-1048226D01*
X76198Y-1033295D02*
X55569Y-1012667D01*
X70404Y-1048226D02*
X72798Y-1048226D01*
D15*
X72956Y-1053871D03*
D14*
X79598Y-1047229D01*
X55079Y-1007667D02*
X46787Y-1007667D01*
X79598Y-1032185D02*
X79598Y-1047229D01*
X79598Y-1032185D02*
X55079Y-1007667D01*
D15*
X113947Y-1075905D03*
D14*
X113947Y-1057889D01*
X109929Y-1053871D01*
X109929Y-1043197D01*
X114960Y-1017667D02*
X122547Y-1017667D01*
X112486Y-1040639D02*
X109929Y-1043197D01*
X112486Y-1020140D02*
X114960Y-1017667D01*
X112486Y-1020140D02*
X112486Y-1040639D01*
D15*
X105933Y-1060343D03*
D14*
X115082Y-1012667D02*
X122547Y-1012667D01*
X107355Y-1053927D02*
X107355Y-1058921D01*
X105933Y-1060343D01*
X107355Y-1053927D02*
X107355Y-1042431D01*
X110157Y-1017591D02*
X115082Y-1012667D01*
X110157Y-1017591D02*
X110157Y-1039629D01*
X107355Y-1042431D01*
D15*
X99645Y-1052944D03*
D14*
X104889Y-1047700D01*
X104889Y-1041309D01*
X107644Y-1038553D02*
X107644Y-1014864D01*
X114842Y-1007667D01*
X122547Y-1007667D01*
X107644Y-1038553D02*
X104889Y-1041309D01*
D15*
X156515Y-1076020D03*
D14*
X156515Y-1074777D01*
X151894Y-1070156D01*
X144409Y-1070156D01*
X142284Y-1068032D01*
X142284Y-1062280D01*
X145560Y-1059004D02*
X156894Y-1059004D01*
X163091Y-1052806D01*
X163091Y-1034132D01*
X161404Y-1032445D01*
X122768Y-1032445D01*
X122547Y-1032667D01*
X145560Y-1059004D02*
X142284Y-1062280D01*
D15*
X148320Y-1064670D03*
D14*
X161671Y-1027667D02*
X122547Y-1027667D01*
X165469Y-1031464D02*
X165469Y-1058574D01*
X159374Y-1064670D01*
X148320Y-1064670D01*
X165469Y-1031464D02*
X161671Y-1027667D01*
D15*
X163589Y-1022704D03*
D14*
X163552Y-1022667D01*
X122547Y-1022667D01*
D15*
X29193Y-1119596D03*
D14*
X29193Y-1101048D01*
X33241Y-1097000D02*
X46787Y-1097000D01*
X33241Y-1097000D02*
X29193Y-1101048D01*
D15*
X13151Y-1095447D03*
D14*
X31407Y-1094534D02*
X33941Y-1092000D01*
X46787Y-1092000D01*
X14065Y-1094534D02*
X13151Y-1095447D01*
X14065Y-1094534D02*
X31407Y-1094534D01*
D15*
X29213Y-1089236D03*
D14*
X31448Y-1087000D01*
X46787Y-1087000D01*
D15*
X79580Y-1106951D03*
D14*
X74531Y-1112000D02*
X46787Y-1112000D01*
X74531Y-1112000D02*
X79580Y-1106951D01*
D15*
X62560Y-1091743D03*
D14*
X60233Y-1094070D01*
X60233Y-1100975D02*
X54209Y-1107000D01*
X46787Y-1107000D01*
X60233Y-1100975D02*
X60233Y-1094070D01*
D15*
X76506Y-1093680D03*
D14*
X68982Y-1086155D01*
X60162Y-1086155D02*
X57039Y-1089278D01*
X57039Y-1099169D02*
X54209Y-1102000D01*
X46787Y-1102000D01*
X60162Y-1086155D02*
X68982Y-1086155D01*
X57039Y-1089278D02*
X57039Y-1099169D01*
D15*
X105867Y-1111028D03*
D14*
X114179Y-1097000D02*
X122547Y-1097000D01*
X111532Y-1099648D02*
X111532Y-1105363D01*
X105867Y-1111028D01*
X111532Y-1099648D02*
X114179Y-1097000D01*
D15*
X104113Y-1095301D03*
D14*
X109579Y-1095139D02*
X112718Y-1092000D01*
X122547Y-1092000D01*
X104274Y-1095139D02*
X104113Y-1095301D01*
X104274Y-1095139D02*
X109579Y-1095139D01*
D15*
X108520Y-1087673D03*
D14*
X122538Y-1087009D02*
X122547Y-1087000D01*
X122538Y-1087009D02*
X109184Y-1087009D01*
X108520Y-1087673D01*
D15*
X156180Y-1117825D03*
D14*
X147666Y-1117825D01*
X141842Y-1112000D01*
X122547Y-1112000D01*
D15*
X140128Y-1096360D03*
D14*
X132149Y-1107000D02*
X122547Y-1107000D01*
X140128Y-1099021D02*
X140128Y-1096360D01*
X140128Y-1099021D02*
X132149Y-1107000D01*
D15*
X156092Y-1096183D03*
D14*
X131207Y-1102000D02*
X122547Y-1102000D01*
X131207Y-1102000D02*
X134363Y-1098844D01*
X134363Y-1094143D01*
X137444Y-1091062D02*
X142900Y-1091062D01*
X148021Y-1096183D02*
X156092Y-1096183D01*
X148021Y-1096183D02*
X142900Y-1091062D01*
X137444Y-1091062D02*
X134363Y-1094143D01*
D15*
X32080Y-1137105D03*
D14*
X38872Y-1127000D02*
X46787Y-1127000D01*
X32080Y-1133792D02*
X32080Y-1137105D01*
X32080Y-1133792D02*
X38872Y-1127000D01*
D15*
X13155Y-1137511D03*
D14*
X29010Y-1132355D02*
X39365Y-1122000D01*
X18312Y-1132355D02*
X13155Y-1137511D01*
X18312Y-1132355D02*
X29010Y-1132355D01*
X39365Y-1122000D02*
X46787Y-1122000D01*
D15*
X26737Y-1126817D03*
D14*
X29548Y-1126817D02*
X39365Y-1117000D01*
X29548Y-1126817D02*
X26737Y-1126817D01*
X39365Y-1117000D02*
X46787Y-1117000D01*
D15*
X77389Y-1122123D03*
D14*
X72440Y-1122123D01*
X71313Y-1123250D01*
X65257Y-1123250D01*
X63264Y-1125243D02*
X63264Y-1140247D01*
X55719Y-1143082D02*
X54637Y-1142000D01*
X46787Y-1142000D01*
X60429Y-1143082D02*
X63264Y-1140247D01*
X60429Y-1143082D02*
X55719Y-1143082D01*
X63264Y-1125243D02*
X65257Y-1123250D01*
D15*
X57914Y-1137784D03*
D14*
X57130Y-1137000D02*
X46787Y-1137000D01*
X57130Y-1137000D02*
X57914Y-1137784D01*
D15*
X69118Y-1117952D03*
D14*
X58429Y-1132000D02*
X46787Y-1132000D01*
X60160Y-1130269D02*
X60160Y-1123879D01*
X66087Y-1117952D02*
X69118Y-1117952D01*
X60160Y-1130269D02*
X58429Y-1132000D01*
X60160Y-1123879D02*
X66087Y-1117952D01*
D15*
X110911Y-1137876D03*
D14*
X121555Y-1127992D02*
X122547Y-1127000D01*
X121555Y-1127992D02*
X114133Y-1127992D01*
X112550Y-1129574D01*
X112550Y-1136237D01*
X110911Y-1137876D01*
D15*
X106859Y-1131440D03*
D14*
X114370Y-1122000D02*
X122547Y-1122000D01*
X112614Y-1123756D02*
X112614Y-1125825D01*
X106999Y-1131440D01*
X106859Y-1131440D01*
X112614Y-1123756D02*
X114370Y-1122000D01*
D15*
X109518Y-1119042D03*
D14*
X113534Y-1117000D02*
X122547Y-1117000D01*
X111493Y-1119042D02*
X109518Y-1119042D01*
X111493Y-1119042D02*
X113534Y-1117000D01*
D15*
X156134Y-1160018D03*
D14*
X135734Y-1142000D02*
X122547Y-1142000D01*
X138254Y-1144520D02*
X144651Y-1144520D01*
X156134Y-1156003D01*
X156134Y-1160018D01*
X138254Y-1144520D02*
X135734Y-1142000D01*
D15*
X140063Y-1138836D03*
D14*
X138227Y-1137000D01*
X122547Y-1137000D01*
D15*
X156134Y-1138357D03*
D14*
X147620Y-1138357D01*
X141263Y-1132000D01*
X122547Y-1132000D01*
D15*
X32597Y-1178442D03*
D14*
X36877Y-1157000D02*
X46787Y-1157000D01*
X35167Y-1158710D02*
X35167Y-1175872D01*
X32597Y-1178442D01*
X35167Y-1158710D02*
X36877Y-1157000D01*
D15*
X13197Y-1181188D03*
D14*
X35699Y-1152000D02*
X46787Y-1152000D01*
X35699Y-1152000D02*
X32593Y-1155106D01*
X32593Y-1169002D01*
X20407Y-1181188D02*
X13197Y-1181188D01*
X20407Y-1181188D02*
X32593Y-1169002D01*
D15*
X27260Y-1161129D03*
D14*
X27260Y-1154780D01*
X35041Y-1147000D02*
X46787Y-1147000D01*
X35041Y-1147000D02*
X27260Y-1154780D01*
D15*
X74147Y-1180599D03*
D14*
X54257Y-1172000D02*
X46787Y-1172000D01*
X65150Y-1182893D02*
X71852Y-1182893D01*
X74147Y-1180599D01*
X65150Y-1182893D02*
X54257Y-1172000D01*
D15*
X57751Y-1167839D03*
D14*
X56912Y-1167000D02*
X46787Y-1167000D01*
X56912Y-1167000D02*
X57751Y-1167839D01*
D15*
X67170Y-1177311D03*
D14*
X65804Y-1177311D01*
X63271Y-1174778D01*
X63271Y-1165866D01*
X59405Y-1162000D02*
X46787Y-1162000D01*
X59405Y-1162000D02*
X63271Y-1165866D01*
D15*
X102229Y-1203547D03*
D14*
X105154Y-1183521D02*
X112560Y-1176116D01*
X105154Y-1200621D02*
X102229Y-1203547D01*
X105154Y-1200621D02*
X105154Y-1183521D01*
X112560Y-1159565D02*
X115125Y-1157000D01*
X122547Y-1157000D01*
X112560Y-1159565D02*
X112560Y-1176116D01*
X114480Y-1152000D02*
X122547Y-1152000D01*
X114480Y-1152000D02*
X110004Y-1156477D01*
D15*
X99984Y-1181199D03*
D14*
X104137Y-1181199D02*
X110004Y-1175333D01*
X104137Y-1181199D02*
X99984Y-1181199D01*
X110004Y-1175333D02*
X110004Y-1156477D01*
D15*
X93624Y-1177159D03*
D14*
X94890Y-1175893D01*
X105295Y-1175893D01*
X115094Y-1147031D02*
X122516Y-1147031D01*
X122547Y-1147000D01*
X107226Y-1173962D02*
X105295Y-1175893D01*
X107226Y-1173962D02*
X107226Y-1154899D01*
X115094Y-1147031D01*
D15*
X148668Y-1178254D03*
D14*
X136768Y-1172000D02*
X122547Y-1172000D01*
X136768Y-1172000D02*
X141988Y-1177220D01*
X147634Y-1177220D01*
X148668Y-1178254D01*
D15*
X144516Y-1171782D03*
D14*
X141708Y-1168973D01*
X134865Y-1168973D01*
X132891Y-1167000D02*
X122547Y-1167000D01*
X132891Y-1167000D02*
X134865Y-1168973D01*
D15*
X156199Y-1180699D03*
D14*
X132873Y-1162000D02*
X122547Y-1162000D01*
X156199Y-1173160D02*
X156199Y-1180699D01*
X156199Y-1173160D02*
X149325Y-1166286D01*
X137159Y-1166286D01*
X132873Y-1162000D01*
D15*
X31130Y-1214590D03*
D14*
X31130Y-1212112D01*
X36362Y-1206879D01*
X36362Y-1203154D01*
X37516Y-1202000D02*
X46787Y-1202000D01*
X37516Y-1202000D02*
X36362Y-1203154D01*
D15*
X13244Y-1211635D03*
D14*
X46132Y-1197655D02*
X46787Y-1197000D01*
X46132Y-1197655D02*
X35877Y-1197655D01*
X32870Y-1200662D01*
X29922Y-1209152D02*
X15728Y-1209152D01*
X13244Y-1211635D01*
X32870Y-1206203D02*
X32870Y-1200662D01*
X32870Y-1206203D02*
X29922Y-1209152D01*
D15*
X27572Y-1203293D03*
D14*
X32947Y-1192000D02*
X46787Y-1192000D01*
X27572Y-1197375D02*
X27572Y-1203293D01*
X27572Y-1197375D02*
X32947Y-1192000D01*
D15*
X70748Y-1210971D03*
D14*
X55618Y-1187000D02*
X46787Y-1187000D01*
X70748Y-1202130D02*
X70748Y-1210971D01*
X70748Y-1202130D02*
X55618Y-1187000D01*
D15*
X55557Y-1223242D03*
D14*
X55569Y-1182000D02*
X46787Y-1182000D01*
X76198Y-1202629D02*
X76198Y-1214159D01*
X72798Y-1217559D01*
X62061Y-1225903D02*
X58218Y-1225903D01*
X55557Y-1223242D01*
X62061Y-1225903D02*
X70404Y-1217559D01*
X76198Y-1202629D02*
X55569Y-1182000D01*
X70404Y-1217559D02*
X72798Y-1217559D01*
D15*
X72956Y-1223204D03*
D14*
X79598Y-1216563D01*
X55079Y-1177000D02*
X46787Y-1177000D01*
X79598Y-1201518D02*
X79598Y-1216563D01*
X79598Y-1201518D02*
X55079Y-1177000D01*
D15*
X113947Y-1245238D03*
D14*
X113947Y-1227223D01*
X109929Y-1223204D01*
X109929Y-1212530D01*
X114960Y-1187000D02*
X122547Y-1187000D01*
X112486Y-1209973D02*
X109929Y-1212530D01*
X112486Y-1189474D02*
X114960Y-1187000D01*
X112486Y-1189474D02*
X112486Y-1209973D01*
D15*
X105933Y-1229676D03*
D14*
X115082Y-1182000D02*
X122547Y-1182000D01*
X107355Y-1223261D02*
X107355Y-1228254D01*
X105933Y-1229676D01*
X107355Y-1223261D02*
X107355Y-1211765D01*
X110157Y-1186924D02*
X115082Y-1182000D01*
X110157Y-1186924D02*
X110157Y-1208963D01*
X107355Y-1211765D01*
D15*
X99645Y-1222277D03*
D14*
X104889Y-1217033D01*
X104889Y-1210642D01*
X107644Y-1207887D02*
X107644Y-1184198D01*
X114842Y-1177000D01*
X122547Y-1177000D01*
X107644Y-1207887D02*
X104889Y-1210642D01*
D15*
X156515Y-1245353D03*
D14*
X156515Y-1244110D01*
X151894Y-1239490D01*
X144409Y-1239490D01*
X142284Y-1237365D01*
X142284Y-1231613D01*
X145560Y-1228337D02*
X156894Y-1228337D01*
X163091Y-1222139D01*
X163091Y-1203466D01*
X161404Y-1201779D01*
X122768Y-1201779D01*
X122547Y-1202000D01*
X145560Y-1228337D02*
X142284Y-1231613D01*
D15*
X148320Y-1234003D03*
D14*
X161671Y-1197000D02*
X122547Y-1197000D01*
X165469Y-1200798D02*
X165469Y-1227908D01*
X159374Y-1234003D01*
X148320Y-1234003D01*
X165469Y-1200798D02*
X161671Y-1197000D01*
D15*
X163589Y-1192037D03*
D14*
X163552Y-1192000D01*
X122547Y-1192000D01*
D15*
X29193Y-1288930D03*
D14*
X29193Y-1270382D01*
X33241Y-1266333D02*
X46787Y-1266333D01*
X33241Y-1266333D02*
X29193Y-1270382D01*
D15*
X13151Y-1264781D03*
D14*
X31407Y-1263867D02*
X33941Y-1261333D01*
X46787Y-1261333D01*
X14065Y-1263867D02*
X13151Y-1264781D01*
X14065Y-1263867D02*
X31407Y-1263867D01*
D15*
X29213Y-1258569D03*
D14*
X31448Y-1256333D01*
X46787Y-1256333D01*
D15*
X79580Y-1276285D03*
D14*
X74531Y-1281333D02*
X46787Y-1281333D01*
X74531Y-1281333D02*
X79580Y-1276285D01*
D15*
X62560Y-1261076D03*
D14*
X60233Y-1263403D01*
X60233Y-1270309D02*
X54209Y-1276333D01*
X46787Y-1276333D01*
X60233Y-1270309D02*
X60233Y-1263403D01*
D15*
X76506Y-1263013D03*
D14*
X68982Y-1255489D01*
X60162Y-1255489D02*
X57039Y-1258612D01*
X57039Y-1268503D02*
X54209Y-1271333D01*
X46787Y-1271333D01*
X60162Y-1255489D02*
X68982Y-1255489D01*
X57039Y-1258612D02*
X57039Y-1268503D01*
D15*
X105867Y-1280361D03*
D14*
X114179Y-1266333D02*
X122547Y-1266333D01*
X111532Y-1268981D02*
X111532Y-1274697D01*
X105867Y-1280361D01*
X111532Y-1268981D02*
X114179Y-1266333D01*
D15*
X104113Y-1264634D03*
D14*
X109579Y-1264472D02*
X112718Y-1261333D01*
X122547Y-1261333D01*
X104274Y-1264472D02*
X104113Y-1264634D01*
X104274Y-1264472D02*
X109579Y-1264472D01*
D15*
X108520Y-1257006D03*
D14*
X122538Y-1256342D02*
X122547Y-1256333D01*
X122538Y-1256342D02*
X109184Y-1256342D01*
X108520Y-1257006D01*
D15*
X156180Y-1287158D03*
D14*
X147666Y-1287158D01*
X141842Y-1281333D01*
X122547Y-1281333D01*
D15*
X140128Y-1265693D03*
D14*
X132149Y-1276333D02*
X122547Y-1276333D01*
X140128Y-1268355D02*
X140128Y-1265693D01*
X140128Y-1268355D02*
X132149Y-1276333D01*
D15*
X156092Y-1265516D03*
D14*
X131207Y-1271333D02*
X122547Y-1271333D01*
X131207Y-1271333D02*
X134363Y-1268177D01*
X134363Y-1263476D01*
X137444Y-1260395D02*
X142900Y-1260395D01*
X148021Y-1265516D02*
X156092Y-1265516D01*
X148021Y-1265516D02*
X142900Y-1260395D01*
X137444Y-1260395D02*
X134363Y-1263476D01*
D15*
X32080Y-1306438D03*
D14*
X38872Y-1296333D02*
X46787Y-1296333D01*
X32080Y-1303125D02*
X32080Y-1306438D01*
X32080Y-1303125D02*
X38872Y-1296333D01*
D15*
X13155Y-1306844D03*
D14*
X29010Y-1301688D02*
X39365Y-1291333D01*
X18312Y-1301688D02*
X13155Y-1306844D01*
X18312Y-1301688D02*
X29010Y-1301688D01*
X39365Y-1291333D02*
X46787Y-1291333D01*
D15*
X26737Y-1296150D03*
D14*
X29548Y-1296150D02*
X39365Y-1286333D01*
X29548Y-1296150D02*
X26737Y-1296150D01*
X39365Y-1286333D02*
X46787Y-1286333D01*
D15*
X77389Y-1291456D03*
D14*
X72440Y-1291456D01*
X71313Y-1292583D01*
X65257Y-1292583D01*
X63264Y-1294576D02*
X63264Y-1309581D01*
X55719Y-1312415D02*
X54637Y-1311333D01*
X46787Y-1311333D01*
X60429Y-1312415D02*
X63264Y-1309581D01*
X60429Y-1312415D02*
X55719Y-1312415D01*
X63264Y-1294576D02*
X65257Y-1292583D01*
D15*
X57914Y-1307117D03*
D14*
X57130Y-1306333D02*
X46787Y-1306333D01*
X57130Y-1306333D02*
X57914Y-1307117D01*
D15*
X69118Y-1287285D03*
D14*
X58429Y-1301333D02*
X46787Y-1301333D01*
X60160Y-1299602D02*
X60160Y-1293212D01*
X66087Y-1287285D02*
X69118Y-1287285D01*
X60160Y-1299602D02*
X58429Y-1301333D01*
X60160Y-1293212D02*
X66087Y-1287285D01*
D15*
X110911Y-1307209D03*
D14*
X121555Y-1297325D02*
X122547Y-1296333D01*
X121555Y-1297325D02*
X114133Y-1297325D01*
X112550Y-1298908D01*
X112550Y-1305570D01*
X110911Y-1307209D01*
D15*
X106859Y-1300773D03*
D14*
X114370Y-1291333D02*
X122547Y-1291333D01*
X112614Y-1293090D02*
X112614Y-1295158D01*
X106999Y-1300773D01*
X106859Y-1300773D01*
X112614Y-1293090D02*
X114370Y-1291333D01*
D15*
X109518Y-1288375D03*
D14*
X113534Y-1286333D02*
X122547Y-1286333D01*
X111493Y-1288375D02*
X109518Y-1288375D01*
X111493Y-1288375D02*
X113534Y-1286333D01*
D15*
X156134Y-1329352D03*
D14*
X135734Y-1311333D02*
X122547Y-1311333D01*
X138254Y-1313853D02*
X144651Y-1313853D01*
X156134Y-1325336D01*
X156134Y-1329352D01*
X138254Y-1313853D02*
X135734Y-1311333D01*
D15*
X140063Y-1308169D03*
D14*
X138227Y-1306333D01*
X122547Y-1306333D01*
D15*
X156134Y-1307690D03*
D14*
X147620Y-1307690D01*
X141263Y-1301333D01*
X122547Y-1301333D01*
D15*
X13155Y-101853D03*
X58150Y-102396D03*
X100864Y-103021D03*
X13392Y-144403D03*
X13303Y-187767D03*
X57936Y-186349D03*
X98504Y-194310D03*
X98031Y-229211D03*
X55545Y-228843D03*
X13426Y-228843D03*
X148117Y-228916D03*
X140349Y-144631D03*
X140039Y-102265D03*
X135894Y-163884D03*
X13155Y-271187D03*
X58150Y-271730D03*
X100864Y-272354D03*
X13392Y-313736D03*
X13303Y-357100D03*
X57936Y-355682D03*
X98504Y-363643D03*
X98031Y-398544D03*
X55545Y-398176D03*
X13426Y-398176D03*
X148117Y-398249D03*
X140349Y-313965D03*
X140039Y-271599D03*
X135894Y-333217D03*
X13155Y-440520D03*
X58150Y-441063D03*
X100864Y-441688D03*
X13392Y-483069D03*
X13303Y-526434D03*
X57936Y-525015D03*
X98504Y-532977D03*
X98031Y-567877D03*
X55545Y-567510D03*
X13426Y-567510D03*
X148117Y-567582D03*
X140349Y-483298D03*
X140039Y-440932D03*
X135894Y-502550D03*
X13155Y-609853D03*
X58150Y-610396D03*
X100864Y-611021D03*
X13392Y-652403D03*
X13303Y-695767D03*
X57936Y-694349D03*
X98504Y-702310D03*
X98031Y-737211D03*
X55545Y-736843D03*
X13426Y-736843D03*
X148117Y-736916D03*
X140349Y-652631D03*
X140039Y-610265D03*
X135894Y-671884D03*
X13155Y-779187D03*
X58150Y-779730D03*
X100864Y-780354D03*
X13392Y-821736D03*
X13303Y-865100D03*
X57936Y-863682D03*
X98504Y-871643D03*
X98031Y-906544D03*
X55545Y-906176D03*
X13426Y-906176D03*
X148117Y-906249D03*
X140349Y-821965D03*
X140039Y-779599D03*
X135894Y-841217D03*
X13155Y-948520D03*
X58150Y-949063D03*
X100864Y-949688D03*
X13392Y-991069D03*
X13303Y-1034434D03*
X57936Y-1033015D03*
X98504Y-1040977D03*
X98031Y-1075877D03*
X55545Y-1075510D03*
X13426Y-1075510D03*
X148117Y-1075582D03*
X140349Y-991298D03*
X140039Y-948932D03*
X135894Y-1010550D03*
X13155Y-1117853D03*
X58150Y-1118396D03*
X100864Y-1119021D03*
X13392Y-1160403D03*
X13303Y-1203767D03*
X57936Y-1202349D03*
X98504Y-1210310D03*
X98031Y-1245211D03*
X55545Y-1244843D03*
X13426Y-1244843D03*
X148117Y-1244916D03*
X140349Y-1160631D03*
X140039Y-1118265D03*
X135894Y-1179884D03*
X13155Y-1287187D03*
X58150Y-1287730D03*
X100864Y-1288354D03*
X13392Y-1329736D03*
X140349Y-1329965D03*
X140039Y-1287599D03*
D14*
X149300Y-192600D02*
X155975Y-192600D01*
X157793Y-194418D01*
D15*
X157793Y-194418D03*
D16*
X135900Y-191000D02*
X122547Y-191000D01*
X135900Y-191000D02*
X137500Y-192600D01*
X149300Y-192600D01*
D14*
X149300Y-361933D02*
X155975Y-361933D01*
X157793Y-363752D01*
D15*
X157793Y-363752D03*
D16*
X135900Y-360333D02*
X122547Y-360333D01*
X135900Y-360333D02*
X137500Y-361933D01*
X149300Y-361933D01*
D14*
X149300Y-531267D02*
X155975Y-531267D01*
X157793Y-533085D01*
D15*
X157793Y-533085D03*
D16*
X135900Y-529667D02*
X122547Y-529667D01*
X135900Y-529667D02*
X137500Y-531267D01*
X149300Y-531267D01*
D14*
X149300Y-700600D02*
X155975Y-700600D01*
X157793Y-702418D01*
D15*
X157793Y-702418D03*
D16*
X135900Y-699000D02*
X122547Y-699000D01*
X135900Y-699000D02*
X137500Y-700600D01*
X149300Y-700600D01*
D14*
X149300Y-869933D02*
X155975Y-869933D01*
X157793Y-871752D01*
D15*
X157793Y-871752D03*
D16*
X135900Y-868333D02*
X122547Y-868333D01*
X135900Y-868333D02*
X137500Y-869933D01*
X149300Y-869933D01*
D14*
X149300Y-1039267D02*
X155975Y-1039267D01*
X157793Y-1041085D01*
D15*
X157793Y-1041085D03*
D16*
X135900Y-1037667D02*
X122547Y-1037667D01*
X135900Y-1037667D02*
X137500Y-1039267D01*
X149300Y-1039267D01*
D14*
X149300Y-1208600D02*
X155975Y-1208600D01*
X157793Y-1210418D01*
D15*
X157793Y-1210418D03*
D16*
X135900Y-1207000D02*
X122547Y-1207000D01*
X135900Y-1207000D02*
X137500Y-1208600D01*
X149300Y-1208600D01*
D14*
X149300Y-1377933D02*
X155975Y-1377933D01*
X157793Y-1379752D01*
D15*
X157793Y-1379752D03*
D16*
X135900Y-1376333D02*
X122547Y-1376333D01*
X135900Y-1376333D02*
X137500Y-1377933D01*
X149300Y-1377933D01*
D17*
X29628Y-1452760D02*
X22804Y-1445936D01*
X22804Y-1433152D01*
X153886Y-1452270D02*
X162870Y-1443286D01*
X153886Y-1452270D02*
X153396Y-1452760D01*
X29628Y-1452760D01*
X157793Y-1379752D02*
X162870Y-1384828D01*
X162870Y-1443286D01*
M02*
