G04 EAGLE Gerber RS-274X export*
G75*
%MOMM*%
%FSLAX34Y34*%
%LPD*%
%INCopper Layer 15*%
%IPPOS*%
%AMOC8*
5,1,8,0,0,1.08239X$1,22.5*%
G01*
%ADD10C,1.524000*%
%ADD11C,0.300000*%
%ADD12C,0.600000*%
%ADD13C,0.127000*%


D10*
X21167Y-1437700D03*
X46567Y-1437700D03*
X71967Y-1437700D03*
X97367Y-1437700D03*
X122767Y-1437700D03*
X148167Y-1437700D03*
X21167Y-1412300D03*
X46567Y-1412300D03*
X71967Y-1412300D03*
X97367Y-1412300D03*
X122767Y-1412300D03*
X148167Y-1412300D03*
D11*
X38358Y-1045000D03*
X38358Y-1215000D03*
X37609Y-369516D03*
X38167Y-538000D03*
X38167Y-707000D03*
X38175Y-877000D03*
X39175Y-199000D03*
X53000Y-1376000D03*
D12*
X125500Y-1388000D03*
D11*
X19000Y-187000D03*
X18689Y-358000D03*
X18689Y-527000D03*
X19689Y-1034000D03*
X19689Y-864000D03*
X20879Y-1205105D03*
X20689Y-1369000D03*
X18689Y-696000D03*
X22825Y-110000D03*
X23825Y-278000D03*
X23479Y-446575D03*
X23364Y-615690D03*
X23364Y-785690D03*
X24825Y-958000D03*
X24825Y-1128000D03*
X26054Y-1297000D03*
X30000Y-113000D03*
X30000Y-282000D03*
X29992Y-450000D03*
X29992Y-619000D03*
X29992Y-789000D03*
X32987Y-959361D03*
X32988Y-1127694D03*
X32000Y-1301000D03*
X37000Y-106519D03*
X35000Y-78000D03*
X40507Y-82600D03*
X50200Y-116421D03*
D13*
X42000Y-124621D01*
X42000Y-134000D01*
X40000Y-136000D01*
X37000Y-136000D01*
D11*
X37000Y-136000D03*
X51941Y-106641D03*
D13*
X45359Y-106641D01*
D11*
X36000Y-143000D03*
D13*
X32000Y-120000D02*
X45359Y-106641D01*
X32000Y-120000D02*
X32000Y-139000D01*
X36000Y-143000D01*
D11*
X57000Y-112000D03*
D13*
X56581Y-111581D01*
X45419Y-111581D01*
X37000Y-120000D02*
X37000Y-129000D01*
D11*
X37000Y-129000D03*
D13*
X37000Y-120000D02*
X45419Y-111581D01*
D11*
X62807Y-107100D03*
X59000Y-80000D03*
X71000Y-80000D03*
X77064Y-107064D03*
D13*
X77064Y-115064D01*
X54000Y-138128D01*
X54000Y-144040D01*
D11*
X54000Y-144040D03*
X78000Y-80000D03*
D13*
X78000Y-99000D01*
X57000Y-120000D01*
D11*
X57000Y-120000D03*
X90000Y-107535D03*
X97000Y-79705D03*
X118373Y-80006D03*
D13*
X111839Y-86540D01*
X103835Y-86540D01*
X97000Y-79705D01*
D11*
X104000Y-80000D03*
X111273Y-79900D03*
X39000Y-190000D03*
X37000Y-160000D03*
X38707Y-183000D03*
X46917Y-183017D03*
D13*
X57017Y-183017D02*
X61517Y-187517D01*
X57017Y-183017D02*
X46917Y-183017D01*
D11*
X36377Y-226877D03*
D13*
X61517Y-202483D02*
X61517Y-187517D01*
X61517Y-202483D02*
X37123Y-226877D01*
X36377Y-226877D01*
D11*
X47000Y-190100D03*
D13*
X47000Y-201100D01*
X40100Y-208000D01*
X36000Y-208000D01*
D11*
X36000Y-208000D03*
X55200Y-190400D03*
X36500Y-216500D03*
D13*
X55200Y-200800D02*
X55200Y-190400D01*
X55200Y-200800D02*
X39500Y-216500D01*
X36500Y-216500D01*
D11*
X66477Y-187477D03*
X56000Y-159465D03*
X72662Y-160338D03*
X77000Y-192373D03*
X80000Y-222000D03*
D13*
X75000Y-194373D02*
X77000Y-192373D01*
X75000Y-194373D02*
X75000Y-217000D01*
X80000Y-222000D01*
D11*
X81900Y-186300D03*
X63500Y-216600D03*
D13*
X71400Y-208700D01*
X76100Y-186300D02*
X81900Y-186300D01*
X76100Y-186300D02*
X71400Y-191000D01*
X71400Y-208700D01*
D11*
X98000Y-193524D03*
X79960Y-213500D03*
D13*
X79960Y-211564D02*
X98000Y-193524D01*
X79960Y-211564D02*
X79960Y-213500D01*
D11*
X98000Y-186357D03*
X97000Y-160000D03*
X106000Y-159465D03*
X107324Y-188894D03*
D13*
X101000Y-213000D02*
X106000Y-218000D01*
X107324Y-198764D02*
X107324Y-188894D01*
X107324Y-198764D02*
X101000Y-205087D01*
X101000Y-213000D01*
D11*
X106000Y-218000D03*
X112600Y-193700D03*
D13*
X112600Y-202400D01*
X106000Y-209000D01*
D11*
X106000Y-209000D03*
X118100Y-189100D03*
D13*
X118100Y-203900D02*
X115000Y-207000D01*
X118100Y-203900D02*
X118100Y-189100D01*
D11*
X115000Y-207000D03*
X139500Y-153400D03*
X133200Y-185800D03*
X147000Y-159000D03*
X141100Y-186573D03*
D13*
X147000Y-186573D01*
X147000Y-217000D01*
X148000Y-218000D01*
D11*
X148000Y-218000D03*
X142000Y-194413D03*
D13*
X142000Y-207000D01*
D11*
X142000Y-207000D03*
X153128Y-186373D03*
D13*
X153000Y-186501D01*
X153000Y-205000D01*
D11*
X153000Y-205000D03*
X100500Y-108000D03*
D13*
X100500Y-136500D01*
X109000Y-145000D01*
X114000Y-145000D01*
D11*
X114000Y-145000D03*
X109907Y-108356D03*
X112707Y-121960D03*
D13*
X112707Y-111355D02*
X109907Y-108556D01*
X109907Y-108356D01*
X112707Y-111355D02*
X112707Y-121960D01*
D11*
X117000Y-108400D03*
D13*
X120000Y-111400D01*
X120000Y-122000D01*
D11*
X120000Y-122000D03*
X123800Y-106500D03*
X153541Y-106541D03*
D13*
X153500Y-106500D01*
X123800Y-106500D01*
D11*
X138946Y-79946D03*
X151600Y-80306D03*
X139000Y-115759D03*
D13*
X145000Y-123000D02*
X150000Y-123000D01*
X139000Y-117000D02*
X139000Y-115759D01*
D11*
X150000Y-123000D03*
D13*
X145000Y-123000D02*
X139000Y-117000D01*
D11*
X146100Y-115759D03*
X153500Y-115800D03*
X37000Y-275852D03*
X35000Y-247333D03*
X40507Y-251933D03*
X50200Y-285754D03*
D13*
X42000Y-293954D01*
X42000Y-303333D01*
X40000Y-305333D01*
X37000Y-305333D01*
D11*
X37000Y-305333D03*
X51941Y-275974D03*
D13*
X45359Y-275974D01*
D11*
X36000Y-312333D03*
D13*
X32000Y-289333D02*
X45359Y-275974D01*
X32000Y-289333D02*
X32000Y-308333D01*
X36000Y-312333D01*
D11*
X57000Y-281333D03*
D13*
X56581Y-280914D01*
X45419Y-280914D01*
X37000Y-289333D02*
X37000Y-298333D01*
D11*
X37000Y-298333D03*
D13*
X37000Y-289333D02*
X45419Y-280914D01*
D11*
X62807Y-276433D03*
X59000Y-249333D03*
X71000Y-249333D03*
X77064Y-276397D03*
D13*
X77064Y-284397D01*
X54000Y-307461D01*
X54000Y-313373D01*
D11*
X54000Y-313373D03*
X78000Y-249333D03*
D13*
X78000Y-268333D01*
X57000Y-289333D01*
D11*
X57000Y-289333D03*
X90000Y-276868D03*
X97000Y-249038D03*
X118373Y-249339D03*
D13*
X111839Y-255873D01*
X103835Y-255873D01*
X97000Y-249038D01*
D11*
X104000Y-249333D03*
X111273Y-249233D03*
X39000Y-359333D03*
X37000Y-329333D03*
X38707Y-352333D03*
X46917Y-352351D03*
D13*
X57017Y-352351D02*
X61517Y-356851D01*
X57017Y-352351D02*
X46917Y-352351D01*
D11*
X36377Y-396210D03*
D13*
X61517Y-379816D02*
X61517Y-356851D01*
X61517Y-379816D02*
X45123Y-396210D01*
X36377Y-396210D01*
D11*
X47000Y-359433D03*
D13*
X51000Y-363433D01*
X51000Y-374433D01*
X47152Y-378281D01*
X36821Y-378281D01*
D11*
X36821Y-378281D03*
X55200Y-359733D03*
X36500Y-385833D03*
D13*
X55200Y-378133D02*
X55200Y-359733D01*
X55200Y-378133D02*
X47500Y-385833D01*
X36500Y-385833D01*
D11*
X66477Y-356810D03*
X56000Y-328798D03*
X72662Y-329671D03*
X77000Y-361707D03*
X80000Y-391333D03*
D13*
X75000Y-363707D02*
X77000Y-361707D01*
X75000Y-363707D02*
X75000Y-386333D01*
X80000Y-391333D01*
D11*
X81900Y-355633D03*
X63500Y-385933D03*
D13*
X70500Y-361433D02*
X76300Y-355633D01*
X70500Y-361433D02*
X70500Y-378933D01*
X63500Y-385933D01*
X76300Y-355633D02*
X81900Y-355633D01*
D11*
X98000Y-362857D03*
X79960Y-382833D03*
D13*
X79960Y-380897D02*
X98000Y-362857D01*
X79960Y-380897D02*
X79960Y-382833D01*
D11*
X98000Y-355691D03*
X97000Y-329333D03*
X106000Y-328798D03*
X107324Y-358227D03*
D13*
X101000Y-382333D02*
X106000Y-387333D01*
X107324Y-368097D02*
X107324Y-358227D01*
X107324Y-368097D02*
X101000Y-374420D01*
X101000Y-382333D01*
D11*
X106000Y-387333D03*
X112600Y-363033D03*
D13*
X112600Y-371733D01*
X106000Y-378333D01*
D11*
X106000Y-378333D03*
X118100Y-358433D03*
D13*
X118100Y-373233D02*
X115000Y-376333D01*
X118100Y-373233D02*
X118100Y-358433D01*
D11*
X115000Y-376333D03*
X139500Y-322733D03*
X133200Y-355133D03*
X147000Y-328333D03*
X141100Y-355907D03*
D13*
X147000Y-355907D01*
X147000Y-386333D01*
X148000Y-387333D01*
D11*
X148000Y-387333D03*
X142000Y-363747D03*
D13*
X142000Y-376333D01*
D11*
X142000Y-376333D03*
X153128Y-355707D03*
D13*
X153000Y-355834D01*
X153000Y-374333D01*
D11*
X153000Y-374333D03*
X100500Y-277333D03*
D13*
X100500Y-305833D01*
X109000Y-314333D01*
X114000Y-314333D01*
D11*
X114000Y-314333D03*
X109907Y-277689D03*
X112707Y-291293D03*
D13*
X112707Y-280689D02*
X109907Y-277889D01*
X109907Y-277689D01*
X112707Y-280689D02*
X112707Y-291293D01*
D11*
X117000Y-277733D03*
D13*
X120000Y-280733D01*
X120000Y-291333D01*
D11*
X120000Y-291333D03*
X123800Y-275833D03*
X153541Y-275874D03*
D13*
X153500Y-275833D01*
X123800Y-275833D01*
D11*
X138946Y-249279D03*
X151600Y-249639D03*
X139000Y-285093D03*
D13*
X145000Y-292333D02*
X150000Y-292333D01*
X139000Y-286333D02*
X139000Y-285093D01*
D11*
X150000Y-292333D03*
D13*
X145000Y-292333D02*
X139000Y-286333D01*
D11*
X146100Y-285093D03*
X153500Y-285133D03*
X37000Y-445186D03*
X35000Y-416667D03*
X40507Y-421267D03*
X50200Y-455088D03*
D13*
X42000Y-463288D01*
X42000Y-472667D01*
X40000Y-474667D01*
X37000Y-474667D01*
D11*
X37000Y-474667D03*
X51941Y-445308D03*
D13*
X45359Y-445308D01*
D11*
X36000Y-481667D03*
D13*
X32000Y-458667D02*
X45359Y-445308D01*
X32000Y-458667D02*
X32000Y-477667D01*
X36000Y-481667D01*
D11*
X57000Y-450667D03*
D13*
X56581Y-450248D01*
X45419Y-450248D01*
X37000Y-458667D02*
X37000Y-467667D01*
D11*
X37000Y-467667D03*
D13*
X37000Y-458667D02*
X45419Y-450248D01*
D11*
X62807Y-445767D03*
X59000Y-418667D03*
X71000Y-418667D03*
X77064Y-445731D03*
D13*
X77064Y-453731D01*
X54000Y-476794D01*
X54000Y-482707D01*
D11*
X54000Y-482707D03*
X78000Y-418667D03*
D13*
X78000Y-437667D01*
X57000Y-458667D01*
D11*
X57000Y-458667D03*
X90000Y-446202D03*
X97000Y-418372D03*
X118373Y-418672D03*
D13*
X111839Y-425207D01*
X103835Y-425207D01*
X97000Y-418372D01*
D11*
X104000Y-418667D03*
X111273Y-418567D03*
X39000Y-528667D03*
X37000Y-498667D03*
X38707Y-521667D03*
X46917Y-521684D03*
D13*
X57017Y-521684D02*
X61517Y-526184D01*
X57017Y-521684D02*
X46917Y-521684D01*
D11*
X36377Y-565544D03*
D13*
X61517Y-549150D02*
X61517Y-526184D01*
X61517Y-549150D02*
X45123Y-565544D01*
X36377Y-565544D01*
D11*
X47000Y-528767D03*
D13*
X51000Y-532767D01*
X51000Y-542767D01*
X46100Y-547667D01*
X37000Y-547667D01*
D11*
X37000Y-547667D03*
X55200Y-529067D03*
X36500Y-555167D03*
D13*
X55200Y-549467D02*
X55200Y-529067D01*
X55200Y-549467D02*
X49500Y-555167D01*
X36500Y-555167D01*
D11*
X66477Y-526144D03*
X56000Y-498132D03*
X72662Y-499004D03*
X77000Y-531040D03*
X80000Y-560667D03*
D13*
X75000Y-533040D02*
X77000Y-531040D01*
X75000Y-533040D02*
X75000Y-555667D01*
X80000Y-560667D01*
D11*
X81900Y-524967D03*
X63500Y-555267D03*
D13*
X70500Y-530267D02*
X75800Y-524967D01*
X70500Y-548267D02*
X63500Y-555267D01*
X70500Y-548267D02*
X70500Y-530267D01*
X75800Y-524967D02*
X81900Y-524967D01*
D11*
X98000Y-532191D03*
X79960Y-552167D03*
D13*
X79960Y-550231D02*
X98000Y-532191D01*
X79960Y-550231D02*
X79960Y-552167D01*
D11*
X98000Y-525024D03*
X97000Y-498667D03*
X106000Y-498132D03*
X107324Y-527560D03*
D13*
X101000Y-551667D02*
X106000Y-556667D01*
X107324Y-537430D02*
X107324Y-527560D01*
X107324Y-537430D02*
X101000Y-543754D01*
X101000Y-551667D01*
D11*
X106000Y-556667D03*
X112600Y-532367D03*
D13*
X112600Y-541067D01*
X106000Y-547667D01*
D11*
X106000Y-547667D03*
X118100Y-527767D03*
D13*
X118100Y-542567D02*
X115000Y-545667D01*
X118100Y-542567D02*
X118100Y-527767D01*
D11*
X115000Y-545667D03*
X139500Y-492067D03*
X133200Y-524467D03*
X147000Y-497667D03*
X141100Y-525240D03*
D13*
X147000Y-525240D01*
X147000Y-555667D01*
X148000Y-556667D01*
D11*
X148000Y-556667D03*
X142000Y-533080D03*
D13*
X142000Y-545667D01*
D11*
X142000Y-545667D03*
X153128Y-525040D03*
D13*
X153000Y-525168D01*
X153000Y-543667D01*
D11*
X153000Y-543667D03*
X100500Y-446667D03*
D13*
X100500Y-475167D01*
X109000Y-483667D01*
X114000Y-483667D01*
D11*
X114000Y-483667D03*
X109907Y-447022D03*
X112707Y-460627D03*
D13*
X112707Y-450022D02*
X109907Y-447222D01*
X109907Y-447022D01*
X112707Y-450022D02*
X112707Y-460627D01*
D11*
X117000Y-447067D03*
D13*
X120000Y-450067D01*
X120000Y-460667D01*
D11*
X120000Y-460667D03*
X123800Y-445167D03*
X153541Y-445208D03*
D13*
X153500Y-445167D01*
X123800Y-445167D01*
D11*
X138946Y-418612D03*
X151600Y-418972D03*
X139000Y-454426D03*
D13*
X145000Y-461667D02*
X150000Y-461667D01*
X139000Y-455667D02*
X139000Y-454426D01*
D11*
X150000Y-461667D03*
D13*
X145000Y-461667D02*
X139000Y-455667D01*
D11*
X146100Y-454426D03*
X153500Y-454467D03*
X37000Y-614519D03*
X35000Y-586000D03*
X40507Y-590600D03*
X50200Y-624421D03*
D13*
X42000Y-632621D01*
X42000Y-642000D01*
X40000Y-644000D01*
X37000Y-644000D01*
D11*
X37000Y-644000D03*
X51941Y-614641D03*
D13*
X45359Y-614641D01*
D11*
X36000Y-651000D03*
D13*
X32000Y-628000D02*
X45359Y-614641D01*
X32000Y-628000D02*
X32000Y-647000D01*
X36000Y-651000D01*
D11*
X57000Y-620000D03*
D13*
X56581Y-619581D01*
X45419Y-619581D01*
X37000Y-628000D02*
X37000Y-637000D01*
D11*
X37000Y-637000D03*
D13*
X37000Y-628000D02*
X45419Y-619581D01*
D11*
X62807Y-615100D03*
X59000Y-588000D03*
X71000Y-588000D03*
X77064Y-615064D03*
D13*
X77064Y-623064D01*
X54000Y-646128D01*
X54000Y-652040D01*
D11*
X54000Y-652040D03*
X78000Y-588000D03*
D13*
X78000Y-607000D01*
X57000Y-628000D01*
D11*
X57000Y-628000D03*
X90000Y-615535D03*
X97000Y-587705D03*
X118373Y-588006D03*
D13*
X111839Y-594540D01*
X103835Y-594540D01*
X97000Y-587705D01*
D11*
X104000Y-588000D03*
X111273Y-587900D03*
X39000Y-698000D03*
X37000Y-668000D03*
X38707Y-691000D03*
X46917Y-691017D03*
D13*
X57017Y-691017D02*
X61517Y-695517D01*
X57017Y-691017D02*
X46917Y-691017D01*
D11*
X36377Y-734877D03*
D13*
X61517Y-719483D02*
X61517Y-695517D01*
X61517Y-719483D02*
X46123Y-734877D01*
X36377Y-734877D01*
D11*
X47000Y-698100D03*
D13*
X50000Y-701100D01*
X50000Y-716100D01*
X47100Y-719000D01*
X39000Y-719000D02*
X37000Y-717000D01*
X39000Y-719000D02*
X47100Y-719000D01*
D11*
X37000Y-717000D03*
X55200Y-698400D03*
X36500Y-724500D03*
D13*
X55200Y-718800D02*
X55200Y-698400D01*
X55200Y-718800D02*
X46500Y-727500D01*
X39500Y-727500D01*
X36500Y-724500D01*
D11*
X66477Y-695477D03*
X56000Y-667465D03*
X72662Y-668338D03*
X77000Y-700373D03*
X80000Y-730000D03*
D13*
X75000Y-702373D02*
X77000Y-700373D01*
X75000Y-702373D02*
X75000Y-725000D01*
X80000Y-730000D01*
D11*
X81900Y-694300D03*
X63500Y-725600D03*
D13*
X71400Y-717700D01*
X71400Y-698600D02*
X75700Y-694300D01*
X81900Y-694300D01*
X71400Y-698600D02*
X71400Y-717700D01*
D11*
X98000Y-701524D03*
X79960Y-721500D03*
D13*
X79960Y-719564D02*
X98000Y-701524D01*
X79960Y-719564D02*
X79960Y-721500D01*
D11*
X98000Y-694357D03*
X97000Y-668000D03*
X106000Y-667465D03*
X107324Y-696894D03*
D13*
X101000Y-721000D02*
X106000Y-726000D01*
X107324Y-706764D02*
X107324Y-696894D01*
X107324Y-706764D02*
X101000Y-713087D01*
X101000Y-721000D01*
D11*
X106000Y-726000D03*
X112600Y-701700D03*
D13*
X112600Y-710400D01*
X106000Y-717000D01*
D11*
X106000Y-717000D03*
X118100Y-697100D03*
D13*
X118100Y-711900D02*
X115000Y-715000D01*
X118100Y-711900D02*
X118100Y-697100D01*
D11*
X115000Y-715000D03*
X139500Y-661400D03*
X133200Y-693800D03*
X147000Y-667000D03*
X141100Y-694573D03*
D13*
X147000Y-694573D01*
X147000Y-725000D01*
X148000Y-726000D01*
D11*
X148000Y-726000D03*
X142000Y-702413D03*
D13*
X142000Y-715000D01*
D11*
X142000Y-715000D03*
X153128Y-694373D03*
D13*
X153000Y-694501D01*
X153000Y-713000D01*
D11*
X153000Y-713000D03*
X100500Y-616000D03*
D13*
X100500Y-644500D01*
X109000Y-653000D01*
X114000Y-653000D01*
D11*
X114000Y-653000D03*
X109907Y-616356D03*
X112707Y-629960D03*
D13*
X112707Y-619355D02*
X109907Y-616556D01*
X109907Y-616356D01*
X112707Y-619355D02*
X112707Y-629960D01*
D11*
X117000Y-616400D03*
D13*
X120000Y-619400D01*
X120000Y-630000D01*
D11*
X120000Y-630000D03*
X123800Y-614500D03*
X153541Y-614541D03*
D13*
X153500Y-614500D01*
X123800Y-614500D01*
D11*
X138946Y-587946D03*
X151600Y-588306D03*
X139000Y-623759D03*
D13*
X145000Y-631000D02*
X150000Y-631000D01*
X139000Y-625000D02*
X139000Y-623759D01*
D11*
X150000Y-631000D03*
D13*
X145000Y-631000D02*
X139000Y-625000D01*
D11*
X146100Y-623759D03*
X153500Y-623800D03*
X37000Y-783852D03*
X35000Y-755333D03*
X40507Y-759933D03*
X50200Y-793754D03*
D13*
X42000Y-801954D01*
X42000Y-811333D01*
X40000Y-813333D01*
X37000Y-813333D01*
D11*
X37000Y-813333D03*
X51941Y-783974D03*
D13*
X45359Y-783974D01*
D11*
X36000Y-820333D03*
D13*
X32000Y-797333D02*
X45359Y-783974D01*
X32000Y-797333D02*
X32000Y-816333D01*
X36000Y-820333D01*
D11*
X57000Y-789333D03*
D13*
X56581Y-788914D01*
X45419Y-788914D01*
X37000Y-797333D02*
X37000Y-806333D01*
D11*
X37000Y-806333D03*
D13*
X37000Y-797333D02*
X45419Y-788914D01*
D11*
X62807Y-784433D03*
X59000Y-757333D03*
X71000Y-757333D03*
X77064Y-784397D03*
D13*
X77064Y-792397D01*
X54000Y-815461D01*
X54000Y-821373D01*
D11*
X54000Y-821373D03*
X78000Y-757333D03*
D13*
X78000Y-776333D01*
X57000Y-797333D01*
D11*
X57000Y-797333D03*
X90000Y-784868D03*
X97000Y-757038D03*
X118373Y-757339D03*
D13*
X111839Y-763873D01*
X103835Y-763873D01*
X97000Y-757038D01*
D11*
X104000Y-757333D03*
X111273Y-757233D03*
X39000Y-867333D03*
X37000Y-837333D03*
X38707Y-860333D03*
X46917Y-860351D03*
D13*
X57017Y-860351D02*
X61517Y-864851D01*
X57017Y-860351D02*
X46917Y-860351D01*
D11*
X36377Y-904210D03*
D13*
X61517Y-885816D02*
X61517Y-864851D01*
X61517Y-885816D02*
X43123Y-904210D01*
X36377Y-904210D01*
D11*
X47000Y-867433D03*
D13*
X51000Y-871433D01*
X51000Y-883433D01*
X46100Y-888333D01*
X39000Y-888333D01*
X37000Y-886333D01*
D11*
X37000Y-886333D03*
X55200Y-867733D03*
X37500Y-893833D03*
D13*
X55200Y-886133D02*
X55200Y-867733D01*
X55200Y-886133D02*
X47500Y-893833D01*
X37500Y-893833D01*
D11*
X66477Y-864810D03*
X56000Y-836798D03*
X72662Y-837671D03*
X77000Y-869707D03*
X80000Y-899333D03*
D13*
X75000Y-871707D02*
X77000Y-869707D01*
X75000Y-871707D02*
X75000Y-894333D01*
X80000Y-899333D01*
D11*
X81900Y-863633D03*
X63500Y-893933D03*
D13*
X70500Y-886933D02*
X70500Y-868933D01*
X70500Y-886933D02*
X63500Y-893933D01*
X70500Y-868933D02*
X75100Y-864333D01*
X81200Y-864333D02*
X81900Y-863633D01*
X81200Y-864333D02*
X75100Y-864333D01*
D11*
X98000Y-870857D03*
X79960Y-890833D03*
D13*
X79960Y-888897D02*
X98000Y-870857D01*
X79960Y-888897D02*
X79960Y-890833D01*
D11*
X98000Y-863691D03*
X97000Y-837333D03*
X106000Y-836798D03*
X107324Y-866227D03*
D13*
X101000Y-890333D02*
X106000Y-895333D01*
X107324Y-876097D02*
X107324Y-866227D01*
X107324Y-876097D02*
X101000Y-882420D01*
X101000Y-890333D01*
D11*
X106000Y-895333D03*
X112600Y-871033D03*
D13*
X112600Y-879733D01*
X106000Y-886333D01*
D11*
X106000Y-886333D03*
X118100Y-866433D03*
D13*
X118100Y-881233D02*
X115000Y-884333D01*
X118100Y-881233D02*
X118100Y-866433D01*
D11*
X115000Y-884333D03*
X139500Y-830733D03*
X133200Y-863133D03*
X147000Y-836333D03*
X141100Y-863907D03*
D13*
X147000Y-863907D01*
X147000Y-894333D01*
X148000Y-895333D01*
D11*
X148000Y-895333D03*
X142000Y-871747D03*
D13*
X142000Y-884333D01*
D11*
X142000Y-884333D03*
X153128Y-863707D03*
D13*
X153000Y-863834D01*
X153000Y-882333D01*
D11*
X153000Y-882333D03*
X100500Y-785333D03*
D13*
X100500Y-813833D01*
X109000Y-822333D01*
X114000Y-822333D01*
D11*
X114000Y-822333D03*
X109907Y-785689D03*
X112707Y-799293D03*
D13*
X112707Y-788689D02*
X109907Y-785889D01*
X109907Y-785689D01*
X112707Y-788689D02*
X112707Y-799293D01*
D11*
X117000Y-785733D03*
D13*
X120000Y-788733D01*
X120000Y-799333D01*
D11*
X120000Y-799333D03*
X123800Y-783833D03*
X153541Y-783874D03*
D13*
X153500Y-783833D01*
X123800Y-783833D01*
D11*
X138946Y-757279D03*
X151600Y-757639D03*
X139000Y-793093D03*
D13*
X145000Y-800333D02*
X150000Y-800333D01*
X139000Y-794333D02*
X139000Y-793093D01*
D11*
X150000Y-800333D03*
D13*
X145000Y-800333D02*
X139000Y-794333D01*
D11*
X146100Y-793093D03*
X153500Y-793133D03*
X37000Y-953186D03*
X35000Y-924667D03*
X40507Y-929267D03*
X50200Y-963088D03*
D13*
X42000Y-971288D01*
X42000Y-980667D01*
X40000Y-982667D01*
X37000Y-982667D01*
D11*
X37000Y-982667D03*
X51941Y-953308D03*
D13*
X47359Y-953308D01*
D11*
X36000Y-989667D03*
D13*
X32000Y-968667D02*
X47359Y-953308D01*
X32000Y-968667D02*
X32000Y-985667D01*
X36000Y-989667D01*
D11*
X57000Y-958667D03*
D13*
X56581Y-958248D01*
X47419Y-958248D01*
X37000Y-968667D02*
X37000Y-975667D01*
D11*
X37000Y-975667D03*
D13*
X37000Y-968667D02*
X47419Y-958248D01*
D11*
X62807Y-953767D03*
X59000Y-926667D03*
X71000Y-926667D03*
X77064Y-953731D03*
D13*
X77064Y-961731D01*
X54000Y-984794D01*
X54000Y-990707D01*
D11*
X54000Y-990707D03*
X78000Y-926667D03*
D13*
X78000Y-945667D01*
X57000Y-966667D01*
D11*
X57000Y-966667D03*
X90000Y-954202D03*
X97000Y-926372D03*
X118373Y-926672D03*
D13*
X111839Y-933207D01*
X103835Y-933207D01*
X97000Y-926372D01*
D11*
X104000Y-926667D03*
X111273Y-926567D03*
X39000Y-1036667D03*
X37000Y-1006667D03*
X38707Y-1029667D03*
X46917Y-1029684D03*
D13*
X57017Y-1029684D02*
X61517Y-1034184D01*
X57017Y-1029684D02*
X46917Y-1029684D01*
D11*
X36377Y-1073544D03*
D13*
X61517Y-1058150D02*
X61517Y-1034184D01*
X61517Y-1058150D02*
X46123Y-1073544D01*
X36377Y-1073544D01*
D11*
X47000Y-1036767D03*
D13*
X50000Y-1039767D01*
X50000Y-1054767D01*
X44100Y-1060667D01*
X42000Y-1060667D02*
X37000Y-1055667D01*
X42000Y-1060667D02*
X44100Y-1060667D01*
D11*
X37000Y-1055667D03*
X55200Y-1037067D03*
X36500Y-1063167D03*
D13*
X55200Y-1057467D02*
X55200Y-1037067D01*
X55200Y-1057467D02*
X45500Y-1067167D01*
X40500Y-1067167D01*
X36500Y-1063167D01*
D11*
X66477Y-1034144D03*
X56000Y-1006132D03*
X72662Y-1007004D03*
X77000Y-1039040D03*
X80000Y-1068667D03*
D13*
X75000Y-1041040D02*
X77000Y-1039040D01*
X75000Y-1041040D02*
X75000Y-1063667D01*
X80000Y-1068667D01*
D11*
X81900Y-1032967D03*
X63500Y-1065267D03*
D13*
X71400Y-1057367D01*
X81502Y-1033365D02*
X81900Y-1032967D01*
X81502Y-1033365D02*
X76064Y-1033365D01*
X71400Y-1038028D01*
X71400Y-1057367D01*
D11*
X98000Y-1040191D03*
X79960Y-1060167D03*
D13*
X79960Y-1058231D02*
X98000Y-1040191D01*
X79960Y-1058231D02*
X79960Y-1060167D01*
D11*
X98000Y-1033024D03*
X97000Y-1006667D03*
X106000Y-1006132D03*
X107324Y-1035560D03*
D13*
X101000Y-1059667D02*
X106000Y-1064667D01*
X107324Y-1045430D02*
X107324Y-1035560D01*
X107324Y-1045430D02*
X101000Y-1051754D01*
X101000Y-1059667D01*
D11*
X106000Y-1064667D03*
X112600Y-1040367D03*
D13*
X112600Y-1049067D01*
X106000Y-1055667D01*
D11*
X106000Y-1055667D03*
X118100Y-1035767D03*
D13*
X118100Y-1050567D02*
X115000Y-1053667D01*
X118100Y-1050567D02*
X118100Y-1035767D01*
D11*
X115000Y-1053667D03*
X139500Y-1000067D03*
X133200Y-1032467D03*
X147000Y-1005667D03*
X141100Y-1033240D03*
D13*
X147000Y-1033240D01*
X147000Y-1063667D01*
X148000Y-1064667D01*
D11*
X148000Y-1064667D03*
X142000Y-1041080D03*
D13*
X142000Y-1053667D01*
D11*
X142000Y-1053667D03*
X153128Y-1033040D03*
D13*
X153000Y-1033168D01*
X153000Y-1051667D01*
D11*
X153000Y-1051667D03*
X100500Y-954667D03*
D13*
X100500Y-983167D01*
X109000Y-991667D01*
X114000Y-991667D01*
D11*
X114000Y-991667D03*
X109907Y-955022D03*
X112707Y-968627D03*
D13*
X112707Y-958022D02*
X109907Y-955222D01*
X109907Y-955022D01*
X112707Y-958022D02*
X112707Y-968627D01*
D11*
X117000Y-955067D03*
D13*
X120000Y-958067D01*
X120000Y-968667D01*
D11*
X120000Y-968667D03*
X123800Y-953167D03*
X153541Y-953208D03*
D13*
X153500Y-953167D01*
X123800Y-953167D01*
D11*
X138946Y-926612D03*
X151600Y-926972D03*
X139000Y-962426D03*
D13*
X145000Y-969667D02*
X150000Y-969667D01*
X139000Y-963667D02*
X139000Y-962426D01*
D11*
X150000Y-969667D03*
D13*
X145000Y-969667D02*
X139000Y-963667D01*
D11*
X146100Y-962426D03*
X153500Y-962467D03*
X38000Y-1122519D03*
X35000Y-1094000D03*
X40507Y-1098600D03*
X50200Y-1132421D03*
D13*
X42000Y-1140621D01*
X42000Y-1150000D01*
X40000Y-1152000D01*
X37000Y-1152000D01*
D11*
X37000Y-1152000D03*
X51941Y-1122641D03*
D13*
X45359Y-1122641D01*
D11*
X36000Y-1159000D03*
D13*
X32000Y-1136000D02*
X45359Y-1122641D01*
X32000Y-1136000D02*
X32000Y-1155000D01*
X36000Y-1159000D01*
D11*
X57000Y-1128000D03*
D13*
X56581Y-1127581D01*
X45419Y-1127581D01*
X37000Y-1136000D02*
X37000Y-1145000D01*
D11*
X37000Y-1145000D03*
D13*
X37000Y-1136000D02*
X45419Y-1127581D01*
D11*
X62807Y-1123100D03*
X59000Y-1096000D03*
X71000Y-1096000D03*
X77064Y-1123064D03*
D13*
X77064Y-1131064D01*
X54000Y-1154128D01*
X54000Y-1160040D01*
D11*
X54000Y-1160040D03*
X78000Y-1096000D03*
D13*
X78000Y-1115000D01*
X57000Y-1136000D01*
D11*
X57000Y-1136000D03*
X90000Y-1123535D03*
X97000Y-1095705D03*
X118373Y-1096006D03*
D13*
X111839Y-1102540D01*
X103835Y-1102540D01*
X97000Y-1095705D01*
D11*
X104000Y-1096000D03*
X111273Y-1095900D03*
X39000Y-1206000D03*
X37000Y-1176000D03*
X38707Y-1199000D03*
X46917Y-1199017D03*
D13*
X57017Y-1199017D02*
X61517Y-1203517D01*
X57017Y-1199017D02*
X46917Y-1199017D01*
D11*
X36377Y-1243877D03*
D13*
X61517Y-1225483D02*
X61517Y-1203517D01*
X61517Y-1225483D02*
X43123Y-1243877D01*
X36377Y-1243877D01*
D11*
X47000Y-1206100D03*
D13*
X50000Y-1209100D01*
X50000Y-1224100D01*
X48100Y-1226000D01*
X39000Y-1226000D01*
X38000Y-1225000D01*
D11*
X38000Y-1225000D03*
X55200Y-1206400D03*
X37500Y-1233500D03*
D13*
X55200Y-1224800D02*
X55200Y-1206400D01*
X55200Y-1224800D02*
X46500Y-1233500D01*
X37500Y-1233500D01*
D11*
X66477Y-1203477D03*
X56000Y-1175465D03*
X72662Y-1176338D03*
X77000Y-1208373D03*
X80000Y-1238000D03*
D13*
X75000Y-1210373D02*
X77000Y-1208373D01*
X75000Y-1210373D02*
X75000Y-1233000D01*
X80000Y-1238000D01*
D11*
X81900Y-1202300D03*
X63500Y-1233600D03*
D13*
X71400Y-1225700D01*
X71400Y-1206600D02*
X75700Y-1202300D01*
X81900Y-1202300D01*
X71400Y-1206600D02*
X71400Y-1225700D01*
D11*
X98000Y-1209524D03*
X79960Y-1229500D03*
D13*
X79960Y-1227564D02*
X98000Y-1209524D01*
X79960Y-1227564D02*
X79960Y-1229500D01*
D11*
X98000Y-1202357D03*
X97000Y-1176000D03*
X106000Y-1175465D03*
X107324Y-1204894D03*
D13*
X101000Y-1229000D02*
X106000Y-1234000D01*
X107324Y-1214764D02*
X107324Y-1204894D01*
X107324Y-1214764D02*
X101000Y-1221087D01*
X101000Y-1229000D01*
D11*
X106000Y-1234000D03*
X112600Y-1209700D03*
D13*
X112600Y-1218400D01*
X106000Y-1225000D01*
D11*
X106000Y-1225000D03*
X118100Y-1205100D03*
D13*
X118100Y-1219900D02*
X115000Y-1223000D01*
X118100Y-1219900D02*
X118100Y-1205100D01*
D11*
X115000Y-1223000D03*
X139500Y-1169400D03*
X133200Y-1201800D03*
X147000Y-1175000D03*
X141100Y-1202573D03*
D13*
X147000Y-1202573D01*
X147000Y-1233000D01*
X148000Y-1234000D01*
D11*
X148000Y-1234000D03*
X142000Y-1210413D03*
D13*
X142000Y-1223000D01*
D11*
X142000Y-1223000D03*
X153128Y-1202373D03*
D13*
X153000Y-1202501D01*
X153000Y-1221000D01*
D11*
X153000Y-1221000D03*
X100500Y-1124000D03*
D13*
X100500Y-1152500D01*
X109000Y-1161000D01*
X114000Y-1161000D01*
D11*
X114000Y-1161000D03*
X109907Y-1124356D03*
X112707Y-1137960D03*
D13*
X112707Y-1127355D02*
X109907Y-1124556D01*
X109907Y-1124356D01*
X112707Y-1127355D02*
X112707Y-1137960D01*
D11*
X117000Y-1124400D03*
D13*
X120000Y-1127400D01*
X120000Y-1138000D01*
D11*
X120000Y-1138000D03*
X123800Y-1122500D03*
X153541Y-1122541D03*
D13*
X153500Y-1122500D01*
X123800Y-1122500D01*
D11*
X138946Y-1095946D03*
X151600Y-1096306D03*
X139000Y-1131759D03*
D13*
X145000Y-1139000D02*
X150000Y-1139000D01*
X139000Y-1133000D02*
X139000Y-1131759D01*
D11*
X150000Y-1139000D03*
D13*
X145000Y-1139000D02*
X139000Y-1133000D01*
D11*
X146100Y-1131759D03*
X153500Y-1131800D03*
X39358Y-1292000D03*
X37000Y-1268000D03*
X37000Y-1260000D03*
X47000Y-1293000D03*
D13*
X46563Y-1293437D01*
X46563Y-1314437D01*
X38000Y-1323000D01*
D11*
X38000Y-1323000D03*
X40000Y-1300000D03*
X40659Y-1308659D03*
X67000Y-1292000D03*
X67000Y-1265000D03*
X74000Y-1265000D03*
X74000Y-1292000D03*
X57643Y-1332000D03*
D13*
X74000Y-1293000D02*
X74000Y-1292000D01*
X74000Y-1293000D02*
X62000Y-1305000D01*
X62000Y-1312643D02*
X57643Y-1317000D01*
X57643Y-1332000D01*
X62000Y-1312643D02*
X62000Y-1305000D01*
D11*
X82000Y-1292000D03*
X46000Y-1323000D03*
D13*
X82000Y-1292000D02*
X77000Y-1287000D01*
X64000Y-1287000D01*
X58000Y-1293000D01*
X58000Y-1311000D01*
X46000Y-1323000D01*
D11*
X98000Y-1292000D03*
D13*
X89000Y-1283000D01*
X52643Y-1292357D02*
X52643Y-1307676D01*
D11*
X52643Y-1307676D03*
D13*
X62000Y-1283000D02*
X89000Y-1283000D01*
X62000Y-1283000D02*
X52643Y-1292357D01*
D11*
X92992Y-1265000D03*
X101000Y-1265000D03*
X112175Y-1265000D03*
X105000Y-1292000D03*
D13*
X105000Y-1326000D01*
X110000Y-1331000D01*
X114000Y-1331000D01*
D11*
X114000Y-1331000D03*
X113000Y-1292000D03*
D13*
X113000Y-1307000D01*
D11*
X113000Y-1307000D03*
X121000Y-1292000D03*
D13*
X121000Y-1307000D01*
D11*
X121000Y-1307000D03*
X122000Y-1268000D03*
D13*
X146000Y-1292000D01*
D11*
X155000Y-1292000D03*
D13*
X146000Y-1292000D01*
D11*
X138000Y-1263000D03*
X154000Y-1263000D03*
X137000Y-1292000D03*
D13*
X135000Y-1294000D01*
X135000Y-1321000D01*
X144000Y-1330000D01*
X153000Y-1330000D01*
D11*
X153000Y-1330000D03*
X142000Y-1297000D03*
D13*
X142000Y-1308000D01*
D11*
X142000Y-1308000D03*
X150000Y-1298175D03*
D13*
X150000Y-1302000D01*
X156000Y-1308000D01*
D11*
X156000Y-1308000D03*
X7000Y-105000D03*
X13000Y-276000D03*
X13514Y-617000D03*
X13514Y-446000D03*
X14000Y-958000D03*
X14000Y-784000D03*
X15000Y-1125000D03*
X15148Y-1291499D03*
M02*
