G04 EAGLE Gerber RS-274X export*
G75*
%MOMM*%
%FSLAX34Y34*%
%LPD*%
%INSoldermask Top*%
%IPPOS*%
%AMOC8*
5,1,8,0,0,1.08239X$1,22.5*%
G01*
%ADD10C,2.801619*%
%ADD11R,0.850800X0.550800*%
%ADD12P,1.704548X8X22.500000*%
%ADD13R,0.650800X1.250800*%
%ADD14R,0.750800X0.950800*%
%ADD15C,0.500800*%
%ADD16C,0.950800*%


D10*
X84667Y-31750D03*
D11*
X29167Y-86667D03*
X13167Y-86667D03*
X29167Y-95667D03*
X13167Y-95667D03*
X71500Y-171333D03*
X55500Y-171333D03*
X71500Y-180333D03*
X55500Y-180333D03*
X156167Y-1102667D03*
X140167Y-1102667D03*
X156167Y-1111667D03*
X140167Y-1111667D03*
X29167Y-1145000D03*
X13167Y-1145000D03*
X29167Y-1154000D03*
X13167Y-1154000D03*
X71500Y-1145000D03*
X55500Y-1145000D03*
X71500Y-1154000D03*
X55500Y-1154000D03*
X113833Y-1145000D03*
X97833Y-1145000D03*
X113833Y-1154000D03*
X97833Y-1154000D03*
X156167Y-1145000D03*
X140167Y-1145000D03*
X156167Y-1154000D03*
X140167Y-1154000D03*
X29167Y-1187333D03*
X13167Y-1187333D03*
X29167Y-1196333D03*
X13167Y-1196333D03*
X71500Y-1187333D03*
X55500Y-1187333D03*
X71500Y-1196333D03*
X55500Y-1196333D03*
X113833Y-1187333D03*
X97833Y-1187333D03*
X113833Y-1196333D03*
X97833Y-1196333D03*
X156167Y-1187333D03*
X140167Y-1187333D03*
X156167Y-1196333D03*
X140167Y-1196333D03*
X29167Y-1229667D03*
X13167Y-1229667D03*
X29167Y-1238667D03*
X13167Y-1238667D03*
X113833Y-171333D03*
X97833Y-171333D03*
X113833Y-180333D03*
X97833Y-180333D03*
X71500Y-1229667D03*
X55500Y-1229667D03*
X71500Y-1238667D03*
X55500Y-1238667D03*
X113833Y-1229667D03*
X97833Y-1229667D03*
X113833Y-1238667D03*
X97833Y-1238667D03*
X156167Y-1229667D03*
X140167Y-1229667D03*
X156167Y-1238667D03*
X140167Y-1238667D03*
X29167Y-1272000D03*
X13167Y-1272000D03*
X29167Y-1281000D03*
X13167Y-1281000D03*
X71500Y-1272000D03*
X55500Y-1272000D03*
X71500Y-1281000D03*
X55500Y-1281000D03*
X113833Y-1272000D03*
X97833Y-1272000D03*
X113833Y-1281000D03*
X97833Y-1281000D03*
X156167Y-1272000D03*
X140167Y-1272000D03*
X156167Y-1281000D03*
X140167Y-1281000D03*
X29167Y-1314333D03*
X13167Y-1314333D03*
X29167Y-1323333D03*
X13167Y-1323333D03*
X71500Y-1314333D03*
X55500Y-1314333D03*
X71500Y-1323333D03*
X55500Y-1323333D03*
X113833Y-1314333D03*
X97833Y-1314333D03*
X113833Y-1323333D03*
X97833Y-1323333D03*
X156167Y-171333D03*
X140167Y-171333D03*
X156167Y-180333D03*
X140167Y-180333D03*
X156167Y-1314333D03*
X140167Y-1314333D03*
X156167Y-1323333D03*
X140167Y-1323333D03*
X29167Y-213667D03*
X13167Y-213667D03*
X29167Y-222667D03*
X13167Y-222667D03*
X71500Y-213667D03*
X55500Y-213667D03*
X71500Y-222667D03*
X55500Y-222667D03*
X113833Y-213667D03*
X97833Y-213667D03*
X113833Y-222667D03*
X97833Y-222667D03*
X156167Y-213667D03*
X140167Y-213667D03*
X156167Y-222667D03*
X140167Y-222667D03*
X29167Y-256000D03*
X13167Y-256000D03*
X29167Y-265000D03*
X13167Y-265000D03*
X71500Y-256000D03*
X55500Y-256000D03*
X71500Y-265000D03*
X55500Y-265000D03*
X113833Y-256000D03*
X97833Y-256000D03*
X113833Y-265000D03*
X97833Y-265000D03*
X71500Y-86667D03*
X55500Y-86667D03*
X71500Y-95667D03*
X55500Y-95667D03*
X156167Y-256000D03*
X140167Y-256000D03*
X156167Y-265000D03*
X140167Y-265000D03*
X29167Y-298333D03*
X13167Y-298333D03*
X29167Y-307333D03*
X13167Y-307333D03*
X71500Y-298333D03*
X55500Y-298333D03*
X71500Y-307333D03*
X55500Y-307333D03*
X113833Y-298333D03*
X97833Y-298333D03*
X113833Y-307333D03*
X97833Y-307333D03*
X156167Y-298333D03*
X140167Y-298333D03*
X156167Y-307333D03*
X140167Y-307333D03*
X29167Y-340667D03*
X13167Y-340667D03*
X29167Y-349667D03*
X13167Y-349667D03*
X71500Y-340667D03*
X55500Y-340667D03*
X71500Y-349667D03*
X55500Y-349667D03*
X113833Y-340667D03*
X97833Y-340667D03*
X113833Y-349667D03*
X97833Y-349667D03*
X156167Y-340667D03*
X140167Y-340667D03*
X156167Y-349667D03*
X140167Y-349667D03*
X29167Y-383000D03*
X13167Y-383000D03*
X29167Y-392000D03*
X13167Y-392000D03*
X113833Y-86667D03*
X97833Y-86667D03*
X113833Y-95667D03*
X97833Y-95667D03*
X71500Y-383000D03*
X55500Y-383000D03*
X71500Y-392000D03*
X55500Y-392000D03*
X113833Y-383000D03*
X97833Y-383000D03*
X113833Y-392000D03*
X97833Y-392000D03*
X156167Y-383000D03*
X140167Y-383000D03*
X156167Y-392000D03*
X140167Y-392000D03*
X29167Y-425333D03*
X13167Y-425333D03*
X29167Y-434333D03*
X13167Y-434333D03*
X71500Y-425333D03*
X55500Y-425333D03*
X71500Y-434333D03*
X55500Y-434333D03*
X113833Y-425333D03*
X97833Y-425333D03*
X113833Y-434333D03*
X97833Y-434333D03*
X156167Y-425333D03*
X140167Y-425333D03*
X156167Y-434333D03*
X140167Y-434333D03*
X29167Y-467667D03*
X13167Y-467667D03*
X29167Y-476667D03*
X13167Y-476667D03*
X71500Y-467667D03*
X55500Y-467667D03*
X71500Y-476667D03*
X55500Y-476667D03*
X113833Y-467667D03*
X97833Y-467667D03*
X113833Y-476667D03*
X97833Y-476667D03*
X156167Y-86667D03*
X140167Y-86667D03*
X156167Y-95667D03*
X140167Y-95667D03*
X156167Y-467667D03*
X140167Y-467667D03*
X156167Y-476667D03*
X140167Y-476667D03*
X29167Y-510000D03*
X13167Y-510000D03*
X29167Y-519000D03*
X13167Y-519000D03*
X71500Y-510000D03*
X55500Y-510000D03*
X71500Y-519000D03*
X55500Y-519000D03*
X113833Y-510000D03*
X97833Y-510000D03*
X113833Y-519000D03*
X97833Y-519000D03*
X156167Y-510000D03*
X140167Y-510000D03*
X156167Y-519000D03*
X140167Y-519000D03*
X29167Y-552333D03*
X13167Y-552333D03*
X29167Y-561333D03*
X13167Y-561333D03*
X71500Y-552333D03*
X55500Y-552333D03*
X71500Y-561333D03*
X55500Y-561333D03*
X113833Y-552333D03*
X97833Y-552333D03*
X113833Y-561333D03*
X97833Y-561333D03*
X156167Y-552333D03*
X140167Y-552333D03*
X156167Y-561333D03*
X140167Y-561333D03*
X29167Y-594667D03*
X13167Y-594667D03*
X29167Y-603667D03*
X13167Y-603667D03*
X29167Y-129000D03*
X13167Y-129000D03*
X29167Y-138000D03*
X13167Y-138000D03*
X71500Y-594667D03*
X55500Y-594667D03*
X71500Y-603667D03*
X55500Y-603667D03*
X113833Y-594667D03*
X97833Y-594667D03*
X113833Y-603667D03*
X97833Y-603667D03*
X156167Y-594667D03*
X140167Y-594667D03*
X156167Y-603667D03*
X140167Y-603667D03*
X29167Y-637000D03*
X13167Y-637000D03*
X29167Y-646000D03*
X13167Y-646000D03*
X71500Y-637000D03*
X55500Y-637000D03*
X71500Y-646000D03*
X55500Y-646000D03*
X113833Y-637000D03*
X97833Y-637000D03*
X113833Y-646000D03*
X97833Y-646000D03*
X156167Y-637000D03*
X140167Y-637000D03*
X156167Y-646000D03*
X140167Y-646000D03*
X29167Y-679333D03*
X13167Y-679333D03*
X29167Y-688333D03*
X13167Y-688333D03*
X71500Y-679333D03*
X55500Y-679333D03*
X71500Y-688333D03*
X55500Y-688333D03*
X113833Y-679333D03*
X97833Y-679333D03*
X113833Y-688333D03*
X97833Y-688333D03*
X71500Y-129000D03*
X55500Y-129000D03*
X71500Y-138000D03*
X55500Y-138000D03*
X156167Y-679333D03*
X140167Y-679333D03*
X156167Y-688333D03*
X140167Y-688333D03*
X29167Y-721667D03*
X13167Y-721667D03*
X29167Y-730667D03*
X13167Y-730667D03*
X71500Y-721667D03*
X55500Y-721667D03*
X71500Y-730667D03*
X55500Y-730667D03*
X113833Y-721667D03*
X97833Y-721667D03*
X113833Y-730667D03*
X97833Y-730667D03*
X156167Y-721667D03*
X140167Y-721667D03*
X156167Y-730667D03*
X140167Y-730667D03*
X29167Y-764000D03*
X13167Y-764000D03*
X29167Y-773000D03*
X13167Y-773000D03*
X71500Y-764000D03*
X55500Y-764000D03*
X71500Y-773000D03*
X55500Y-773000D03*
X113833Y-764000D03*
X97833Y-764000D03*
X113833Y-773000D03*
X97833Y-773000D03*
X156167Y-764000D03*
X140167Y-764000D03*
X156167Y-773000D03*
X140167Y-773000D03*
X29167Y-806333D03*
X13167Y-806333D03*
X29167Y-815333D03*
X13167Y-815333D03*
X113833Y-129000D03*
X97833Y-129000D03*
X113833Y-138000D03*
X97833Y-138000D03*
X71500Y-806333D03*
X55500Y-806333D03*
X71500Y-815333D03*
X55500Y-815333D03*
X113833Y-806333D03*
X97833Y-806333D03*
X113833Y-815333D03*
X97833Y-815333D03*
X156167Y-806333D03*
X140167Y-806333D03*
X156167Y-815333D03*
X140167Y-815333D03*
X29167Y-848667D03*
X13167Y-848667D03*
X29167Y-857667D03*
X13167Y-857667D03*
X71500Y-848667D03*
X55500Y-848667D03*
X71500Y-857667D03*
X55500Y-857667D03*
X113833Y-848667D03*
X97833Y-848667D03*
X113833Y-857667D03*
X97833Y-857667D03*
X156167Y-848667D03*
X140167Y-848667D03*
X156167Y-857667D03*
X140167Y-857667D03*
X29167Y-891000D03*
X13167Y-891000D03*
X29167Y-900000D03*
X13167Y-900000D03*
X71500Y-891000D03*
X55500Y-891000D03*
X71500Y-900000D03*
X55500Y-900000D03*
X113833Y-891000D03*
X97833Y-891000D03*
X113833Y-900000D03*
X97833Y-900000D03*
X156167Y-129000D03*
X140167Y-129000D03*
X156167Y-138000D03*
X140167Y-138000D03*
X156167Y-891000D03*
X140167Y-891000D03*
X156167Y-900000D03*
X140167Y-900000D03*
X29167Y-933333D03*
X13167Y-933333D03*
X29167Y-942333D03*
X13167Y-942333D03*
X71500Y-933333D03*
X55500Y-933333D03*
X71500Y-942333D03*
X55500Y-942333D03*
X113833Y-933333D03*
X97833Y-933333D03*
X113833Y-942333D03*
X97833Y-942333D03*
X156167Y-933333D03*
X140167Y-933333D03*
X156167Y-942333D03*
X140167Y-942333D03*
X29167Y-975667D03*
X13167Y-975667D03*
X29167Y-984667D03*
X13167Y-984667D03*
X71500Y-975667D03*
X55500Y-975667D03*
X71500Y-984667D03*
X55500Y-984667D03*
X113833Y-975667D03*
X97833Y-975667D03*
X113833Y-984667D03*
X97833Y-984667D03*
X156167Y-975667D03*
X140167Y-975667D03*
X156167Y-984667D03*
X140167Y-984667D03*
X29167Y-1018000D03*
X13167Y-1018000D03*
X29167Y-1027000D03*
X13167Y-1027000D03*
X29167Y-171333D03*
X13167Y-171333D03*
X29167Y-180333D03*
X13167Y-180333D03*
X71500Y-1018000D03*
X55500Y-1018000D03*
X71500Y-1027000D03*
X55500Y-1027000D03*
X113833Y-1018000D03*
X97833Y-1018000D03*
X113833Y-1027000D03*
X97833Y-1027000D03*
X156167Y-1018000D03*
X140167Y-1018000D03*
X156167Y-1027000D03*
X140167Y-1027000D03*
X29167Y-1060333D03*
X13167Y-1060333D03*
X29167Y-1069333D03*
X13167Y-1069333D03*
X71500Y-1060333D03*
X55500Y-1060333D03*
X71500Y-1069333D03*
X55500Y-1069333D03*
X113833Y-1060333D03*
X97833Y-1060333D03*
X113833Y-1069333D03*
X97833Y-1069333D03*
X156167Y-1060333D03*
X140167Y-1060333D03*
X156167Y-1069333D03*
X140167Y-1069333D03*
X29167Y-1102667D03*
X13167Y-1102667D03*
X29167Y-1111667D03*
X13167Y-1111667D03*
X71500Y-1102667D03*
X55500Y-1102667D03*
X71500Y-1111667D03*
X55500Y-1111667D03*
X113833Y-1102667D03*
X97833Y-1102667D03*
X113833Y-1111667D03*
X97833Y-1111667D03*
D12*
X22804Y-1433152D03*
X48204Y-1433152D03*
X73604Y-1433152D03*
X99004Y-1433152D03*
X124404Y-1433152D03*
X149804Y-1433152D03*
X22804Y-1407752D03*
X48204Y-1407752D03*
X73604Y-1407752D03*
X99004Y-1407752D03*
X124404Y-1407752D03*
X149804Y-1407752D03*
D13*
X74315Y-1383310D03*
X83815Y-1383310D03*
X93315Y-1383310D03*
X93315Y-1358310D03*
X74315Y-1358310D03*
X8379Y-1382275D03*
X17879Y-1382275D03*
X27379Y-1382275D03*
X27379Y-1357275D03*
X8379Y-1357275D03*
X139828Y-1383792D03*
X149328Y-1383792D03*
X158828Y-1383792D03*
X158828Y-1358792D03*
X139828Y-1358792D03*
D14*
X44103Y-1356895D03*
X57103Y-1356895D03*
X110005Y-1372021D03*
X123005Y-1372021D03*
X109934Y-1384953D03*
X122934Y-1384953D03*
X44024Y-1371131D03*
X57024Y-1371131D03*
X44118Y-1385116D03*
X57118Y-1385116D03*
X110034Y-1357409D03*
X123034Y-1357409D03*
D15*
X21062Y-205406D03*
X20997Y-374307D03*
X20997Y-543186D03*
X20997Y-712323D03*
X20997Y-881351D03*
X20997Y-1050925D03*
X20997Y-1220390D03*
X18475Y-1362282D03*
X63189Y-196168D03*
X63132Y-364726D03*
X65371Y-526912D03*
X61612Y-704317D03*
X61738Y-872277D03*
X61422Y-1040490D03*
X61802Y-1209400D03*
X84164Y-1359102D03*
X140162Y-65844D03*
X84615Y-112761D03*
X84615Y-120261D03*
X84615Y-127761D03*
X84615Y-135261D03*
X84615Y-142761D03*
X84615Y-150261D03*
X91161Y-146511D03*
X77861Y-146363D03*
X77861Y-153863D03*
X91161Y-154011D03*
X70743Y-150416D03*
X98346Y-150416D03*
X141000Y-404838D03*
X140981Y-573854D03*
X140991Y-743525D03*
X140278Y-912521D03*
X138720Y-1081921D03*
X138983Y-1251259D03*
X139965Y-235604D03*
X84364Y-1298648D03*
X84364Y-1306148D03*
X84364Y-1313648D03*
X84364Y-1321148D03*
X84364Y-1328648D03*
X84364Y-1336148D03*
X90911Y-1332398D03*
X77610Y-1332250D03*
X77610Y-1339750D03*
X90911Y-1339898D03*
X70493Y-1336303D03*
X98096Y-1336303D03*
X84714Y-1128446D03*
X84714Y-1135946D03*
X84714Y-1143446D03*
X84714Y-1150946D03*
X84714Y-1158446D03*
X84714Y-1165946D03*
X91260Y-1162196D03*
X77960Y-1162048D03*
X77960Y-1169548D03*
X91260Y-1169696D03*
X70842Y-1166101D03*
X98445Y-1166101D03*
X84398Y-959091D03*
X84398Y-966591D03*
X84398Y-974091D03*
X84398Y-981591D03*
X84398Y-989091D03*
X84398Y-996591D03*
X90945Y-992841D03*
X77644Y-992693D03*
X77644Y-1000193D03*
X90945Y-1000341D03*
X70527Y-996746D03*
X98130Y-996746D03*
X84860Y-789503D03*
X84860Y-797003D03*
X84860Y-804503D03*
X84860Y-812003D03*
X84860Y-819503D03*
X84860Y-827003D03*
X91406Y-823253D03*
X78106Y-823104D03*
X78106Y-830604D03*
X91406Y-830753D03*
X70989Y-827157D03*
X98592Y-827157D03*
X85242Y-620459D03*
X85242Y-627959D03*
X85242Y-635459D03*
X85242Y-642959D03*
X85242Y-650459D03*
X85242Y-657959D03*
X91788Y-654209D03*
X78488Y-654061D03*
X78488Y-661561D03*
X91788Y-661709D03*
X71370Y-658114D03*
X98973Y-658114D03*
X84508Y-451474D03*
X84508Y-458974D03*
X84508Y-466474D03*
X84508Y-473974D03*
X84508Y-481474D03*
X84508Y-488974D03*
X91055Y-485224D03*
X77754Y-485076D03*
X77754Y-492576D03*
X91055Y-492724D03*
X70637Y-489129D03*
X98240Y-489129D03*
X84763Y-281664D03*
X84763Y-289164D03*
X84763Y-296664D03*
X84763Y-304164D03*
X84763Y-311664D03*
X84763Y-319164D03*
X91310Y-315414D03*
X78009Y-315265D03*
X78009Y-322765D03*
X91310Y-322914D03*
X70892Y-319318D03*
X98495Y-319318D03*
X157675Y-1219410D03*
X157793Y-1050611D03*
X157628Y-881443D03*
X157793Y-711945D03*
X157793Y-542611D03*
X157793Y-373278D03*
X157793Y-203945D03*
X123237Y-1394011D03*
X117397Y-207076D03*
X119192Y-1223393D03*
X117233Y-376349D03*
X117211Y-545661D03*
X117315Y-715098D03*
X117217Y-884333D03*
X117246Y-1053695D03*
X106611Y-1347187D03*
X42025Y-376784D03*
X33358Y-1330372D03*
X46608Y-718803D03*
X25322Y-1334227D03*
X47931Y-1054075D03*
X33974Y-1341761D03*
X101514Y-1393669D03*
X29193Y-103596D03*
X13151Y-79447D03*
X29213Y-73236D03*
X79580Y-90951D03*
X62560Y-75743D03*
X76506Y-77680D03*
X105867Y-95028D03*
X104113Y-79301D03*
X108520Y-71673D03*
X156180Y-101825D03*
X140128Y-80360D03*
X156092Y-80183D03*
X32080Y-121105D03*
X13155Y-121511D03*
X26737Y-110817D03*
X77389Y-106123D03*
X57914Y-121784D03*
X69118Y-101952D03*
X110911Y-121876D03*
X106859Y-115440D03*
X109518Y-103042D03*
X156134Y-144018D03*
X140063Y-122836D03*
X156134Y-122357D03*
X32597Y-162442D03*
X13197Y-165188D03*
X27260Y-145129D03*
X74147Y-164599D03*
X57751Y-151839D03*
X67170Y-161311D03*
X102229Y-187547D03*
X99984Y-165199D03*
X93624Y-161159D03*
X148668Y-162254D03*
X144516Y-155782D03*
X156199Y-164699D03*
X31130Y-198590D03*
X13244Y-195635D03*
X27572Y-187293D03*
X70748Y-194971D03*
X55557Y-207242D03*
X72956Y-207204D03*
X113947Y-229238D03*
X105933Y-213676D03*
X99645Y-206277D03*
X156515Y-229353D03*
X148320Y-218003D03*
X163589Y-176037D03*
X29193Y-272930D03*
X13151Y-248781D03*
X29213Y-242569D03*
X79580Y-260285D03*
X62560Y-245076D03*
X76506Y-247013D03*
X105867Y-264361D03*
X104113Y-248634D03*
X108520Y-241006D03*
X156180Y-271158D03*
X140128Y-249693D03*
X156092Y-249516D03*
X32080Y-290438D03*
X13155Y-290844D03*
X26737Y-280150D03*
X77389Y-275456D03*
X57914Y-291117D03*
X69118Y-271285D03*
X110911Y-291209D03*
X106859Y-284773D03*
X109518Y-272375D03*
X156134Y-313352D03*
X140063Y-292169D03*
X156134Y-291690D03*
X32597Y-331775D03*
X13197Y-334522D03*
X27260Y-314463D03*
X74147Y-333932D03*
X57751Y-321172D03*
X67170Y-330644D03*
X102229Y-356880D03*
X99984Y-334533D03*
X93624Y-330492D03*
X148668Y-331588D03*
X144516Y-325115D03*
X156199Y-334032D03*
X31130Y-367924D03*
X13244Y-364969D03*
X27572Y-356626D03*
X70748Y-364304D03*
X55557Y-376575D03*
X72956Y-376538D03*
X113947Y-398571D03*
X105933Y-383010D03*
X99645Y-375610D03*
X156515Y-398687D03*
X148320Y-387336D03*
X163589Y-345371D03*
X29193Y-442263D03*
X13151Y-418114D03*
X29213Y-411902D03*
X79580Y-429618D03*
X62560Y-414410D03*
X76506Y-416346D03*
X105867Y-433695D03*
X104113Y-417967D03*
X108520Y-410339D03*
X156180Y-440491D03*
X140128Y-419027D03*
X156092Y-418849D03*
X32080Y-459771D03*
X13155Y-460178D03*
X26737Y-449484D03*
X77389Y-444789D03*
X57914Y-460451D03*
X69118Y-440619D03*
X110911Y-460542D03*
X106859Y-454107D03*
X109518Y-441708D03*
X156134Y-482685D03*
X140063Y-461503D03*
X156134Y-461024D03*
X32597Y-501108D03*
X13197Y-503855D03*
X27260Y-483796D03*
X74147Y-503265D03*
X57751Y-490506D03*
X67170Y-499977D03*
X102229Y-526213D03*
X99984Y-503866D03*
X93624Y-499826D03*
X148668Y-500921D03*
X144516Y-494448D03*
X156199Y-503366D03*
X31130Y-537257D03*
X13244Y-534302D03*
X27572Y-525960D03*
X70748Y-533637D03*
X55557Y-545909D03*
X72956Y-545871D03*
X113947Y-567905D03*
X105933Y-552343D03*
X99645Y-544944D03*
X156515Y-568020D03*
X148320Y-556670D03*
X163589Y-514704D03*
X29193Y-611596D03*
X13151Y-587447D03*
X29213Y-581236D03*
X79580Y-598951D03*
X62560Y-583743D03*
X76506Y-585680D03*
X105867Y-603028D03*
X104113Y-587301D03*
X108520Y-579673D03*
X156180Y-609825D03*
X140128Y-588360D03*
X156092Y-588183D03*
X32080Y-629105D03*
X13155Y-629511D03*
X26737Y-618817D03*
X77389Y-614123D03*
X57914Y-629784D03*
X69118Y-609952D03*
X110911Y-629876D03*
X106859Y-623440D03*
X109518Y-611042D03*
X156134Y-652018D03*
X140063Y-630836D03*
X156134Y-630357D03*
X32597Y-670442D03*
X13197Y-673188D03*
X27260Y-653129D03*
X74147Y-672599D03*
X57751Y-659839D03*
X67170Y-669311D03*
X102229Y-695547D03*
X99984Y-673199D03*
X93624Y-669159D03*
X148668Y-670254D03*
X144516Y-663782D03*
X156199Y-672699D03*
X31130Y-706590D03*
X13244Y-703635D03*
X27572Y-695293D03*
X70748Y-702971D03*
X55557Y-715242D03*
X72956Y-715204D03*
X113947Y-737238D03*
X105933Y-721676D03*
X99645Y-714277D03*
X156515Y-737353D03*
X148320Y-726003D03*
X163589Y-684037D03*
X29193Y-780930D03*
X13151Y-756781D03*
X29213Y-750569D03*
X79580Y-768285D03*
X62560Y-753076D03*
X76506Y-755013D03*
X105867Y-772361D03*
X104113Y-756634D03*
X108520Y-749006D03*
X156180Y-779158D03*
X140128Y-757693D03*
X156092Y-757516D03*
X32080Y-798438D03*
X13155Y-798844D03*
X26737Y-788150D03*
X77389Y-783456D03*
X57914Y-799117D03*
X69118Y-779285D03*
X110911Y-799209D03*
X106859Y-792773D03*
X109518Y-780375D03*
X156134Y-821352D03*
X140063Y-800169D03*
X156134Y-799690D03*
X32597Y-839775D03*
X13197Y-842522D03*
X27260Y-822463D03*
X74147Y-841932D03*
X57751Y-829172D03*
X67170Y-838644D03*
X102229Y-864880D03*
X99984Y-842533D03*
X93624Y-838492D03*
X148668Y-839588D03*
X144516Y-833115D03*
X156199Y-842032D03*
X31130Y-875924D03*
X13244Y-872969D03*
X27572Y-864626D03*
X70748Y-872304D03*
X55557Y-884575D03*
X72956Y-884538D03*
X113947Y-906571D03*
X105933Y-891010D03*
X99645Y-883610D03*
X156515Y-906687D03*
X148320Y-895336D03*
X163589Y-853371D03*
X29193Y-950263D03*
X13151Y-926114D03*
X29213Y-919902D03*
X79580Y-937618D03*
X62560Y-922410D03*
X76506Y-924346D03*
X105867Y-941695D03*
X104113Y-925967D03*
X108520Y-918339D03*
X156180Y-948491D03*
X140128Y-927027D03*
X156092Y-926849D03*
X32080Y-967771D03*
X13155Y-968178D03*
X26737Y-957484D03*
X77389Y-952789D03*
X57914Y-968451D03*
X69118Y-948619D03*
X110911Y-968542D03*
X106859Y-962107D03*
X109518Y-949708D03*
X156134Y-990685D03*
X140063Y-969503D03*
X156134Y-969024D03*
X32597Y-1009108D03*
X13197Y-1011855D03*
X27260Y-991796D03*
X74147Y-1011265D03*
X57751Y-998506D03*
X67170Y-1007977D03*
X102229Y-1034213D03*
X99984Y-1011866D03*
X93624Y-1007826D03*
X148668Y-1008921D03*
X144516Y-1002448D03*
X156199Y-1011366D03*
X31130Y-1045257D03*
X13244Y-1042302D03*
X27572Y-1033960D03*
X70748Y-1041637D03*
X55557Y-1053909D03*
X72956Y-1053871D03*
X113947Y-1075905D03*
X105933Y-1060343D03*
X99645Y-1052944D03*
X156515Y-1076020D03*
X148320Y-1064670D03*
X163589Y-1022704D03*
X29193Y-1119596D03*
X13151Y-1095447D03*
X29213Y-1089236D03*
X79580Y-1106951D03*
X62560Y-1091743D03*
X76506Y-1093680D03*
X105867Y-1111028D03*
X104113Y-1095301D03*
X108520Y-1087673D03*
X156180Y-1117825D03*
X140128Y-1096360D03*
X156092Y-1096183D03*
X32080Y-1137105D03*
X13155Y-1137511D03*
X26737Y-1126817D03*
X77389Y-1122123D03*
X57914Y-1137784D03*
X69118Y-1117952D03*
X110911Y-1137876D03*
X106859Y-1131440D03*
X109518Y-1119042D03*
X156134Y-1160018D03*
X140063Y-1138836D03*
X156134Y-1138357D03*
X32597Y-1178442D03*
X13197Y-1181188D03*
X27260Y-1161129D03*
X74147Y-1180599D03*
X57751Y-1167839D03*
X67170Y-1177311D03*
X102229Y-1203547D03*
X99984Y-1181199D03*
X93624Y-1177159D03*
X148668Y-1178254D03*
X144516Y-1171782D03*
X156199Y-1180699D03*
X31130Y-1214590D03*
X13244Y-1211635D03*
X27572Y-1203293D03*
X70748Y-1210971D03*
X55557Y-1223242D03*
X72956Y-1223204D03*
X113947Y-1245238D03*
X105933Y-1229676D03*
X99645Y-1222277D03*
X156515Y-1245353D03*
X148320Y-1234003D03*
X163589Y-1192037D03*
X29193Y-1288930D03*
X13151Y-1264781D03*
X29213Y-1258569D03*
X79580Y-1276285D03*
X62560Y-1261076D03*
X76506Y-1263013D03*
X105867Y-1280361D03*
X104113Y-1264634D03*
X108520Y-1257006D03*
X156180Y-1287158D03*
X140128Y-1265693D03*
X156092Y-1265516D03*
X32080Y-1306438D03*
X13155Y-1306844D03*
X26737Y-1296150D03*
X77389Y-1291456D03*
X57914Y-1307117D03*
X69118Y-1287285D03*
X110911Y-1307209D03*
X106812Y-1300465D03*
X109518Y-1288375D03*
X156134Y-1329352D03*
X140063Y-1308169D03*
X156134Y-1307690D03*
X13155Y-101853D03*
X58150Y-102396D03*
X100864Y-103021D03*
X13392Y-144403D03*
X13303Y-187767D03*
X57936Y-186349D03*
X98504Y-194310D03*
X98031Y-229211D03*
X55545Y-228843D03*
X13426Y-228843D03*
X148117Y-228916D03*
X140349Y-144631D03*
X140039Y-102265D03*
X135894Y-163884D03*
X13155Y-271187D03*
X58150Y-271730D03*
X100864Y-272354D03*
X13392Y-313736D03*
X13303Y-357100D03*
X57936Y-355682D03*
X98504Y-363643D03*
X98031Y-398544D03*
X55545Y-398176D03*
X13426Y-398176D03*
X148117Y-398249D03*
X140349Y-313965D03*
X140039Y-271599D03*
X135894Y-333217D03*
X13155Y-440520D03*
X58150Y-441063D03*
X100864Y-441688D03*
X13392Y-483069D03*
X13303Y-526434D03*
X57936Y-525015D03*
X98504Y-532977D03*
X98031Y-567877D03*
X55545Y-567510D03*
X13426Y-567510D03*
X148117Y-567582D03*
X140349Y-483298D03*
X140039Y-440932D03*
X135894Y-502550D03*
X13155Y-609853D03*
X58150Y-610396D03*
X100864Y-611021D03*
X13392Y-652403D03*
X13303Y-695767D03*
X57936Y-694349D03*
X98504Y-702310D03*
X98031Y-737211D03*
X55545Y-736843D03*
X13426Y-736843D03*
X148117Y-736916D03*
X140349Y-652631D03*
X140039Y-610265D03*
X135894Y-671884D03*
X13155Y-779187D03*
X58150Y-779730D03*
X100864Y-780354D03*
X13392Y-821736D03*
X13303Y-865100D03*
X57936Y-863682D03*
X98504Y-871643D03*
X98031Y-906544D03*
X55545Y-906176D03*
X13426Y-906176D03*
X148117Y-906249D03*
X140349Y-821965D03*
X140039Y-779599D03*
X135894Y-841217D03*
X13155Y-948520D03*
X58150Y-949063D03*
X100864Y-949688D03*
X13392Y-991069D03*
X13303Y-1034434D03*
X57936Y-1033015D03*
X98504Y-1040977D03*
X98031Y-1075877D03*
X55545Y-1075510D03*
X13426Y-1075510D03*
X148117Y-1075582D03*
X140349Y-991298D03*
X140039Y-948932D03*
X135894Y-1010550D03*
X13155Y-1117853D03*
X58150Y-1118396D03*
X100864Y-1119021D03*
X13392Y-1160403D03*
X13303Y-1203767D03*
X57936Y-1202349D03*
X98504Y-1210310D03*
X98031Y-1245211D03*
X55545Y-1244843D03*
X13426Y-1244843D03*
X148117Y-1244916D03*
X140349Y-1160631D03*
X140039Y-1118265D03*
X135894Y-1179884D03*
X13155Y-1287187D03*
X58150Y-1287730D03*
X100864Y-1288354D03*
X13392Y-1329736D03*
X140349Y-1329965D03*
X140039Y-1287599D03*
X157793Y-194418D03*
X157793Y-363752D03*
X157793Y-533085D03*
X157793Y-702418D03*
X157793Y-871752D03*
X157793Y-1041085D03*
X157793Y-1210418D03*
D16*
X149296Y-1342723D03*
M02*
