G04 EAGLE Gerber RS-274X export*
G75*
%MOMM*%
%FSLAX34Y34*%
%LPD*%
%INSilkscreen Bottom*%
%IPPOS*%
%AMOC8*
5,1,8,0,0,1.08239X$1,22.5*%
G01*
%ADD10C,0.050800*%
%ADD11C,0.200000*%
%ADD12C,0.101600*%


D10*
X163177Y-6707D02*
X160981Y-13295D01*
X158785Y-6707D01*
X156485Y-10367D02*
X156485Y-11831D01*
X156485Y-10367D02*
X156483Y-10292D01*
X156477Y-10216D01*
X156468Y-10142D01*
X156454Y-10068D01*
X156437Y-9994D01*
X156416Y-9922D01*
X156391Y-9851D01*
X156362Y-9781D01*
X156331Y-9712D01*
X156295Y-9646D01*
X156256Y-9581D01*
X156214Y-9519D01*
X156169Y-9458D01*
X156121Y-9401D01*
X156069Y-9345D01*
X156015Y-9293D01*
X155959Y-9243D01*
X155900Y-9196D01*
X155838Y-9152D01*
X155775Y-9112D01*
X155709Y-9075D01*
X155642Y-9041D01*
X155573Y-9011D01*
X155502Y-8984D01*
X155430Y-8961D01*
X155357Y-8942D01*
X155283Y-8927D01*
X155209Y-8915D01*
X155134Y-8907D01*
X155059Y-8903D01*
X154983Y-8903D01*
X154908Y-8907D01*
X154833Y-8915D01*
X154759Y-8927D01*
X154685Y-8942D01*
X154612Y-8961D01*
X154540Y-8984D01*
X154469Y-9011D01*
X154400Y-9041D01*
X154333Y-9075D01*
X154267Y-9112D01*
X154204Y-9152D01*
X154142Y-9196D01*
X154083Y-9243D01*
X154027Y-9293D01*
X153973Y-9345D01*
X153921Y-9401D01*
X153873Y-9458D01*
X153828Y-9519D01*
X153786Y-9581D01*
X153747Y-9646D01*
X153711Y-9712D01*
X153680Y-9781D01*
X153651Y-9851D01*
X153626Y-9922D01*
X153605Y-9994D01*
X153588Y-10068D01*
X153574Y-10142D01*
X153565Y-10216D01*
X153559Y-10292D01*
X153557Y-10367D01*
X153557Y-11831D01*
X153559Y-11906D01*
X153565Y-11982D01*
X153574Y-12056D01*
X153588Y-12130D01*
X153605Y-12204D01*
X153626Y-12276D01*
X153651Y-12347D01*
X153680Y-12417D01*
X153711Y-12486D01*
X153747Y-12552D01*
X153786Y-12617D01*
X153828Y-12679D01*
X153873Y-12740D01*
X153921Y-12797D01*
X153973Y-12853D01*
X154027Y-12905D01*
X154083Y-12955D01*
X154142Y-13002D01*
X154204Y-13046D01*
X154267Y-13086D01*
X154333Y-13123D01*
X154400Y-13157D01*
X154469Y-13187D01*
X154540Y-13214D01*
X154612Y-13237D01*
X154685Y-13256D01*
X154759Y-13271D01*
X154833Y-13283D01*
X154908Y-13291D01*
X154983Y-13295D01*
X155059Y-13295D01*
X155134Y-13291D01*
X155209Y-13283D01*
X155283Y-13271D01*
X155357Y-13256D01*
X155430Y-13237D01*
X155502Y-13214D01*
X155573Y-13187D01*
X155642Y-13157D01*
X155709Y-13123D01*
X155775Y-13086D01*
X155838Y-13046D01*
X155900Y-13002D01*
X155959Y-12955D01*
X156015Y-12905D01*
X156069Y-12853D01*
X156121Y-12797D01*
X156169Y-12740D01*
X156214Y-12679D01*
X156256Y-12617D01*
X156295Y-12552D01*
X156331Y-12486D01*
X156362Y-12417D01*
X156391Y-12347D01*
X156416Y-12276D01*
X156437Y-12204D01*
X156454Y-12130D01*
X156468Y-12056D01*
X156477Y-11982D01*
X156483Y-11906D01*
X156485Y-11831D01*
X151163Y-13295D02*
X148235Y-8903D01*
X151163Y-8903D02*
X148235Y-13295D01*
X144743Y-13295D02*
X142913Y-13295D01*
X144743Y-13295D02*
X144807Y-13293D01*
X144870Y-13288D01*
X144934Y-13278D01*
X144996Y-13265D01*
X145058Y-13249D01*
X145119Y-13229D01*
X145178Y-13205D01*
X145236Y-13178D01*
X145292Y-13148D01*
X145346Y-13114D01*
X145399Y-13078D01*
X145449Y-13038D01*
X145496Y-12996D01*
X145542Y-12950D01*
X145584Y-12903D01*
X145624Y-12853D01*
X145660Y-12800D01*
X145694Y-12746D01*
X145724Y-12690D01*
X145751Y-12632D01*
X145775Y-12573D01*
X145795Y-12512D01*
X145811Y-12450D01*
X145824Y-12388D01*
X145834Y-12324D01*
X145839Y-12261D01*
X145841Y-12197D01*
X145841Y-10367D01*
X145839Y-10292D01*
X145833Y-10216D01*
X145824Y-10142D01*
X145810Y-10068D01*
X145793Y-9994D01*
X145772Y-9922D01*
X145747Y-9851D01*
X145718Y-9781D01*
X145687Y-9712D01*
X145651Y-9646D01*
X145612Y-9581D01*
X145570Y-9519D01*
X145525Y-9458D01*
X145477Y-9401D01*
X145425Y-9345D01*
X145371Y-9293D01*
X145315Y-9243D01*
X145256Y-9196D01*
X145194Y-9152D01*
X145131Y-9112D01*
X145065Y-9075D01*
X144998Y-9041D01*
X144929Y-9011D01*
X144858Y-8984D01*
X144786Y-8961D01*
X144713Y-8942D01*
X144639Y-8927D01*
X144565Y-8915D01*
X144490Y-8907D01*
X144415Y-8903D01*
X144339Y-8903D01*
X144264Y-8907D01*
X144189Y-8915D01*
X144115Y-8927D01*
X144041Y-8942D01*
X143968Y-8961D01*
X143896Y-8984D01*
X143825Y-9011D01*
X143756Y-9041D01*
X143689Y-9075D01*
X143623Y-9112D01*
X143560Y-9152D01*
X143498Y-9196D01*
X143439Y-9243D01*
X143383Y-9293D01*
X143329Y-9345D01*
X143277Y-9401D01*
X143229Y-9458D01*
X143184Y-9519D01*
X143142Y-9581D01*
X143103Y-9646D01*
X143067Y-9712D01*
X143036Y-9781D01*
X143007Y-9851D01*
X142982Y-9922D01*
X142961Y-9994D01*
X142944Y-10068D01*
X142930Y-10142D01*
X142921Y-10216D01*
X142915Y-10292D01*
X142913Y-10367D01*
X142913Y-11099D01*
X145841Y-11099D01*
X140216Y-12197D02*
X140216Y-6707D01*
X140216Y-12197D02*
X140214Y-12261D01*
X140209Y-12324D01*
X140199Y-12388D01*
X140186Y-12450D01*
X140170Y-12512D01*
X140150Y-12573D01*
X140126Y-12632D01*
X140099Y-12690D01*
X140069Y-12746D01*
X140035Y-12800D01*
X139999Y-12853D01*
X139959Y-12903D01*
X139917Y-12950D01*
X139871Y-12996D01*
X139824Y-13038D01*
X139774Y-13078D01*
X139721Y-13114D01*
X139667Y-13148D01*
X139611Y-13178D01*
X139553Y-13205D01*
X139494Y-13229D01*
X139433Y-13249D01*
X139371Y-13265D01*
X139309Y-13278D01*
X139245Y-13288D01*
X139182Y-13293D01*
X139118Y-13295D01*
X133209Y-13295D02*
X133209Y-6707D01*
X133209Y-13295D02*
X130281Y-13295D01*
X127674Y-13295D02*
X124746Y-13295D01*
X127674Y-13295D02*
X127674Y-6707D01*
X124746Y-6707D01*
X125478Y-9635D02*
X127674Y-9635D01*
X122152Y-6707D02*
X122152Y-13295D01*
X122152Y-6707D02*
X120322Y-6707D01*
X120237Y-6709D01*
X120153Y-6715D01*
X120069Y-6725D01*
X119986Y-6738D01*
X119903Y-6756D01*
X119821Y-6777D01*
X119740Y-6802D01*
X119661Y-6831D01*
X119583Y-6863D01*
X119506Y-6899D01*
X119432Y-6938D01*
X119359Y-6981D01*
X119288Y-7027D01*
X119219Y-7077D01*
X119153Y-7129D01*
X119089Y-7185D01*
X119028Y-7243D01*
X118970Y-7304D01*
X118914Y-7368D01*
X118862Y-7434D01*
X118812Y-7503D01*
X118766Y-7574D01*
X118723Y-7647D01*
X118684Y-7721D01*
X118648Y-7798D01*
X118616Y-7876D01*
X118587Y-7955D01*
X118562Y-8036D01*
X118541Y-8118D01*
X118523Y-8201D01*
X118510Y-8284D01*
X118500Y-8368D01*
X118494Y-8452D01*
X118492Y-8537D01*
X118492Y-11465D01*
X118494Y-11550D01*
X118500Y-11634D01*
X118510Y-11718D01*
X118523Y-11801D01*
X118541Y-11884D01*
X118562Y-11966D01*
X118587Y-12047D01*
X118616Y-12126D01*
X118648Y-12204D01*
X118684Y-12281D01*
X118723Y-12355D01*
X118766Y-12428D01*
X118812Y-12499D01*
X118862Y-12568D01*
X118914Y-12634D01*
X118970Y-12698D01*
X119028Y-12759D01*
X119089Y-12817D01*
X119153Y-12873D01*
X119219Y-12925D01*
X119288Y-12975D01*
X119359Y-13021D01*
X119432Y-13064D01*
X119506Y-13103D01*
X119583Y-13139D01*
X119661Y-13171D01*
X119740Y-13200D01*
X119821Y-13225D01*
X119903Y-13246D01*
X119986Y-13264D01*
X120069Y-13277D01*
X120153Y-13287D01*
X120237Y-13293D01*
X120322Y-13295D01*
X122152Y-13295D01*
X159517Y-22475D02*
X159519Y-22549D01*
X159525Y-22623D01*
X159534Y-22697D01*
X159547Y-22770D01*
X159564Y-22842D01*
X159584Y-22913D01*
X159608Y-22983D01*
X159636Y-23052D01*
X159667Y-23120D01*
X159701Y-23185D01*
X159739Y-23249D01*
X159779Y-23311D01*
X159823Y-23371D01*
X159870Y-23429D01*
X159920Y-23484D01*
X159972Y-23536D01*
X160027Y-23586D01*
X160085Y-23633D01*
X160145Y-23677D01*
X160207Y-23717D01*
X160271Y-23755D01*
X160336Y-23789D01*
X160404Y-23820D01*
X160473Y-23848D01*
X160543Y-23872D01*
X160614Y-23892D01*
X160686Y-23909D01*
X160759Y-23922D01*
X160833Y-23931D01*
X160907Y-23937D01*
X160981Y-23939D01*
X161092Y-23937D01*
X161203Y-23931D01*
X161313Y-23921D01*
X161424Y-23907D01*
X161533Y-23889D01*
X161642Y-23868D01*
X161750Y-23842D01*
X161857Y-23812D01*
X161963Y-23779D01*
X162067Y-23742D01*
X162171Y-23701D01*
X162272Y-23657D01*
X162372Y-23608D01*
X162471Y-23557D01*
X162567Y-23502D01*
X162661Y-23443D01*
X162753Y-23381D01*
X162843Y-23316D01*
X162930Y-23247D01*
X163015Y-23176D01*
X163098Y-23101D01*
X163177Y-23024D01*
X162994Y-18815D02*
X162992Y-18741D01*
X162986Y-18667D01*
X162977Y-18593D01*
X162964Y-18520D01*
X162947Y-18448D01*
X162927Y-18377D01*
X162903Y-18307D01*
X162875Y-18238D01*
X162844Y-18170D01*
X162810Y-18105D01*
X162772Y-18041D01*
X162732Y-17979D01*
X162688Y-17919D01*
X162641Y-17861D01*
X162591Y-17806D01*
X162539Y-17754D01*
X162484Y-17704D01*
X162426Y-17657D01*
X162366Y-17613D01*
X162304Y-17573D01*
X162240Y-17535D01*
X162175Y-17501D01*
X162107Y-17470D01*
X162038Y-17442D01*
X161968Y-17418D01*
X161897Y-17398D01*
X161825Y-17381D01*
X161752Y-17368D01*
X161678Y-17359D01*
X161604Y-17353D01*
X161530Y-17351D01*
X161426Y-17353D01*
X161322Y-17359D01*
X161219Y-17369D01*
X161116Y-17382D01*
X161014Y-17400D01*
X160912Y-17421D01*
X160811Y-17447D01*
X160711Y-17476D01*
X160613Y-17509D01*
X160516Y-17545D01*
X160420Y-17586D01*
X160326Y-17629D01*
X160233Y-17677D01*
X160142Y-17728D01*
X160054Y-17782D01*
X159967Y-17839D01*
X159883Y-17900D01*
X162262Y-20096D02*
X162324Y-20057D01*
X162385Y-20015D01*
X162443Y-19970D01*
X162499Y-19923D01*
X162552Y-19872D01*
X162603Y-19819D01*
X162652Y-19764D01*
X162697Y-19706D01*
X162740Y-19646D01*
X162779Y-19584D01*
X162816Y-19521D01*
X162849Y-19455D01*
X162879Y-19388D01*
X162906Y-19319D01*
X162929Y-19250D01*
X162949Y-19179D01*
X162965Y-19107D01*
X162978Y-19035D01*
X162987Y-18962D01*
X162992Y-18888D01*
X162994Y-18815D01*
X160249Y-21194D02*
X160187Y-21233D01*
X160126Y-21275D01*
X160068Y-21320D01*
X160012Y-21367D01*
X159959Y-21418D01*
X159908Y-21471D01*
X159859Y-21526D01*
X159814Y-21584D01*
X159771Y-21644D01*
X159732Y-21706D01*
X159695Y-21769D01*
X159662Y-21835D01*
X159632Y-21902D01*
X159605Y-21971D01*
X159582Y-22040D01*
X159562Y-22111D01*
X159546Y-22183D01*
X159533Y-22255D01*
X159524Y-22328D01*
X159519Y-22402D01*
X159517Y-22475D01*
X160249Y-21194D02*
X162262Y-20096D01*
X156851Y-19547D02*
X156851Y-22841D01*
X156849Y-22905D01*
X156844Y-22968D01*
X156834Y-23032D01*
X156821Y-23094D01*
X156805Y-23156D01*
X156785Y-23217D01*
X156761Y-23276D01*
X156734Y-23334D01*
X156704Y-23390D01*
X156670Y-23444D01*
X156634Y-23497D01*
X156594Y-23547D01*
X156552Y-23594D01*
X156506Y-23640D01*
X156459Y-23682D01*
X156409Y-23722D01*
X156356Y-23758D01*
X156302Y-23792D01*
X156246Y-23822D01*
X156188Y-23849D01*
X156129Y-23873D01*
X156068Y-23893D01*
X156006Y-23909D01*
X155944Y-23922D01*
X155880Y-23932D01*
X155817Y-23937D01*
X155753Y-23939D01*
X153923Y-23939D01*
X153923Y-19547D01*
X150859Y-17351D02*
X150859Y-23939D01*
X149029Y-23939D01*
X148965Y-23937D01*
X148902Y-23932D01*
X148838Y-23922D01*
X148776Y-23909D01*
X148714Y-23893D01*
X148653Y-23873D01*
X148594Y-23849D01*
X148536Y-23822D01*
X148480Y-23792D01*
X148426Y-23758D01*
X148373Y-23722D01*
X148323Y-23682D01*
X148276Y-23640D01*
X148230Y-23594D01*
X148188Y-23547D01*
X148148Y-23497D01*
X148112Y-23444D01*
X148078Y-23390D01*
X148048Y-23334D01*
X148021Y-23276D01*
X147997Y-23217D01*
X147977Y-23156D01*
X147961Y-23094D01*
X147948Y-23032D01*
X147938Y-22968D01*
X147933Y-22905D01*
X147931Y-22841D01*
X147931Y-20645D01*
X147933Y-20581D01*
X147938Y-20518D01*
X147948Y-20454D01*
X147961Y-20392D01*
X147977Y-20330D01*
X147997Y-20269D01*
X148021Y-20210D01*
X148048Y-20152D01*
X148078Y-20096D01*
X148112Y-20042D01*
X148148Y-19989D01*
X148188Y-19939D01*
X148230Y-19892D01*
X148276Y-19846D01*
X148323Y-19804D01*
X148373Y-19764D01*
X148426Y-19728D01*
X148480Y-19694D01*
X148536Y-19664D01*
X148594Y-19637D01*
X148653Y-19613D01*
X148714Y-19593D01*
X148776Y-19577D01*
X148838Y-19564D01*
X148902Y-19554D01*
X148965Y-19549D01*
X149029Y-19547D01*
X150859Y-19547D01*
X145023Y-19547D02*
X145023Y-23939D01*
X145023Y-19547D02*
X141729Y-19547D01*
X141665Y-19549D01*
X141602Y-19554D01*
X141538Y-19564D01*
X141476Y-19577D01*
X141414Y-19593D01*
X141353Y-19613D01*
X141294Y-19637D01*
X141236Y-19664D01*
X141180Y-19694D01*
X141126Y-19728D01*
X141073Y-19764D01*
X141023Y-19804D01*
X140976Y-19846D01*
X140930Y-19892D01*
X140888Y-19939D01*
X140848Y-19989D01*
X140812Y-20042D01*
X140778Y-20096D01*
X140748Y-20152D01*
X140721Y-20210D01*
X140697Y-20269D01*
X140677Y-20330D01*
X140661Y-20392D01*
X140648Y-20454D01*
X140638Y-20518D01*
X140633Y-20581D01*
X140631Y-20645D01*
X140631Y-23939D01*
X142827Y-23939D02*
X142827Y-19547D01*
X136442Y-21377D02*
X134795Y-21377D01*
X136442Y-21377D02*
X136513Y-21379D01*
X136583Y-21385D01*
X136653Y-21394D01*
X136722Y-21408D01*
X136791Y-21425D01*
X136858Y-21446D01*
X136924Y-21471D01*
X136989Y-21500D01*
X137052Y-21531D01*
X137113Y-21567D01*
X137172Y-21605D01*
X137229Y-21647D01*
X137283Y-21692D01*
X137335Y-21740D01*
X137384Y-21790D01*
X137431Y-21844D01*
X137474Y-21899D01*
X137514Y-21957D01*
X137551Y-22018D01*
X137585Y-22080D01*
X137615Y-22143D01*
X137642Y-22209D01*
X137665Y-22276D01*
X137684Y-22344D01*
X137699Y-22412D01*
X137711Y-22482D01*
X137719Y-22552D01*
X137723Y-22623D01*
X137723Y-22693D01*
X137719Y-22764D01*
X137711Y-22834D01*
X137699Y-22904D01*
X137684Y-22972D01*
X137665Y-23040D01*
X137642Y-23107D01*
X137615Y-23173D01*
X137585Y-23236D01*
X137551Y-23299D01*
X137514Y-23359D01*
X137474Y-23417D01*
X137431Y-23472D01*
X137384Y-23526D01*
X137335Y-23576D01*
X137283Y-23624D01*
X137229Y-23669D01*
X137172Y-23711D01*
X137113Y-23749D01*
X137052Y-23785D01*
X136989Y-23816D01*
X136924Y-23845D01*
X136858Y-23870D01*
X136791Y-23891D01*
X136722Y-23908D01*
X136653Y-23922D01*
X136583Y-23931D01*
X136513Y-23937D01*
X136442Y-23939D01*
X134795Y-23939D01*
X134795Y-20645D01*
X134797Y-20581D01*
X134802Y-20518D01*
X134812Y-20454D01*
X134825Y-20392D01*
X134841Y-20330D01*
X134861Y-20269D01*
X134885Y-20210D01*
X134912Y-20152D01*
X134942Y-20096D01*
X134976Y-20042D01*
X135012Y-19989D01*
X135052Y-19939D01*
X135094Y-19892D01*
X135140Y-19846D01*
X135187Y-19804D01*
X135237Y-19764D01*
X135290Y-19728D01*
X135344Y-19694D01*
X135400Y-19664D01*
X135458Y-19637D01*
X135517Y-19613D01*
X135578Y-19593D01*
X135640Y-19577D01*
X135702Y-19564D01*
X135766Y-19554D01*
X135829Y-19549D01*
X135893Y-19547D01*
X137357Y-19547D01*
X132478Y-19547D02*
X130282Y-19547D01*
X131746Y-17351D02*
X131746Y-22841D01*
X131744Y-22905D01*
X131739Y-22968D01*
X131729Y-23032D01*
X131716Y-23094D01*
X131700Y-23156D01*
X131680Y-23217D01*
X131656Y-23276D01*
X131629Y-23334D01*
X131599Y-23390D01*
X131565Y-23444D01*
X131529Y-23497D01*
X131489Y-23547D01*
X131447Y-23594D01*
X131401Y-23640D01*
X131354Y-23682D01*
X131304Y-23722D01*
X131251Y-23758D01*
X131197Y-23792D01*
X131141Y-23822D01*
X131083Y-23849D01*
X131024Y-23873D01*
X130963Y-23893D01*
X130901Y-23909D01*
X130839Y-23922D01*
X130775Y-23932D01*
X130712Y-23937D01*
X130648Y-23939D01*
X130282Y-23939D01*
X127651Y-23939D02*
X127651Y-19547D01*
X125455Y-19547D01*
X125455Y-20279D01*
X123455Y-19547D02*
X123455Y-23939D01*
X123638Y-17717D02*
X123638Y-17351D01*
X123272Y-17351D01*
X123272Y-17717D01*
X123638Y-17717D01*
X118159Y-19547D02*
X121087Y-23939D01*
X118159Y-23939D02*
X121087Y-19547D01*
X163177Y-30191D02*
X163177Y-34583D01*
X163177Y-30191D02*
X160981Y-30191D01*
X160981Y-30923D01*
X157857Y-34583D02*
X156027Y-34583D01*
X157857Y-34583D02*
X157921Y-34581D01*
X157984Y-34576D01*
X158048Y-34566D01*
X158110Y-34553D01*
X158172Y-34537D01*
X158233Y-34517D01*
X158292Y-34493D01*
X158350Y-34466D01*
X158406Y-34436D01*
X158460Y-34402D01*
X158513Y-34366D01*
X158563Y-34326D01*
X158610Y-34284D01*
X158656Y-34238D01*
X158698Y-34191D01*
X158738Y-34141D01*
X158774Y-34088D01*
X158808Y-34034D01*
X158838Y-33978D01*
X158865Y-33920D01*
X158889Y-33861D01*
X158909Y-33800D01*
X158925Y-33738D01*
X158938Y-33676D01*
X158948Y-33612D01*
X158953Y-33549D01*
X158955Y-33485D01*
X158955Y-31655D01*
X158953Y-31580D01*
X158947Y-31504D01*
X158938Y-31430D01*
X158924Y-31356D01*
X158907Y-31282D01*
X158886Y-31210D01*
X158861Y-31139D01*
X158832Y-31069D01*
X158801Y-31000D01*
X158765Y-30934D01*
X158726Y-30869D01*
X158684Y-30807D01*
X158639Y-30746D01*
X158591Y-30689D01*
X158539Y-30633D01*
X158485Y-30581D01*
X158429Y-30531D01*
X158370Y-30484D01*
X158308Y-30440D01*
X158245Y-30400D01*
X158179Y-30363D01*
X158112Y-30329D01*
X158043Y-30299D01*
X157972Y-30272D01*
X157900Y-30249D01*
X157827Y-30230D01*
X157753Y-30215D01*
X157679Y-30203D01*
X157604Y-30195D01*
X157529Y-30191D01*
X157453Y-30191D01*
X157378Y-30195D01*
X157303Y-30203D01*
X157229Y-30215D01*
X157155Y-30230D01*
X157082Y-30249D01*
X157010Y-30272D01*
X156939Y-30299D01*
X156870Y-30329D01*
X156803Y-30363D01*
X156737Y-30400D01*
X156674Y-30440D01*
X156612Y-30484D01*
X156553Y-30531D01*
X156497Y-30581D01*
X156443Y-30633D01*
X156391Y-30689D01*
X156343Y-30746D01*
X156298Y-30807D01*
X156256Y-30869D01*
X156217Y-30934D01*
X156181Y-31000D01*
X156150Y-31069D01*
X156121Y-31139D01*
X156096Y-31210D01*
X156075Y-31282D01*
X156058Y-31356D01*
X156044Y-31430D01*
X156035Y-31504D01*
X156029Y-31580D01*
X156027Y-31655D01*
X156027Y-32387D01*
X158955Y-32387D01*
X153633Y-30191D02*
X152169Y-34583D01*
X150705Y-30191D01*
X142832Y-27995D02*
X142754Y-27997D01*
X142675Y-28002D01*
X142598Y-28012D01*
X142520Y-28025D01*
X142444Y-28041D01*
X142368Y-28062D01*
X142293Y-28086D01*
X142220Y-28113D01*
X142148Y-28144D01*
X142077Y-28178D01*
X142009Y-28216D01*
X141942Y-28256D01*
X141877Y-28300D01*
X141814Y-28347D01*
X141753Y-28397D01*
X141695Y-28450D01*
X141640Y-28505D01*
X141587Y-28563D01*
X141537Y-28624D01*
X141490Y-28687D01*
X141446Y-28752D01*
X141406Y-28818D01*
X141368Y-28887D01*
X141334Y-28958D01*
X141303Y-29030D01*
X141276Y-29103D01*
X141252Y-29178D01*
X141231Y-29254D01*
X141215Y-29330D01*
X141202Y-29408D01*
X141192Y-29485D01*
X141187Y-29564D01*
X141185Y-29642D01*
X142832Y-27995D02*
X142921Y-27997D01*
X143009Y-28002D01*
X143097Y-28012D01*
X143185Y-28025D01*
X143272Y-28041D01*
X143359Y-28062D01*
X143444Y-28085D01*
X143528Y-28113D01*
X143612Y-28144D01*
X143693Y-28178D01*
X143774Y-28216D01*
X143852Y-28257D01*
X143929Y-28302D01*
X144004Y-28349D01*
X144077Y-28400D01*
X144147Y-28453D01*
X144216Y-28510D01*
X144281Y-28569D01*
X144345Y-28631D01*
X144405Y-28696D01*
X144463Y-28763D01*
X144518Y-28833D01*
X144570Y-28905D01*
X144619Y-28979D01*
X144665Y-29054D01*
X144708Y-29132D01*
X144747Y-29212D01*
X144783Y-29293D01*
X144816Y-29375D01*
X144845Y-29459D01*
X141734Y-30923D02*
X141678Y-30867D01*
X141624Y-30808D01*
X141573Y-30747D01*
X141524Y-30684D01*
X141479Y-30619D01*
X141437Y-30551D01*
X141397Y-30482D01*
X141361Y-30411D01*
X141328Y-30339D01*
X141298Y-30265D01*
X141272Y-30190D01*
X141249Y-30114D01*
X141230Y-30037D01*
X141214Y-29959D01*
X141201Y-29880D01*
X141192Y-29801D01*
X141187Y-29722D01*
X141185Y-29642D01*
X141734Y-30923D02*
X144845Y-34583D01*
X141185Y-34583D01*
D11*
X54167Y-206000D02*
X39417Y-206000D01*
D12*
X94975Y-139342D02*
X94975Y-127658D01*
X96273Y-139342D02*
X93677Y-139342D01*
X93677Y-127658D02*
X96273Y-127658D01*
X86513Y-139342D02*
X83917Y-139342D01*
X86513Y-139342D02*
X86612Y-139340D01*
X86712Y-139334D01*
X86811Y-139325D01*
X86909Y-139312D01*
X87007Y-139295D01*
X87105Y-139274D01*
X87201Y-139249D01*
X87296Y-139221D01*
X87390Y-139189D01*
X87483Y-139154D01*
X87575Y-139115D01*
X87665Y-139072D01*
X87753Y-139027D01*
X87840Y-138977D01*
X87924Y-138925D01*
X88007Y-138869D01*
X88087Y-138811D01*
X88165Y-138749D01*
X88240Y-138684D01*
X88313Y-138616D01*
X88383Y-138546D01*
X88451Y-138473D01*
X88516Y-138398D01*
X88578Y-138320D01*
X88636Y-138240D01*
X88692Y-138157D01*
X88744Y-138073D01*
X88794Y-137986D01*
X88839Y-137898D01*
X88882Y-137808D01*
X88921Y-137716D01*
X88956Y-137623D01*
X88988Y-137529D01*
X89016Y-137434D01*
X89041Y-137338D01*
X89062Y-137240D01*
X89079Y-137142D01*
X89092Y-137044D01*
X89101Y-136945D01*
X89107Y-136845D01*
X89109Y-136746D01*
X89110Y-136746D02*
X89110Y-130254D01*
X89108Y-130155D01*
X89102Y-130055D01*
X89093Y-129956D01*
X89080Y-129858D01*
X89062Y-129760D01*
X89042Y-129662D01*
X89017Y-129566D01*
X88989Y-129470D01*
X88957Y-129376D01*
X88922Y-129283D01*
X88883Y-129192D01*
X88840Y-129102D01*
X88795Y-129013D01*
X88745Y-128927D01*
X88693Y-128842D01*
X88637Y-128760D01*
X88578Y-128680D01*
X88517Y-128602D01*
X88452Y-128526D01*
X88384Y-128453D01*
X88314Y-128383D01*
X88241Y-128315D01*
X88165Y-128250D01*
X88087Y-128189D01*
X88007Y-128130D01*
X87925Y-128074D01*
X87840Y-128022D01*
X87754Y-127973D01*
X87665Y-127927D01*
X87575Y-127884D01*
X87484Y-127845D01*
X87391Y-127810D01*
X87297Y-127778D01*
X87201Y-127750D01*
X87105Y-127725D01*
X87007Y-127705D01*
X86909Y-127687D01*
X86811Y-127674D01*
X86712Y-127665D01*
X86613Y-127659D01*
X86513Y-127657D01*
X86513Y-127658D02*
X83917Y-127658D01*
X79551Y-130254D02*
X76306Y-127658D01*
X76306Y-139342D01*
X79551Y-139342D02*
X73060Y-139342D01*
D11*
X54167Y-375333D02*
X39417Y-375333D01*
D12*
X94975Y-308675D02*
X94975Y-296991D01*
X96273Y-308675D02*
X93677Y-308675D01*
X93677Y-296991D02*
X96273Y-296991D01*
X86513Y-308675D02*
X83917Y-308675D01*
X86513Y-308675D02*
X86612Y-308673D01*
X86712Y-308667D01*
X86811Y-308658D01*
X86909Y-308645D01*
X87007Y-308628D01*
X87105Y-308607D01*
X87201Y-308582D01*
X87296Y-308554D01*
X87390Y-308522D01*
X87483Y-308487D01*
X87575Y-308448D01*
X87665Y-308405D01*
X87753Y-308360D01*
X87840Y-308310D01*
X87924Y-308258D01*
X88007Y-308202D01*
X88087Y-308144D01*
X88165Y-308082D01*
X88240Y-308017D01*
X88313Y-307949D01*
X88383Y-307879D01*
X88451Y-307806D01*
X88516Y-307731D01*
X88578Y-307653D01*
X88636Y-307573D01*
X88692Y-307490D01*
X88744Y-307406D01*
X88794Y-307319D01*
X88839Y-307231D01*
X88882Y-307141D01*
X88921Y-307049D01*
X88956Y-306956D01*
X88988Y-306862D01*
X89016Y-306767D01*
X89041Y-306671D01*
X89062Y-306573D01*
X89079Y-306475D01*
X89092Y-306377D01*
X89101Y-306278D01*
X89107Y-306178D01*
X89109Y-306079D01*
X89110Y-306079D02*
X89110Y-299588D01*
X89108Y-299489D01*
X89102Y-299389D01*
X89093Y-299290D01*
X89080Y-299192D01*
X89062Y-299094D01*
X89042Y-298996D01*
X89017Y-298900D01*
X88989Y-298804D01*
X88957Y-298710D01*
X88922Y-298617D01*
X88883Y-298526D01*
X88840Y-298436D01*
X88795Y-298347D01*
X88745Y-298261D01*
X88693Y-298176D01*
X88637Y-298094D01*
X88578Y-298014D01*
X88517Y-297936D01*
X88452Y-297860D01*
X88384Y-297787D01*
X88314Y-297717D01*
X88241Y-297649D01*
X88165Y-297584D01*
X88087Y-297523D01*
X88007Y-297464D01*
X87925Y-297408D01*
X87840Y-297356D01*
X87754Y-297307D01*
X87665Y-297261D01*
X87575Y-297218D01*
X87484Y-297179D01*
X87391Y-297144D01*
X87297Y-297112D01*
X87201Y-297084D01*
X87105Y-297059D01*
X87007Y-297039D01*
X86909Y-297021D01*
X86811Y-297008D01*
X86712Y-296999D01*
X86613Y-296993D01*
X86513Y-296991D01*
X83917Y-296991D01*
X75981Y-296991D02*
X75874Y-296993D01*
X75768Y-296999D01*
X75662Y-297009D01*
X75556Y-297022D01*
X75450Y-297040D01*
X75346Y-297061D01*
X75242Y-297086D01*
X75139Y-297115D01*
X75038Y-297147D01*
X74938Y-297184D01*
X74839Y-297224D01*
X74741Y-297267D01*
X74645Y-297314D01*
X74551Y-297365D01*
X74459Y-297419D01*
X74369Y-297476D01*
X74281Y-297536D01*
X74196Y-297600D01*
X74113Y-297667D01*
X74032Y-297737D01*
X73954Y-297809D01*
X73878Y-297885D01*
X73806Y-297963D01*
X73736Y-298044D01*
X73669Y-298127D01*
X73605Y-298212D01*
X73545Y-298300D01*
X73488Y-298390D01*
X73434Y-298482D01*
X73383Y-298576D01*
X73336Y-298672D01*
X73293Y-298770D01*
X73253Y-298869D01*
X73216Y-298969D01*
X73184Y-299070D01*
X73155Y-299173D01*
X73130Y-299277D01*
X73109Y-299381D01*
X73091Y-299487D01*
X73078Y-299593D01*
X73068Y-299699D01*
X73062Y-299805D01*
X73060Y-299912D01*
X75981Y-296991D02*
X76102Y-296993D01*
X76223Y-296999D01*
X76343Y-297009D01*
X76464Y-297022D01*
X76583Y-297040D01*
X76703Y-297061D01*
X76821Y-297086D01*
X76938Y-297115D01*
X77055Y-297148D01*
X77170Y-297184D01*
X77284Y-297225D01*
X77397Y-297268D01*
X77509Y-297316D01*
X77618Y-297367D01*
X77726Y-297422D01*
X77833Y-297480D01*
X77937Y-297541D01*
X78039Y-297606D01*
X78139Y-297674D01*
X78237Y-297745D01*
X78333Y-297819D01*
X78426Y-297896D01*
X78516Y-297977D01*
X78604Y-298060D01*
X78689Y-298146D01*
X78772Y-298235D01*
X78851Y-298326D01*
X78928Y-298420D01*
X79001Y-298516D01*
X79071Y-298614D01*
X79138Y-298715D01*
X79202Y-298818D01*
X79263Y-298923D01*
X79320Y-299030D01*
X79373Y-299138D01*
X79423Y-299248D01*
X79470Y-299360D01*
X79512Y-299473D01*
X79551Y-299588D01*
X74035Y-302184D02*
X73956Y-302106D01*
X73880Y-302026D01*
X73807Y-301943D01*
X73737Y-301857D01*
X73670Y-301770D01*
X73606Y-301679D01*
X73546Y-301587D01*
X73488Y-301493D01*
X73434Y-301396D01*
X73384Y-301298D01*
X73337Y-301198D01*
X73293Y-301097D01*
X73253Y-300994D01*
X73217Y-300889D01*
X73185Y-300784D01*
X73156Y-300677D01*
X73131Y-300570D01*
X73109Y-300461D01*
X73092Y-300352D01*
X73078Y-300243D01*
X73069Y-300133D01*
X73063Y-300022D01*
X73061Y-299912D01*
X74034Y-302184D02*
X79551Y-308675D01*
X73060Y-308675D01*
D11*
X54167Y-544667D02*
X39417Y-544667D01*
D12*
X94975Y-478009D02*
X94975Y-466325D01*
X96273Y-478009D02*
X93677Y-478009D01*
X93677Y-466325D02*
X96273Y-466325D01*
X86513Y-478009D02*
X83917Y-478009D01*
X86513Y-478008D02*
X86612Y-478006D01*
X86712Y-478000D01*
X86811Y-477991D01*
X86909Y-477978D01*
X87007Y-477961D01*
X87105Y-477940D01*
X87201Y-477915D01*
X87296Y-477887D01*
X87390Y-477855D01*
X87483Y-477820D01*
X87575Y-477781D01*
X87665Y-477738D01*
X87753Y-477693D01*
X87840Y-477643D01*
X87924Y-477591D01*
X88007Y-477535D01*
X88087Y-477477D01*
X88165Y-477415D01*
X88240Y-477350D01*
X88313Y-477282D01*
X88383Y-477212D01*
X88451Y-477139D01*
X88516Y-477064D01*
X88578Y-476986D01*
X88636Y-476906D01*
X88692Y-476823D01*
X88744Y-476739D01*
X88794Y-476652D01*
X88839Y-476564D01*
X88882Y-476474D01*
X88921Y-476382D01*
X88956Y-476289D01*
X88988Y-476195D01*
X89016Y-476100D01*
X89041Y-476004D01*
X89062Y-475906D01*
X89079Y-475808D01*
X89092Y-475710D01*
X89101Y-475611D01*
X89107Y-475511D01*
X89109Y-475412D01*
X89110Y-475412D02*
X89110Y-468921D01*
X89108Y-468822D01*
X89102Y-468722D01*
X89093Y-468623D01*
X89080Y-468525D01*
X89062Y-468427D01*
X89042Y-468329D01*
X89017Y-468233D01*
X88989Y-468137D01*
X88957Y-468043D01*
X88922Y-467950D01*
X88883Y-467859D01*
X88840Y-467769D01*
X88795Y-467680D01*
X88745Y-467594D01*
X88693Y-467509D01*
X88637Y-467427D01*
X88578Y-467347D01*
X88517Y-467269D01*
X88452Y-467193D01*
X88384Y-467120D01*
X88314Y-467050D01*
X88241Y-466982D01*
X88165Y-466917D01*
X88087Y-466856D01*
X88007Y-466797D01*
X87925Y-466741D01*
X87840Y-466689D01*
X87754Y-466640D01*
X87665Y-466594D01*
X87575Y-466551D01*
X87484Y-466512D01*
X87391Y-466477D01*
X87297Y-466445D01*
X87201Y-466417D01*
X87105Y-466392D01*
X87007Y-466372D01*
X86909Y-466354D01*
X86811Y-466341D01*
X86712Y-466332D01*
X86613Y-466326D01*
X86513Y-466324D01*
X86513Y-466325D02*
X83917Y-466325D01*
X79551Y-478009D02*
X76306Y-478009D01*
X76193Y-478007D01*
X76080Y-478001D01*
X75967Y-477991D01*
X75854Y-477977D01*
X75742Y-477960D01*
X75631Y-477938D01*
X75521Y-477913D01*
X75411Y-477883D01*
X75303Y-477850D01*
X75196Y-477813D01*
X75090Y-477773D01*
X74986Y-477728D01*
X74883Y-477680D01*
X74782Y-477629D01*
X74683Y-477574D01*
X74586Y-477516D01*
X74491Y-477454D01*
X74398Y-477389D01*
X74308Y-477321D01*
X74220Y-477250D01*
X74134Y-477175D01*
X74051Y-477098D01*
X73971Y-477018D01*
X73894Y-476935D01*
X73819Y-476849D01*
X73748Y-476761D01*
X73680Y-476671D01*
X73615Y-476578D01*
X73553Y-476483D01*
X73495Y-476386D01*
X73440Y-476287D01*
X73389Y-476186D01*
X73341Y-476083D01*
X73296Y-475979D01*
X73256Y-475873D01*
X73219Y-475766D01*
X73186Y-475658D01*
X73156Y-475548D01*
X73131Y-475438D01*
X73109Y-475327D01*
X73092Y-475215D01*
X73078Y-475102D01*
X73068Y-474989D01*
X73062Y-474876D01*
X73060Y-474763D01*
X73062Y-474650D01*
X73068Y-474537D01*
X73078Y-474424D01*
X73092Y-474311D01*
X73109Y-474199D01*
X73131Y-474088D01*
X73156Y-473978D01*
X73186Y-473868D01*
X73219Y-473760D01*
X73256Y-473653D01*
X73296Y-473547D01*
X73341Y-473443D01*
X73389Y-473340D01*
X73440Y-473239D01*
X73495Y-473140D01*
X73553Y-473043D01*
X73615Y-472948D01*
X73680Y-472855D01*
X73748Y-472765D01*
X73819Y-472677D01*
X73894Y-472591D01*
X73971Y-472508D01*
X74051Y-472428D01*
X74134Y-472351D01*
X74220Y-472276D01*
X74308Y-472205D01*
X74398Y-472137D01*
X74491Y-472072D01*
X74586Y-472010D01*
X74683Y-471952D01*
X74782Y-471897D01*
X74883Y-471846D01*
X74986Y-471798D01*
X75090Y-471753D01*
X75196Y-471713D01*
X75303Y-471676D01*
X75411Y-471643D01*
X75521Y-471613D01*
X75631Y-471588D01*
X75742Y-471566D01*
X75854Y-471549D01*
X75967Y-471535D01*
X76080Y-471525D01*
X76193Y-471519D01*
X76306Y-471517D01*
X75657Y-466325D02*
X79551Y-466325D01*
X75657Y-466325D02*
X75556Y-466327D01*
X75456Y-466333D01*
X75356Y-466343D01*
X75256Y-466356D01*
X75157Y-466374D01*
X75058Y-466395D01*
X74961Y-466420D01*
X74864Y-466449D01*
X74769Y-466482D01*
X74675Y-466518D01*
X74583Y-466558D01*
X74492Y-466601D01*
X74403Y-466648D01*
X74316Y-466698D01*
X74230Y-466752D01*
X74147Y-466809D01*
X74067Y-466869D01*
X73988Y-466932D01*
X73912Y-466999D01*
X73839Y-467068D01*
X73769Y-467140D01*
X73701Y-467214D01*
X73636Y-467291D01*
X73575Y-467371D01*
X73516Y-467453D01*
X73461Y-467537D01*
X73409Y-467623D01*
X73360Y-467711D01*
X73315Y-467801D01*
X73273Y-467893D01*
X73235Y-467986D01*
X73201Y-468081D01*
X73170Y-468176D01*
X73143Y-468273D01*
X73120Y-468371D01*
X73100Y-468470D01*
X73085Y-468570D01*
X73073Y-468670D01*
X73065Y-468770D01*
X73061Y-468871D01*
X73061Y-468971D01*
X73065Y-469072D01*
X73073Y-469172D01*
X73085Y-469272D01*
X73100Y-469372D01*
X73120Y-469471D01*
X73143Y-469569D01*
X73170Y-469666D01*
X73201Y-469761D01*
X73235Y-469856D01*
X73273Y-469949D01*
X73315Y-470041D01*
X73360Y-470131D01*
X73409Y-470219D01*
X73461Y-470305D01*
X73516Y-470389D01*
X73575Y-470471D01*
X73636Y-470551D01*
X73701Y-470628D01*
X73769Y-470702D01*
X73839Y-470774D01*
X73912Y-470843D01*
X73988Y-470910D01*
X74067Y-470973D01*
X74147Y-471033D01*
X74230Y-471090D01*
X74316Y-471144D01*
X74403Y-471194D01*
X74492Y-471241D01*
X74583Y-471284D01*
X74675Y-471324D01*
X74769Y-471360D01*
X74864Y-471393D01*
X74961Y-471422D01*
X75058Y-471447D01*
X75157Y-471468D01*
X75256Y-471486D01*
X75356Y-471499D01*
X75456Y-471509D01*
X75556Y-471515D01*
X75657Y-471517D01*
X75657Y-471518D02*
X78253Y-471518D01*
D11*
X54167Y-714000D02*
X39417Y-714000D01*
D12*
X94975Y-647342D02*
X94975Y-635658D01*
X96273Y-647342D02*
X93677Y-647342D01*
X93677Y-635658D02*
X96273Y-635658D01*
X86513Y-647342D02*
X83917Y-647342D01*
X86513Y-647342D02*
X86612Y-647340D01*
X86712Y-647334D01*
X86811Y-647325D01*
X86909Y-647312D01*
X87007Y-647295D01*
X87105Y-647274D01*
X87201Y-647249D01*
X87296Y-647221D01*
X87390Y-647189D01*
X87483Y-647154D01*
X87575Y-647115D01*
X87665Y-647072D01*
X87753Y-647027D01*
X87840Y-646977D01*
X87924Y-646925D01*
X88007Y-646869D01*
X88087Y-646811D01*
X88165Y-646749D01*
X88240Y-646684D01*
X88313Y-646616D01*
X88383Y-646546D01*
X88451Y-646473D01*
X88516Y-646398D01*
X88578Y-646320D01*
X88636Y-646240D01*
X88692Y-646157D01*
X88744Y-646073D01*
X88794Y-645986D01*
X88839Y-645898D01*
X88882Y-645808D01*
X88921Y-645716D01*
X88956Y-645623D01*
X88988Y-645529D01*
X89016Y-645434D01*
X89041Y-645338D01*
X89062Y-645240D01*
X89079Y-645142D01*
X89092Y-645044D01*
X89101Y-644945D01*
X89107Y-644845D01*
X89109Y-644746D01*
X89110Y-644746D02*
X89110Y-638254D01*
X89108Y-638155D01*
X89102Y-638055D01*
X89093Y-637956D01*
X89080Y-637858D01*
X89062Y-637760D01*
X89042Y-637662D01*
X89017Y-637566D01*
X88989Y-637470D01*
X88957Y-637376D01*
X88922Y-637283D01*
X88883Y-637192D01*
X88840Y-637102D01*
X88795Y-637013D01*
X88745Y-636927D01*
X88693Y-636842D01*
X88637Y-636760D01*
X88578Y-636680D01*
X88517Y-636602D01*
X88452Y-636526D01*
X88384Y-636453D01*
X88314Y-636383D01*
X88241Y-636315D01*
X88165Y-636250D01*
X88087Y-636189D01*
X88007Y-636130D01*
X87925Y-636074D01*
X87840Y-636022D01*
X87754Y-635973D01*
X87665Y-635927D01*
X87575Y-635884D01*
X87484Y-635845D01*
X87391Y-635810D01*
X87297Y-635778D01*
X87201Y-635750D01*
X87105Y-635725D01*
X87007Y-635705D01*
X86909Y-635687D01*
X86811Y-635674D01*
X86712Y-635665D01*
X86613Y-635659D01*
X86513Y-635657D01*
X86513Y-635658D02*
X83917Y-635658D01*
X76955Y-635658D02*
X79551Y-644746D01*
X73060Y-644746D01*
X75008Y-647342D02*
X75008Y-642149D01*
D11*
X54167Y-883333D02*
X39417Y-883333D01*
D12*
X94975Y-816675D02*
X94975Y-804991D01*
X96273Y-816675D02*
X93677Y-816675D01*
X93677Y-804991D02*
X96273Y-804991D01*
X86513Y-816675D02*
X83917Y-816675D01*
X86513Y-816675D02*
X86612Y-816673D01*
X86712Y-816667D01*
X86811Y-816658D01*
X86909Y-816645D01*
X87007Y-816628D01*
X87105Y-816607D01*
X87201Y-816582D01*
X87296Y-816554D01*
X87390Y-816522D01*
X87483Y-816487D01*
X87575Y-816448D01*
X87665Y-816405D01*
X87753Y-816360D01*
X87840Y-816310D01*
X87924Y-816258D01*
X88007Y-816202D01*
X88087Y-816144D01*
X88165Y-816082D01*
X88240Y-816017D01*
X88313Y-815949D01*
X88383Y-815879D01*
X88451Y-815806D01*
X88516Y-815731D01*
X88578Y-815653D01*
X88636Y-815573D01*
X88692Y-815490D01*
X88744Y-815406D01*
X88794Y-815319D01*
X88839Y-815231D01*
X88882Y-815141D01*
X88921Y-815049D01*
X88956Y-814956D01*
X88988Y-814862D01*
X89016Y-814767D01*
X89041Y-814671D01*
X89062Y-814573D01*
X89079Y-814475D01*
X89092Y-814377D01*
X89101Y-814278D01*
X89107Y-814178D01*
X89109Y-814079D01*
X89110Y-814079D02*
X89110Y-807588D01*
X89108Y-807489D01*
X89102Y-807389D01*
X89093Y-807290D01*
X89080Y-807192D01*
X89062Y-807094D01*
X89042Y-806996D01*
X89017Y-806900D01*
X88989Y-806804D01*
X88957Y-806710D01*
X88922Y-806617D01*
X88883Y-806526D01*
X88840Y-806436D01*
X88795Y-806347D01*
X88745Y-806261D01*
X88693Y-806176D01*
X88637Y-806094D01*
X88578Y-806014D01*
X88517Y-805936D01*
X88452Y-805860D01*
X88384Y-805787D01*
X88314Y-805717D01*
X88241Y-805649D01*
X88165Y-805584D01*
X88087Y-805523D01*
X88007Y-805464D01*
X87925Y-805408D01*
X87840Y-805356D01*
X87754Y-805307D01*
X87665Y-805261D01*
X87575Y-805218D01*
X87484Y-805179D01*
X87391Y-805144D01*
X87297Y-805112D01*
X87201Y-805084D01*
X87105Y-805059D01*
X87007Y-805039D01*
X86909Y-805021D01*
X86811Y-805008D01*
X86712Y-804999D01*
X86613Y-804993D01*
X86513Y-804991D01*
X83917Y-804991D01*
X79551Y-816675D02*
X75657Y-816675D01*
X75558Y-816673D01*
X75458Y-816667D01*
X75359Y-816658D01*
X75261Y-816645D01*
X75163Y-816628D01*
X75065Y-816607D01*
X74969Y-816582D01*
X74874Y-816554D01*
X74780Y-816522D01*
X74687Y-816487D01*
X74595Y-816448D01*
X74505Y-816405D01*
X74417Y-816360D01*
X74330Y-816310D01*
X74246Y-816258D01*
X74163Y-816202D01*
X74083Y-816144D01*
X74005Y-816082D01*
X73930Y-816017D01*
X73857Y-815949D01*
X73787Y-815879D01*
X73719Y-815806D01*
X73654Y-815731D01*
X73592Y-815653D01*
X73534Y-815573D01*
X73478Y-815490D01*
X73426Y-815406D01*
X73376Y-815319D01*
X73331Y-815231D01*
X73288Y-815141D01*
X73249Y-815049D01*
X73214Y-814956D01*
X73182Y-814862D01*
X73154Y-814767D01*
X73129Y-814671D01*
X73108Y-814573D01*
X73091Y-814475D01*
X73078Y-814377D01*
X73069Y-814278D01*
X73063Y-814178D01*
X73061Y-814079D01*
X73060Y-814079D02*
X73060Y-812781D01*
X73061Y-812781D02*
X73063Y-812682D01*
X73069Y-812582D01*
X73078Y-812483D01*
X73091Y-812385D01*
X73108Y-812287D01*
X73129Y-812189D01*
X73154Y-812093D01*
X73182Y-811998D01*
X73214Y-811904D01*
X73249Y-811811D01*
X73288Y-811719D01*
X73331Y-811629D01*
X73376Y-811541D01*
X73426Y-811454D01*
X73478Y-811370D01*
X73534Y-811287D01*
X73592Y-811207D01*
X73654Y-811129D01*
X73719Y-811054D01*
X73787Y-810981D01*
X73857Y-810911D01*
X73930Y-810843D01*
X74005Y-810778D01*
X74083Y-810716D01*
X74163Y-810658D01*
X74246Y-810602D01*
X74330Y-810550D01*
X74417Y-810500D01*
X74505Y-810455D01*
X74595Y-810412D01*
X74687Y-810373D01*
X74780Y-810338D01*
X74874Y-810306D01*
X74969Y-810278D01*
X75065Y-810253D01*
X75163Y-810232D01*
X75261Y-810215D01*
X75359Y-810202D01*
X75458Y-810193D01*
X75558Y-810187D01*
X75657Y-810185D01*
X75657Y-810184D02*
X79551Y-810184D01*
X79551Y-804991D01*
X73060Y-804991D01*
D11*
X54167Y-1052667D02*
X39417Y-1052667D01*
D12*
X94975Y-986009D02*
X94975Y-974325D01*
X96273Y-986009D02*
X93677Y-986009D01*
X93677Y-974325D02*
X96273Y-974325D01*
X86513Y-986009D02*
X83917Y-986009D01*
X86513Y-986008D02*
X86612Y-986006D01*
X86712Y-986000D01*
X86811Y-985991D01*
X86909Y-985978D01*
X87007Y-985961D01*
X87105Y-985940D01*
X87201Y-985915D01*
X87296Y-985887D01*
X87390Y-985855D01*
X87483Y-985820D01*
X87575Y-985781D01*
X87665Y-985738D01*
X87753Y-985693D01*
X87840Y-985643D01*
X87924Y-985591D01*
X88007Y-985535D01*
X88087Y-985477D01*
X88165Y-985415D01*
X88240Y-985350D01*
X88313Y-985282D01*
X88383Y-985212D01*
X88451Y-985139D01*
X88516Y-985064D01*
X88578Y-984986D01*
X88636Y-984906D01*
X88692Y-984823D01*
X88744Y-984739D01*
X88794Y-984652D01*
X88839Y-984564D01*
X88882Y-984474D01*
X88921Y-984382D01*
X88956Y-984289D01*
X88988Y-984195D01*
X89016Y-984100D01*
X89041Y-984004D01*
X89062Y-983906D01*
X89079Y-983808D01*
X89092Y-983710D01*
X89101Y-983611D01*
X89107Y-983511D01*
X89109Y-983412D01*
X89110Y-983412D02*
X89110Y-976921D01*
X89108Y-976822D01*
X89102Y-976722D01*
X89093Y-976623D01*
X89080Y-976525D01*
X89062Y-976427D01*
X89042Y-976329D01*
X89017Y-976233D01*
X88989Y-976137D01*
X88957Y-976043D01*
X88922Y-975950D01*
X88883Y-975859D01*
X88840Y-975769D01*
X88795Y-975680D01*
X88745Y-975594D01*
X88693Y-975509D01*
X88637Y-975427D01*
X88578Y-975347D01*
X88517Y-975269D01*
X88452Y-975193D01*
X88384Y-975120D01*
X88314Y-975050D01*
X88241Y-974982D01*
X88165Y-974917D01*
X88087Y-974856D01*
X88007Y-974797D01*
X87925Y-974741D01*
X87840Y-974689D01*
X87754Y-974640D01*
X87665Y-974594D01*
X87575Y-974551D01*
X87484Y-974512D01*
X87391Y-974477D01*
X87297Y-974445D01*
X87201Y-974417D01*
X87105Y-974392D01*
X87007Y-974372D01*
X86909Y-974354D01*
X86811Y-974341D01*
X86712Y-974332D01*
X86613Y-974326D01*
X86513Y-974324D01*
X86513Y-974325D02*
X83917Y-974325D01*
X79551Y-979518D02*
X75657Y-979518D01*
X75558Y-979520D01*
X75458Y-979526D01*
X75359Y-979535D01*
X75261Y-979548D01*
X75163Y-979565D01*
X75065Y-979586D01*
X74969Y-979611D01*
X74874Y-979639D01*
X74780Y-979671D01*
X74687Y-979706D01*
X74595Y-979745D01*
X74505Y-979788D01*
X74417Y-979833D01*
X74330Y-979883D01*
X74246Y-979935D01*
X74163Y-979991D01*
X74083Y-980049D01*
X74005Y-980111D01*
X73930Y-980176D01*
X73857Y-980244D01*
X73787Y-980314D01*
X73719Y-980387D01*
X73654Y-980462D01*
X73592Y-980540D01*
X73534Y-980620D01*
X73478Y-980703D01*
X73426Y-980787D01*
X73376Y-980874D01*
X73331Y-980962D01*
X73288Y-981052D01*
X73249Y-981144D01*
X73214Y-981237D01*
X73182Y-981331D01*
X73154Y-981426D01*
X73129Y-981522D01*
X73108Y-981620D01*
X73091Y-981718D01*
X73078Y-981816D01*
X73069Y-981915D01*
X73063Y-982015D01*
X73061Y-982114D01*
X73060Y-982114D02*
X73060Y-982763D01*
X73062Y-982876D01*
X73068Y-982989D01*
X73078Y-983102D01*
X73092Y-983215D01*
X73109Y-983327D01*
X73131Y-983438D01*
X73156Y-983548D01*
X73186Y-983658D01*
X73219Y-983766D01*
X73256Y-983873D01*
X73296Y-983979D01*
X73341Y-984083D01*
X73389Y-984186D01*
X73440Y-984287D01*
X73495Y-984386D01*
X73553Y-984483D01*
X73615Y-984578D01*
X73680Y-984671D01*
X73748Y-984761D01*
X73819Y-984849D01*
X73894Y-984935D01*
X73971Y-985018D01*
X74051Y-985098D01*
X74134Y-985175D01*
X74220Y-985250D01*
X74308Y-985321D01*
X74398Y-985389D01*
X74491Y-985454D01*
X74586Y-985516D01*
X74683Y-985574D01*
X74782Y-985629D01*
X74883Y-985680D01*
X74986Y-985728D01*
X75090Y-985773D01*
X75196Y-985813D01*
X75303Y-985850D01*
X75411Y-985883D01*
X75521Y-985913D01*
X75631Y-985938D01*
X75742Y-985960D01*
X75854Y-985977D01*
X75967Y-985991D01*
X76080Y-986001D01*
X76193Y-986007D01*
X76306Y-986009D01*
X76419Y-986007D01*
X76532Y-986001D01*
X76645Y-985991D01*
X76758Y-985977D01*
X76870Y-985960D01*
X76981Y-985938D01*
X77091Y-985913D01*
X77201Y-985883D01*
X77309Y-985850D01*
X77416Y-985813D01*
X77522Y-985773D01*
X77626Y-985728D01*
X77729Y-985680D01*
X77830Y-985629D01*
X77929Y-985574D01*
X78026Y-985516D01*
X78121Y-985454D01*
X78214Y-985389D01*
X78304Y-985321D01*
X78392Y-985250D01*
X78478Y-985175D01*
X78561Y-985098D01*
X78641Y-985018D01*
X78718Y-984935D01*
X78793Y-984849D01*
X78864Y-984761D01*
X78932Y-984671D01*
X78997Y-984578D01*
X79059Y-984483D01*
X79117Y-984386D01*
X79172Y-984287D01*
X79223Y-984186D01*
X79271Y-984083D01*
X79316Y-983979D01*
X79356Y-983873D01*
X79393Y-983766D01*
X79426Y-983658D01*
X79456Y-983548D01*
X79481Y-983438D01*
X79503Y-983327D01*
X79520Y-983215D01*
X79534Y-983102D01*
X79544Y-982989D01*
X79550Y-982876D01*
X79552Y-982763D01*
X79551Y-982763D02*
X79551Y-979518D01*
X79552Y-979518D02*
X79550Y-979375D01*
X79544Y-979232D01*
X79534Y-979089D01*
X79520Y-978947D01*
X79503Y-978805D01*
X79481Y-978663D01*
X79456Y-978522D01*
X79426Y-978382D01*
X79393Y-978243D01*
X79356Y-978105D01*
X79315Y-977968D01*
X79271Y-977832D01*
X79222Y-977697D01*
X79170Y-977564D01*
X79115Y-977432D01*
X79055Y-977302D01*
X78992Y-977173D01*
X78926Y-977046D01*
X78856Y-976922D01*
X78783Y-976799D01*
X78706Y-976678D01*
X78627Y-976559D01*
X78543Y-976443D01*
X78457Y-976328D01*
X78368Y-976217D01*
X78275Y-976108D01*
X78180Y-976001D01*
X78081Y-975897D01*
X77980Y-975796D01*
X77876Y-975697D01*
X77770Y-975602D01*
X77660Y-975509D01*
X77549Y-975420D01*
X77435Y-975334D01*
X77318Y-975251D01*
X77199Y-975171D01*
X77078Y-975094D01*
X76956Y-975021D01*
X76831Y-974951D01*
X76704Y-974885D01*
X76575Y-974822D01*
X76445Y-974762D01*
X76313Y-974707D01*
X76180Y-974655D01*
X76045Y-974606D01*
X75909Y-974562D01*
X75772Y-974521D01*
X75634Y-974484D01*
X75495Y-974451D01*
X75355Y-974421D01*
X75214Y-974396D01*
X75072Y-974374D01*
X74930Y-974357D01*
X74788Y-974343D01*
X74645Y-974333D01*
X74502Y-974327D01*
X74359Y-974325D01*
D11*
X54167Y-1222000D02*
X39417Y-1222000D01*
D12*
X94975Y-1155342D02*
X94975Y-1143658D01*
X96273Y-1155342D02*
X93677Y-1155342D01*
X93677Y-1143658D02*
X96273Y-1143658D01*
X86513Y-1155342D02*
X83917Y-1155342D01*
X86513Y-1155342D02*
X86612Y-1155340D01*
X86712Y-1155334D01*
X86811Y-1155325D01*
X86909Y-1155312D01*
X87007Y-1155295D01*
X87105Y-1155274D01*
X87201Y-1155249D01*
X87296Y-1155221D01*
X87390Y-1155189D01*
X87483Y-1155154D01*
X87575Y-1155115D01*
X87665Y-1155072D01*
X87753Y-1155027D01*
X87840Y-1154977D01*
X87924Y-1154925D01*
X88007Y-1154869D01*
X88087Y-1154811D01*
X88165Y-1154749D01*
X88240Y-1154684D01*
X88313Y-1154616D01*
X88383Y-1154546D01*
X88451Y-1154473D01*
X88516Y-1154398D01*
X88578Y-1154320D01*
X88636Y-1154240D01*
X88692Y-1154157D01*
X88744Y-1154073D01*
X88794Y-1153986D01*
X88839Y-1153898D01*
X88882Y-1153808D01*
X88921Y-1153716D01*
X88956Y-1153623D01*
X88988Y-1153529D01*
X89016Y-1153434D01*
X89041Y-1153338D01*
X89062Y-1153240D01*
X89079Y-1153142D01*
X89092Y-1153044D01*
X89101Y-1152945D01*
X89107Y-1152845D01*
X89109Y-1152746D01*
X89110Y-1152746D02*
X89110Y-1146254D01*
X89108Y-1146155D01*
X89102Y-1146055D01*
X89093Y-1145956D01*
X89080Y-1145858D01*
X89062Y-1145760D01*
X89042Y-1145662D01*
X89017Y-1145566D01*
X88989Y-1145470D01*
X88957Y-1145376D01*
X88922Y-1145283D01*
X88883Y-1145192D01*
X88840Y-1145102D01*
X88795Y-1145013D01*
X88745Y-1144927D01*
X88693Y-1144842D01*
X88637Y-1144760D01*
X88578Y-1144680D01*
X88517Y-1144602D01*
X88452Y-1144526D01*
X88384Y-1144453D01*
X88314Y-1144383D01*
X88241Y-1144315D01*
X88165Y-1144250D01*
X88087Y-1144189D01*
X88007Y-1144130D01*
X87925Y-1144074D01*
X87840Y-1144022D01*
X87754Y-1143973D01*
X87665Y-1143927D01*
X87575Y-1143884D01*
X87484Y-1143845D01*
X87391Y-1143810D01*
X87297Y-1143778D01*
X87201Y-1143750D01*
X87105Y-1143725D01*
X87007Y-1143705D01*
X86909Y-1143687D01*
X86811Y-1143674D01*
X86712Y-1143665D01*
X86613Y-1143659D01*
X86513Y-1143657D01*
X86513Y-1143658D02*
X83917Y-1143658D01*
X79551Y-1143658D02*
X79551Y-1144956D01*
X79551Y-1143658D02*
X73060Y-1143658D01*
X76306Y-1155342D01*
D11*
X54167Y-1391333D02*
X39417Y-1391333D01*
D12*
X94975Y-1324675D02*
X94975Y-1312991D01*
X96273Y-1324675D02*
X93677Y-1324675D01*
X93677Y-1312991D02*
X96273Y-1312991D01*
X86513Y-1324675D02*
X83917Y-1324675D01*
X86513Y-1324675D02*
X86612Y-1324673D01*
X86712Y-1324667D01*
X86811Y-1324658D01*
X86909Y-1324645D01*
X87007Y-1324628D01*
X87105Y-1324607D01*
X87201Y-1324582D01*
X87296Y-1324554D01*
X87390Y-1324522D01*
X87483Y-1324487D01*
X87575Y-1324448D01*
X87665Y-1324405D01*
X87753Y-1324360D01*
X87840Y-1324310D01*
X87924Y-1324258D01*
X88007Y-1324202D01*
X88087Y-1324144D01*
X88165Y-1324082D01*
X88240Y-1324017D01*
X88313Y-1323949D01*
X88383Y-1323879D01*
X88451Y-1323806D01*
X88516Y-1323731D01*
X88578Y-1323653D01*
X88636Y-1323573D01*
X88692Y-1323490D01*
X88744Y-1323406D01*
X88794Y-1323319D01*
X88839Y-1323231D01*
X88882Y-1323141D01*
X88921Y-1323049D01*
X88956Y-1322956D01*
X88988Y-1322862D01*
X89016Y-1322767D01*
X89041Y-1322671D01*
X89062Y-1322573D01*
X89079Y-1322475D01*
X89092Y-1322377D01*
X89101Y-1322278D01*
X89107Y-1322178D01*
X89109Y-1322079D01*
X89110Y-1322079D02*
X89110Y-1315588D01*
X89108Y-1315489D01*
X89102Y-1315389D01*
X89093Y-1315290D01*
X89080Y-1315192D01*
X89062Y-1315094D01*
X89042Y-1314996D01*
X89017Y-1314900D01*
X88989Y-1314804D01*
X88957Y-1314710D01*
X88922Y-1314617D01*
X88883Y-1314526D01*
X88840Y-1314436D01*
X88795Y-1314347D01*
X88745Y-1314261D01*
X88693Y-1314176D01*
X88637Y-1314094D01*
X88578Y-1314014D01*
X88517Y-1313936D01*
X88452Y-1313860D01*
X88384Y-1313787D01*
X88314Y-1313717D01*
X88241Y-1313649D01*
X88165Y-1313584D01*
X88087Y-1313523D01*
X88007Y-1313464D01*
X87925Y-1313408D01*
X87840Y-1313356D01*
X87754Y-1313307D01*
X87665Y-1313261D01*
X87575Y-1313218D01*
X87484Y-1313179D01*
X87391Y-1313144D01*
X87297Y-1313112D01*
X87201Y-1313084D01*
X87105Y-1313059D01*
X87007Y-1313039D01*
X86909Y-1313021D01*
X86811Y-1313008D01*
X86712Y-1312999D01*
X86613Y-1312993D01*
X86513Y-1312991D01*
X83917Y-1312991D01*
X79552Y-1321430D02*
X79550Y-1321317D01*
X79544Y-1321204D01*
X79534Y-1321091D01*
X79520Y-1320978D01*
X79503Y-1320866D01*
X79481Y-1320755D01*
X79456Y-1320645D01*
X79426Y-1320535D01*
X79393Y-1320427D01*
X79356Y-1320320D01*
X79316Y-1320214D01*
X79271Y-1320110D01*
X79223Y-1320007D01*
X79172Y-1319906D01*
X79117Y-1319807D01*
X79059Y-1319710D01*
X78997Y-1319615D01*
X78932Y-1319522D01*
X78864Y-1319432D01*
X78793Y-1319344D01*
X78718Y-1319258D01*
X78641Y-1319175D01*
X78561Y-1319095D01*
X78478Y-1319018D01*
X78392Y-1318943D01*
X78304Y-1318872D01*
X78214Y-1318804D01*
X78121Y-1318739D01*
X78026Y-1318677D01*
X77929Y-1318619D01*
X77830Y-1318564D01*
X77729Y-1318513D01*
X77626Y-1318465D01*
X77522Y-1318420D01*
X77416Y-1318380D01*
X77309Y-1318343D01*
X77201Y-1318310D01*
X77091Y-1318280D01*
X76981Y-1318255D01*
X76870Y-1318233D01*
X76758Y-1318216D01*
X76645Y-1318202D01*
X76532Y-1318192D01*
X76419Y-1318186D01*
X76306Y-1318184D01*
X76193Y-1318186D01*
X76080Y-1318192D01*
X75967Y-1318202D01*
X75854Y-1318216D01*
X75742Y-1318233D01*
X75631Y-1318255D01*
X75521Y-1318280D01*
X75411Y-1318310D01*
X75303Y-1318343D01*
X75196Y-1318380D01*
X75090Y-1318420D01*
X74986Y-1318465D01*
X74883Y-1318513D01*
X74782Y-1318564D01*
X74683Y-1318619D01*
X74586Y-1318677D01*
X74491Y-1318739D01*
X74398Y-1318804D01*
X74308Y-1318872D01*
X74220Y-1318943D01*
X74134Y-1319018D01*
X74051Y-1319095D01*
X73971Y-1319175D01*
X73894Y-1319258D01*
X73819Y-1319344D01*
X73748Y-1319432D01*
X73680Y-1319522D01*
X73615Y-1319615D01*
X73553Y-1319710D01*
X73495Y-1319807D01*
X73440Y-1319906D01*
X73389Y-1320007D01*
X73341Y-1320110D01*
X73296Y-1320214D01*
X73256Y-1320320D01*
X73219Y-1320427D01*
X73186Y-1320535D01*
X73156Y-1320645D01*
X73131Y-1320755D01*
X73109Y-1320866D01*
X73092Y-1320978D01*
X73078Y-1321091D01*
X73068Y-1321204D01*
X73062Y-1321317D01*
X73060Y-1321430D01*
X73062Y-1321543D01*
X73068Y-1321656D01*
X73078Y-1321769D01*
X73092Y-1321882D01*
X73109Y-1321994D01*
X73131Y-1322105D01*
X73156Y-1322215D01*
X73186Y-1322325D01*
X73219Y-1322433D01*
X73256Y-1322540D01*
X73296Y-1322646D01*
X73341Y-1322750D01*
X73389Y-1322853D01*
X73440Y-1322954D01*
X73495Y-1323053D01*
X73553Y-1323150D01*
X73615Y-1323245D01*
X73680Y-1323338D01*
X73748Y-1323428D01*
X73819Y-1323516D01*
X73894Y-1323602D01*
X73971Y-1323685D01*
X74051Y-1323765D01*
X74134Y-1323842D01*
X74220Y-1323917D01*
X74308Y-1323988D01*
X74398Y-1324056D01*
X74491Y-1324121D01*
X74586Y-1324183D01*
X74683Y-1324241D01*
X74782Y-1324296D01*
X74883Y-1324347D01*
X74986Y-1324395D01*
X75090Y-1324440D01*
X75196Y-1324480D01*
X75303Y-1324517D01*
X75411Y-1324550D01*
X75521Y-1324580D01*
X75631Y-1324605D01*
X75742Y-1324627D01*
X75854Y-1324644D01*
X75967Y-1324658D01*
X76080Y-1324668D01*
X76193Y-1324674D01*
X76306Y-1324676D01*
X76419Y-1324674D01*
X76532Y-1324668D01*
X76645Y-1324658D01*
X76758Y-1324644D01*
X76870Y-1324627D01*
X76981Y-1324605D01*
X77091Y-1324580D01*
X77201Y-1324550D01*
X77309Y-1324517D01*
X77416Y-1324480D01*
X77522Y-1324440D01*
X77626Y-1324395D01*
X77729Y-1324347D01*
X77830Y-1324296D01*
X77929Y-1324241D01*
X78026Y-1324183D01*
X78121Y-1324121D01*
X78214Y-1324056D01*
X78304Y-1323988D01*
X78392Y-1323917D01*
X78478Y-1323842D01*
X78561Y-1323765D01*
X78641Y-1323685D01*
X78718Y-1323602D01*
X78793Y-1323516D01*
X78864Y-1323428D01*
X78932Y-1323338D01*
X78997Y-1323245D01*
X79059Y-1323150D01*
X79117Y-1323053D01*
X79172Y-1322954D01*
X79223Y-1322853D01*
X79271Y-1322750D01*
X79316Y-1322646D01*
X79356Y-1322540D01*
X79393Y-1322433D01*
X79426Y-1322325D01*
X79456Y-1322215D01*
X79481Y-1322105D01*
X79503Y-1321994D01*
X79520Y-1321882D01*
X79534Y-1321769D01*
X79544Y-1321656D01*
X79550Y-1321543D01*
X79552Y-1321430D01*
X78902Y-1315588D02*
X78900Y-1315487D01*
X78894Y-1315387D01*
X78884Y-1315287D01*
X78871Y-1315187D01*
X78853Y-1315088D01*
X78832Y-1314989D01*
X78807Y-1314892D01*
X78778Y-1314795D01*
X78745Y-1314700D01*
X78709Y-1314606D01*
X78669Y-1314514D01*
X78626Y-1314423D01*
X78579Y-1314334D01*
X78529Y-1314247D01*
X78475Y-1314161D01*
X78418Y-1314078D01*
X78358Y-1313998D01*
X78295Y-1313919D01*
X78228Y-1313843D01*
X78159Y-1313770D01*
X78087Y-1313700D01*
X78013Y-1313632D01*
X77936Y-1313567D01*
X77856Y-1313506D01*
X77774Y-1313447D01*
X77690Y-1313392D01*
X77604Y-1313340D01*
X77516Y-1313291D01*
X77426Y-1313246D01*
X77334Y-1313204D01*
X77241Y-1313166D01*
X77146Y-1313132D01*
X77051Y-1313101D01*
X76954Y-1313074D01*
X76856Y-1313051D01*
X76757Y-1313031D01*
X76657Y-1313016D01*
X76557Y-1313004D01*
X76457Y-1312996D01*
X76356Y-1312992D01*
X76256Y-1312992D01*
X76155Y-1312996D01*
X76055Y-1313004D01*
X75955Y-1313016D01*
X75855Y-1313031D01*
X75756Y-1313051D01*
X75658Y-1313074D01*
X75561Y-1313101D01*
X75466Y-1313132D01*
X75371Y-1313166D01*
X75278Y-1313204D01*
X75186Y-1313246D01*
X75096Y-1313291D01*
X75008Y-1313340D01*
X74922Y-1313392D01*
X74838Y-1313447D01*
X74756Y-1313506D01*
X74676Y-1313567D01*
X74599Y-1313632D01*
X74525Y-1313700D01*
X74453Y-1313770D01*
X74384Y-1313843D01*
X74317Y-1313919D01*
X74254Y-1313998D01*
X74194Y-1314078D01*
X74137Y-1314161D01*
X74083Y-1314247D01*
X74033Y-1314334D01*
X73986Y-1314423D01*
X73943Y-1314514D01*
X73903Y-1314606D01*
X73867Y-1314700D01*
X73834Y-1314795D01*
X73805Y-1314892D01*
X73780Y-1314989D01*
X73759Y-1315088D01*
X73741Y-1315187D01*
X73728Y-1315287D01*
X73718Y-1315387D01*
X73712Y-1315487D01*
X73710Y-1315588D01*
X73712Y-1315689D01*
X73718Y-1315789D01*
X73728Y-1315889D01*
X73741Y-1315989D01*
X73759Y-1316088D01*
X73780Y-1316187D01*
X73805Y-1316284D01*
X73834Y-1316381D01*
X73867Y-1316476D01*
X73903Y-1316570D01*
X73943Y-1316662D01*
X73986Y-1316753D01*
X74033Y-1316842D01*
X74083Y-1316929D01*
X74137Y-1317015D01*
X74194Y-1317098D01*
X74254Y-1317178D01*
X74317Y-1317257D01*
X74384Y-1317333D01*
X74453Y-1317406D01*
X74525Y-1317476D01*
X74599Y-1317544D01*
X74676Y-1317609D01*
X74756Y-1317670D01*
X74838Y-1317729D01*
X74922Y-1317784D01*
X75008Y-1317836D01*
X75096Y-1317885D01*
X75186Y-1317930D01*
X75278Y-1317972D01*
X75371Y-1318010D01*
X75466Y-1318044D01*
X75561Y-1318075D01*
X75658Y-1318102D01*
X75756Y-1318125D01*
X75855Y-1318145D01*
X75955Y-1318160D01*
X76055Y-1318172D01*
X76155Y-1318180D01*
X76256Y-1318184D01*
X76356Y-1318184D01*
X76457Y-1318180D01*
X76557Y-1318172D01*
X76657Y-1318160D01*
X76757Y-1318145D01*
X76856Y-1318125D01*
X76954Y-1318102D01*
X77051Y-1318075D01*
X77146Y-1318044D01*
X77241Y-1318010D01*
X77334Y-1317972D01*
X77426Y-1317930D01*
X77516Y-1317885D01*
X77604Y-1317836D01*
X77690Y-1317784D01*
X77774Y-1317729D01*
X77856Y-1317670D01*
X77936Y-1317609D01*
X78013Y-1317544D01*
X78087Y-1317476D01*
X78159Y-1317406D01*
X78228Y-1317333D01*
X78295Y-1317257D01*
X78358Y-1317178D01*
X78418Y-1317098D01*
X78475Y-1317015D01*
X78529Y-1316929D01*
X78579Y-1316842D01*
X78626Y-1316753D01*
X78669Y-1316662D01*
X78709Y-1316570D01*
X78745Y-1316476D01*
X78778Y-1316381D01*
X78807Y-1316284D01*
X78832Y-1316187D01*
X78853Y-1316088D01*
X78871Y-1315989D01*
X78884Y-1315889D01*
X78894Y-1315789D01*
X78900Y-1315689D01*
X78902Y-1315588D01*
M02*
