G04 EAGLE Gerber RS-274X export*
G75*
%MOMM*%
%FSLAX34Y34*%
%LPD*%
%INSolderpaste Bottom*%
%IPPOS*%
%AMOC8*
5,1,8,0,0,1.08239X$1,22.5*%
G01*
%ADD10R,0.900000X0.700000*%
%ADD11R,1.475000X0.300000*%
%ADD12R,3.610000X4.700000*%


D10*
X137500Y-192600D03*
X137500Y-205600D03*
X137500Y-361933D03*
X137500Y-374933D03*
X137500Y-531267D03*
X137500Y-544267D03*
X137500Y-700600D03*
X137500Y-713600D03*
X137500Y-869933D03*
X137500Y-882933D03*
X137500Y-1039267D03*
X137500Y-1052267D03*
X137500Y-1208600D03*
X137500Y-1221600D03*
X137500Y-1377933D03*
X137500Y-1390933D03*
D11*
X46787Y-201000D03*
X46787Y-196000D03*
X46787Y-191000D03*
X46787Y-186000D03*
X46787Y-181000D03*
X46787Y-176000D03*
X46787Y-171000D03*
X46787Y-166000D03*
X46787Y-161000D03*
X46787Y-156000D03*
X46787Y-151000D03*
X46787Y-146000D03*
X46787Y-141000D03*
X46787Y-136000D03*
X46787Y-131000D03*
X46787Y-126000D03*
X46787Y-121000D03*
X46787Y-116000D03*
X46787Y-111000D03*
X46787Y-106000D03*
X46787Y-101000D03*
X46787Y-96000D03*
X46787Y-91000D03*
X46787Y-86000D03*
X46787Y-81000D03*
X46787Y-76000D03*
X46787Y-71000D03*
X46787Y-66000D03*
X122547Y-66000D03*
X122547Y-71000D03*
X122547Y-76000D03*
X122547Y-81000D03*
X122547Y-86000D03*
X122547Y-91000D03*
X122547Y-96000D03*
X122547Y-101000D03*
X122547Y-106000D03*
X122547Y-111000D03*
X122547Y-116000D03*
X122547Y-121000D03*
X122547Y-126000D03*
X122547Y-131000D03*
X122547Y-136000D03*
X122547Y-141000D03*
X122547Y-146000D03*
X122547Y-151000D03*
X122547Y-156000D03*
X122547Y-161000D03*
X122547Y-166000D03*
X122547Y-171000D03*
X122547Y-176000D03*
X122547Y-181000D03*
X122547Y-186000D03*
X122547Y-191000D03*
X122547Y-196000D03*
X122547Y-201000D03*
D12*
X84667Y-133500D03*
D11*
X46787Y-370333D03*
X46787Y-365333D03*
X46787Y-360333D03*
X46787Y-355333D03*
X46787Y-350333D03*
X46787Y-345333D03*
X46787Y-340333D03*
X46787Y-335333D03*
X46787Y-330333D03*
X46787Y-325333D03*
X46787Y-320333D03*
X46787Y-315333D03*
X46787Y-310333D03*
X46787Y-305333D03*
X46787Y-300333D03*
X46787Y-295333D03*
X46787Y-290333D03*
X46787Y-285333D03*
X46787Y-280333D03*
X46787Y-275333D03*
X46787Y-270333D03*
X46787Y-265333D03*
X46787Y-260333D03*
X46787Y-255333D03*
X46787Y-250333D03*
X46787Y-245333D03*
X46787Y-240333D03*
X46787Y-235333D03*
X122547Y-235333D03*
X122547Y-240333D03*
X122547Y-245333D03*
X122547Y-250333D03*
X122547Y-255333D03*
X122547Y-260333D03*
X122547Y-265333D03*
X122547Y-270333D03*
X122547Y-275333D03*
X122547Y-280333D03*
X122547Y-285333D03*
X122547Y-290333D03*
X122547Y-295333D03*
X122547Y-300333D03*
X122547Y-305333D03*
X122547Y-310333D03*
X122547Y-315333D03*
X122547Y-320333D03*
X122547Y-325333D03*
X122547Y-330333D03*
X122547Y-335333D03*
X122547Y-340333D03*
X122547Y-345333D03*
X122547Y-350333D03*
X122547Y-355333D03*
X122547Y-360333D03*
X122547Y-365333D03*
X122547Y-370333D03*
D12*
X84667Y-302833D03*
D11*
X46787Y-539667D03*
X46787Y-534667D03*
X46787Y-529667D03*
X46787Y-524667D03*
X46787Y-519667D03*
X46787Y-514667D03*
X46787Y-509667D03*
X46787Y-504667D03*
X46787Y-499667D03*
X46787Y-494667D03*
X46787Y-489667D03*
X46787Y-484667D03*
X46787Y-479667D03*
X46787Y-474667D03*
X46787Y-469667D03*
X46787Y-464667D03*
X46787Y-459667D03*
X46787Y-454667D03*
X46787Y-449667D03*
X46787Y-444667D03*
X46787Y-439667D03*
X46787Y-434667D03*
X46787Y-429667D03*
X46787Y-424667D03*
X46787Y-419667D03*
X46787Y-414667D03*
X46787Y-409667D03*
X46787Y-404667D03*
X122547Y-404667D03*
X122547Y-409667D03*
X122547Y-414667D03*
X122547Y-419667D03*
X122547Y-424667D03*
X122547Y-429667D03*
X122547Y-434667D03*
X122547Y-439667D03*
X122547Y-444667D03*
X122547Y-449667D03*
X122547Y-454667D03*
X122547Y-459667D03*
X122547Y-464667D03*
X122547Y-469667D03*
X122547Y-474667D03*
X122547Y-479667D03*
X122547Y-484667D03*
X122547Y-489667D03*
X122547Y-494667D03*
X122547Y-499667D03*
X122547Y-504667D03*
X122547Y-509667D03*
X122547Y-514667D03*
X122547Y-519667D03*
X122547Y-524667D03*
X122547Y-529667D03*
X122547Y-534667D03*
X122547Y-539667D03*
D12*
X84667Y-472167D03*
D11*
X46787Y-709000D03*
X46787Y-704000D03*
X46787Y-699000D03*
X46787Y-694000D03*
X46787Y-689000D03*
X46787Y-684000D03*
X46787Y-679000D03*
X46787Y-674000D03*
X46787Y-669000D03*
X46787Y-664000D03*
X46787Y-659000D03*
X46787Y-654000D03*
X46787Y-649000D03*
X46787Y-644000D03*
X46787Y-639000D03*
X46787Y-634000D03*
X46787Y-629000D03*
X46787Y-624000D03*
X46787Y-619000D03*
X46787Y-614000D03*
X46787Y-609000D03*
X46787Y-604000D03*
X46787Y-599000D03*
X46787Y-594000D03*
X46787Y-589000D03*
X46787Y-584000D03*
X46787Y-579000D03*
X46787Y-574000D03*
X122547Y-574000D03*
X122547Y-579000D03*
X122547Y-584000D03*
X122547Y-589000D03*
X122547Y-594000D03*
X122547Y-599000D03*
X122547Y-604000D03*
X122547Y-609000D03*
X122547Y-614000D03*
X122547Y-619000D03*
X122547Y-624000D03*
X122547Y-629000D03*
X122547Y-634000D03*
X122547Y-639000D03*
X122547Y-644000D03*
X122547Y-649000D03*
X122547Y-654000D03*
X122547Y-659000D03*
X122547Y-664000D03*
X122547Y-669000D03*
X122547Y-674000D03*
X122547Y-679000D03*
X122547Y-684000D03*
X122547Y-689000D03*
X122547Y-694000D03*
X122547Y-699000D03*
X122547Y-704000D03*
X122547Y-709000D03*
D12*
X84667Y-641500D03*
D11*
X46787Y-878333D03*
X46787Y-873333D03*
X46787Y-868333D03*
X46787Y-863333D03*
X46787Y-858333D03*
X46787Y-853333D03*
X46787Y-848333D03*
X46787Y-843333D03*
X46787Y-838333D03*
X46787Y-833333D03*
X46787Y-828333D03*
X46787Y-823333D03*
X46787Y-818333D03*
X46787Y-813333D03*
X46787Y-808333D03*
X46787Y-803333D03*
X46787Y-798333D03*
X46787Y-793333D03*
X46787Y-788333D03*
X46787Y-783333D03*
X46787Y-778333D03*
X46787Y-773333D03*
X46787Y-768333D03*
X46787Y-763333D03*
X46787Y-758333D03*
X46787Y-753333D03*
X46787Y-748333D03*
X46787Y-743333D03*
X122547Y-743333D03*
X122547Y-748333D03*
X122547Y-753333D03*
X122547Y-758333D03*
X122547Y-763333D03*
X122547Y-768333D03*
X122547Y-773333D03*
X122547Y-778333D03*
X122547Y-783333D03*
X122547Y-788333D03*
X122547Y-793333D03*
X122547Y-798333D03*
X122547Y-803333D03*
X122547Y-808333D03*
X122547Y-813333D03*
X122547Y-818333D03*
X122547Y-823333D03*
X122547Y-828333D03*
X122547Y-833333D03*
X122547Y-838333D03*
X122547Y-843333D03*
X122547Y-848333D03*
X122547Y-853333D03*
X122547Y-858333D03*
X122547Y-863333D03*
X122547Y-868333D03*
X122547Y-873333D03*
X122547Y-878333D03*
D12*
X84667Y-810833D03*
D11*
X46787Y-1047667D03*
X46787Y-1042667D03*
X46787Y-1037667D03*
X46787Y-1032667D03*
X46787Y-1027667D03*
X46787Y-1022667D03*
X46787Y-1017667D03*
X46787Y-1012667D03*
X46787Y-1007667D03*
X46787Y-1002667D03*
X46787Y-997667D03*
X46787Y-992667D03*
X46787Y-987667D03*
X46787Y-982667D03*
X46787Y-977667D03*
X46787Y-972667D03*
X46787Y-967667D03*
X46787Y-962667D03*
X46787Y-957667D03*
X46787Y-952667D03*
X46787Y-947667D03*
X46787Y-942667D03*
X46787Y-937667D03*
X46787Y-932667D03*
X46787Y-927667D03*
X46787Y-922667D03*
X46787Y-917667D03*
X46787Y-912667D03*
X122547Y-912667D03*
X122547Y-917667D03*
X122547Y-922667D03*
X122547Y-927667D03*
X122547Y-932667D03*
X122547Y-937667D03*
X122547Y-942667D03*
X122547Y-947667D03*
X122547Y-952667D03*
X122547Y-957667D03*
X122547Y-962667D03*
X122547Y-967667D03*
X122547Y-972667D03*
X122547Y-977667D03*
X122547Y-982667D03*
X122547Y-987667D03*
X122547Y-992667D03*
X122547Y-997667D03*
X122547Y-1002667D03*
X122547Y-1007667D03*
X122547Y-1012667D03*
X122547Y-1017667D03*
X122547Y-1022667D03*
X122547Y-1027667D03*
X122547Y-1032667D03*
X122547Y-1037667D03*
X122547Y-1042667D03*
X122547Y-1047667D03*
D12*
X84667Y-980167D03*
D11*
X46787Y-1217000D03*
X46787Y-1212000D03*
X46787Y-1207000D03*
X46787Y-1202000D03*
X46787Y-1197000D03*
X46787Y-1192000D03*
X46787Y-1187000D03*
X46787Y-1182000D03*
X46787Y-1177000D03*
X46787Y-1172000D03*
X46787Y-1167000D03*
X46787Y-1162000D03*
X46787Y-1157000D03*
X46787Y-1152000D03*
X46787Y-1147000D03*
X46787Y-1142000D03*
X46787Y-1137000D03*
X46787Y-1132000D03*
X46787Y-1127000D03*
X46787Y-1122000D03*
X46787Y-1117000D03*
X46787Y-1112000D03*
X46787Y-1107000D03*
X46787Y-1102000D03*
X46787Y-1097000D03*
X46787Y-1092000D03*
X46787Y-1087000D03*
X46787Y-1082000D03*
X122547Y-1082000D03*
X122547Y-1087000D03*
X122547Y-1092000D03*
X122547Y-1097000D03*
X122547Y-1102000D03*
X122547Y-1107000D03*
X122547Y-1112000D03*
X122547Y-1117000D03*
X122547Y-1122000D03*
X122547Y-1127000D03*
X122547Y-1132000D03*
X122547Y-1137000D03*
X122547Y-1142000D03*
X122547Y-1147000D03*
X122547Y-1152000D03*
X122547Y-1157000D03*
X122547Y-1162000D03*
X122547Y-1167000D03*
X122547Y-1172000D03*
X122547Y-1177000D03*
X122547Y-1182000D03*
X122547Y-1187000D03*
X122547Y-1192000D03*
X122547Y-1197000D03*
X122547Y-1202000D03*
X122547Y-1207000D03*
X122547Y-1212000D03*
X122547Y-1217000D03*
D12*
X84667Y-1149500D03*
D11*
X46787Y-1386333D03*
X46787Y-1381333D03*
X46787Y-1376333D03*
X46787Y-1371333D03*
X46787Y-1366333D03*
X46787Y-1361333D03*
X46787Y-1356333D03*
X46787Y-1351333D03*
X46787Y-1346333D03*
X46787Y-1341333D03*
X46787Y-1336333D03*
X46787Y-1331333D03*
X46787Y-1326333D03*
X46787Y-1321333D03*
X46787Y-1316333D03*
X46787Y-1311333D03*
X46787Y-1306333D03*
X46787Y-1301333D03*
X46787Y-1296333D03*
X46787Y-1291333D03*
X46787Y-1286333D03*
X46787Y-1281333D03*
X46787Y-1276333D03*
X46787Y-1271333D03*
X46787Y-1266333D03*
X46787Y-1261333D03*
X46787Y-1256333D03*
X46787Y-1251333D03*
X122547Y-1251333D03*
X122547Y-1256333D03*
X122547Y-1261333D03*
X122547Y-1266333D03*
X122547Y-1271333D03*
X122547Y-1276333D03*
X122547Y-1281333D03*
X122547Y-1286333D03*
X122547Y-1291333D03*
X122547Y-1296333D03*
X122547Y-1301333D03*
X122547Y-1306333D03*
X122547Y-1311333D03*
X122547Y-1316333D03*
X122547Y-1321333D03*
X122547Y-1326333D03*
X122547Y-1331333D03*
X122547Y-1336333D03*
X122547Y-1341333D03*
X122547Y-1346333D03*
X122547Y-1351333D03*
X122547Y-1356333D03*
X122547Y-1361333D03*
X122547Y-1366333D03*
X122547Y-1371333D03*
X122547Y-1376333D03*
X122547Y-1381333D03*
X122547Y-1386333D03*
D12*
X84667Y-1318833D03*
D10*
X149300Y-361933D03*
X149300Y-374933D03*
X149300Y-531267D03*
X149300Y-544267D03*
X149300Y-700600D03*
X149300Y-713600D03*
X149300Y-869933D03*
X149300Y-882933D03*
X149300Y-1039267D03*
X149300Y-1052267D03*
X149300Y-1208600D03*
X149300Y-1221600D03*
X149300Y-1377933D03*
X149300Y-1390933D03*
X149300Y-192600D03*
X149300Y-205600D03*
M02*
