M48
;GenerationSoftware,Autodesk,EAGLE,9.5.2*%
;CreationDate,2022-03-18T19:51:35Z*%
FMAT,2
ICI,OFF
METRIC,TZ,000.000
T14C0.350
T13C0.450
T12C0.600
T11C0.650
T10C0.813
T9C1.000
T8C1.016
T7C1.020
T6C1.270
T5C2.200
T4C2.750
T3C2.794
T2C3.048
T1C7.620
%
G90
M71
T1
X16510Y95250
X133350Y2540
T2
X45085Y93980
X4445Y93980
X4445Y38100
T3
X45085Y38100
X198755Y93980
X198755Y1270
X4445Y1270
T4
X127730Y73830
X185730Y96830
X185730Y73830
X127730Y96830
X55499Y1524
X124333Y1524
T5
X69469Y88011
X117221Y66929
X96139Y88011
X90551Y66929
T6
X54077Y94437
X63068Y94437
X203886Y13056
X203886Y22047
T7
X45805Y54300
X43265Y54300
X40725Y54300
X38185Y54300
X35645Y54300
X48345Y56840
X45805Y56840
X43265Y56840
X40725Y56840
X38185Y56840
X35645Y56840
X31315Y54300
X28775Y54300
X26235Y54300
X23695Y54300
X21155Y54300
X18615Y54300
X31315Y56840
X28775Y56840
X26235Y56840
X23695Y56840
X21155Y56840
X18615Y56840
X14285Y54300
X11745Y54300
X9205Y54300
X6665Y54300
X4125Y54300
X1585Y54300
X14285Y56840
X11745Y56840
X9205Y56840
X6665Y56840
X4125Y56840
X1585Y56840
X184585Y54300
X182045Y54300
X179505Y54300
X176965Y54300
X174425Y54300
X171885Y54300
X184585Y56840
X182045Y56840
X179505Y56840
X176965Y56840
X113925Y54300
X174425Y56840
X171885Y56840
X167555Y54300
X165015Y54300
X162475Y54300
X159935Y54300
X157395Y54300
X154855Y54300
X167555Y56840
X165015Y56840
X162475Y56840
X159935Y56840
X157395Y56840
X154855Y56840
X150525Y54300
X147985Y54300
X145445Y54300
X142905Y54300
X140365Y54300
X137825Y54300
X150525Y56840
X147985Y56840
X145445Y56840
X142905Y56840
X140365Y56840
X137825Y56840
X133495Y54300
X130955Y54300
X128415Y54300
X125875Y54300
X123335Y54300
X120795Y54300
X133495Y56840
X130955Y56840
X128415Y56840
X125875Y56840
X123335Y56840
X120795Y56840
X116465Y54300
X74785Y54300
X72245Y54300
X69705Y54300
X82405Y56840
X86735Y56840
X89275Y56840
X91815Y56840
X94355Y56840
X96895Y56840
X99435Y56840
X86735Y54300
X89275Y54300
X91815Y54300
X94355Y54300
X96895Y54300
X99435Y54300
X103765Y56840
X106305Y56840
X79865Y56840
X111385Y56840
X113925Y56840
X116465Y56840
X103765Y54300
X106305Y54300
X108845Y54300
X77325Y56840
X74785Y56840
X72245Y56840
X111385Y54300
X69705Y56840
X65375Y54300
X62835Y54300
X60295Y54300
X57755Y54300
X55215Y54300
X52675Y54300
X65375Y56840
X62835Y56840
X108845Y56840
X60295Y56840
X57755Y56840
X55215Y56840
X52675Y56840
X48345Y54300
X201615Y54300
X199075Y54300
X196535Y54300
X193995Y54300
X191455Y54300
X188915Y54300
X201615Y56840
X199075Y56840
X196535Y56840
X193995Y56840
X191455Y56840
X188915Y56840
X82405Y54300
X79865Y54300
X77325Y54300
T8
X111125Y45212
X111125Y2032
X111125Y-508
X108585Y2032
X108585Y-508
X106045Y2032
X106045Y-508
X103505Y2032
X103505Y-508
X100965Y2032
X100965Y-508
X98425Y2032
X98425Y-508
X95885Y2032
X95885Y-508
X93345Y2032
X93345Y-508
X90805Y2032
X90805Y-508
X88265Y2032
X88265Y-508
X85725Y2032
X85725Y-508
X83185Y2032
X83185Y-508
X80645Y2032
X80645Y-508
X78105Y2032
X78105Y-508
X75565Y2032
X75565Y-508
X73025Y2032
X73025Y-508
X70485Y2032
X70485Y-508
X67945Y2032
X67945Y-508
X65405Y2032
X65405Y-508
X62865Y2032
X62865Y-508
X56261Y7112
X53721Y7112
X56261Y9652
X53721Y9652
X56261Y12192
X53721Y12192
X56261Y14732
X53721Y14732
X56261Y17272
X53721Y17272
X56261Y19812
X53721Y19812
X56261Y22352
X53721Y22352
X56261Y24892
X53721Y24892
X56261Y27432
X53721Y27432
X56261Y29972
X53721Y29972
X56261Y32512
X53721Y32512
X56261Y35052
X53721Y35052
X56261Y37592
X53721Y37592
X73660Y66040
X73660Y68580
X76200Y66040
X76200Y68580
X78740Y66040
X78740Y68580
X81280Y66040
X81280Y68580
X83820Y66040
X83820Y68580
X86360Y66040
X86360Y68580
X201930Y19050
X201930Y16053
X103886Y93853
X100889Y93853
X97892Y93853
X103886Y96850
X100889Y96850
X97892Y96850
X106883Y97790
X60071Y96393
X57074Y96393
X198374Y81534
X198374Y84531
X198374Y87528
X201371Y81534
X201371Y84531
X201371Y87528
X202311Y78537
X202311Y90526
X198374Y65913
X198374Y68910
X198374Y71907
X201371Y65913
X201371Y68910
X201371Y71907
X202311Y62916
X202311Y74905
X94894Y97790
X100330Y66040
X100330Y68580
X102870Y66040
X102870Y68580
X105410Y66040
X105410Y68580
X107950Y66040
X107950Y68580
X110490Y66040
X110490Y68580
X113030Y66040
X113030Y68580
X62865Y42672
X62865Y45212
X65405Y42672
X65405Y45212
X67945Y42672
X67945Y45212
X70485Y42672
X70485Y45212
X73025Y42672
X73025Y45212
X75565Y42672
X75565Y45212
X78105Y42672
X78105Y45212
X80645Y42672
X80645Y45212
X83185Y42672
X83185Y45212
X85725Y42672
X85725Y45212
X88265Y42672
X88265Y45212
X90805Y42672
X90805Y45212
X93345Y42672
X93345Y45212
X95885Y42672
X95885Y45212
X98425Y42672
X98425Y45212
X100965Y42672
X100965Y45212
X103505Y42672
X103505Y45212
X106045Y42672
X106045Y45212
X108585Y42672
X108585Y45212
X111125Y42672
T9
X147840Y72560
X147840Y75100
X175780Y75100
X168160Y72560
X150380Y72560
X150380Y75100
X168160Y75100
X170700Y72560
X170700Y75100
X173240Y72560
X173240Y75100
X175780Y72560
X178320Y72560
X178320Y75100
X180860Y72560
X180860Y75100
X102870Y80010
X132600Y72560
X132600Y75100
X135140Y72560
X127000Y80010
X102870Y72390
X124460Y68580
X187960Y66040
X64770Y66548
X135140Y75100
X137680Y72560
X152920Y72560
X152920Y75100
X155460Y72560
X155460Y75100
X158000Y72560
X158000Y75100
X160540Y72560
X160540Y75100
X163080Y72560
X165620Y75100
X165620Y72560
X163080Y75100
X137680Y75100
X140220Y72560
X140220Y75100
X142760Y72560
X142760Y75100
X145300Y72560
X145300Y75100
T10
X180848Y60071
X22225Y62103
X191897Y60071
X191897Y62103
X119126Y76200
X117094Y76200
X80010Y98806
X80010Y96774
X52324Y87630
X54356Y87630
X5207Y64135
X5207Y62103
X180848Y62103
X22225Y64135
X39243Y64135
X39243Y62103
X56261Y64135
X56261Y62103
X90297Y64135
X90297Y62103
X124333Y64135
X124333Y62103
X141351Y64135
X141351Y62103
X158496Y64135
X158496Y62103
X175641Y64135
X175641Y62103
X10541Y60071
X27559Y62103
X10541Y62103
X27559Y60071
X44577Y60071
X44577Y62103
X61595Y60071
X61595Y62103
X95758Y60071
X78613Y60071
X78613Y62103
X95758Y62103
X112649Y60071
X112649Y62103
X129667Y60071
X129667Y62103
X146685Y60071
X146685Y62103
X163830Y60071
X163830Y62103
T11
X16510Y62484
X67564Y62484
X56007Y66167
X62103Y65532
X186817Y62484
X199009Y58801
X190500Y63500
X169672Y62611
X152781Y62484
X135636Y62484
X121920Y63500
X101600Y62484
X84582Y62484
X50546Y62484
X33528Y62484
T12
X120904Y32639
X122047Y32639
X119761Y32639
X161290Y80010
X156845Y84201
X122047Y41529
X120904Y40259
X119761Y38989
T13
X132715Y36449
X118491Y35052
X118491Y36322
X132842Y43815
X132842Y40005
X118491Y33655
T14
X54610Y83820
X55880Y83820
X24384Y33782
X7874Y33782
X59817Y31242
X177800Y50800
X161290Y50800
X143637Y50800
X115951Y35052
X111125Y35052
X93345Y35052
X76581Y35052
X44069Y31242
X26670Y31242
X10160Y31242
X170180Y87630
X173355Y86106
X53340Y83820
X120523Y95885
X118999Y95885
X122428Y95885
X32893Y1651
X32131Y762
X33655Y2540
X61722Y28702
X108585Y36322
X90805Y36322
X180340Y49530
X163830Y49530
X146050Y49530
X117221Y33655
X113792Y33655
X96139Y33655
X79121Y33655
X46609Y28702
X29464Y28702
X74041Y36322
X41529Y33782
X12319Y28702
X58420Y33782
X114681Y36322
X162560Y93980
X165100Y85090
X149606Y85852
X135382Y35941
X139700Y40640
X135890Y49530
X123190Y34163
X123317Y42545
X123825Y45720
X126873Y31750
X127000Y39751
X127000Y43561
X54610Y73660
X53340Y73660
X53340Y74930
X54610Y74930
X54610Y76200
X53340Y76200
X53340Y77470
X54610Y77470
X55880Y77470
X57150Y77470
X58420Y77470
X59690Y77470
X60960Y77470
X60960Y78740
X59690Y78740
X58420Y78740
X57150Y78740
X53340Y78740
X55880Y78740
X54610Y78740
X53340Y80010
X54610Y80010
X55880Y80010
X57150Y80010
X58420Y80010
X59690Y80010
X60960Y80010
X60960Y81280
X59690Y81280
X58420Y81280
X57150Y81280
X55880Y81280
X54610Y81280
X53340Y81280
X53340Y82550
X54610Y82550
X55880Y82550
X57150Y82550
X58420Y82550
X59690Y82550
X60960Y82550
X60960Y83820
X59690Y83820
X58420Y83820
X57150Y83820
M30