G04 EAGLE Gerber RS-274X export*
G75*
%MOMM*%
%FSLAX34Y34*%
%LPD*%
%INSolderpaste Top*%
%IPPOS*%
%AMOC8*
5,1,8,0,0,1.08239X$1,22.5*%
G01*
%ADD10R,1.000000X1.100000*%
%ADD11R,0.800000X1.500000*%
%ADD12R,6.000000X3.600000*%
%ADD13R,0.300000X1.100000*%
%ADD14R,2.100000X1.950000*%
%ADD15R,1.200000X0.600000*%
%ADD16R,1.100000X1.000000*%
%ADD17R,0.600000X0.700000*%
%ADD18R,1.525000X0.650000*%
%ADD19R,0.700000X0.600000*%


D10*
X577850Y672710D03*
X577850Y655710D03*
X603250Y672710D03*
X603250Y655710D03*
X535940Y700160D03*
X535940Y717160D03*
D11*
X565150Y700580D03*
X577850Y700580D03*
D12*
X590550Y746080D03*
D11*
X603250Y700580D03*
X615950Y700580D03*
D13*
X351500Y-4600D03*
X346500Y-4600D03*
X341500Y-4600D03*
X336500Y-4600D03*
X331500Y-4600D03*
X326500Y-4600D03*
X321500Y-4600D03*
X316500Y-4600D03*
X311500Y-4600D03*
X306500Y-4600D03*
X301500Y-4600D03*
X296500Y-4600D03*
X291500Y-4600D03*
X286500Y-4600D03*
X281500Y-4600D03*
X276500Y-4600D03*
X271500Y-4600D03*
X266500Y-4600D03*
X261500Y-4600D03*
X256500Y-4600D03*
X251500Y-4600D03*
X246500Y-4600D03*
X241500Y-4600D03*
X236500Y-4600D03*
X231500Y-4600D03*
X226500Y-4600D03*
X221500Y-4600D03*
X216500Y-4600D03*
X211500Y-4600D03*
X206500Y-4600D03*
X201500Y-4600D03*
X196500Y-4600D03*
X191500Y-4600D03*
X186500Y-4600D03*
X181500Y-4600D03*
X176500Y-4600D03*
X171500Y-4600D03*
X166500Y-4600D03*
X161500Y-4600D03*
X156500Y-4600D03*
D14*
X374000Y6650D03*
X134000Y6650D03*
D15*
X1286710Y418440D03*
X1286710Y408940D03*
X1286710Y399440D03*
X1311710Y399440D03*
X1311710Y418440D03*
X1286710Y456540D03*
X1286710Y447040D03*
X1286710Y437540D03*
X1311710Y437540D03*
X1311710Y456540D03*
X1286710Y380340D03*
X1286710Y370840D03*
X1286710Y361340D03*
X1311710Y361340D03*
X1311710Y380340D03*
D16*
X1943100Y817000D03*
X1943100Y834000D03*
X1943100Y778900D03*
X1943100Y795900D03*
X1943100Y664600D03*
X1943100Y681600D03*
X1943100Y626500D03*
X1943100Y643500D03*
X1268340Y457200D03*
X1251340Y457200D03*
X1350400Y457200D03*
X1367400Y457200D03*
X1268340Y419100D03*
X1251340Y419100D03*
X1350400Y419100D03*
X1367400Y419100D03*
X1268340Y381000D03*
X1251340Y381000D03*
X1350400Y381000D03*
X1367400Y381000D03*
D17*
G36*
X1083520Y48339D02*
X1087763Y52582D01*
X1092712Y47633D01*
X1088469Y43390D01*
X1083520Y48339D01*
G37*
G36*
X1076448Y41267D02*
X1080691Y45510D01*
X1085640Y40561D01*
X1081397Y36318D01*
X1076448Y41267D01*
G37*
G36*
X1058120Y48339D02*
X1062363Y52582D01*
X1067312Y47633D01*
X1063069Y43390D01*
X1058120Y48339D01*
G37*
G36*
X1051048Y41267D02*
X1055291Y45510D01*
X1060240Y40561D01*
X1055997Y36318D01*
X1051048Y41267D01*
G37*
G36*
X1032720Y48339D02*
X1036963Y52582D01*
X1041912Y47633D01*
X1037669Y43390D01*
X1032720Y48339D01*
G37*
G36*
X1025648Y41267D02*
X1029891Y45510D01*
X1034840Y40561D01*
X1030597Y36318D01*
X1025648Y41267D01*
G37*
G36*
X981920Y48339D02*
X986163Y52582D01*
X991112Y47633D01*
X986869Y43390D01*
X981920Y48339D01*
G37*
G36*
X974848Y41267D02*
X979091Y45510D01*
X984040Y40561D01*
X979797Y36318D01*
X974848Y41267D01*
G37*
G36*
X956520Y48339D02*
X960763Y52582D01*
X965712Y47633D01*
X961469Y43390D01*
X956520Y48339D01*
G37*
G36*
X949448Y41267D02*
X953691Y45510D01*
X958640Y40561D01*
X954397Y36318D01*
X949448Y41267D01*
G37*
G36*
X931120Y48339D02*
X935363Y52582D01*
X940312Y47633D01*
X936069Y43390D01*
X931120Y48339D01*
G37*
G36*
X924048Y41267D02*
X928291Y45510D01*
X933240Y40561D01*
X928997Y36318D01*
X924048Y41267D01*
G37*
G36*
X905720Y48339D02*
X909963Y52582D01*
X914912Y47633D01*
X910669Y43390D01*
X905720Y48339D01*
G37*
G36*
X898648Y41267D02*
X902891Y45510D01*
X907840Y40561D01*
X903597Y36318D01*
X898648Y41267D01*
G37*
G36*
X880320Y48339D02*
X884563Y52582D01*
X889512Y47633D01*
X885269Y43390D01*
X880320Y48339D01*
G37*
G36*
X873248Y41267D02*
X877491Y45510D01*
X882440Y40561D01*
X878197Y36318D01*
X873248Y41267D01*
G37*
G36*
X854920Y48339D02*
X859163Y52582D01*
X864112Y47633D01*
X859869Y43390D01*
X854920Y48339D01*
G37*
G36*
X847848Y41267D02*
X852091Y45510D01*
X857040Y40561D01*
X852797Y36318D01*
X847848Y41267D01*
G37*
G36*
X829520Y48339D02*
X833763Y52582D01*
X838712Y47633D01*
X834469Y43390D01*
X829520Y48339D01*
G37*
G36*
X822448Y41267D02*
X826691Y45510D01*
X831640Y40561D01*
X827397Y36318D01*
X822448Y41267D01*
G37*
G36*
X804120Y48339D02*
X808363Y52582D01*
X813312Y47633D01*
X809069Y43390D01*
X804120Y48339D01*
G37*
G36*
X797048Y41267D02*
X801291Y45510D01*
X806240Y40561D01*
X801997Y36318D01*
X797048Y41267D01*
G37*
G36*
X753320Y48339D02*
X757563Y52582D01*
X762512Y47633D01*
X758269Y43390D01*
X753320Y48339D01*
G37*
G36*
X746248Y41267D02*
X750491Y45510D01*
X755440Y40561D01*
X751197Y36318D01*
X746248Y41267D01*
G37*
G36*
X727920Y48339D02*
X732163Y52582D01*
X737112Y47633D01*
X732869Y43390D01*
X727920Y48339D01*
G37*
G36*
X720848Y41267D02*
X725091Y45510D01*
X730040Y40561D01*
X725797Y36318D01*
X720848Y41267D01*
G37*
G36*
X702520Y48339D02*
X706763Y52582D01*
X711712Y47633D01*
X707469Y43390D01*
X702520Y48339D01*
G37*
G36*
X695448Y41267D02*
X699691Y45510D01*
X704640Y40561D01*
X700397Y36318D01*
X695448Y41267D01*
G37*
G36*
X677120Y48339D02*
X681363Y52582D01*
X686312Y47633D01*
X682069Y43390D01*
X677120Y48339D01*
G37*
G36*
X670048Y41267D02*
X674291Y45510D01*
X679240Y40561D01*
X674997Y36318D01*
X670048Y41267D01*
G37*
D18*
X1601920Y838200D03*
X1601920Y850900D03*
X1601920Y863600D03*
X1601920Y876300D03*
X1601920Y889000D03*
X1601920Y901700D03*
X1601920Y914400D03*
X1547680Y914400D03*
X1547680Y901700D03*
X1547680Y889000D03*
X1547680Y876300D03*
X1547680Y863600D03*
X1547680Y850900D03*
X1547680Y838200D03*
D10*
X1606160Y933450D03*
X1589160Y933450D03*
D16*
X1619640Y838200D03*
X1636640Y838200D03*
X1529960Y838200D03*
X1512960Y838200D03*
X1529960Y876300D03*
X1512960Y876300D03*
D17*
G36*
X651720Y48339D02*
X655963Y52582D01*
X660912Y47633D01*
X656669Y43390D01*
X651720Y48339D01*
G37*
G36*
X644648Y41267D02*
X648891Y45510D01*
X653840Y40561D01*
X649597Y36318D01*
X644648Y41267D01*
G37*
G36*
X1009440Y40561D02*
X1005197Y36318D01*
X1000248Y41267D01*
X1004491Y45510D01*
X1009440Y40561D01*
G37*
G36*
X1016512Y47633D02*
X1012269Y43390D01*
X1007320Y48339D01*
X1011563Y52582D01*
X1016512Y47633D01*
G37*
X699850Y471170D03*
X709850Y471170D03*
G36*
X754301Y475190D02*
X750058Y479433D01*
X755007Y484382D01*
X759250Y480139D01*
X754301Y475190D01*
G37*
G36*
X761373Y468118D02*
X757130Y472361D01*
X762079Y477310D01*
X766322Y473067D01*
X761373Y468118D01*
G37*
D19*
X805434Y481250D03*
X805434Y471250D03*
X834390Y481250D03*
X834390Y471250D03*
X863346Y481250D03*
X863346Y471250D03*
X892302Y481250D03*
X892302Y471250D03*
X995426Y481250D03*
X995426Y471250D03*
X1026414Y481250D03*
X1026414Y471250D03*
D17*
G36*
X1062438Y480139D02*
X1066681Y484382D01*
X1071630Y479433D01*
X1067387Y475190D01*
X1062438Y480139D01*
G37*
G36*
X1055366Y473067D02*
X1059609Y477310D01*
X1064558Y472361D01*
X1060315Y468118D01*
X1055366Y473067D01*
G37*
X1140380Y426720D03*
X1130380Y426720D03*
X735250Y474980D03*
X725250Y474980D03*
G36*
X786209Y477310D02*
X790452Y473067D01*
X785503Y468118D01*
X781260Y472361D01*
X786209Y477310D01*
G37*
G36*
X779137Y484382D02*
X783380Y480139D01*
X778431Y475190D01*
X774188Y479433D01*
X779137Y484382D01*
G37*
D19*
X819912Y471250D03*
X819912Y481250D03*
X848868Y471250D03*
X848868Y481250D03*
X877824Y471250D03*
X877824Y481250D03*
X908050Y471250D03*
X908050Y481250D03*
X1010920Y471250D03*
X1010920Y481250D03*
X1041908Y471250D03*
X1041908Y481250D03*
D17*
G36*
X1084370Y472361D02*
X1080127Y468118D01*
X1075178Y473067D01*
X1079421Y477310D01*
X1084370Y472361D01*
G37*
G36*
X1091442Y479433D02*
X1087199Y475190D01*
X1082250Y480139D01*
X1086493Y484382D01*
X1091442Y479433D01*
G37*
X1130380Y452120D03*
X1140380Y452120D03*
X609520Y452120D03*
X599520Y452120D03*
X599520Y439420D03*
X609520Y439420D03*
G36*
X729190Y406479D02*
X733433Y410722D01*
X738382Y405773D01*
X734139Y401530D01*
X729190Y406479D01*
G37*
G36*
X722118Y399407D02*
X726361Y403650D01*
X731310Y398701D01*
X727067Y394458D01*
X722118Y399407D01*
G37*
G36*
X688550Y406479D02*
X692793Y410722D01*
X697742Y405773D01*
X693499Y401530D01*
X688550Y406479D01*
G37*
G36*
X681478Y399407D02*
X685721Y403650D01*
X690670Y398701D01*
X686427Y394458D01*
X681478Y399407D01*
G37*
G36*
X749510Y406479D02*
X753753Y410722D01*
X758702Y405773D01*
X754459Y401530D01*
X749510Y406479D01*
G37*
G36*
X742438Y399407D02*
X746681Y403650D01*
X751630Y398701D01*
X747387Y394458D01*
X742438Y399407D01*
G37*
G36*
X710990Y398701D02*
X706747Y394458D01*
X701798Y399407D01*
X706041Y403650D01*
X710990Y398701D01*
G37*
G36*
X718062Y405773D02*
X713819Y401530D01*
X708870Y406479D01*
X713113Y410722D01*
X718062Y405773D01*
G37*
X657940Y407670D03*
X667940Y407670D03*
X609520Y426720D03*
X599520Y426720D03*
G36*
X1102062Y480139D02*
X1106305Y484382D01*
X1111254Y479433D01*
X1107011Y475190D01*
X1102062Y480139D01*
G37*
G36*
X1094990Y473067D02*
X1099233Y477310D01*
X1104182Y472361D01*
X1099939Y468118D01*
X1094990Y473067D01*
G37*
G36*
X1123994Y472361D02*
X1119751Y468118D01*
X1114802Y473067D01*
X1119045Y477310D01*
X1123994Y472361D01*
G37*
G36*
X1131066Y479433D02*
X1126823Y475190D01*
X1121874Y480139D01*
X1126117Y484382D01*
X1131066Y479433D01*
G37*
D19*
X948944Y481250D03*
X948944Y471250D03*
X933450Y471250D03*
X933450Y481250D03*
X964438Y471250D03*
X964438Y481250D03*
X979932Y481250D03*
X979932Y471250D03*
M02*
