G04 EAGLE Gerber RS-274X export*
G75*
%MOMM*%
%FSLAX34Y34*%
%LPD*%
%INSoldermask Top*%
%IPPOS*%
%AMOC8*
5,1,8,0,0,1.08239X$1,22.5*%
G01*
%ADD10C,2.997200*%
%ADD11C,7.823200*%
%ADD12R,1.203200X1.303200*%
%ADD13R,1.003200X1.703200*%
%ADD14R,6.203200X3.803200*%
%ADD15R,1.773200X1.773200*%
%ADD16C,1.773200*%
%ADD17R,0.503200X1.303200*%
%ADD18R,2.303200X2.153200*%
%ADD19R,1.981200X1.981200*%
%ADD20C,1.981200*%
%ADD21C,2.953200*%
%ADD22C,3.251200*%
%ADD23P,1.869504X8X22.500000*%
%ADD24C,2.403200*%
%ADD25P,1.869504X8X202.500000*%
%ADD26P,1.869504X8X112.500000*%
%ADD27R,1.403200X0.803200*%
%ADD28R,1.727200X1.727200*%
%ADD29C,1.727200*%
%ADD30C,2.108200*%
%ADD31R,1.303200X1.203200*%
%ADD32P,1.649562X8X112.500000*%
%ADD33C,1.524000*%
%ADD34P,1.649562X8X292.500000*%
%ADD35P,1.649562X8X22.500000*%
%ADD36P,1.649562X8X202.500000*%
%ADD37R,0.803200X0.903200*%
%ADD38R,1.728200X0.853200*%
%ADD39R,0.903200X0.803200*%
%ADD40C,0.959600*%
%ADD41C,1.259600*%
%ADD42C,1.209600*%
%ADD43C,1.703200*%
%ADD44C,1.059600*%


D10*
X1987550Y939800D03*
X1987550Y12700D03*
X44450Y12700D03*
D11*
X165100Y952500D03*
X1333500Y25400D03*
D12*
X577850Y672710D03*
X577850Y655710D03*
X603250Y672710D03*
X603250Y655710D03*
X535940Y700160D03*
X535940Y717160D03*
D13*
X565150Y700580D03*
X577850Y700580D03*
D14*
X590550Y746080D03*
D13*
X603250Y700580D03*
X615950Y700580D03*
D15*
X2016150Y543001D03*
D16*
X1990750Y543001D03*
X1965350Y543001D03*
X1939950Y543001D03*
X1914550Y543001D03*
X1889150Y543001D03*
X2016150Y568401D03*
X1990750Y568401D03*
X1965350Y568401D03*
X1939950Y568401D03*
X1914550Y568401D03*
X1889150Y568401D03*
D15*
X824050Y543001D03*
D16*
X798650Y543001D03*
X773250Y543001D03*
X747850Y543001D03*
X722450Y543001D03*
X697050Y543001D03*
X824050Y568401D03*
X798650Y568401D03*
X773250Y568401D03*
X747850Y568401D03*
X722450Y568401D03*
X697050Y568401D03*
D15*
X653750Y543001D03*
D16*
X628350Y543001D03*
X602950Y543001D03*
X577550Y543001D03*
X552150Y543001D03*
X526750Y543001D03*
X653750Y568401D03*
X628350Y568401D03*
X602950Y568401D03*
X577550Y568401D03*
X552150Y568401D03*
X526750Y568401D03*
D15*
X483450Y543001D03*
D16*
X458050Y543001D03*
X432650Y543001D03*
X407250Y543001D03*
X381850Y543001D03*
X356450Y543001D03*
X483450Y568401D03*
X458050Y568401D03*
X432650Y568401D03*
X407250Y568401D03*
X381850Y568401D03*
X356450Y568401D03*
D15*
X313150Y543001D03*
D16*
X287750Y543001D03*
X262350Y543001D03*
X236950Y543001D03*
X211550Y543001D03*
X186150Y543001D03*
X313150Y568401D03*
X287750Y568401D03*
X262350Y568401D03*
X236950Y568401D03*
X211550Y568401D03*
X186150Y568401D03*
D15*
X142850Y543001D03*
D16*
X117450Y543001D03*
X92050Y543001D03*
X66650Y543001D03*
X41250Y543001D03*
X15850Y543001D03*
X142850Y568401D03*
X117450Y568401D03*
X92050Y568401D03*
X66650Y568401D03*
X41250Y568401D03*
X15850Y568401D03*
D17*
X351500Y-4600D03*
X346500Y-4600D03*
X341500Y-4600D03*
X336500Y-4600D03*
X331500Y-4600D03*
X326500Y-4600D03*
X321500Y-4600D03*
X316500Y-4600D03*
X311500Y-4600D03*
X306500Y-4600D03*
X301500Y-4600D03*
X296500Y-4600D03*
X291500Y-4600D03*
X286500Y-4600D03*
X281500Y-4600D03*
X276500Y-4600D03*
X271500Y-4600D03*
X266500Y-4600D03*
X261500Y-4600D03*
X256500Y-4600D03*
X251500Y-4600D03*
X246500Y-4600D03*
X241500Y-4600D03*
X236500Y-4600D03*
X231500Y-4600D03*
X226500Y-4600D03*
X221500Y-4600D03*
X216500Y-4600D03*
X211500Y-4600D03*
X206500Y-4600D03*
X201500Y-4600D03*
X196500Y-4600D03*
X191500Y-4600D03*
X186500Y-4600D03*
X181500Y-4600D03*
X176500Y-4600D03*
X171500Y-4600D03*
X166500Y-4600D03*
X161500Y-4600D03*
X156500Y-4600D03*
D18*
X374000Y6650D03*
X134000Y6650D03*
D15*
X1845850Y543001D03*
D16*
X1820450Y543001D03*
X1795050Y543001D03*
X1769650Y543001D03*
X1744250Y543001D03*
X1718850Y543001D03*
X1845850Y568401D03*
X1820450Y568401D03*
X1795050Y568401D03*
X1769650Y568401D03*
X1744250Y568401D03*
X1718850Y568401D03*
D15*
X1675550Y543001D03*
D16*
X1650150Y543001D03*
X1624750Y543001D03*
X1599350Y543001D03*
X1573950Y543001D03*
X1548550Y543001D03*
X1675550Y568401D03*
X1650150Y568401D03*
X1624750Y568401D03*
X1599350Y568401D03*
X1573950Y568401D03*
X1548550Y568401D03*
D15*
X1505250Y543001D03*
D16*
X1479850Y543001D03*
X1454450Y543001D03*
X1429050Y543001D03*
X1403650Y543001D03*
X1378250Y543001D03*
X1505250Y568401D03*
X1479850Y568401D03*
X1454450Y568401D03*
X1429050Y568401D03*
X1403650Y568401D03*
X1378250Y568401D03*
D15*
X1334950Y543001D03*
D16*
X1309550Y543001D03*
X1284150Y543001D03*
X1258750Y543001D03*
X1233350Y543001D03*
X1207950Y543001D03*
X1334950Y568401D03*
X1309550Y568401D03*
X1284150Y568401D03*
X1258750Y568401D03*
X1233350Y568401D03*
X1207950Y568401D03*
D15*
X1164650Y543001D03*
D16*
X1139250Y543001D03*
X1113850Y543001D03*
X1088450Y543001D03*
X1063050Y543001D03*
X1037650Y543001D03*
X1164650Y568401D03*
X1139250Y568401D03*
X1113850Y568401D03*
X1088450Y568401D03*
X1063050Y568401D03*
X1037650Y568401D03*
D15*
X994350Y543001D03*
D16*
X968950Y543001D03*
X943550Y543001D03*
X918150Y543001D03*
X892750Y543001D03*
X867350Y543001D03*
X994350Y568401D03*
X968950Y568401D03*
X943550Y568401D03*
X918150Y568401D03*
X892750Y568401D03*
X867350Y568401D03*
D19*
X1808600Y751000D03*
D20*
X1808600Y725600D03*
X1783200Y751000D03*
X1783200Y725600D03*
X1757800Y751000D03*
X1757800Y725600D03*
X1732400Y751000D03*
X1732400Y725600D03*
X1707000Y751000D03*
X1707000Y725600D03*
X1681600Y751000D03*
X1681600Y725600D03*
X1656200Y751000D03*
X1656200Y725600D03*
X1630800Y751000D03*
X1630800Y725600D03*
X1605400Y751000D03*
X1605400Y725600D03*
X1580000Y751000D03*
X1580000Y725600D03*
X1554600Y751000D03*
X1554600Y725600D03*
X1529200Y751000D03*
X1529200Y725600D03*
X1503800Y751000D03*
X1503800Y725600D03*
X1478400Y751000D03*
X1478400Y725600D03*
X1453000Y751000D03*
X1453000Y725600D03*
X1427600Y751000D03*
X1427600Y725600D03*
X1402200Y751000D03*
X1402200Y725600D03*
X1376800Y751000D03*
X1376800Y725600D03*
X1351400Y751000D03*
X1351400Y725600D03*
X1326000Y751000D03*
X1326000Y725600D03*
D21*
X1857300Y968300D03*
X1857300Y738300D03*
X1277300Y968300D03*
X1277300Y738300D03*
D22*
X450850Y939800D03*
X44450Y939800D03*
D10*
X450850Y381000D03*
D22*
X44450Y381000D03*
D23*
X1003300Y660400D03*
X1003300Y685800D03*
X1028700Y660400D03*
X1028700Y685800D03*
X1054100Y660400D03*
X1054100Y685800D03*
X1079500Y660400D03*
X1079500Y685800D03*
X1104900Y660400D03*
X1104900Y685800D03*
X1130300Y660400D03*
X1130300Y685800D03*
D24*
X1172210Y669290D03*
X961390Y880110D03*
D23*
X628650Y426720D03*
X628650Y452120D03*
X654050Y426720D03*
X654050Y452120D03*
X679450Y426720D03*
X679450Y452120D03*
X704850Y426720D03*
X704850Y452120D03*
X730250Y426720D03*
X730250Y452120D03*
X755650Y426720D03*
X755650Y452120D03*
X781050Y426720D03*
X781050Y452120D03*
X806450Y426720D03*
X806450Y452120D03*
X831850Y426720D03*
X831850Y452120D03*
X857250Y426720D03*
X857250Y452120D03*
X882650Y426720D03*
X882650Y452120D03*
X908050Y426720D03*
X908050Y452120D03*
X933450Y426720D03*
X933450Y452120D03*
X958850Y426720D03*
X958850Y452120D03*
X984250Y426720D03*
X984250Y452120D03*
X1009650Y426720D03*
X1009650Y452120D03*
X1035050Y426720D03*
X1035050Y452120D03*
X1060450Y426720D03*
X1060450Y452120D03*
X1085850Y426720D03*
X1085850Y452120D03*
X1111250Y426720D03*
X1111250Y452120D03*
D25*
X1111250Y20320D03*
X1111250Y-5080D03*
X1085850Y20320D03*
X1085850Y-5080D03*
X1060450Y20320D03*
X1060450Y-5080D03*
X1035050Y20320D03*
X1035050Y-5080D03*
X1009650Y20320D03*
X1009650Y-5080D03*
X984250Y20320D03*
X984250Y-5080D03*
X958850Y20320D03*
X958850Y-5080D03*
X933450Y20320D03*
X933450Y-5080D03*
X908050Y20320D03*
X908050Y-5080D03*
X882650Y20320D03*
X882650Y-5080D03*
X857250Y20320D03*
X857250Y-5080D03*
X831850Y20320D03*
X831850Y-5080D03*
X806450Y20320D03*
X806450Y-5080D03*
X781050Y20320D03*
X781050Y-5080D03*
X755650Y20320D03*
X755650Y-5080D03*
X730250Y20320D03*
X730250Y-5080D03*
X704850Y20320D03*
X704850Y-5080D03*
X679450Y20320D03*
X679450Y-5080D03*
X654050Y20320D03*
X654050Y-5080D03*
X628650Y20320D03*
X628650Y-5080D03*
D26*
X562610Y71120D03*
X537210Y71120D03*
X562610Y96520D03*
X537210Y96520D03*
X562610Y121920D03*
X537210Y121920D03*
X562610Y147320D03*
X537210Y147320D03*
X562610Y172720D03*
X537210Y172720D03*
X562610Y198120D03*
X537210Y198120D03*
X562610Y223520D03*
X537210Y223520D03*
X562610Y248920D03*
X537210Y248920D03*
X562610Y274320D03*
X537210Y274320D03*
X562610Y299720D03*
X537210Y299720D03*
X562610Y325120D03*
X537210Y325120D03*
X562610Y350520D03*
X537210Y350520D03*
X562610Y375920D03*
X537210Y375920D03*
D21*
X554990Y15240D03*
X1243330Y15240D03*
D23*
X736600Y660400D03*
X736600Y685800D03*
X762000Y660400D03*
X762000Y685800D03*
X787400Y660400D03*
X787400Y685800D03*
X812800Y660400D03*
X812800Y685800D03*
X838200Y660400D03*
X838200Y685800D03*
X863600Y660400D03*
X863600Y685800D03*
D24*
X905510Y669290D03*
X694690Y880110D03*
D27*
X1286710Y418440D03*
X1286710Y408940D03*
X1286710Y399440D03*
X1311710Y399440D03*
X1311710Y418440D03*
X1286710Y456540D03*
X1286710Y447040D03*
X1286710Y437540D03*
X1311710Y437540D03*
X1311710Y456540D03*
X1286710Y380340D03*
X1286710Y370840D03*
X1286710Y361340D03*
X1311710Y361340D03*
X1311710Y380340D03*
D28*
X2019300Y190500D03*
D29*
X2019300Y160528D03*
D30*
X2038858Y220472D03*
X2038858Y130556D03*
D31*
X1943100Y817000D03*
X1943100Y834000D03*
X1943100Y778900D03*
X1943100Y795900D03*
D28*
X1038860Y938530D03*
D29*
X1008888Y938530D03*
X978916Y938530D03*
X1038860Y968502D03*
X1008888Y968502D03*
X978916Y968502D03*
X1068832Y977900D03*
X948944Y977900D03*
D28*
X600710Y963930D03*
D29*
X570738Y963930D03*
D30*
X630682Y944372D03*
X540766Y944372D03*
D28*
X1983740Y815340D03*
D29*
X1983740Y845312D03*
X1983740Y875284D03*
X2013712Y815340D03*
X2013712Y845312D03*
X2013712Y875284D03*
X2023110Y785368D03*
X2023110Y905256D03*
D31*
X1943100Y664600D03*
X1943100Y681600D03*
X1943100Y626500D03*
X1943100Y643500D03*
D28*
X1983740Y659130D03*
D29*
X1983740Y689102D03*
X1983740Y719074D03*
X2013712Y659130D03*
X2013712Y689102D03*
X2013712Y719074D03*
X2023110Y629158D03*
X2023110Y749046D03*
D32*
X1918970Y621030D03*
D33*
X1918970Y600710D03*
D32*
X1808480Y621030D03*
D33*
X1808480Y600710D03*
D32*
X1638300Y621030D03*
D33*
X1638300Y600710D03*
D32*
X1466850Y621030D03*
D33*
X1466850Y600710D03*
D32*
X1296670Y621030D03*
D33*
X1296670Y600710D03*
D32*
X1126490Y621030D03*
D33*
X1126490Y600710D03*
D32*
X957580Y621030D03*
D33*
X957580Y600710D03*
D32*
X786130Y621030D03*
D33*
X786130Y600710D03*
D32*
X615950Y621030D03*
D33*
X615950Y600710D03*
D32*
X445770Y621030D03*
D33*
X445770Y600710D03*
D32*
X275590Y621030D03*
D33*
X275590Y600710D03*
D32*
X105410Y621030D03*
D33*
X105410Y600710D03*
D34*
X1756410Y621030D03*
D33*
X1756410Y641350D03*
D34*
X1584960Y621030D03*
D33*
X1584960Y641350D03*
D34*
X1413510Y621030D03*
D33*
X1413510Y641350D03*
D34*
X1243330Y621030D03*
D33*
X1243330Y641350D03*
D34*
X902970Y621030D03*
D33*
X902970Y641350D03*
D34*
X562610Y621030D03*
D33*
X562610Y641350D03*
D34*
X392430Y621030D03*
D33*
X392430Y641350D03*
D34*
X222250Y621030D03*
D33*
X222250Y641350D03*
D34*
X52070Y621030D03*
D33*
X52070Y641350D03*
D35*
X543560Y876300D03*
D33*
X523240Y876300D03*
D34*
X800100Y967740D03*
D33*
X800100Y988060D03*
D36*
X1170940Y762000D03*
D33*
X1191260Y762000D03*
D31*
X1268340Y457200D03*
X1251340Y457200D03*
X1350400Y457200D03*
X1367400Y457200D03*
X1268340Y419100D03*
X1251340Y419100D03*
X1350400Y419100D03*
X1367400Y419100D03*
X1268340Y381000D03*
X1251340Y381000D03*
X1350400Y381000D03*
X1367400Y381000D03*
D37*
G36*
X1082083Y48339D02*
X1087763Y54019D01*
X1094149Y47633D01*
X1088469Y41953D01*
X1082083Y48339D01*
G37*
G36*
X1075011Y41267D02*
X1080691Y46947D01*
X1087077Y40561D01*
X1081397Y34881D01*
X1075011Y41267D01*
G37*
G36*
X1056683Y48339D02*
X1062363Y54019D01*
X1068749Y47633D01*
X1063069Y41953D01*
X1056683Y48339D01*
G37*
G36*
X1049611Y41267D02*
X1055291Y46947D01*
X1061677Y40561D01*
X1055997Y34881D01*
X1049611Y41267D01*
G37*
G36*
X1031283Y48339D02*
X1036963Y54019D01*
X1043349Y47633D01*
X1037669Y41953D01*
X1031283Y48339D01*
G37*
G36*
X1024211Y41267D02*
X1029891Y46947D01*
X1036277Y40561D01*
X1030597Y34881D01*
X1024211Y41267D01*
G37*
G36*
X980483Y48339D02*
X986163Y54019D01*
X992549Y47633D01*
X986869Y41953D01*
X980483Y48339D01*
G37*
G36*
X973411Y41267D02*
X979091Y46947D01*
X985477Y40561D01*
X979797Y34881D01*
X973411Y41267D01*
G37*
G36*
X955083Y48339D02*
X960763Y54019D01*
X967149Y47633D01*
X961469Y41953D01*
X955083Y48339D01*
G37*
G36*
X948011Y41267D02*
X953691Y46947D01*
X960077Y40561D01*
X954397Y34881D01*
X948011Y41267D01*
G37*
G36*
X929683Y48339D02*
X935363Y54019D01*
X941749Y47633D01*
X936069Y41953D01*
X929683Y48339D01*
G37*
G36*
X922611Y41267D02*
X928291Y46947D01*
X934677Y40561D01*
X928997Y34881D01*
X922611Y41267D01*
G37*
G36*
X904283Y48339D02*
X909963Y54019D01*
X916349Y47633D01*
X910669Y41953D01*
X904283Y48339D01*
G37*
G36*
X897211Y41267D02*
X902891Y46947D01*
X909277Y40561D01*
X903597Y34881D01*
X897211Y41267D01*
G37*
G36*
X878883Y48339D02*
X884563Y54019D01*
X890949Y47633D01*
X885269Y41953D01*
X878883Y48339D01*
G37*
G36*
X871811Y41267D02*
X877491Y46947D01*
X883877Y40561D01*
X878197Y34881D01*
X871811Y41267D01*
G37*
G36*
X853483Y48339D02*
X859163Y54019D01*
X865549Y47633D01*
X859869Y41953D01*
X853483Y48339D01*
G37*
G36*
X846411Y41267D02*
X852091Y46947D01*
X858477Y40561D01*
X852797Y34881D01*
X846411Y41267D01*
G37*
G36*
X828083Y48339D02*
X833763Y54019D01*
X840149Y47633D01*
X834469Y41953D01*
X828083Y48339D01*
G37*
G36*
X821011Y41267D02*
X826691Y46947D01*
X833077Y40561D01*
X827397Y34881D01*
X821011Y41267D01*
G37*
G36*
X802683Y48339D02*
X808363Y54019D01*
X814749Y47633D01*
X809069Y41953D01*
X802683Y48339D01*
G37*
G36*
X795611Y41267D02*
X801291Y46947D01*
X807677Y40561D01*
X801997Y34881D01*
X795611Y41267D01*
G37*
G36*
X751883Y48339D02*
X757563Y54019D01*
X763949Y47633D01*
X758269Y41953D01*
X751883Y48339D01*
G37*
G36*
X744811Y41267D02*
X750491Y46947D01*
X756877Y40561D01*
X751197Y34881D01*
X744811Y41267D01*
G37*
G36*
X726483Y48339D02*
X732163Y54019D01*
X738549Y47633D01*
X732869Y41953D01*
X726483Y48339D01*
G37*
G36*
X719411Y41267D02*
X725091Y46947D01*
X731477Y40561D01*
X725797Y34881D01*
X719411Y41267D01*
G37*
G36*
X701083Y48339D02*
X706763Y54019D01*
X713149Y47633D01*
X707469Y41953D01*
X701083Y48339D01*
G37*
G36*
X694011Y41267D02*
X699691Y46947D01*
X706077Y40561D01*
X700397Y34881D01*
X694011Y41267D01*
G37*
G36*
X675683Y48339D02*
X681363Y54019D01*
X687749Y47633D01*
X682069Y41953D01*
X675683Y48339D01*
G37*
G36*
X668611Y41267D02*
X674291Y46947D01*
X680677Y40561D01*
X674997Y34881D01*
X668611Y41267D01*
G37*
D38*
X1601920Y838200D03*
X1601920Y850900D03*
X1601920Y863600D03*
X1601920Y876300D03*
X1601920Y889000D03*
X1601920Y901700D03*
X1601920Y914400D03*
X1547680Y914400D03*
X1547680Y901700D03*
X1547680Y889000D03*
X1547680Y876300D03*
X1547680Y863600D03*
X1547680Y850900D03*
X1547680Y838200D03*
D12*
X1606160Y933450D03*
X1589160Y933450D03*
D31*
X1619640Y838200D03*
X1636640Y838200D03*
X1529960Y838200D03*
X1512960Y838200D03*
X1529960Y876300D03*
X1512960Y876300D03*
D37*
G36*
X650283Y48339D02*
X655963Y54019D01*
X662349Y47633D01*
X656669Y41953D01*
X650283Y48339D01*
G37*
G36*
X643211Y41267D02*
X648891Y46947D01*
X655277Y40561D01*
X649597Y34881D01*
X643211Y41267D01*
G37*
G36*
X1010877Y40561D02*
X1005197Y34881D01*
X998811Y41267D01*
X1004491Y46947D01*
X1010877Y40561D01*
G37*
G36*
X1017949Y47633D02*
X1012269Y41953D01*
X1005883Y48339D01*
X1011563Y54019D01*
X1017949Y47633D01*
G37*
X699850Y471170D03*
X709850Y471170D03*
G36*
X754301Y473753D02*
X748621Y479433D01*
X755007Y485819D01*
X760687Y480139D01*
X754301Y473753D01*
G37*
G36*
X761373Y466681D02*
X755693Y472361D01*
X762079Y478747D01*
X767759Y473067D01*
X761373Y466681D01*
G37*
D39*
X805434Y481250D03*
X805434Y471250D03*
X834390Y481250D03*
X834390Y471250D03*
X863346Y481250D03*
X863346Y471250D03*
X892302Y481250D03*
X892302Y471250D03*
X995426Y481250D03*
X995426Y471250D03*
X1026414Y481250D03*
X1026414Y471250D03*
D37*
G36*
X1061001Y480139D02*
X1066681Y485819D01*
X1073067Y479433D01*
X1067387Y473753D01*
X1061001Y480139D01*
G37*
G36*
X1053929Y473067D02*
X1059609Y478747D01*
X1065995Y472361D01*
X1060315Y466681D01*
X1053929Y473067D01*
G37*
X1140380Y426720D03*
X1130380Y426720D03*
X735250Y474980D03*
X725250Y474980D03*
G36*
X786209Y478747D02*
X791889Y473067D01*
X785503Y466681D01*
X779823Y472361D01*
X786209Y478747D01*
G37*
G36*
X779137Y485819D02*
X784817Y480139D01*
X778431Y473753D01*
X772751Y479433D01*
X779137Y485819D01*
G37*
D39*
X819912Y471250D03*
X819912Y481250D03*
X848868Y471250D03*
X848868Y481250D03*
X877824Y471250D03*
X877824Y481250D03*
X908050Y471250D03*
X908050Y481250D03*
X1010920Y471250D03*
X1010920Y481250D03*
X1041908Y471250D03*
X1041908Y481250D03*
D37*
G36*
X1085807Y472361D02*
X1080127Y466681D01*
X1073741Y473067D01*
X1079421Y478747D01*
X1085807Y472361D01*
G37*
G36*
X1092879Y479433D02*
X1087199Y473753D01*
X1080813Y480139D01*
X1086493Y485819D01*
X1092879Y479433D01*
G37*
X1130380Y452120D03*
X1140380Y452120D03*
X609520Y452120D03*
X599520Y452120D03*
X599520Y439420D03*
X609520Y439420D03*
G36*
X727753Y406479D02*
X733433Y412159D01*
X739819Y405773D01*
X734139Y400093D01*
X727753Y406479D01*
G37*
G36*
X720681Y399407D02*
X726361Y405087D01*
X732747Y398701D01*
X727067Y393021D01*
X720681Y399407D01*
G37*
G36*
X687113Y406479D02*
X692793Y412159D01*
X699179Y405773D01*
X693499Y400093D01*
X687113Y406479D01*
G37*
G36*
X680041Y399407D02*
X685721Y405087D01*
X692107Y398701D01*
X686427Y393021D01*
X680041Y399407D01*
G37*
G36*
X748073Y406479D02*
X753753Y412159D01*
X760139Y405773D01*
X754459Y400093D01*
X748073Y406479D01*
G37*
G36*
X741001Y399407D02*
X746681Y405087D01*
X753067Y398701D01*
X747387Y393021D01*
X741001Y399407D01*
G37*
G36*
X712427Y398701D02*
X706747Y393021D01*
X700361Y399407D01*
X706041Y405087D01*
X712427Y398701D01*
G37*
G36*
X719499Y405773D02*
X713819Y400093D01*
X707433Y406479D01*
X713113Y412159D01*
X719499Y405773D01*
G37*
X657940Y407670D03*
X667940Y407670D03*
X609520Y426720D03*
X599520Y426720D03*
G36*
X1100625Y480139D02*
X1106305Y485819D01*
X1112691Y479433D01*
X1107011Y473753D01*
X1100625Y480139D01*
G37*
G36*
X1093553Y473067D02*
X1099233Y478747D01*
X1105619Y472361D01*
X1099939Y466681D01*
X1093553Y473067D01*
G37*
G36*
X1125431Y472361D02*
X1119751Y466681D01*
X1113365Y473067D01*
X1119045Y478747D01*
X1125431Y472361D01*
G37*
G36*
X1132503Y479433D02*
X1126823Y473753D01*
X1120437Y480139D01*
X1126117Y485819D01*
X1132503Y479433D01*
G37*
D39*
X948944Y481250D03*
X948944Y471250D03*
X933450Y471250D03*
X933450Y481250D03*
X964438Y471250D03*
X964438Y481250D03*
X979932Y481250D03*
X979932Y471250D03*
D40*
X533400Y838200D03*
X546100Y838200D03*
X558800Y838200D03*
X571500Y838200D03*
X584200Y838200D03*
X596900Y838200D03*
X609600Y838200D03*
X609600Y825500D03*
X596900Y825500D03*
X584200Y825500D03*
X571500Y825500D03*
X558800Y825500D03*
X546100Y825500D03*
X533400Y825500D03*
X533400Y812800D03*
X546100Y812800D03*
X558800Y812800D03*
X571500Y812800D03*
X584200Y812800D03*
X596900Y812800D03*
X609600Y812800D03*
X609600Y800100D03*
X596900Y800100D03*
X584200Y800100D03*
X571500Y800100D03*
X558800Y800100D03*
X546100Y800100D03*
X533400Y800100D03*
X533400Y787400D03*
X546100Y787400D03*
X558800Y787400D03*
X571500Y787400D03*
X584200Y787400D03*
X596900Y787400D03*
X609600Y787400D03*
X609600Y774700D03*
X596900Y774700D03*
X584200Y774700D03*
X571500Y774700D03*
X558800Y774700D03*
X546100Y774700D03*
X533400Y774700D03*
X533400Y762000D03*
X546100Y762000D03*
X546100Y749300D03*
X533400Y749300D03*
X533400Y736600D03*
X546100Y736600D03*
X1270000Y435610D03*
X1270000Y397510D03*
X1268730Y317500D03*
D41*
X560070Y661670D03*
X621030Y655320D03*
D40*
X1238250Y457200D03*
X1233170Y425450D03*
X1231900Y341630D03*
X1358900Y495300D03*
X1397000Y406400D03*
X1353820Y359410D03*
X1496060Y858520D03*
X1651000Y850900D03*
X1625600Y939800D03*
D42*
X1197610Y326390D03*
X1209040Y326390D03*
X1220470Y326390D03*
X1197610Y389890D03*
X1209040Y402590D03*
X1220470Y415290D03*
D43*
X1028700Y800100D03*
X1270000Y800100D03*
X1028700Y723900D03*
X1244600Y685800D03*
X1879600Y660400D03*
X647700Y665480D03*
D42*
X1568450Y842010D03*
X1612900Y800100D03*
D41*
X1868170Y624840D03*
X1990090Y588010D03*
X1905000Y635000D03*
X1696720Y626110D03*
X1527810Y624840D03*
X1356360Y624840D03*
X1219200Y635000D03*
X1016000Y624840D03*
X845820Y624840D03*
X675640Y624840D03*
X505460Y624840D03*
X335280Y624840D03*
X165100Y624840D03*
D40*
X1733550Y861060D03*
X1701800Y876300D03*
D44*
X1328420Y400050D03*
X1184910Y350520D03*
D40*
X101600Y312420D03*
X266700Y312420D03*
X440690Y312420D03*
X765810Y350520D03*
X933450Y350520D03*
X1111250Y350520D03*
X1159510Y350520D03*
X1436370Y508000D03*
X1612900Y508000D03*
X1778000Y508000D03*
X598170Y312420D03*
D44*
X1328420Y438150D03*
X1184910Y363220D03*
D40*
X78740Y337820D03*
X243840Y337820D03*
X415290Y337820D03*
X740410Y363220D03*
X908050Y363220D03*
X1085850Y363220D03*
X1146810Y363220D03*
X584200Y337820D03*
D44*
X1327150Y364490D03*
X1184910Y336550D03*
D40*
X123190Y287020D03*
X294640Y287020D03*
X466090Y287020D03*
X791210Y336550D03*
X961390Y336550D03*
X1137920Y336550D03*
X1172210Y336550D03*
X1460500Y495300D03*
X1638300Y495300D03*
X1803400Y495300D03*
X617220Y287020D03*
X336550Y25400D03*
X321310Y7620D03*
X328930Y16510D03*
X1224280Y958850D03*
X1189990Y958850D03*
X1205230Y958850D03*
M02*
