M48
;GenerationSoftware,Autodesk,EAGLE,9.6.2*%
;CreationDate,2022-01-31T19:10:02Z*%
FMAT,2
ICI,OFF
METRIC,TZ,000.000
T3C0.250
T2C1.016
T1C2.751
%
G90
M71
T1
X8467Y-3175
T2
X14980Y-140775
X2280Y-143315
X4820Y-143315
X7360Y-143315
X9900Y-143315
X12440Y-143315
X14980Y-143315
X2280Y-140775
X4820Y-140775
X7360Y-140775
X9900Y-140775
X12440Y-140775
T3
X6142Y-104049
X6180Y-120940
X6224Y-137622
X13460Y-6593
X8461Y-11276
X8461Y-12026
X8461Y-12776
X8461Y-13526
X8461Y-14276
X8461Y-15026
X9116Y-14651
X7786Y-14636
X7786Y-15386
X9116Y-15401
X7074Y-15042
X9835Y-15042
X13132Y-21301
X13187Y-38163
X13127Y-55136
X13655Y-40492
X13602Y-57411
X13144Y-72066
X13526Y-74352
X13181Y-89131
X13549Y-91286
X13201Y-105941
X13564Y-108213
X13186Y-122875
X13519Y-125146
X13594Y-23543
X8557Y-129819
X8557Y-130569
X8557Y-131319
X8557Y-132069
X8557Y-132819
X8557Y-133569
X9211Y-133194
X7881Y-133179
X7881Y-133929
X9211Y-133944
X7170Y-133584
X9930Y-133584
X8471Y-112845
X8471Y-113595
X8471Y-114345
X8471Y-115095
X8471Y-115845
X8471Y-116595
X9126Y-116220
X7796Y-116205
X7796Y-116955
X9126Y-116970
X7084Y-116610
X9845Y-116610
X8440Y-95909
X8440Y-96659
X8440Y-97409
X8440Y-98159
X8440Y-98909
X8440Y-99659
X9094Y-99284
X7764Y-99269
X7764Y-100019
X9094Y-100034
X7053Y-99675
X9813Y-99675
X8486Y-78950
X8486Y-79700
X8486Y-80450
X8486Y-81200
X8486Y-81950
X8486Y-82700
X9141Y-82325
X7811Y-82310
X7811Y-83060
X9141Y-83075
X7099Y-82716
X9859Y-82716
X8524Y-62046
X8524Y-62796
X8524Y-63546
X8524Y-64296
X8524Y-65046
X8524Y-65796
X9179Y-65421
X7849Y-65406
X7849Y-66156
X9179Y-66171
X7137Y-65811
X9897Y-65811
X8451Y-45147
X8451Y-45897
X8451Y-46647
X8451Y-47397
X8451Y-48147
X8451Y-48897
X9105Y-48522
X7775Y-48508
X7775Y-49258
X9105Y-49272
X7064Y-48913
X9824Y-48913
X8476Y-28166
X8476Y-28916
X8476Y-29666
X8476Y-30416
X8476Y-31166
X8476Y-31916
X9131Y-31541
X7801Y-31527
X7801Y-32277
X9131Y-32291
X7089Y-31932
X9850Y-31932
X12784Y-139434
X11740Y-20708
X11148Y-139216
X11919Y-122339
X11723Y-37635
X11721Y-54566
X11732Y-71510
X11722Y-88433
X11725Y-105370
X4203Y-37678
X4661Y-71880
X4793Y-105408
X2919Y-10360
X1315Y-7945
X2921Y-7324
X7958Y-9095
X6256Y-7574
X7651Y-7768
X10587Y-9503
X10411Y-7930
X10852Y-7167
X15618Y-10182
X14013Y-8036
X15609Y-8018
X3208Y-12110
X1316Y-12151
X2674Y-11082
X7739Y-10612
X5791Y-12178
X6912Y-10195
X11091Y-12188
X10686Y-11544
X10952Y-10304
X15613Y-14402
X14006Y-12284
X15613Y-12236
X3260Y-16244
X1320Y-16519
X2726Y-14513
X7415Y-16460
X5775Y-15184
X6717Y-16131
X10223Y-18755
X9998Y-16520
X9362Y-16116
X14867Y-16225
X14452Y-15578
X15620Y-16470
X3113Y-19859
X1324Y-19564
X2757Y-18729
X7075Y-19497
X5556Y-20724
X7296Y-20720
X11395Y-22924
X10593Y-21368
X9964Y-20628
X15651Y-22935
X14832Y-21800
X16359Y-17604
X2919Y-27293
X1315Y-24878
X2921Y-24257
X7958Y-26028
X6256Y-24508
X7651Y-24701
X10587Y-26436
X10411Y-24863
X10852Y-24101
X15618Y-27116
X14013Y-24969
X15609Y-24952
X3208Y-29044
X1316Y-29084
X2674Y-28015
X7739Y-27546
X5791Y-29112
X6912Y-27129
X11091Y-29121
X10686Y-28477
X10952Y-27237
X15613Y-31335
X14006Y-29217
X15613Y-29169
X3260Y-33177
X1320Y-33452
X2726Y-31446
X7415Y-33393
X5775Y-32117
X6717Y-33064
X10223Y-35688
X9998Y-33453
X9362Y-33049
X14867Y-33159
X14452Y-32512
X15620Y-33403
X3113Y-36792
X1324Y-36497
X2757Y-35663
X7075Y-36430
X5556Y-37658
X7296Y-37654
X11395Y-39857
X10593Y-38301
X9964Y-37561
X15651Y-39869
X14832Y-38734
X16359Y-34537
X2919Y-44226
X1315Y-41811
X2921Y-41190
X7958Y-42962
X6256Y-41441
X7651Y-41635
X10587Y-43369
X10411Y-41797
X10852Y-41034
X15618Y-44049
X14013Y-41903
X15609Y-41885
X3208Y-45977
X1316Y-46018
X2674Y-44948
X7739Y-44479
X5791Y-46045
X6912Y-44062
X11091Y-46054
X10686Y-45411
X10952Y-44171
X15613Y-48268
X14006Y-46150
X15613Y-46102
X3260Y-50111
X1320Y-50386
X2726Y-48380
X7415Y-50327
X5775Y-49051
X6717Y-49998
X10223Y-52621
X9998Y-50387
X9362Y-49983
X14867Y-50092
X14452Y-49445
X15620Y-50337
X3113Y-53726
X1324Y-53430
X2757Y-52596
X7075Y-53364
X5556Y-54591
X7296Y-54587
X11395Y-56790
X10593Y-55234
X9964Y-54494
X15651Y-56802
X14832Y-55667
X16359Y-51470
X2919Y-61160
X1315Y-58745
X2921Y-58124
X7958Y-59895
X6256Y-58374
X7651Y-58568
X10587Y-60303
X10411Y-58730
X10852Y-57967
X15618Y-60982
X14013Y-58836
X15609Y-58818
X3208Y-62910
X1316Y-62951
X2674Y-61882
X7739Y-61412
X5791Y-62978
X6912Y-60995
X11091Y-62988
X10686Y-62344
X10952Y-61104
X15613Y-65202
X14006Y-63084
X15613Y-63036
X3260Y-67044
X1320Y-67319
X2726Y-65313
X7415Y-67260
X5775Y-65984
X6717Y-66931
X10223Y-69555
X9998Y-67320
X9362Y-66916
X14867Y-67025
X14452Y-66378
X15620Y-67270
X3113Y-70659
X1324Y-70364
X2757Y-69529
X7075Y-70297
X5556Y-71524
X7296Y-71520
X11395Y-73724
X10593Y-72168
X9964Y-71428
X15651Y-73735
X14832Y-72600
X16359Y-68404
X2919Y-78093
X1315Y-75678
X2921Y-75057
X7958Y-76828
X6256Y-75308
X7651Y-75501
X10587Y-77236
X10411Y-75663
X10852Y-74901
X15618Y-77916
X14013Y-75769
X15609Y-75752
X3208Y-79844
X1316Y-79884
X2674Y-78815
X7739Y-78346
X5791Y-79912
X6912Y-77929
X11091Y-79921
X10686Y-79277
X10952Y-78037
X15613Y-82135
X14006Y-80017
X15613Y-79969
X3260Y-83977
X1320Y-84252
X2726Y-82246
X7415Y-84193
X5775Y-82917
X6717Y-83864
X10223Y-86488
X9998Y-84253
X9362Y-83849
X14867Y-83959
X14452Y-83312
X15620Y-84203
X3113Y-87592
X1324Y-87297
X2757Y-86463
X7075Y-87230
X5556Y-88458
X7296Y-88454
X11395Y-90657
X10593Y-89101
X9964Y-88361
X15651Y-90669
X14832Y-89534
X16359Y-85337
X2919Y-95026
X1315Y-92611
X2921Y-91990
X7958Y-93762
X6256Y-92241
X7651Y-92435
X10587Y-94169
X10411Y-92597
X10852Y-91834
X15618Y-94849
X14013Y-92703
X15609Y-92685
X3208Y-96777
X1316Y-96818
X2674Y-95748
X7739Y-95279
X5791Y-96845
X6912Y-94862
X11091Y-96854
X10686Y-96211
X10952Y-94971
X15613Y-99068
X14006Y-96950
X15613Y-96902
X3260Y-100911
X1320Y-101186
X2726Y-99180
X7415Y-101127
X5775Y-99851
X6717Y-100798
X10223Y-103421
X9998Y-101187
X9362Y-100783
X14867Y-100892
X14452Y-100245
X15620Y-101137
X3113Y-104526
X1324Y-104230
X2757Y-103396
X7075Y-104164
X5556Y-105391
X7296Y-105387
X11395Y-107590
X10593Y-106034
X9964Y-105294
X15651Y-107602
X14832Y-106467
X16359Y-102270
X2919Y-111960
X1315Y-109545
X2921Y-108924
X7958Y-110695
X6256Y-109174
X7651Y-109368
X10587Y-111103
X10411Y-109530
X10852Y-108767
X15618Y-111782
X14013Y-109636
X15609Y-109618
X3208Y-113710
X1316Y-113751
X2674Y-112682
X7739Y-112212
X5791Y-113778
X6912Y-111795
X11091Y-113788
X10686Y-113144
X10952Y-111904
X15613Y-116002
X14006Y-113884
X15613Y-113836
X3260Y-117844
X1320Y-118119
X2726Y-116113
X7415Y-118060
X5775Y-116784
X6717Y-117731
X10223Y-120355
X9998Y-118120
X9362Y-117716
X14867Y-117825
X14452Y-117178
X15620Y-118070
X3113Y-121459
X1324Y-121164
X2757Y-120329
X7075Y-121097
X2106Y-20541
X7296Y-122320
X11395Y-124524
X10593Y-122968
X9964Y-122228
X15651Y-124535
X14832Y-123400
X16359Y-119204
X2919Y-128893
X1315Y-126478
X2921Y-125857
X7958Y-127628
X6256Y-126108
X7651Y-126301
X10587Y-128036
X10411Y-126463
X10852Y-125701
X15618Y-128716
X14013Y-126569
X15609Y-126552
X3208Y-130644
X1316Y-130684
X2674Y-129615
X7739Y-129146
X5791Y-130712
X6912Y-128729
X11091Y-130721
X10686Y-130077
X10952Y-128837
X15613Y-132935
X14006Y-130817
X15613Y-130769
X1316Y-10185
X5815Y-10240
X10086Y-10302
X1339Y-14440
X1330Y-18777
X5794Y-18635
X9850Y-19431
X9803Y-22921
X5554Y-22884
X1343Y-22884
X14812Y-22892
X14035Y-14463
X14004Y-10227
X13589Y-16388
X1316Y-27119
X5815Y-27173
X10086Y-27235
X1339Y-31374
X1330Y-35710
X5794Y-35568
X9850Y-36364
X9803Y-39854
X5554Y-39818
X1343Y-39818
X14812Y-39825
X14035Y-31396
X14004Y-27160
X13589Y-33322
X1316Y-44052
X5815Y-44106
X10086Y-44169
X1339Y-48307
X1330Y-52643
X5794Y-52502
X9850Y-53298
X9803Y-56788
X5554Y-56751
X1343Y-56751
X14812Y-56758
X14035Y-48330
X14004Y-44093
X13589Y-50255
X1316Y-60985
X5815Y-61040
X10086Y-61102
X1339Y-65240
X5556Y-122324
X5794Y-69435
X9850Y-70231
X9803Y-73721
X5554Y-73684
X1343Y-73684
X14812Y-73692
X14035Y-65263
X14004Y-61027
X13589Y-67188
X1316Y-77919
X5815Y-77973
X10086Y-78035
X1339Y-82174
X1330Y-86510
X5794Y-86368
X9850Y-87164
X9803Y-90654
X5554Y-90618
X1343Y-90618
X14812Y-90625
X14035Y-82196
X14004Y-77960
X13589Y-84122
X1316Y-94852
X5815Y-94906
X10086Y-94969
X1339Y-99107
X1330Y-103443
X5794Y-103302
X9850Y-104098
X9803Y-107588
X5554Y-107551
X1343Y-107551
X14812Y-107558
X14035Y-99130
X14004Y-94893
X13589Y-101055
X1316Y-111785
X5815Y-111840
X10086Y-111902
X1339Y-116040
X1330Y-120377
X5794Y-120235
X9850Y-121031
X9803Y-124521
X5554Y-124484
X1343Y-124484
X14812Y-124492
X14035Y-116063
X14004Y-111827
X13589Y-117988
X1316Y-128719
X5815Y-128773
X10086Y-128835
X1339Y-132974
X14035Y-132996
X14004Y-128760
X15779Y-19442
X15779Y-36375
X15779Y-53308
X15779Y-70242
X15779Y-87175
X15779Y-104108
X15779Y-121042
X15779Y-137975
X2100Y-37431
X2100Y-54319
X2100Y-71232
X2100Y-88135
X2100Y-105093
X2100Y-122039
X2100Y-138143
X6319Y-19617
X6313Y-36473
X6537Y-52691
X6161Y-70432
X6174Y-87228
X1330Y-69577
M30