G04 EAGLE Gerber RS-274X export*
G75*
%MOMM*%
%FSLAX34Y34*%
%LPD*%
%INSoldermask Bottom*%
%IPPOS*%
%AMOC8*
5,1,8,0,0,1.08239X$1,22.5*%
G01*
%ADD10C,2.954019*%
%ADD11R,0.503200X1.678200*%
%ADD12R,4.903200X3.813200*%
%ADD13P,1.869504X8X22.500000*%
%ADD14R,1.203200X1.303200*%
%ADD15R,1.503200X1.703200*%
%ADD16C,0.603200*%
%ADD17C,1.353200*%
%ADD18C,0.753200*%


D10*
X83820Y-31750D03*
X253153Y-31750D03*
X422487Y-31750D03*
D11*
X185653Y-317120D03*
X190653Y-317120D03*
X195653Y-317120D03*
X200653Y-317120D03*
X205653Y-317120D03*
X210653Y-317120D03*
X215653Y-317120D03*
X220653Y-317120D03*
X225653Y-317120D03*
X230653Y-317120D03*
X235653Y-317120D03*
X240653Y-317120D03*
X245653Y-317120D03*
X250653Y-317120D03*
X255653Y-317120D03*
X260653Y-317120D03*
X265653Y-317120D03*
X270653Y-317120D03*
X275653Y-317120D03*
X280653Y-317120D03*
X285653Y-317120D03*
X290653Y-317120D03*
X295653Y-317120D03*
X300653Y-317120D03*
X305653Y-317120D03*
X310653Y-317120D03*
X315653Y-317120D03*
X320653Y-317120D03*
X320653Y-392880D03*
X315653Y-392880D03*
X310653Y-392880D03*
X305653Y-392880D03*
X300653Y-392880D03*
X295653Y-392880D03*
X290653Y-392880D03*
X285653Y-392880D03*
X280653Y-392880D03*
X275653Y-392880D03*
X270653Y-392880D03*
X265653Y-392880D03*
X260653Y-392880D03*
X255653Y-392880D03*
X250653Y-392880D03*
X245653Y-392880D03*
X240653Y-392880D03*
X235653Y-392880D03*
X230653Y-392880D03*
X225653Y-392880D03*
X220653Y-392880D03*
X215653Y-392880D03*
X210653Y-392880D03*
X205653Y-392880D03*
X200653Y-392880D03*
X195653Y-392880D03*
X190653Y-392880D03*
X185653Y-392880D03*
D12*
X253153Y-355000D03*
D11*
X185653Y-827620D03*
X190653Y-827620D03*
X195653Y-827620D03*
X200653Y-827620D03*
X205653Y-827620D03*
X210653Y-827620D03*
X215653Y-827620D03*
X220653Y-827620D03*
X225653Y-827620D03*
X230653Y-827620D03*
X235653Y-827620D03*
X240653Y-827620D03*
X245653Y-827620D03*
X250653Y-827620D03*
X255653Y-827620D03*
X260653Y-827620D03*
X265653Y-827620D03*
X270653Y-827620D03*
X275653Y-827620D03*
X280653Y-827620D03*
X285653Y-827620D03*
X290653Y-827620D03*
X295653Y-827620D03*
X300653Y-827620D03*
X305653Y-827620D03*
X310653Y-827620D03*
X315653Y-827620D03*
X320653Y-827620D03*
X320653Y-903380D03*
X315653Y-903380D03*
X310653Y-903380D03*
X305653Y-903380D03*
X300653Y-903380D03*
X295653Y-903380D03*
X290653Y-903380D03*
X285653Y-903380D03*
X280653Y-903380D03*
X275653Y-903380D03*
X270653Y-903380D03*
X265653Y-903380D03*
X260653Y-903380D03*
X255653Y-903380D03*
X250653Y-903380D03*
X245653Y-903380D03*
X240653Y-903380D03*
X235653Y-903380D03*
X230653Y-903380D03*
X225653Y-903380D03*
X220653Y-903380D03*
X215653Y-903380D03*
X210653Y-903380D03*
X205653Y-903380D03*
X200653Y-903380D03*
X195653Y-903380D03*
X190653Y-903380D03*
X185653Y-903380D03*
D12*
X253153Y-865500D03*
D11*
X185653Y-1208953D03*
X190653Y-1208953D03*
X195653Y-1208953D03*
X200653Y-1208953D03*
X205653Y-1208953D03*
X210653Y-1208953D03*
X215653Y-1208953D03*
X220653Y-1208953D03*
X225653Y-1208953D03*
X230653Y-1208953D03*
X235653Y-1208953D03*
X240653Y-1208953D03*
X245653Y-1208953D03*
X250653Y-1208953D03*
X255653Y-1208953D03*
X260653Y-1208953D03*
X265653Y-1208953D03*
X270653Y-1208953D03*
X275653Y-1208953D03*
X280653Y-1208953D03*
X285653Y-1208953D03*
X290653Y-1208953D03*
X295653Y-1208953D03*
X300653Y-1208953D03*
X305653Y-1208953D03*
X310653Y-1208953D03*
X315653Y-1208953D03*
X320653Y-1208953D03*
X320653Y-1284713D03*
X315653Y-1284713D03*
X310653Y-1284713D03*
X305653Y-1284713D03*
X300653Y-1284713D03*
X295653Y-1284713D03*
X290653Y-1284713D03*
X285653Y-1284713D03*
X280653Y-1284713D03*
X275653Y-1284713D03*
X270653Y-1284713D03*
X265653Y-1284713D03*
X260653Y-1284713D03*
X255653Y-1284713D03*
X250653Y-1284713D03*
X245653Y-1284713D03*
X240653Y-1284713D03*
X235653Y-1284713D03*
X230653Y-1284713D03*
X225653Y-1284713D03*
X220653Y-1284713D03*
X215653Y-1284713D03*
X210653Y-1284713D03*
X205653Y-1284713D03*
X200653Y-1284713D03*
X195653Y-1284713D03*
X190653Y-1284713D03*
X185653Y-1284713D03*
D12*
X253153Y-1246833D03*
D13*
X21167Y-1437700D03*
X46567Y-1437700D03*
X71967Y-1437700D03*
X97367Y-1437700D03*
X122767Y-1437700D03*
X148167Y-1437700D03*
X21167Y-1412300D03*
X46567Y-1412300D03*
X71967Y-1412300D03*
X97367Y-1412300D03*
X122767Y-1412300D03*
X148167Y-1412300D03*
D14*
X210333Y-921006D03*
X210333Y-938006D03*
X230333Y-1302500D03*
X230333Y-1319500D03*
D15*
X95500Y-1379000D03*
X114500Y-1379000D03*
D14*
X210333Y-410500D03*
X210333Y-427500D03*
D13*
X190500Y-1437700D03*
X215900Y-1437700D03*
X241300Y-1437700D03*
X266700Y-1437700D03*
X292100Y-1437700D03*
X317500Y-1437700D03*
X190500Y-1412300D03*
X215900Y-1412300D03*
X241300Y-1412300D03*
X266700Y-1412300D03*
X292100Y-1412300D03*
X317500Y-1412300D03*
X359833Y-1437700D03*
X385233Y-1437700D03*
X410633Y-1437700D03*
X436033Y-1437700D03*
X461433Y-1437700D03*
X486833Y-1437700D03*
X359833Y-1412300D03*
X385233Y-1412300D03*
X410633Y-1412300D03*
X436033Y-1412300D03*
X461433Y-1412300D03*
X486833Y-1412300D03*
D15*
X293692Y-1386044D03*
X312692Y-1386044D03*
X466109Y-1381080D03*
X485109Y-1381080D03*
D16*
X210333Y-410500D03*
X210333Y-921006D03*
X230333Y-1302500D03*
D17*
X95500Y-1379000D03*
X293692Y-1386044D03*
X466109Y-1381080D03*
D18*
X330000Y-1150000D03*
X385000Y-262000D03*
X380000Y-770000D03*
X380000Y-1150000D03*
D16*
X150000Y-275000D03*
X160000Y-305000D03*
X202500Y-330000D03*
X129000Y-270500D03*
X147500Y-300000D03*
X220000Y-305000D03*
X160000Y-255000D03*
X180000Y-310000D03*
X210000Y-330000D03*
X85000Y-310000D03*
X167500Y-305000D03*
X210000Y-305000D03*
X197500Y-350000D03*
X232500Y-297500D03*
X227500Y-330000D03*
X235000Y-305000D03*
X240000Y-297500D03*
X207500Y-295000D03*
X247500Y-330000D03*
X215000Y-287500D03*
X312500Y-255000D03*
X300000Y-262500D03*
X317500Y-265000D03*
X137500Y-422500D03*
X173000Y-371000D03*
X197500Y-371000D03*
X205900Y-379100D03*
X203000Y-364500D03*
X221500Y-440500D03*
X220000Y-360500D03*
X225000Y-375000D03*
X226500Y-423000D03*
X232500Y-380000D03*
X232500Y-412000D03*
X245000Y-507500D03*
X255000Y-380000D03*
X252500Y-405000D03*
X287500Y-432500D03*
X270000Y-405000D03*
X275000Y-380000D03*
X317500Y-550000D03*
X310000Y-437500D03*
X335000Y-385000D03*
X447500Y-430000D03*
X337500Y-415000D03*
X305000Y-380000D03*
X447500Y-557500D03*
X290000Y-410000D03*
X307500Y-405000D03*
X350000Y-420000D03*
X362500Y-420000D03*
X317500Y-295000D03*
X300000Y-287500D03*
X317500Y-287500D03*
X452500Y-210000D03*
X297500Y-305000D03*
X462500Y-162500D03*
X305000Y-305000D03*
X312500Y-305000D03*
X316000Y-328500D03*
X202500Y-815000D03*
X204500Y-846000D03*
X210000Y-815000D03*
X227500Y-812500D03*
X217500Y-840000D03*
X221100Y-815600D03*
X235000Y-815000D03*
X237500Y-840000D03*
X245000Y-840000D03*
X212500Y-805000D03*
X240000Y-802500D03*
X227500Y-797500D03*
X300000Y-762500D03*
X295000Y-775000D03*
X297500Y-782500D03*
X197500Y-890000D03*
X186000Y-881500D03*
X207500Y-885000D03*
X194500Y-862500D03*
X219500Y-935500D03*
X176511Y-969563D03*
X233500Y-929000D03*
X230000Y-890000D03*
X237500Y-915000D03*
X245718Y-946958D03*
X250784Y-922631D03*
X256000Y-936500D03*
X263000Y-924000D03*
X267500Y-915000D03*
X292500Y-890000D03*
X317500Y-1057500D03*
X307500Y-947500D03*
X325000Y-957500D03*
X359000Y-956000D03*
X336000Y-931500D03*
X301000Y-889000D03*
X311000Y-882000D03*
X435000Y-1015000D03*
X452500Y-1022500D03*
X275800Y-814300D03*
X297500Y-795000D03*
X292500Y-807500D03*
X312500Y-770000D03*
X418000Y-677500D03*
X320000Y-772500D03*
X307500Y-840000D03*
X349000Y-797000D03*
X315000Y-785000D03*
X202500Y-1222500D03*
X210000Y-1222500D03*
X207500Y-1197500D03*
X207500Y-1237500D03*
X217500Y-1197500D03*
X200000Y-1237500D03*
X220000Y-1185000D03*
X235000Y-1195000D03*
X227500Y-1177500D03*
X219000Y-1240500D03*
X255000Y-1190000D03*
X255600Y-1197400D03*
X315000Y-1162500D03*
X300000Y-1177500D03*
X265000Y-1220000D03*
X287500Y-1190000D03*
X280000Y-1197500D03*
X287500Y-1197500D03*
X442500Y-1202500D03*
X300000Y-1195000D03*
X384500Y-1173000D03*
X270000Y-1197500D03*
X292500Y-1172500D03*
X372500Y-1222500D03*
D18*
X335000Y-262000D03*
X330000Y-770000D03*
X120000Y-351000D03*
X224653Y-263053D03*
X284000Y-262500D03*
X149000Y-909000D03*
X220000Y-770000D03*
X280000Y-770000D03*
X190647Y-1264087D03*
X280000Y-1150000D03*
X220000Y-1150000D03*
X174533Y-262933D03*
X170000Y-770000D03*
X170000Y-1150000D03*
M02*
