M48
;GenerationSoftware,Autodesk,EAGLE,9.5.2*%
;CreationDate,2022-01-14T19:20:19Z*%
FMAT,2
ICI,OFF
METRIC,TZ,000.000
T4C0.200
T3C0.400
T2C1.016
T1C2.751
%
G90
M71
T1
X8467Y-3175
T2
X14817Y-141230
X2117Y-143770
X4657Y-143770
X7197Y-143770
X9737Y-143770
X12277Y-143770
X14817Y-143770
X2117Y-141230
X4657Y-141230
X7197Y-141230
X9737Y-141230
X12277Y-141230
T3
X12550Y-138800
T4
X2088Y-120510
X2069Y-136900
X1869Y-69600
X2283Y-11000
X2383Y-27800
X2348Y-44658
X2336Y-61569
X2336Y-78569
X2483Y-95800
X2483Y-112800
X2605Y-129700
X3000Y-11300
X3000Y-28200
X2999Y-45000
X2999Y-61900
X2999Y-78900
X3299Y-95936
X3299Y-112769
X3200Y-130100
X3700Y-10652
X3500Y-7800
X4051Y-8260
X5020Y-11642
X3700Y-13600
X5194Y-10664
X3600Y-14300
X5700Y-11200
X3700Y-12900
X6281Y-10710
X5900Y-8000
X7100Y-8000
X7706Y-10706
X5400Y-14404
X7800Y-8000
X5700Y-12000
X9000Y-10753
X9700Y-7971
X11837Y-8001
X10400Y-8000
X11127Y-7990
X3900Y-19000
X3700Y-16000
X3871Y-18300
X4692Y-18302
X3638Y-22688
X4700Y-19010
X3600Y-20800
X5520Y-19040
X3650Y-21650
X6648Y-18748
X5600Y-15947
X7266Y-16034
X7700Y-19237
X8000Y-22200
X8190Y-18630
X6350Y-21660
X9800Y-19352
X7996Y-21350
X9800Y-18636
X9700Y-16000
X10600Y-15947
X10732Y-18889
X10600Y-21800
X11260Y-19370
X10600Y-20900
X11810Y-18910
X11500Y-20700
X13950Y-15340
X13320Y-18580
X14700Y-15900
X14110Y-18657
X14800Y-21800
X14200Y-19441
X14200Y-20700
X15313Y-18637
X15300Y-20500
X10050Y-10800
X11400Y-14500
X10991Y-10836
X11271Y-12196
X11700Y-10840
X12000Y-12200
X12380Y-10650
X15354Y-10654
X13895Y-7995
X15160Y-8031
X13900Y-11576
X15000Y-12300
X14610Y-11576
X15350Y-11580
X3700Y-27585
X3500Y-24733
X4051Y-25193
X5020Y-28575
X3700Y-30533
X5194Y-27597
X3600Y-31233
X5700Y-28133
X3700Y-29833
X6281Y-27643
X5900Y-24933
X7100Y-24933
X7706Y-27640
X5400Y-31337
X7800Y-24933
X5700Y-28933
X9000Y-27687
X9700Y-24904
X11837Y-24934
X10400Y-24933
X11127Y-24923
X3900Y-35933
X3700Y-32933
X3871Y-35233
X4692Y-35235
X3638Y-39621
X4700Y-35943
X3682Y-37828
X5520Y-35973
X3650Y-38583
X6648Y-35681
X5600Y-32880
X7266Y-32967
X7700Y-36171
X8000Y-39133
X8190Y-35563
X6350Y-38593
X9800Y-36286
X7996Y-38283
X9800Y-35569
X9700Y-32933
X10600Y-32880
X10732Y-35823
X10600Y-38733
X11260Y-36303
X10600Y-37833
X11810Y-35843
X11500Y-37633
X13950Y-32273
X13320Y-35513
X14700Y-32833
X14110Y-35591
X14800Y-38733
X14200Y-36375
X14200Y-37633
X15313Y-35571
X15300Y-37433
X10050Y-27733
X11400Y-31433
X10991Y-27769
X11271Y-29129
X11700Y-27773
X12000Y-29133
X12380Y-27583
X15354Y-27587
X13895Y-24928
X15160Y-24964
X13900Y-28509
X15000Y-29233
X14610Y-28509
X15350Y-28513
X3700Y-44519
X3500Y-41667
X4051Y-42127
X5020Y-45509
X3700Y-47467
X5194Y-44531
X3600Y-48167
X5700Y-45067
X3700Y-46767
X6281Y-44577
X5900Y-41867
X7100Y-41867
X7706Y-44573
X5400Y-48271
X7800Y-41867
X5700Y-45867
X9000Y-44620
X9700Y-41837
X11837Y-41867
X10400Y-41867
X11127Y-41857
X3900Y-52867
X3700Y-49867
X3871Y-52167
X4692Y-52168
X3638Y-56554
X4700Y-52877
X3700Y-54767
X5520Y-52907
X3650Y-55517
X6648Y-52614
X5600Y-49813
X7266Y-49900
X7700Y-53104
X8000Y-56067
X8190Y-52497
X6350Y-55527
X9800Y-53219
X7996Y-55217
X9800Y-52502
X9700Y-49867
X10600Y-49813
X10732Y-52756
X10600Y-55667
X11260Y-53237
X10600Y-54767
X11810Y-52777
X11500Y-54567
X13950Y-49207
X13320Y-52447
X14700Y-49767
X14110Y-52524
X14800Y-55667
X14200Y-53308
X14200Y-54567
X15313Y-52504
X15300Y-54367
X10050Y-44667
X11400Y-48367
X10991Y-44702
X11271Y-46063
X11700Y-44707
X12000Y-46067
X12380Y-44517
X15354Y-44521
X13895Y-41861
X15160Y-41897
X13900Y-45443
X15000Y-46167
X14610Y-45443
X15350Y-45447
X3700Y-61452
X3500Y-58600
X4051Y-59060
X5020Y-62442
X3700Y-64400
X5194Y-61464
X3600Y-65100
X5700Y-62000
X3700Y-63700
X6281Y-61510
X5900Y-58800
X7100Y-58800
X7706Y-61506
X5400Y-65204
X7800Y-58800
X5700Y-62800
X9000Y-61553
X9700Y-58771
X11837Y-58801
X10400Y-58800
X11127Y-58790
X3900Y-69800
X3700Y-66800
X3871Y-69100
X4692Y-69102
X3638Y-73488
X4700Y-69810
X3700Y-71700
X5520Y-69840
X3650Y-72450
X6648Y-69548
X5600Y-66747
X7266Y-66834
X7700Y-70037
X8000Y-73000
X8190Y-69430
X6350Y-72560
X9800Y-70152
X7996Y-72150
X9800Y-69436
X9700Y-66800
X10600Y-66747
X10732Y-69689
X10600Y-72600
X11260Y-70170
X10600Y-71700
X11810Y-69710
X11500Y-71500
X13950Y-66140
X13320Y-69380
X14700Y-66700
X14110Y-69457
X14800Y-72600
X14200Y-70241
X14200Y-71500
X15313Y-69437
X15300Y-71300
X10050Y-61600
X11400Y-65300
X10991Y-61636
X11271Y-62996
X11700Y-61640
X12000Y-63000
X12380Y-61450
X15354Y-61454
X13895Y-58795
X15160Y-58831
X13900Y-62376
X15000Y-63100
X14610Y-62376
X15350Y-62380
X3700Y-78385
X3500Y-75533
X4051Y-75993
X5020Y-79375
X3700Y-81333
X5194Y-78397
X3600Y-82033
X5700Y-78933
X3700Y-80633
X6281Y-78443
X5900Y-75733
X7100Y-75733
X7706Y-78440
X5400Y-82137
X7800Y-75733
X5700Y-79733
X9000Y-78487
X9700Y-75704
X11837Y-75734
X10400Y-75733
X11127Y-75723
X3900Y-86733
X3700Y-83733
X3871Y-86033
X4692Y-86035
X3638Y-90421
X4700Y-86743
X3700Y-88633
X5520Y-86773
X3750Y-89383
X6648Y-86481
X5600Y-83680
X7266Y-83767
X7700Y-86971
X8000Y-89933
X8190Y-86363
X6350Y-89393
X9800Y-87086
X7996Y-89083
X9800Y-86369
X9700Y-83733
X10600Y-83680
X10732Y-86623
X10600Y-89533
X11260Y-87103
X10600Y-88633
X11810Y-86643
X11500Y-88433
X13950Y-83073
X13320Y-86313
X14700Y-83633
X14110Y-86391
X14800Y-89533
X14200Y-87175
X14200Y-88433
X15313Y-86371
X15300Y-88233
X10050Y-78533
X11400Y-82233
X10991Y-78569
X11271Y-79929
X11700Y-78573
X12000Y-79933
X12380Y-78383
X15354Y-78387
X13895Y-75728
X15160Y-75764
X13900Y-79309
X15000Y-80033
X14610Y-79309
X15350Y-79313
X3700Y-95319
X3500Y-92467
X4051Y-92927
X5020Y-96309
X3700Y-98267
X5194Y-95331
X3600Y-98967
X5700Y-95867
X3700Y-97567
X6281Y-95377
X5900Y-92667
X7100Y-92667
X7706Y-95373
X5400Y-99071
X7800Y-92667
X5700Y-96667
X9000Y-95420
X9700Y-92637
X11837Y-92667
X10400Y-92667
X11127Y-92657
X3900Y-103667
X3700Y-100667
X3871Y-102967
X4692Y-102968
X3638Y-107354
X4700Y-103677
X3700Y-105567
X5520Y-103707
X3650Y-106317
X6648Y-103414
X5600Y-100613
X7266Y-100700
X7700Y-103904
X8000Y-106867
X8190Y-103297
X6350Y-106527
X9800Y-104019
X7996Y-106017
X9800Y-103302
X9700Y-100667
X10600Y-100613
X10732Y-103556
X10600Y-106467
X11260Y-104037
X10600Y-105567
X11810Y-103577
X11500Y-105367
X13950Y-100007
X13320Y-103247
X14700Y-100567
X3836Y-104500
X14800Y-106467
X14200Y-104108
X14200Y-105367
X15313Y-103304
X15300Y-105167
X10050Y-95467
X11400Y-99167
X10991Y-95502
X11271Y-96863
X11700Y-95507
X12000Y-96867
X12380Y-95317
X15354Y-95321
X13895Y-92661
X15160Y-92697
X13900Y-96243
X15000Y-96967
X14610Y-96243
X15350Y-96247
X3800Y-112252
X3500Y-109400
X4051Y-109860
X5020Y-113242
X3700Y-115200
X5194Y-112264
X3600Y-115900
X5700Y-112800
X3700Y-114500
X6281Y-112310
X5900Y-109600
X7100Y-109600
X7706Y-112306
X5400Y-116004
X7800Y-109600
X5700Y-113600
X9000Y-112353
X9700Y-109571
X11837Y-109601
X10400Y-109600
X11127Y-109590
X3900Y-120600
X3700Y-117600
X3871Y-119900
X4692Y-119902
X3638Y-124388
X4700Y-120610
X3800Y-122500
X5520Y-120640
X3750Y-123350
X6648Y-120348
X5600Y-117547
X7266Y-117634
X7700Y-120837
X8000Y-123800
X8190Y-120230
X6350Y-123360
X9800Y-120952
X7996Y-122950
X9800Y-120236
X9700Y-117600
X10600Y-117547
X10732Y-120489
X10600Y-123400
X11260Y-120970
X10600Y-122500
X11810Y-120510
X11500Y-122300
X13950Y-116940
X13320Y-120180
X14700Y-117500
X14110Y-120257
X14800Y-123400
X14110Y-103324
X14200Y-122300
X15313Y-120237
X15300Y-122100
X10050Y-112400
X11400Y-116100
X10991Y-112436
X11271Y-113796
X11700Y-112440
X12000Y-113800
X12380Y-112250
X15354Y-112254
X13895Y-109595
X15160Y-109631
X13900Y-113176
X15000Y-113900
X14610Y-113176
X15350Y-113180
X3936Y-129200
X3700Y-126800
X3700Y-126000
X4700Y-129300
X3800Y-132300
X4000Y-130000
X4066Y-130866
X6700Y-129200
X6700Y-126500
X7400Y-126500
X7400Y-129200
X5764Y-133200
X8200Y-129200
X4600Y-132300
X9800Y-129200
X5264Y-130768
X9299Y-126500
X10100Y-126500
X11217Y-126500
X10500Y-129200
X11400Y-133100
X11300Y-129200
X11300Y-130700
X12100Y-129200
X12100Y-130700
X12200Y-126800
X15500Y-129200
X13800Y-126300
X15400Y-126300
X13700Y-129200
X15300Y-133000
X14200Y-129700
X14200Y-130800
X15000Y-129817
X15600Y-130800
X700Y-10500
X1300Y-27600
X1351Y-61700
X1351Y-44600
X1400Y-95800
X1400Y-78400
X1500Y-112500
X1515Y-129150
X3836Y-121500
X3761Y-36952
X3817Y-53800
X3817Y-70700
X3817Y-87700
X3917Y-19900
X5300Y-137600
X1900Y-18700
X1869Y-35800
X1869Y-52700
X1969Y-103400
X1969Y-86400
X14200Y-121041
M30