G04 EAGLE Gerber RS-274X export*
G75*
%MOMM*%
%FSLAX34Y34*%
%LPD*%
%INTop Copper*%
%IPPOS*%
%AMOC8*
5,1,8,0,0,1.08239X$1,22.5*%
G01*
%ADD10R,1.000000X1.100000*%
%ADD11R,0.800000X1.500000*%
%ADD12R,6.000000X3.600000*%
%ADD13R,1.570000X1.570000*%
%ADD14C,1.570000*%
%ADD15R,0.300000X1.100000*%
%ADD16R,2.100000X1.950000*%
%ADD17R,1.778000X1.778000*%
%ADD18C,1.778000*%
%ADD19P,1.649562X8X22.500000*%
%ADD20P,1.649562X8X202.500000*%
%ADD21P,1.649562X8X112.500000*%
%ADD22R,1.200000X0.600000*%
%ADD23R,1.524000X1.524000*%
%ADD24C,1.524000*%
%ADD25C,1.905000*%
%ADD26R,1.100000X1.000000*%
%ADD27P,1.429621X8X112.500000*%
%ADD28C,1.320800*%
%ADD29P,1.429621X8X292.500000*%
%ADD30P,1.429621X8X22.500000*%
%ADD31P,1.429621X8X202.500000*%
%ADD32R,0.600000X0.700000*%
%ADD33R,1.525000X0.650000*%
%ADD34R,0.700000X0.600000*%
%ADD35C,0.609600*%
%ADD36C,0.756400*%
%ADD37C,0.152400*%
%ADD38C,1.056400*%
%ADD39C,0.406400*%
%ADD40C,1.006400*%
%ADD41C,1.270000*%
%ADD42C,1.500000*%
%ADD43C,1.016000*%
%ADD44C,1.524000*%
%ADD45C,0.203200*%
%ADD46C,0.304800*%
%ADD47C,0.635000*%
%ADD48C,0.856400*%
%ADD49C,0.762000*%

G36*
X168168Y555502D02*
X168168Y555502D01*
X168187Y555500D01*
X168289Y555522D01*
X168391Y555539D01*
X168408Y555548D01*
X168428Y555552D01*
X168517Y555605D01*
X168608Y555654D01*
X168622Y555668D01*
X168639Y555678D01*
X168706Y555757D01*
X168778Y555832D01*
X168786Y555850D01*
X168799Y555865D01*
X168838Y555961D01*
X168881Y556055D01*
X168883Y556075D01*
X168891Y556093D01*
X168909Y556260D01*
X168909Y556550D01*
X171364Y559005D01*
X175870Y563511D01*
X175939Y563606D01*
X176008Y563699D01*
X176010Y563705D01*
X176014Y563710D01*
X176048Y563822D01*
X176084Y563933D01*
X176084Y563940D01*
X176086Y563946D01*
X176083Y564062D01*
X176082Y564179D01*
X176080Y564186D01*
X176080Y564191D01*
X176074Y564209D01*
X176035Y564340D01*
X175251Y566233D01*
X175251Y570569D01*
X176911Y574575D01*
X179976Y577641D01*
X183982Y579300D01*
X188318Y579300D01*
X192324Y577641D01*
X195389Y574575D01*
X197049Y570569D01*
X197049Y566233D01*
X195389Y562228D01*
X192324Y559162D01*
X188318Y557502D01*
X183982Y557502D01*
X182089Y558287D01*
X181975Y558313D01*
X181862Y558342D01*
X181856Y558341D01*
X181850Y558343D01*
X181733Y558332D01*
X181617Y558323D01*
X181611Y558320D01*
X181605Y558320D01*
X181497Y558272D01*
X181391Y558226D01*
X181385Y558222D01*
X181380Y558220D01*
X181366Y558207D01*
X181260Y558122D01*
X179936Y556798D01*
X179894Y556740D01*
X179845Y556688D01*
X179823Y556641D01*
X179793Y556599D01*
X179772Y556530D01*
X179741Y556465D01*
X179736Y556413D01*
X179720Y556363D01*
X179722Y556292D01*
X179714Y556221D01*
X179725Y556170D01*
X179727Y556118D01*
X179751Y556050D01*
X179767Y555980D01*
X179793Y555936D01*
X179811Y555887D01*
X179856Y555831D01*
X179893Y555769D01*
X179932Y555735D01*
X179965Y555695D01*
X180025Y555656D01*
X180080Y555609D01*
X180128Y555590D01*
X180172Y555562D01*
X180241Y555544D01*
X180308Y555517D01*
X180379Y555509D01*
X180410Y555501D01*
X180434Y555503D01*
X180475Y555499D01*
X194818Y555499D01*
X194838Y555502D01*
X194857Y555500D01*
X194959Y555522D01*
X195061Y555539D01*
X195078Y555548D01*
X195098Y555552D01*
X195187Y555605D01*
X195278Y555654D01*
X195292Y555668D01*
X195309Y555678D01*
X195376Y555757D01*
X195448Y555832D01*
X195456Y555850D01*
X195469Y555865D01*
X195508Y555961D01*
X195551Y556055D01*
X195553Y556075D01*
X195561Y556093D01*
X195579Y556260D01*
X195579Y557838D01*
X201265Y563524D01*
X201332Y563618D01*
X201403Y563713D01*
X201405Y563719D01*
X201408Y563724D01*
X201442Y563833D01*
X201479Y563947D01*
X201479Y563953D01*
X201481Y563959D01*
X201478Y564076D01*
X201477Y564193D01*
X201474Y564200D01*
X201474Y564205D01*
X201468Y564222D01*
X201430Y564354D01*
X200651Y566233D01*
X200651Y570569D01*
X202311Y574575D01*
X205376Y577641D01*
X209382Y579300D01*
X213718Y579300D01*
X217724Y577641D01*
X220789Y574575D01*
X222449Y570569D01*
X222449Y566233D01*
X220789Y562228D01*
X217724Y559162D01*
X213718Y557502D01*
X209382Y557502D01*
X207476Y558292D01*
X207362Y558319D01*
X207249Y558347D01*
X207242Y558347D01*
X207236Y558348D01*
X207120Y558337D01*
X207004Y558328D01*
X206998Y558326D01*
X206991Y558325D01*
X206884Y558277D01*
X206777Y558232D01*
X206771Y558227D01*
X206767Y558225D01*
X206753Y558212D01*
X206646Y558127D01*
X205317Y556798D01*
X205276Y556740D01*
X205226Y556688D01*
X205204Y556641D01*
X205174Y556599D01*
X205153Y556530D01*
X205123Y556465D01*
X205117Y556413D01*
X205102Y556363D01*
X205103Y556292D01*
X205096Y556221D01*
X205107Y556170D01*
X205108Y556118D01*
X205133Y556050D01*
X205148Y555980D01*
X205174Y555936D01*
X205192Y555887D01*
X205237Y555831D01*
X205274Y555769D01*
X205314Y555735D01*
X205346Y555695D01*
X205406Y555656D01*
X205461Y555609D01*
X205509Y555590D01*
X205553Y555562D01*
X205622Y555544D01*
X205689Y555517D01*
X205760Y555509D01*
X205792Y555501D01*
X205815Y555503D01*
X205856Y555499D01*
X339598Y555499D01*
X339618Y555502D01*
X339637Y555500D01*
X339739Y555522D01*
X339841Y555539D01*
X339858Y555548D01*
X339878Y555552D01*
X339967Y555605D01*
X340058Y555654D01*
X340072Y555668D01*
X340089Y555678D01*
X340156Y555757D01*
X340228Y555832D01*
X340236Y555850D01*
X340249Y555865D01*
X340288Y555961D01*
X340331Y556055D01*
X340333Y556075D01*
X340341Y556093D01*
X340359Y556260D01*
X340359Y557700D01*
X346170Y563511D01*
X346238Y563605D01*
X346308Y563699D01*
X346310Y563705D01*
X346314Y563710D01*
X346348Y563821D01*
X346384Y563933D01*
X346384Y563940D01*
X346386Y563946D01*
X346383Y564062D01*
X346382Y564179D01*
X346380Y564186D01*
X346380Y564191D01*
X346373Y564209D01*
X346335Y564340D01*
X345551Y566233D01*
X345551Y570569D01*
X347210Y574575D01*
X350276Y577641D01*
X354282Y579300D01*
X358618Y579300D01*
X362624Y577641D01*
X365689Y574575D01*
X367349Y570569D01*
X367349Y566233D01*
X365689Y562228D01*
X362624Y559162D01*
X358618Y557502D01*
X354282Y557502D01*
X352389Y558287D01*
X352275Y558313D01*
X352162Y558342D01*
X352156Y558341D01*
X352150Y558343D01*
X352033Y558332D01*
X351917Y558323D01*
X351911Y558320D01*
X351905Y558320D01*
X351798Y558272D01*
X351690Y558226D01*
X351684Y558222D01*
X351680Y558220D01*
X351666Y558207D01*
X351559Y558122D01*
X350236Y556798D01*
X350194Y556740D01*
X350145Y556688D01*
X350123Y556641D01*
X350093Y556599D01*
X350072Y556530D01*
X350041Y556465D01*
X350036Y556413D01*
X350020Y556363D01*
X350022Y556292D01*
X350014Y556221D01*
X350025Y556170D01*
X350027Y556118D01*
X350051Y556050D01*
X350066Y555980D01*
X350093Y555936D01*
X350111Y555887D01*
X350156Y555831D01*
X350193Y555769D01*
X350232Y555735D01*
X350265Y555695D01*
X350325Y555656D01*
X350380Y555609D01*
X350428Y555590D01*
X350472Y555562D01*
X350541Y555544D01*
X350608Y555517D01*
X350679Y555509D01*
X350710Y555501D01*
X350734Y555503D01*
X350774Y555499D01*
X364998Y555499D01*
X365018Y555502D01*
X365037Y555500D01*
X365139Y555522D01*
X365241Y555539D01*
X365258Y555548D01*
X365278Y555552D01*
X365367Y555605D01*
X365458Y555654D01*
X365472Y555668D01*
X365489Y555678D01*
X365556Y555757D01*
X365628Y555832D01*
X365636Y555850D01*
X365649Y555865D01*
X365688Y555961D01*
X365731Y556055D01*
X365733Y556075D01*
X365741Y556093D01*
X365759Y556260D01*
X365759Y557700D01*
X368214Y560155D01*
X371570Y563511D01*
X371639Y563606D01*
X371708Y563699D01*
X371710Y563705D01*
X371714Y563710D01*
X371748Y563822D01*
X371784Y563933D01*
X371784Y563940D01*
X371786Y563946D01*
X371783Y564062D01*
X371782Y564179D01*
X371780Y564186D01*
X371780Y564191D01*
X371773Y564209D01*
X371735Y564340D01*
X370951Y566233D01*
X370951Y570569D01*
X372610Y574575D01*
X375676Y577641D01*
X379682Y579300D01*
X384018Y579300D01*
X388024Y577641D01*
X391089Y574575D01*
X392749Y570569D01*
X392749Y566233D01*
X391089Y562228D01*
X388024Y559162D01*
X384018Y557502D01*
X379682Y557502D01*
X377789Y558287D01*
X377675Y558313D01*
X377562Y558342D01*
X377556Y558341D01*
X377550Y558343D01*
X377433Y558332D01*
X377317Y558323D01*
X377311Y558320D01*
X377305Y558320D01*
X377197Y558272D01*
X377090Y558226D01*
X377085Y558222D01*
X377080Y558220D01*
X377066Y558207D01*
X376959Y558122D01*
X375636Y556798D01*
X375594Y556740D01*
X375545Y556688D01*
X375523Y556641D01*
X375493Y556599D01*
X375472Y556530D01*
X375441Y556465D01*
X375436Y556413D01*
X375420Y556363D01*
X375422Y556292D01*
X375414Y556221D01*
X375425Y556170D01*
X375427Y556118D01*
X375451Y556050D01*
X375466Y555980D01*
X375493Y555936D01*
X375511Y555887D01*
X375556Y555831D01*
X375593Y555769D01*
X375632Y555735D01*
X375665Y555695D01*
X375725Y555656D01*
X375780Y555609D01*
X375828Y555590D01*
X375872Y555562D01*
X375941Y555544D01*
X376008Y555517D01*
X376079Y555509D01*
X376110Y555501D01*
X376134Y555503D01*
X376174Y555499D01*
X508508Y555499D01*
X508528Y555502D01*
X508547Y555500D01*
X508649Y555522D01*
X508751Y555539D01*
X508768Y555548D01*
X508788Y555552D01*
X508877Y555605D01*
X508968Y555654D01*
X508982Y555668D01*
X508999Y555678D01*
X509066Y555757D01*
X509138Y555832D01*
X509146Y555850D01*
X509159Y555865D01*
X509198Y555961D01*
X509241Y556055D01*
X509243Y556075D01*
X509251Y556093D01*
X509269Y556260D01*
X509269Y556310D01*
X511724Y558765D01*
X511725Y558765D01*
X516470Y563511D01*
X516539Y563606D01*
X516608Y563699D01*
X516610Y563705D01*
X516614Y563710D01*
X516648Y563822D01*
X516685Y563933D01*
X516684Y563940D01*
X516686Y563946D01*
X516683Y564062D01*
X516682Y564179D01*
X516680Y564186D01*
X516680Y564191D01*
X516674Y564209D01*
X516635Y564340D01*
X515851Y566233D01*
X515851Y570569D01*
X517511Y574575D01*
X520576Y577641D01*
X524582Y579300D01*
X528918Y579300D01*
X532924Y577641D01*
X535990Y574575D01*
X537649Y570569D01*
X537649Y566233D01*
X535990Y562228D01*
X532924Y559162D01*
X528918Y557502D01*
X524582Y557502D01*
X522689Y558287D01*
X522575Y558313D01*
X522462Y558342D01*
X522456Y558341D01*
X522450Y558343D01*
X522333Y558332D01*
X522217Y558323D01*
X522211Y558320D01*
X522205Y558320D01*
X522097Y558272D01*
X521991Y558226D01*
X521985Y558222D01*
X521980Y558220D01*
X521966Y558207D01*
X521860Y558122D01*
X520536Y556798D01*
X520495Y556740D01*
X520445Y556688D01*
X520423Y556641D01*
X520393Y556599D01*
X520372Y556530D01*
X520341Y556465D01*
X520336Y556413D01*
X520320Y556363D01*
X520322Y556292D01*
X520314Y556221D01*
X520325Y556170D01*
X520327Y556118D01*
X520351Y556050D01*
X520367Y555980D01*
X520393Y555936D01*
X520411Y555887D01*
X520456Y555831D01*
X520493Y555769D01*
X520532Y555735D01*
X520565Y555695D01*
X520625Y555656D01*
X520680Y555609D01*
X520728Y555590D01*
X520772Y555562D01*
X520841Y555544D01*
X520908Y555517D01*
X520979Y555509D01*
X521010Y555501D01*
X521034Y555503D01*
X521075Y555499D01*
X535178Y555499D01*
X535198Y555502D01*
X535217Y555500D01*
X535319Y555522D01*
X535421Y555539D01*
X535438Y555548D01*
X535458Y555552D01*
X535547Y555605D01*
X535638Y555654D01*
X535652Y555668D01*
X535669Y555678D01*
X535736Y555757D01*
X535808Y555832D01*
X535816Y555850D01*
X535829Y555865D01*
X535868Y555961D01*
X535911Y556055D01*
X535913Y556075D01*
X535921Y556093D01*
X535939Y556260D01*
X535939Y557580D01*
X538394Y560035D01*
X541870Y563511D01*
X541939Y563606D01*
X542008Y563699D01*
X542010Y563705D01*
X542014Y563710D01*
X542048Y563822D01*
X542085Y563933D01*
X542084Y563940D01*
X542086Y563946D01*
X542083Y564062D01*
X542082Y564179D01*
X542080Y564186D01*
X542080Y564191D01*
X542074Y564209D01*
X542035Y564340D01*
X541251Y566233D01*
X541251Y570569D01*
X542911Y574575D01*
X545976Y577641D01*
X549982Y579300D01*
X554318Y579300D01*
X558324Y577641D01*
X561390Y574575D01*
X563049Y570569D01*
X563049Y566233D01*
X561390Y562228D01*
X558324Y559162D01*
X554318Y557502D01*
X549982Y557502D01*
X548089Y558287D01*
X547975Y558313D01*
X547862Y558342D01*
X547856Y558341D01*
X547850Y558343D01*
X547733Y558332D01*
X547617Y558323D01*
X547611Y558320D01*
X547605Y558320D01*
X547497Y558272D01*
X547391Y558226D01*
X547385Y558222D01*
X547380Y558220D01*
X547366Y558207D01*
X547260Y558122D01*
X545936Y556798D01*
X545895Y556740D01*
X545845Y556688D01*
X545823Y556641D01*
X545793Y556599D01*
X545772Y556530D01*
X545741Y556465D01*
X545736Y556413D01*
X545720Y556363D01*
X545722Y556292D01*
X545714Y556221D01*
X545725Y556170D01*
X545727Y556118D01*
X545751Y556050D01*
X545767Y555980D01*
X545793Y555936D01*
X545811Y555887D01*
X545856Y555831D01*
X545893Y555769D01*
X545932Y555735D01*
X545965Y555695D01*
X546025Y555656D01*
X546080Y555609D01*
X546128Y555590D01*
X546172Y555562D01*
X546241Y555544D01*
X546308Y555517D01*
X546379Y555509D01*
X546410Y555501D01*
X546434Y555503D01*
X546475Y555499D01*
X679958Y555499D01*
X679978Y555502D01*
X679997Y555500D01*
X680099Y555522D01*
X680201Y555539D01*
X680218Y555548D01*
X680238Y555552D01*
X680327Y555605D01*
X680418Y555654D01*
X680432Y555668D01*
X680449Y555678D01*
X680516Y555757D01*
X680588Y555832D01*
X680596Y555850D01*
X680609Y555865D01*
X680648Y555961D01*
X680691Y556055D01*
X680693Y556075D01*
X680701Y556093D01*
X680719Y556260D01*
X680719Y557460D01*
X683174Y559915D01*
X686770Y563511D01*
X686839Y563606D01*
X686908Y563699D01*
X686910Y563705D01*
X686914Y563710D01*
X686948Y563822D01*
X686984Y563933D01*
X686984Y563940D01*
X686986Y563946D01*
X686983Y564062D01*
X686982Y564179D01*
X686980Y564186D01*
X686980Y564191D01*
X686973Y564209D01*
X686935Y564340D01*
X686151Y566233D01*
X686151Y570569D01*
X687810Y574575D01*
X690876Y577641D01*
X694882Y579300D01*
X699218Y579300D01*
X703224Y577641D01*
X706289Y574575D01*
X707949Y570569D01*
X707949Y566233D01*
X706289Y562228D01*
X703224Y559162D01*
X699218Y557502D01*
X694882Y557502D01*
X692989Y558287D01*
X692875Y558313D01*
X692762Y558342D01*
X692756Y558341D01*
X692750Y558343D01*
X692633Y558332D01*
X692517Y558323D01*
X692511Y558320D01*
X692505Y558320D01*
X692397Y558272D01*
X692290Y558226D01*
X692285Y558222D01*
X692280Y558220D01*
X692266Y558207D01*
X692159Y558122D01*
X690836Y556798D01*
X690794Y556740D01*
X690745Y556688D01*
X690723Y556641D01*
X690693Y556599D01*
X690672Y556530D01*
X690641Y556465D01*
X690636Y556413D01*
X690620Y556363D01*
X690622Y556292D01*
X690614Y556221D01*
X690625Y556170D01*
X690627Y556118D01*
X690651Y556050D01*
X690667Y555980D01*
X690693Y555936D01*
X690711Y555887D01*
X690756Y555831D01*
X690793Y555769D01*
X690832Y555735D01*
X690865Y555695D01*
X690925Y555656D01*
X690980Y555609D01*
X691028Y555590D01*
X691072Y555562D01*
X691141Y555544D01*
X691208Y555517D01*
X691279Y555509D01*
X691310Y555501D01*
X691334Y555503D01*
X691374Y555499D01*
X705358Y555499D01*
X705378Y555502D01*
X705397Y555500D01*
X705499Y555522D01*
X705601Y555539D01*
X705618Y555548D01*
X705638Y555552D01*
X705727Y555605D01*
X705818Y555654D01*
X705832Y555668D01*
X705849Y555678D01*
X705916Y555757D01*
X705988Y555832D01*
X705996Y555850D01*
X706009Y555865D01*
X706048Y555961D01*
X706091Y556055D01*
X706093Y556075D01*
X706101Y556093D01*
X706119Y556260D01*
X706119Y557460D01*
X708574Y559915D01*
X712170Y563511D01*
X712239Y563606D01*
X712308Y563699D01*
X712310Y563705D01*
X712314Y563710D01*
X712348Y563822D01*
X712384Y563933D01*
X712384Y563940D01*
X712386Y563946D01*
X712383Y564062D01*
X712382Y564179D01*
X712380Y564186D01*
X712380Y564191D01*
X712373Y564209D01*
X712335Y564340D01*
X711551Y566233D01*
X711551Y570569D01*
X713210Y574575D01*
X716276Y577641D01*
X720282Y579300D01*
X724618Y579300D01*
X728624Y577641D01*
X731689Y574575D01*
X733349Y570569D01*
X733349Y566233D01*
X731689Y562228D01*
X728624Y559162D01*
X724618Y557502D01*
X720282Y557502D01*
X718389Y558287D01*
X718275Y558313D01*
X718162Y558342D01*
X718156Y558341D01*
X718150Y558343D01*
X718033Y558332D01*
X717917Y558323D01*
X717911Y558320D01*
X717905Y558320D01*
X717797Y558272D01*
X717690Y558226D01*
X717685Y558222D01*
X717680Y558220D01*
X717666Y558207D01*
X717559Y558122D01*
X716236Y556798D01*
X716194Y556740D01*
X716145Y556688D01*
X716123Y556641D01*
X716093Y556599D01*
X716072Y556530D01*
X716041Y556465D01*
X716036Y556413D01*
X716020Y556363D01*
X716022Y556292D01*
X716014Y556221D01*
X716025Y556170D01*
X716027Y556118D01*
X716051Y556050D01*
X716067Y555980D01*
X716093Y555936D01*
X716111Y555887D01*
X716156Y555831D01*
X716193Y555769D01*
X716232Y555735D01*
X716265Y555695D01*
X716325Y555656D01*
X716380Y555609D01*
X716428Y555590D01*
X716472Y555562D01*
X716541Y555544D01*
X716608Y555517D01*
X716679Y555509D01*
X716710Y555501D01*
X716734Y555503D01*
X716774Y555499D01*
X873025Y555499D01*
X873096Y555510D01*
X873168Y555512D01*
X873217Y555530D01*
X873268Y555539D01*
X873331Y555572D01*
X873399Y555597D01*
X873440Y555629D01*
X873486Y555654D01*
X873535Y555705D01*
X873591Y555750D01*
X873619Y555794D01*
X873655Y555832D01*
X873685Y555897D01*
X873724Y555957D01*
X873737Y556008D01*
X873759Y556055D01*
X873767Y556126D01*
X873784Y556196D01*
X873780Y556248D01*
X873786Y556299D01*
X873770Y556370D01*
X873765Y556441D01*
X873745Y556489D01*
X873733Y556540D01*
X873697Y556601D01*
X873669Y556667D01*
X873624Y556723D01*
X873607Y556751D01*
X873589Y556766D01*
X873564Y556798D01*
X872241Y558122D01*
X872146Y558190D01*
X872052Y558259D01*
X872046Y558261D01*
X872041Y558265D01*
X871929Y558299D01*
X871818Y558336D01*
X871812Y558336D01*
X871806Y558337D01*
X871689Y558334D01*
X871572Y558333D01*
X871565Y558331D01*
X871560Y558331D01*
X871542Y558325D01*
X871411Y558287D01*
X869518Y557502D01*
X865182Y557502D01*
X861176Y559162D01*
X858111Y562228D01*
X856451Y566233D01*
X856451Y570569D01*
X858111Y574575D01*
X861176Y577641D01*
X865182Y579300D01*
X869518Y579300D01*
X873524Y577641D01*
X876590Y574575D01*
X878249Y570569D01*
X878249Y566233D01*
X877465Y564340D01*
X877438Y564227D01*
X877409Y564113D01*
X877410Y564107D01*
X877409Y564101D01*
X877420Y563984D01*
X877429Y563868D01*
X877431Y563862D01*
X877432Y563856D01*
X877479Y563749D01*
X877525Y563642D01*
X877530Y563636D01*
X877532Y563631D01*
X877544Y563618D01*
X877630Y563511D01*
X881466Y559675D01*
X883921Y557220D01*
X883921Y556260D01*
X883924Y556240D01*
X883922Y556221D01*
X883944Y556119D01*
X883960Y556017D01*
X883970Y556000D01*
X883974Y555980D01*
X884027Y555891D01*
X884076Y555800D01*
X884090Y555786D01*
X884100Y555769D01*
X884179Y555702D01*
X884254Y555631D01*
X884272Y555622D01*
X884287Y555609D01*
X884383Y555570D01*
X884477Y555527D01*
X884497Y555525D01*
X884515Y555517D01*
X884682Y555499D01*
X898425Y555499D01*
X898496Y555510D01*
X898568Y555512D01*
X898617Y555530D01*
X898668Y555539D01*
X898731Y555572D01*
X898799Y555597D01*
X898840Y555629D01*
X898886Y555654D01*
X898935Y555705D01*
X898991Y555750D01*
X899019Y555794D01*
X899055Y555832D01*
X899085Y555897D01*
X899124Y555957D01*
X899137Y556008D01*
X899159Y556055D01*
X899167Y556126D01*
X899184Y556196D01*
X899180Y556248D01*
X899186Y556299D01*
X899170Y556370D01*
X899165Y556441D01*
X899145Y556489D01*
X899133Y556540D01*
X899097Y556601D01*
X899069Y556667D01*
X899024Y556723D01*
X899007Y556751D01*
X898989Y556766D01*
X898964Y556798D01*
X897641Y558122D01*
X897546Y558190D01*
X897452Y558259D01*
X897446Y558261D01*
X897441Y558265D01*
X897329Y558299D01*
X897218Y558336D01*
X897212Y558336D01*
X897206Y558337D01*
X897089Y558334D01*
X896972Y558333D01*
X896965Y558331D01*
X896960Y558331D01*
X896942Y558325D01*
X896811Y558287D01*
X894918Y557502D01*
X890582Y557502D01*
X886576Y559162D01*
X883511Y562228D01*
X881851Y566233D01*
X881851Y570569D01*
X883511Y574575D01*
X886576Y577641D01*
X890582Y579300D01*
X894918Y579300D01*
X898924Y577641D01*
X901990Y574575D01*
X903649Y570569D01*
X903649Y566233D01*
X902865Y564340D01*
X902838Y564227D01*
X902809Y564113D01*
X902810Y564107D01*
X902809Y564101D01*
X902820Y563984D01*
X902829Y563868D01*
X902831Y563862D01*
X902832Y563856D01*
X902879Y563749D01*
X902925Y563642D01*
X902930Y563636D01*
X902932Y563631D01*
X902944Y563618D01*
X903030Y563511D01*
X906866Y559675D01*
X909321Y557220D01*
X909321Y556260D01*
X909324Y556240D01*
X909322Y556221D01*
X909344Y556119D01*
X909360Y556017D01*
X909370Y556000D01*
X909374Y555980D01*
X909427Y555891D01*
X909476Y555800D01*
X909490Y555786D01*
X909500Y555769D01*
X909579Y555702D01*
X909654Y555631D01*
X909672Y555622D01*
X909687Y555609D01*
X909783Y555570D01*
X909877Y555527D01*
X909897Y555525D01*
X909915Y555517D01*
X910082Y555499D01*
X1019992Y555499D01*
X1020012Y555502D01*
X1020032Y555500D01*
X1020133Y555522D01*
X1020235Y555539D01*
X1020253Y555548D01*
X1020272Y555552D01*
X1020361Y555605D01*
X1020453Y555654D01*
X1020466Y555668D01*
X1020483Y555678D01*
X1020551Y555757D01*
X1020622Y555832D01*
X1020630Y555850D01*
X1020643Y555865D01*
X1020682Y555961D01*
X1020726Y556055D01*
X1020728Y556075D01*
X1020735Y556093D01*
X1020754Y556260D01*
X1020754Y556894D01*
X1027370Y563511D01*
X1027438Y563605D01*
X1027508Y563699D01*
X1027510Y563705D01*
X1027514Y563710D01*
X1027548Y563821D01*
X1027584Y563933D01*
X1027584Y563940D01*
X1027586Y563946D01*
X1027583Y564062D01*
X1027582Y564179D01*
X1027580Y564186D01*
X1027580Y564191D01*
X1027573Y564209D01*
X1027535Y564340D01*
X1026751Y566233D01*
X1026751Y570569D01*
X1028410Y574575D01*
X1031476Y577641D01*
X1035482Y579300D01*
X1039818Y579300D01*
X1043824Y577641D01*
X1046889Y574575D01*
X1048549Y570569D01*
X1048549Y566233D01*
X1046889Y562228D01*
X1043824Y559162D01*
X1039818Y557502D01*
X1035482Y557502D01*
X1033589Y558287D01*
X1033476Y558313D01*
X1033362Y558342D01*
X1033356Y558341D01*
X1033350Y558343D01*
X1033233Y558332D01*
X1033117Y558323D01*
X1033111Y558320D01*
X1033105Y558320D01*
X1032998Y558272D01*
X1032890Y558226D01*
X1032885Y558222D01*
X1032880Y558220D01*
X1032866Y558207D01*
X1032759Y558122D01*
X1031436Y556798D01*
X1031394Y556740D01*
X1031345Y556688D01*
X1031323Y556641D01*
X1031293Y556599D01*
X1031272Y556530D01*
X1031241Y556465D01*
X1031236Y556413D01*
X1031220Y556363D01*
X1031222Y556292D01*
X1031214Y556221D01*
X1031225Y556170D01*
X1031227Y556118D01*
X1031251Y556050D01*
X1031267Y555980D01*
X1031293Y555936D01*
X1031311Y555887D01*
X1031356Y555831D01*
X1031393Y555769D01*
X1031432Y555735D01*
X1031465Y555695D01*
X1031525Y555656D01*
X1031580Y555609D01*
X1031628Y555590D01*
X1031672Y555562D01*
X1031741Y555544D01*
X1031808Y555517D01*
X1031879Y555509D01*
X1031910Y555501D01*
X1031934Y555503D01*
X1031975Y555499D01*
X1045718Y555499D01*
X1045738Y555502D01*
X1045757Y555500D01*
X1045859Y555522D01*
X1045961Y555539D01*
X1045978Y555548D01*
X1045998Y555552D01*
X1046087Y555605D01*
X1046178Y555654D01*
X1046192Y555668D01*
X1046209Y555678D01*
X1046276Y555757D01*
X1046348Y555832D01*
X1046356Y555850D01*
X1046369Y555865D01*
X1046408Y555961D01*
X1046451Y556055D01*
X1046453Y556075D01*
X1046461Y556093D01*
X1046479Y556260D01*
X1046479Y557220D01*
X1052770Y563511D01*
X1052838Y563605D01*
X1052908Y563699D01*
X1052910Y563705D01*
X1052914Y563710D01*
X1052948Y563821D01*
X1052984Y563933D01*
X1052984Y563940D01*
X1052986Y563946D01*
X1052983Y564062D01*
X1052982Y564179D01*
X1052980Y564186D01*
X1052980Y564191D01*
X1052973Y564209D01*
X1052935Y564340D01*
X1052151Y566233D01*
X1052151Y570569D01*
X1053810Y574575D01*
X1056876Y577641D01*
X1060882Y579300D01*
X1065218Y579300D01*
X1069224Y577641D01*
X1072289Y574575D01*
X1073949Y570569D01*
X1073949Y566233D01*
X1072289Y562228D01*
X1069224Y559162D01*
X1065218Y557502D01*
X1060882Y557502D01*
X1058989Y558287D01*
X1058876Y558313D01*
X1058762Y558342D01*
X1058756Y558341D01*
X1058750Y558343D01*
X1058633Y558332D01*
X1058517Y558323D01*
X1058511Y558320D01*
X1058505Y558320D01*
X1058398Y558272D01*
X1058290Y558226D01*
X1058285Y558222D01*
X1058280Y558220D01*
X1058266Y558207D01*
X1058159Y558122D01*
X1056836Y556798D01*
X1056794Y556740D01*
X1056745Y556688D01*
X1056723Y556641D01*
X1056693Y556599D01*
X1056672Y556530D01*
X1056641Y556465D01*
X1056636Y556413D01*
X1056620Y556363D01*
X1056622Y556292D01*
X1056614Y556221D01*
X1056625Y556170D01*
X1056627Y556118D01*
X1056651Y556050D01*
X1056667Y555980D01*
X1056693Y555936D01*
X1056711Y555887D01*
X1056756Y555831D01*
X1056793Y555769D01*
X1056832Y555735D01*
X1056865Y555695D01*
X1056925Y555656D01*
X1056980Y555609D01*
X1057028Y555590D01*
X1057072Y555562D01*
X1057141Y555544D01*
X1057208Y555517D01*
X1057279Y555509D01*
X1057310Y555501D01*
X1057334Y555503D01*
X1057375Y555499D01*
X1191883Y555499D01*
X1191973Y555514D01*
X1192064Y555521D01*
X1192094Y555533D01*
X1192126Y555539D01*
X1192207Y555581D01*
X1192290Y555617D01*
X1192323Y555643D01*
X1192343Y555654D01*
X1192365Y555677D01*
X1192421Y555722D01*
X1193714Y557015D01*
X1198414Y561715D01*
X1198482Y561809D01*
X1198552Y561903D01*
X1198554Y561909D01*
X1198558Y561914D01*
X1198592Y562026D01*
X1198629Y562137D01*
X1198628Y562144D01*
X1198630Y562149D01*
X1198627Y562266D01*
X1198626Y562383D01*
X1198624Y562390D01*
X1198624Y562395D01*
X1198618Y562413D01*
X1198579Y562544D01*
X1197051Y566233D01*
X1197051Y570569D01*
X1198711Y574575D01*
X1201776Y577641D01*
X1205782Y579300D01*
X1210118Y579300D01*
X1214124Y577641D01*
X1217190Y574575D01*
X1218849Y570569D01*
X1218849Y566233D01*
X1217190Y562228D01*
X1214124Y559162D01*
X1210118Y557502D01*
X1205782Y557502D01*
X1205685Y557543D01*
X1205572Y557569D01*
X1205458Y557598D01*
X1205452Y557597D01*
X1205446Y557599D01*
X1205329Y557588D01*
X1205213Y557579D01*
X1205207Y557576D01*
X1205201Y557576D01*
X1205093Y557528D01*
X1204987Y557482D01*
X1204981Y557478D01*
X1204976Y557476D01*
X1204962Y557463D01*
X1204856Y557378D01*
X1204276Y556798D01*
X1204235Y556740D01*
X1204185Y556688D01*
X1204163Y556641D01*
X1204133Y556599D01*
X1204112Y556530D01*
X1204082Y556465D01*
X1204076Y556413D01*
X1204060Y556363D01*
X1204062Y556292D01*
X1204054Y556221D01*
X1204066Y556170D01*
X1204067Y556118D01*
X1204091Y556050D01*
X1204107Y555980D01*
X1204133Y555936D01*
X1204151Y555887D01*
X1204196Y555831D01*
X1204233Y555769D01*
X1204272Y555735D01*
X1204305Y555695D01*
X1204365Y555656D01*
X1204420Y555609D01*
X1204468Y555590D01*
X1204512Y555562D01*
X1204581Y555544D01*
X1204648Y555517D01*
X1204719Y555509D01*
X1204750Y555501D01*
X1204774Y555503D01*
X1204815Y555499D01*
X1215898Y555499D01*
X1215918Y555502D01*
X1215937Y555500D01*
X1216039Y555522D01*
X1216141Y555539D01*
X1216158Y555548D01*
X1216178Y555552D01*
X1216267Y555605D01*
X1216358Y555654D01*
X1216372Y555668D01*
X1216389Y555678D01*
X1216456Y555757D01*
X1216528Y555832D01*
X1216536Y555850D01*
X1216549Y555865D01*
X1216588Y555961D01*
X1216631Y556055D01*
X1216633Y556075D01*
X1216641Y556093D01*
X1216659Y556260D01*
X1216659Y557100D01*
X1219114Y559555D01*
X1219115Y559555D01*
X1223070Y563511D01*
X1223139Y563606D01*
X1223208Y563699D01*
X1223210Y563705D01*
X1223214Y563710D01*
X1223248Y563822D01*
X1223285Y563933D01*
X1223285Y563940D01*
X1223286Y563946D01*
X1223283Y564062D01*
X1223282Y564179D01*
X1223280Y564186D01*
X1223280Y564191D01*
X1223274Y564209D01*
X1223235Y564340D01*
X1222451Y566233D01*
X1222451Y570569D01*
X1224111Y574575D01*
X1227176Y577641D01*
X1231182Y579300D01*
X1235518Y579300D01*
X1239524Y577641D01*
X1242590Y574575D01*
X1244249Y570569D01*
X1244249Y566233D01*
X1242590Y562228D01*
X1239524Y559162D01*
X1235518Y557502D01*
X1231182Y557502D01*
X1229289Y558287D01*
X1229176Y558313D01*
X1229062Y558342D01*
X1229056Y558341D01*
X1229050Y558343D01*
X1228933Y558332D01*
X1228817Y558323D01*
X1228811Y558320D01*
X1228805Y558320D01*
X1228697Y558272D01*
X1228591Y558226D01*
X1228585Y558222D01*
X1228580Y558220D01*
X1228566Y558207D01*
X1228460Y558122D01*
X1227136Y556798D01*
X1227095Y556740D01*
X1227045Y556688D01*
X1227023Y556641D01*
X1226993Y556599D01*
X1226972Y556530D01*
X1226942Y556465D01*
X1226936Y556413D01*
X1226920Y556363D01*
X1226922Y556292D01*
X1226914Y556221D01*
X1226926Y556170D01*
X1226927Y556118D01*
X1226951Y556050D01*
X1226967Y555980D01*
X1226993Y555936D01*
X1227011Y555887D01*
X1227056Y555831D01*
X1227093Y555769D01*
X1227132Y555735D01*
X1227165Y555695D01*
X1227225Y555656D01*
X1227280Y555609D01*
X1227328Y555590D01*
X1227372Y555562D01*
X1227441Y555544D01*
X1227508Y555517D01*
X1227579Y555509D01*
X1227610Y555501D01*
X1227634Y555503D01*
X1227675Y555499D01*
X1359643Y555499D01*
X1359733Y555514D01*
X1359824Y555521D01*
X1359854Y555533D01*
X1359886Y555539D01*
X1359966Y555581D01*
X1360050Y555617D01*
X1360082Y555643D01*
X1360103Y555654D01*
X1360125Y555677D01*
X1360181Y555722D01*
X1362624Y558165D01*
X1367970Y563511D01*
X1368039Y563606D01*
X1368108Y563699D01*
X1368110Y563705D01*
X1368114Y563710D01*
X1368148Y563822D01*
X1368184Y563933D01*
X1368184Y563940D01*
X1368186Y563946D01*
X1368183Y564062D01*
X1368182Y564179D01*
X1368180Y564186D01*
X1368180Y564191D01*
X1368173Y564209D01*
X1368135Y564340D01*
X1367351Y566233D01*
X1367351Y570569D01*
X1369010Y574575D01*
X1372076Y577641D01*
X1376082Y579300D01*
X1380418Y579300D01*
X1384424Y577641D01*
X1387489Y574575D01*
X1389149Y570569D01*
X1389149Y566233D01*
X1387489Y562228D01*
X1384424Y559162D01*
X1380418Y557502D01*
X1376082Y557502D01*
X1374189Y558287D01*
X1374075Y558313D01*
X1373962Y558342D01*
X1373956Y558341D01*
X1373950Y558343D01*
X1373833Y558332D01*
X1373717Y558323D01*
X1373711Y558320D01*
X1373705Y558320D01*
X1373597Y558272D01*
X1373490Y558226D01*
X1373485Y558222D01*
X1373480Y558220D01*
X1373466Y558207D01*
X1373360Y558122D01*
X1372036Y556798D01*
X1371994Y556740D01*
X1371945Y556688D01*
X1371923Y556641D01*
X1371893Y556599D01*
X1371872Y556530D01*
X1371841Y556465D01*
X1371836Y556413D01*
X1371820Y556363D01*
X1371822Y556292D01*
X1371814Y556221D01*
X1371825Y556170D01*
X1371827Y556118D01*
X1371851Y556050D01*
X1371867Y555980D01*
X1371893Y555936D01*
X1371911Y555887D01*
X1371956Y555831D01*
X1371993Y555769D01*
X1372032Y555735D01*
X1372065Y555695D01*
X1372125Y555656D01*
X1372180Y555609D01*
X1372228Y555590D01*
X1372272Y555562D01*
X1372341Y555544D01*
X1372408Y555517D01*
X1372479Y555509D01*
X1372510Y555501D01*
X1372534Y555503D01*
X1372575Y555499D01*
X1386078Y555499D01*
X1386098Y555502D01*
X1386117Y555500D01*
X1386219Y555522D01*
X1386321Y555539D01*
X1386338Y555548D01*
X1386358Y555552D01*
X1386447Y555605D01*
X1386538Y555654D01*
X1386552Y555668D01*
X1386569Y555678D01*
X1386636Y555757D01*
X1386708Y555832D01*
X1386716Y555850D01*
X1386729Y555865D01*
X1386768Y555961D01*
X1386811Y556055D01*
X1386813Y556075D01*
X1386821Y556093D01*
X1386839Y556260D01*
X1386839Y556980D01*
X1389294Y559435D01*
X1393370Y563511D01*
X1393439Y563606D01*
X1393508Y563699D01*
X1393510Y563705D01*
X1393514Y563710D01*
X1393548Y563822D01*
X1393584Y563933D01*
X1393584Y563940D01*
X1393586Y563946D01*
X1393583Y564062D01*
X1393582Y564179D01*
X1393580Y564186D01*
X1393580Y564191D01*
X1393573Y564209D01*
X1393535Y564340D01*
X1392751Y566233D01*
X1392751Y570569D01*
X1394410Y574575D01*
X1397476Y577641D01*
X1401482Y579300D01*
X1405818Y579300D01*
X1409824Y577641D01*
X1412889Y574575D01*
X1414549Y570569D01*
X1414549Y566233D01*
X1412889Y562228D01*
X1409824Y559162D01*
X1405818Y557502D01*
X1401482Y557502D01*
X1399589Y558287D01*
X1399475Y558313D01*
X1399362Y558342D01*
X1399356Y558341D01*
X1399350Y558343D01*
X1399233Y558332D01*
X1399117Y558323D01*
X1399111Y558320D01*
X1399105Y558320D01*
X1398997Y558272D01*
X1398890Y558226D01*
X1398885Y558222D01*
X1398880Y558220D01*
X1398866Y558207D01*
X1398760Y558122D01*
X1397436Y556798D01*
X1397394Y556740D01*
X1397345Y556688D01*
X1397323Y556641D01*
X1397293Y556599D01*
X1397272Y556530D01*
X1397241Y556465D01*
X1397236Y556413D01*
X1397220Y556363D01*
X1397222Y556292D01*
X1397214Y556221D01*
X1397225Y556170D01*
X1397227Y556118D01*
X1397251Y556050D01*
X1397267Y555980D01*
X1397293Y555936D01*
X1397311Y555887D01*
X1397356Y555831D01*
X1397393Y555769D01*
X1397432Y555735D01*
X1397465Y555695D01*
X1397525Y555656D01*
X1397580Y555609D01*
X1397628Y555590D01*
X1397672Y555562D01*
X1397741Y555544D01*
X1397808Y555517D01*
X1397879Y555509D01*
X1397910Y555501D01*
X1397934Y555503D01*
X1397975Y555499D01*
X1529943Y555499D01*
X1530033Y555514D01*
X1530124Y555521D01*
X1530154Y555533D01*
X1530186Y555539D01*
X1530267Y555581D01*
X1530350Y555617D01*
X1530383Y555643D01*
X1530403Y555654D01*
X1530425Y555677D01*
X1530481Y555722D01*
X1532804Y558045D01*
X1538270Y563511D01*
X1538339Y563606D01*
X1538408Y563699D01*
X1538410Y563705D01*
X1538414Y563710D01*
X1538448Y563822D01*
X1538485Y563933D01*
X1538485Y563940D01*
X1538486Y563946D01*
X1538483Y564062D01*
X1538482Y564179D01*
X1538480Y564186D01*
X1538480Y564191D01*
X1538474Y564209D01*
X1538436Y564340D01*
X1537651Y566233D01*
X1537651Y570569D01*
X1539311Y574575D01*
X1542376Y577641D01*
X1546382Y579300D01*
X1550718Y579300D01*
X1554724Y577641D01*
X1557790Y574575D01*
X1559449Y570569D01*
X1559449Y566233D01*
X1557790Y562228D01*
X1554724Y559162D01*
X1550718Y557502D01*
X1546382Y557502D01*
X1544489Y558287D01*
X1544376Y558313D01*
X1544262Y558342D01*
X1544256Y558341D01*
X1544250Y558343D01*
X1544133Y558332D01*
X1544017Y558323D01*
X1544011Y558320D01*
X1544005Y558320D01*
X1543897Y558272D01*
X1543791Y558226D01*
X1543785Y558222D01*
X1543780Y558220D01*
X1543766Y558207D01*
X1543660Y558122D01*
X1542336Y556798D01*
X1542295Y556740D01*
X1542245Y556688D01*
X1542223Y556641D01*
X1542193Y556599D01*
X1542172Y556530D01*
X1542142Y556465D01*
X1542136Y556413D01*
X1542121Y556363D01*
X1542122Y556292D01*
X1542114Y556221D01*
X1542126Y556170D01*
X1542127Y556118D01*
X1542152Y556050D01*
X1542167Y555980D01*
X1542193Y555936D01*
X1542211Y555887D01*
X1542256Y555831D01*
X1542293Y555769D01*
X1542332Y555735D01*
X1542365Y555695D01*
X1542425Y555656D01*
X1542480Y555609D01*
X1542528Y555590D01*
X1542572Y555562D01*
X1542641Y555544D01*
X1542708Y555517D01*
X1542779Y555509D01*
X1542810Y555501D01*
X1542834Y555503D01*
X1542875Y555499D01*
X1556258Y555499D01*
X1556278Y555502D01*
X1556297Y555500D01*
X1556399Y555522D01*
X1556501Y555539D01*
X1556518Y555548D01*
X1556538Y555552D01*
X1556627Y555605D01*
X1556718Y555654D01*
X1556732Y555668D01*
X1556749Y555678D01*
X1556816Y555757D01*
X1556888Y555832D01*
X1556896Y555850D01*
X1556909Y555865D01*
X1556948Y555961D01*
X1556991Y556055D01*
X1556993Y556075D01*
X1557001Y556093D01*
X1557019Y556260D01*
X1557019Y556860D01*
X1559474Y559315D01*
X1559475Y559315D01*
X1563670Y563511D01*
X1563739Y563606D01*
X1563808Y563699D01*
X1563810Y563705D01*
X1563814Y563710D01*
X1563848Y563822D01*
X1563885Y563933D01*
X1563885Y563940D01*
X1563886Y563946D01*
X1563883Y564062D01*
X1563882Y564179D01*
X1563880Y564186D01*
X1563880Y564191D01*
X1563874Y564209D01*
X1563836Y564340D01*
X1563051Y566233D01*
X1563051Y570569D01*
X1564711Y574575D01*
X1567776Y577641D01*
X1571782Y579300D01*
X1576118Y579300D01*
X1580124Y577641D01*
X1583190Y574575D01*
X1584849Y570569D01*
X1584849Y566233D01*
X1583190Y562228D01*
X1580124Y559162D01*
X1576118Y557502D01*
X1571782Y557502D01*
X1569889Y558287D01*
X1569776Y558313D01*
X1569662Y558342D01*
X1569656Y558341D01*
X1569650Y558343D01*
X1569533Y558332D01*
X1569417Y558323D01*
X1569411Y558320D01*
X1569405Y558320D01*
X1569297Y558272D01*
X1569191Y558226D01*
X1569185Y558222D01*
X1569180Y558220D01*
X1569166Y558207D01*
X1569060Y558122D01*
X1567736Y556798D01*
X1567695Y556740D01*
X1567645Y556688D01*
X1567623Y556641D01*
X1567593Y556599D01*
X1567572Y556530D01*
X1567542Y556465D01*
X1567536Y556413D01*
X1567521Y556363D01*
X1567522Y556292D01*
X1567514Y556221D01*
X1567526Y556170D01*
X1567527Y556118D01*
X1567552Y556050D01*
X1567567Y555980D01*
X1567593Y555936D01*
X1567611Y555887D01*
X1567656Y555831D01*
X1567693Y555769D01*
X1567732Y555735D01*
X1567765Y555695D01*
X1567825Y555656D01*
X1567880Y555609D01*
X1567928Y555590D01*
X1567972Y555562D01*
X1568041Y555544D01*
X1568108Y555517D01*
X1568179Y555509D01*
X1568210Y555501D01*
X1568234Y555503D01*
X1568275Y555499D01*
X1700243Y555499D01*
X1700333Y555514D01*
X1700424Y555521D01*
X1700454Y555533D01*
X1700486Y555539D01*
X1700566Y555581D01*
X1700650Y555617D01*
X1700682Y555643D01*
X1700703Y555654D01*
X1700725Y555677D01*
X1700781Y555722D01*
X1708570Y563511D01*
X1708638Y563605D01*
X1708708Y563699D01*
X1708710Y563705D01*
X1708714Y563710D01*
X1708748Y563821D01*
X1708784Y563933D01*
X1708784Y563940D01*
X1708786Y563946D01*
X1708783Y564062D01*
X1708782Y564179D01*
X1708780Y564186D01*
X1708780Y564191D01*
X1708773Y564209D01*
X1708735Y564340D01*
X1707951Y566233D01*
X1707951Y570569D01*
X1709611Y574575D01*
X1712676Y577641D01*
X1716682Y579300D01*
X1721018Y579300D01*
X1725024Y577641D01*
X1728089Y574575D01*
X1729749Y570569D01*
X1729749Y566233D01*
X1728089Y562228D01*
X1725024Y559162D01*
X1721018Y557502D01*
X1716682Y557502D01*
X1714789Y558287D01*
X1714676Y558313D01*
X1714562Y558342D01*
X1714556Y558341D01*
X1714550Y558343D01*
X1714433Y558332D01*
X1714317Y558323D01*
X1714311Y558320D01*
X1714305Y558320D01*
X1714198Y558272D01*
X1714091Y558226D01*
X1714085Y558222D01*
X1714080Y558220D01*
X1714066Y558207D01*
X1713960Y558122D01*
X1712636Y556798D01*
X1712594Y556740D01*
X1712545Y556688D01*
X1712523Y556641D01*
X1712493Y556599D01*
X1712472Y556530D01*
X1712441Y556465D01*
X1712436Y556413D01*
X1712420Y556363D01*
X1712422Y556292D01*
X1712414Y556221D01*
X1712425Y556170D01*
X1712427Y556118D01*
X1712451Y556050D01*
X1712467Y555980D01*
X1712493Y555936D01*
X1712511Y555887D01*
X1712556Y555831D01*
X1712593Y555769D01*
X1712632Y555735D01*
X1712665Y555695D01*
X1712725Y555656D01*
X1712780Y555609D01*
X1712828Y555590D01*
X1712872Y555562D01*
X1712941Y555544D01*
X1713008Y555517D01*
X1713079Y555509D01*
X1713110Y555501D01*
X1713134Y555503D01*
X1713175Y555499D01*
X1726438Y555499D01*
X1726458Y555502D01*
X1726477Y555500D01*
X1726579Y555522D01*
X1726681Y555539D01*
X1726698Y555548D01*
X1726718Y555552D01*
X1726807Y555605D01*
X1726898Y555654D01*
X1726912Y555668D01*
X1726929Y555678D01*
X1726996Y555757D01*
X1727068Y555832D01*
X1727076Y555850D01*
X1727089Y555865D01*
X1727128Y555961D01*
X1727171Y556055D01*
X1727173Y556075D01*
X1727181Y556093D01*
X1727199Y556260D01*
X1727199Y556740D01*
X1729654Y559195D01*
X1733970Y563511D01*
X1734039Y563606D01*
X1734108Y563699D01*
X1734110Y563705D01*
X1734114Y563710D01*
X1734148Y563822D01*
X1734184Y563933D01*
X1734184Y563940D01*
X1734186Y563946D01*
X1734183Y564062D01*
X1734182Y564179D01*
X1734180Y564186D01*
X1734180Y564191D01*
X1734174Y564209D01*
X1734135Y564340D01*
X1733351Y566233D01*
X1733351Y570569D01*
X1735011Y574575D01*
X1738076Y577641D01*
X1742082Y579300D01*
X1746418Y579300D01*
X1750424Y577641D01*
X1753489Y574575D01*
X1755149Y570569D01*
X1755149Y566233D01*
X1753489Y562228D01*
X1750424Y559162D01*
X1746418Y557502D01*
X1742082Y557502D01*
X1740189Y558287D01*
X1740075Y558313D01*
X1739962Y558342D01*
X1739956Y558341D01*
X1739950Y558343D01*
X1739833Y558332D01*
X1739717Y558323D01*
X1739711Y558320D01*
X1739705Y558320D01*
X1739597Y558272D01*
X1739491Y558226D01*
X1739485Y558222D01*
X1739480Y558220D01*
X1739466Y558207D01*
X1739360Y558122D01*
X1738036Y556798D01*
X1737994Y556740D01*
X1737945Y556688D01*
X1737923Y556641D01*
X1737893Y556599D01*
X1737872Y556530D01*
X1737841Y556465D01*
X1737836Y556413D01*
X1737820Y556363D01*
X1737822Y556292D01*
X1737814Y556221D01*
X1737825Y556170D01*
X1737827Y556118D01*
X1737851Y556050D01*
X1737867Y555980D01*
X1737893Y555936D01*
X1737911Y555887D01*
X1737956Y555831D01*
X1737993Y555769D01*
X1738032Y555735D01*
X1738065Y555695D01*
X1738125Y555656D01*
X1738180Y555609D01*
X1738228Y555590D01*
X1738272Y555562D01*
X1738341Y555544D01*
X1738408Y555517D01*
X1738479Y555509D01*
X1738510Y555501D01*
X1738534Y555503D01*
X1738575Y555499D01*
X1866784Y555499D01*
X1866874Y555514D01*
X1866965Y555521D01*
X1866995Y555533D01*
X1867027Y555539D01*
X1867108Y555581D01*
X1867192Y555617D01*
X1867224Y555643D01*
X1867244Y555654D01*
X1867267Y555677D01*
X1867323Y555722D01*
X1878028Y566427D01*
X1878081Y566501D01*
X1878141Y566571D01*
X1878153Y566601D01*
X1878172Y566627D01*
X1878199Y566714D01*
X1878233Y566799D01*
X1878237Y566840D01*
X1878244Y566862D01*
X1878243Y566894D01*
X1878251Y566966D01*
X1878251Y570569D01*
X1879910Y574575D01*
X1882976Y577641D01*
X1886982Y579300D01*
X1891318Y579300D01*
X1895324Y577641D01*
X1898389Y574575D01*
X1900049Y570569D01*
X1900049Y566233D01*
X1898389Y562228D01*
X1895324Y559162D01*
X1891318Y557502D01*
X1886982Y557502D01*
X1882976Y559162D01*
X1882797Y559341D01*
X1882781Y559353D01*
X1882768Y559368D01*
X1882681Y559424D01*
X1882597Y559485D01*
X1882578Y559491D01*
X1882561Y559501D01*
X1882461Y559527D01*
X1882362Y559557D01*
X1882342Y559556D01*
X1882323Y559561D01*
X1882220Y559553D01*
X1882116Y559551D01*
X1882097Y559544D01*
X1882078Y559542D01*
X1881983Y559502D01*
X1881885Y559466D01*
X1881870Y559454D01*
X1881851Y559446D01*
X1881720Y559341D01*
X1879177Y556798D01*
X1879136Y556740D01*
X1879086Y556688D01*
X1879064Y556641D01*
X1879034Y556599D01*
X1879013Y556530D01*
X1878983Y556465D01*
X1878977Y556413D01*
X1878962Y556363D01*
X1878963Y556292D01*
X1878956Y556221D01*
X1878967Y556170D01*
X1878968Y556118D01*
X1878993Y556050D01*
X1879008Y555980D01*
X1879034Y555936D01*
X1879052Y555887D01*
X1879097Y555831D01*
X1879134Y555769D01*
X1879174Y555735D01*
X1879206Y555695D01*
X1879266Y555656D01*
X1879321Y555609D01*
X1879369Y555590D01*
X1879413Y555562D01*
X1879482Y555544D01*
X1879549Y555517D01*
X1879620Y555509D01*
X1879652Y555501D01*
X1879675Y555503D01*
X1879716Y555499D01*
X1897888Y555499D01*
X1897908Y555502D01*
X1897927Y555500D01*
X1898029Y555522D01*
X1898131Y555539D01*
X1898148Y555548D01*
X1898168Y555552D01*
X1898257Y555605D01*
X1898348Y555654D01*
X1898362Y555668D01*
X1898379Y555678D01*
X1898446Y555757D01*
X1898518Y555832D01*
X1898526Y555850D01*
X1898539Y555865D01*
X1898578Y555961D01*
X1898621Y556055D01*
X1898623Y556075D01*
X1898631Y556093D01*
X1898649Y556260D01*
X1898649Y557890D01*
X1901104Y560345D01*
X1901105Y560345D01*
X1904270Y563511D01*
X1904338Y563606D01*
X1904408Y563699D01*
X1904410Y563705D01*
X1904414Y563710D01*
X1904448Y563822D01*
X1904484Y563933D01*
X1904484Y563940D01*
X1904486Y563946D01*
X1904483Y564062D01*
X1904482Y564179D01*
X1904480Y564186D01*
X1904480Y564191D01*
X1904473Y564209D01*
X1904435Y564340D01*
X1903651Y566233D01*
X1903651Y570569D01*
X1905310Y574575D01*
X1908376Y577641D01*
X1912382Y579300D01*
X1916718Y579300D01*
X1920724Y577641D01*
X1923789Y574575D01*
X1925449Y570569D01*
X1925449Y566233D01*
X1923789Y562228D01*
X1920724Y559162D01*
X1916718Y557502D01*
X1912382Y557502D01*
X1910489Y558287D01*
X1910375Y558313D01*
X1910262Y558342D01*
X1910256Y558341D01*
X1910250Y558343D01*
X1910133Y558332D01*
X1910017Y558323D01*
X1910011Y558320D01*
X1910005Y558320D01*
X1909897Y558272D01*
X1909790Y558226D01*
X1909785Y558222D01*
X1909780Y558220D01*
X1909766Y558207D01*
X1909659Y558122D01*
X1908336Y556798D01*
X1908294Y556740D01*
X1908245Y556688D01*
X1908223Y556641D01*
X1908193Y556599D01*
X1908172Y556530D01*
X1908141Y556465D01*
X1908136Y556413D01*
X1908120Y556363D01*
X1908122Y556292D01*
X1908114Y556221D01*
X1908125Y556170D01*
X1908127Y556118D01*
X1908151Y556050D01*
X1908167Y555980D01*
X1908193Y555936D01*
X1908211Y555887D01*
X1908256Y555831D01*
X1908293Y555769D01*
X1908332Y555735D01*
X1908365Y555695D01*
X1908425Y555656D01*
X1908480Y555609D01*
X1908528Y555590D01*
X1908572Y555562D01*
X1908641Y555544D01*
X1908708Y555517D01*
X1908779Y555509D01*
X1908810Y555501D01*
X1908834Y555503D01*
X1908874Y555499D01*
X1977390Y555499D01*
X1977410Y555502D01*
X1977429Y555500D01*
X1977531Y555522D01*
X1977633Y555539D01*
X1977650Y555548D01*
X1977670Y555552D01*
X1977759Y555605D01*
X1977850Y555654D01*
X1977864Y555668D01*
X1977881Y555678D01*
X1977948Y555757D01*
X1978020Y555832D01*
X1978028Y555850D01*
X1978041Y555865D01*
X1978080Y555961D01*
X1978123Y556055D01*
X1978125Y556075D01*
X1978133Y556093D01*
X1978151Y556260D01*
X1978151Y617220D01*
X1978148Y617240D01*
X1978150Y617259D01*
X1978128Y617361D01*
X1978112Y617463D01*
X1978102Y617480D01*
X1978098Y617500D01*
X1978045Y617589D01*
X1977996Y617680D01*
X1977982Y617694D01*
X1977972Y617711D01*
X1977893Y617778D01*
X1977818Y617850D01*
X1977800Y617858D01*
X1977785Y617871D01*
X1977689Y617910D01*
X1977595Y617953D01*
X1977575Y617955D01*
X1977557Y617963D01*
X1977390Y617981D01*
X1929384Y617981D01*
X1929364Y617978D01*
X1929345Y617980D01*
X1929243Y617958D01*
X1929141Y617942D01*
X1929124Y617932D01*
X1929104Y617928D01*
X1929015Y617875D01*
X1928924Y617826D01*
X1928910Y617812D01*
X1928893Y617802D01*
X1928826Y617723D01*
X1928754Y617648D01*
X1928746Y617630D01*
X1928733Y617615D01*
X1928694Y617519D01*
X1928651Y617425D01*
X1928649Y617405D01*
X1928641Y617387D01*
X1928623Y617220D01*
X1928623Y617032D01*
X1922968Y611377D01*
X1914972Y611377D01*
X1909317Y617032D01*
X1909317Y617220D01*
X1909314Y617240D01*
X1909316Y617259D01*
X1909294Y617361D01*
X1909278Y617463D01*
X1909268Y617480D01*
X1909264Y617500D01*
X1909211Y617589D01*
X1909162Y617680D01*
X1909148Y617694D01*
X1909138Y617711D01*
X1909059Y617778D01*
X1908984Y617850D01*
X1908966Y617858D01*
X1908951Y617871D01*
X1908855Y617910D01*
X1908761Y617953D01*
X1908741Y617955D01*
X1908723Y617963D01*
X1908556Y617981D01*
X1873408Y617981D01*
X1873318Y617967D01*
X1873227Y617959D01*
X1873197Y617947D01*
X1873165Y617942D01*
X1873085Y617899D01*
X1873001Y617863D01*
X1872969Y617837D01*
X1872948Y617826D01*
X1872926Y617803D01*
X1872899Y617782D01*
X1869827Y616509D01*
X1866513Y616509D01*
X1863433Y617785D01*
X1863396Y617811D01*
X1863327Y617871D01*
X1863297Y617883D01*
X1863271Y617902D01*
X1863184Y617929D01*
X1863099Y617963D01*
X1863058Y617967D01*
X1863036Y617974D01*
X1863003Y617973D01*
X1862932Y617981D01*
X1818894Y617981D01*
X1818874Y617978D01*
X1818855Y617980D01*
X1818753Y617958D01*
X1818651Y617942D01*
X1818634Y617932D01*
X1818614Y617928D01*
X1818525Y617875D01*
X1818434Y617826D01*
X1818420Y617812D01*
X1818403Y617802D01*
X1818336Y617723D01*
X1818264Y617648D01*
X1818256Y617630D01*
X1818243Y617615D01*
X1818204Y617519D01*
X1818161Y617425D01*
X1818159Y617405D01*
X1818151Y617387D01*
X1818133Y617220D01*
X1818133Y617032D01*
X1812478Y611377D01*
X1804482Y611377D01*
X1798827Y617032D01*
X1798827Y617220D01*
X1798824Y617240D01*
X1798826Y617259D01*
X1798804Y617361D01*
X1798788Y617463D01*
X1798778Y617480D01*
X1798774Y617500D01*
X1798721Y617589D01*
X1798672Y617680D01*
X1798658Y617694D01*
X1798648Y617711D01*
X1798569Y617778D01*
X1798494Y617850D01*
X1798476Y617858D01*
X1798461Y617871D01*
X1798365Y617910D01*
X1798271Y617953D01*
X1798251Y617955D01*
X1798233Y617963D01*
X1798066Y617981D01*
X1766824Y617981D01*
X1766804Y617978D01*
X1766785Y617980D01*
X1766683Y617958D01*
X1766581Y617942D01*
X1766564Y617932D01*
X1766544Y617928D01*
X1766455Y617875D01*
X1766364Y617826D01*
X1766350Y617812D01*
X1766333Y617802D01*
X1766266Y617723D01*
X1766194Y617648D01*
X1766186Y617630D01*
X1766173Y617615D01*
X1766134Y617519D01*
X1766091Y617425D01*
X1766089Y617405D01*
X1766081Y617387D01*
X1766063Y617220D01*
X1766063Y617032D01*
X1760408Y611377D01*
X1752412Y611377D01*
X1746757Y617032D01*
X1746757Y617220D01*
X1746754Y617240D01*
X1746756Y617259D01*
X1746734Y617361D01*
X1746718Y617463D01*
X1746708Y617480D01*
X1746704Y617500D01*
X1746651Y617589D01*
X1746602Y617680D01*
X1746588Y617694D01*
X1746578Y617711D01*
X1746499Y617778D01*
X1746424Y617850D01*
X1746406Y617858D01*
X1746391Y617871D01*
X1746295Y617910D01*
X1746201Y617953D01*
X1746181Y617955D01*
X1746163Y617963D01*
X1745996Y617981D01*
X1699016Y617981D01*
X1698951Y617971D01*
X1698886Y617970D01*
X1698806Y617947D01*
X1698773Y617942D01*
X1698756Y617932D01*
X1698725Y617923D01*
X1698377Y617779D01*
X1695063Y617779D01*
X1694715Y617923D01*
X1694652Y617938D01*
X1694591Y617963D01*
X1694508Y617972D01*
X1694476Y617979D01*
X1694456Y617978D01*
X1694424Y617981D01*
X1648714Y617981D01*
X1648694Y617978D01*
X1648675Y617980D01*
X1648573Y617958D01*
X1648471Y617942D01*
X1648454Y617932D01*
X1648434Y617928D01*
X1648345Y617875D01*
X1648254Y617826D01*
X1648240Y617812D01*
X1648223Y617802D01*
X1648156Y617723D01*
X1648084Y617648D01*
X1648076Y617630D01*
X1648063Y617615D01*
X1648024Y617519D01*
X1647981Y617425D01*
X1647979Y617405D01*
X1647971Y617387D01*
X1647953Y617220D01*
X1647953Y617032D01*
X1642298Y611377D01*
X1634302Y611377D01*
X1628647Y617032D01*
X1628647Y617220D01*
X1628644Y617240D01*
X1628646Y617259D01*
X1628624Y617361D01*
X1628608Y617463D01*
X1628598Y617480D01*
X1628594Y617500D01*
X1628541Y617589D01*
X1628492Y617680D01*
X1628478Y617694D01*
X1628468Y617711D01*
X1628389Y617778D01*
X1628314Y617850D01*
X1628296Y617858D01*
X1628281Y617871D01*
X1628185Y617910D01*
X1628091Y617953D01*
X1628071Y617955D01*
X1628053Y617963D01*
X1627886Y617981D01*
X1595374Y617981D01*
X1595354Y617978D01*
X1595335Y617980D01*
X1595233Y617958D01*
X1595131Y617942D01*
X1595114Y617932D01*
X1595094Y617928D01*
X1595005Y617875D01*
X1594914Y617826D01*
X1594900Y617812D01*
X1594883Y617802D01*
X1594816Y617723D01*
X1594744Y617648D01*
X1594736Y617630D01*
X1594723Y617615D01*
X1594684Y617519D01*
X1594641Y617425D01*
X1594639Y617405D01*
X1594631Y617387D01*
X1594613Y617220D01*
X1594613Y617032D01*
X1588958Y611377D01*
X1580962Y611377D01*
X1575307Y617032D01*
X1575307Y617220D01*
X1575304Y617240D01*
X1575306Y617259D01*
X1575284Y617361D01*
X1575268Y617463D01*
X1575258Y617480D01*
X1575254Y617500D01*
X1575201Y617589D01*
X1575152Y617680D01*
X1575138Y617694D01*
X1575128Y617711D01*
X1575049Y617778D01*
X1574974Y617850D01*
X1574956Y617858D01*
X1574941Y617871D01*
X1574845Y617910D01*
X1574751Y617953D01*
X1574731Y617955D01*
X1574713Y617963D01*
X1574546Y617981D01*
X1533048Y617981D01*
X1532958Y617967D01*
X1532867Y617959D01*
X1532837Y617947D01*
X1532805Y617942D01*
X1532725Y617899D01*
X1532641Y617863D01*
X1532609Y617837D01*
X1532588Y617826D01*
X1532566Y617803D01*
X1532539Y617782D01*
X1529467Y616509D01*
X1526153Y616509D01*
X1523073Y617785D01*
X1523036Y617811D01*
X1522967Y617871D01*
X1522937Y617883D01*
X1522911Y617902D01*
X1522824Y617929D01*
X1522739Y617963D01*
X1522698Y617967D01*
X1522676Y617974D01*
X1522643Y617973D01*
X1522572Y617981D01*
X1477264Y617981D01*
X1477244Y617978D01*
X1477225Y617980D01*
X1477123Y617958D01*
X1477021Y617942D01*
X1477004Y617932D01*
X1476984Y617928D01*
X1476895Y617875D01*
X1476804Y617826D01*
X1476790Y617812D01*
X1476773Y617802D01*
X1476706Y617723D01*
X1476634Y617648D01*
X1476626Y617630D01*
X1476613Y617615D01*
X1476574Y617519D01*
X1476531Y617425D01*
X1476529Y617405D01*
X1476521Y617387D01*
X1476503Y617220D01*
X1476503Y617032D01*
X1470848Y611377D01*
X1462852Y611377D01*
X1457197Y617032D01*
X1457197Y617220D01*
X1457194Y617240D01*
X1457196Y617259D01*
X1457174Y617361D01*
X1457158Y617463D01*
X1457148Y617480D01*
X1457144Y617500D01*
X1457091Y617589D01*
X1457042Y617680D01*
X1457028Y617694D01*
X1457018Y617711D01*
X1456939Y617778D01*
X1456864Y617850D01*
X1456846Y617858D01*
X1456831Y617871D01*
X1456735Y617910D01*
X1456641Y617953D01*
X1456621Y617955D01*
X1456603Y617963D01*
X1456436Y617981D01*
X1423924Y617981D01*
X1423904Y617978D01*
X1423885Y617980D01*
X1423783Y617958D01*
X1423681Y617942D01*
X1423664Y617932D01*
X1423644Y617928D01*
X1423555Y617875D01*
X1423464Y617826D01*
X1423450Y617812D01*
X1423433Y617802D01*
X1423366Y617723D01*
X1423294Y617648D01*
X1423286Y617630D01*
X1423273Y617615D01*
X1423234Y617519D01*
X1423191Y617425D01*
X1423189Y617405D01*
X1423181Y617387D01*
X1423163Y617220D01*
X1423163Y617032D01*
X1417508Y611377D01*
X1409512Y611377D01*
X1403857Y617032D01*
X1403857Y617220D01*
X1403854Y617240D01*
X1403856Y617259D01*
X1403834Y617361D01*
X1403818Y617463D01*
X1403808Y617480D01*
X1403804Y617500D01*
X1403751Y617589D01*
X1403702Y617680D01*
X1403688Y617694D01*
X1403678Y617711D01*
X1403599Y617778D01*
X1403524Y617850D01*
X1403506Y617858D01*
X1403491Y617871D01*
X1403395Y617910D01*
X1403301Y617953D01*
X1403281Y617955D01*
X1403263Y617963D01*
X1403096Y617981D01*
X1361598Y617981D01*
X1361508Y617967D01*
X1361417Y617959D01*
X1361387Y617947D01*
X1361355Y617942D01*
X1361275Y617899D01*
X1361191Y617863D01*
X1361159Y617837D01*
X1361138Y617826D01*
X1361116Y617803D01*
X1361089Y617782D01*
X1358017Y616509D01*
X1354703Y616509D01*
X1351623Y617785D01*
X1351586Y617811D01*
X1351517Y617871D01*
X1351487Y617883D01*
X1351461Y617902D01*
X1351374Y617929D01*
X1351289Y617963D01*
X1351248Y617967D01*
X1351226Y617974D01*
X1351193Y617973D01*
X1351122Y617981D01*
X1307084Y617981D01*
X1307064Y617978D01*
X1307045Y617980D01*
X1306943Y617958D01*
X1306841Y617942D01*
X1306824Y617932D01*
X1306804Y617928D01*
X1306715Y617875D01*
X1306624Y617826D01*
X1306610Y617812D01*
X1306593Y617802D01*
X1306526Y617723D01*
X1306454Y617648D01*
X1306446Y617630D01*
X1306433Y617615D01*
X1306394Y617519D01*
X1306351Y617425D01*
X1306349Y617405D01*
X1306341Y617387D01*
X1306323Y617220D01*
X1306323Y617032D01*
X1300668Y611377D01*
X1292672Y611377D01*
X1287017Y617032D01*
X1287017Y617220D01*
X1287014Y617240D01*
X1287016Y617259D01*
X1286994Y617361D01*
X1286978Y617463D01*
X1286968Y617480D01*
X1286964Y617500D01*
X1286911Y617589D01*
X1286862Y617680D01*
X1286848Y617694D01*
X1286838Y617711D01*
X1286759Y617778D01*
X1286684Y617850D01*
X1286666Y617858D01*
X1286651Y617871D01*
X1286555Y617910D01*
X1286461Y617953D01*
X1286441Y617955D01*
X1286423Y617963D01*
X1286256Y617981D01*
X1253744Y617981D01*
X1253724Y617978D01*
X1253705Y617980D01*
X1253603Y617958D01*
X1253501Y617942D01*
X1253484Y617932D01*
X1253464Y617928D01*
X1253375Y617875D01*
X1253284Y617826D01*
X1253270Y617812D01*
X1253253Y617802D01*
X1253186Y617723D01*
X1253114Y617648D01*
X1253106Y617630D01*
X1253093Y617615D01*
X1253054Y617519D01*
X1253011Y617425D01*
X1253009Y617405D01*
X1253001Y617387D01*
X1252983Y617220D01*
X1252983Y617032D01*
X1247328Y611377D01*
X1239332Y611377D01*
X1233677Y617032D01*
X1233677Y617220D01*
X1233674Y617240D01*
X1233676Y617259D01*
X1233654Y617361D01*
X1233638Y617463D01*
X1233628Y617480D01*
X1233624Y617500D01*
X1233571Y617589D01*
X1233522Y617680D01*
X1233508Y617694D01*
X1233498Y617711D01*
X1233419Y617778D01*
X1233344Y617850D01*
X1233326Y617858D01*
X1233311Y617871D01*
X1233215Y617910D01*
X1233121Y617953D01*
X1233101Y617955D01*
X1233083Y617963D01*
X1232916Y617981D01*
X1205991Y617981D01*
X1205991Y698500D01*
X1205988Y698520D01*
X1205990Y698539D01*
X1205968Y698641D01*
X1205952Y698743D01*
X1205942Y698760D01*
X1205938Y698780D01*
X1205885Y698869D01*
X1205836Y698960D01*
X1205822Y698974D01*
X1205812Y698991D01*
X1205733Y699058D01*
X1205658Y699130D01*
X1205640Y699138D01*
X1205625Y699151D01*
X1205529Y699190D01*
X1205435Y699233D01*
X1205415Y699235D01*
X1205397Y699243D01*
X1205230Y699261D01*
X1115060Y699261D01*
X1115040Y699258D01*
X1115021Y699260D01*
X1114919Y699238D01*
X1114817Y699222D01*
X1114800Y699212D01*
X1114780Y699208D01*
X1114691Y699155D01*
X1114600Y699106D01*
X1114586Y699092D01*
X1114569Y699082D01*
X1114502Y699003D01*
X1114431Y698928D01*
X1114422Y698910D01*
X1114409Y698895D01*
X1114370Y698799D01*
X1114327Y698705D01*
X1114325Y698685D01*
X1114317Y698667D01*
X1114299Y698500D01*
X1114299Y691804D01*
X1114314Y691714D01*
X1114321Y691623D01*
X1114333Y691594D01*
X1114339Y691562D01*
X1114381Y691481D01*
X1114417Y691397D01*
X1114443Y691365D01*
X1114454Y691344D01*
X1114477Y691322D01*
X1114522Y691266D01*
X1115569Y690219D01*
X1115569Y681381D01*
X1114522Y680334D01*
X1114469Y680260D01*
X1114409Y680190D01*
X1114397Y680160D01*
X1114378Y680134D01*
X1114351Y680047D01*
X1114317Y679962D01*
X1114313Y679921D01*
X1114306Y679899D01*
X1114307Y679867D01*
X1114299Y679796D01*
X1114299Y666404D01*
X1114314Y666314D01*
X1114321Y666223D01*
X1114333Y666194D01*
X1114339Y666162D01*
X1114381Y666081D01*
X1114417Y665997D01*
X1114443Y665965D01*
X1114454Y665944D01*
X1114477Y665922D01*
X1114522Y665866D01*
X1115569Y664819D01*
X1115569Y655981D01*
X1114522Y654934D01*
X1114469Y654860D01*
X1114409Y654790D01*
X1114397Y654760D01*
X1114378Y654734D01*
X1114351Y654647D01*
X1114317Y654562D01*
X1114313Y654521D01*
X1114306Y654499D01*
X1114307Y654467D01*
X1114299Y654396D01*
X1114299Y617981D01*
X1021238Y617981D01*
X1021148Y617967D01*
X1021057Y617959D01*
X1021027Y617947D01*
X1020995Y617942D01*
X1020915Y617899D01*
X1020831Y617863D01*
X1020799Y617837D01*
X1020778Y617826D01*
X1020756Y617803D01*
X1020729Y617782D01*
X1017657Y616509D01*
X1014343Y616509D01*
X1011263Y617785D01*
X1011226Y617811D01*
X1011157Y617871D01*
X1011127Y617883D01*
X1011101Y617902D01*
X1011014Y617929D01*
X1010929Y617963D01*
X1010888Y617967D01*
X1010866Y617974D01*
X1010833Y617973D01*
X1010762Y617981D01*
X967994Y617981D01*
X967974Y617978D01*
X967955Y617980D01*
X967853Y617958D01*
X967751Y617942D01*
X967734Y617932D01*
X967714Y617928D01*
X967625Y617875D01*
X967534Y617826D01*
X967520Y617812D01*
X967503Y617802D01*
X967436Y617723D01*
X967364Y617648D01*
X967356Y617630D01*
X967343Y617615D01*
X967304Y617519D01*
X967261Y617425D01*
X967259Y617405D01*
X967251Y617387D01*
X967233Y617220D01*
X967233Y617032D01*
X961578Y611377D01*
X953582Y611377D01*
X947927Y617032D01*
X947927Y617220D01*
X947924Y617240D01*
X947926Y617259D01*
X947904Y617361D01*
X947888Y617463D01*
X947878Y617480D01*
X947874Y617500D01*
X947821Y617589D01*
X947772Y617680D01*
X947758Y617694D01*
X947748Y617711D01*
X947669Y617778D01*
X947594Y617850D01*
X947576Y617858D01*
X947561Y617871D01*
X947465Y617910D01*
X947371Y617953D01*
X947351Y617955D01*
X947333Y617963D01*
X947166Y617981D01*
X913384Y617981D01*
X913364Y617978D01*
X913345Y617980D01*
X913243Y617958D01*
X913141Y617942D01*
X913124Y617932D01*
X913104Y617928D01*
X913015Y617875D01*
X912924Y617826D01*
X912910Y617812D01*
X912893Y617802D01*
X912826Y617723D01*
X912754Y617648D01*
X912746Y617630D01*
X912733Y617615D01*
X912694Y617519D01*
X912651Y617425D01*
X912649Y617405D01*
X912641Y617387D01*
X912623Y617220D01*
X912623Y617032D01*
X906968Y611377D01*
X898972Y611377D01*
X893317Y617032D01*
X893317Y617220D01*
X893314Y617240D01*
X893316Y617259D01*
X893294Y617361D01*
X893278Y617463D01*
X893268Y617480D01*
X893264Y617500D01*
X893211Y617589D01*
X893162Y617680D01*
X893148Y617694D01*
X893138Y617711D01*
X893059Y617778D01*
X892984Y617850D01*
X892966Y617858D01*
X892951Y617871D01*
X892855Y617910D01*
X892761Y617953D01*
X892741Y617955D01*
X892723Y617963D01*
X892556Y617981D01*
X851058Y617981D01*
X850968Y617967D01*
X850877Y617959D01*
X850847Y617947D01*
X850815Y617942D01*
X850735Y617899D01*
X850651Y617863D01*
X850619Y617837D01*
X850598Y617826D01*
X850576Y617803D01*
X850549Y617782D01*
X847477Y616509D01*
X844163Y616509D01*
X841083Y617785D01*
X841046Y617811D01*
X840977Y617871D01*
X840947Y617883D01*
X840921Y617902D01*
X840834Y617929D01*
X840749Y617963D01*
X840708Y617967D01*
X840686Y617974D01*
X840653Y617973D01*
X840582Y617981D01*
X796544Y617981D01*
X796524Y617978D01*
X796505Y617980D01*
X796403Y617958D01*
X796301Y617942D01*
X796284Y617932D01*
X796264Y617928D01*
X796175Y617875D01*
X796084Y617826D01*
X796070Y617812D01*
X796053Y617802D01*
X795986Y617723D01*
X795914Y617648D01*
X795906Y617630D01*
X795893Y617615D01*
X795854Y617519D01*
X795811Y617425D01*
X795809Y617405D01*
X795801Y617387D01*
X795783Y617220D01*
X795783Y617032D01*
X790128Y611377D01*
X782132Y611377D01*
X776477Y617032D01*
X776477Y617220D01*
X776474Y617240D01*
X776476Y617259D01*
X776454Y617361D01*
X776438Y617463D01*
X776428Y617480D01*
X776424Y617500D01*
X776371Y617589D01*
X776322Y617680D01*
X776308Y617694D01*
X776298Y617711D01*
X776219Y617778D01*
X776144Y617850D01*
X776126Y617858D01*
X776111Y617871D01*
X776015Y617910D01*
X775921Y617953D01*
X775901Y617955D01*
X775883Y617963D01*
X775716Y617981D01*
X680878Y617981D01*
X680788Y617967D01*
X680697Y617959D01*
X680667Y617947D01*
X680635Y617942D01*
X680555Y617899D01*
X680471Y617863D01*
X680439Y617837D01*
X680418Y617826D01*
X680396Y617803D01*
X680369Y617782D01*
X677297Y616509D01*
X673983Y616509D01*
X670903Y617785D01*
X670866Y617811D01*
X670797Y617871D01*
X670767Y617883D01*
X670741Y617902D01*
X670654Y617929D01*
X670569Y617963D01*
X670528Y617967D01*
X670506Y617974D01*
X670473Y617973D01*
X670402Y617981D01*
X626364Y617981D01*
X626344Y617978D01*
X626325Y617980D01*
X626223Y617958D01*
X626121Y617942D01*
X626104Y617932D01*
X626084Y617928D01*
X625995Y617875D01*
X625904Y617826D01*
X625890Y617812D01*
X625873Y617802D01*
X625806Y617723D01*
X625734Y617648D01*
X625726Y617630D01*
X625713Y617615D01*
X625674Y617519D01*
X625631Y617425D01*
X625629Y617405D01*
X625621Y617387D01*
X625603Y617220D01*
X625603Y617032D01*
X619948Y611377D01*
X611952Y611377D01*
X606297Y617032D01*
X606297Y617220D01*
X606294Y617240D01*
X606296Y617259D01*
X606274Y617361D01*
X606258Y617463D01*
X606248Y617480D01*
X606244Y617500D01*
X606191Y617589D01*
X606142Y617680D01*
X606128Y617694D01*
X606118Y617711D01*
X606039Y617778D01*
X605964Y617850D01*
X605946Y617858D01*
X605931Y617871D01*
X605835Y617910D01*
X605741Y617953D01*
X605721Y617955D01*
X605703Y617963D01*
X605536Y617981D01*
X573024Y617981D01*
X573004Y617978D01*
X572985Y617980D01*
X572883Y617958D01*
X572781Y617942D01*
X572764Y617932D01*
X572744Y617928D01*
X572655Y617875D01*
X572564Y617826D01*
X572550Y617812D01*
X572533Y617802D01*
X572466Y617723D01*
X572394Y617648D01*
X572386Y617630D01*
X572373Y617615D01*
X572334Y617519D01*
X572291Y617425D01*
X572289Y617405D01*
X572281Y617387D01*
X572263Y617220D01*
X572263Y617032D01*
X566608Y611377D01*
X558612Y611377D01*
X552957Y617032D01*
X552957Y617220D01*
X552954Y617240D01*
X552956Y617259D01*
X552934Y617361D01*
X552918Y617463D01*
X552908Y617480D01*
X552904Y617500D01*
X552851Y617589D01*
X552802Y617680D01*
X552788Y617694D01*
X552778Y617711D01*
X552699Y617778D01*
X552624Y617850D01*
X552606Y617858D01*
X552591Y617871D01*
X552495Y617910D01*
X552401Y617953D01*
X552381Y617955D01*
X552363Y617963D01*
X552196Y617981D01*
X510698Y617981D01*
X510608Y617967D01*
X510517Y617959D01*
X510487Y617947D01*
X510455Y617942D01*
X510375Y617899D01*
X510291Y617863D01*
X510259Y617837D01*
X510238Y617826D01*
X510216Y617803D01*
X510189Y617782D01*
X507117Y616509D01*
X503803Y616509D01*
X500723Y617785D01*
X500686Y617811D01*
X500617Y617871D01*
X500587Y617883D01*
X500561Y617902D01*
X500474Y617929D01*
X500389Y617963D01*
X500348Y617967D01*
X500326Y617974D01*
X500293Y617973D01*
X500222Y617981D01*
X456184Y617981D01*
X456164Y617978D01*
X456145Y617980D01*
X456043Y617958D01*
X455941Y617942D01*
X455924Y617932D01*
X455904Y617928D01*
X455815Y617875D01*
X455724Y617826D01*
X455710Y617812D01*
X455693Y617802D01*
X455626Y617723D01*
X455554Y617648D01*
X455546Y617630D01*
X455533Y617615D01*
X455494Y617519D01*
X455451Y617425D01*
X455449Y617405D01*
X455441Y617387D01*
X455423Y617220D01*
X455423Y617032D01*
X449768Y611377D01*
X441772Y611377D01*
X436117Y617032D01*
X436117Y617220D01*
X436114Y617240D01*
X436116Y617259D01*
X436094Y617361D01*
X436078Y617463D01*
X436068Y617480D01*
X436064Y617500D01*
X436011Y617589D01*
X435962Y617680D01*
X435948Y617694D01*
X435938Y617711D01*
X435859Y617778D01*
X435784Y617850D01*
X435766Y617858D01*
X435751Y617871D01*
X435655Y617910D01*
X435561Y617953D01*
X435541Y617955D01*
X435523Y617963D01*
X435356Y617981D01*
X402844Y617981D01*
X402824Y617978D01*
X402805Y617980D01*
X402703Y617958D01*
X402601Y617942D01*
X402584Y617932D01*
X402564Y617928D01*
X402475Y617875D01*
X402384Y617826D01*
X402370Y617812D01*
X402353Y617802D01*
X402286Y617723D01*
X402214Y617648D01*
X402206Y617630D01*
X402193Y617615D01*
X402154Y617519D01*
X402111Y617425D01*
X402109Y617405D01*
X402101Y617387D01*
X402083Y617220D01*
X402083Y617032D01*
X396428Y611377D01*
X388432Y611377D01*
X382777Y617032D01*
X382777Y617220D01*
X382774Y617240D01*
X382776Y617259D01*
X382754Y617361D01*
X382738Y617463D01*
X382728Y617480D01*
X382724Y617500D01*
X382671Y617589D01*
X382622Y617680D01*
X382608Y617694D01*
X382598Y617711D01*
X382519Y617778D01*
X382444Y617850D01*
X382426Y617858D01*
X382411Y617871D01*
X382315Y617910D01*
X382221Y617953D01*
X382201Y617955D01*
X382183Y617963D01*
X382016Y617981D01*
X340518Y617981D01*
X340428Y617967D01*
X340337Y617959D01*
X340307Y617947D01*
X340275Y617942D01*
X340195Y617899D01*
X340111Y617863D01*
X340079Y617837D01*
X340058Y617826D01*
X340036Y617803D01*
X340009Y617782D01*
X336937Y616509D01*
X333623Y616509D01*
X330543Y617785D01*
X330506Y617811D01*
X330437Y617871D01*
X330407Y617883D01*
X330381Y617902D01*
X330294Y617929D01*
X330209Y617963D01*
X330168Y617967D01*
X330146Y617974D01*
X330113Y617973D01*
X330042Y617981D01*
X286004Y617981D01*
X285984Y617978D01*
X285965Y617980D01*
X285863Y617958D01*
X285761Y617942D01*
X285744Y617932D01*
X285724Y617928D01*
X285635Y617875D01*
X285544Y617826D01*
X285530Y617812D01*
X285513Y617802D01*
X285446Y617723D01*
X285374Y617648D01*
X285366Y617630D01*
X285353Y617615D01*
X285314Y617519D01*
X285271Y617425D01*
X285269Y617405D01*
X285261Y617387D01*
X285243Y617220D01*
X285243Y617032D01*
X279588Y611377D01*
X271592Y611377D01*
X265937Y617032D01*
X265937Y617220D01*
X265934Y617240D01*
X265936Y617259D01*
X265914Y617361D01*
X265898Y617463D01*
X265888Y617480D01*
X265884Y617500D01*
X265831Y617589D01*
X265782Y617680D01*
X265768Y617694D01*
X265758Y617711D01*
X265679Y617778D01*
X265604Y617850D01*
X265586Y617858D01*
X265571Y617871D01*
X265475Y617910D01*
X265381Y617953D01*
X265361Y617955D01*
X265343Y617963D01*
X265176Y617981D01*
X232664Y617981D01*
X232644Y617978D01*
X232625Y617980D01*
X232523Y617958D01*
X232421Y617942D01*
X232404Y617932D01*
X232384Y617928D01*
X232295Y617875D01*
X232204Y617826D01*
X232190Y617812D01*
X232173Y617802D01*
X232106Y617723D01*
X232034Y617648D01*
X232026Y617630D01*
X232013Y617615D01*
X231974Y617519D01*
X231931Y617425D01*
X231929Y617405D01*
X231921Y617387D01*
X231903Y617220D01*
X231903Y617032D01*
X226248Y611377D01*
X218252Y611377D01*
X212597Y617032D01*
X212597Y617220D01*
X212594Y617240D01*
X212596Y617259D01*
X212574Y617361D01*
X212558Y617463D01*
X212548Y617480D01*
X212544Y617500D01*
X212491Y617589D01*
X212442Y617680D01*
X212428Y617694D01*
X212418Y617711D01*
X212339Y617778D01*
X212264Y617850D01*
X212246Y617858D01*
X212231Y617871D01*
X212135Y617910D01*
X212041Y617953D01*
X212021Y617955D01*
X212003Y617963D01*
X211836Y617981D01*
X170338Y617981D01*
X170248Y617967D01*
X170157Y617959D01*
X170127Y617947D01*
X170095Y617942D01*
X170015Y617899D01*
X169931Y617863D01*
X169899Y617837D01*
X169878Y617826D01*
X169856Y617803D01*
X169829Y617782D01*
X166757Y616509D01*
X163443Y616509D01*
X160363Y617785D01*
X160326Y617811D01*
X160257Y617871D01*
X160227Y617883D01*
X160201Y617902D01*
X160114Y617929D01*
X160029Y617963D01*
X159988Y617967D01*
X159966Y617974D01*
X159933Y617973D01*
X159862Y617981D01*
X115824Y617981D01*
X115804Y617978D01*
X115785Y617980D01*
X115683Y617958D01*
X115581Y617942D01*
X115564Y617932D01*
X115544Y617928D01*
X115455Y617875D01*
X115364Y617826D01*
X115350Y617812D01*
X115333Y617802D01*
X115266Y617723D01*
X115194Y617648D01*
X115186Y617630D01*
X115173Y617615D01*
X115134Y617519D01*
X115091Y617425D01*
X115089Y617405D01*
X115081Y617387D01*
X115063Y617220D01*
X115063Y617032D01*
X109408Y611377D01*
X101412Y611377D01*
X95757Y617032D01*
X95757Y617220D01*
X95754Y617240D01*
X95756Y617259D01*
X95734Y617361D01*
X95718Y617463D01*
X95708Y617480D01*
X95704Y617500D01*
X95651Y617589D01*
X95602Y617680D01*
X95588Y617694D01*
X95578Y617711D01*
X95499Y617778D01*
X95424Y617850D01*
X95406Y617858D01*
X95391Y617871D01*
X95295Y617910D01*
X95201Y617953D01*
X95181Y617955D01*
X95163Y617963D01*
X94996Y617981D01*
X62484Y617981D01*
X62464Y617978D01*
X62445Y617980D01*
X62343Y617958D01*
X62241Y617942D01*
X62224Y617932D01*
X62204Y617928D01*
X62115Y617875D01*
X62024Y617826D01*
X62010Y617812D01*
X61993Y617802D01*
X61926Y617723D01*
X61854Y617648D01*
X61846Y617630D01*
X61833Y617615D01*
X61794Y617519D01*
X61751Y617425D01*
X61749Y617405D01*
X61741Y617387D01*
X61723Y617220D01*
X61723Y617032D01*
X56068Y611377D01*
X54610Y611377D01*
X54590Y611374D01*
X54571Y611376D01*
X54469Y611354D01*
X54367Y611338D01*
X54350Y611328D01*
X54330Y611324D01*
X54241Y611271D01*
X54150Y611222D01*
X54136Y611208D01*
X54119Y611198D01*
X54052Y611119D01*
X53981Y611044D01*
X53972Y611026D01*
X53959Y611011D01*
X53920Y610915D01*
X53877Y610821D01*
X53875Y610801D01*
X53867Y610783D01*
X53849Y610616D01*
X53849Y556260D01*
X53852Y556240D01*
X53850Y556221D01*
X53872Y556119D01*
X53889Y556017D01*
X53898Y556000D01*
X53902Y555980D01*
X53955Y555891D01*
X54004Y555800D01*
X54018Y555786D01*
X54028Y555769D01*
X54107Y555702D01*
X54182Y555631D01*
X54200Y555622D01*
X54215Y555609D01*
X54311Y555570D01*
X54405Y555527D01*
X54425Y555525D01*
X54443Y555517D01*
X54610Y555499D01*
X168148Y555499D01*
X168168Y555502D01*
G37*
G36*
X623590Y730762D02*
X623590Y730762D01*
X623609Y730760D01*
X623711Y730782D01*
X623813Y730799D01*
X623830Y730808D01*
X623850Y730812D01*
X623939Y730865D01*
X624030Y730914D01*
X624044Y730928D01*
X624061Y730938D01*
X624128Y731017D01*
X624200Y731092D01*
X624208Y731110D01*
X624221Y731125D01*
X624260Y731221D01*
X624303Y731315D01*
X624305Y731335D01*
X624313Y731353D01*
X624331Y731520D01*
X624331Y845820D01*
X624328Y845840D01*
X624330Y845859D01*
X624308Y845961D01*
X624292Y846063D01*
X624282Y846080D01*
X624278Y846100D01*
X624225Y846189D01*
X624176Y846280D01*
X624162Y846294D01*
X624152Y846311D01*
X624073Y846378D01*
X623998Y846450D01*
X623980Y846458D01*
X623965Y846471D01*
X623869Y846510D01*
X623775Y846553D01*
X623755Y846555D01*
X623737Y846563D01*
X623570Y846581D01*
X525780Y846581D01*
X525760Y846578D01*
X525741Y846580D01*
X525639Y846558D01*
X525537Y846542D01*
X525520Y846532D01*
X525500Y846528D01*
X525411Y846475D01*
X525320Y846426D01*
X525306Y846412D01*
X525289Y846402D01*
X525222Y846323D01*
X525151Y846248D01*
X525142Y846230D01*
X525129Y846215D01*
X525090Y846119D01*
X525047Y846025D01*
X525045Y846005D01*
X525037Y845987D01*
X525019Y845820D01*
X525019Y731520D01*
X525022Y731500D01*
X525020Y731481D01*
X525042Y731379D01*
X525059Y731277D01*
X525068Y731260D01*
X525072Y731240D01*
X525125Y731151D01*
X525174Y731060D01*
X525188Y731046D01*
X525198Y731029D01*
X525277Y730962D01*
X525352Y730891D01*
X525370Y730882D01*
X525385Y730869D01*
X525481Y730830D01*
X525575Y730787D01*
X525595Y730785D01*
X525613Y730777D01*
X525780Y730759D01*
X623570Y730759D01*
X623590Y730762D01*
G37*
%LPC*%
G36*
X1168001Y648129D02*
X1168001Y648129D01*
X1160223Y651351D01*
X1154271Y657303D01*
X1151049Y665081D01*
X1151049Y673499D01*
X1154271Y681277D01*
X1160223Y687229D01*
X1168001Y690451D01*
X1176419Y690451D01*
X1184197Y687229D01*
X1190149Y681277D01*
X1193371Y673499D01*
X1193371Y665081D01*
X1190149Y657303D01*
X1184197Y651351D01*
X1176419Y648129D01*
X1168001Y648129D01*
G37*
%LPD*%
%LPC*%
G36*
X115282Y557502D02*
X115282Y557502D01*
X111276Y559162D01*
X108211Y562228D01*
X106551Y566233D01*
X106551Y570569D01*
X108211Y574575D01*
X111276Y577641D01*
X115282Y579300D01*
X119618Y579300D01*
X123624Y577641D01*
X126689Y574575D01*
X128349Y570569D01*
X128349Y566233D01*
X126689Y562228D01*
X123624Y559162D01*
X119618Y557502D01*
X115282Y557502D01*
G37*
%LPD*%
%LPC*%
G36*
X1332782Y557502D02*
X1332782Y557502D01*
X1328776Y559162D01*
X1325711Y562228D01*
X1324051Y566233D01*
X1324051Y570569D01*
X1325711Y574575D01*
X1328776Y577641D01*
X1332782Y579300D01*
X1337118Y579300D01*
X1341124Y577641D01*
X1344190Y574575D01*
X1345849Y570569D01*
X1345849Y566233D01*
X1344190Y562228D01*
X1341124Y559162D01*
X1337118Y557502D01*
X1332782Y557502D01*
G37*
%LPD*%
%LPC*%
G36*
X1477682Y557502D02*
X1477682Y557502D01*
X1473676Y559162D01*
X1470610Y562228D01*
X1468951Y566233D01*
X1468951Y570569D01*
X1470610Y574575D01*
X1473676Y577641D01*
X1477682Y579300D01*
X1482018Y579300D01*
X1486024Y577641D01*
X1489089Y574575D01*
X1490749Y570569D01*
X1490749Y566233D01*
X1489089Y562228D01*
X1486024Y559162D01*
X1482018Y557502D01*
X1477682Y557502D01*
G37*
%LPD*%
%LPC*%
G36*
X796482Y557502D02*
X796482Y557502D01*
X792476Y559162D01*
X789410Y562228D01*
X787751Y566233D01*
X787751Y570569D01*
X789410Y574575D01*
X792476Y577641D01*
X796482Y579300D01*
X800818Y579300D01*
X804824Y577641D01*
X807889Y574575D01*
X809549Y570569D01*
X809549Y566233D01*
X807889Y562228D01*
X804824Y559162D01*
X800818Y557502D01*
X796482Y557502D01*
G37*
%LPD*%
%LPC*%
G36*
X821882Y557502D02*
X821882Y557502D01*
X817876Y559162D01*
X814810Y562228D01*
X813151Y566233D01*
X813151Y570569D01*
X814810Y574575D01*
X817876Y577641D01*
X821882Y579300D01*
X826218Y579300D01*
X830224Y577641D01*
X833289Y574575D01*
X834949Y570569D01*
X834949Y566233D01*
X833289Y562228D01*
X830224Y559162D01*
X826218Y557502D01*
X821882Y557502D01*
G37*
%LPD*%
%LPC*%
G36*
X966782Y557502D02*
X966782Y557502D01*
X962776Y559162D01*
X959711Y562228D01*
X958051Y566233D01*
X958051Y570569D01*
X959711Y574575D01*
X962776Y577641D01*
X966782Y579300D01*
X971118Y579300D01*
X975124Y577641D01*
X978190Y574575D01*
X979849Y570569D01*
X979849Y566233D01*
X978190Y562228D01*
X975124Y559162D01*
X971118Y557502D01*
X966782Y557502D01*
G37*
%LPD*%
%LPC*%
G36*
X992182Y557502D02*
X992182Y557502D01*
X988176Y559162D01*
X985111Y562228D01*
X983451Y566233D01*
X983451Y570569D01*
X985111Y574575D01*
X988176Y577641D01*
X992182Y579300D01*
X996518Y579300D01*
X1000524Y577641D01*
X1003590Y574575D01*
X1005249Y570569D01*
X1005249Y566233D01*
X1003590Y562228D01*
X1000524Y559162D01*
X996518Y557502D01*
X992182Y557502D01*
G37*
%LPD*%
%LPC*%
G36*
X1503082Y557502D02*
X1503082Y557502D01*
X1499076Y559162D01*
X1496010Y562228D01*
X1494351Y566233D01*
X1494351Y570569D01*
X1496010Y574575D01*
X1499076Y577641D01*
X1503082Y579300D01*
X1507418Y579300D01*
X1511424Y577641D01*
X1514489Y574575D01*
X1516149Y570569D01*
X1516149Y566233D01*
X1514489Y562228D01*
X1511424Y559162D01*
X1507418Y557502D01*
X1503082Y557502D01*
G37*
%LPD*%
%LPC*%
G36*
X1137082Y557502D02*
X1137082Y557502D01*
X1133076Y559162D01*
X1130010Y562228D01*
X1128351Y566233D01*
X1128351Y570569D01*
X1130010Y574575D01*
X1133076Y577641D01*
X1137082Y579300D01*
X1141418Y579300D01*
X1145424Y577641D01*
X1148489Y574575D01*
X1150149Y570569D01*
X1150149Y566233D01*
X1148489Y562228D01*
X1145424Y559162D01*
X1141418Y557502D01*
X1137082Y557502D01*
G37*
%LPD*%
%LPC*%
G36*
X1162482Y557502D02*
X1162482Y557502D01*
X1158476Y559162D01*
X1155410Y562228D01*
X1153751Y566233D01*
X1153751Y570569D01*
X1155410Y574575D01*
X1158476Y577641D01*
X1162482Y579300D01*
X1166818Y579300D01*
X1170824Y577641D01*
X1173889Y574575D01*
X1175549Y570569D01*
X1175549Y566233D01*
X1173889Y562228D01*
X1170824Y559162D01*
X1166818Y557502D01*
X1162482Y557502D01*
G37*
%LPD*%
%LPC*%
G36*
X1307382Y557502D02*
X1307382Y557502D01*
X1303376Y559162D01*
X1300311Y562228D01*
X1298651Y566233D01*
X1298651Y570569D01*
X1300311Y574575D01*
X1303376Y577641D01*
X1307382Y579300D01*
X1311718Y579300D01*
X1315724Y577641D01*
X1318790Y574575D01*
X1320449Y570569D01*
X1320449Y566233D01*
X1318790Y562228D01*
X1315724Y559162D01*
X1311718Y557502D01*
X1307382Y557502D01*
G37*
%LPD*%
%LPC*%
G36*
X1647982Y557502D02*
X1647982Y557502D01*
X1643976Y559162D01*
X1640911Y562228D01*
X1639251Y566233D01*
X1639251Y570569D01*
X1640911Y574575D01*
X1643976Y577641D01*
X1647982Y579300D01*
X1652318Y579300D01*
X1656324Y577641D01*
X1659390Y574575D01*
X1661049Y570569D01*
X1661049Y566233D01*
X1659390Y562228D01*
X1656324Y559162D01*
X1652318Y557502D01*
X1647982Y557502D01*
G37*
%LPD*%
%LPC*%
G36*
X1673382Y557502D02*
X1673382Y557502D01*
X1669376Y559162D01*
X1666311Y562228D01*
X1664651Y566233D01*
X1664651Y570569D01*
X1666311Y574575D01*
X1669376Y577641D01*
X1673382Y579300D01*
X1677718Y579300D01*
X1681724Y577641D01*
X1684790Y574575D01*
X1686449Y570569D01*
X1686449Y566233D01*
X1684790Y562228D01*
X1681724Y559162D01*
X1677718Y557502D01*
X1673382Y557502D01*
G37*
%LPD*%
%LPC*%
G36*
X1818282Y557502D02*
X1818282Y557502D01*
X1814276Y559162D01*
X1811211Y562228D01*
X1809551Y566233D01*
X1809551Y570569D01*
X1811211Y574575D01*
X1814276Y577641D01*
X1818282Y579300D01*
X1822618Y579300D01*
X1826624Y577641D01*
X1829689Y574575D01*
X1831349Y570569D01*
X1831349Y566233D01*
X1829689Y562228D01*
X1826624Y559162D01*
X1822618Y557502D01*
X1818282Y557502D01*
G37*
%LPD*%
%LPC*%
G36*
X651582Y557502D02*
X651582Y557502D01*
X647576Y559162D01*
X644511Y562228D01*
X642851Y566233D01*
X642851Y570569D01*
X644511Y574575D01*
X647576Y577641D01*
X651582Y579300D01*
X655918Y579300D01*
X659924Y577641D01*
X662990Y574575D01*
X664649Y570569D01*
X664649Y566233D01*
X662990Y562228D01*
X659924Y559162D01*
X655918Y557502D01*
X651582Y557502D01*
G37*
%LPD*%
%LPC*%
G36*
X140682Y557502D02*
X140682Y557502D01*
X136676Y559162D01*
X133611Y562228D01*
X131951Y566233D01*
X131951Y570569D01*
X133611Y574575D01*
X136676Y577641D01*
X140682Y579300D01*
X145018Y579300D01*
X149024Y577641D01*
X152089Y574575D01*
X153749Y570569D01*
X153749Y566233D01*
X152089Y562228D01*
X149024Y559162D01*
X145018Y557502D01*
X140682Y557502D01*
G37*
%LPD*%
%LPC*%
G36*
X285582Y557502D02*
X285582Y557502D01*
X281576Y559162D01*
X278511Y562228D01*
X276851Y566233D01*
X276851Y570569D01*
X278511Y574575D01*
X281576Y577641D01*
X285582Y579300D01*
X289918Y579300D01*
X293924Y577641D01*
X296989Y574575D01*
X298649Y570569D01*
X298649Y566233D01*
X296989Y562228D01*
X293924Y559162D01*
X289918Y557502D01*
X285582Y557502D01*
G37*
%LPD*%
%LPC*%
G36*
X310982Y557502D02*
X310982Y557502D01*
X306976Y559162D01*
X303911Y562228D01*
X302251Y566233D01*
X302251Y570569D01*
X303911Y574575D01*
X306976Y577641D01*
X310982Y579300D01*
X315318Y579300D01*
X319324Y577641D01*
X322389Y574575D01*
X324049Y570569D01*
X324049Y566233D01*
X322389Y562228D01*
X319324Y559162D01*
X315318Y557502D01*
X310982Y557502D01*
G37*
%LPD*%
%LPC*%
G36*
X455882Y557502D02*
X455882Y557502D01*
X451876Y559162D01*
X448810Y562228D01*
X447151Y566233D01*
X447151Y570569D01*
X448810Y574575D01*
X451876Y577641D01*
X455882Y579300D01*
X460218Y579300D01*
X464224Y577641D01*
X467289Y574575D01*
X468949Y570569D01*
X468949Y566233D01*
X467289Y562228D01*
X464224Y559162D01*
X460218Y557502D01*
X455882Y557502D01*
G37*
%LPD*%
%LPC*%
G36*
X481282Y557502D02*
X481282Y557502D01*
X477276Y559162D01*
X474210Y562228D01*
X472551Y566233D01*
X472551Y570569D01*
X474210Y574575D01*
X477276Y577641D01*
X481282Y579300D01*
X485618Y579300D01*
X489624Y577641D01*
X492689Y574575D01*
X494349Y570569D01*
X494349Y566233D01*
X492689Y562228D01*
X489624Y559162D01*
X485618Y557502D01*
X481282Y557502D01*
G37*
%LPD*%
%LPC*%
G36*
X626182Y557502D02*
X626182Y557502D01*
X622176Y559162D01*
X619111Y562228D01*
X617451Y566233D01*
X617451Y570569D01*
X619111Y574575D01*
X622176Y577641D01*
X626182Y579300D01*
X630518Y579300D01*
X634524Y577641D01*
X637590Y574575D01*
X639249Y570569D01*
X639249Y566233D01*
X637590Y562228D01*
X634524Y559162D01*
X630518Y557502D01*
X626182Y557502D01*
G37*
%LPD*%
%LPC*%
G36*
X1843682Y557502D02*
X1843682Y557502D01*
X1839676Y559162D01*
X1836611Y562228D01*
X1834951Y566233D01*
X1834951Y570569D01*
X1836611Y574575D01*
X1839676Y577641D01*
X1843682Y579300D01*
X1848018Y579300D01*
X1852024Y577641D01*
X1855089Y574575D01*
X1856749Y570569D01*
X1856749Y566233D01*
X1855089Y562228D01*
X1852024Y559162D01*
X1848018Y557502D01*
X1843682Y557502D01*
G37*
%LPD*%
%LPC*%
G36*
X1122492Y611377D02*
X1122492Y611377D01*
X1117381Y616488D01*
X1116837Y617032D01*
X1116837Y625028D01*
X1122492Y630683D01*
X1130488Y630683D01*
X1136143Y625028D01*
X1136143Y617032D01*
X1135599Y616488D01*
X1130488Y611377D01*
X1122492Y611377D01*
G37*
%LPD*%
%LPC*%
G36*
X1131823Y687323D02*
X1131823Y687323D01*
X1131823Y695961D01*
X1134509Y695961D01*
X1140461Y690009D01*
X1140461Y687323D01*
X1131823Y687323D01*
G37*
%LPD*%
%LPC*%
G36*
X1131823Y661923D02*
X1131823Y661923D01*
X1131823Y670561D01*
X1134509Y670561D01*
X1140461Y664609D01*
X1140461Y661923D01*
X1131823Y661923D01*
G37*
%LPD*%
%LPC*%
G36*
X1120139Y687323D02*
X1120139Y687323D01*
X1120139Y690009D01*
X1126091Y695961D01*
X1128777Y695961D01*
X1128777Y687323D01*
X1120139Y687323D01*
G37*
%LPD*%
%LPC*%
G36*
X1131823Y675639D02*
X1131823Y675639D01*
X1131823Y684277D01*
X1140461Y684277D01*
X1140461Y681591D01*
X1134509Y675639D01*
X1131823Y675639D01*
G37*
%LPD*%
%LPC*%
G36*
X1120139Y661923D02*
X1120139Y661923D01*
X1120139Y664609D01*
X1126091Y670561D01*
X1128777Y670561D01*
X1128777Y661923D01*
X1120139Y661923D01*
G37*
%LPD*%
%LPC*%
G36*
X1131823Y650239D02*
X1131823Y650239D01*
X1131823Y658877D01*
X1140461Y658877D01*
X1140461Y656191D01*
X1134509Y650239D01*
X1131823Y650239D01*
G37*
%LPD*%
%LPC*%
G36*
X1126091Y675639D02*
X1126091Y675639D01*
X1120139Y681591D01*
X1120139Y684277D01*
X1128777Y684277D01*
X1128777Y675639D01*
X1126091Y675639D01*
G37*
%LPD*%
%LPC*%
G36*
X1126091Y650239D02*
X1126091Y650239D01*
X1120139Y656191D01*
X1120139Y658877D01*
X1128777Y658877D01*
X1128777Y650239D01*
X1126091Y650239D01*
G37*
%LPD*%
%LPC*%
G36*
X1260273Y569924D02*
X1260273Y569924D01*
X1260273Y578680D01*
X1261183Y578536D01*
X1262739Y578031D01*
X1264196Y577288D01*
X1265519Y576327D01*
X1266676Y575170D01*
X1267637Y573847D01*
X1268380Y572390D01*
X1268885Y570834D01*
X1269029Y569924D01*
X1260273Y569924D01*
G37*
%LPD*%
%LPC*%
G36*
X434173Y569924D02*
X434173Y569924D01*
X434173Y578680D01*
X435083Y578536D01*
X436639Y578031D01*
X438096Y577288D01*
X439419Y576327D01*
X440575Y575170D01*
X441537Y573847D01*
X442279Y572390D01*
X442785Y570834D01*
X442929Y569924D01*
X434173Y569924D01*
G37*
%LPD*%
%LPC*%
G36*
X68173Y569924D02*
X68173Y569924D01*
X68173Y578680D01*
X69083Y578536D01*
X70639Y578031D01*
X72096Y577288D01*
X73419Y576327D01*
X74576Y575170D01*
X75537Y573847D01*
X76279Y572390D01*
X76785Y570834D01*
X76929Y569924D01*
X68173Y569924D01*
G37*
%LPD*%
%LPC*%
G36*
X1285673Y569924D02*
X1285673Y569924D01*
X1285673Y578680D01*
X1286583Y578536D01*
X1288139Y578031D01*
X1289596Y577288D01*
X1290919Y576327D01*
X1292076Y575170D01*
X1293037Y573847D01*
X1293780Y572390D01*
X1294285Y570834D01*
X1294429Y569924D01*
X1285673Y569924D01*
G37*
%LPD*%
%LPC*%
G36*
X919673Y569924D02*
X919673Y569924D01*
X919673Y578680D01*
X920583Y578536D01*
X922139Y578031D01*
X923596Y577288D01*
X924919Y576327D01*
X926076Y575170D01*
X927037Y573847D01*
X927780Y572390D01*
X928285Y570834D01*
X928429Y569924D01*
X919673Y569924D01*
G37*
%LPD*%
%LPC*%
G36*
X604473Y569924D02*
X604473Y569924D01*
X604473Y578680D01*
X605383Y578536D01*
X606939Y578031D01*
X608396Y577288D01*
X609719Y576327D01*
X610876Y575170D01*
X611837Y573847D01*
X612579Y572390D01*
X613085Y570834D01*
X613229Y569924D01*
X604473Y569924D01*
G37*
%LPD*%
%LPC*%
G36*
X408773Y569924D02*
X408773Y569924D01*
X408773Y578680D01*
X409683Y578536D01*
X411239Y578031D01*
X412696Y577288D01*
X414019Y576327D01*
X415175Y575170D01*
X416137Y573847D01*
X416879Y572390D01*
X417385Y570834D01*
X417529Y569924D01*
X408773Y569924D01*
G37*
%LPD*%
%LPC*%
G36*
X1771173Y569924D02*
X1771173Y569924D01*
X1771173Y578680D01*
X1772083Y578536D01*
X1773639Y578031D01*
X1775096Y577288D01*
X1776419Y576327D01*
X1777576Y575170D01*
X1778537Y573847D01*
X1779279Y572390D01*
X1779785Y570834D01*
X1779929Y569924D01*
X1771173Y569924D01*
G37*
%LPD*%
%LPC*%
G36*
X1966873Y569924D02*
X1966873Y569924D01*
X1966873Y578680D01*
X1967783Y578536D01*
X1969339Y578031D01*
X1970796Y577288D01*
X1972119Y576327D01*
X1973276Y575170D01*
X1974237Y573847D01*
X1974979Y572390D01*
X1975485Y570834D01*
X1975629Y569924D01*
X1966873Y569924D01*
G37*
%LPD*%
%LPC*%
G36*
X1430573Y569924D02*
X1430573Y569924D01*
X1430573Y578680D01*
X1431483Y578536D01*
X1433039Y578031D01*
X1434496Y577288D01*
X1435819Y576327D01*
X1436976Y575170D01*
X1437937Y573847D01*
X1438679Y572390D01*
X1439185Y570834D01*
X1439329Y569924D01*
X1430573Y569924D01*
G37*
%LPD*%
%LPC*%
G36*
X774773Y569924D02*
X774773Y569924D01*
X774773Y578680D01*
X775683Y578536D01*
X777239Y578031D01*
X778696Y577288D01*
X780019Y576327D01*
X781176Y575170D01*
X782137Y573847D01*
X782879Y572390D01*
X783385Y570834D01*
X783529Y569924D01*
X774773Y569924D01*
G37*
%LPD*%
%LPC*%
G36*
X1941473Y569924D02*
X1941473Y569924D01*
X1941473Y578680D01*
X1942383Y578536D01*
X1943939Y578031D01*
X1945396Y577288D01*
X1946719Y576327D01*
X1947876Y575170D01*
X1948837Y573847D01*
X1949579Y572390D01*
X1950085Y570834D01*
X1950229Y569924D01*
X1941473Y569924D01*
G37*
%LPD*%
%LPC*%
G36*
X1455973Y569924D02*
X1455973Y569924D01*
X1455973Y578680D01*
X1456883Y578536D01*
X1458439Y578031D01*
X1459896Y577288D01*
X1461219Y576327D01*
X1462376Y575170D01*
X1463337Y573847D01*
X1464079Y572390D01*
X1464585Y570834D01*
X1464729Y569924D01*
X1455973Y569924D01*
G37*
%LPD*%
%LPC*%
G36*
X1089973Y569924D02*
X1089973Y569924D01*
X1089973Y578680D01*
X1090883Y578536D01*
X1092439Y578031D01*
X1093896Y577288D01*
X1095219Y576327D01*
X1096376Y575170D01*
X1097337Y573847D01*
X1098079Y572390D01*
X1098585Y570834D01*
X1098729Y569924D01*
X1089973Y569924D01*
G37*
%LPD*%
%LPC*%
G36*
X1796573Y569924D02*
X1796573Y569924D01*
X1796573Y578680D01*
X1797483Y578536D01*
X1799039Y578031D01*
X1800496Y577288D01*
X1801819Y576327D01*
X1802976Y575170D01*
X1803937Y573847D01*
X1804679Y572390D01*
X1805185Y570834D01*
X1805329Y569924D01*
X1796573Y569924D01*
G37*
%LPD*%
%LPC*%
G36*
X1600873Y569924D02*
X1600873Y569924D01*
X1600873Y578680D01*
X1601783Y578536D01*
X1603339Y578031D01*
X1604796Y577288D01*
X1606119Y576327D01*
X1607276Y575170D01*
X1608237Y573847D01*
X1608980Y572390D01*
X1609485Y570834D01*
X1609629Y569924D01*
X1600873Y569924D01*
G37*
%LPD*%
%LPC*%
G36*
X1626273Y569924D02*
X1626273Y569924D01*
X1626273Y578680D01*
X1627183Y578536D01*
X1628739Y578031D01*
X1630196Y577288D01*
X1631519Y576327D01*
X1632676Y575170D01*
X1633637Y573847D01*
X1634380Y572390D01*
X1634885Y570834D01*
X1635029Y569924D01*
X1626273Y569924D01*
G37*
%LPD*%
%LPC*%
G36*
X579073Y569924D02*
X579073Y569924D01*
X579073Y578680D01*
X579983Y578536D01*
X581539Y578031D01*
X582996Y577288D01*
X584319Y576327D01*
X585476Y575170D01*
X586437Y573847D01*
X587179Y572390D01*
X587685Y570834D01*
X587829Y569924D01*
X579073Y569924D01*
G37*
%LPD*%
%LPC*%
G36*
X263873Y569924D02*
X263873Y569924D01*
X263873Y578680D01*
X264783Y578536D01*
X266339Y578031D01*
X267796Y577288D01*
X269119Y576327D01*
X270276Y575170D01*
X271237Y573847D01*
X271979Y572390D01*
X272485Y570834D01*
X272629Y569924D01*
X263873Y569924D01*
G37*
%LPD*%
%LPC*%
G36*
X945073Y569924D02*
X945073Y569924D01*
X945073Y578680D01*
X945983Y578536D01*
X947539Y578031D01*
X948996Y577288D01*
X950319Y576327D01*
X951476Y575170D01*
X952437Y573847D01*
X953180Y572390D01*
X953685Y570834D01*
X953829Y569924D01*
X945073Y569924D01*
G37*
%LPD*%
%LPC*%
G36*
X238473Y569924D02*
X238473Y569924D01*
X238473Y578680D01*
X239383Y578536D01*
X240939Y578031D01*
X242396Y577288D01*
X243719Y576327D01*
X244876Y575170D01*
X245837Y573847D01*
X246579Y572390D01*
X247085Y570834D01*
X247229Y569924D01*
X238473Y569924D01*
G37*
%LPD*%
%LPC*%
G36*
X1115373Y569924D02*
X1115373Y569924D01*
X1115373Y578680D01*
X1116283Y578536D01*
X1117839Y578031D01*
X1119296Y577288D01*
X1120619Y576327D01*
X1121776Y575170D01*
X1122737Y573847D01*
X1123479Y572390D01*
X1123985Y570834D01*
X1124129Y569924D01*
X1115373Y569924D01*
G37*
%LPD*%
%LPC*%
G36*
X749373Y569924D02*
X749373Y569924D01*
X749373Y578680D01*
X750283Y578536D01*
X751839Y578031D01*
X753296Y577288D01*
X754619Y576327D01*
X755776Y575170D01*
X756737Y573847D01*
X757479Y572390D01*
X757985Y570834D01*
X758129Y569924D01*
X749373Y569924D01*
G37*
%LPD*%
%LPC*%
G36*
X93573Y569924D02*
X93573Y569924D01*
X93573Y578680D01*
X94483Y578536D01*
X96039Y578031D01*
X97496Y577288D01*
X98819Y576327D01*
X99976Y575170D01*
X100937Y573847D01*
X101679Y572390D01*
X102185Y570834D01*
X102329Y569924D01*
X93573Y569924D01*
G37*
%LPD*%
%LPC*%
G36*
X396971Y569924D02*
X396971Y569924D01*
X397115Y570834D01*
X397620Y572390D01*
X398363Y573847D01*
X399324Y575170D01*
X400481Y576327D01*
X401804Y577288D01*
X403261Y578031D01*
X404817Y578536D01*
X405727Y578680D01*
X405727Y569924D01*
X396971Y569924D01*
G37*
%LPD*%
%LPC*%
G36*
X252071Y569924D02*
X252071Y569924D01*
X252215Y570834D01*
X252721Y572390D01*
X253463Y573847D01*
X254424Y575170D01*
X255581Y576327D01*
X256904Y577288D01*
X258361Y578031D01*
X259917Y578536D01*
X260827Y578680D01*
X260827Y569924D01*
X252071Y569924D01*
G37*
%LPD*%
%LPC*%
G36*
X226671Y569924D02*
X226671Y569924D01*
X226815Y570834D01*
X227321Y572390D01*
X228063Y573847D01*
X229024Y575170D01*
X230181Y576327D01*
X231504Y577288D01*
X232961Y578031D01*
X234517Y578536D01*
X235427Y578680D01*
X235427Y569924D01*
X226671Y569924D01*
G37*
%LPD*%
%LPC*%
G36*
X1929671Y569924D02*
X1929671Y569924D01*
X1929815Y570834D01*
X1930320Y572390D01*
X1931063Y573847D01*
X1932024Y575170D01*
X1933181Y576327D01*
X1934504Y577288D01*
X1935961Y578031D01*
X1937517Y578536D01*
X1938427Y578680D01*
X1938427Y569924D01*
X1929671Y569924D01*
G37*
%LPD*%
%LPC*%
G36*
X56371Y569924D02*
X56371Y569924D01*
X56515Y570834D01*
X57021Y572390D01*
X57763Y573847D01*
X58724Y575170D01*
X59881Y576327D01*
X61204Y577288D01*
X62661Y578031D01*
X64217Y578536D01*
X65127Y578680D01*
X65127Y569924D01*
X56371Y569924D01*
G37*
%LPD*%
%LPC*%
G36*
X1759371Y569924D02*
X1759371Y569924D01*
X1759515Y570834D01*
X1760021Y572390D01*
X1760763Y573847D01*
X1761724Y575170D01*
X1762881Y576327D01*
X1764204Y577288D01*
X1765661Y578031D01*
X1767217Y578536D01*
X1768127Y578680D01*
X1768127Y569924D01*
X1759371Y569924D01*
G37*
%LPD*%
%LPC*%
G36*
X1614471Y569924D02*
X1614471Y569924D01*
X1614615Y570834D01*
X1615121Y572390D01*
X1615863Y573847D01*
X1616825Y575170D01*
X1617981Y576327D01*
X1619304Y577288D01*
X1620761Y578031D01*
X1622317Y578536D01*
X1623227Y578680D01*
X1623227Y569924D01*
X1614471Y569924D01*
G37*
%LPD*%
%LPC*%
G36*
X1589071Y569924D02*
X1589071Y569924D01*
X1589215Y570834D01*
X1589721Y572390D01*
X1590463Y573847D01*
X1591425Y575170D01*
X1592581Y576327D01*
X1593904Y577288D01*
X1595361Y578031D01*
X1596917Y578536D01*
X1597827Y578680D01*
X1597827Y569924D01*
X1589071Y569924D01*
G37*
%LPD*%
%LPC*%
G36*
X1444171Y569924D02*
X1444171Y569924D01*
X1444315Y570834D01*
X1444821Y572390D01*
X1445563Y573847D01*
X1446524Y575170D01*
X1447681Y576327D01*
X1449004Y577288D01*
X1450461Y578031D01*
X1452017Y578536D01*
X1452927Y578680D01*
X1452927Y569924D01*
X1444171Y569924D01*
G37*
%LPD*%
%LPC*%
G36*
X1418771Y569924D02*
X1418771Y569924D01*
X1418915Y570834D01*
X1419421Y572390D01*
X1420163Y573847D01*
X1421124Y575170D01*
X1422281Y576327D01*
X1423604Y577288D01*
X1425061Y578031D01*
X1426617Y578536D01*
X1427527Y578680D01*
X1427527Y569924D01*
X1418771Y569924D01*
G37*
%LPD*%
%LPC*%
G36*
X1273871Y569924D02*
X1273871Y569924D01*
X1274015Y570834D01*
X1274521Y572390D01*
X1275263Y573847D01*
X1276224Y575170D01*
X1277381Y576327D01*
X1278704Y577288D01*
X1280161Y578031D01*
X1281717Y578536D01*
X1282627Y578680D01*
X1282627Y569924D01*
X1273871Y569924D01*
G37*
%LPD*%
%LPC*%
G36*
X1248471Y569924D02*
X1248471Y569924D01*
X1248615Y570834D01*
X1249121Y572390D01*
X1249863Y573847D01*
X1250824Y575170D01*
X1251981Y576327D01*
X1253304Y577288D01*
X1254761Y578031D01*
X1256317Y578536D01*
X1257227Y578680D01*
X1257227Y569924D01*
X1248471Y569924D01*
G37*
%LPD*%
%LPC*%
G36*
X1103571Y569924D02*
X1103571Y569924D01*
X1103715Y570834D01*
X1104220Y572390D01*
X1104963Y573847D01*
X1105924Y575170D01*
X1107081Y576327D01*
X1108404Y577288D01*
X1109861Y578031D01*
X1111417Y578536D01*
X1112327Y578680D01*
X1112327Y569924D01*
X1103571Y569924D01*
G37*
%LPD*%
%LPC*%
G36*
X1784771Y569924D02*
X1784771Y569924D01*
X1784915Y570834D01*
X1785421Y572390D01*
X1786163Y573847D01*
X1787124Y575170D01*
X1788281Y576327D01*
X1789604Y577288D01*
X1791061Y578031D01*
X1792617Y578536D01*
X1793527Y578680D01*
X1793527Y569924D01*
X1784771Y569924D01*
G37*
%LPD*%
%LPC*%
G36*
X1078171Y569924D02*
X1078171Y569924D01*
X1078315Y570834D01*
X1078820Y572390D01*
X1079563Y573847D01*
X1080524Y575170D01*
X1081681Y576327D01*
X1083004Y577288D01*
X1084461Y578031D01*
X1086017Y578536D01*
X1086927Y578680D01*
X1086927Y569924D01*
X1078171Y569924D01*
G37*
%LPD*%
%LPC*%
G36*
X933271Y569924D02*
X933271Y569924D01*
X933415Y570834D01*
X933921Y572390D01*
X934663Y573847D01*
X935624Y575170D01*
X936781Y576327D01*
X938104Y577288D01*
X939561Y578031D01*
X941117Y578536D01*
X942027Y578680D01*
X942027Y569924D01*
X933271Y569924D01*
G37*
%LPD*%
%LPC*%
G36*
X1955071Y569924D02*
X1955071Y569924D01*
X1955215Y570834D01*
X1955720Y572390D01*
X1956463Y573847D01*
X1957424Y575170D01*
X1958581Y576327D01*
X1959904Y577288D01*
X1961361Y578031D01*
X1962917Y578536D01*
X1963827Y578680D01*
X1963827Y569924D01*
X1955071Y569924D01*
G37*
%LPD*%
%LPC*%
G36*
X907871Y569924D02*
X907871Y569924D01*
X908015Y570834D01*
X908521Y572390D01*
X909263Y573847D01*
X910224Y575170D01*
X911381Y576327D01*
X912704Y577288D01*
X914161Y578031D01*
X915717Y578536D01*
X916627Y578680D01*
X916627Y569924D01*
X907871Y569924D01*
G37*
%LPD*%
%LPC*%
G36*
X762971Y569924D02*
X762971Y569924D01*
X763115Y570834D01*
X763620Y572390D01*
X764363Y573847D01*
X765324Y575170D01*
X766481Y576327D01*
X767804Y577288D01*
X769261Y578031D01*
X770817Y578536D01*
X771727Y578680D01*
X771727Y569924D01*
X762971Y569924D01*
G37*
%LPD*%
%LPC*%
G36*
X737571Y569924D02*
X737571Y569924D01*
X737715Y570834D01*
X738220Y572390D01*
X738963Y573847D01*
X739924Y575170D01*
X741081Y576327D01*
X742404Y577288D01*
X743861Y578031D01*
X745417Y578536D01*
X746327Y578680D01*
X746327Y569924D01*
X737571Y569924D01*
G37*
%LPD*%
%LPC*%
G36*
X592671Y569924D02*
X592671Y569924D01*
X592815Y570834D01*
X593321Y572390D01*
X594063Y573847D01*
X595024Y575170D01*
X596181Y576327D01*
X597504Y577288D01*
X598961Y578031D01*
X600517Y578536D01*
X601427Y578680D01*
X601427Y569924D01*
X592671Y569924D01*
G37*
%LPD*%
%LPC*%
G36*
X567271Y569924D02*
X567271Y569924D01*
X567415Y570834D01*
X567921Y572390D01*
X568663Y573847D01*
X569624Y575170D01*
X570781Y576327D01*
X572104Y577288D01*
X573561Y578031D01*
X575117Y578536D01*
X576027Y578680D01*
X576027Y569924D01*
X567271Y569924D01*
G37*
%LPD*%
%LPC*%
G36*
X422371Y569924D02*
X422371Y569924D01*
X422515Y570834D01*
X423020Y572390D01*
X423763Y573847D01*
X424724Y575170D01*
X425881Y576327D01*
X427204Y577288D01*
X428661Y578031D01*
X430217Y578536D01*
X431127Y578680D01*
X431127Y569924D01*
X422371Y569924D01*
G37*
%LPD*%
%LPC*%
G36*
X81771Y569924D02*
X81771Y569924D01*
X81915Y570834D01*
X82421Y572390D01*
X83163Y573847D01*
X84124Y575170D01*
X85281Y576327D01*
X86604Y577288D01*
X88061Y578031D01*
X89617Y578536D01*
X90527Y578680D01*
X90527Y569924D01*
X81771Y569924D01*
G37*
%LPD*%
%LPC*%
G36*
X1260273Y566878D02*
X1260273Y566878D01*
X1269029Y566878D01*
X1268885Y565968D01*
X1268380Y564412D01*
X1267637Y562955D01*
X1266676Y561632D01*
X1265519Y560476D01*
X1264196Y559514D01*
X1262739Y558772D01*
X1261183Y558266D01*
X1260273Y558122D01*
X1260273Y566878D01*
G37*
%LPD*%
%LPC*%
G36*
X1966873Y566878D02*
X1966873Y566878D01*
X1975629Y566878D01*
X1975485Y565968D01*
X1974979Y564412D01*
X1974237Y562955D01*
X1973276Y561632D01*
X1972119Y560476D01*
X1970796Y559514D01*
X1969339Y558772D01*
X1967783Y558266D01*
X1966873Y558122D01*
X1966873Y566878D01*
G37*
%LPD*%
%LPC*%
G36*
X1285673Y566878D02*
X1285673Y566878D01*
X1294429Y566878D01*
X1294285Y565968D01*
X1293780Y564412D01*
X1293037Y562955D01*
X1292076Y561632D01*
X1290919Y560476D01*
X1289596Y559514D01*
X1288139Y558772D01*
X1286583Y558266D01*
X1285673Y558122D01*
X1285673Y566878D01*
G37*
%LPD*%
%LPC*%
G36*
X434173Y566878D02*
X434173Y566878D01*
X442929Y566878D01*
X442785Y565968D01*
X442279Y564412D01*
X441537Y562955D01*
X440575Y561632D01*
X439419Y560476D01*
X438096Y559514D01*
X436639Y558772D01*
X435083Y558266D01*
X434173Y558122D01*
X434173Y566878D01*
G37*
%LPD*%
%LPC*%
G36*
X1455973Y566878D02*
X1455973Y566878D01*
X1464729Y566878D01*
X1464585Y565968D01*
X1464079Y564412D01*
X1463337Y562955D01*
X1462376Y561632D01*
X1461219Y560476D01*
X1459896Y559514D01*
X1458439Y558772D01*
X1456883Y558266D01*
X1455973Y558122D01*
X1455973Y566878D01*
G37*
%LPD*%
%LPC*%
G36*
X1600873Y566878D02*
X1600873Y566878D01*
X1609629Y566878D01*
X1609485Y565968D01*
X1608980Y564412D01*
X1608237Y562955D01*
X1607276Y561632D01*
X1606119Y560476D01*
X1604796Y559514D01*
X1603339Y558772D01*
X1601783Y558266D01*
X1600873Y558122D01*
X1600873Y566878D01*
G37*
%LPD*%
%LPC*%
G36*
X68173Y566878D02*
X68173Y566878D01*
X76929Y566878D01*
X76785Y565968D01*
X76279Y564412D01*
X75537Y562955D01*
X74576Y561632D01*
X73419Y560476D01*
X72096Y559514D01*
X70639Y558772D01*
X69083Y558266D01*
X68173Y558122D01*
X68173Y566878D01*
G37*
%LPD*%
%LPC*%
G36*
X93573Y566878D02*
X93573Y566878D01*
X102329Y566878D01*
X102185Y565968D01*
X101679Y564412D01*
X100937Y562955D01*
X99976Y561632D01*
X98819Y560476D01*
X97496Y559514D01*
X96039Y558772D01*
X94483Y558266D01*
X93573Y558122D01*
X93573Y566878D01*
G37*
%LPD*%
%LPC*%
G36*
X1941473Y566878D02*
X1941473Y566878D01*
X1950229Y566878D01*
X1950085Y565968D01*
X1949579Y564412D01*
X1948837Y562955D01*
X1947876Y561632D01*
X1946719Y560476D01*
X1945396Y559514D01*
X1943939Y558772D01*
X1942383Y558266D01*
X1941473Y558122D01*
X1941473Y566878D01*
G37*
%LPD*%
%LPC*%
G36*
X238473Y566878D02*
X238473Y566878D01*
X247229Y566878D01*
X247085Y565968D01*
X246579Y564412D01*
X245837Y562955D01*
X244876Y561632D01*
X243719Y560476D01*
X242396Y559514D01*
X240939Y558772D01*
X239383Y558266D01*
X238473Y558122D01*
X238473Y566878D01*
G37*
%LPD*%
%LPC*%
G36*
X1626273Y566878D02*
X1626273Y566878D01*
X1635029Y566878D01*
X1634885Y565968D01*
X1634380Y564412D01*
X1633637Y562955D01*
X1632676Y561632D01*
X1631519Y560476D01*
X1630196Y559514D01*
X1628739Y558772D01*
X1627183Y558266D01*
X1626273Y558122D01*
X1626273Y566878D01*
G37*
%LPD*%
%LPC*%
G36*
X263873Y566878D02*
X263873Y566878D01*
X272629Y566878D01*
X272485Y565968D01*
X271979Y564412D01*
X271237Y562955D01*
X270276Y561632D01*
X269119Y560476D01*
X267796Y559514D01*
X266339Y558772D01*
X264783Y558266D01*
X263873Y558122D01*
X263873Y566878D01*
G37*
%LPD*%
%LPC*%
G36*
X408773Y566878D02*
X408773Y566878D01*
X417529Y566878D01*
X417385Y565968D01*
X416879Y564412D01*
X416137Y562955D01*
X415175Y561632D01*
X414019Y560476D01*
X412696Y559514D01*
X411239Y558772D01*
X409683Y558266D01*
X408773Y558122D01*
X408773Y566878D01*
G37*
%LPD*%
%LPC*%
G36*
X1430573Y566878D02*
X1430573Y566878D01*
X1439329Y566878D01*
X1439185Y565968D01*
X1438679Y564412D01*
X1437937Y562955D01*
X1436976Y561632D01*
X1435819Y560476D01*
X1434496Y559514D01*
X1433039Y558772D01*
X1431483Y558266D01*
X1430573Y558122D01*
X1430573Y566878D01*
G37*
%LPD*%
%LPC*%
G36*
X1771173Y566878D02*
X1771173Y566878D01*
X1779929Y566878D01*
X1779785Y565968D01*
X1779279Y564412D01*
X1778537Y562955D01*
X1777576Y561632D01*
X1776419Y560476D01*
X1775096Y559514D01*
X1773639Y558772D01*
X1772083Y558266D01*
X1771173Y558122D01*
X1771173Y566878D01*
G37*
%LPD*%
%LPC*%
G36*
X579073Y566878D02*
X579073Y566878D01*
X587829Y566878D01*
X587685Y565968D01*
X587179Y564412D01*
X586437Y562955D01*
X585476Y561632D01*
X584319Y560476D01*
X582996Y559514D01*
X581539Y558772D01*
X579983Y558266D01*
X579073Y558122D01*
X579073Y566878D01*
G37*
%LPD*%
%LPC*%
G36*
X604473Y566878D02*
X604473Y566878D01*
X613229Y566878D01*
X613085Y565968D01*
X612579Y564412D01*
X611837Y562955D01*
X610876Y561632D01*
X609719Y560476D01*
X608396Y559514D01*
X606939Y558772D01*
X605383Y558266D01*
X604473Y558122D01*
X604473Y566878D01*
G37*
%LPD*%
%LPC*%
G36*
X749373Y566878D02*
X749373Y566878D01*
X758129Y566878D01*
X757985Y565968D01*
X757479Y564412D01*
X756737Y562955D01*
X755776Y561632D01*
X754619Y560476D01*
X753296Y559514D01*
X751839Y558772D01*
X750283Y558266D01*
X749373Y558122D01*
X749373Y566878D01*
G37*
%LPD*%
%LPC*%
G36*
X774773Y566878D02*
X774773Y566878D01*
X783529Y566878D01*
X783385Y565968D01*
X782879Y564412D01*
X782137Y562955D01*
X781176Y561632D01*
X780019Y560476D01*
X778696Y559514D01*
X777239Y558772D01*
X775683Y558266D01*
X774773Y558122D01*
X774773Y566878D01*
G37*
%LPD*%
%LPC*%
G36*
X919673Y566878D02*
X919673Y566878D01*
X928429Y566878D01*
X928285Y565968D01*
X927780Y564412D01*
X927037Y562955D01*
X926076Y561632D01*
X924919Y560476D01*
X923596Y559514D01*
X922139Y558772D01*
X920583Y558266D01*
X919673Y558122D01*
X919673Y566878D01*
G37*
%LPD*%
%LPC*%
G36*
X1796573Y566878D02*
X1796573Y566878D01*
X1805329Y566878D01*
X1805185Y565968D01*
X1804679Y564412D01*
X1803937Y562955D01*
X1802976Y561632D01*
X1801819Y560476D01*
X1800496Y559514D01*
X1799039Y558772D01*
X1797483Y558266D01*
X1796573Y558122D01*
X1796573Y566878D01*
G37*
%LPD*%
%LPC*%
G36*
X945073Y566878D02*
X945073Y566878D01*
X953829Y566878D01*
X953685Y565968D01*
X953180Y564412D01*
X952437Y562955D01*
X951476Y561632D01*
X950319Y560476D01*
X948996Y559514D01*
X947539Y558772D01*
X945983Y558266D01*
X945073Y558122D01*
X945073Y566878D01*
G37*
%LPD*%
%LPC*%
G36*
X1089973Y566878D02*
X1089973Y566878D01*
X1098729Y566878D01*
X1098585Y565968D01*
X1098079Y564412D01*
X1097337Y562955D01*
X1096376Y561632D01*
X1095219Y560476D01*
X1093896Y559514D01*
X1092439Y558772D01*
X1090883Y558266D01*
X1089973Y558122D01*
X1089973Y566878D01*
G37*
%LPD*%
%LPC*%
G36*
X1115373Y566878D02*
X1115373Y566878D01*
X1124129Y566878D01*
X1123985Y565968D01*
X1123479Y564412D01*
X1122737Y562955D01*
X1121776Y561632D01*
X1120619Y560476D01*
X1119296Y559514D01*
X1117839Y558772D01*
X1116283Y558266D01*
X1115373Y558122D01*
X1115373Y566878D01*
G37*
%LPD*%
%LPC*%
G36*
X1111417Y558266D02*
X1111417Y558266D01*
X1109861Y558772D01*
X1108404Y559514D01*
X1107081Y560476D01*
X1105924Y561632D01*
X1104963Y562955D01*
X1104220Y564412D01*
X1103715Y565968D01*
X1103571Y566878D01*
X1112327Y566878D01*
X1112327Y558122D01*
X1111417Y558266D01*
G37*
%LPD*%
%LPC*%
G36*
X1937517Y558266D02*
X1937517Y558266D01*
X1935961Y558772D01*
X1934504Y559514D01*
X1933181Y560476D01*
X1932024Y561632D01*
X1931063Y562955D01*
X1930320Y564412D01*
X1929815Y565968D01*
X1929671Y566878D01*
X1938427Y566878D01*
X1938427Y558122D01*
X1937517Y558266D01*
G37*
%LPD*%
%LPC*%
G36*
X1086017Y558266D02*
X1086017Y558266D01*
X1084461Y558772D01*
X1083004Y559514D01*
X1081681Y560476D01*
X1080524Y561632D01*
X1079563Y562955D01*
X1078820Y564412D01*
X1078315Y565968D01*
X1078171Y566878D01*
X1086927Y566878D01*
X1086927Y558122D01*
X1086017Y558266D01*
G37*
%LPD*%
%LPC*%
G36*
X1962917Y558266D02*
X1962917Y558266D01*
X1961361Y558772D01*
X1959904Y559514D01*
X1958581Y560476D01*
X1957424Y561632D01*
X1956463Y562955D01*
X1955720Y564412D01*
X1955215Y565968D01*
X1955071Y566878D01*
X1963827Y566878D01*
X1963827Y558122D01*
X1962917Y558266D01*
G37*
%LPD*%
%LPC*%
G36*
X1256317Y558266D02*
X1256317Y558266D01*
X1254761Y558772D01*
X1253304Y559514D01*
X1251981Y560476D01*
X1250824Y561632D01*
X1249863Y562955D01*
X1249121Y564412D01*
X1248615Y565968D01*
X1248471Y566878D01*
X1257227Y566878D01*
X1257227Y558122D01*
X1256317Y558266D01*
G37*
%LPD*%
%LPC*%
G36*
X915717Y558266D02*
X915717Y558266D01*
X914161Y558772D01*
X912704Y559514D01*
X911381Y560476D01*
X910224Y561632D01*
X909263Y562955D01*
X908521Y564412D01*
X908015Y565968D01*
X907871Y566878D01*
X916627Y566878D01*
X916627Y558122D01*
X915717Y558266D01*
G37*
%LPD*%
%LPC*%
G36*
X1281717Y558266D02*
X1281717Y558266D01*
X1280161Y558772D01*
X1278704Y559514D01*
X1277381Y560476D01*
X1276224Y561632D01*
X1275263Y562955D01*
X1274521Y564412D01*
X1274015Y565968D01*
X1273871Y566878D01*
X1282627Y566878D01*
X1282627Y558122D01*
X1281717Y558266D01*
G37*
%LPD*%
%LPC*%
G36*
X1452017Y558266D02*
X1452017Y558266D01*
X1450461Y558772D01*
X1449004Y559514D01*
X1447681Y560476D01*
X1446524Y561632D01*
X1445563Y562955D01*
X1444821Y564412D01*
X1444315Y565968D01*
X1444171Y566878D01*
X1452927Y566878D01*
X1452927Y558122D01*
X1452017Y558266D01*
G37*
%LPD*%
%LPC*%
G36*
X770817Y558266D02*
X770817Y558266D01*
X769261Y558772D01*
X767804Y559514D01*
X766481Y560476D01*
X765324Y561632D01*
X764363Y562955D01*
X763620Y564412D01*
X763115Y565968D01*
X762971Y566878D01*
X771727Y566878D01*
X771727Y558122D01*
X770817Y558266D01*
G37*
%LPD*%
%LPC*%
G36*
X600517Y558266D02*
X600517Y558266D01*
X598961Y558772D01*
X597504Y559514D01*
X596181Y560476D01*
X595024Y561632D01*
X594063Y562955D01*
X593321Y564412D01*
X592815Y565968D01*
X592671Y566878D01*
X601427Y566878D01*
X601427Y558122D01*
X600517Y558266D01*
G37*
%LPD*%
%LPC*%
G36*
X575117Y558266D02*
X575117Y558266D01*
X573561Y558772D01*
X572104Y559514D01*
X570781Y560476D01*
X569624Y561632D01*
X568663Y562955D01*
X567921Y564412D01*
X567415Y565968D01*
X567271Y566878D01*
X576027Y566878D01*
X576027Y558122D01*
X575117Y558266D01*
G37*
%LPD*%
%LPC*%
G36*
X941117Y558266D02*
X941117Y558266D01*
X939561Y558772D01*
X938104Y559514D01*
X936781Y560476D01*
X935624Y561632D01*
X934663Y562955D01*
X933921Y564412D01*
X933415Y565968D01*
X933271Y566878D01*
X942027Y566878D01*
X942027Y558122D01*
X941117Y558266D01*
G37*
%LPD*%
%LPC*%
G36*
X430217Y558266D02*
X430217Y558266D01*
X428661Y558772D01*
X427204Y559514D01*
X425881Y560476D01*
X424724Y561632D01*
X423763Y562955D01*
X423020Y564412D01*
X422515Y565968D01*
X422371Y566878D01*
X431127Y566878D01*
X431127Y558122D01*
X430217Y558266D01*
G37*
%LPD*%
%LPC*%
G36*
X1767217Y558266D02*
X1767217Y558266D01*
X1765661Y558772D01*
X1764204Y559514D01*
X1762881Y560476D01*
X1761724Y561632D01*
X1760763Y562955D01*
X1760021Y564412D01*
X1759515Y565968D01*
X1759371Y566878D01*
X1768127Y566878D01*
X1768127Y558122D01*
X1767217Y558266D01*
G37*
%LPD*%
%LPC*%
G36*
X89617Y558266D02*
X89617Y558266D01*
X88061Y558772D01*
X86604Y559514D01*
X85281Y560476D01*
X84124Y561632D01*
X83163Y562955D01*
X82421Y564412D01*
X81915Y565968D01*
X81771Y566878D01*
X90527Y566878D01*
X90527Y558122D01*
X89617Y558266D01*
G37*
%LPD*%
%LPC*%
G36*
X745417Y558266D02*
X745417Y558266D01*
X743861Y558772D01*
X742404Y559514D01*
X741081Y560476D01*
X739924Y561632D01*
X738963Y562955D01*
X738220Y564412D01*
X737715Y565968D01*
X737571Y566878D01*
X746327Y566878D01*
X746327Y558122D01*
X745417Y558266D01*
G37*
%LPD*%
%LPC*%
G36*
X404817Y558266D02*
X404817Y558266D01*
X403261Y558772D01*
X401804Y559514D01*
X400481Y560476D01*
X399324Y561632D01*
X398363Y562955D01*
X397620Y564412D01*
X397115Y565968D01*
X396971Y566878D01*
X405727Y566878D01*
X405727Y558122D01*
X404817Y558266D01*
G37*
%LPD*%
%LPC*%
G36*
X64217Y558266D02*
X64217Y558266D01*
X62661Y558772D01*
X61204Y559514D01*
X59881Y560476D01*
X58724Y561632D01*
X57763Y562955D01*
X57021Y564412D01*
X56515Y565968D01*
X56371Y566878D01*
X65127Y566878D01*
X65127Y558122D01*
X64217Y558266D01*
G37*
%LPD*%
%LPC*%
G36*
X259917Y558266D02*
X259917Y558266D01*
X258361Y558772D01*
X256904Y559514D01*
X255581Y560476D01*
X254424Y561632D01*
X253463Y562955D01*
X252721Y564412D01*
X252215Y565968D01*
X252071Y566878D01*
X260827Y566878D01*
X260827Y558122D01*
X259917Y558266D01*
G37*
%LPD*%
%LPC*%
G36*
X234517Y558266D02*
X234517Y558266D01*
X232961Y558772D01*
X231504Y559514D01*
X230181Y560476D01*
X229024Y561632D01*
X228063Y562955D01*
X227321Y564412D01*
X226815Y565968D01*
X226671Y566878D01*
X235427Y566878D01*
X235427Y558122D01*
X234517Y558266D01*
G37*
%LPD*%
%LPC*%
G36*
X1426617Y558266D02*
X1426617Y558266D01*
X1425061Y558772D01*
X1423604Y559514D01*
X1422281Y560476D01*
X1421124Y561632D01*
X1420163Y562955D01*
X1419421Y564412D01*
X1418915Y565968D01*
X1418771Y566878D01*
X1427527Y566878D01*
X1427527Y558122D01*
X1426617Y558266D01*
G37*
%LPD*%
%LPC*%
G36*
X1622317Y558266D02*
X1622317Y558266D01*
X1620761Y558772D01*
X1619304Y559514D01*
X1617981Y560476D01*
X1616825Y561632D01*
X1615863Y562955D01*
X1615121Y564412D01*
X1614615Y565968D01*
X1614471Y566878D01*
X1623227Y566878D01*
X1623227Y558122D01*
X1622317Y558266D01*
G37*
%LPD*%
%LPC*%
G36*
X1596917Y558266D02*
X1596917Y558266D01*
X1595361Y558772D01*
X1593904Y559514D01*
X1592581Y560476D01*
X1591425Y561632D01*
X1590463Y562955D01*
X1589721Y564412D01*
X1589215Y565968D01*
X1589071Y566878D01*
X1597827Y566878D01*
X1597827Y558122D01*
X1596917Y558266D01*
G37*
%LPD*%
%LPC*%
G36*
X1792617Y558266D02*
X1792617Y558266D01*
X1791061Y558772D01*
X1789604Y559514D01*
X1788281Y560476D01*
X1787124Y561632D01*
X1786163Y562955D01*
X1785421Y564412D01*
X1784915Y565968D01*
X1784771Y566878D01*
X1793527Y566878D01*
X1793527Y558122D01*
X1792617Y558266D01*
G37*
%LPD*%
%LPC*%
G36*
X1639823Y602233D02*
X1639823Y602233D01*
X1639823Y609731D01*
X1640967Y609503D01*
X1642632Y608814D01*
X1644130Y607813D01*
X1645403Y606540D01*
X1646404Y605042D01*
X1647093Y603377D01*
X1647321Y602233D01*
X1639823Y602233D01*
G37*
%LPD*%
%LPC*%
G36*
X787653Y602233D02*
X787653Y602233D01*
X787653Y609731D01*
X788797Y609503D01*
X790462Y608814D01*
X791960Y607813D01*
X793233Y606540D01*
X794234Y605042D01*
X794923Y603377D01*
X795151Y602233D01*
X787653Y602233D01*
G37*
%LPD*%
%LPC*%
G36*
X1810003Y602233D02*
X1810003Y602233D01*
X1810003Y609731D01*
X1811147Y609503D01*
X1812812Y608814D01*
X1814310Y607813D01*
X1815583Y606540D01*
X1816584Y605042D01*
X1817273Y603377D01*
X1817501Y602233D01*
X1810003Y602233D01*
G37*
%LPD*%
%LPC*%
G36*
X447293Y602233D02*
X447293Y602233D01*
X447293Y609731D01*
X448437Y609503D01*
X450102Y608814D01*
X451600Y607813D01*
X452873Y606540D01*
X453874Y605042D01*
X454563Y603377D01*
X454791Y602233D01*
X447293Y602233D01*
G37*
%LPD*%
%LPC*%
G36*
X1920493Y602233D02*
X1920493Y602233D01*
X1920493Y609731D01*
X1921637Y609503D01*
X1923302Y608814D01*
X1924800Y607813D01*
X1926073Y606540D01*
X1927074Y605042D01*
X1927763Y603377D01*
X1927991Y602233D01*
X1920493Y602233D01*
G37*
%LPD*%
%LPC*%
G36*
X959103Y602233D02*
X959103Y602233D01*
X959103Y609731D01*
X960247Y609503D01*
X961912Y608814D01*
X963410Y607813D01*
X964683Y606540D01*
X965684Y605042D01*
X966373Y603377D01*
X966601Y602233D01*
X959103Y602233D01*
G37*
%LPD*%
%LPC*%
G36*
X1298193Y602233D02*
X1298193Y602233D01*
X1298193Y609731D01*
X1299337Y609503D01*
X1301002Y608814D01*
X1302500Y607813D01*
X1303773Y606540D01*
X1304774Y605042D01*
X1305463Y603377D01*
X1305691Y602233D01*
X1298193Y602233D01*
G37*
%LPD*%
%LPC*%
G36*
X277113Y602233D02*
X277113Y602233D01*
X277113Y609731D01*
X278257Y609503D01*
X279922Y608814D01*
X281420Y607813D01*
X282693Y606540D01*
X283694Y605042D01*
X284383Y603377D01*
X284611Y602233D01*
X277113Y602233D01*
G37*
%LPD*%
%LPC*%
G36*
X617473Y602233D02*
X617473Y602233D01*
X617473Y609731D01*
X618617Y609503D01*
X620282Y608814D01*
X621780Y607813D01*
X623053Y606540D01*
X624054Y605042D01*
X624743Y603377D01*
X624971Y602233D01*
X617473Y602233D01*
G37*
%LPD*%
%LPC*%
G36*
X1128013Y602233D02*
X1128013Y602233D01*
X1128013Y609731D01*
X1129157Y609503D01*
X1130822Y608814D01*
X1132320Y607813D01*
X1133593Y606540D01*
X1134594Y605042D01*
X1135283Y603377D01*
X1135511Y602233D01*
X1128013Y602233D01*
G37*
%LPD*%
%LPC*%
G36*
X106933Y602233D02*
X106933Y602233D01*
X106933Y609731D01*
X108077Y609503D01*
X109742Y608814D01*
X111240Y607813D01*
X112513Y606540D01*
X113514Y605042D01*
X114203Y603377D01*
X114431Y602233D01*
X106933Y602233D01*
G37*
%LPD*%
%LPC*%
G36*
X1468373Y602233D02*
X1468373Y602233D01*
X1468373Y609731D01*
X1469517Y609503D01*
X1471182Y608814D01*
X1472680Y607813D01*
X1473953Y606540D01*
X1474954Y605042D01*
X1475643Y603377D01*
X1475871Y602233D01*
X1468373Y602233D01*
G37*
%LPD*%
%LPC*%
G36*
X1639823Y599187D02*
X1639823Y599187D01*
X1647321Y599187D01*
X1647093Y598043D01*
X1646404Y596378D01*
X1645403Y594880D01*
X1644130Y593607D01*
X1642632Y592606D01*
X1640967Y591917D01*
X1639823Y591689D01*
X1639823Y599187D01*
G37*
%LPD*%
%LPC*%
G36*
X1457829Y602233D02*
X1457829Y602233D01*
X1458057Y603377D01*
X1458746Y605042D01*
X1459747Y606540D01*
X1461020Y607813D01*
X1462518Y608814D01*
X1464183Y609503D01*
X1465327Y609731D01*
X1465327Y602233D01*
X1457829Y602233D01*
G37*
%LPD*%
%LPC*%
G36*
X1909949Y602233D02*
X1909949Y602233D01*
X1910177Y603377D01*
X1910866Y605042D01*
X1911867Y606540D01*
X1913140Y607813D01*
X1914638Y608814D01*
X1916303Y609503D01*
X1917447Y609731D01*
X1917447Y602233D01*
X1909949Y602233D01*
G37*
%LPD*%
%LPC*%
G36*
X1799459Y602233D02*
X1799459Y602233D01*
X1799687Y603377D01*
X1800376Y605042D01*
X1801377Y606540D01*
X1802650Y607813D01*
X1804148Y608814D01*
X1805813Y609503D01*
X1806957Y609731D01*
X1806957Y602233D01*
X1799459Y602233D01*
G37*
%LPD*%
%LPC*%
G36*
X96389Y602233D02*
X96389Y602233D01*
X96617Y603377D01*
X97306Y605042D01*
X98307Y606540D01*
X99580Y607813D01*
X101078Y608814D01*
X102743Y609503D01*
X103887Y609731D01*
X103887Y602233D01*
X96389Y602233D01*
G37*
%LPD*%
%LPC*%
G36*
X948559Y602233D02*
X948559Y602233D01*
X948787Y603377D01*
X949476Y605042D01*
X950477Y606540D01*
X951750Y607813D01*
X953248Y608814D01*
X954913Y609503D01*
X956057Y609731D01*
X956057Y602233D01*
X948559Y602233D01*
G37*
%LPD*%
%LPC*%
G36*
X606929Y602233D02*
X606929Y602233D01*
X607157Y603377D01*
X607846Y605042D01*
X608847Y606540D01*
X610120Y607813D01*
X611618Y608814D01*
X613283Y609503D01*
X614427Y609731D01*
X614427Y602233D01*
X606929Y602233D01*
G37*
%LPD*%
%LPC*%
G36*
X777109Y602233D02*
X777109Y602233D01*
X777337Y603377D01*
X778026Y605042D01*
X779027Y606540D01*
X780300Y607813D01*
X781798Y608814D01*
X783463Y609503D01*
X784607Y609731D01*
X784607Y602233D01*
X777109Y602233D01*
G37*
%LPD*%
%LPC*%
G36*
X436749Y602233D02*
X436749Y602233D01*
X436977Y603377D01*
X437666Y605042D01*
X438667Y606540D01*
X439940Y607813D01*
X441438Y608814D01*
X443103Y609503D01*
X444247Y609731D01*
X444247Y602233D01*
X436749Y602233D01*
G37*
%LPD*%
%LPC*%
G36*
X266569Y602233D02*
X266569Y602233D01*
X266797Y603377D01*
X267486Y605042D01*
X268487Y606540D01*
X269760Y607813D01*
X271258Y608814D01*
X272923Y609503D01*
X274067Y609731D01*
X274067Y602233D01*
X266569Y602233D01*
G37*
%LPD*%
%LPC*%
G36*
X1287649Y602233D02*
X1287649Y602233D01*
X1287877Y603377D01*
X1288566Y605042D01*
X1289567Y606540D01*
X1290840Y607813D01*
X1292338Y608814D01*
X1294003Y609503D01*
X1295147Y609731D01*
X1295147Y602233D01*
X1287649Y602233D01*
G37*
%LPD*%
%LPC*%
G36*
X1920493Y599187D02*
X1920493Y599187D01*
X1927991Y599187D01*
X1927763Y598043D01*
X1927074Y596378D01*
X1926073Y594880D01*
X1924800Y593607D01*
X1923302Y592606D01*
X1921637Y591917D01*
X1920493Y591689D01*
X1920493Y599187D01*
G37*
%LPD*%
%LPC*%
G36*
X1128013Y599187D02*
X1128013Y599187D01*
X1135511Y599187D01*
X1135283Y598043D01*
X1134594Y596378D01*
X1133593Y594880D01*
X1132320Y593607D01*
X1130822Y592606D01*
X1129157Y591917D01*
X1128013Y591689D01*
X1128013Y599187D01*
G37*
%LPD*%
%LPC*%
G36*
X959103Y599187D02*
X959103Y599187D01*
X966601Y599187D01*
X966373Y598043D01*
X965684Y596378D01*
X964683Y594880D01*
X963410Y593607D01*
X961912Y592606D01*
X960247Y591917D01*
X959103Y591689D01*
X959103Y599187D01*
G37*
%LPD*%
%LPC*%
G36*
X277113Y599187D02*
X277113Y599187D01*
X284611Y599187D01*
X284383Y598043D01*
X283694Y596378D01*
X282693Y594880D01*
X281420Y593607D01*
X279922Y592606D01*
X278257Y591917D01*
X277113Y591689D01*
X277113Y599187D01*
G37*
%LPD*%
%LPC*%
G36*
X106933Y599187D02*
X106933Y599187D01*
X114431Y599187D01*
X114203Y598043D01*
X113514Y596378D01*
X112513Y594880D01*
X111240Y593607D01*
X109742Y592606D01*
X108077Y591917D01*
X106933Y591689D01*
X106933Y599187D01*
G37*
%LPD*%
%LPC*%
G36*
X1298193Y599187D02*
X1298193Y599187D01*
X1305691Y599187D01*
X1305463Y598043D01*
X1304774Y596378D01*
X1303773Y594880D01*
X1302500Y593607D01*
X1301002Y592606D01*
X1299337Y591917D01*
X1298193Y591689D01*
X1298193Y599187D01*
G37*
%LPD*%
%LPC*%
G36*
X1629279Y602233D02*
X1629279Y602233D01*
X1629507Y603377D01*
X1630196Y605042D01*
X1631197Y606540D01*
X1632470Y607813D01*
X1633968Y608814D01*
X1635633Y609503D01*
X1636777Y609731D01*
X1636777Y602233D01*
X1629279Y602233D01*
G37*
%LPD*%
%LPC*%
G36*
X787653Y599187D02*
X787653Y599187D01*
X795151Y599187D01*
X794923Y598043D01*
X794234Y596378D01*
X793233Y594880D01*
X791960Y593607D01*
X790462Y592606D01*
X788797Y591917D01*
X787653Y591689D01*
X787653Y599187D01*
G37*
%LPD*%
%LPC*%
G36*
X1810003Y599187D02*
X1810003Y599187D01*
X1817501Y599187D01*
X1817273Y598043D01*
X1816584Y596378D01*
X1815583Y594880D01*
X1814310Y593607D01*
X1812812Y592606D01*
X1811147Y591917D01*
X1810003Y591689D01*
X1810003Y599187D01*
G37*
%LPD*%
%LPC*%
G36*
X447293Y599187D02*
X447293Y599187D01*
X454791Y599187D01*
X454563Y598043D01*
X453874Y596378D01*
X452873Y594880D01*
X451600Y593607D01*
X450102Y592606D01*
X448437Y591917D01*
X447293Y591689D01*
X447293Y599187D01*
G37*
%LPD*%
%LPC*%
G36*
X1117469Y602233D02*
X1117469Y602233D01*
X1117697Y603377D01*
X1118386Y605042D01*
X1119387Y606540D01*
X1120660Y607813D01*
X1122158Y608814D01*
X1123823Y609503D01*
X1124967Y609731D01*
X1124967Y602233D01*
X1117469Y602233D01*
G37*
%LPD*%
%LPC*%
G36*
X1468373Y599187D02*
X1468373Y599187D01*
X1475871Y599187D01*
X1475643Y598043D01*
X1474954Y596378D01*
X1473953Y594880D01*
X1472680Y593607D01*
X1471182Y592606D01*
X1469517Y591917D01*
X1468373Y591689D01*
X1468373Y599187D01*
G37*
%LPD*%
%LPC*%
G36*
X617473Y599187D02*
X617473Y599187D01*
X624971Y599187D01*
X624743Y598043D01*
X624054Y596378D01*
X623053Y594880D01*
X621780Y593607D01*
X620282Y592606D01*
X618617Y591917D01*
X617473Y591689D01*
X617473Y599187D01*
G37*
%LPD*%
%LPC*%
G36*
X783463Y591917D02*
X783463Y591917D01*
X781798Y592606D01*
X780300Y593607D01*
X779027Y594880D01*
X778026Y596378D01*
X777337Y598043D01*
X777109Y599187D01*
X784607Y599187D01*
X784607Y591689D01*
X783463Y591917D01*
G37*
%LPD*%
%LPC*%
G36*
X954913Y591917D02*
X954913Y591917D01*
X953248Y592606D01*
X951750Y593607D01*
X950477Y594880D01*
X949476Y596378D01*
X948787Y598043D01*
X948559Y599187D01*
X956057Y599187D01*
X956057Y591689D01*
X954913Y591917D01*
G37*
%LPD*%
%LPC*%
G36*
X1123823Y591917D02*
X1123823Y591917D01*
X1122158Y592606D01*
X1120660Y593607D01*
X1119387Y594880D01*
X1118386Y596378D01*
X1117697Y598043D01*
X1117469Y599187D01*
X1124967Y599187D01*
X1124967Y591689D01*
X1123823Y591917D01*
G37*
%LPD*%
%LPC*%
G36*
X613283Y591917D02*
X613283Y591917D01*
X611618Y592606D01*
X610120Y593607D01*
X608847Y594880D01*
X607846Y596378D01*
X607157Y598043D01*
X606929Y599187D01*
X614427Y599187D01*
X614427Y591689D01*
X613283Y591917D01*
G37*
%LPD*%
%LPC*%
G36*
X1294003Y591917D02*
X1294003Y591917D01*
X1292338Y592606D01*
X1290840Y593607D01*
X1289567Y594880D01*
X1288566Y596378D01*
X1287877Y598043D01*
X1287649Y599187D01*
X1295147Y599187D01*
X1295147Y591689D01*
X1294003Y591917D01*
G37*
%LPD*%
%LPC*%
G36*
X1635633Y591917D02*
X1635633Y591917D01*
X1633968Y592606D01*
X1632470Y593607D01*
X1631197Y594880D01*
X1630196Y596378D01*
X1629507Y598043D01*
X1629279Y599187D01*
X1636777Y599187D01*
X1636777Y591689D01*
X1635633Y591917D01*
G37*
%LPD*%
%LPC*%
G36*
X1464183Y591917D02*
X1464183Y591917D01*
X1462518Y592606D01*
X1461020Y593607D01*
X1459747Y594880D01*
X1458746Y596378D01*
X1458057Y598043D01*
X1457829Y599187D01*
X1465327Y599187D01*
X1465327Y591689D01*
X1464183Y591917D01*
G37*
%LPD*%
%LPC*%
G36*
X1805813Y591917D02*
X1805813Y591917D01*
X1804148Y592606D01*
X1802650Y593607D01*
X1801377Y594880D01*
X1800376Y596378D01*
X1799687Y598043D01*
X1799459Y599187D01*
X1806957Y599187D01*
X1806957Y591689D01*
X1805813Y591917D01*
G37*
%LPD*%
%LPC*%
G36*
X102743Y591917D02*
X102743Y591917D01*
X101078Y592606D01*
X99580Y593607D01*
X98307Y594880D01*
X97306Y596378D01*
X96617Y598043D01*
X96389Y599187D01*
X103887Y599187D01*
X103887Y591689D01*
X102743Y591917D01*
G37*
%LPD*%
%LPC*%
G36*
X272923Y591917D02*
X272923Y591917D01*
X271258Y592606D01*
X269760Y593607D01*
X268487Y594880D01*
X267486Y596378D01*
X266797Y598043D01*
X266569Y599187D01*
X274067Y599187D01*
X274067Y591689D01*
X272923Y591917D01*
G37*
%LPD*%
%LPC*%
G36*
X1916303Y591917D02*
X1916303Y591917D01*
X1914638Y592606D01*
X1913140Y593607D01*
X1911867Y594880D01*
X1910866Y596378D01*
X1910177Y598043D01*
X1909949Y599187D01*
X1917447Y599187D01*
X1917447Y591689D01*
X1916303Y591917D01*
G37*
%LPD*%
%LPC*%
G36*
X443103Y591917D02*
X443103Y591917D01*
X441438Y592606D01*
X439940Y593607D01*
X438667Y594880D01*
X437666Y596378D01*
X436977Y598043D01*
X436749Y599187D01*
X444247Y599187D01*
X444247Y591689D01*
X443103Y591917D01*
G37*
%LPD*%
%LPC*%
G36*
X1258749Y568400D02*
X1258749Y568400D01*
X1258749Y568402D01*
X1258751Y568402D01*
X1258751Y568400D01*
X1258749Y568400D01*
G37*
%LPD*%
%LPC*%
G36*
X262349Y568400D02*
X262349Y568400D01*
X262349Y568402D01*
X262351Y568402D01*
X262351Y568400D01*
X262349Y568400D01*
G37*
%LPD*%
%LPC*%
G36*
X1284149Y568400D02*
X1284149Y568400D01*
X1284149Y568402D01*
X1284151Y568402D01*
X1284151Y568400D01*
X1284149Y568400D01*
G37*
%LPD*%
%LPC*%
G36*
X1429049Y568400D02*
X1429049Y568400D01*
X1429049Y568402D01*
X1429051Y568402D01*
X1429051Y568400D01*
X1429049Y568400D01*
G37*
%LPD*%
%LPC*%
G36*
X1454449Y568400D02*
X1454449Y568400D01*
X1454449Y568402D01*
X1454451Y568402D01*
X1454451Y568400D01*
X1454449Y568400D01*
G37*
%LPD*%
%LPC*%
G36*
X1599349Y568400D02*
X1599349Y568400D01*
X1599349Y568402D01*
X1599351Y568402D01*
X1599351Y568400D01*
X1599349Y568400D01*
G37*
%LPD*%
%LPC*%
G36*
X1624749Y568400D02*
X1624749Y568400D01*
X1624749Y568402D01*
X1624751Y568402D01*
X1624751Y568400D01*
X1624749Y568400D01*
G37*
%LPD*%
%LPC*%
G36*
X1795049Y568400D02*
X1795049Y568400D01*
X1795049Y568402D01*
X1795051Y568402D01*
X1795051Y568400D01*
X1795049Y568400D01*
G37*
%LPD*%
%LPC*%
G36*
X236949Y568400D02*
X236949Y568400D01*
X236949Y568402D01*
X236951Y568402D01*
X236951Y568400D01*
X236949Y568400D01*
G37*
%LPD*%
%LPC*%
G36*
X1939949Y568400D02*
X1939949Y568400D01*
X1939949Y568402D01*
X1939951Y568402D01*
X1939951Y568400D01*
X1939949Y568400D01*
G37*
%LPD*%
%LPC*%
G36*
X1965349Y568400D02*
X1965349Y568400D01*
X1965349Y568402D01*
X1965351Y568402D01*
X1965351Y568400D01*
X1965349Y568400D01*
G37*
%LPD*%
%LPC*%
G36*
X66649Y568400D02*
X66649Y568400D01*
X66649Y568402D01*
X66651Y568402D01*
X66651Y568400D01*
X66649Y568400D01*
G37*
%LPD*%
%LPC*%
G36*
X1126489Y600709D02*
X1126489Y600709D01*
X1126489Y600711D01*
X1126491Y600711D01*
X1126491Y600709D01*
X1126489Y600709D01*
G37*
%LPD*%
%LPC*%
G36*
X1296669Y600709D02*
X1296669Y600709D01*
X1296669Y600711D01*
X1296671Y600711D01*
X1296671Y600709D01*
X1296669Y600709D01*
G37*
%LPD*%
%LPC*%
G36*
X445769Y600709D02*
X445769Y600709D01*
X445769Y600711D01*
X445771Y600711D01*
X445771Y600709D01*
X445769Y600709D01*
G37*
%LPD*%
%LPC*%
G36*
X92049Y568400D02*
X92049Y568400D01*
X92049Y568402D01*
X92051Y568402D01*
X92051Y568400D01*
X92049Y568400D01*
G37*
%LPD*%
%LPC*%
G36*
X275589Y600709D02*
X275589Y600709D01*
X275589Y600711D01*
X275591Y600711D01*
X275591Y600709D01*
X275589Y600709D01*
G37*
%LPD*%
%LPC*%
G36*
X105409Y600709D02*
X105409Y600709D01*
X105409Y600711D01*
X105411Y600711D01*
X105411Y600709D01*
X105409Y600709D01*
G37*
%LPD*%
%LPC*%
G36*
X1918969Y600709D02*
X1918969Y600709D01*
X1918969Y600711D01*
X1918971Y600711D01*
X1918971Y600709D01*
X1918969Y600709D01*
G37*
%LPD*%
%LPC*%
G36*
X957579Y600709D02*
X957579Y600709D01*
X957579Y600711D01*
X957581Y600711D01*
X957581Y600709D01*
X957579Y600709D01*
G37*
%LPD*%
%LPC*%
G36*
X577549Y568400D02*
X577549Y568400D01*
X577549Y568402D01*
X577551Y568402D01*
X577551Y568400D01*
X577549Y568400D01*
G37*
%LPD*%
%LPC*%
G36*
X615949Y600709D02*
X615949Y600709D01*
X615949Y600711D01*
X615951Y600711D01*
X615951Y600709D01*
X615949Y600709D01*
G37*
%LPD*%
%LPC*%
G36*
X786129Y600709D02*
X786129Y600709D01*
X786129Y600711D01*
X786131Y600711D01*
X786131Y600709D01*
X786129Y600709D01*
G37*
%LPD*%
%LPC*%
G36*
X1466849Y600709D02*
X1466849Y600709D01*
X1466849Y600711D01*
X1466851Y600711D01*
X1466851Y600709D01*
X1466849Y600709D01*
G37*
%LPD*%
%LPC*%
G36*
X747849Y568400D02*
X747849Y568400D01*
X747849Y568402D01*
X747851Y568402D01*
X747851Y568400D01*
X747849Y568400D01*
G37*
%LPD*%
%LPC*%
G36*
X1808479Y600709D02*
X1808479Y600709D01*
X1808479Y600711D01*
X1808481Y600711D01*
X1808481Y600709D01*
X1808479Y600709D01*
G37*
%LPD*%
%LPC*%
G36*
X432649Y568400D02*
X432649Y568400D01*
X432649Y568402D01*
X432651Y568402D01*
X432651Y568400D01*
X432649Y568400D01*
G37*
%LPD*%
%LPC*%
G36*
X1130299Y685799D02*
X1130299Y685799D01*
X1130299Y685801D01*
X1130301Y685801D01*
X1130301Y685799D01*
X1130299Y685799D01*
G37*
%LPD*%
%LPC*%
G36*
X1638299Y600709D02*
X1638299Y600709D01*
X1638299Y600711D01*
X1638301Y600711D01*
X1638301Y600709D01*
X1638299Y600709D01*
G37*
%LPD*%
%LPC*%
G36*
X1130299Y660399D02*
X1130299Y660399D01*
X1130299Y660401D01*
X1130301Y660401D01*
X1130301Y660399D01*
X1130299Y660399D01*
G37*
%LPD*%
%LPC*%
G36*
X773249Y568400D02*
X773249Y568400D01*
X773249Y568402D01*
X773251Y568402D01*
X773251Y568400D01*
X773249Y568400D01*
G37*
%LPD*%
%LPC*%
G36*
X918149Y568400D02*
X918149Y568400D01*
X918149Y568402D01*
X918151Y568402D01*
X918151Y568400D01*
X918149Y568400D01*
G37*
%LPD*%
%LPC*%
G36*
X943549Y568400D02*
X943549Y568400D01*
X943549Y568402D01*
X943551Y568402D01*
X943551Y568400D01*
X943549Y568400D01*
G37*
%LPD*%
%LPC*%
G36*
X1769649Y568400D02*
X1769649Y568400D01*
X1769649Y568402D01*
X1769651Y568402D01*
X1769651Y568400D01*
X1769649Y568400D01*
G37*
%LPD*%
%LPC*%
G36*
X407249Y568400D02*
X407249Y568400D01*
X407249Y568402D01*
X407251Y568402D01*
X407251Y568400D01*
X407249Y568400D01*
G37*
%LPD*%
%LPC*%
G36*
X1088449Y568400D02*
X1088449Y568400D01*
X1088449Y568402D01*
X1088451Y568402D01*
X1088451Y568400D01*
X1088449Y568400D01*
G37*
%LPD*%
%LPC*%
G36*
X1113849Y568400D02*
X1113849Y568400D01*
X1113849Y568402D01*
X1113851Y568402D01*
X1113851Y568400D01*
X1113849Y568400D01*
G37*
%LPD*%
%LPC*%
G36*
X602949Y568400D02*
X602949Y568400D01*
X602949Y568402D01*
X602951Y568402D01*
X602951Y568400D01*
X602949Y568400D01*
G37*
%LPD*%
D10*
X577850Y672710D03*
X577850Y655710D03*
X603250Y672710D03*
X603250Y655710D03*
X535940Y700160D03*
X535940Y717160D03*
D11*
X565150Y700580D03*
X577850Y700580D03*
D12*
X590550Y746080D03*
D11*
X603250Y700580D03*
X615950Y700580D03*
D13*
X2016150Y543001D03*
D14*
X1990750Y543001D03*
X1965350Y543001D03*
X1939950Y543001D03*
X1914550Y543001D03*
X1889150Y543001D03*
X2016150Y568401D03*
X1990750Y568401D03*
X1965350Y568401D03*
X1939950Y568401D03*
X1914550Y568401D03*
X1889150Y568401D03*
D13*
X824050Y543001D03*
D14*
X798650Y543001D03*
X773250Y543001D03*
X747850Y543001D03*
X722450Y543001D03*
X697050Y543001D03*
X824050Y568401D03*
X798650Y568401D03*
X773250Y568401D03*
X747850Y568401D03*
X722450Y568401D03*
X697050Y568401D03*
D13*
X653750Y543001D03*
D14*
X628350Y543001D03*
X602950Y543001D03*
X577550Y543001D03*
X552150Y543001D03*
X526750Y543001D03*
X653750Y568401D03*
X628350Y568401D03*
X602950Y568401D03*
X577550Y568401D03*
X552150Y568401D03*
X526750Y568401D03*
D13*
X483450Y543001D03*
D14*
X458050Y543001D03*
X432650Y543001D03*
X407250Y543001D03*
X381850Y543001D03*
X356450Y543001D03*
X483450Y568401D03*
X458050Y568401D03*
X432650Y568401D03*
X407250Y568401D03*
X381850Y568401D03*
X356450Y568401D03*
D13*
X313150Y543001D03*
D14*
X287750Y543001D03*
X262350Y543001D03*
X236950Y543001D03*
X211550Y543001D03*
X186150Y543001D03*
X313150Y568401D03*
X287750Y568401D03*
X262350Y568401D03*
X236950Y568401D03*
X211550Y568401D03*
X186150Y568401D03*
D13*
X142850Y543001D03*
D14*
X117450Y543001D03*
X92050Y543001D03*
X66650Y543001D03*
X41250Y543001D03*
X15850Y543001D03*
X142850Y568401D03*
X117450Y568401D03*
X92050Y568401D03*
X66650Y568401D03*
X41250Y568401D03*
X15850Y568401D03*
D15*
X351500Y-4600D03*
X346500Y-4600D03*
X341500Y-4600D03*
X336500Y-4600D03*
X331500Y-4600D03*
X326500Y-4600D03*
X321500Y-4600D03*
X316500Y-4600D03*
X311500Y-4600D03*
X306500Y-4600D03*
X301500Y-4600D03*
X296500Y-4600D03*
X291500Y-4600D03*
X286500Y-4600D03*
X281500Y-4600D03*
X276500Y-4600D03*
X271500Y-4600D03*
X266500Y-4600D03*
X261500Y-4600D03*
X256500Y-4600D03*
X251500Y-4600D03*
X246500Y-4600D03*
X241500Y-4600D03*
X236500Y-4600D03*
X231500Y-4600D03*
X226500Y-4600D03*
X221500Y-4600D03*
X216500Y-4600D03*
X211500Y-4600D03*
X206500Y-4600D03*
X201500Y-4600D03*
X196500Y-4600D03*
X191500Y-4600D03*
X186500Y-4600D03*
X181500Y-4600D03*
X176500Y-4600D03*
X171500Y-4600D03*
X166500Y-4600D03*
X161500Y-4600D03*
X156500Y-4600D03*
D16*
X374000Y6650D03*
X134000Y6650D03*
D13*
X1845850Y543001D03*
D14*
X1820450Y543001D03*
X1795050Y543001D03*
X1769650Y543001D03*
X1744250Y543001D03*
X1718850Y543001D03*
X1845850Y568401D03*
X1820450Y568401D03*
X1795050Y568401D03*
X1769650Y568401D03*
X1744250Y568401D03*
X1718850Y568401D03*
D13*
X1675550Y543001D03*
D14*
X1650150Y543001D03*
X1624750Y543001D03*
X1599350Y543001D03*
X1573950Y543001D03*
X1548550Y543001D03*
X1675550Y568401D03*
X1650150Y568401D03*
X1624750Y568401D03*
X1599350Y568401D03*
X1573950Y568401D03*
X1548550Y568401D03*
D13*
X1505250Y543001D03*
D14*
X1479850Y543001D03*
X1454450Y543001D03*
X1429050Y543001D03*
X1403650Y543001D03*
X1378250Y543001D03*
X1505250Y568401D03*
X1479850Y568401D03*
X1454450Y568401D03*
X1429050Y568401D03*
X1403650Y568401D03*
X1378250Y568401D03*
D13*
X1334950Y543001D03*
D14*
X1309550Y543001D03*
X1284150Y543001D03*
X1258750Y543001D03*
X1233350Y543001D03*
X1207950Y543001D03*
X1334950Y568401D03*
X1309550Y568401D03*
X1284150Y568401D03*
X1258750Y568401D03*
X1233350Y568401D03*
X1207950Y568401D03*
D13*
X1164650Y543001D03*
D14*
X1139250Y543001D03*
X1113850Y543001D03*
X1088450Y543001D03*
X1063050Y543001D03*
X1037650Y543001D03*
X1164650Y568401D03*
X1139250Y568401D03*
X1113850Y568401D03*
X1088450Y568401D03*
X1063050Y568401D03*
X1037650Y568401D03*
D13*
X994350Y543001D03*
D14*
X968950Y543001D03*
X943550Y543001D03*
X918150Y543001D03*
X892750Y543001D03*
X867350Y543001D03*
X994350Y568401D03*
X968950Y568401D03*
X943550Y568401D03*
X918150Y568401D03*
X892750Y568401D03*
X867350Y568401D03*
D17*
X1808600Y751000D03*
D18*
X1808600Y725600D03*
X1783200Y751000D03*
X1783200Y725600D03*
X1757800Y751000D03*
X1757800Y725600D03*
X1732400Y751000D03*
X1732400Y725600D03*
X1707000Y751000D03*
X1707000Y725600D03*
X1681600Y751000D03*
X1681600Y725600D03*
X1656200Y751000D03*
X1656200Y725600D03*
X1630800Y751000D03*
X1630800Y725600D03*
X1605400Y751000D03*
X1605400Y725600D03*
X1580000Y751000D03*
X1580000Y725600D03*
X1554600Y751000D03*
X1554600Y725600D03*
X1529200Y751000D03*
X1529200Y725600D03*
X1503800Y751000D03*
X1503800Y725600D03*
X1478400Y751000D03*
X1478400Y725600D03*
X1453000Y751000D03*
X1453000Y725600D03*
X1427600Y751000D03*
X1427600Y725600D03*
X1402200Y751000D03*
X1402200Y725600D03*
X1376800Y751000D03*
X1376800Y725600D03*
X1351400Y751000D03*
X1351400Y725600D03*
X1326000Y751000D03*
X1326000Y725600D03*
D19*
X1003300Y660400D03*
X1003300Y685800D03*
X1028700Y660400D03*
X1028700Y685800D03*
X1054100Y660400D03*
X1054100Y685800D03*
X1079500Y660400D03*
X1079500Y685800D03*
X1104900Y660400D03*
X1104900Y685800D03*
X1130300Y660400D03*
X1130300Y685800D03*
X628650Y426720D03*
X628650Y452120D03*
X654050Y426720D03*
X654050Y452120D03*
X679450Y426720D03*
X679450Y452120D03*
X704850Y426720D03*
X704850Y452120D03*
X730250Y426720D03*
X730250Y452120D03*
X755650Y426720D03*
X755650Y452120D03*
X781050Y426720D03*
X781050Y452120D03*
X806450Y426720D03*
X806450Y452120D03*
X831850Y426720D03*
X831850Y452120D03*
X857250Y426720D03*
X857250Y452120D03*
X882650Y426720D03*
X882650Y452120D03*
X908050Y426720D03*
X908050Y452120D03*
X933450Y426720D03*
X933450Y452120D03*
X958850Y426720D03*
X958850Y452120D03*
X984250Y426720D03*
X984250Y452120D03*
X1009650Y426720D03*
X1009650Y452120D03*
X1035050Y426720D03*
X1035050Y452120D03*
X1060450Y426720D03*
X1060450Y452120D03*
X1085850Y426720D03*
X1085850Y452120D03*
X1111250Y426720D03*
X1111250Y452120D03*
D20*
X1111250Y20320D03*
X1111250Y-5080D03*
X1085850Y20320D03*
X1085850Y-5080D03*
X1060450Y20320D03*
X1060450Y-5080D03*
X1035050Y20320D03*
X1035050Y-5080D03*
X1009650Y20320D03*
X1009650Y-5080D03*
X984250Y20320D03*
X984250Y-5080D03*
X958850Y20320D03*
X958850Y-5080D03*
X933450Y20320D03*
X933450Y-5080D03*
X908050Y20320D03*
X908050Y-5080D03*
X882650Y20320D03*
X882650Y-5080D03*
X857250Y20320D03*
X857250Y-5080D03*
X831850Y20320D03*
X831850Y-5080D03*
X806450Y20320D03*
X806450Y-5080D03*
X781050Y20320D03*
X781050Y-5080D03*
X755650Y20320D03*
X755650Y-5080D03*
X730250Y20320D03*
X730250Y-5080D03*
X704850Y20320D03*
X704850Y-5080D03*
X679450Y20320D03*
X679450Y-5080D03*
X654050Y20320D03*
X654050Y-5080D03*
X628650Y20320D03*
X628650Y-5080D03*
D21*
X562610Y71120D03*
X537210Y71120D03*
X562610Y96520D03*
X537210Y96520D03*
X562610Y121920D03*
X537210Y121920D03*
X562610Y147320D03*
X537210Y147320D03*
X562610Y172720D03*
X537210Y172720D03*
X562610Y198120D03*
X537210Y198120D03*
X562610Y223520D03*
X537210Y223520D03*
X562610Y248920D03*
X537210Y248920D03*
X562610Y274320D03*
X537210Y274320D03*
X562610Y299720D03*
X537210Y299720D03*
X562610Y325120D03*
X537210Y325120D03*
X562610Y350520D03*
X537210Y350520D03*
X562610Y375920D03*
X537210Y375920D03*
D19*
X736600Y660400D03*
X736600Y685800D03*
X762000Y660400D03*
X762000Y685800D03*
X787400Y660400D03*
X787400Y685800D03*
X812800Y660400D03*
X812800Y685800D03*
X838200Y660400D03*
X838200Y685800D03*
X863600Y660400D03*
X863600Y685800D03*
D22*
X1286710Y418440D03*
X1286710Y408940D03*
X1286710Y399440D03*
X1311710Y399440D03*
X1311710Y418440D03*
X1286710Y456540D03*
X1286710Y447040D03*
X1286710Y437540D03*
X1311710Y437540D03*
X1311710Y456540D03*
X1286710Y380340D03*
X1286710Y370840D03*
X1286710Y361340D03*
X1311710Y361340D03*
X1311710Y380340D03*
D23*
X2019300Y190500D03*
D24*
X2019300Y160528D03*
D25*
X2038858Y220472D03*
X2038858Y130556D03*
D26*
X1943100Y817000D03*
X1943100Y834000D03*
X1943100Y778900D03*
X1943100Y795900D03*
D23*
X1038860Y938530D03*
D24*
X1008888Y938530D03*
X978916Y938530D03*
X1038860Y968502D03*
X1008888Y968502D03*
X978916Y968502D03*
X1068832Y977900D03*
X948944Y977900D03*
D23*
X600710Y963930D03*
D24*
X570738Y963930D03*
D25*
X630682Y944372D03*
X540766Y944372D03*
D23*
X1983740Y815340D03*
D24*
X1983740Y845312D03*
X1983740Y875284D03*
X2013712Y815340D03*
X2013712Y845312D03*
X2013712Y875284D03*
X2023110Y785368D03*
X2023110Y905256D03*
D26*
X1943100Y664600D03*
X1943100Y681600D03*
X1943100Y626500D03*
X1943100Y643500D03*
D23*
X1983740Y659130D03*
D24*
X1983740Y689102D03*
X1983740Y719074D03*
X2013712Y659130D03*
X2013712Y689102D03*
X2013712Y719074D03*
X2023110Y629158D03*
X2023110Y749046D03*
D27*
X1918970Y621030D03*
D28*
X1918970Y600710D03*
D27*
X1808480Y621030D03*
D28*
X1808480Y600710D03*
D27*
X1638300Y621030D03*
D28*
X1638300Y600710D03*
D27*
X1466850Y621030D03*
D28*
X1466850Y600710D03*
D27*
X1296670Y621030D03*
D28*
X1296670Y600710D03*
D27*
X1126490Y621030D03*
D28*
X1126490Y600710D03*
D27*
X957580Y621030D03*
D28*
X957580Y600710D03*
D27*
X786130Y621030D03*
D28*
X786130Y600710D03*
D27*
X615950Y621030D03*
D28*
X615950Y600710D03*
D27*
X445770Y621030D03*
D28*
X445770Y600710D03*
D27*
X275590Y621030D03*
D28*
X275590Y600710D03*
D27*
X105410Y621030D03*
D28*
X105410Y600710D03*
D29*
X1756410Y621030D03*
D28*
X1756410Y641350D03*
D29*
X1584960Y621030D03*
D28*
X1584960Y641350D03*
D29*
X1413510Y621030D03*
D28*
X1413510Y641350D03*
D29*
X1243330Y621030D03*
D28*
X1243330Y641350D03*
D29*
X902970Y621030D03*
D28*
X902970Y641350D03*
D29*
X562610Y621030D03*
D28*
X562610Y641350D03*
D29*
X392430Y621030D03*
D28*
X392430Y641350D03*
D29*
X222250Y621030D03*
D28*
X222250Y641350D03*
D29*
X52070Y621030D03*
D28*
X52070Y641350D03*
D30*
X543560Y876300D03*
D28*
X523240Y876300D03*
D29*
X800100Y967740D03*
D28*
X800100Y988060D03*
D31*
X1170940Y762000D03*
D28*
X1191260Y762000D03*
D26*
X1268340Y457200D03*
X1251340Y457200D03*
X1350400Y457200D03*
X1367400Y457200D03*
X1268340Y419100D03*
X1251340Y419100D03*
X1350400Y419100D03*
X1367400Y419100D03*
X1268340Y381000D03*
X1251340Y381000D03*
X1350400Y381000D03*
X1367400Y381000D03*
D32*
G36*
X1083520Y48339D02*
X1087763Y52582D01*
X1092712Y47633D01*
X1088469Y43390D01*
X1083520Y48339D01*
G37*
G36*
X1076448Y41267D02*
X1080691Y45510D01*
X1085640Y40561D01*
X1081397Y36318D01*
X1076448Y41267D01*
G37*
G36*
X1058120Y48339D02*
X1062363Y52582D01*
X1067312Y47633D01*
X1063069Y43390D01*
X1058120Y48339D01*
G37*
G36*
X1051048Y41267D02*
X1055291Y45510D01*
X1060240Y40561D01*
X1055997Y36318D01*
X1051048Y41267D01*
G37*
G36*
X1032720Y48339D02*
X1036963Y52582D01*
X1041912Y47633D01*
X1037669Y43390D01*
X1032720Y48339D01*
G37*
G36*
X1025648Y41267D02*
X1029891Y45510D01*
X1034840Y40561D01*
X1030597Y36318D01*
X1025648Y41267D01*
G37*
G36*
X981920Y48339D02*
X986163Y52582D01*
X991112Y47633D01*
X986869Y43390D01*
X981920Y48339D01*
G37*
G36*
X974848Y41267D02*
X979091Y45510D01*
X984040Y40561D01*
X979797Y36318D01*
X974848Y41267D01*
G37*
G36*
X956520Y48339D02*
X960763Y52582D01*
X965712Y47633D01*
X961469Y43390D01*
X956520Y48339D01*
G37*
G36*
X949448Y41267D02*
X953691Y45510D01*
X958640Y40561D01*
X954397Y36318D01*
X949448Y41267D01*
G37*
G36*
X931120Y48339D02*
X935363Y52582D01*
X940312Y47633D01*
X936069Y43390D01*
X931120Y48339D01*
G37*
G36*
X924048Y41267D02*
X928291Y45510D01*
X933240Y40561D01*
X928997Y36318D01*
X924048Y41267D01*
G37*
G36*
X905720Y48339D02*
X909963Y52582D01*
X914912Y47633D01*
X910669Y43390D01*
X905720Y48339D01*
G37*
G36*
X898648Y41267D02*
X902891Y45510D01*
X907840Y40561D01*
X903597Y36318D01*
X898648Y41267D01*
G37*
G36*
X880320Y48339D02*
X884563Y52582D01*
X889512Y47633D01*
X885269Y43390D01*
X880320Y48339D01*
G37*
G36*
X873248Y41267D02*
X877491Y45510D01*
X882440Y40561D01*
X878197Y36318D01*
X873248Y41267D01*
G37*
G36*
X854920Y48339D02*
X859163Y52582D01*
X864112Y47633D01*
X859869Y43390D01*
X854920Y48339D01*
G37*
G36*
X847848Y41267D02*
X852091Y45510D01*
X857040Y40561D01*
X852797Y36318D01*
X847848Y41267D01*
G37*
G36*
X829520Y48339D02*
X833763Y52582D01*
X838712Y47633D01*
X834469Y43390D01*
X829520Y48339D01*
G37*
G36*
X822448Y41267D02*
X826691Y45510D01*
X831640Y40561D01*
X827397Y36318D01*
X822448Y41267D01*
G37*
G36*
X804120Y48339D02*
X808363Y52582D01*
X813312Y47633D01*
X809069Y43390D01*
X804120Y48339D01*
G37*
G36*
X797048Y41267D02*
X801291Y45510D01*
X806240Y40561D01*
X801997Y36318D01*
X797048Y41267D01*
G37*
G36*
X753320Y48339D02*
X757563Y52582D01*
X762512Y47633D01*
X758269Y43390D01*
X753320Y48339D01*
G37*
G36*
X746248Y41267D02*
X750491Y45510D01*
X755440Y40561D01*
X751197Y36318D01*
X746248Y41267D01*
G37*
G36*
X727920Y48339D02*
X732163Y52582D01*
X737112Y47633D01*
X732869Y43390D01*
X727920Y48339D01*
G37*
G36*
X720848Y41267D02*
X725091Y45510D01*
X730040Y40561D01*
X725797Y36318D01*
X720848Y41267D01*
G37*
G36*
X702520Y48339D02*
X706763Y52582D01*
X711712Y47633D01*
X707469Y43390D01*
X702520Y48339D01*
G37*
G36*
X695448Y41267D02*
X699691Y45510D01*
X704640Y40561D01*
X700397Y36318D01*
X695448Y41267D01*
G37*
G36*
X677120Y48339D02*
X681363Y52582D01*
X686312Y47633D01*
X682069Y43390D01*
X677120Y48339D01*
G37*
G36*
X670048Y41267D02*
X674291Y45510D01*
X679240Y40561D01*
X674997Y36318D01*
X670048Y41267D01*
G37*
D33*
X1601920Y838200D03*
X1601920Y850900D03*
X1601920Y863600D03*
X1601920Y876300D03*
X1601920Y889000D03*
X1601920Y901700D03*
X1601920Y914400D03*
X1547680Y914400D03*
X1547680Y901700D03*
X1547680Y889000D03*
X1547680Y876300D03*
X1547680Y863600D03*
X1547680Y850900D03*
X1547680Y838200D03*
D10*
X1606160Y933450D03*
X1589160Y933450D03*
D26*
X1619640Y838200D03*
X1636640Y838200D03*
X1529960Y838200D03*
X1512960Y838200D03*
X1529960Y876300D03*
X1512960Y876300D03*
D32*
G36*
X651720Y48339D02*
X655963Y52582D01*
X660912Y47633D01*
X656669Y43390D01*
X651720Y48339D01*
G37*
G36*
X644648Y41267D02*
X648891Y45510D01*
X653840Y40561D01*
X649597Y36318D01*
X644648Y41267D01*
G37*
G36*
X1009440Y40561D02*
X1005197Y36318D01*
X1000248Y41267D01*
X1004491Y45510D01*
X1009440Y40561D01*
G37*
G36*
X1016512Y47633D02*
X1012269Y43390D01*
X1007320Y48339D01*
X1011563Y52582D01*
X1016512Y47633D01*
G37*
X699850Y471170D03*
X709850Y471170D03*
G36*
X754301Y475190D02*
X750058Y479433D01*
X755007Y484382D01*
X759250Y480139D01*
X754301Y475190D01*
G37*
G36*
X761373Y468118D02*
X757130Y472361D01*
X762079Y477310D01*
X766322Y473067D01*
X761373Y468118D01*
G37*
D34*
X805434Y481250D03*
X805434Y471250D03*
X834390Y481250D03*
X834390Y471250D03*
X863346Y481250D03*
X863346Y471250D03*
X892302Y481250D03*
X892302Y471250D03*
X995426Y481250D03*
X995426Y471250D03*
X1026414Y481250D03*
X1026414Y471250D03*
D32*
G36*
X1062438Y480139D02*
X1066681Y484382D01*
X1071630Y479433D01*
X1067387Y475190D01*
X1062438Y480139D01*
G37*
G36*
X1055366Y473067D02*
X1059609Y477310D01*
X1064558Y472361D01*
X1060315Y468118D01*
X1055366Y473067D01*
G37*
X1140380Y426720D03*
X1130380Y426720D03*
X735250Y474980D03*
X725250Y474980D03*
G36*
X786209Y477310D02*
X790452Y473067D01*
X785503Y468118D01*
X781260Y472361D01*
X786209Y477310D01*
G37*
G36*
X779137Y484382D02*
X783380Y480139D01*
X778431Y475190D01*
X774188Y479433D01*
X779137Y484382D01*
G37*
D34*
X819912Y471250D03*
X819912Y481250D03*
X848868Y471250D03*
X848868Y481250D03*
X877824Y471250D03*
X877824Y481250D03*
X908050Y471250D03*
X908050Y481250D03*
X1010920Y471250D03*
X1010920Y481250D03*
X1041908Y471250D03*
X1041908Y481250D03*
D32*
G36*
X1084370Y472361D02*
X1080127Y468118D01*
X1075178Y473067D01*
X1079421Y477310D01*
X1084370Y472361D01*
G37*
G36*
X1091442Y479433D02*
X1087199Y475190D01*
X1082250Y480139D01*
X1086493Y484382D01*
X1091442Y479433D01*
G37*
X1130380Y452120D03*
X1140380Y452120D03*
X609520Y452120D03*
X599520Y452120D03*
X599520Y439420D03*
X609520Y439420D03*
G36*
X729190Y406479D02*
X733433Y410722D01*
X738382Y405773D01*
X734139Y401530D01*
X729190Y406479D01*
G37*
G36*
X722118Y399407D02*
X726361Y403650D01*
X731310Y398701D01*
X727067Y394458D01*
X722118Y399407D01*
G37*
G36*
X688550Y406479D02*
X692793Y410722D01*
X697742Y405773D01*
X693499Y401530D01*
X688550Y406479D01*
G37*
G36*
X681478Y399407D02*
X685721Y403650D01*
X690670Y398701D01*
X686427Y394458D01*
X681478Y399407D01*
G37*
G36*
X749510Y406479D02*
X753753Y410722D01*
X758702Y405773D01*
X754459Y401530D01*
X749510Y406479D01*
G37*
G36*
X742438Y399407D02*
X746681Y403650D01*
X751630Y398701D01*
X747387Y394458D01*
X742438Y399407D01*
G37*
G36*
X710990Y398701D02*
X706747Y394458D01*
X701798Y399407D01*
X706041Y403650D01*
X710990Y398701D01*
G37*
G36*
X718062Y405773D02*
X713819Y401530D01*
X708870Y406479D01*
X713113Y410722D01*
X718062Y405773D01*
G37*
X657940Y407670D03*
X667940Y407670D03*
X609520Y426720D03*
X599520Y426720D03*
G36*
X1102062Y480139D02*
X1106305Y484382D01*
X1111254Y479433D01*
X1107011Y475190D01*
X1102062Y480139D01*
G37*
G36*
X1094990Y473067D02*
X1099233Y477310D01*
X1104182Y472361D01*
X1099939Y468118D01*
X1094990Y473067D01*
G37*
G36*
X1123994Y472361D02*
X1119751Y468118D01*
X1114802Y473067D01*
X1119045Y477310D01*
X1123994Y472361D01*
G37*
G36*
X1131066Y479433D02*
X1126823Y475190D01*
X1121874Y480139D01*
X1126117Y484382D01*
X1131066Y479433D01*
G37*
D34*
X948944Y481250D03*
X948944Y471250D03*
X933450Y471250D03*
X933450Y481250D03*
X964438Y471250D03*
X964438Y481250D03*
X979932Y481250D03*
X979932Y471250D03*
D35*
X564860Y746080D02*
X535940Y717160D01*
X564860Y746080D02*
X590550Y746080D01*
D36*
X533400Y838200D03*
X546100Y838200D03*
X558800Y838200D03*
X571500Y838200D03*
X584200Y838200D03*
X596900Y838200D03*
X609600Y838200D03*
X609600Y825500D03*
X596900Y825500D03*
X584200Y825500D03*
X571500Y825500D03*
X558800Y825500D03*
X546100Y825500D03*
X533400Y825500D03*
X533400Y812800D03*
X546100Y812800D03*
X558800Y812800D03*
X571500Y812800D03*
X584200Y812800D03*
X596900Y812800D03*
X609600Y812800D03*
X609600Y800100D03*
X596900Y800100D03*
X584200Y800100D03*
X571500Y800100D03*
X558800Y800100D03*
X546100Y800100D03*
X533400Y800100D03*
X533400Y787400D03*
X546100Y787400D03*
X558800Y787400D03*
X571500Y787400D03*
X584200Y787400D03*
X596900Y787400D03*
X609600Y787400D03*
X609600Y774700D03*
X596900Y774700D03*
X584200Y774700D03*
X571500Y774700D03*
X558800Y774700D03*
X546100Y774700D03*
X533400Y774700D03*
X533400Y762000D03*
X546100Y762000D03*
X546100Y749300D03*
X533400Y749300D03*
X533400Y736600D03*
X546100Y736600D03*
D37*
X1983740Y845312D02*
X1997710Y831342D01*
X1997710Y807720D01*
X1983740Y689102D02*
X1996440Y676402D01*
X1996440Y648970D01*
X1286710Y437540D02*
X1284780Y435610D01*
X1270000Y435610D01*
D36*
X1270000Y435610D03*
D37*
X1286710Y399440D02*
X1284780Y397510D01*
X1270000Y397510D01*
D36*
X1270000Y397510D03*
D37*
X1286710Y361340D02*
X1268730Y343360D01*
X1268730Y317500D01*
D36*
X1268730Y317500D03*
D37*
X1985890Y795900D02*
X1997710Y807720D01*
X1985890Y795900D02*
X1943100Y795900D01*
X1996440Y648970D02*
X1990970Y643500D01*
X1943100Y643500D01*
D35*
X577850Y655710D02*
X566030Y655710D01*
X560070Y661670D01*
D38*
X560070Y661670D03*
D35*
X603250Y655710D02*
X620640Y655710D01*
X621030Y655320D01*
D38*
X621030Y655320D03*
D37*
X1238250Y457200D02*
X1251340Y457200D01*
D36*
X1238250Y457200D03*
D37*
X1239520Y419100D02*
X1251340Y419100D01*
X1239520Y419100D02*
X1233170Y425450D01*
D36*
X1233170Y425450D03*
D37*
X1251340Y381000D02*
X1231900Y361560D01*
X1231900Y341630D01*
D36*
X1231900Y341630D03*
D37*
X1251340Y381000D02*
X1267850Y397510D01*
X1270000Y397510D01*
X1367400Y457200D02*
X1367400Y486800D01*
X1358900Y495300D01*
D36*
X1358900Y495300D03*
D37*
X1367400Y419100D02*
X1384300Y419100D01*
X1397000Y406400D01*
D36*
X1397000Y406400D03*
D37*
X1367400Y381000D02*
X1367400Y372990D01*
X1353820Y359410D01*
D36*
X1353820Y359410D03*
X1496060Y858520D03*
D39*
X1512960Y865260D02*
X1512960Y876300D01*
X1512960Y865260D02*
X1506220Y858520D01*
X1512960Y851780D02*
X1512960Y838200D01*
X1512960Y851780D02*
X1506220Y858520D01*
X1496060Y858520D01*
D36*
X1651000Y850900D03*
D39*
X1645920Y838200D02*
X1636640Y838200D01*
X1651000Y843280D02*
X1651000Y850900D01*
X1651000Y843280D02*
X1645920Y838200D01*
D36*
X1625600Y939800D03*
D39*
X1612510Y939800D02*
X1606160Y933450D01*
X1612510Y939800D02*
X1625600Y939800D01*
X1606160Y933450D02*
X1606160Y918640D01*
X1601920Y914400D01*
D40*
X1197610Y326390D03*
X1209040Y326390D03*
X1220470Y326390D03*
X1197610Y389890D03*
X1209040Y402590D03*
X1220470Y415290D03*
D35*
X1197610Y389890D02*
X1197610Y326390D01*
X1209040Y326390D02*
X1209040Y402590D01*
X1220470Y415290D02*
X1220470Y326390D01*
X577850Y672710D02*
X577850Y700580D01*
X577850Y704850D01*
X590550Y717550D01*
X610870Y717550D02*
X615950Y712470D01*
X615950Y700580D01*
X610870Y717550D02*
X590550Y717550D01*
X615950Y700580D02*
X635000Y719630D01*
X570738Y915162D02*
X570738Y963930D01*
X635000Y850900D02*
X635000Y719630D01*
X635000Y850900D02*
X570738Y915162D01*
X1913500Y834000D02*
X1943100Y834000D01*
X1933584Y875284D02*
X1983740Y875284D01*
X1983740Y719074D02*
X1960626Y719074D01*
X1943100Y701548D01*
X1943100Y681600D01*
D41*
X863600Y685800D02*
X863600Y711200D01*
X952500Y800100D01*
X1028700Y800100D01*
D42*
X1028700Y800100D03*
X1270000Y800100D03*
D41*
X1612900Y800100D01*
X1879600Y800100D01*
X1905000Y774700D01*
X1905000Y723900D01*
X1879600Y698500D01*
X1835700Y698500D01*
X1808600Y725600D01*
X1783200Y725600D01*
X1879600Y800100D02*
X1913500Y834000D01*
X1905000Y723900D02*
X1927352Y701548D01*
X1943100Y701548D01*
X901700Y723900D02*
X863600Y685800D01*
X901700Y723900D02*
X1028700Y723900D01*
D42*
X1028700Y723900D03*
X1244600Y685800D03*
D41*
X1270000Y660400D01*
D42*
X1879600Y660400D03*
D41*
X1270000Y660400D01*
D43*
X647700Y665480D02*
X615950Y697230D01*
X615950Y700580D01*
D42*
X647700Y665480D03*
D44*
X863600Y660400D02*
X863600Y685800D01*
D35*
X1913500Y855200D02*
X1933584Y875284D01*
X1913500Y855200D02*
X1913500Y834000D01*
D45*
X1547680Y838200D02*
X1529960Y838200D01*
D40*
X1568450Y842010D03*
X1612900Y800100D03*
D35*
X1568450Y842010D02*
X1551490Y842010D01*
X1547680Y838200D01*
X603250Y700580D02*
X603250Y672710D01*
D46*
X1334950Y543001D02*
X1347650Y530301D01*
X1347650Y467080D01*
X1337110Y456540D01*
X1311710Y456540D01*
X1347650Y467080D02*
X1347650Y444500D01*
X1347650Y428980D01*
X1337110Y418440D01*
X1311710Y418440D01*
X1347650Y428980D02*
X1347650Y406400D01*
X1347650Y390880D01*
X1341985Y385215D01*
X1337110Y380340D01*
X1313180Y380340D01*
X1311710Y380340D01*
D43*
X565150Y700580D02*
X564730Y700160D01*
X535940Y700160D01*
X470780Y635000D01*
X406400Y635000D01*
X335280Y635000D01*
X228600Y635000D02*
X165100Y635000D01*
X228600Y635000D02*
X335280Y635000D01*
X519040Y700160D02*
X535940Y700160D01*
X519040Y700160D02*
X508000Y711200D01*
X508000Y876300D01*
X508000Y952500D01*
X556260Y1000760D01*
X1219200Y647700D02*
X1225550Y641350D01*
X1231900Y635000D01*
X800100Y1000760D02*
X556260Y1000760D01*
X800100Y1000760D02*
X1096010Y1000760D01*
X1219200Y877570D01*
X1219200Y863600D02*
X1219200Y762000D01*
X1219200Y863600D02*
X1219200Y877570D01*
X1219200Y762000D02*
X1219200Y647700D01*
X1231900Y635000D02*
X1257300Y635000D01*
X1357630Y635000D01*
X1422400Y635000D01*
X1530350Y635000D01*
X1587500Y635000D01*
X1701800Y635000D01*
X1765300Y635000D01*
X1869440Y635000D01*
X1892300Y635000D01*
D38*
X1868170Y624840D03*
D47*
X1868170Y633730D01*
X1869440Y635000D01*
X2019300Y588010D02*
X2032000Y575310D01*
X2019300Y588010D02*
X1990090Y588010D01*
D38*
X1990090Y588010D03*
X1905000Y635000D03*
D47*
X1892300Y635000D01*
X2016150Y543001D02*
X2032000Y558851D01*
X2032000Y575310D01*
D38*
X1696720Y626110D03*
D47*
X1696720Y629920D01*
X1701800Y635000D01*
D38*
X1527810Y624840D03*
D47*
X1527810Y632460D01*
X1530350Y635000D01*
D38*
X1356360Y624840D03*
D47*
X1356360Y633730D01*
X1357630Y635000D01*
D38*
X1219200Y635000D03*
D47*
X1225550Y641350D01*
D38*
X1016000Y624840D03*
D43*
X1007110Y635000D02*
X914400Y635000D01*
X845820Y635000D01*
X676910Y635000D01*
X571500Y635000D01*
X506730Y635000D01*
X470780Y635000D01*
D47*
X1007110Y633730D02*
X1016000Y624840D01*
X1007110Y633730D02*
X1007110Y635000D01*
D38*
X845820Y624840D03*
D47*
X845820Y635000D01*
D38*
X675640Y624840D03*
D47*
X675640Y633730D01*
X676910Y635000D01*
D38*
X505460Y624840D03*
D47*
X505460Y633730D01*
X506730Y635000D01*
D38*
X335280Y624840D03*
D47*
X335280Y635000D01*
D38*
X165100Y624840D03*
D47*
X165100Y635000D01*
D43*
X158750Y641350D01*
X52070Y641350D01*
D47*
X222250Y641350D02*
X228600Y635000D01*
X392430Y641350D02*
X398780Y635000D01*
X406400Y635000D01*
X562610Y641350D02*
X568960Y635000D01*
X571500Y635000D01*
X902970Y641350D02*
X909320Y635000D01*
X914400Y635000D01*
X1243330Y641350D02*
X1249680Y635000D01*
X1257300Y635000D01*
X1413510Y641350D02*
X1419860Y635000D01*
X1422400Y635000D01*
X1584960Y641350D02*
X1587500Y638810D01*
X1587500Y635000D01*
X1756410Y641350D02*
X1758950Y641350D01*
X1765300Y635000D01*
X1219200Y762000D02*
X1191260Y762000D01*
X800100Y988060D02*
X800100Y1000760D01*
X523240Y876300D02*
X508000Y876300D01*
D37*
X1268340Y457200D02*
X1275960Y464820D01*
X1303430Y464820D02*
X1311710Y456540D01*
X1303430Y464820D02*
X1275960Y464820D01*
X1275960Y426720D02*
X1268340Y419100D01*
X1303430Y426720D02*
X1311710Y418440D01*
X1303430Y426720D02*
X1275960Y426720D01*
X1275960Y388620D02*
X1268340Y381000D01*
X1304900Y388620D02*
X1313180Y380340D01*
X1304900Y388620D02*
X1275960Y388620D01*
X1346200Y381000D02*
X1350400Y381000D01*
X1346200Y381000D02*
X1341985Y385215D01*
X1347650Y454450D02*
X1350400Y457200D01*
X1347650Y454450D02*
X1347650Y444500D01*
X1350400Y419100D02*
X1347650Y416350D01*
X1347650Y406400D01*
D45*
X1601920Y838200D02*
X1602740Y838200D01*
X1619640Y838200D01*
D46*
X1569720Y914400D02*
X1547680Y914400D01*
X1569720Y914400D02*
X1574800Y909320D01*
X1574800Y850900D01*
X1587500Y838200D01*
X1601920Y838200D01*
X1570110Y914400D02*
X1589160Y933450D01*
D45*
X1570110Y914400D02*
X1569720Y914400D01*
D43*
X1263650Y819150D02*
X1219200Y863600D01*
X1263650Y819150D02*
X1583690Y819150D01*
X1602740Y838200D01*
D45*
X1601920Y863600D02*
X1607000Y868680D01*
X1725930Y868680D02*
X1733550Y861060D01*
X1725930Y868680D02*
X1607000Y868680D01*
D36*
X1733550Y861060D03*
D45*
X1701800Y876300D02*
X1601920Y876300D01*
D36*
X1701800Y876300D03*
D46*
X1327810Y399440D02*
X1311710Y399440D01*
X1327810Y399440D02*
X1328420Y400050D01*
D48*
X1328420Y400050D03*
X1184910Y350520D03*
D46*
X1159510Y350520D01*
X1111250Y350520D01*
X933450Y350520D01*
X765810Y350520D01*
X440690Y312420D02*
X266700Y312420D01*
X101600Y312420D01*
D36*
X101600Y312420D03*
X266700Y312420D03*
X440690Y312420D03*
X765810Y350520D03*
X933450Y350520D03*
X1111250Y350520D03*
X1159510Y350520D03*
D37*
X1454450Y526080D02*
X1454450Y543001D01*
X1454450Y526080D02*
X1436370Y508000D01*
D36*
X1436370Y508000D03*
D37*
X1624750Y519850D02*
X1624750Y543001D01*
X1624750Y519850D02*
X1612900Y508000D01*
D36*
X1612900Y508000D03*
D37*
X1795050Y525050D02*
X1795050Y543001D01*
X1795050Y525050D02*
X1778000Y508000D01*
D36*
X1778000Y508000D03*
D46*
X765810Y350520D02*
X742950Y350520D01*
X704850Y312420D01*
X598170Y312420D01*
X440690Y312420D01*
D36*
X598170Y312420D03*
D37*
X1193800Y447040D02*
X1286710Y447040D01*
X1188720Y452120D02*
X1140380Y452120D01*
X1188720Y452120D02*
X1193800Y447040D01*
X1229360Y318770D02*
X927100Y318770D01*
X1281430Y370840D02*
X1286710Y370840D01*
X1281430Y370840D02*
X1229360Y318770D01*
X927100Y318770D02*
X656316Y47986D01*
D46*
X1311710Y437540D02*
X1327810Y437540D01*
X1328420Y438150D01*
D48*
X1328420Y438150D03*
X1184910Y363220D03*
D46*
X1146810Y363220D01*
X1085850Y363220D01*
X908050Y363220D01*
X740410Y363220D01*
X707390Y337820D02*
X584200Y337820D01*
X415290Y337820D01*
X243840Y337820D01*
X78740Y337820D01*
D36*
X78740Y337820D03*
X243840Y337820D03*
X415290Y337820D03*
X740410Y363220D03*
X908050Y363220D03*
X1085850Y363220D03*
X1146810Y363220D03*
D46*
X732790Y363220D02*
X707390Y337820D01*
X732790Y363220D02*
X740410Y363220D01*
D36*
X584200Y337820D03*
D46*
X1311710Y361340D02*
X1324000Y361340D01*
X1327150Y364490D01*
D48*
X1327150Y364490D03*
X1184910Y336550D03*
D46*
X1172210Y336550D01*
X1137920Y336550D01*
X961390Y336550D01*
X791210Y336550D01*
X748030Y336550D01*
X698500Y287020D02*
X617220Y287020D01*
X466090Y287020D01*
X294640Y287020D01*
X123190Y287020D01*
D36*
X123190Y287020D03*
X294640Y287020D03*
X466090Y287020D03*
X791210Y336550D03*
X961390Y336550D03*
X1137920Y336550D03*
X1172210Y336550D03*
D37*
X1479850Y514650D02*
X1479850Y543001D01*
X1479850Y514650D02*
X1460500Y495300D01*
D36*
X1460500Y495300D03*
D37*
X1650150Y507150D02*
X1650150Y543001D01*
X1650150Y507150D02*
X1638300Y495300D01*
D36*
X1638300Y495300D03*
D37*
X1820450Y512350D02*
X1820450Y543001D01*
X1820450Y512350D02*
X1803400Y495300D01*
D36*
X1803400Y495300D03*
D46*
X748030Y336550D02*
X698500Y287020D01*
D36*
X617220Y287020D03*
D37*
X1239520Y408940D02*
X1286710Y408940D01*
X1221740Y426720D02*
X1140380Y426720D01*
X1221740Y426720D02*
X1239520Y408940D01*
X2019300Y889000D02*
X2032000Y876300D01*
X2032000Y833628D01*
X2013712Y815340D01*
X2052320Y756412D02*
X2052320Y290830D01*
X1722120Y-39370D01*
X1118870Y6350D02*
X1097280Y6350D01*
X1085850Y17780D01*
X1085850Y20320D01*
X1164590Y-39370D02*
X1722120Y-39370D01*
X1164590Y-39370D02*
X1118870Y6350D01*
X2037842Y770890D02*
X2052320Y756412D01*
X1951110Y770890D02*
X1943100Y778900D01*
X1951110Y770890D02*
X2002790Y770890D01*
X2006600Y774700D01*
X2006600Y808228D01*
X2013712Y815340D01*
X2006600Y774700D02*
X2010410Y770890D01*
X2037842Y770890D01*
D45*
X2019300Y889000D02*
X1601920Y889000D01*
D49*
X1008888Y938530D02*
X978408Y908050D01*
X787400Y838200D02*
X787400Y685800D01*
X857250Y908050D02*
X978408Y908050D01*
X857250Y908050D02*
X787400Y838200D01*
X787400Y685800D02*
X787400Y660400D01*
X1008888Y908812D02*
X1008888Y938530D01*
X1054100Y863600D02*
X1054100Y685800D01*
X1054100Y863600D02*
X1008888Y908812D01*
X1054100Y685800D02*
X1054100Y660400D01*
D37*
X331500Y1300D02*
X331500Y-4600D01*
X331500Y1300D02*
X336550Y6350D01*
X336550Y25400D01*
D36*
X336550Y25400D03*
D37*
X321500Y6160D02*
X321500Y-4600D01*
X321500Y6160D02*
X321310Y6350D01*
X321310Y7620D01*
D36*
X321310Y7620D03*
D37*
X311500Y-4600D02*
X311500Y-14320D01*
X317500Y-20320D01*
X715010Y-20320D01*
X730250Y-5080D01*
X301500Y-4600D02*
X301500Y-22100D01*
X307340Y-27940D01*
X783590Y-27940D01*
X806450Y-5080D01*
X326500Y-4600D02*
X326500Y1380D01*
X328930Y3810D01*
X328930Y16510D01*
D36*
X328930Y16510D03*
D37*
X316500Y-4600D02*
X316500Y-10430D01*
X322580Y-16510D01*
X693420Y-16510D01*
X704850Y-5080D01*
X306500Y-4600D02*
X306500Y-18210D01*
X312420Y-24130D01*
X762000Y-24130D01*
X781050Y-5080D01*
X296500Y-4600D02*
X296500Y-24720D01*
X303530Y-31750D01*
X805180Y-31750D01*
X831850Y-5080D01*
X291500Y-4600D02*
X291500Y-28610D01*
X298450Y-35560D01*
X826770Y-35560D01*
X857250Y-5080D01*
X281500Y-4600D02*
X281500Y-36390D01*
X288290Y-43180D01*
X869950Y-43180D01*
X908050Y-5080D01*
X271500Y-4600D02*
X271500Y-42900D01*
X279400Y-50800D01*
X913130Y-50800D01*
X958850Y-5080D01*
X261500Y-4600D02*
X261500Y20200D01*
X549910Y83820D02*
X562610Y96520D01*
X325120Y83820D02*
X261500Y20200D01*
X325120Y83820D02*
X549910Y83820D01*
X251500Y35600D02*
X251500Y-4600D01*
X549910Y109220D02*
X562610Y121920D01*
X325120Y109220D02*
X251500Y35600D01*
X325120Y109220D02*
X549910Y109220D01*
X241500Y51000D02*
X241500Y-4600D01*
X325120Y134620D02*
X549910Y134620D01*
X562610Y147320D01*
X325120Y134620D02*
X241500Y51000D01*
X231500Y66400D02*
X231500Y-4600D01*
X549910Y160020D02*
X562610Y172720D01*
X325120Y160020D02*
X231500Y66400D01*
X325120Y160020D02*
X549910Y160020D01*
X221500Y81800D02*
X221500Y-4600D01*
X549910Y185420D02*
X562610Y198120D01*
X325120Y185420D02*
X221500Y81800D01*
X325120Y185420D02*
X549910Y185420D01*
X286500Y-4600D02*
X286500Y-32500D01*
X293370Y-39370D01*
X848360Y-39370D01*
X882650Y-5080D01*
X276500Y-4600D02*
X276500Y-40280D01*
X283210Y-46990D01*
X891540Y-46990D02*
X933450Y-5080D01*
X891540Y-46990D02*
X283210Y-46990D01*
X266500Y-4600D02*
X266500Y12500D01*
X325120Y71120D01*
X537210Y71120D01*
X256500Y27900D02*
X256500Y-4600D01*
X325120Y96520D02*
X537210Y96520D01*
X325120Y96520D02*
X256500Y27900D01*
X246500Y43300D02*
X246500Y-4600D01*
X325120Y121920D02*
X537210Y121920D01*
X325120Y121920D02*
X246500Y43300D01*
X236500Y58700D02*
X236500Y-4600D01*
X325120Y147320D02*
X537210Y147320D01*
X325120Y147320D02*
X236500Y58700D01*
X226500Y74100D02*
X226500Y-4600D01*
X325120Y172720D02*
X537210Y172720D01*
X325120Y172720D02*
X226500Y74100D01*
X216500Y89500D02*
X216500Y-4600D01*
X325120Y198120D02*
X537210Y198120D01*
X325120Y198120D02*
X216500Y89500D01*
X206500Y92200D02*
X206500Y-4600D01*
X549910Y210820D02*
X562610Y223520D01*
X325120Y210820D02*
X206500Y92200D01*
X325120Y210820D02*
X549910Y210820D01*
X201500Y99900D02*
X201500Y-4600D01*
X325120Y223520D02*
X537210Y223520D01*
X325120Y223520D02*
X201500Y99900D01*
X191500Y115300D02*
X191500Y-4600D01*
X325120Y248920D02*
X537210Y248920D01*
X325120Y248920D02*
X191500Y115300D01*
X196500Y107600D02*
X196500Y-4600D01*
X549910Y236220D02*
X562610Y248920D01*
X325120Y236220D02*
X196500Y107600D01*
X325120Y236220D02*
X549910Y236220D01*
X186500Y123000D02*
X186500Y-4600D01*
X549910Y261620D02*
X562610Y274320D01*
X325120Y261620D02*
X186500Y123000D01*
X325120Y261620D02*
X549910Y261620D01*
X1944760Y815340D02*
X1983740Y815340D01*
X1944760Y815340D02*
X1943100Y817000D01*
X1943100Y664600D02*
X1978270Y664600D01*
X1983740Y659130D01*
X2013712Y659130D02*
X1981082Y626500D01*
X1943100Y626500D01*
X2042160Y586740D02*
X2042160Y298450D01*
X2042160Y586740D02*
X2002400Y626500D01*
X1981082Y626500D01*
X1170940Y-27940D02*
X1127760Y15240D01*
X1170940Y-27940D02*
X1715770Y-27940D01*
X2042160Y298450D01*
X1116330Y15240D02*
X1111250Y20320D01*
X1116330Y15240D02*
X1127760Y15240D01*
X1914550Y502310D02*
X1914550Y543001D01*
X1487170Y74930D02*
X1115060Y74930D01*
X1487170Y74930D02*
X1914550Y502310D01*
X1115060Y74930D02*
X1088116Y47986D01*
X1889150Y520141D02*
X1889150Y543001D01*
X1889150Y520141D02*
X1470609Y101600D01*
X1090930Y101600D01*
X1037316Y47986D01*
X1902460Y556311D02*
X1914550Y568401D01*
X1478280Y87630D02*
X1102360Y87630D01*
X1478280Y87630D02*
X1902460Y511810D01*
X1902460Y556311D01*
X1102360Y87630D02*
X1062716Y47986D01*
X1868170Y521970D02*
X1868170Y551180D01*
X1885391Y568401D01*
X1889150Y568401D01*
X1461770Y115570D02*
X1079500Y115570D01*
X1461770Y115570D02*
X1868170Y521970D01*
X1079500Y115570D02*
X1011916Y47986D01*
X1744250Y472980D02*
X1744250Y543001D01*
X1402080Y130810D02*
X1069340Y130810D01*
X1402080Y130810D02*
X1744250Y472980D01*
X1069340Y130810D02*
X986516Y47986D01*
X1047750Y160020D02*
X1387939Y160020D01*
X1718850Y490931D01*
X1718850Y543001D01*
X1047750Y160020D02*
X935716Y47986D01*
X1059180Y146050D02*
X1395730Y146050D01*
X1731010Y481330D01*
X1731010Y555161D02*
X1744250Y568401D01*
X1731010Y555161D02*
X1731010Y481330D01*
X1059180Y146050D02*
X961116Y47986D01*
X1703070Y552621D02*
X1718850Y568401D01*
X1383030Y176530D02*
X1038860Y176530D01*
X1383030Y176530D02*
X1703070Y496570D01*
X1703070Y552621D01*
X1038860Y176530D02*
X910316Y47986D01*
X1374140Y193040D02*
X1574800Y393700D01*
X1574800Y542151D01*
X1573950Y543001D01*
X1374140Y193040D02*
X1029970Y193040D01*
X884916Y47986D01*
X1548550Y409651D02*
X1548550Y543001D01*
X1548550Y409651D02*
X1364959Y226060D01*
X1012190Y226060D01*
X834116Y47986D01*
X1560830Y555281D02*
X1573950Y568401D01*
X1369060Y209550D02*
X1021080Y209550D01*
X1369060Y209550D02*
X1560830Y401320D01*
X1560830Y555281D01*
X1021080Y209550D02*
X859516Y47986D01*
X1534160Y554011D02*
X1548550Y568401D01*
X1358900Y241300D02*
X1002030Y241300D01*
X1358900Y241300D02*
X1534160Y416560D01*
X1534160Y554011D01*
X1002030Y241300D02*
X808716Y47986D01*
X1403650Y529590D02*
X1403650Y543001D01*
X1348740Y256540D02*
X966470Y256540D01*
X1403650Y529590D02*
X1447800Y485440D01*
X1447800Y355600D02*
X1348740Y256540D01*
X1447800Y355600D02*
X1447800Y485440D01*
X966470Y256540D02*
X757916Y47986D01*
X1378250Y519430D02*
X1378250Y543001D01*
X1327150Y285750D02*
X944880Y285750D01*
X1378250Y519430D02*
X1422400Y475280D01*
X1422400Y381000D02*
X1327150Y285750D01*
X1422400Y381000D02*
X1422400Y475280D01*
X944880Y285750D02*
X707116Y47986D01*
X1233350Y505640D02*
X1233350Y543001D01*
X1233350Y505640D02*
X1214120Y486410D01*
X1133094Y486410D02*
X1126470Y479786D01*
X1133094Y486410D02*
X1214120Y486410D01*
X1207950Y527761D02*
X1207950Y543001D01*
X1207950Y527761D02*
X1189459Y509270D01*
X1116330Y509270D02*
X1086846Y479786D01*
X1116330Y509270D02*
X1189459Y509270D01*
X1220470Y555521D02*
X1233350Y568401D01*
X1220470Y555521D02*
X1220470Y516890D01*
X1201420Y497840D01*
X1124712Y497840D01*
X1106658Y479786D01*
X1207950Y565861D02*
X1207950Y568401D01*
X1207950Y565861D02*
X1195070Y552981D01*
X1195070Y535940D01*
X1181100Y521970D01*
X1109218Y521970D02*
X1067034Y479786D01*
X1109218Y521970D02*
X1181100Y521970D01*
X1063050Y508000D02*
X1063050Y543001D01*
X1063050Y508000D02*
X1063050Y505520D01*
X1063050Y502392D02*
X1041908Y481250D01*
X1063050Y502392D02*
X1063050Y505520D01*
X1037590Y542941D02*
X1037650Y543001D01*
X1037590Y542941D02*
X1037590Y507920D01*
X1010920Y481250D01*
X1050290Y555641D02*
X1063050Y568401D01*
X1050290Y555641D02*
X1050290Y520700D01*
X1050290Y505126D02*
X1026414Y481250D01*
X1050290Y505126D02*
X1050290Y520700D01*
X1024564Y555316D02*
X1037650Y568401D01*
X1024564Y555316D02*
X1024564Y510388D01*
X995426Y481250D01*
X908701Y523240D02*
X892750Y539191D01*
X892750Y543001D01*
X908701Y523240D02*
X946150Y523240D01*
X964438Y504952D01*
X964438Y481250D01*
X898541Y508000D02*
X867350Y539191D01*
X867350Y543001D01*
X898541Y508000D02*
X919480Y508000D01*
X933450Y494030D01*
X933450Y481250D01*
X722450Y534850D02*
X722450Y543001D01*
X722450Y534850D02*
X726948Y530352D01*
X864108Y530352D02*
X908050Y486410D01*
X908050Y481250D01*
X864108Y530352D02*
X726948Y530352D01*
X708660Y520192D02*
X697050Y531802D01*
X697050Y543001D01*
X877824Y488696D02*
X877824Y481250D01*
X846328Y520192D02*
X708660Y520192D01*
X846328Y520192D02*
X877824Y488696D01*
X722450Y568401D02*
X709930Y555881D01*
X709930Y533400D01*
X718058Y525272D01*
X855987Y525272D01*
X892302Y488957D01*
X892302Y481250D01*
X697050Y568401D02*
X684530Y555881D01*
X684530Y530352D01*
X699770Y515112D01*
X863346Y487934D02*
X863346Y481250D01*
X836168Y515112D02*
X699770Y515112D01*
X836168Y515112D02*
X863346Y487934D01*
X571500Y510032D02*
X552150Y529382D01*
X552150Y543001D01*
X848868Y487172D02*
X848868Y481250D01*
X826008Y510032D02*
X571500Y510032D01*
X826008Y510032D02*
X848868Y487172D01*
X526750Y521762D02*
X526750Y543001D01*
X526750Y521762D02*
X548640Y499872D01*
X819912Y488188D02*
X819912Y481250D01*
X808228Y499872D02*
X548640Y499872D01*
X808228Y499872D02*
X819912Y488188D01*
X552150Y568401D02*
X539750Y556001D01*
X539750Y526542D02*
X561340Y504952D01*
X539750Y526542D02*
X539750Y556001D01*
X834390Y487680D02*
X834390Y481250D01*
X834390Y487680D02*
X817118Y504952D01*
X561340Y504952D01*
X513080Y554731D02*
X526750Y568401D01*
X513080Y518922D02*
X537210Y494792D01*
X513080Y518922D02*
X513080Y554731D01*
X805434Y487426D02*
X805434Y481250D01*
X798068Y494792D02*
X537210Y494792D01*
X798068Y494792D02*
X805434Y487426D01*
X422910Y489712D02*
X381850Y530772D01*
X381850Y543001D01*
X768858Y489712D02*
X778784Y479786D01*
X768858Y489712D02*
X422910Y489712D01*
X720678Y479552D02*
X725250Y474980D01*
X720678Y479552D02*
X396748Y479552D01*
X356450Y519850D01*
X356450Y543001D01*
X369570Y556121D02*
X381850Y568401D01*
X369570Y525272D02*
X410210Y484632D01*
X369570Y525272D02*
X369570Y556121D01*
X749808Y484632D02*
X754654Y479786D01*
X749808Y484632D02*
X410210Y484632D01*
X344170Y556121D02*
X356450Y568401D01*
X696548Y474472D02*
X699850Y471170D01*
X696548Y474472D02*
X382270Y474472D01*
X344170Y512572D01*
X344170Y556121D01*
X211550Y543001D02*
X211550Y531571D01*
X291001Y452120D01*
X599520Y452120D01*
X186150Y524542D02*
X186150Y543001D01*
X186150Y524542D02*
X274320Y436372D01*
X503428Y436372D01*
X513080Y426720D02*
X599520Y426720D01*
X513080Y426720D02*
X503428Y436372D01*
X211550Y568401D02*
X211531Y568401D01*
X199390Y556260D01*
X199390Y528066D01*
X283210Y444246D01*
X515366Y444246D01*
X520192Y439420D02*
X599520Y439420D01*
X520192Y439420D02*
X515366Y444246D01*
X186150Y568401D02*
X172720Y554971D01*
X264414Y428752D02*
X494284Y428752D01*
X172720Y520192D02*
X172720Y554971D01*
X172720Y520192D02*
X264414Y428752D01*
X596138Y407670D02*
X657940Y407670D01*
X506984Y415798D02*
X494284Y428752D01*
X506984Y415798D02*
X588010Y415798D01*
X596138Y407670D01*
X483863Y421132D02*
X153213Y421132D01*
X41250Y532587D02*
X41250Y543001D01*
X41250Y532587D02*
X153213Y421132D01*
X483863Y421132D02*
X498595Y405892D01*
X581899Y405892D01*
X683514Y396494D02*
X686074Y399054D01*
X591297Y396494D02*
X581899Y405892D01*
X591297Y396494D02*
X683514Y396494D01*
X462488Y405892D02*
X108209Y405892D01*
X482600Y386080D02*
X567690Y386080D01*
X15850Y498551D02*
X15850Y543001D01*
X15850Y498551D02*
X108209Y405892D01*
X462488Y405892D02*
X482600Y386080D01*
X701802Y374142D02*
X726714Y399054D01*
X701802Y374142D02*
X579628Y374142D01*
X567690Y386080D01*
X41250Y568300D02*
X41250Y568401D01*
X41250Y568300D02*
X29210Y556260D01*
X132080Y413512D02*
X473710Y413512D01*
X29210Y515620D02*
X29210Y556260D01*
X29210Y515620D02*
X132080Y413512D01*
X473710Y413512D02*
X490474Y395986D01*
X574795Y395986D01*
X692658Y385318D02*
X706394Y399054D01*
X585463Y385318D02*
X574795Y395986D01*
X585463Y385318D02*
X692658Y385318D01*
X15850Y568401D02*
X5080Y557631D01*
X5080Y480060D01*
X129540Y355600D01*
X480007Y355600D02*
X487680Y362966D01*
X480007Y355600D02*
X129540Y355600D01*
X710946Y362966D02*
X747034Y399054D01*
X710946Y362966D02*
X487680Y362966D01*
X1390650Y555401D02*
X1403650Y568401D01*
X1337310Y270510D02*
X955040Y270510D01*
X1390650Y524510D02*
X1390650Y555401D01*
X1390650Y524510D02*
X1435100Y480060D01*
X1435100Y368300D02*
X1337310Y270510D01*
X1435100Y368300D02*
X1435100Y480060D01*
X955040Y270510D02*
X732516Y47986D01*
X1363980Y554131D02*
X1378250Y568401D01*
X1318260Y302260D02*
X935990Y302260D01*
X1363980Y515620D02*
X1363980Y554131D01*
X1409700Y469900D02*
X1409700Y393700D01*
X1409700Y469900D02*
X1363980Y515620D01*
X1409700Y393700D02*
X1318260Y302260D01*
X935990Y302260D02*
X681716Y47986D01*
X905510Y555641D02*
X892750Y568401D01*
X905510Y555641D02*
X905510Y539750D01*
X914400Y530860D01*
X979932Y512318D02*
X979932Y481250D01*
X961390Y530860D02*
X914400Y530860D01*
X961390Y530860D02*
X979932Y512318D01*
X880110Y555641D02*
X867350Y568401D01*
X880110Y555641D02*
X880110Y539750D01*
X904240Y515620D01*
X933624Y515620D02*
X948944Y500300D01*
X948944Y481250D01*
X933624Y515620D02*
X904240Y515620D01*
X1081044Y40914D02*
X1060450Y20320D01*
X1055644Y40914D02*
X1035050Y20320D01*
X1030244Y40914D02*
X1009650Y20320D01*
X979444Y40914D02*
X958850Y20320D01*
X954044Y40914D02*
X933450Y20320D01*
X928644Y40914D02*
X908050Y20320D01*
X903244Y40914D02*
X882650Y20320D01*
X877844Y40914D02*
X857250Y20320D01*
X852444Y40914D02*
X831850Y20320D01*
X827044Y40914D02*
X806450Y20320D01*
X801644Y40914D02*
X781050Y20320D01*
X750844Y40914D02*
X730250Y20320D01*
X725444Y40914D02*
X704850Y20320D01*
X700044Y40914D02*
X679450Y20320D01*
X674644Y40914D02*
X654050Y20320D01*
D36*
X1224280Y958850D03*
D45*
X1556357Y907490D02*
X1557845Y906002D01*
X1557845Y905955D01*
X1562100Y901700D01*
X1535043Y907490D02*
X1505273Y937260D01*
X1535043Y907490D02*
X1556357Y907490D01*
X1562100Y869903D02*
X1555797Y863600D01*
X1547680Y863600D01*
X1245870Y937260D02*
X1224280Y958850D01*
X1245870Y937260D02*
X1505273Y937260D01*
X1562100Y901700D02*
X1562100Y869903D01*
X1547680Y876300D02*
X1529960Y876300D01*
X1491860Y914400D01*
X1234440Y914400D02*
X1189990Y958850D01*
X1234440Y914400D02*
X1491860Y914400D01*
D36*
X1189990Y958850D03*
D45*
X1536700Y889000D02*
X1547680Y889000D01*
X1536700Y889000D02*
X1498600Y927100D01*
X1236980Y927100D01*
X1205230Y958850D01*
D36*
X1205230Y958850D03*
D37*
X1004844Y40914D02*
X996950Y33020D01*
X996950Y7620D02*
X1009650Y-5080D01*
X996950Y7620D02*
X996950Y33020D01*
X649244Y40914D02*
X628650Y20320D01*
X781050Y426720D02*
X765810Y441960D01*
X750570Y441960D01*
X741680Y450850D01*
X741680Y457200D01*
X735330Y463550D01*
X717470Y463550D02*
X709850Y471170D01*
X717470Y463550D02*
X735330Y463550D01*
X792480Y440690D02*
X806450Y426720D01*
X792480Y440690D02*
X792480Y457200D01*
X787400Y462280D01*
X772160Y462280D02*
X761726Y472714D01*
X772160Y462280D02*
X787400Y462280D01*
X805434Y471250D02*
X819150Y457534D01*
X819150Y439420D02*
X831850Y426720D01*
X819150Y439420D02*
X819150Y457534D01*
X834390Y471250D02*
X844550Y461090D01*
X844550Y439420D02*
X857250Y426720D01*
X844550Y439420D02*
X844550Y461090D01*
X863346Y471250D02*
X869950Y464646D01*
X869950Y439420D02*
X882650Y426720D01*
X869950Y439420D02*
X869950Y464646D01*
X892302Y471250D02*
X895350Y468202D01*
X895350Y439420D02*
X908050Y426720D01*
X895350Y439420D02*
X895350Y468202D01*
X995426Y471250D02*
X995426Y440944D01*
X1009650Y426720D01*
X1022350Y467186D02*
X1026414Y471250D01*
X1022350Y439420D02*
X1035050Y426720D01*
X1022350Y439420D02*
X1022350Y467186D01*
X1047750Y460502D02*
X1059962Y472714D01*
X1047750Y439420D02*
X1060450Y426720D01*
X1047750Y439420D02*
X1047750Y460502D01*
X1111250Y426720D02*
X1130380Y426720D01*
X781050Y452120D02*
X770890Y452120D01*
X760730Y462280D01*
X747950Y462280D02*
X735250Y474980D01*
X747950Y462280D02*
X760730Y462280D01*
X785856Y472714D02*
X806450Y452120D01*
X806450Y452120D01*
X819912Y471250D02*
X831850Y459312D01*
X831850Y452120D01*
X848868Y471250D02*
X857250Y462868D01*
X857250Y452120D01*
X877824Y471250D02*
X882650Y466424D01*
X882650Y452120D01*
X908050Y452120D02*
X908050Y471250D01*
X1009650Y452120D02*
X1010920Y453390D01*
X1010920Y471250D01*
X1035050Y464392D02*
X1035050Y452120D01*
X1035050Y464392D02*
X1041908Y471250D01*
X1060450Y457200D02*
X1060450Y452120D01*
X1060450Y457200D02*
X1065530Y462280D01*
X1069340Y462280D01*
X1079774Y472714D01*
X1111250Y452120D02*
X1130380Y452120D01*
X628650Y452120D02*
X609520Y452120D01*
X648970Y452120D02*
X654050Y452120D01*
X648970Y452120D02*
X636270Y439420D01*
X609520Y439420D01*
X730250Y409661D02*
X733786Y406126D01*
X730250Y409661D02*
X730250Y426720D01*
X704850Y426720D02*
X704850Y417830D01*
X693146Y406126D01*
X730250Y444500D02*
X741680Y433070D01*
X730250Y444500D02*
X730250Y452120D01*
X741680Y418551D02*
X754106Y406126D01*
X741680Y418551D02*
X741680Y433070D01*
X717550Y439420D02*
X704850Y452120D01*
X717550Y410210D02*
X713466Y406126D01*
X717550Y410210D02*
X717550Y439420D01*
X679450Y426720D02*
X679450Y412830D01*
X674290Y407670D01*
X667940Y407670D01*
X663956Y436626D02*
X679450Y452120D01*
X663956Y436626D02*
X649947Y436626D01*
X641604Y428283D02*
X641604Y421640D01*
X635254Y415290D01*
X623490Y415290D02*
X612060Y426720D01*
X609520Y426720D01*
X641604Y428283D02*
X649947Y436626D01*
X635254Y415290D02*
X623490Y415290D01*
X1085850Y452120D02*
X1085850Y458978D01*
X1099586Y472714D01*
X1097280Y438150D02*
X1085850Y426720D01*
X1097280Y438150D02*
X1097280Y455930D01*
X1106170Y464820D01*
X1111504Y464820D02*
X1119398Y472714D01*
X1111504Y464820D02*
X1106170Y464820D01*
X946150Y439420D02*
X933450Y426720D01*
X946150Y468456D02*
X948944Y471250D01*
X946150Y468456D02*
X946150Y439420D01*
X933450Y452120D02*
X933450Y471250D01*
X958850Y465662D02*
X958850Y452120D01*
X958850Y465662D02*
X964438Y471250D01*
X971550Y439420D02*
X958850Y426720D01*
X971550Y462868D02*
X979932Y471250D01*
X971550Y462868D02*
X971550Y439420D01*
M02*
