G04 EAGLE Gerber RS-274X export*
G75*
%MOMM*%
%FSLAX34Y34*%
%LPD*%
%INSoldermask Bottom*%
%IPPOS*%
%AMOC8*
5,1,8,0,0,1.08239X$1,22.5*%
G01*
%ADD10C,2.997200*%
%ADD11C,7.823200*%
%ADD12R,1.773200X1.773200*%
%ADD13C,1.773200*%
%ADD14R,1.981200X1.981200*%
%ADD15C,1.981200*%
%ADD16C,2.953200*%
%ADD17C,3.251200*%
%ADD18P,1.869504X8X22.500000*%
%ADD19C,2.403200*%
%ADD20P,1.869504X8X202.500000*%
%ADD21P,1.869504X8X112.500000*%
%ADD22R,1.727200X1.727200*%
%ADD23C,1.727200*%
%ADD24C,2.108200*%
%ADD25P,1.649562X8X112.500000*%
%ADD26C,1.524000*%
%ADD27P,1.649562X8X292.500000*%
%ADD28P,1.649562X8X22.500000*%
%ADD29P,1.649562X8X202.500000*%
%ADD30C,0.959600*%
%ADD31C,1.259600*%
%ADD32C,1.209600*%
%ADD33C,1.703200*%
%ADD34C,1.059600*%


D10*
X1987550Y939800D03*
X1987550Y12700D03*
X44450Y12700D03*
D11*
X165100Y952500D03*
X1333500Y25400D03*
D12*
X2016150Y543001D03*
D13*
X1990750Y543001D03*
X1965350Y543001D03*
X1939950Y543001D03*
X1914550Y543001D03*
X1889150Y543001D03*
X2016150Y568401D03*
X1990750Y568401D03*
X1965350Y568401D03*
X1939950Y568401D03*
X1914550Y568401D03*
X1889150Y568401D03*
D12*
X824050Y543001D03*
D13*
X798650Y543001D03*
X773250Y543001D03*
X747850Y543001D03*
X722450Y543001D03*
X697050Y543001D03*
X824050Y568401D03*
X798650Y568401D03*
X773250Y568401D03*
X747850Y568401D03*
X722450Y568401D03*
X697050Y568401D03*
D12*
X653750Y543001D03*
D13*
X628350Y543001D03*
X602950Y543001D03*
X577550Y543001D03*
X552150Y543001D03*
X526750Y543001D03*
X653750Y568401D03*
X628350Y568401D03*
X602950Y568401D03*
X577550Y568401D03*
X552150Y568401D03*
X526750Y568401D03*
D12*
X483450Y543001D03*
D13*
X458050Y543001D03*
X432650Y543001D03*
X407250Y543001D03*
X381850Y543001D03*
X356450Y543001D03*
X483450Y568401D03*
X458050Y568401D03*
X432650Y568401D03*
X407250Y568401D03*
X381850Y568401D03*
X356450Y568401D03*
D12*
X313150Y543001D03*
D13*
X287750Y543001D03*
X262350Y543001D03*
X236950Y543001D03*
X211550Y543001D03*
X186150Y543001D03*
X313150Y568401D03*
X287750Y568401D03*
X262350Y568401D03*
X236950Y568401D03*
X211550Y568401D03*
X186150Y568401D03*
D12*
X142850Y543001D03*
D13*
X117450Y543001D03*
X92050Y543001D03*
X66650Y543001D03*
X41250Y543001D03*
X15850Y543001D03*
X142850Y568401D03*
X117450Y568401D03*
X92050Y568401D03*
X66650Y568401D03*
X41250Y568401D03*
X15850Y568401D03*
D12*
X1845850Y543001D03*
D13*
X1820450Y543001D03*
X1795050Y543001D03*
X1769650Y543001D03*
X1744250Y543001D03*
X1718850Y543001D03*
X1845850Y568401D03*
X1820450Y568401D03*
X1795050Y568401D03*
X1769650Y568401D03*
X1744250Y568401D03*
X1718850Y568401D03*
D12*
X1675550Y543001D03*
D13*
X1650150Y543001D03*
X1624750Y543001D03*
X1599350Y543001D03*
X1573950Y543001D03*
X1548550Y543001D03*
X1675550Y568401D03*
X1650150Y568401D03*
X1624750Y568401D03*
X1599350Y568401D03*
X1573950Y568401D03*
X1548550Y568401D03*
D12*
X1505250Y543001D03*
D13*
X1479850Y543001D03*
X1454450Y543001D03*
X1429050Y543001D03*
X1403650Y543001D03*
X1378250Y543001D03*
X1505250Y568401D03*
X1479850Y568401D03*
X1454450Y568401D03*
X1429050Y568401D03*
X1403650Y568401D03*
X1378250Y568401D03*
D12*
X1334950Y543001D03*
D13*
X1309550Y543001D03*
X1284150Y543001D03*
X1258750Y543001D03*
X1233350Y543001D03*
X1207950Y543001D03*
X1334950Y568401D03*
X1309550Y568401D03*
X1284150Y568401D03*
X1258750Y568401D03*
X1233350Y568401D03*
X1207950Y568401D03*
D12*
X1164650Y543001D03*
D13*
X1139250Y543001D03*
X1113850Y543001D03*
X1088450Y543001D03*
X1063050Y543001D03*
X1037650Y543001D03*
X1164650Y568401D03*
X1139250Y568401D03*
X1113850Y568401D03*
X1088450Y568401D03*
X1063050Y568401D03*
X1037650Y568401D03*
D12*
X994350Y543001D03*
D13*
X968950Y543001D03*
X943550Y543001D03*
X918150Y543001D03*
X892750Y543001D03*
X867350Y543001D03*
X994350Y568401D03*
X968950Y568401D03*
X943550Y568401D03*
X918150Y568401D03*
X892750Y568401D03*
X867350Y568401D03*
D14*
X1808600Y751000D03*
D15*
X1808600Y725600D03*
X1783200Y751000D03*
X1783200Y725600D03*
X1757800Y751000D03*
X1757800Y725600D03*
X1732400Y751000D03*
X1732400Y725600D03*
X1707000Y751000D03*
X1707000Y725600D03*
X1681600Y751000D03*
X1681600Y725600D03*
X1656200Y751000D03*
X1656200Y725600D03*
X1630800Y751000D03*
X1630800Y725600D03*
X1605400Y751000D03*
X1605400Y725600D03*
X1580000Y751000D03*
X1580000Y725600D03*
X1554600Y751000D03*
X1554600Y725600D03*
X1529200Y751000D03*
X1529200Y725600D03*
X1503800Y751000D03*
X1503800Y725600D03*
X1478400Y751000D03*
X1478400Y725600D03*
X1453000Y751000D03*
X1453000Y725600D03*
X1427600Y751000D03*
X1427600Y725600D03*
X1402200Y751000D03*
X1402200Y725600D03*
X1376800Y751000D03*
X1376800Y725600D03*
X1351400Y751000D03*
X1351400Y725600D03*
X1326000Y751000D03*
X1326000Y725600D03*
D16*
X1857300Y968300D03*
X1857300Y738300D03*
X1277300Y968300D03*
X1277300Y738300D03*
D17*
X450850Y939800D03*
X44450Y939800D03*
D10*
X450850Y381000D03*
D17*
X44450Y381000D03*
D18*
X1003300Y660400D03*
X1003300Y685800D03*
X1028700Y660400D03*
X1028700Y685800D03*
X1054100Y660400D03*
X1054100Y685800D03*
X1079500Y660400D03*
X1079500Y685800D03*
X1104900Y660400D03*
X1104900Y685800D03*
X1130300Y660400D03*
X1130300Y685800D03*
D19*
X1172210Y669290D03*
X961390Y880110D03*
D18*
X628650Y426720D03*
X628650Y452120D03*
X654050Y426720D03*
X654050Y452120D03*
X679450Y426720D03*
X679450Y452120D03*
X704850Y426720D03*
X704850Y452120D03*
X730250Y426720D03*
X730250Y452120D03*
X755650Y426720D03*
X755650Y452120D03*
X781050Y426720D03*
X781050Y452120D03*
X806450Y426720D03*
X806450Y452120D03*
X831850Y426720D03*
X831850Y452120D03*
X857250Y426720D03*
X857250Y452120D03*
X882650Y426720D03*
X882650Y452120D03*
X908050Y426720D03*
X908050Y452120D03*
X933450Y426720D03*
X933450Y452120D03*
X958850Y426720D03*
X958850Y452120D03*
X984250Y426720D03*
X984250Y452120D03*
X1009650Y426720D03*
X1009650Y452120D03*
X1035050Y426720D03*
X1035050Y452120D03*
X1060450Y426720D03*
X1060450Y452120D03*
X1085850Y426720D03*
X1085850Y452120D03*
X1111250Y426720D03*
X1111250Y452120D03*
D20*
X1111250Y20320D03*
X1111250Y-5080D03*
X1085850Y20320D03*
X1085850Y-5080D03*
X1060450Y20320D03*
X1060450Y-5080D03*
X1035050Y20320D03*
X1035050Y-5080D03*
X1009650Y20320D03*
X1009650Y-5080D03*
X984250Y20320D03*
X984250Y-5080D03*
X958850Y20320D03*
X958850Y-5080D03*
X933450Y20320D03*
X933450Y-5080D03*
X908050Y20320D03*
X908050Y-5080D03*
X882650Y20320D03*
X882650Y-5080D03*
X857250Y20320D03*
X857250Y-5080D03*
X831850Y20320D03*
X831850Y-5080D03*
X806450Y20320D03*
X806450Y-5080D03*
X781050Y20320D03*
X781050Y-5080D03*
X755650Y20320D03*
X755650Y-5080D03*
X730250Y20320D03*
X730250Y-5080D03*
X704850Y20320D03*
X704850Y-5080D03*
X679450Y20320D03*
X679450Y-5080D03*
X654050Y20320D03*
X654050Y-5080D03*
X628650Y20320D03*
X628650Y-5080D03*
D21*
X562610Y71120D03*
X537210Y71120D03*
X562610Y96520D03*
X537210Y96520D03*
X562610Y121920D03*
X537210Y121920D03*
X562610Y147320D03*
X537210Y147320D03*
X562610Y172720D03*
X537210Y172720D03*
X562610Y198120D03*
X537210Y198120D03*
X562610Y223520D03*
X537210Y223520D03*
X562610Y248920D03*
X537210Y248920D03*
X562610Y274320D03*
X537210Y274320D03*
X562610Y299720D03*
X537210Y299720D03*
X562610Y325120D03*
X537210Y325120D03*
X562610Y350520D03*
X537210Y350520D03*
X562610Y375920D03*
X537210Y375920D03*
D16*
X554990Y15240D03*
X1243330Y15240D03*
D18*
X736600Y660400D03*
X736600Y685800D03*
X762000Y660400D03*
X762000Y685800D03*
X787400Y660400D03*
X787400Y685800D03*
X812800Y660400D03*
X812800Y685800D03*
X838200Y660400D03*
X838200Y685800D03*
X863600Y660400D03*
X863600Y685800D03*
D19*
X905510Y669290D03*
X694690Y880110D03*
D22*
X2019300Y190500D03*
D23*
X2019300Y160528D03*
D24*
X2038858Y220472D03*
X2038858Y130556D03*
D22*
X1038860Y938530D03*
D23*
X1008888Y938530D03*
X978916Y938530D03*
X1038860Y968502D03*
X1008888Y968502D03*
X978916Y968502D03*
X1068832Y977900D03*
X948944Y977900D03*
D22*
X600710Y963930D03*
D23*
X570738Y963930D03*
D24*
X630682Y944372D03*
X540766Y944372D03*
D22*
X1983740Y815340D03*
D23*
X1983740Y845312D03*
X1983740Y875284D03*
X2013712Y815340D03*
X2013712Y845312D03*
X2013712Y875284D03*
X2023110Y785368D03*
X2023110Y905256D03*
D22*
X1983740Y659130D03*
D23*
X1983740Y689102D03*
X1983740Y719074D03*
X2013712Y659130D03*
X2013712Y689102D03*
X2013712Y719074D03*
X2023110Y629158D03*
X2023110Y749046D03*
D25*
X1918970Y621030D03*
D26*
X1918970Y600710D03*
D25*
X1808480Y621030D03*
D26*
X1808480Y600710D03*
D25*
X1638300Y621030D03*
D26*
X1638300Y600710D03*
D25*
X1466850Y621030D03*
D26*
X1466850Y600710D03*
D25*
X1296670Y621030D03*
D26*
X1296670Y600710D03*
D25*
X1126490Y621030D03*
D26*
X1126490Y600710D03*
D25*
X957580Y621030D03*
D26*
X957580Y600710D03*
D25*
X786130Y621030D03*
D26*
X786130Y600710D03*
D25*
X615950Y621030D03*
D26*
X615950Y600710D03*
D25*
X445770Y621030D03*
D26*
X445770Y600710D03*
D25*
X275590Y621030D03*
D26*
X275590Y600710D03*
D25*
X105410Y621030D03*
D26*
X105410Y600710D03*
D27*
X1756410Y621030D03*
D26*
X1756410Y641350D03*
D27*
X1584960Y621030D03*
D26*
X1584960Y641350D03*
D27*
X1413510Y621030D03*
D26*
X1413510Y641350D03*
D27*
X1243330Y621030D03*
D26*
X1243330Y641350D03*
D27*
X902970Y621030D03*
D26*
X902970Y641350D03*
D27*
X562610Y621030D03*
D26*
X562610Y641350D03*
D27*
X392430Y621030D03*
D26*
X392430Y641350D03*
D27*
X222250Y621030D03*
D26*
X222250Y641350D03*
D27*
X52070Y621030D03*
D26*
X52070Y641350D03*
D28*
X543560Y876300D03*
D26*
X523240Y876300D03*
D27*
X800100Y967740D03*
D26*
X800100Y988060D03*
D29*
X1170940Y762000D03*
D26*
X1191260Y762000D03*
D30*
X533400Y838200D03*
X546100Y838200D03*
X558800Y838200D03*
X571500Y838200D03*
X584200Y838200D03*
X596900Y838200D03*
X609600Y838200D03*
X609600Y825500D03*
X596900Y825500D03*
X584200Y825500D03*
X571500Y825500D03*
X558800Y825500D03*
X546100Y825500D03*
X533400Y825500D03*
X533400Y812800D03*
X546100Y812800D03*
X558800Y812800D03*
X571500Y812800D03*
X584200Y812800D03*
X596900Y812800D03*
X609600Y812800D03*
X609600Y800100D03*
X596900Y800100D03*
X584200Y800100D03*
X571500Y800100D03*
X558800Y800100D03*
X546100Y800100D03*
X533400Y800100D03*
X533400Y787400D03*
X546100Y787400D03*
X558800Y787400D03*
X571500Y787400D03*
X584200Y787400D03*
X596900Y787400D03*
X609600Y787400D03*
X609600Y774700D03*
X596900Y774700D03*
X584200Y774700D03*
X571500Y774700D03*
X558800Y774700D03*
X546100Y774700D03*
X533400Y774700D03*
X533400Y762000D03*
X546100Y762000D03*
X546100Y749300D03*
X533400Y749300D03*
X533400Y736600D03*
X546100Y736600D03*
X1270000Y435610D03*
X1270000Y397510D03*
X1268730Y317500D03*
D31*
X560070Y661670D03*
X621030Y655320D03*
D30*
X1238250Y457200D03*
X1233170Y425450D03*
X1231900Y341630D03*
X1358900Y495300D03*
X1397000Y406400D03*
X1353820Y359410D03*
X1496060Y858520D03*
X1651000Y850900D03*
X1625600Y939800D03*
D32*
X1197610Y326390D03*
X1209040Y326390D03*
X1220470Y326390D03*
X1197610Y389890D03*
X1209040Y402590D03*
X1220470Y415290D03*
D33*
X1028700Y800100D03*
X1270000Y800100D03*
X1028700Y723900D03*
X1244600Y685800D03*
X1879600Y660400D03*
X647700Y665480D03*
D32*
X1568450Y842010D03*
X1612900Y800100D03*
D31*
X1868170Y624840D03*
X1990090Y588010D03*
X1905000Y635000D03*
X1696720Y626110D03*
X1527810Y624840D03*
X1356360Y624840D03*
X1219200Y635000D03*
X1016000Y624840D03*
X845820Y624840D03*
X675640Y624840D03*
X505460Y624840D03*
X335280Y624840D03*
X165100Y624840D03*
D30*
X1733550Y861060D03*
X1701800Y876300D03*
D34*
X1328420Y400050D03*
X1184910Y350520D03*
D30*
X101600Y312420D03*
X266700Y312420D03*
X440690Y312420D03*
X765810Y350520D03*
X933450Y350520D03*
X1111250Y350520D03*
X1159510Y350520D03*
X1436370Y508000D03*
X1612900Y508000D03*
X1778000Y508000D03*
X598170Y312420D03*
D34*
X1328420Y438150D03*
X1184910Y363220D03*
D30*
X78740Y337820D03*
X243840Y337820D03*
X415290Y337820D03*
X740410Y363220D03*
X908050Y363220D03*
X1085850Y363220D03*
X1146810Y363220D03*
X584200Y337820D03*
D34*
X1327150Y364490D03*
X1184910Y336550D03*
D30*
X123190Y287020D03*
X294640Y287020D03*
X466090Y287020D03*
X791210Y336550D03*
X961390Y336550D03*
X1137920Y336550D03*
X1172210Y336550D03*
X1460500Y495300D03*
X1638300Y495300D03*
X1803400Y495300D03*
X617220Y287020D03*
X336550Y25400D03*
X321310Y7620D03*
X328930Y16510D03*
X1224280Y958850D03*
X1189990Y958850D03*
X1205230Y958850D03*
M02*
