M48
;GenerationSoftware,Autodesk,EAGLE,9.5.2*%
;CreationDate,2022-01-14T19:24:13Z*%
FMAT,2
ICI,OFF
METRIC,TZ,000.000
T5C0.200
T4C0.350
T3C0.400
T2C1.016
T1C2.751
%
G90
M71
T1
X42249Y-3175
X8382Y-3175
X25315Y-3175
T2
X26670Y-143770
X29210Y-143770
X48683Y-141230
X31750Y-143770
X19050Y-141230
X21590Y-141230
X24130Y-141230
X14817Y-143770
X26670Y-141230
X29210Y-141230
X31750Y-141230
X35983Y-143770
X14817Y-141230
X38523Y-143770
X41063Y-143770
X43603Y-143770
X48683Y-143770
X35983Y-141230
X38523Y-141230
X41063Y-141230
X43603Y-141230
X46143Y-141230
X2117Y-143770
X4657Y-143770
X7197Y-143770
X9737Y-143770
X12277Y-143770
X46143Y-143770
X2117Y-141230
X4657Y-141230
X7197Y-141230
X9737Y-141230
X12277Y-141230
X19050Y-143770
X21590Y-143770
X24130Y-143770
T3
X9550Y-137900
X29369Y-138604
X46611Y-138108
T4
X38000Y-77000
X38000Y-115000
X33000Y-115000
X33500Y-26200
X33000Y-77000
X12000Y-35100
X22465Y-26305
X14900Y-90900
X22000Y-77000
X28000Y-77000
X19065Y-126409
X28000Y-115000
X22000Y-115000
X17453Y-26293
X17000Y-77000
X17000Y-115000
X38500Y-26200
X28400Y-26250
T5
X36250Y-42000
X31750Y-29500
X30000Y-28750
X31750Y-28750
X45250Y-21000
X29750Y-30500
X46250Y-16250
X30500Y-30500
X31250Y-30500
X31600Y-32850
X20250Y-81500
X20450Y-84600
X21000Y-81500
X22750Y-81250
X21750Y-84000
X22110Y-81560
X23500Y-81500
X23750Y-84000
X24500Y-84000
X21250Y-80500
X24000Y-80250
X22750Y-79750
X30000Y-76250
X29500Y-77500
X29750Y-78250
X19750Y-89000
X18600Y-88150
X20750Y-88500
X19450Y-86250
X21950Y-93550
X17651Y-96956
X23350Y-92900
X23000Y-89000
X23750Y-91500
X24572Y-94696
X25078Y-92263
X25600Y-93650
X22750Y-33000
X26750Y-91500
X29250Y-89000
X31750Y-105750
X30750Y-94750
X32500Y-95750
X35900Y-95600
X33600Y-93150
X30100Y-88900
X31100Y-88200
X43500Y-101500
X45250Y-102250
X27580Y-81430
X29750Y-79500
X29250Y-80750
X31250Y-77000
X41800Y-67750
X32000Y-77250
X30750Y-84000
X34900Y-79700
X31500Y-78500
X20250Y-122250
X21000Y-122250
X20750Y-119750
X20750Y-123750
X21750Y-119750
X20000Y-123750
X22000Y-118500
X23500Y-119500
X22750Y-117750
X21900Y-124050
X25500Y-119000
X25560Y-119740
X31500Y-116250
X30000Y-117750
X26500Y-122000
X28750Y-119000
X28000Y-119750
X28750Y-119750
X44250Y-120250
X30000Y-119500
X38450Y-117300
X27000Y-119750
X29250Y-117250
X37250Y-122250
X21033Y-41050
X21033Y-92101
X23033Y-130250
X15000Y-27500
X16000Y-30500
X20250Y-33000
X12900Y-27050
X14750Y-30000
X22000Y-30500
X16000Y-25500
X18000Y-31000
X21000Y-33000
X8500Y-31000
X16750Y-30500
X21000Y-30500
X19750Y-35000
X23250Y-29750
X23500Y-30500
X24000Y-29750
X20750Y-29500
X24750Y-33000
X21500Y-28750
X31250Y-25500
X30000Y-26250
X31750Y-26500
X13750Y-42250
X17300Y-37100
X19750Y-37100
X26300Y-92400
X20590Y-37910
X20300Y-36450
X22150Y-44050
X22000Y-36050
X22500Y-37500
X22650Y-42300
X23250Y-38000
X23250Y-41200
X24500Y-50750
X25500Y-38000
X25250Y-40500
X28750Y-43250
X27000Y-40500
X27500Y-38000
X31750Y-55000
X31000Y-43750
X33500Y-38500
X44750Y-43000
X33750Y-41500
X30500Y-38000
X44750Y-55750
X29000Y-41000
X30750Y-40500
X35000Y-42000
M30